<?xml version="1.0" encoding="UTF-8" standalone="no"?>
<!DOCTYPE svg PUBLIC "-//W3C//DTD SVG 1.1//EN"
 "http://www.w3.org/Graphics/SVG/1.1/DTD/svg11.dtd">
<!-- Generated by graphviz version 2.38.0 (20140413.2041)
 -->
<!-- Title: rasPi&#45;EmergencyStation/main.c Pages: 1 -->
<svg width="1334pt" height="477pt"
 viewBox="0.00 0.00 1333.63 477.00" xmlns="http://www.w3.org/2000/svg" xmlns:xlink="http://www.w3.org/1999/xlink">
<g id="graph0" class="graph" transform="scale(1 1) rotate(0) translate(4 473)">
<title>rasPi&#45;EmergencyStation/main.c</title>
<polygon fill="white" stroke="none" points="-4,4 -4,-473 1329.63,-473 1329.63,4 -4,4"/>
<!-- Node1 -->
<g id="node1" class="node"><title>Node1</title>
<polygon fill="#bfbfbf" stroke="black" points="595.722,-440.5 595.722,-468.5 719.544,-468.5 719.544,-440.5 595.722,-440.5"/>
<text text-anchor="start" x="603.722" y="-456.5" font-family="Helvetica,sans-Serif" font-size="10.00">rasPi&#45;EmergencyStation</text>
<text text-anchor="middle" x="657.633" y="-446.5" font-family="Helvetica,sans-Serif" font-size="10.00">/main.c</text>
</g>
<!-- Node2 -->
<g id="node2" class="node"><title>Node2</title>
<g id="a_node2"><a xlink:href="main_8h.html" target="_top" xlink:title="Main file&#39;s headers of the emergency station application. ">
<polygon fill="white" stroke="black" points="634.626,-385.5 634.626,-403.5 680.64,-403.5 680.64,-385.5 634.626,-385.5"/>
<text text-anchor="middle" x="657.633" y="-391.5" font-family="Helvetica,sans-Serif" font-size="10.00">main.h</text>
</a>
</g>
</g>
<!-- Node1&#45;&gt;Node2 -->
<g id="edge1" class="edge"><title>Node1&#45;&gt;Node2</title>
<path fill="none" stroke="midnightblue" d="M657.633,-440.339C657.633,-432.531 657.633,-422.512 657.633,-413.927"/>
<polygon fill="midnightblue" stroke="midnightblue" points="661.133,-413.771 657.633,-403.771 654.133,-413.772 661.133,-413.771"/>
</g>
<!-- Node3 -->
<g id="node3" class="node"><title>Node3</title>
<polygon fill="white" stroke="#bfbfbf" points="601.901,-0.5 601.901,-18.5 647.364,-18.5 647.364,-0.5 601.901,-0.5"/>
<text text-anchor="middle" x="624.633" y="-6.5" font-family="Helvetica,sans-Serif" font-size="10.00">stdio.h</text>
</g>
<!-- Node2&#45;&gt;Node3 -->
<g id="edge2" class="edge"><title>Node2&#45;&gt;Node3</title>
<path fill="none" stroke="midnightblue" d="M634.367,-393.516C531.471,-393.35 120.678,-390.103 82.6329,-349 -8.67775,-250.35 35.3531,-118.87 153.633,-55 191.985,-34.2903 490.554,-17.3298 591.449,-12.1392"/>
<polygon fill="midnightblue" stroke="midnightblue" points="591.859,-15.623 601.668,-11.6191 591.503,-8.63203 591.859,-15.623"/>
</g>
<!-- Node4 -->
<g id="node4" class="node"><title>Node4</title>
<polygon fill="white" stroke="#bfbfbf" points="91.399,-330.5 91.399,-348.5 141.867,-348.5 141.867,-330.5 91.399,-330.5"/>
<text text-anchor="middle" x="116.633" y="-336.5" font-family="Helvetica,sans-Serif" font-size="10.00">signal.h</text>
</g>
<!-- Node2&#45;&gt;Node4 -->
<g id="edge3" class="edge"><title>Node2&#45;&gt;Node4</title>
<path fill="none" stroke="midnightblue" d="M634.492,-392.489C562.931,-389.141 338.997,-376.995 155.633,-349 154.537,-348.833 153.425,-348.653 152.305,-348.463"/>
<polygon fill="midnightblue" stroke="midnightblue" points="152.617,-344.96 142.141,-346.542 151.317,-351.839 152.617,-344.96"/>
</g>
<!-- Node5 -->
<g id="node5" class="node"><title>Node5</title>
<g id="a_node5"><a xlink:href="structures_8h.html" target="_top" xlink:title="File containing all the structure definitions used in the other modules. ">
<polygon fill="white" stroke="black" points="913.512,-55.5 913.512,-73.5 981.754,-73.5 981.754,-55.5 913.512,-55.5"/>
<text text-anchor="middle" x="947.633" y="-61.5" font-family="Helvetica,sans-Serif" font-size="10.00">structures.h</text>
</a>
</g>
</g>
<!-- Node2&#45;&gt;Node5 -->
<g id="edge4" class="edge"><title>Node2&#45;&gt;Node5</title>
<path fill="none" stroke="midnightblue" d="M680.695,-393.793C752.985,-394.221 981.199,-391.84 1163.63,-349 1238.92,-331.321 1325.63,-362.834 1325.63,-285.5 1325.63,-285.5 1325.63,-285.5 1325.63,-228.5 1325.63,-192.022 1301.37,-188.695 1273.63,-165 1236.83,-133.558 1224.94,-127.027 1179.63,-110 1116.86,-86.4123 1039.64,-74.8025 992.025,-69.4922"/>
<polygon fill="midnightblue" stroke="midnightblue" points="992.356,-66.0077 982.04,-68.4228 991.61,-72.9679 992.356,-66.0077"/>
</g>
<!-- Node8 -->
<g id="node8" class="node"><title>Node8</title>
<g id="a_node8"><a xlink:href="message_parser_8h.html" target="_top" xlink:title="Message parser function headers. ">
<polygon fill="white" stroke="black" points="644.722,-330.5 644.722,-348.5 738.544,-348.5 738.544,-330.5 644.722,-330.5"/>
<text text-anchor="middle" x="691.633" y="-336.5" font-family="Helvetica,sans-Serif" font-size="10.00">messageParser.h</text>
</a>
</g>
</g>
<!-- Node2&#45;&gt;Node8 -->
<g id="edge8" class="edge"><title>Node2&#45;&gt;Node8</title>
<path fill="none" stroke="midnightblue" d="M662.945,-385.219C667.764,-377.707 675.011,-366.411 681.015,-357.052"/>
<polygon fill="midnightblue" stroke="midnightblue" points="684.015,-358.856 686.469,-348.55 678.124,-355.077 684.015,-358.856"/>
</g>
<!-- Node15 -->
<g id="node15" class="node"><title>Node15</title>
<g id="a_node15"><a xlink:href="msg_buffers_8h.html" target="_top" xlink:title="File containing the headers of all functions related to the message mailboxes. ">
<polygon fill="white" stroke="black" points="1096.27,-110.5 1096.27,-128.5 1171,-128.5 1171,-110.5 1096.27,-110.5"/>
<text text-anchor="middle" x="1133.63" y="-116.5" font-family="Helvetica,sans-Serif" font-size="10.00">msgBuffers.h</text>
</a>
</g>
</g>
<!-- Node2&#45;&gt;Node15 -->
<g id="edge67" class="edge"><title>Node2&#45;&gt;Node15</title>
<path fill="none" stroke="midnightblue" d="M680.802,-392.031C794.462,-384.525 1287.63,-348.337 1287.63,-285.5 1287.63,-285.5 1287.63,-285.5 1287.63,-228.5 1287.63,-174.803 1224.1,-145.529 1178.64,-131.458"/>
<polygon fill="midnightblue" stroke="midnightblue" points="1179.55,-128.074 1168.96,-128.602 1177.56,-134.788 1179.55,-128.074"/>
</g>
<!-- Node17 -->
<g id="node17" class="node"><title>Node17</title>
<g id="a_node17"><a xlink:href="tcp_vehicle_socket_comm_8h.html" target="_top" xlink:title="Vehicle connection server&#39;s headers. ">
<polygon fill="white" stroke="black" points="537.66,-275.5 537.66,-293.5 667.606,-293.5 667.606,-275.5 537.66,-275.5"/>
<text text-anchor="middle" x="602.633" y="-281.5" font-family="Helvetica,sans-Serif" font-size="10.00">tcpVehicleSocketComm.h</text>
</a>
</g>
</g>
<!-- Node2&#45;&gt;Node17 -->
<g id="edge70" class="edge"><title>Node2&#45;&gt;Node17</title>
<path fill="none" stroke="midnightblue" d="M653.499,-385.382C644.62,-367.948 623.558,-326.59 611.505,-302.922"/>
<polygon fill="midnightblue" stroke="midnightblue" points="614.472,-301.034 606.815,-293.712 608.234,-304.211 614.472,-301.034"/>
</g>
<!-- Node19 -->
<g id="node19" class="node"><title>Node19</title>
<g id="a_node19"><a xlink:href="station_actions_8h.html" target="_top" xlink:title="FIle containing all the station action headers. ">
<polygon fill="white" stroke="black" points="723.335,-220.5 723.335,-238.5 809.931,-238.5 809.931,-220.5 723.335,-220.5"/>
<text text-anchor="middle" x="766.633" y="-226.5" font-family="Helvetica,sans-Serif" font-size="10.00">stationActions.h</text>
</a>
</g>
</g>
<!-- Node2&#45;&gt;Node19 -->
<g id="edge68" class="edge"><title>Node2&#45;&gt;Node19</title>
<path fill="none" stroke="midnightblue" d="M680.652,-391.97C763.625,-385.933 1045.27,-360.743 1098.63,-294 1103.91,-287.404 1104.19,-281.355 1098.63,-275 1063.11,-234.403 904.73,-229.276 820.204,-229.53"/>
<polygon fill="midnightblue" stroke="midnightblue" points="820.007,-226.031 810.027,-229.588 820.047,-233.031 820.007,-226.031"/>
</g>
<!-- Node20 -->
<g id="node20" class="node"><title>Node20</title>
<g id="a_node20"><a xlink:href="tcp_server_socket_comm_8h.html" target="_top" xlink:title="Server connection related function definitions. ">
<polygon fill="white" stroke="black" points="388.059,-165.5 388.059,-183.5 515.207,-183.5 515.207,-165.5 388.059,-165.5"/>
<text text-anchor="middle" x="451.633" y="-171.5" font-family="Helvetica,sans-Serif" font-size="10.00">tcpServerSocketComm.h</text>
</a>
</g>
</g>
<!-- Node2&#45;&gt;Node20 -->
<g id="edge69" class="edge"><title>Node2&#45;&gt;Node20</title>
<path fill="none" stroke="midnightblue" d="M640.922,-385.492C611.032,-370.587 547.533,-336.237 504.633,-294 483.639,-273.331 479.633,-265.906 467.633,-239 461.115,-224.384 456.927,-206.642 454.478,-193.632"/>
<polygon fill="midnightblue" stroke="midnightblue" points="457.9,-192.877 452.758,-183.613 451,-194.061 457.9,-192.877"/>
</g>
<!-- Node5&#45;&gt;Node3 -->
<g id="edge5" class="edge"><title>Node5&#45;&gt;Node3</title>
<path fill="none" stroke="midnightblue" d="M913.372,-57.8782C850.906,-47.6283 719.276,-26.0296 657.701,-15.9261"/>
<polygon fill="midnightblue" stroke="midnightblue" points="658.18,-12.4579 647.745,-14.2924 657.047,-19.3655 658.18,-12.4579"/>
</g>
<!-- Node6 -->
<g id="node6" class="node"><title>Node6</title>
<polygon fill="white" stroke="#bfbfbf" points="1163.5,-0.5 1163.5,-18.5 1221.76,-18.5 1221.76,-0.5 1163.5,-0.5"/>
<text text-anchor="middle" x="1192.63" y="-6.5" font-family="Helvetica,sans-Serif" font-size="10.00">pthread.h</text>
</g>
<!-- Node5&#45;&gt;Node6 -->
<g id="edge6" class="edge"><title>Node5&#45;&gt;Node6</title>
<path fill="none" stroke="midnightblue" d="M981.957,-56.0748C1026.98,-46.3341 1105.83,-29.2788 1153.24,-19.0221"/>
<polygon fill="midnightblue" stroke="midnightblue" points="1154.11,-22.4151 1163.14,-16.8798 1152.63,-15.5733 1154.11,-22.4151"/>
</g>
<!-- Node7 -->
<g id="node7" class="node"><title>Node7</title>
<polygon fill="white" stroke="#bfbfbf" points="331.17,-0.5 331.17,-18.5 396.096,-18.5 396.096,-0.5 331.17,-0.5"/>
<text text-anchor="middle" x="363.633" y="-6.5" font-family="Helvetica,sans-Serif" font-size="10.00">netinet/in.h</text>
</g>
<!-- Node5&#45;&gt;Node7 -->
<g id="edge7" class="edge"><title>Node5&#45;&gt;Node7</title>
<path fill="none" stroke="midnightblue" d="M913.281,-60.3825C812.379,-51.2253 517.039,-24.4221 406.262,-14.3687"/>
<polygon fill="midnightblue" stroke="midnightblue" points="406.405,-10.8675 396.13,-13.4492 405.773,-17.8388 406.405,-10.8675"/>
</g>
<!-- Node8&#45;&gt;Node3 -->
<g id="edge9" class="edge"><title>Node8&#45;&gt;Node3</title>
<path fill="none" stroke="midnightblue" d="M644.491,-337.238C578.963,-334.362 457.282,-324.929 358.633,-294 234.418,-255.055 171.848,-246.887 116.633,-129 74.7737,-39.6289 472.387,-16.5415 591.52,-11.6525"/>
<polygon fill="midnightblue" stroke="midnightblue" points="591.987,-15.1369 601.842,-11.2463 591.712,-8.14232 591.987,-15.1369"/>
</g>
<!-- Node8&#45;&gt;Node5 -->
<g id="edge18" class="edge"><title>Node8&#45;&gt;Node5</title>
<path fill="none" stroke="midnightblue" d="M738.898,-336.811C841.014,-332.676 1074.97,-320.395 1098.63,-294 1164.48,-220.557 1024.45,-116.093 968.97,-79.1128"/>
<polygon fill="midnightblue" stroke="midnightblue" points="970.821,-76.1413 960.54,-73.5811 966.981,-81.9937 970.821,-76.1413"/>
</g>
<!-- Node8&#45;&gt;Node6 -->
<g id="edge12" class="edge"><title>Node8&#45;&gt;Node6</title>
<path fill="none" stroke="midnightblue" d="M738.744,-336.972C851.37,-332.91 1129.28,-320.307 1161.63,-294 1184.85,-275.123 1200.03,-197.646 1212.63,-74 1213.49,-65.5991 1214.4,-63.2568 1212.63,-55 1210.61,-45.5664 1206.43,-35.7177 1202.41,-27.6909"/>
<polygon fill="midnightblue" stroke="midnightblue" points="1205.38,-25.8317 1197.58,-18.6665 1199.21,-29.1348 1205.38,-25.8317"/>
</g>
<!-- Node8&#45;&gt;Node7 -->
<g id="edge13" class="edge"><title>Node8&#45;&gt;Node7</title>
<path fill="none" stroke="midnightblue" d="M644.522,-338.213C569.178,-336.653 417.542,-328.969 294.633,-294 138.687,-249.632 67.8745,-222.864 3.63291,-74 0.287022,-66.2467 -1.95997,-61.3268 3.63291,-55 24.3455,-31.5695 229.654,-17.7081 320.625,-12.6724"/>
<polygon fill="midnightblue" stroke="midnightblue" points="321.079,-16.153 330.874,-12.1158 320.699,-9.16334 321.079,-16.153"/>
</g>
<!-- Node9 -->
<g id="node9" class="node"><title>Node9</title>
<polygon fill="white" stroke="#bfbfbf" points="125.236,-110.5 125.236,-128.5 174.029,-128.5 174.029,-110.5 125.236,-110.5"/>
<text text-anchor="middle" x="149.633" y="-116.5" font-family="Helvetica,sans-Serif" font-size="10.00">string.h</text>
</g>
<!-- Node8&#45;&gt;Node9 -->
<g id="edge10" class="edge"><title>Node8&#45;&gt;Node9</title>
<path fill="none" stroke="midnightblue" d="M644.312,-335.482C588.626,-330.881 493.952,-319.749 416.633,-294 316.668,-260.709 289.81,-248.674 206.633,-184 188.981,-170.275 172.329,-150.66 161.635,-136.872"/>
<polygon fill="midnightblue" stroke="midnightblue" points="164.337,-134.642 155.517,-128.773 158.752,-138.862 164.337,-134.642"/>
</g>
<!-- Node10 -->
<g id="node10" class="node"><title>Node10</title>
<polygon fill="white" stroke="#bfbfbf" points="619.791,-110.5 619.791,-128.5 667.475,-128.5 667.475,-110.5 619.791,-110.5"/>
<text text-anchor="middle" x="643.633" y="-116.5" font-family="Helvetica,sans-Serif" font-size="10.00">stdlib.h</text>
</g>
<!-- Node8&#45;&gt;Node10 -->
<g id="edge11" class="edge"><title>Node8&#45;&gt;Node10</title>
<path fill="none" stroke="midnightblue" d="M689.868,-330.483C682.945,-299.041 657.542,-183.67 647.631,-138.657"/>
<polygon fill="midnightblue" stroke="midnightblue" points="651.034,-137.836 645.466,-128.823 644.198,-139.342 651.034,-137.836"/>
</g>
<!-- Node11 -->
<g id="node11" class="node"><title>Node11</title>
<polygon fill="white" stroke="#bfbfbf" points="348.005,-110.5 348.005,-128.5 411.261,-128.5 411.261,-110.5 348.005,-110.5"/>
<text text-anchor="middle" x="379.633" y="-116.5" font-family="Helvetica,sans-Serif" font-size="10.00">arpa/inet.h</text>
</g>
<!-- Node8&#45;&gt;Node11 -->
<g id="edge14" class="edge"><title>Node8&#45;&gt;Node11</title>
<path fill="none" stroke="midnightblue" d="M644.716,-333.23C605.661,-327.488 549.407,-316.009 504.633,-294 434.865,-259.706 402.122,-254.158 368.633,-184 361.711,-169.5 366.017,-151.285 371.132,-138.086"/>
<polygon fill="midnightblue" stroke="midnightblue" points="374.417,-139.309 375.208,-128.744 368.001,-136.51 374.417,-139.309"/>
</g>
<!-- Node12 -->
<g id="node12" class="node"><title>Node12</title>
<polygon fill="white" stroke="#bfbfbf" points="259.123,-110.5 259.123,-128.5 330.143,-128.5 330.143,-110.5 259.123,-110.5"/>
<text text-anchor="middle" x="294.633" y="-116.5" font-family="Helvetica,sans-Serif" font-size="10.00">sys/socket.h</text>
</g>
<!-- Node8&#45;&gt;Node12 -->
<g id="edge15" class="edge"><title>Node8&#45;&gt;Node12</title>
<path fill="none" stroke="midnightblue" d="M644.687,-334.927C597.067,-330.051 521.984,-318.876 461.633,-294 389.438,-264.243 369.582,-247.852 324.633,-184 314.554,-169.682 306.342,-151.445 301.075,-138.192"/>
<polygon fill="midnightblue" stroke="midnightblue" points="304.329,-136.903 297.502,-128.802 297.787,-139.393 304.329,-136.903"/>
</g>
<!-- Node13 -->
<g id="node13" class="node"><title>Node13</title>
<polygon fill="white" stroke="#bfbfbf" points="1015.45,-275.5 1015.45,-293.5 1089.82,-293.5 1089.82,-275.5 1015.45,-275.5"/>
<text text-anchor="middle" x="1052.63" y="-281.5" font-family="Helvetica,sans-Serif" font-size="10.00">semaphore.h</text>
</g>
<!-- Node8&#45;&gt;Node13 -->
<g id="edge16" class="edge"><title>Node8&#45;&gt;Node13</title>
<path fill="none" stroke="midnightblue" d="M738.686,-332.082C799.474,-323.714 908.548,-308.436 1001.63,-294 1002.88,-293.807 1004.14,-293.609 1005.42,-293.408"/>
<polygon fill="midnightblue" stroke="midnightblue" points="1006.01,-296.858 1015.32,-291.818 1004.9,-289.947 1006.01,-296.858"/>
</g>
<!-- Node14 -->
<g id="node14" class="node"><title>Node14</title>
<polygon fill="white" stroke="#bfbfbf" points="922.121,-110.5 922.121,-128.5 973.145,-128.5 973.145,-110.5 922.121,-110.5"/>
<text text-anchor="middle" x="947.633" y="-116.5" font-family="Helvetica,sans-Serif" font-size="10.00">unistd.h</text>
</g>
<!-- Node8&#45;&gt;Node14 -->
<g id="edge17" class="edge"><title>Node8&#45;&gt;Node14</title>
<path fill="none" stroke="midnightblue" d="M712.601,-330.399C758.298,-311.691 867.499,-261.097 926.633,-184 936.791,-170.756 942.163,-152.363 944.92,-138.78"/>
<polygon fill="midnightblue" stroke="midnightblue" points="948.405,-139.172 946.67,-128.72 941.508,-137.973 948.405,-139.172"/>
</g>
<!-- Node8&#45;&gt;Node15 -->
<g id="edge19" class="edge"><title>Node8&#45;&gt;Node15</title>
<path fill="none" stroke="midnightblue" d="M738.753,-337.056C845.278,-333.442 1096.86,-322.188 1122.63,-294 1161.9,-251.06 1143.05,-174.14 1135.29,-138.966"/>
<polygon fill="midnightblue" stroke="midnightblue" points="1138.64,-137.836 1133.19,-128.748 1131.78,-139.248 1138.64,-137.836"/>
</g>
<!-- Node8&#45;&gt;Node17 -->
<g id="edge25" class="edge"><title>Node8&#45;&gt;Node17</title>
<path fill="none" stroke="midnightblue" d="M673.106,-330.45C657.336,-322.201 635.198,-309.216 619.828,-299.319"/>
<polygon fill="midnightblue" stroke="midnightblue" points="621.518,-296.239 611.25,-293.625 617.647,-302.072 621.518,-296.239"/>
</g>
<!-- Node8&#45;&gt;Node19 -->
<g id="edge66" class="edge"><title>Node8&#45;&gt;Node19</title>
<path fill="none" stroke="midnightblue" d="M693.497,-330.382C702.346,-312.557 731.701,-269.723 750.675,-246.357"/>
<polygon fill="midnightblue" stroke="midnightblue" points="753.355,-248.608 757.138,-238.712 748.009,-244.089 753.355,-248.608"/>
</g>
<!-- Node15&#45;&gt;Node3 -->
<g id="edge20" class="edge"><title>Node15&#45;&gt;Node3</title>
<path fill="none" stroke="midnightblue" d="M1119.14,-110.317C1093.9,-96.4679 1039.86,-68.5942 990.633,-55 871.11,-21.9925 722.903,-13.4581 657.861,-11.2591"/>
<polygon fill="midnightblue" stroke="midnightblue" points="657.894,-7.75855 647.79,-10.9476 657.677,-14.7552 657.894,-7.75855"/>
</g>
<!-- Node15&#45;&gt;Node5 -->
<g id="edge23" class="edge"><title>Node15&#45;&gt;Node5</title>
<path fill="none" stroke="midnightblue" d="M1105.38,-110.45C1073.47,-101.357 1021.37,-86.5108 985.843,-76.3879"/>
<polygon fill="midnightblue" stroke="midnightblue" points="986.419,-72.9127 975.843,-73.5383 984.501,-79.6448 986.419,-72.9127"/>
</g>
<!-- Node15&#45;&gt;Node6 -->
<g id="edge21" class="edge"><title>Node15&#45;&gt;Node6</title>
<path fill="none" stroke="midnightblue" d="M1138.07,-110.382C1147.63,-92.8695 1170.39,-51.2181 1183.29,-27.6045"/>
<polygon fill="midnightblue" stroke="midnightblue" points="1186.42,-29.1656 1188.15,-18.7118 1180.28,-25.8096 1186.42,-29.1656"/>
</g>
<!-- Node15&#45;&gt;Node8 -->
<g id="edge24" class="edge"><title>Node15&#45;&gt;Node8</title>
<path fill="none" stroke="midnightblue" d="M1140.53,-128.748C1156.04,-156.315 1184.34,-246.206 1140.63,-294 1114.89,-322.153 863.906,-333.414 748.729,-337.043"/>
<polygon fill="midnightblue" stroke="midnightblue" points="748.57,-333.546 738.682,-337.351 748.784,-340.543 748.57,-333.546"/>
</g>
<!-- Node16 -->
<g id="node16" class="node"><title>Node16</title>
<polygon fill="white" stroke="#bfbfbf" points="1093.85,-55.5 1093.85,-73.5 1145.42,-73.5 1145.42,-55.5 1093.85,-55.5"/>
<text text-anchor="middle" x="1119.63" y="-61.5" font-family="Helvetica,sans-Serif" font-size="10.00">assert.h</text>
</g>
<!-- Node15&#45;&gt;Node16 -->
<g id="edge22" class="edge"><title>Node15&#45;&gt;Node16</title>
<path fill="none" stroke="midnightblue" d="M1131.45,-110.219C1129.54,-103.02 1126.72,-92.3458 1124.32,-83.2311"/>
<polygon fill="midnightblue" stroke="midnightblue" points="1127.7,-82.324 1121.76,-73.5496 1120.93,-84.1118 1127.7,-82.324"/>
</g>
<!-- Node17&#45;&gt;Node3 -->
<g id="edge26" class="edge"><title>Node17&#45;&gt;Node3</title>
<path fill="none" stroke="midnightblue" d="M598.03,-275.279C593.422,-266.573 586.602,-252.281 583.633,-239 578.296,-215.129 582.077,-208.457 581.633,-184 581.479,-175.557 580.655,-173.388 581.633,-165 587.553,-114.218 607.104,-56.7966 617.685,-28.3875"/>
<polygon fill="midnightblue" stroke="midnightblue" points="621.089,-29.2823 621.372,-18.6912 614.546,-26.7944 621.089,-29.2823"/>
</g>
<!-- Node17&#45;&gt;Node5 -->
<g id="edge34" class="edge"><title>Node17&#45;&gt;Node5</title>
<path fill="none" stroke="midnightblue" d="M599.809,-275.249C590.945,-247.672 566.785,-157.753 610.633,-110 649.15,-68.0531 821.125,-64.0613 903.442,-64.6372"/>
<polygon fill="midnightblue" stroke="midnightblue" points="903.462,-68.1374 913.495,-64.7335 903.529,-61.1378 903.462,-68.1374"/>
</g>
<!-- Node17&#45;&gt;Node7 -->
<g id="edge30" class="edge"><title>Node17&#45;&gt;Node7</title>
<path fill="none" stroke="midnightblue" d="M537.455,-281.457C474.44,-277.766 377.095,-267.49 297.633,-239 253.148,-223.05 247.017,-208.544 206.633,-184 166.573,-159.654 139.564,-169.887 116.633,-129 71.1745,-47.9451 239,-21.5882 321.012,-13.6514"/>
<polygon fill="midnightblue" stroke="midnightblue" points="321.403,-17.1304 331.041,-12.7313 320.763,-10.1597 321.403,-17.1304"/>
</g>
<!-- Node17&#45;&gt;Node8 -->
<g id="edge36" class="edge"><title>Node17&#45;&gt;Node8</title>
<path fill="none" stroke="midnightblue" d="M621.304,-293.625C637.113,-301.904 659.25,-314.894 674.579,-324.772"/>
<polygon fill="midnightblue" stroke="midnightblue" points="672.859,-327.832 683.125,-330.45 676.733,-322.001 672.859,-327.832"/>
</g>
<!-- Node17&#45;&gt;Node9 -->
<g id="edge29" class="edge"><title>Node17&#45;&gt;Node9</title>
<path fill="none" stroke="midnightblue" d="M537.543,-279.352C483.614,-274.293 405.71,-263.186 341.633,-239 272.292,-212.827 200.567,-160.61 167.861,-135.144"/>
<polygon fill="midnightblue" stroke="midnightblue" points="169.725,-132.157 159.705,-128.715 165.391,-137.655 169.725,-132.157"/>
</g>
<!-- Node17&#45;&gt;Node10 -->
<g id="edge27" class="edge"><title>Node17&#45;&gt;Node10</title>
<path fill="none" stroke="midnightblue" d="M604.722,-275.193C611.084,-249.903 630.313,-173.453 639.129,-138.405"/>
<polygon fill="midnightblue" stroke="midnightblue" points="642.551,-139.149 641.596,-128.597 635.763,-137.441 642.551,-139.149"/>
</g>
<!-- Node17&#45;&gt;Node11 -->
<g id="edge31" class="edge"><title>Node17&#45;&gt;Node11</title>
<path fill="none" stroke="midnightblue" d="M544.38,-275.499C491.044,-264.747 415.043,-240.014 378.633,-184 369.995,-170.711 371.373,-152.324 374.243,-138.755"/>
<polygon fill="midnightblue" stroke="midnightblue" points="377.725,-139.263 376.816,-128.707 370.944,-137.526 377.725,-139.263"/>
</g>
<!-- Node17&#45;&gt;Node12 -->
<g id="edge32" class="edge"><title>Node17&#45;&gt;Node12</title>
<path fill="none" stroke="midnightblue" d="M537.589,-277.859C498.488,-272.262 448.869,-261.128 409.633,-239 363.597,-213.038 324.225,-163.012 305.795,-137.047"/>
<polygon fill="midnightblue" stroke="midnightblue" points="308.553,-134.882 299.978,-128.658 302.8,-138.871 308.553,-134.882"/>
</g>
<!-- Node17&#45;&gt;Node14 -->
<g id="edge28" class="edge"><title>Node17&#45;&gt;Node14</title>
<path fill="none" stroke="midnightblue" d="M614.167,-275.453C633.875,-262.058 675.682,-235.165 714.633,-220 780.94,-194.184 806.817,-215.475 870.633,-184 895.283,-171.842 918.949,-150.371 933.386,-135.796"/>
<polygon fill="midnightblue" stroke="midnightblue" points="935.987,-138.141 940.405,-128.511 930.946,-133.284 935.987,-138.141"/>
</g>
<!-- Node17&#45;&gt;Node15 -->
<g id="edge35" class="edge"><title>Node17&#45;&gt;Node15</title>
<path fill="none" stroke="midnightblue" d="M658.49,-275.475C739.569,-262.635 893.612,-233.722 1016.63,-184 1051.66,-169.842 1089.66,-147.872 1112.56,-133.84"/>
<polygon fill="midnightblue" stroke="midnightblue" points="1114.46,-136.779 1121.11,-128.534 1110.77,-130.831 1114.46,-136.779"/>
</g>
<!-- Node18 -->
<g id="node18" class="node"><title>Node18</title>
<polygon fill="white" stroke="#bfbfbf" points="191.951,-110.5 191.951,-128.5 241.315,-128.5 241.315,-110.5 191.951,-110.5"/>
<text text-anchor="middle" x="216.633" y="-116.5" font-family="Helvetica,sans-Serif" font-size="10.00">netdb.h</text>
</g>
<!-- Node17&#45;&gt;Node18 -->
<g id="edge33" class="edge"><title>Node17&#45;&gt;Node18</title>
<path fill="none" stroke="midnightblue" d="M537.461,-277.967C491.765,-272.322 430.08,-261.093 379.633,-239 319.513,-212.67 259.976,-161.297 232.451,-135.722"/>
<polygon fill="midnightblue" stroke="midnightblue" points="234.648,-132.983 224.971,-128.669 229.846,-138.076 234.648,-132.983"/>
</g>
<!-- Node17&#45;&gt;Node19 -->
<g id="edge37" class="edge"><title>Node17&#45;&gt;Node19</title>
<path fill="none" stroke="midnightblue" d="M622.532,-275.45C648.444,-266.396 693.914,-251.638 726.939,-241.519"/>
<polygon fill="midnightblue" stroke="midnightblue" points="728.201,-244.793 736.753,-238.538 726.167,-238.095 728.201,-244.793"/>
</g>
<!-- Node19&#45;&gt;Node3 -->
<g id="edge38" class="edge"><title>Node19&#45;&gt;Node3</title>
<path fill="none" stroke="midnightblue" d="M761.411,-220.483C740.713,-188.708 664.182,-71.2166 635.544,-27.2506"/>
<polygon fill="midnightblue" stroke="midnightblue" points="638.445,-25.2919 630.054,-18.8231 632.58,-29.1126 638.445,-25.2919"/>
</g>
<!-- Node19&#45;&gt;Node5 -->
<g id="edge42" class="edge"><title>Node19&#45;&gt;Node5</title>
<path fill="none" stroke="midnightblue" d="M810.025,-222.513C843.589,-216.49 890.307,-204.984 926.633,-184 956.84,-166.55 969.138,-161.169 982.633,-129 989.811,-111.889 977.118,-93.4298 965.058,-80.848"/>
<polygon fill="midnightblue" stroke="midnightblue" points="967.435,-78.277 957.815,-73.8382 962.567,-83.3074 967.435,-78.277"/>
</g>
<!-- Node19&#45;&gt;Node6 -->
<g id="edge40" class="edge"><title>Node19&#45;&gt;Node6</title>
<path fill="none" stroke="midnightblue" d="M810.278,-224.586C906.77,-214.945 1133.35,-186.544 1179.63,-129 1202.69,-100.329 1199.99,-54.3337 1196.19,-28.901"/>
<polygon fill="midnightblue" stroke="midnightblue" points="1199.6,-28.0616 1194.46,-18.7988 1192.7,-29.2471 1199.6,-28.0616"/>
</g>
<!-- Node19&#45;&gt;Node8 -->
<g id="edge43" class="edge"><title>Node19&#45;&gt;Node8</title>
<path fill="none" stroke="midnightblue" d="M764.722,-238.712C755.84,-256.547 726.685,-299.093 707.741,-322.458"/>
<polygon fill="midnightblue" stroke="midnightblue" points="704.825,-320.486 701.043,-330.382 710.172,-325.004 704.825,-320.486"/>
</g>
<!-- Node19&#45;&gt;Node10 -->
<g id="edge39" class="edge"><title>Node19&#45;&gt;Node10</title>
<path fill="none" stroke="midnightblue" d="M757.388,-220.382C736.819,-202.322 687.015,-158.591 660.653,-135.445"/>
<polygon fill="midnightblue" stroke="midnightblue" points="662.809,-132.68 652.985,-128.712 658.19,-137.94 662.809,-132.68"/>
</g>
<!-- Node19&#45;&gt;Node14 -->
<g id="edge41" class="edge"><title>Node19&#45;&gt;Node14</title>
<path fill="none" stroke="midnightblue" d="M810.099,-221.846C838.838,-215.752 876.141,-204.445 903.633,-184 919.741,-172.02 932.054,-152.343 939.503,-138.064"/>
<polygon fill="midnightblue" stroke="midnightblue" points="942.783,-139.326 944.053,-128.808 936.501,-136.238 942.783,-139.326"/>
</g>
<!-- Node19&#45;&gt;Node15 -->
<g id="edge44" class="edge"><title>Node19&#45;&gt;Node15</title>
<path fill="none" stroke="midnightblue" d="M810.063,-221.852C853.531,-214.635 922.043,-201.722 979.633,-184 985.964,-182.052 1062.12,-150.363 1104.91,-132.504"/>
<polygon fill="midnightblue" stroke="midnightblue" points="1106.37,-135.686 1114.25,-128.603 1103.68,-129.227 1106.37,-135.686"/>
</g>
<!-- Node19&#45;&gt;Node17 -->
<g id="edge57" class="edge"><title>Node19&#45;&gt;Node17</title>
<path fill="none" stroke="midnightblue" d="M746.517,-238.625C720.572,-247.685 675.27,-262.387 642.338,-272.478"/>
<polygon fill="midnightblue" stroke="midnightblue" points="641.102,-269.196 632.55,-275.45 643.136,-275.894 641.102,-269.196"/>
</g>
<!-- Node19&#45;&gt;Node20 -->
<g id="edge45" class="edge"><title>Node19&#45;&gt;Node20</title>
<path fill="none" stroke="midnightblue" d="M723.164,-221.186C667.528,-211.825 570.974,-195.58 509.256,-185.195"/>
<polygon fill="midnightblue" stroke="midnightblue" points="509.727,-181.725 499.285,-183.518 508.565,-188.628 509.727,-181.725"/>
</g>
<!-- Node21 -->
<g id="node21" class="node"><title>Node21</title>
<g id="a_node21"><a xlink:href="mcast_messaging_8h.html" target="_top" xlink:title="FIle containing all the headers of the functions related to multicast communication. ">
<polygon fill="white" stroke="black" points="761.948,-165.5 761.948,-183.5 861.317,-183.5 861.317,-165.5 761.948,-165.5"/>
<text text-anchor="middle" x="811.633" y="-171.5" font-family="Helvetica,sans-Serif" font-size="10.00">mcastMessaging.h</text>
</a>
</g>
</g>
<!-- Node19&#45;&gt;Node21 -->
<g id="edge58" class="edge"><title>Node19&#45;&gt;Node21</title>
<path fill="none" stroke="midnightblue" d="M773.664,-220.219C780.241,-212.473 790.236,-200.701 798.32,-191.18"/>
<polygon fill="midnightblue" stroke="midnightblue" points="800.994,-193.438 804.798,-183.55 795.658,-188.907 800.994,-193.438"/>
</g>
<!-- Node20&#45;&gt;Node3 -->
<g id="edge46" class="edge"><title>Node20&#45;&gt;Node3</title>
<path fill="none" stroke="midnightblue" d="M452.792,-165.329C456.225,-144.101 468.27,-86.6668 501.633,-55 526.461,-31.4337 564.697,-20.1914 591.943,-14.9305"/>
<polygon fill="midnightblue" stroke="midnightblue" points="592.555,-18.3766 601.796,-13.1939 591.34,-11.4829 592.555,-18.3766"/>
</g>
<!-- Node20&#45;&gt;Node5 -->
<g id="edge54" class="edge"><title>Node20&#45;&gt;Node5</title>
<path fill="none" stroke="midnightblue" d="M463.9,-165.478C485.756,-151.617 533.312,-123.383 577.633,-110 691.482,-75.622 832.594,-67.6701 903.123,-65.919"/>
<polygon fill="midnightblue" stroke="midnightblue" points="903.492,-69.4119 913.414,-65.6956 903.34,-62.4136 903.492,-69.4119"/>
</g>
<!-- Node20&#45;&gt;Node7 -->
<g id="edge50" class="edge"><title>Node20&#45;&gt;Node7</title>
<path fill="none" stroke="midnightblue" d="M447.792,-165.193C442.097,-152.979 430.971,-129.513 420.633,-110 405.006,-80.5036 385.397,-46.9618 373.726,-27.3272"/>
<polygon fill="midnightblue" stroke="midnightblue" points="376.679,-25.4453 368.548,-18.6529 370.669,-29.0334 376.679,-25.4453"/>
</g>
<!-- Node20&#45;&gt;Node8 -->
<g id="edge56" class="edge"><title>Node20&#45;&gt;Node8</title>
<path fill="none" stroke="midnightblue" d="M454.507,-183.571C462.585,-205.059 487.612,-264.057 528.633,-294 559.446,-316.492 601.017,-327.615 634.464,-333.117"/>
<polygon fill="midnightblue" stroke="midnightblue" points="634.15,-336.61 644.563,-334.65 635.201,-329.689 634.15,-336.61"/>
</g>
<!-- Node20&#45;&gt;Node9 -->
<g id="edge49" class="edge"><title>Node20&#45;&gt;Node9</title>
<path fill="none" stroke="midnightblue" d="M394.161,-165.492C341.751,-157.85 261.99,-145.375 184.07,-129.156"/>
<polygon fill="midnightblue" stroke="midnightblue" points="184.591,-125.689 174.085,-127.054 183.149,-132.539 184.591,-125.689"/>
</g>
<!-- Node20&#45;&gt;Node10 -->
<g id="edge47" class="edge"><title>Node20&#45;&gt;Node10</title>
<path fill="none" stroke="midnightblue" d="M480.794,-165.45C515.506,-155.868 573.363,-139.897 609.952,-129.797"/>
<polygon fill="midnightblue" stroke="midnightblue" points="610.963,-133.149 619.671,-127.115 609.1,-126.402 610.963,-133.149"/>
</g>
<!-- Node20&#45;&gt;Node11 -->
<g id="edge51" class="edge"><title>Node20&#45;&gt;Node11</title>
<path fill="none" stroke="midnightblue" d="M440.698,-165.45C429.597,-157.279 412.183,-144.46 398.787,-134.6"/>
<polygon fill="midnightblue" stroke="midnightblue" points="400.799,-131.735 390.671,-128.625 396.65,-137.372 400.799,-131.735"/>
</g>
<!-- Node20&#45;&gt;Node12 -->
<g id="edge52" class="edge"><title>Node20&#45;&gt;Node12</title>
<path fill="none" stroke="midnightblue" d="M427.788,-165.45C401.199,-156.475 358.002,-141.892 328.051,-131.781"/>
<polygon fill="midnightblue" stroke="midnightblue" points="329.039,-128.421 318.445,-128.538 326.8,-135.053 329.039,-128.421"/>
</g>
<!-- Node20&#45;&gt;Node14 -->
<g id="edge48" class="edge"><title>Node20&#45;&gt;Node14</title>
<path fill="none" stroke="midnightblue" d="M515.436,-167.011C598.266,-158.535 747.295,-143.111 874.633,-129 886.795,-127.652 900.09,-126.121 911.963,-124.734"/>
<polygon fill="midnightblue" stroke="midnightblue" points="912.441,-128.202 921.965,-123.559 911.625,-121.249 912.441,-128.202"/>
</g>
<!-- Node20&#45;&gt;Node15 -->
<g id="edge55" class="edge"><title>Node20&#45;&gt;Node15</title>
<path fill="none" stroke="midnightblue" d="M515.487,-168.538C651.269,-157.986 966.042,-133.524 1086.02,-124.2"/>
<polygon fill="midnightblue" stroke="midnightblue" points="1086.3,-127.689 1096,-123.424 1085.76,-120.71 1086.3,-127.689"/>
</g>
<!-- Node20&#45;&gt;Node18 -->
<g id="edge53" class="edge"><title>Node20&#45;&gt;Node18</title>
<path fill="none" stroke="midnightblue" d="M413.192,-165.453C374.551,-157.271 313.038,-143.992 251.371,-129.359"/>
<polygon fill="midnightblue" stroke="midnightblue" points="252.015,-125.914 241.476,-126.999 250.391,-132.723 252.015,-125.914"/>
</g>
<!-- Node21&#45;&gt;Node3 -->
<g id="edge59" class="edge"><title>Node21&#45;&gt;Node3</title>
<path fill="none" stroke="midnightblue" d="M807.621,-165.281C795.107,-139.765 757.064,-63.1287 747.633,-55 721.97,-32.8805 684.442,-21.4289 657.596,-15.7236"/>
<polygon fill="midnightblue" stroke="midnightblue" points="658.01,-12.238 647.522,-13.7438 656.66,-19.1066 658.01,-12.238"/>
</g>
<!-- Node21&#45;&gt;Node5 -->
<g id="edge64" class="edge"><title>Node21&#45;&gt;Node5</title>
<path fill="none" stroke="midnightblue" d="M823.975,-165.324C836.872,-156.656 857.568,-142.394 874.633,-129 894.736,-113.222 916.728,-93.7697 931.263,-80.5835"/>
<polygon fill="midnightblue" stroke="midnightblue" points="933.865,-82.9469 938.889,-73.6187 929.144,-77.7782 933.865,-82.9469"/>
</g>
<!-- Node21&#45;&gt;Node7 -->
<g id="edge62" class="edge"><title>Node21&#45;&gt;Node7</title>
<path fill="none" stroke="midnightblue" d="M796.132,-165.385C771.331,-152.591 721.001,-127.399 676.633,-110 580.285,-72.2167 463.223,-37.9944 403.249,-21.2758"/>
<polygon fill="midnightblue" stroke="midnightblue" points="404.001,-17.8521 393.429,-18.5527 402.13,-24.5976 404.001,-17.8521"/>
</g>
<!-- Node21&#45;&gt;Node11 -->
<g id="edge63" class="edge"><title>Node21&#45;&gt;Node11</title>
<path fill="none" stroke="midnightblue" d="M761.655,-167.368C675.782,-156.833 501.751,-135.482 421.679,-125.658"/>
<polygon fill="midnightblue" stroke="midnightblue" points="421.83,-122.151 411.478,-124.407 420.978,-129.099 421.83,-122.151"/>
</g>
<!-- Node21&#45;&gt;Node12 -->
<g id="edge61" class="edge"><title>Node21&#45;&gt;Node12</title>
<path fill="none" stroke="midnightblue" d="M761.733,-170.404C677.043,-164.801 499.6,-151.552 340.567,-129.162"/>
<polygon fill="midnightblue" stroke="midnightblue" points="340.997,-125.688 330.603,-127.744 340.01,-132.618 340.997,-125.688"/>
</g>
<!-- Node21&#45;&gt;Node15 -->
<g id="edge65" class="edge"><title>Node21&#45;&gt;Node15</title>
<path fill="none" stroke="midnightblue" d="M860.538,-165.45C921.575,-155.404 1025.28,-138.334 1085.81,-128.371"/>
<polygon fill="midnightblue" stroke="midnightblue" points="1086.57,-131.794 1095.86,-126.716 1085.43,-124.887 1086.57,-131.794"/>
</g>
<!-- Node22 -->
<g id="node22" class="node"><title>Node22</title>
<polygon fill="white" stroke="#bfbfbf" points="799.623,-110.5 799.623,-128.5 865.643,-128.5 865.643,-110.5 799.623,-110.5"/>
<text text-anchor="middle" x="832.633" y="-116.5" font-family="Helvetica,sans-Serif" font-size="10.00">sys/types.h</text>
</g>
<!-- Node21&#45;&gt;Node22 -->
<g id="edge60" class="edge"><title>Node21&#45;&gt;Node22</title>
<path fill="none" stroke="midnightblue" d="M814.914,-165.219C817.797,-157.942 822.088,-147.113 825.725,-137.934"/>
<polygon fill="midnightblue" stroke="midnightblue" points="829.014,-139.136 829.443,-128.55 822.506,-136.557 829.014,-139.136"/>
</g>
</g>
</svg>
