<?xml version="1.0" encoding="UTF-8" standalone="no"?>
<!DOCTYPE svg PUBLIC "-//W3C//DTD SVG 1.1//EN"
 "http://www.w3.org/Graphics/SVG/1.1/DTD/svg11.dtd">
<!-- Generated by graphviz version 2.38.0 (20140413.2041)
 -->
<!-- Title: mcastConnControlThread Pages: 1 -->
<svg width="771pt" height="239pt"
 viewBox="0.00 0.00 771.09 239.00" xmlns="http://www.w3.org/2000/svg" xmlns:xlink="http://www.w3.org/1999/xlink">
<g id="graph0" class="graph" transform="scale(1 1) rotate(0) translate(4 235)">
<title>mcastConnControlThread</title>
<polygon fill="white" stroke="none" points="-4,4 -4,-235 767.087,-235 767.087,4 -4,4"/>
<!-- Node1 -->
<g id="node1" class="node"><title>Node1</title>
<polygon fill="#bfbfbf" stroke="black" points="0,-100.5 0,-118.5 130.497,-118.5 130.497,-100.5 0,-100.5"/>
<text text-anchor="middle" x="65.2485" y="-106.5" font-family="Helvetica,sans-Serif" font-size="10.00">mcastConnControlThread</text>
</g>
<!-- Node2 -->
<g id="node2" class="node"><title>Node2</title>
<g id="a_node2"><a xlink:href="mcast_messaging_8c.html#a4fd8b31a6cdd8fa515f1b3680a754def" target="_top" xlink:title="Intialize the multicast UDP listener and sender. ">
<polygon fill="white" stroke="black" points="181.509,-119.5 181.509,-137.5 295.859,-137.5 295.859,-119.5 181.509,-119.5"/>
<text text-anchor="middle" x="238.684" y="-125.5" font-family="Helvetica,sans-Serif" font-size="10.00">MCM_initMcastServer</text>
</a>
</g>
</g>
<!-- Node1&#45;&gt;Node2 -->
<g id="edge1" class="edge"><title>Node1&#45;&gt;Node2</title>
<path fill="none" stroke="midnightblue" d="M130.573,-116.629C143.898,-118.106 157.96,-119.664 171.355,-121.149"/>
<polygon fill="midnightblue" stroke="midnightblue" points="171.121,-124.644 181.446,-122.267 171.892,-117.687 171.121,-124.644"/>
</g>
<!-- Node14 -->
<g id="node14" class="node"><title>Node14</title>
<g id="a_node14"><a xlink:href="mcast_messaging_8c.html#a197c2b5442d03afeb798d31b9ffaa3d7" target="_top" xlink:title="Close the sockets and stop all threads of multicast comunication. ">
<polygon fill="white" stroke="black" points="166.497,-82.5 166.497,-100.5 310.871,-100.5 310.871,-82.5 166.497,-82.5"/>
<text text-anchor="middle" x="238.684" y="-88.5" font-family="Helvetica,sans-Serif" font-size="10.00">MCM_shutdownMcastServer</text>
</a>
</g>
</g>
<!-- Node1&#45;&gt;Node14 -->
<g id="edge13" class="edge"><title>Node1&#45;&gt;Node14</title>
<path fill="none" stroke="midnightblue" d="M130.573,-102.746C138.972,-101.864 147.664,-100.952 156.298,-100.045"/>
<polygon fill="midnightblue" stroke="midnightblue" points="156.805,-103.511 166.385,-98.9861 156.074,-96.5495 156.805,-103.511"/>
</g>
<!-- Node3 -->
<g id="node3" class="node"><title>Node3</title>
<g id="a_node3"><a xlink:href="msg_buffers_8c.html#a15ca8d0fea842defceb1611616a64560" target="_top" xlink:title="Create a new buffer or mailbox and initialize it for n values. ">
<polygon fill="white" stroke="black" points="369.745,-212.5 369.745,-230.5 445.593,-230.5 445.593,-212.5 369.745,-212.5"/>
<text text-anchor="middle" x="407.669" y="-218.5" font-family="Helvetica,sans-Serif" font-size="10.00">MB_initBuffer</text>
</a>
</g>
</g>
<!-- Node2&#45;&gt;Node3 -->
<g id="edge2" class="edge"><title>Node2&#45;&gt;Node3</title>
<path fill="none" stroke="midnightblue" d="M250.222,-137.621C268.654,-153.156 308.451,-184.872 346.871,-203.5 351.157,-205.578 355.734,-207.473 360.375,-209.187"/>
<polygon fill="midnightblue" stroke="midnightblue" points="359.324,-212.527 369.918,-212.45 361.588,-205.903 359.324,-212.527"/>
</g>
<!-- Node4 -->
<g id="node4" class="node"><title>Node4</title>
<g id="a_node4"><a xlink:href="mcast_messaging_8c.html#ad5775544efb4010edd675f4fabbacdfb" target="_top" xlink:title="Initialize the sockets for multicast communication. ">
<polygon fill="white" stroke="black" points="360.77,-175.5 360.77,-193.5 454.568,-193.5 454.568,-175.5 360.77,-175.5"/>
<text text-anchor="middle" x="407.669" y="-181.5" font-family="Helvetica,sans-Serif" font-size="10.00">MCM_initSockets</text>
</a>
</g>
</g>
<!-- Node2&#45;&gt;Node4 -->
<g id="edge3" class="edge"><title>Node2&#45;&gt;Node4</title>
<path fill="none" stroke="midnightblue" d="M264.261,-137.594C285.911,-145.513 318.352,-157.158 346.871,-166.5 352.956,-168.493 359.417,-170.525 365.755,-172.471"/>
<polygon fill="midnightblue" stroke="midnightblue" points="364.958,-175.887 375.544,-175.441 366.991,-169.188 364.958,-175.887"/>
</g>
<!-- Node5 -->
<g id="node5" class="node"><title>Node5</title>
<g id="a_node5"><a xlink:href="mcast_messaging_8c.html#ac5fae8e7dd4561321e0311a2bd76ac63" target="_top" xlink:title="Initialize the general groups. ">
<polygon fill="white" stroke="black" points="346.871,-138.5 346.871,-156.5 468.467,-156.5 468.467,-138.5 346.871,-138.5"/>
<text text-anchor="middle" x="407.669" y="-144.5" font-family="Helvetica,sans-Serif" font-size="10.00">MCM_initGeneralGroup</text>
</a>
</g>
</g>
<!-- Node2&#45;&gt;Node5 -->
<g id="edge4" class="edge"><title>Node2&#45;&gt;Node5</title>
<path fill="none" stroke="midnightblue" d="M296.218,-134.933C309.186,-136.408 323.126,-137.994 336.589,-139.526"/>
<polygon fill="midnightblue" stroke="midnightblue" points="336.435,-143.031 346.767,-140.684 337.227,-136.076 336.435,-143.031"/>
</g>
<!-- Node6 -->
<g id="node6" class="node"><title>Node6</title>
<g id="a_node6"><a xlink:href="mcast_messaging_8c.html#a672a537fdc193c0ce1d7175b9f26e3cf" target="_top" xlink:title="Sets the station group to the one that we have calculated first. ">
<polygon fill="white" stroke="black" points="349.093,-101.5 349.093,-119.5 466.245,-119.5 466.245,-101.5 349.093,-101.5"/>
<text text-anchor="middle" x="407.669" y="-107.5" font-family="Helvetica,sans-Serif" font-size="10.00">MCM_initStationGroup</text>
</a>
</g>
</g>
<!-- Node2&#45;&gt;Node6 -->
<g id="edge5" class="edge"><title>Node2&#45;&gt;Node6</title>
<path fill="none" stroke="midnightblue" d="M296.218,-122.406C309.922,-120.929 324.712,-119.334 338.877,-117.808"/>
<polygon fill="midnightblue" stroke="midnightblue" points="339.489,-121.262 349.056,-116.71 338.739,-114.302 339.489,-121.262"/>
</g>
<!-- Node8 -->
<g id="node8" class="node"><title>Node8</title>
<g id="a_node8"><a xlink:href="mcast_messaging_8c.html#ab9bc9b5c01c8c3a09c75e662eb019f04" target="_top" xlink:title="Thread for listening to messages coming from the general multicast group. ">
<polygon fill="white" stroke="black" points="352.987,-64.5 352.987,-82.5 462.351,-82.5 462.351,-64.5 352.987,-64.5"/>
<text text-anchor="middle" x="407.669" y="-70.5" font-family="Helvetica,sans-Serif" font-size="10.00">MCM_listenerThread</text>
</a>
</g>
</g>
<!-- Node2&#45;&gt;Node8 -->
<g id="edge7" class="edge"><title>Node2&#45;&gt;Node8</title>
<path fill="none" stroke="midnightblue" d="M281.928,-119.419C291.563,-116.908 301.67,-113.918 310.871,-110.5 327.64,-104.271 330.296,-99.229 346.871,-92.5 352.766,-90.1068 359.084,-87.8166 365.324,-85.707"/>
<polygon fill="midnightblue" stroke="midnightblue" points="366.575,-88.9807 374.996,-82.5517 364.404,-82.3259 366.575,-88.9807"/>
</g>
<!-- Node12 -->
<g id="node12" class="node"><title>Node12</title>
<g id="a_node12"><a xlink:href="mcast_messaging_8c.html#a82322ed09bb5d8af36d46860d2f49e2d" target="_top" xlink:title="Thread for sending the messages to the station multicast group. ">
<polygon fill="white" stroke="black" points="353.817,-18.5 353.817,-36.5 461.521,-36.5 461.521,-18.5 353.817,-18.5"/>
<text text-anchor="middle" x="407.669" y="-24.5" font-family="Helvetica,sans-Serif" font-size="10.00">MCM_senderThread</text>
</a>
</g>
</g>
<!-- Node2&#45;&gt;Node12 -->
<g id="edge11" class="edge"><title>Node2&#45;&gt;Node12</title>
<path fill="none" stroke="midnightblue" d="M294.099,-119.38C300.062,-117.058 305.8,-114.147 310.871,-110.5 334.891,-93.2226 324.467,-73.8266 346.871,-54.5 353.248,-48.9988 360.93,-44.4231 368.63,-40.6971"/>
<polygon fill="midnightblue" stroke="midnightblue" points="370.222,-43.8201 377.946,-36.5686 367.386,-37.4204 370.222,-43.8201"/>
</g>
<!-- Node7 -->
<g id="node7" class="node"><title>Node7</title>
<g id="a_node7"><a xlink:href="mcast_messaging_8c.html#ab72d654feaaf6ca97ec5c605445154bb" target="_top" xlink:title="Caltulate address for the multicast group. ">
<polygon fill="white" stroke="black" points="504.467,-111.5 504.467,-129.5 635.511,-129.5 635.511,-111.5 504.467,-111.5"/>
<text text-anchor="middle" x="569.989" y="-117.5" font-family="Helvetica,sans-Serif" font-size="10.00">MCM_calcStationAddress</text>
</a>
</g>
</g>
<!-- Node6&#45;&gt;Node7 -->
<g id="edge6" class="edge"><title>Node6&#45;&gt;Node7</title>
<path fill="none" stroke="midnightblue" d="M466.548,-114.11C475.572,-114.673 485.005,-115.261 494.338,-115.844"/>
<polygon fill="midnightblue" stroke="midnightblue" points="494.203,-119.342 504.401,-116.471 494.639,-112.355 494.203,-119.342"/>
</g>
<!-- Node9 -->
<g id="node9" class="node"><title>Node9</title>
<g id="a_node9"><a xlink:href="message_parser_8c.html#a1e095af9fe3f1bd7c5a708d797e52bb9" target="_top" xlink:title="Message decoupler and receiver function. ">
<polygon fill="white" stroke="black" points="511.691,-74.5 511.691,-92.5 628.287,-92.5 628.287,-74.5 511.691,-74.5"/>
<text text-anchor="middle" x="569.989" y="-80.5" font-family="Helvetica,sans-Serif" font-size="10.00">MP_messageReceiver</text>
</a>
</g>
</g>
<!-- Node8&#45;&gt;Node9 -->
<g id="edge8" class="edge"><title>Node8&#45;&gt;Node9</title>
<path fill="none" stroke="midnightblue" d="M462.499,-76.8577C474.917,-77.6322 488.283,-78.4659 501.208,-79.2722"/>
<polygon fill="midnightblue" stroke="midnightblue" points="501.255,-82.7818 511.454,-79.9112 501.691,-75.7954 501.255,-82.7818"/>
</g>
<!-- Node11 -->
<g id="node11" class="node"><title>Node11</title>
<g id="a_node11"><a xlink:href="msg_buffers_8c.html#a94d8920e20c5150892cf23b81eb1dfd6" target="_top" xlink:title="Put a message into the buffer. ">
<polygon fill="white" stroke="black" points="524.469,-37.5 524.469,-55.5 615.508,-55.5 615.508,-37.5 524.469,-37.5"/>
<text text-anchor="middle" x="569.989" y="-43.5" font-family="Helvetica,sans-Serif" font-size="10.00">MB_putMessage</text>
</a>
</g>
</g>
<!-- Node8&#45;&gt;Node11 -->
<g id="edge10" class="edge"><title>Node8&#45;&gt;Node11</title>
<path fill="none" stroke="midnightblue" d="M462.499,-64.4343C479.147,-61.6305 497.5,-58.5397 514.212,-55.7252"/>
<polygon fill="midnightblue" stroke="midnightblue" points="515.095,-59.1258 524.375,-54.0136 513.932,-52.223 515.095,-59.1258"/>
</g>
<!-- Node10 -->
<g id="node10" class="node"><title>Node10</title>
<g id="a_node10"><a xlink:href="message_parser_8c.html#a0026bd717404e4c2f9df87d137721377" target="_top" xlink:title="Message structure initializer. ">
<polygon fill="white" stroke="black" points="671.511,-74.5 671.511,-92.5 763.087,-92.5 763.087,-74.5 671.511,-74.5"/>
<text text-anchor="middle" x="717.299" y="-80.5" font-family="Helvetica,sans-Serif" font-size="10.00">MP_initMsgStruc</text>
</a>
</g>
</g>
<!-- Node9&#45;&gt;Node10 -->
<g id="edge9" class="edge"><title>Node9&#45;&gt;Node10</title>
<path fill="none" stroke="midnightblue" d="M628.419,-83.5C639.24,-83.5 650.533,-83.5 661.278,-83.5"/>
<polygon fill="midnightblue" stroke="midnightblue" points="661.379,-87.0001 671.379,-83.5 661.379,-80.0001 661.379,-87.0001"/>
</g>
<!-- Node13 -->
<g id="node13" class="node"><title>Node13</title>
<g id="a_node13"><a xlink:href="msg_buffers_8c.html#a2bc61492dcc33dc1712d77d383b1e33d" target="_top" xlink:title="Get a message from the buffer. ">
<polygon fill="white" stroke="black" points="524.469,-0.5 524.469,-18.5 615.508,-18.5 615.508,-0.5 524.469,-0.5"/>
<text text-anchor="middle" x="569.989" y="-6.5" font-family="Helvetica,sans-Serif" font-size="10.00">MB_getMessage</text>
</a>
</g>
</g>
<!-- Node12&#45;&gt;Node13 -->
<g id="edge12" class="edge"><title>Node12&#45;&gt;Node13</title>
<path fill="none" stroke="midnightblue" d="M461.608,-21.5562C478.451,-19.6652 497.114,-17.5698 514.092,-15.6635"/>
<polygon fill="midnightblue" stroke="midnightblue" points="514.868,-19.0985 524.415,-14.5046 514.087,-12.1423 514.868,-19.0985"/>
</g>
</g>
</svg>
