<?xml version="1.0" encoding="UTF-8" standalone="no"?>
<!DOCTYPE svg PUBLIC "-//W3C//DTD SVG 1.1//EN"
 "http://www.w3.org/Graphics/SVG/1.1/DTD/svg11.dtd">
<!-- Generated by graphviz version 2.38.0 (20140413.2041)
 -->
<!-- Title: rasPi&#45;EmergencyStation/main.c Pages: 1 -->
<svg width="1158pt" height="422pt"
 viewBox="0.00 0.00 1158.00 422.00" xmlns="http://www.w3.org/2000/svg" xmlns:xlink="http://www.w3.org/1999/xlink">
<g id="graph0" class="graph" transform="scale(1 1) rotate(0) translate(4 418)">
<title>rasPi&#45;EmergencyStation/main.c</title>
<polygon fill="white" stroke="none" points="-4,4 -4,-418 1154,-418 1154,4 -4,4"/>
<!-- Node1 -->
<g id="node1" class="node"><title>Node1</title>
<polygon fill="#bfbfbf" stroke="black" points="507.089,-385.5 507.089,-413.5 630.911,-413.5 630.911,-385.5 507.089,-385.5"/>
<text text-anchor="start" x="515.089" y="-401.5" font-family="Helvetica,sans-Serif" font-size="10.00">rasPi&#45;EmergencyStation</text>
<text text-anchor="middle" x="569" y="-391.5" font-family="Helvetica,sans-Serif" font-size="10.00">/main.c</text>
</g>
<!-- Node2 -->
<g id="node2" class="node"><title>Node2</title>
<g id="a_node2"><a xlink:href="main_8h.html" target="_top" xlink:title="Main file&#39;s headers of the emergency station application. ">
<polygon fill="white" stroke="black" points="545.993,-330.5 545.993,-348.5 592.007,-348.5 592.007,-330.5 545.993,-330.5"/>
<text text-anchor="middle" x="569" y="-336.5" font-family="Helvetica,sans-Serif" font-size="10.00">main.h</text>
</a>
</g>
</g>
<!-- Node1&#45;&gt;Node2 -->
<g id="edge1" class="edge"><title>Node1&#45;&gt;Node2</title>
<path fill="none" stroke="midnightblue" d="M569,-385.339C569,-377.531 569,-367.512 569,-358.927"/>
<polygon fill="midnightblue" stroke="midnightblue" points="572.5,-358.771 569,-348.771 565.5,-358.772 572.5,-358.771"/>
</g>
<!-- Node3 -->
<g id="node3" class="node"><title>Node3</title>
<polygon fill="white" stroke="#bfbfbf" points="91.2686,-0.5 91.2686,-18.5 136.731,-18.5 136.731,-0.5 91.2686,-0.5"/>
<text text-anchor="middle" x="114" y="-6.5" font-family="Helvetica,sans-Serif" font-size="10.00">stdio.h</text>
</g>
<!-- Node2&#45;&gt;Node3 -->
<g id="edge2" class="edge"><title>Node2&#45;&gt;Node3</title>
<path fill="none" stroke="midnightblue" d="M545.99,-336.621C439.539,-327.625 0,-287.058 0,-230.5 0,-230.5 0,-230.5 0,-118.5 0,-71.9745 50.6593,-39.4854 84.4371,-22.994"/>
<polygon fill="midnightblue" stroke="midnightblue" points="86.3042,-25.9848 93.8815,-18.5797 83.3402,-19.6433 86.3042,-25.9848"/>
</g>
<!-- Node4 -->
<g id="node4" class="node"><title>Node4</title>
<polygon fill="white" stroke="#bfbfbf" points="490.766,-275.5 490.766,-293.5 541.234,-293.5 541.234,-275.5 490.766,-275.5"/>
<text text-anchor="middle" x="516" y="-281.5" font-family="Helvetica,sans-Serif" font-size="10.00">signal.h</text>
</g>
<!-- Node2&#45;&gt;Node4 -->
<g id="edge3" class="edge"><title>Node2&#45;&gt;Node4</title>
<path fill="none" stroke="midnightblue" d="M560.719,-330.219C552.894,-322.394 540.963,-310.463 531.392,-300.892"/>
<polygon fill="midnightblue" stroke="midnightblue" points="533.596,-298.146 524.05,-293.55 528.646,-303.096 533.596,-298.146"/>
</g>
<!-- Node5 -->
<g id="node5" class="node"><title>Node5</title>
<g id="a_node5"><a xlink:href="message_parser_8h.html" target="_top" xlink:title="Message parser function headers. ">
<polygon fill="white" stroke="black" points="597.089,-275.5 597.089,-293.5 690.911,-293.5 690.911,-275.5 597.089,-275.5"/>
<text text-anchor="middle" x="644" y="-281.5" font-family="Helvetica,sans-Serif" font-size="10.00">messageParser.h</text>
</a>
</g>
</g>
<!-- Node2&#45;&gt;Node5 -->
<g id="edge4" class="edge"><title>Node2&#45;&gt;Node5</title>
<path fill="none" stroke="midnightblue" d="M580.391,-330.45C591.955,-322.279 610.094,-309.46 624.048,-299.6"/>
<polygon fill="midnightblue" stroke="midnightblue" points="626.355,-302.255 632.502,-293.625 622.315,-296.538 626.355,-302.255"/>
</g>
<!-- Node13 -->
<g id="node13" class="node"><title>Node13</title>
<g id="a_node13"><a xlink:href="tcp_vehicle_socket_comm_8h.html" target="_top" xlink:title="Vehicle connection server&#39;s headers. ">
<polygon fill="white" stroke="black" points="529.027,-165.5 529.027,-183.5 658.973,-183.5 658.973,-165.5 529.027,-165.5"/>
<text text-anchor="middle" x="594" y="-171.5" font-family="Helvetica,sans-Serif" font-size="10.00">tcpVehicleSocketComm.h</text>
</a>
</g>
</g>
<!-- Node2&#45;&gt;Node13 -->
<g id="edge56" class="edge"><title>Node2&#45;&gt;Node13</title>
<path fill="none" stroke="midnightblue" d="M570.274,-330.193C574.136,-305.013 585.777,-229.114 591.184,-193.862"/>
<polygon fill="midnightblue" stroke="midnightblue" points="594.702,-194.012 592.758,-183.597 587.782,-192.951 594.702,-194.012"/>
</g>
<!-- Node19 -->
<g id="node19" class="node"><title>Node19</title>
<g id="a_node19"><a xlink:href="tcp_server_socket_comm_8h.html" target="_top" xlink:title="Server connection related function definitions. ">
<polygon fill="white" stroke="black" points="725.426,-165.5 725.426,-183.5 852.574,-183.5 852.574,-165.5 725.426,-165.5"/>
<text text-anchor="middle" x="789" y="-171.5" font-family="Helvetica,sans-Serif" font-size="10.00">tcpServerSocketComm.h</text>
</a>
</g>
</g>
<!-- Node2&#45;&gt;Node19 -->
<g id="edge55" class="edge"><title>Node2&#45;&gt;Node19</title>
<path fill="none" stroke="midnightblue" d="M592.224,-334.92C620.016,-329.721 666.935,-317.959 700,-294 737.89,-266.545 766.861,-218.296 780.463,-192.652"/>
<polygon fill="midnightblue" stroke="midnightblue" points="783.588,-194.23 785.053,-183.736 777.364,-191.026 783.588,-194.23"/>
</g>
<!-- Node5&#45;&gt;Node3 -->
<g id="edge5" class="edge"><title>Node5&#45;&gt;Node3</title>
<path fill="none" stroke="midnightblue" d="M596.874,-279.106C494.831,-269.505 259.711,-246.884 224,-239 138.702,-220.17 38,-262.851 38,-175.5 38,-175.5 38,-175.5 38,-118.5 38,-79.0599 72.317,-43.8584 94.8312,-25.0079"/>
<polygon fill="midnightblue" stroke="midnightblue" points="97.1877,-27.6042 102.786,-18.6091 92.8002,-22.1498 97.1877,-27.6042"/>
</g>
<!-- Node6 -->
<g id="node6" class="node"><title>Node6</title>
<polygon fill="white" stroke="#bfbfbf" points="899.604,-110.5 899.604,-128.5 948.396,-128.5 948.396,-110.5 899.604,-110.5"/>
<text text-anchor="middle" x="924" y="-116.5" font-family="Helvetica,sans-Serif" font-size="10.00">string.h</text>
</g>
<!-- Node5&#45;&gt;Node6 -->
<g id="edge6" class="edge"><title>Node5&#45;&gt;Node6</title>
<path fill="none" stroke="midnightblue" d="M669.104,-275.463C711.371,-261.211 798.357,-228.744 862,-184 881.206,-170.497 899.514,-150.572 911.189,-136.653"/>
<polygon fill="midnightblue" stroke="midnightblue" points="913.929,-138.831 917.549,-128.874 908.51,-134.4 913.929,-138.831"/>
</g>
<!-- Node7 -->
<g id="node7" class="node"><title>Node7</title>
<polygon fill="white" stroke="#bfbfbf" points="1074.16,-110.5 1074.16,-128.5 1121.84,-128.5 1121.84,-110.5 1074.16,-110.5"/>
<text text-anchor="middle" x="1098" y="-116.5" font-family="Helvetica,sans-Serif" font-size="10.00">stdlib.h</text>
</g>
<!-- Node5&#45;&gt;Node7 -->
<g id="edge7" class="edge"><title>Node5&#45;&gt;Node7</title>
<path fill="none" stroke="midnightblue" d="M691.206,-278.301C790.817,-266.449 1018.03,-234.484 1075,-184 1087.88,-172.587 1093.55,-153.39 1096.05,-139.084"/>
<polygon fill="midnightblue" stroke="midnightblue" points="1099.55,-139.286 1097.44,-128.903 1092.62,-138.334 1099.55,-139.286"/>
</g>
<!-- Node8 -->
<g id="node8" class="node"><title>Node8</title>
<polygon fill="white" stroke="#bfbfbf" points="861.872,-0.5 861.872,-18.5 920.128,-18.5 920.128,-0.5 861.872,-0.5"/>
<text text-anchor="middle" x="891" y="-6.5" font-family="Helvetica,sans-Serif" font-size="10.00">pthread.h</text>
</g>
<!-- Node5&#45;&gt;Node8 -->
<g id="edge8" class="edge"><title>Node5&#45;&gt;Node8</title>
<path fill="none" stroke="midnightblue" d="M691.149,-283.38C816.763,-281.798 1150,-268.807 1150,-175.5 1150,-175.5 1150,-175.5 1150,-118.5 1150,-24.4705 1002.78,-10.8362 930.328,-9.81957"/>
<polygon fill="midnightblue" stroke="midnightblue" points="930.23,-6.31895 920.207,-9.75307 930.184,-13.3188 930.23,-6.31895"/>
</g>
<!-- Node9 -->
<g id="node9" class="node"><title>Node9</title>
<g id="a_node9"><a xlink:href="structures_8h.html" target="_top" xlink:title="File containing all the structure definitions used in the other modules. ">
<polygon fill="white" stroke="black" points="559.879,-55.5 559.879,-73.5 628.121,-73.5 628.121,-55.5 559.879,-55.5"/>
<text text-anchor="middle" x="594" y="-61.5" font-family="Helvetica,sans-Serif" font-size="10.00">structures.h</text>
</a>
</g>
</g>
<!-- Node5&#45;&gt;Node9 -->
<g id="edge9" class="edge"><title>Node5&#45;&gt;Node9</title>
<path fill="none" stroke="midnightblue" d="M609.265,-275.46C521.67,-254.326 296.357,-194.315 263,-129 259.159,-121.48 257.441,-116.356 263,-110 272.363,-99.2942 461.855,-78.8545 549.827,-69.8937"/>
<polygon fill="midnightblue" stroke="midnightblue" points="550.186,-73.3754 559.782,-68.8847 549.48,-66.4111 550.186,-73.3754"/>
</g>
<!-- Node11 -->
<g id="node11" class="node"><title>Node11</title>
<g id="a_node11"><a xlink:href="msg_buffers_8h.html" target="_top" xlink:title="File containing the headers of all functions related to the message mailboxes. ">
<polygon fill="white" stroke="black" points="141.632,-110.5 141.632,-128.5 216.368,-128.5 216.368,-110.5 141.632,-110.5"/>
<text text-anchor="middle" x="179" y="-116.5" font-family="Helvetica,sans-Serif" font-size="10.00">msgBuffers.h</text>
</a>
</g>
</g>
<!-- Node5&#45;&gt;Node11 -->
<g id="edge13" class="edge"><title>Node5&#45;&gt;Node11</title>
<path fill="none" stroke="midnightblue" d="M596.944,-279.717C493.653,-270.785 255.653,-248.428 241,-239 204.293,-215.382 183.893,-165.452 178.4,-138.56"/>
<polygon fill="midnightblue" stroke="midnightblue" points="181.854,-137.983 176.955,-128.589 174.926,-138.988 181.854,-137.983"/>
</g>
<!-- Node5&#45;&gt;Node13 -->
<g id="edge19" class="edge"><title>Node5&#45;&gt;Node13</title>
<path fill="none" stroke="midnightblue" d="M640.242,-275.382C632.17,-257.948 613.023,-216.59 602.066,-192.922"/>
<polygon fill="midnightblue" stroke="midnightblue" points="605.179,-191.316 597.802,-183.712 598.827,-194.257 605.179,-191.316"/>
</g>
<!-- Node17 -->
<g id="node17" class="node"><title>Node17</title>
<g id="a_node17"><a xlink:href="station_actions_8h.html" target="_top" xlink:title="FIle containing all the station action headers. ">
<polygon fill="white" stroke="black" points="634.702,-220.5 634.702,-238.5 721.298,-238.5 721.298,-220.5 634.702,-220.5"/>
<text text-anchor="middle" x="678" y="-226.5" font-family="Helvetica,sans-Serif" font-size="10.00">stationActions.h</text>
</a>
</g>
</g>
<!-- Node5&#45;&gt;Node17 -->
<g id="edge27" class="edge"><title>Node5&#45;&gt;Node17</title>
<path fill="none" stroke="midnightblue" d="M644.25,-275.219C647.433,-267.551 654.486,-255.939 661.504,-246.469"/>
<polygon fill="midnightblue" stroke="midnightblue" points="664.322,-248.548 667.827,-238.55 658.852,-244.18 664.322,-248.548"/>
</g>
<!-- Node9&#45;&gt;Node3 -->
<g id="edge10" class="edge"><title>Node9&#45;&gt;Node3</title>
<path fill="none" stroke="midnightblue" d="M559.864,-59.7309C471.146,-49.9349 234.148,-23.7664 146.864,-14.1288"/>
<polygon fill="midnightblue" stroke="midnightblue" points="147.07,-10.6302 136.746,-13.0115 146.301,-17.588 147.07,-10.6302"/>
</g>
<!-- Node9&#45;&gt;Node8 -->
<g id="edge11" class="edge"><title>Node9&#45;&gt;Node8</title>
<path fill="none" stroke="midnightblue" d="M628.36,-57.3685C683.961,-47.4463 793.321,-27.9309 851.849,-17.4865"/>
<polygon fill="midnightblue" stroke="midnightblue" points="852.59,-20.9098 861.819,-15.7073 851.36,-14.0186 852.59,-20.9098"/>
</g>
<!-- Node10 -->
<g id="node10" class="node"><title>Node10</title>
<polygon fill="white" stroke="#bfbfbf" points="592.537,-0.5 592.537,-18.5 657.463,-18.5 657.463,-0.5 592.537,-0.5"/>
<text text-anchor="middle" x="625" y="-6.5" font-family="Helvetica,sans-Serif" font-size="10.00">netinet/in.h</text>
</g>
<!-- Node9&#45;&gt;Node10 -->
<g id="edge12" class="edge"><title>Node9&#45;&gt;Node10</title>
<path fill="none" stroke="midnightblue" d="M598.844,-55.2188C603.191,-47.7856 609.707,-36.646 615.147,-27.3446"/>
<polygon fill="midnightblue" stroke="midnightblue" points="618.264,-28.9486 620.292,-18.5496 612.222,-25.4143 618.264,-28.9486"/>
</g>
<!-- Node11&#45;&gt;Node3 -->
<g id="edge14" class="edge"><title>Node11&#45;&gt;Node3</title>
<path fill="none" stroke="midnightblue" d="M174.114,-110.382C163.527,-92.7913 138.282,-50.8457 124.105,-27.2894"/>
<polygon fill="midnightblue" stroke="midnightblue" points="127.098,-25.4749 118.942,-18.7118 121.1,-29.0845 127.098,-25.4749"/>
</g>
<!-- Node11&#45;&gt;Node5 -->
<g id="edge18" class="edge"><title>Node11&#45;&gt;Node5</title>
<path fill="none" stroke="midnightblue" d="M185.3,-128.589C196.397,-150.649 217.049,-212.008 259,-239 272.744,-247.843 482.956,-268.058 586.879,-277.904"/>
<polygon fill="midnightblue" stroke="midnightblue" points="586.61,-281.394 596.896,-278.852 587.27,-274.425 586.61,-281.394"/>
</g>
<!-- Node11&#45;&gt;Node8 -->
<g id="edge15" class="edge"><title>Node11&#45;&gt;Node8</title>
<path fill="none" stroke="midnightblue" d="M216.412,-111.618C283.382,-99.4087 428.231,-73.5052 551,-55 659.736,-38.61 788.571,-22.7042 851.888,-15.117"/>
<polygon fill="midnightblue" stroke="midnightblue" points="852.324,-18.5899 861.839,-13.9286 851.494,-11.6393 852.324,-18.5899"/>
</g>
<!-- Node11&#45;&gt;Node9 -->
<g id="edge17" class="edge"><title>Node11&#45;&gt;Node9</title>
<path fill="none" stroke="midnightblue" d="M216.566,-112.013C221.087,-111.299 225.644,-110.611 230,-110 369.984,-90.3743 406.117,-94.3336 546,-74 547.248,-73.8185 548.514,-73.6294 549.791,-73.434"/>
<polygon fill="midnightblue" stroke="midnightblue" points="550.376,-76.8849 559.693,-71.8407 549.264,-69.9738 550.376,-76.8849"/>
</g>
<!-- Node12 -->
<g id="node12" class="node"><title>Node12</title>
<polygon fill="white" stroke="#bfbfbf" points="180.214,-55.5 180.214,-73.5 231.786,-73.5 231.786,-55.5 180.214,-55.5"/>
<text text-anchor="middle" x="206" y="-61.5" font-family="Helvetica,sans-Serif" font-size="10.00">assert.h</text>
</g>
<!-- Node11&#45;&gt;Node12 -->
<g id="edge16" class="edge"><title>Node11&#45;&gt;Node12</title>
<path fill="none" stroke="midnightblue" d="M183.219,-110.219C186.966,-102.864 192.561,-91.8801 197.269,-82.639"/>
<polygon fill="midnightblue" stroke="midnightblue" points="200.479,-84.0487 201.899,-73.5496 194.241,-80.8712 200.479,-84.0487"/>
</g>
<!-- Node13&#45;&gt;Node6 -->
<g id="edge20" class="edge"><title>Node13&#45;&gt;Node6</title>
<path fill="none" stroke="midnightblue" d="M644.12,-165.45C711.817,-154.578 830.733,-135.479 889.345,-126.066"/>
<polygon fill="midnightblue" stroke="midnightblue" points="889.907,-129.52 899.226,-124.479 888.797,-122.609 889.907,-129.52"/>
</g>
<!-- Node13&#45;&gt;Node9 -->
<g id="edge25" class="edge"><title>Node13&#45;&gt;Node9</title>
<path fill="none" stroke="midnightblue" d="M604.621,-165.3C614.11,-157.243 627.357,-143.999 633,-129 639.715,-111.151 625.766,-92.8031 612.724,-80.4493"/>
<polygon fill="midnightblue" stroke="midnightblue" points="614.737,-77.5588 604.914,-73.5898 610.118,-82.8184 614.737,-77.5588"/>
</g>
<!-- Node13&#45;&gt;Node10 -->
<g id="edge21" class="edge"><title>Node13&#45;&gt;Node10</title>
<path fill="none" stroke="midnightblue" d="M581.914,-165.241C571.501,-157.327 557.2,-144.339 551,-129 538.675,-98.5079 534.81,-83.628 551,-55 559.415,-40.121 575.014,-29.6682 589.728,-22.6505"/>
<polygon fill="midnightblue" stroke="midnightblue" points="591.421,-25.7308 599.186,-18.5229 588.62,-19.3153 591.421,-25.7308"/>
</g>
<!-- Node13&#45;&gt;Node11 -->
<g id="edge26" class="edge"><title>Node13&#45;&gt;Node11</title>
<path fill="none" stroke="midnightblue" d="M530.97,-165.45C447.377,-154.775 301.684,-136.168 226.658,-126.586"/>
<polygon fill="midnightblue" stroke="midnightblue" points="226.918,-123.091 216.555,-125.296 226.031,-130.035 226.918,-123.091"/>
</g>
<!-- Node14 -->
<g id="node14" class="node"><title>Node14</title>
<polygon fill="white" stroke="#bfbfbf" points="560.372,-110.5 560.372,-128.5 623.628,-128.5 623.628,-110.5 560.372,-110.5"/>
<text text-anchor="middle" x="592" y="-116.5" font-family="Helvetica,sans-Serif" font-size="10.00">arpa/inet.h</text>
</g>
<!-- Node13&#45;&gt;Node14 -->
<g id="edge22" class="edge"><title>Node13&#45;&gt;Node14</title>
<path fill="none" stroke="midnightblue" d="M593.688,-165.219C593.422,-158.177 593.031,-147.808 592.692,-138.828"/>
<polygon fill="midnightblue" stroke="midnightblue" points="596.178,-138.41 592.304,-128.55 589.183,-138.674 596.178,-138.41"/>
</g>
<!-- Node15 -->
<g id="node15" class="node"><title>Node15</title>
<polygon fill="white" stroke="#bfbfbf" points="394.49,-110.5 394.49,-128.5 465.51,-128.5 465.51,-110.5 394.49,-110.5"/>
<text text-anchor="middle" x="430" y="-116.5" font-family="Helvetica,sans-Serif" font-size="10.00">sys/socket.h</text>
</g>
<!-- Node13&#45;&gt;Node15 -->
<g id="edge23" class="edge"><title>Node13&#45;&gt;Node15</title>
<path fill="none" stroke="midnightblue" d="M569.092,-165.45C541.197,-156.436 495.802,-141.765 464.501,-131.65"/>
<polygon fill="midnightblue" stroke="midnightblue" points="465.465,-128.283 454.873,-128.538 463.312,-134.944 465.465,-128.283"/>
</g>
<!-- Node16 -->
<g id="node16" class="node"><title>Node16</title>
<polygon fill="white" stroke="#bfbfbf" points="718.318,-110.5 718.318,-128.5 767.682,-128.5 767.682,-110.5 718.318,-110.5"/>
<text text-anchor="middle" x="743" y="-116.5" font-family="Helvetica,sans-Serif" font-size="10.00">netdb.h</text>
</g>
<!-- Node13&#45;&gt;Node16 -->
<g id="edge24" class="edge"><title>Node13&#45;&gt;Node16</title>
<path fill="none" stroke="midnightblue" d="M616.63,-165.45C641.681,-156.539 682.267,-142.103 710.666,-132.001"/>
<polygon fill="midnightblue" stroke="midnightblue" points="711.908,-135.274 720.157,-128.625 709.562,-128.679 711.908,-135.274"/>
</g>
<!-- Node17&#45;&gt;Node3 -->
<g id="edge28" class="edge"><title>Node17&#45;&gt;Node3</title>
<path fill="none" stroke="midnightblue" d="M634.667,-227.525C515.112,-223.849 184.964,-206.718 117,-129 92.6899,-101.201 100.987,-54.15 108.123,-28.4953"/>
<polygon fill="midnightblue" stroke="midnightblue" points="111.557,-29.2285 111.105,-18.6434 104.858,-27.2004 111.557,-29.2285"/>
</g>
<!-- Node17&#45;&gt;Node5 -->
<g id="edge33" class="edge"><title>Node17&#45;&gt;Node5</title>
<path fill="none" stroke="midnightblue" d="M677.845,-238.55C674.741,-246.137 667.728,-257.73 660.71,-267.243"/>
<polygon fill="midnightblue" stroke="midnightblue" points="657.853,-265.211 654.375,-275.219 663.335,-269.565 657.853,-265.211"/>
</g>
<!-- Node17&#45;&gt;Node7 -->
<g id="edge29" class="edge"><title>Node17&#45;&gt;Node7</title>
<path fill="none" stroke="midnightblue" d="M721.601,-227.514C807.472,-224.894 994.935,-215.623 1050,-184 1068.31,-173.488 1081.86,-152.913 1089.81,-138.026"/>
<polygon fill="midnightblue" stroke="midnightblue" points="1093.07,-139.332 1094.41,-128.822 1086.81,-136.202 1093.07,-139.332"/>
</g>
<!-- Node17&#45;&gt;Node8 -->
<g id="edge30" class="edge"><title>Node17&#45;&gt;Node8</title>
<path fill="none" stroke="midnightblue" d="M721.586,-223.073C807.452,-211.337 993.121,-180.431 1027,-129 1058.65,-80.9448 974.801,-40.824 924.948,-22.0054"/>
<polygon fill="midnightblue" stroke="midnightblue" points="926.068,-18.6885 915.475,-18.5297 923.657,-25.2601 926.068,-18.6885"/>
</g>
<!-- Node17&#45;&gt;Node9 -->
<g id="edge32" class="edge"><title>Node17&#45;&gt;Node9</title>
<path fill="none" stroke="midnightblue" d="M677.892,-220.495C677.241,-200.145 673.106,-145.53 648,-110 639.481,-97.9443 626.883,-87.3071 615.997,-79.4582"/>
<polygon fill="midnightblue" stroke="midnightblue" points="617.969,-76.5664 607.745,-73.7874 614.004,-82.3355 617.969,-76.5664"/>
</g>
<!-- Node17&#45;&gt;Node11 -->
<g id="edge34" class="edge"><title>Node17&#45;&gt;Node11</title>
<path fill="none" stroke="midnightblue" d="M634.535,-226.236C569.394,-222.074 442.988,-211.014 339,-184 289.931,-171.253 235.635,-147.516 204.587,-132.951"/>
<polygon fill="midnightblue" stroke="midnightblue" points="205.894,-129.698 195.359,-128.571 202.892,-136.021 205.894,-129.698"/>
</g>
<!-- Node17&#45;&gt;Node13 -->
<g id="edge46" class="edge"><title>Node17&#45;&gt;Node13</title>
<path fill="none" stroke="midnightblue" d="M665.242,-220.45C652.044,-212.123 631.198,-198.97 615.459,-189.039"/>
<polygon fill="midnightblue" stroke="midnightblue" points="617.203,-186.001 606.878,-183.625 613.467,-191.922 617.203,-186.001"/>
</g>
<!-- Node18 -->
<g id="node18" class="node"><title>Node18</title>
<polygon fill="white" stroke="#bfbfbf" points="966.488,-110.5 966.488,-128.5 1017.51,-128.5 1017.51,-110.5 966.488,-110.5"/>
<text text-anchor="middle" x="992" y="-116.5" font-family="Helvetica,sans-Serif" font-size="10.00">unistd.h</text>
</g>
<!-- Node17&#45;&gt;Node18 -->
<g id="edge31" class="edge"><title>Node17&#45;&gt;Node18</title>
<path fill="none" stroke="midnightblue" d="M721.532,-220.746C759.316,-213.364 815.157,-200.878 862,-184 900.974,-169.957 943.688,-147.652 969.147,-133.559"/>
<polygon fill="midnightblue" stroke="midnightblue" points="970.999,-136.533 978.015,-128.595 967.579,-130.425 970.999,-136.533"/>
</g>
<!-- Node17&#45;&gt;Node19 -->
<g id="edge35" class="edge"><title>Node17&#45;&gt;Node19</title>
<path fill="none" stroke="midnightblue" d="M694.859,-220.45C712.951,-211.812 741.919,-197.98 762.947,-187.94"/>
<polygon fill="midnightblue" stroke="midnightblue" points="764.467,-191.093 771.983,-183.625 761.451,-184.776 764.467,-191.093"/>
</g>
<!-- Node20 -->
<g id="node20" class="node"><title>Node20</title>
<g id="a_node20"><a xlink:href="mcast_messaging_8h.html" target="_top" xlink:title="FIle containing all the headers of the functions related to multicast communication. ">
<polygon fill="white" stroke="black" points="348.315,-165.5 348.315,-183.5 447.685,-183.5 447.685,-165.5 348.315,-165.5"/>
<text text-anchor="middle" x="398" y="-171.5" font-family="Helvetica,sans-Serif" font-size="10.00">mcastMessaging.h</text>
</a>
</g>
</g>
<!-- Node17&#45;&gt;Node20 -->
<g id="edge47" class="edge"><title>Node17&#45;&gt;Node20</title>
<path fill="none" stroke="midnightblue" d="M635.474,-220.45C585.889,-211.065 503.92,-195.549 450.436,-185.425"/>
<polygon fill="midnightblue" stroke="midnightblue" points="450.943,-181.959 440.467,-183.538 449.641,-188.837 450.943,-181.959"/>
</g>
<!-- Node19&#45;&gt;Node3 -->
<g id="edge36" class="edge"><title>Node19&#45;&gt;Node3</title>
<path fill="none" stroke="midnightblue" d="M793.159,-165.201C799.043,-152.154 807.839,-126.623 796,-110 752.621,-49.0937 710.149,-70.5112 637,-55 454.882,-16.3819 230.363,-11.0607 147.099,-10.4865"/>
<polygon fill="midnightblue" stroke="midnightblue" points="146.996,-6.98609 136.979,-10.436 146.961,-13.986 146.996,-6.98609"/>
</g>
<!-- Node19&#45;&gt;Node6 -->
<g id="edge39" class="edge"><title>Node19&#45;&gt;Node6</title>
<path fill="none" stroke="midnightblue" d="M809.504,-165.45C831.904,-156.656 868.013,-142.48 893.687,-132.401"/>
<polygon fill="midnightblue" stroke="midnightblue" points="895.274,-135.538 903.303,-128.625 892.716,-129.022 895.274,-135.538"/>
</g>
<!-- Node19&#45;&gt;Node7 -->
<g id="edge37" class="edge"><title>Node19&#45;&gt;Node7</title>
<path fill="none" stroke="midnightblue" d="M835.93,-165.45C898.74,-154.677 1008.64,-135.828 1064.03,-126.327"/>
<polygon fill="midnightblue" stroke="midnightblue" points="1064.77,-129.751 1074.03,-124.611 1063.59,-122.852 1064.77,-129.751"/>
</g>
<!-- Node19&#45;&gt;Node9 -->
<g id="edge44" class="edge"><title>Node19&#45;&gt;Node9</title>
<path fill="none" stroke="midnightblue" d="M790.022,-165.248C791.193,-151.797 791.369,-125.133 777,-110 758.227,-90.2296 686.257,-77.3334 638.363,-70.7449"/>
<polygon fill="midnightblue" stroke="midnightblue" points="638.614,-67.2476 628.239,-69.3963 637.69,-74.1863 638.614,-67.2476"/>
</g>
<!-- Node19&#45;&gt;Node10 -->
<g id="edge40" class="edge"><title>Node19&#45;&gt;Node10</title>
<path fill="none" stroke="midnightblue" d="M807.12,-165.497C821.135,-158.213 839.531,-145.995 848,-129 862.669,-99.5634 868.857,-80.4299 848,-55 825.622,-27.7157 725.756,-16.8374 667.534,-12.7569"/>
<polygon fill="midnightblue" stroke="midnightblue" points="667.733,-9.26252 657.523,-12.0934 667.27,-16.2472 667.733,-9.26252"/>
</g>
<!-- Node19&#45;&gt;Node11 -->
<g id="edge45" class="edge"><title>Node19&#45;&gt;Node11</title>
<path fill="none" stroke="midnightblue" d="M725.41,-168.46C626.487,-160.542 429.765,-144.491 263,-129 251.26,-127.909 238.605,-126.665 226.768,-125.471"/>
<polygon fill="midnightblue" stroke="midnightblue" points="226.923,-121.969 216.621,-124.44 226.216,-128.933 226.923,-121.969"/>
</g>
<!-- Node19&#45;&gt;Node14 -->
<g id="edge41" class="edge"><title>Node19&#45;&gt;Node14</title>
<path fill="none" stroke="midnightblue" d="M759.08,-165.45C725.136,-156.318 669.623,-141.383 631.987,-131.258"/>
<polygon fill="midnightblue" stroke="midnightblue" points="632.444,-127.757 621.878,-128.538 630.626,-134.516 632.444,-127.757"/>
</g>
<!-- Node19&#45;&gt;Node15 -->
<g id="edge42" class="edge"><title>Node19&#45;&gt;Node15</title>
<path fill="none" stroke="midnightblue" d="M734.476,-165.45C663.817,-155.019 541.866,-137.015 475.775,-127.258"/>
<polygon fill="midnightblue" stroke="midnightblue" points="476.068,-123.763 465.664,-125.765 475.045,-130.688 476.068,-123.763"/>
</g>
<!-- Node19&#45;&gt;Node16 -->
<g id="edge43" class="edge"><title>Node19&#45;&gt;Node16</title>
<path fill="none" stroke="midnightblue" d="M781.812,-165.219C775.089,-157.473 764.873,-145.701 756.609,-136.18"/>
<polygon fill="midnightblue" stroke="midnightblue" points="759.184,-133.808 749.986,-128.55 753.898,-138.396 759.184,-133.808"/>
</g>
<!-- Node19&#45;&gt;Node18 -->
<g id="edge38" class="edge"><title>Node19&#45;&gt;Node18</title>
<path fill="none" stroke="midnightblue" d="M819.831,-165.45C856.587,-155.854 917.888,-139.849 956.563,-129.752"/>
<polygon fill="midnightblue" stroke="midnightblue" points="957.564,-133.108 966.356,-127.195 955.796,-126.335 957.564,-133.108"/>
</g>
<!-- Node20&#45;&gt;Node3 -->
<g id="edge48" class="edge"><title>Node20&#45;&gt;Node3</title>
<path fill="none" stroke="midnightblue" d="M348.196,-171.873C279.926,-168.554 162.373,-158.591 133,-129 106.66,-102.465 107.911,-54.9056 111.015,-28.8342"/>
<polygon fill="midnightblue" stroke="midnightblue" points="114.498,-29.2006 112.431,-18.8094 107.566,-28.2215 114.498,-29.2006"/>
</g>
<!-- Node20&#45;&gt;Node9 -->
<g id="edge53" class="edge"><title>Node20&#45;&gt;Node9</title>
<path fill="none" stroke="midnightblue" d="M392.402,-165.076C384.388,-151.857 371.972,-126.093 385,-110 390.213,-103.56 489.948,-84.4345 549.731,-73.4666"/>
<polygon fill="midnightblue" stroke="midnightblue" points="550.471,-76.8893 559.679,-71.649 549.213,-70.0033 550.471,-76.8893"/>
</g>
<!-- Node20&#45;&gt;Node10 -->
<g id="edge51" class="edge"><title>Node20&#45;&gt;Node10</title>
<path fill="none" stroke="midnightblue" d="M417.539,-165.386C474.566,-141.702 636.794,-74.3082 637,-74 646.127,-60.3137 640.862,-41.4742 634.698,-27.8743"/>
<polygon fill="midnightblue" stroke="midnightblue" points="637.675,-26.0052 630.032,-18.6677 631.431,-29.1698 637.675,-26.0052"/>
</g>
<!-- Node20&#45;&gt;Node11 -->
<g id="edge54" class="edge"><title>Node20&#45;&gt;Node11</title>
<path fill="none" stroke="midnightblue" d="M364.739,-165.45C326.601,-156.221 263.97,-141.063 222.118,-130.935"/>
<polygon fill="midnightblue" stroke="midnightblue" points="222.758,-127.489 212.215,-128.538 221.111,-134.292 222.758,-127.489"/>
</g>
<!-- Node20&#45;&gt;Node14 -->
<g id="edge52" class="edge"><title>Node20&#45;&gt;Node14</title>
<path fill="none" stroke="midnightblue" d="M427.464,-165.45C460.891,-156.318 515.559,-141.383 552.622,-131.258"/>
<polygon fill="midnightblue" stroke="midnightblue" points="553.853,-134.55 562.577,-128.538 552.008,-127.797 553.853,-134.55"/>
</g>
<!-- Node20&#45;&gt;Node15 -->
<g id="edge50" class="edge"><title>Node20&#45;&gt;Node15</title>
<path fill="none" stroke="midnightblue" d="M403,-165.219C407.488,-157.786 414.214,-146.646 419.83,-137.345"/>
<polygon fill="midnightblue" stroke="midnightblue" points="422.967,-138.919 425.14,-128.55 416.975,-135.301 422.967,-138.919"/>
</g>
<!-- Node21 -->
<g id="node21" class="node"><title>Node21</title>
<polygon fill="white" stroke="#bfbfbf" points="271.99,-110.5 271.99,-128.5 338.01,-128.5 338.01,-110.5 271.99,-110.5"/>
<text text-anchor="middle" x="305" y="-116.5" font-family="Helvetica,sans-Serif" font-size="10.00">sys/types.h</text>
</g>
<!-- Node20&#45;&gt;Node21 -->
<g id="edge49" class="edge"><title>Node20&#45;&gt;Node21</title>
<path fill="none" stroke="midnightblue" d="M383.875,-165.45C369.127,-157.045 345.752,-143.724 328.271,-133.762"/>
<polygon fill="midnightblue" stroke="midnightblue" points="329.679,-130.536 319.258,-128.625 326.213,-136.618 329.679,-130.536"/>
</g>
</g>
</svg>
