<?xml version="1.0" encoding="UTF-8" standalone="no"?>
<!DOCTYPE svg PUBLIC "-//W3C//DTD SVG 1.1//EN"
 "http://www.w3.org/Graphics/SVG/1.1/DTD/svg11.dtd">
<!-- Generated by graphviz version 2.38.0 (20140413.2041)
 -->
<!-- Title: vehicleConnControlThread Pages: 1 -->
<svg width="1020pt" height="157pt"
 viewBox="0.00 0.00 1019.98 157.00" xmlns="http://www.w3.org/2000/svg" xmlns:xlink="http://www.w3.org/1999/xlink">
<g id="graph0" class="graph" transform="scale(1 1) rotate(0) translate(4 153)">
<title>vehicleConnControlThread</title>
<polygon fill="white" stroke="none" points="-4,4 -4,-153 1015.98,-153 1015.98,4 -4,4"/>
<!-- Node1 -->
<g id="node1" class="node"><title>Node1</title>
<polygon fill="#bfbfbf" stroke="black" points="0,-55.5 0,-73.5 134.955,-73.5 134.955,-55.5 0,-55.5"/>
<text text-anchor="middle" x="67.4775" y="-61.5" font-family="Helvetica,sans-Serif" font-size="10.00">vehicleConnControlThread</text>
</g>
<!-- Node2 -->
<g id="node2" class="node"><title>Node2</title>
<g id="a_node2"><a xlink:href="tcp_vehicle_socket_comm_8c.html#a49fe9e8bc1bd13ac909ae2b7d2391886" target="_top" xlink:title="Initialize the vehicle comunication server. ">
<polygon fill="white" stroke="black" points="185.967,-74.5 185.967,-92.5 302.578,-92.5 302.578,-74.5 185.967,-74.5"/>
<text text-anchor="middle" x="244.272" y="-80.5" font-family="Helvetica,sans-Serif" font-size="10.00">VSC_initVehicleServer</text>
</a>
</g>
</g>
<!-- Node1&#45;&gt;Node2 -->
<g id="edge1" class="edge"><title>Node1&#45;&gt;Node2</title>
<path fill="none" stroke="midnightblue" d="M135.059,-71.7373C148.359,-73.183 162.342,-74.703 175.677,-76.1524"/>
<polygon fill="midnightblue" stroke="midnightblue" points="175.405,-79.6435 185.725,-77.2447 176.162,-72.6844 175.405,-79.6435"/>
</g>
<!-- Node10 -->
<g id="node10" class="node"><title>Node10</title>
<g id="a_node10"><a xlink:href="tcp_vehicle_socket_comm_8c.html#ad670ed989fdade07d91fd3f1bc38ae03" target="_top" xlink:title="Shutdown the vehicle comunication server. ">
<polygon fill="white" stroke="black" points="170.955,-37.5 170.955,-55.5 317.59,-55.5 317.59,-37.5 170.955,-37.5"/>
<text text-anchor="middle" x="244.272" y="-43.5" font-family="Helvetica,sans-Serif" font-size="10.00">VSC_shutdownVehicleServer</text>
</a>
</g>
</g>
<!-- Node1&#45;&gt;Node10 -->
<g id="edge11" class="edge"><title>Node1&#45;&gt;Node10</title>
<path fill="none" stroke="midnightblue" d="M135.059,-57.6436C143.449,-56.7796 152.112,-55.8875 160.711,-55.002"/>
<polygon fill="midnightblue" stroke="midnightblue" points="161.169,-58.4734 170.758,-53.9674 160.452,-51.5102 161.169,-58.4734"/>
</g>
<!-- Node3 -->
<g id="node3" class="node"><title>Node3</title>
<g id="a_node3"><a xlink:href="tcp_vehicle_socket_comm_8c.html#a3ec3f2c1297ab45cb0ad39f925a4bce5" target="_top" xlink:title="Accept the new connections from vehicles. ">
<polygon fill="white" stroke="black" points="353.59,-74.5 353.59,-92.5 480.767,-92.5 480.767,-74.5 353.59,-74.5"/>
<text text-anchor="middle" x="417.178" y="-80.5" font-family="Helvetica,sans-Serif" font-size="10.00">VSC_acceptConnections</text>
</a>
</g>
</g>
<!-- Node2&#45;&gt;Node3 -->
<g id="edge2" class="edge"><title>Node2&#45;&gt;Node3</title>
<path fill="none" stroke="midnightblue" d="M302.657,-83.5C315.639,-83.5 329.594,-83.5 343.124,-83.5"/>
<polygon fill="midnightblue" stroke="midnightblue" points="343.366,-87.0001 353.366,-83.5 343.366,-80.0001 343.366,-87.0001"/>
</g>
<!-- Node4 -->
<g id="node4" class="node"><title>Node4</title>
<g id="a_node4"><a xlink:href="tcp_vehicle_socket_comm_8c.html#a919ad3564e41afca64d17244390cfba7" target="_top" xlink:title="Thread to handle the inbound messages from the vehicles. ">
<polygon fill="white" stroke="black" points="516.767,-74.5 516.767,-92.5 683.416,-92.5 683.416,-74.5 516.767,-74.5"/>
<text text-anchor="middle" x="600.091" y="-80.5" font-family="Helvetica,sans-Serif" font-size="10.00">VSC_inboundHandlerThreadFunc</text>
</a>
</g>
</g>
<!-- Node3&#45;&gt;Node4 -->
<g id="edge3" class="edge"><title>Node3&#45;&gt;Node4</title>
<path fill="none" stroke="midnightblue" d="M480.945,-83.5C489.234,-83.5 497.866,-83.5 506.524,-83.5"/>
<polygon fill="midnightblue" stroke="midnightblue" points="506.68,-87.0001 516.68,-83.5 506.68,-80.0001 506.68,-87.0001"/>
</g>
<!-- Node5 -->
<g id="node5" class="node"><title>Node5</title>
<g id="a_node5"><a xlink:href="message_parser_8c.html#a1e095af9fe3f1bd7c5a708d797e52bb9" target="_top" xlink:title="Message decoupler and receiver function. ">
<polygon fill="white" stroke="black" points="743.61,-130.5 743.61,-148.5 860.206,-148.5 860.206,-130.5 743.61,-130.5"/>
<text text-anchor="middle" x="801.908" y="-136.5" font-family="Helvetica,sans-Serif" font-size="10.00">MP_messageReceiver</text>
</a>
</g>
</g>
<!-- Node4&#45;&gt;Node5 -->
<g id="edge4" class="edge"><title>Node4&#45;&gt;Node5</title>
<path fill="none" stroke="midnightblue" d="M628.181,-92.5988C652.056,-100.467 687.852,-111.898 719.416,-120.5 729.087,-123.136 739.465,-125.731 749.466,-128.116"/>
<polygon fill="midnightblue" stroke="midnightblue" points="748.767,-131.547 759.302,-130.425 750.366,-124.732 748.767,-131.547"/>
</g>
<!-- Node7 -->
<g id="node7" class="node"><title>Node7</title>
<g id="a_node7"><a xlink:href="msg_buffers_8c.html#a94d8920e20c5150892cf23b81eb1dfd6" target="_top" xlink:title="Put a message into the buffer. ">
<polygon fill="white" stroke="black" points="920.669,-55.5 920.669,-73.5 1011.71,-73.5 1011.71,-55.5 920.669,-55.5"/>
<text text-anchor="middle" x="966.188" y="-61.5" font-family="Helvetica,sans-Serif" font-size="10.00">MB_putMessage</text>
</a>
</g>
</g>
<!-- Node4&#45;&gt;Node7 -->
<g id="edge6" class="edge"><title>Node4&#45;&gt;Node7</title>
<path fill="none" stroke="midnightblue" d="M622.862,-74.4955C646.248,-65.348 684.735,-51.7959 719.416,-46.5 791.902,-35.4311 811.514,-38.4786 884.4,-46.5 896.898,-47.8754 910.291,-50.4135 922.506,-53.1587"/>
<polygon fill="midnightblue" stroke="midnightblue" points="921.91,-56.6137 932.445,-55.4925 923.51,-49.7991 921.91,-56.6137"/>
</g>
<!-- Node8 -->
<g id="node8" class="node"><title>Node8</title>
<g id="a_node8"><a xlink:href="station_actions_8c.html#aeca7876f4e4aa4da84f9d5598995916c" target="_top" xlink:title="Search a vehicle by it&#39;s inbox handling thread. ">
<polygon fill="white" stroke="black" points="719.416,-56.5 719.416,-74.5 884.4,-74.5 884.4,-56.5 719.416,-56.5"/>
<text text-anchor="middle" x="801.908" y="-62.5" font-family="Helvetica,sans-Serif" font-size="10.00">SA_searchVehicleByInboxThread</text>
</a>
</g>
</g>
<!-- Node4&#45;&gt;Node8 -->
<g id="edge7" class="edge"><title>Node4&#45;&gt;Node8</title>
<path fill="none" stroke="midnightblue" d="M683.518,-76.0748C692.018,-75.3091 700.691,-74.5278 709.283,-73.7538"/>
<polygon fill="midnightblue" stroke="midnightblue" points="709.67,-77.2333 719.315,-72.8501 709.042,-70.2615 709.67,-77.2333"/>
</g>
<!-- Node9 -->
<g id="node9" class="node"><title>Node9</title>
<g id="a_node9"><a xlink:href="station_actions_8c.html#a62de0824fbc9e952d2f17577d16d38d1" target="_top" xlink:title="Send the vehicle disconnected message to the server. ">
<polygon fill="white" stroke="black" points="733.874,-93.5 733.874,-111.5 869.942,-111.5 869.942,-93.5 733.874,-93.5"/>
<text text-anchor="middle" x="801.908" y="-99.5" font-family="Helvetica,sans-Serif" font-size="10.00">SA_sendDisconnectedMsg</text>
</a>
</g>
</g>
<!-- Node4&#45;&gt;Node9 -->
<g id="edge8" class="edge"><title>Node4&#45;&gt;Node9</title>
<path fill="none" stroke="midnightblue" d="M683.518,-91.3377C696.666,-92.5879 710.231,-93.8778 723.264,-95.117"/>
<polygon fill="midnightblue" stroke="midnightblue" points="723.297,-98.6359 733.584,-96.0983 723.96,-91.6673 723.297,-98.6359"/>
</g>
<!-- Node6 -->
<g id="node6" class="node"><title>Node6</title>
<g id="a_node6"><a xlink:href="message_parser_8c.html#a0026bd717404e4c2f9df87d137721377" target="_top" xlink:title="Message structure initializer. ">
<polygon fill="white" stroke="black" points="920.4,-111.5 920.4,-129.5 1011.98,-129.5 1011.98,-111.5 920.4,-111.5"/>
<text text-anchor="middle" x="966.188" y="-117.5" font-family="Helvetica,sans-Serif" font-size="10.00">MP_initMsgStruc</text>
</a>
</g>
</g>
<!-- Node5&#45;&gt;Node6 -->
<g id="edge5" class="edge"><title>Node5&#45;&gt;Node6</title>
<path fill="none" stroke="midnightblue" d="M860.579,-132.748C876.646,-130.867 894.057,-128.828 909.979,-126.964"/>
<polygon fill="midnightblue" stroke="midnightblue" points="910.673,-130.407 920.198,-125.768 909.859,-123.454 910.673,-130.407"/>
</g>
<!-- Node9&#45;&gt;Node6 -->
<g id="edge9" class="edge"><title>Node9&#45;&gt;Node6</title>
<path fill="none" stroke="midnightblue" d="M870.32,-109.977C883.513,-111.441 897.205,-112.959 909.945,-114.372"/>
<polygon fill="midnightblue" stroke="midnightblue" points="909.606,-117.856 919.93,-115.48 910.377,-110.899 909.606,-117.856"/>
</g>
<!-- Node9&#45;&gt;Node7 -->
<g id="edge10" class="edge"><title>Node9&#45;&gt;Node7</title>
<path fill="none" stroke="midnightblue" d="M841.876,-93.4307C855.347,-90.2911 870.539,-86.746 884.4,-83.5 894.925,-81.0354 906.22,-78.3836 916.929,-75.8659"/>
<polygon fill="midnightblue" stroke="midnightblue" points="918.04,-79.2002 926.973,-73.5036 916.437,-72.3861 918.04,-79.2002"/>
</g>
<!-- Node11 -->
<g id="node11" class="node"><title>Node11</title>
<g id="a_node11"><a xlink:href="station_actions_8c.html#a37799774c2d1bb58759b36bb9d82817e" target="_top" xlink:title="Count the vehicles on the vehicle list. ">
<polygon fill="white" stroke="black" points="356.92,-0.5 356.92,-18.5 477.437,-18.5 477.437,-0.5 356.92,-0.5"/>
<text text-anchor="middle" x="417.178" y="-6.5" font-family="Helvetica,sans-Serif" font-size="10.00">SA_countVehiclesInList</text>
</a>
</g>
</g>
<!-- Node10&#45;&gt;Node11 -->
<g id="edge12" class="edge"><title>Node10&#45;&gt;Node11</title>
<path fill="none" stroke="midnightblue" d="M287.081,-37.4488C310.445,-32.3907 339.759,-26.0444 364.546,-20.6781"/>
<polygon fill="midnightblue" stroke="midnightblue" points="365.473,-24.0586 374.506,-18.5218 363.992,-17.2171 365.473,-24.0586"/>
</g>
<!-- Node12 -->
<g id="node12" class="node"><title>Node12</title>
<g id="a_node12"><a xlink:href="station_actions_8c.html#ace989dc2c9246744d4361436398b4075" target="_top" xlink:title="Get the vehicle that is on the n&#45;th position in the list. ">
<polygon fill="white" stroke="black" points="358.585,-37.5 358.585,-55.5 475.771,-55.5 475.771,-37.5 358.585,-37.5"/>
<text text-anchor="middle" x="417.178" y="-43.5" font-family="Helvetica,sans-Serif" font-size="10.00">SA_getVehicleByIndex</text>
</a>
</g>
</g>
<!-- Node10&#45;&gt;Node12 -->
<g id="edge13" class="edge"><title>Node10&#45;&gt;Node12</title>
<path fill="none" stroke="midnightblue" d="M317.752,-46.5C327.813,-46.5 338.119,-46.5 348.096,-46.5"/>
<polygon fill="midnightblue" stroke="midnightblue" points="348.349,-50.0001 358.349,-46.5 348.349,-43.0001 348.349,-50.0001"/>
</g>
</g>
</svg>
