<?xml version="1.0" encoding="UTF-8" standalone="no"?>
<!DOCTYPE svg PUBLIC "-//W3C//DTD SVG 1.1//EN"
 "http://www.w3.org/Graphics/SVG/1.1/DTD/svg11.dtd">
<!-- Generated by graphviz version 2.38.0 (20140413.2041)
 -->
<!-- Title: rasPi&#45;EmergencyStation/main.h Pages: 1 -->
<svg width="682pt" height="422pt"
 viewBox="0.00 0.00 682.23 422.00" xmlns="http://www.w3.org/2000/svg" xmlns:xlink="http://www.w3.org/1999/xlink">
<g id="graph0" class="graph" transform="scale(1 1) rotate(0) translate(4 418)">
<title>rasPi&#45;EmergencyStation/main.h</title>
<polygon fill="white" stroke="none" points="-4,4 -4,-418 678.234,-418 678.234,4 -4,4"/>
<!-- Node1 -->
<g id="node1" class="node"><title>Node1</title>
<polygon fill="#bfbfbf" stroke="black" points="237.089,-385.5 237.089,-413.5 360.911,-413.5 360.911,-385.5 237.089,-385.5"/>
<text text-anchor="start" x="245.089" y="-401.5" font-family="Helvetica,sans-Serif" font-size="10.00">rasPi&#45;EmergencyStation</text>
<text text-anchor="middle" x="299" y="-391.5" font-family="Helvetica,sans-Serif" font-size="10.00">/main.h</text>
</g>
<!-- Node2 -->
<g id="node2" class="node"><title>Node2</title>
<polygon fill="white" stroke="#bfbfbf" points="181.269,-0.5 181.269,-18.5 226.731,-18.5 226.731,-0.5 181.269,-0.5"/>
<text text-anchor="middle" x="204" y="-6.5" font-family="Helvetica,sans-Serif" font-size="10.00">stdio.h</text>
</g>
<!-- Node1&#45;&gt;Node2 -->
<g id="edge1" class="edge"><title>Node1&#45;&gt;Node2</title>
<path fill="none" stroke="midnightblue" d="M237.047,-388.018C149.468,-371.414 0,-335.721 0,-285.5 0,-285.5 0,-285.5 0,-118.5 0,-42.1056 113.124,-19.5988 170.892,-13.0859"/>
<polygon fill="midnightblue" stroke="midnightblue" points="171.406,-16.5517 180.995,-12.0466 170.689,-9.58844 171.406,-16.5517"/>
</g>
<!-- Node3 -->
<g id="node3" class="node"><title>Node3</title>
<polygon fill="white" stroke="#bfbfbf" points="623.766,-330.5 623.766,-348.5 674.234,-348.5 674.234,-330.5 623.766,-330.5"/>
<text text-anchor="middle" x="649" y="-336.5" font-family="Helvetica,sans-Serif" font-size="10.00">signal.h</text>
</g>
<!-- Node1&#45;&gt;Node3 -->
<g id="edge2" class="edge"><title>Node1&#45;&gt;Node3</title>
<path fill="none" stroke="midnightblue" d="M361.136,-389.67C424.043,-380.483 524.036,-365.196 610,-349 611.09,-348.795 612.195,-348.582 613.311,-348.363"/>
<polygon fill="midnightblue" stroke="midnightblue" points="614.355,-351.722 623.449,-346.286 612.949,-344.865 614.355,-351.722"/>
</g>
<!-- Node4 -->
<g id="node4" class="node"><title>Node4</title>
<g id="a_node4"><a xlink:href="structures_8h.html" target="_top" xlink:title="File containing all the structure definitions used in the other modules. ">
<polygon fill="white" stroke="red" points="231.879,-55.5 231.879,-73.5 300.121,-73.5 300.121,-55.5 231.879,-55.5"/>
<text text-anchor="middle" x="266" y="-61.5" font-family="Helvetica,sans-Serif" font-size="10.00">structures.h</text>
</a>
</g>
</g>
<!-- Node1&#45;&gt;Node4 -->
<g id="edge3" class="edge"><title>Node1&#45;&gt;Node4</title>
<path fill="none" stroke="midnightblue" d="M237.599,-385.366C189.529,-371.507 125.821,-344.418 95,-294 41.9997,-207.301 183.66,-112.868 242.107,-78.7328"/>
<polygon fill="midnightblue" stroke="midnightblue" points="244.115,-81.6163 251.047,-73.6043 240.631,-75.5445 244.115,-81.6163"/>
</g>
<!-- Node5 -->
<g id="node5" class="node"><title>Node5</title>
<g id="a_node5"><a xlink:href="message_parser_8h.html" target="_top" xlink:title="Message parser function headers. ">
<polygon fill="white" stroke="red" points="290.089,-330.5 290.089,-348.5 383.911,-348.5 383.911,-330.5 290.089,-330.5"/>
<text text-anchor="middle" x="337" y="-336.5" font-family="Helvetica,sans-Serif" font-size="10.00">messageParser.h</text>
</a>
</g>
</g>
<!-- Node1&#45;&gt;Node5 -->
<g id="edge5" class="edge"><title>Node1&#45;&gt;Node5</title>
<path fill="none" stroke="midnightblue" d="M307.623,-385.339C313.084,-377.004 320.194,-366.151 326.052,-357.211"/>
<polygon fill="midnightblue" stroke="midnightblue" points="329.028,-359.054 331.581,-348.771 323.173,-355.218 329.028,-359.054"/>
</g>
<!-- Node6 -->
<g id="node6" class="node"><title>Node6</title>
<g id="a_node6"><a xlink:href="msg_buffers_8h.html" target="_top" xlink:title="File containing the headers of all functions related to the message mailboxes. ">
<polygon fill="white" stroke="red" points="365.632,-110.5 365.632,-128.5 440.368,-128.5 440.368,-110.5 365.632,-110.5"/>
<text text-anchor="middle" x="403" y="-116.5" font-family="Helvetica,sans-Serif" font-size="10.00">msgBuffers.h</text>
</a>
</g>
</g>
<!-- Node1&#45;&gt;Node6 -->
<g id="edge29" class="edge"><title>Node1&#45;&gt;Node6</title>
<path fill="none" stroke="midnightblue" d="M361.261,-387.803C448.351,-371.044 596,-335.29 596,-285.5 596,-285.5 596,-285.5 596,-228.5 596,-199.042 598.246,-185.406 577,-165 543.351,-132.682 489.594,-122.941 450.73,-120.425"/>
<polygon fill="midnightblue" stroke="midnightblue" points="450.858,-116.927 440.693,-119.913 450.501,-123.918 450.858,-116.927"/>
</g>
<!-- Node7 -->
<g id="node7" class="node"><title>Node7</title>
<g id="a_node7"><a xlink:href="tcp_vehicle_socket_comm_8h.html" target="_top" xlink:title="Vehicle connection server&#39;s headers. ">
<polygon fill="white" stroke="red" points="104.027,-275.5 104.027,-293.5 233.973,-293.5 233.973,-275.5 104.027,-275.5"/>
<text text-anchor="middle" x="169" y="-281.5" font-family="Helvetica,sans-Serif" font-size="10.00">tcpVehicleSocketComm.h</text>
</a>
</g>
</g>
<!-- Node1&#45;&gt;Node7 -->
<g id="edge32" class="edge"><title>Node1&#45;&gt;Node7</title>
<path fill="none" stroke="midnightblue" d="M283.833,-385.316C259.402,-364.08 211.497,-322.44 185.966,-300.247"/>
<polygon fill="midnightblue" stroke="midnightblue" points="188.075,-297.443 178.231,-293.524 183.482,-302.726 188.075,-297.443"/>
</g>
<!-- Node8 -->
<g id="node8" class="node"><title>Node8</title>
<g id="a_node8"><a xlink:href="station_actions_8h.html" target="_top" xlink:title="FIle containing all the station action headers. ">
<polygon fill="white" stroke="red" points="241.702,-220.5 241.702,-238.5 328.298,-238.5 328.298,-220.5 241.702,-220.5"/>
<text text-anchor="middle" x="285" y="-226.5" font-family="Helvetica,sans-Serif" font-size="10.00">stationActions.h</text>
</a>
</g>
</g>
<!-- Node1&#45;&gt;Node8 -->
<g id="edge30" class="edge"><title>Node1&#45;&gt;Node8</title>
<path fill="none" stroke="midnightblue" d="M292.811,-385.402C288.545,-375.619 283.253,-361.788 281,-349 274.828,-313.968 278.811,-272.236 282.052,-248.812"/>
<polygon fill="midnightblue" stroke="midnightblue" points="285.557,-249.036 283.578,-238.627 278.635,-247.998 285.557,-249.036"/>
</g>
<!-- Node9 -->
<g id="node9" class="node"><title>Node9</title>
<g id="a_node9"><a xlink:href="tcp_server_socket_comm_8h.html" target="_top" xlink:title="Server connection related function definitions. ">
<polygon fill="white" stroke="red" points="440.426,-165.5 440.426,-183.5 567.574,-183.5 567.574,-165.5 440.426,-165.5"/>
<text text-anchor="middle" x="504" y="-171.5" font-family="Helvetica,sans-Serif" font-size="10.00">tcpServerSocketComm.h</text>
</a>
</g>
</g>
<!-- Node1&#45;&gt;Node9 -->
<g id="edge31" class="edge"><title>Node1&#45;&gt;Node9</title>
<path fill="none" stroke="midnightblue" d="M329.097,-385.417C348.219,-376.451 373.038,-363.571 393,-349 444.709,-311.255 459.068,-297.079 486,-239 492.786,-224.367 497.551,-206.627 500.467,-193.621"/>
<polygon fill="midnightblue" stroke="midnightblue" points="503.94,-194.112 502.557,-183.608 497.087,-192.681 503.94,-194.112"/>
</g>
<!-- Node4&#45;&gt;Node2 -->
<g id="edge4" class="edge"><title>Node4&#45;&gt;Node2</title>
<path fill="none" stroke="midnightblue" d="M256.584,-55.4504C247.206,-47.4345 232.598,-34.9471 221.157,-25.1663"/>
<polygon fill="midnightblue" stroke="midnightblue" points="223.381,-22.4627 213.505,-18.6253 218.832,-27.7836 223.381,-22.4627"/>
</g>
<!-- Node5&#45;&gt;Node2 -->
<g id="edge6" class="edge"><title>Node5&#45;&gt;Node2</title>
<path fill="none" stroke="midnightblue" d="M290.069,-336.76C226.824,-333.316 119.332,-323.214 95,-294 23.8477,-208.571 143.833,-71.5587 188.379,-25.8783"/>
<polygon fill="midnightblue" stroke="midnightblue" points="190.972,-28.2337 195.529,-18.6688 186.002,-23.3044 190.972,-28.2337"/>
</g>
<!-- Node5&#45;&gt;Node4 -->
<g id="edge7" class="edge"><title>Node5&#45;&gt;Node4</title>
<path fill="none" stroke="midnightblue" d="M338.174,-330.328C340.712,-310.915 345.798,-260.615 337,-220 325.479,-166.811 293.73,-110.104 276.862,-82.5302"/>
<polygon fill="midnightblue" stroke="midnightblue" points="279.648,-80.383 271.386,-73.7503 273.708,-84.0875 279.648,-80.383"/>
</g>
<!-- Node5&#45;&gt;Node6 -->
<g id="edge8" class="edge"><title>Node5&#45;&gt;Node6</title>
<path fill="none" stroke="midnightblue" d="M338.033,-330.366C343.477,-321.954 354.823,-308.095 361,-294 384.339,-240.743 391.209,-171.18 396.861,-138.695"/>
<polygon fill="midnightblue" stroke="midnightblue" points="400.303,-139.33 398.834,-128.838 393.439,-137.956 400.303,-139.33"/>
</g>
<!-- Node5&#45;&gt;Node7 -->
<g id="edge12" class="edge"><title>Node5&#45;&gt;Node7</title>
<path fill="none" stroke="midnightblue" d="M306.475,-330.45C275.937,-321.475 229.503,-306.892 199.117,-296.781"/>
<polygon fill="midnightblue" stroke="midnightblue" points="200.067,-293.408 189.473,-293.538 197.836,-300.043 200.067,-293.408"/>
</g>
<!-- Node5&#45;&gt;Node8 -->
<g id="edge28" class="edge"><title>Node5&#45;&gt;Node8</title>
<path fill="none" stroke="midnightblue" d="M329.318,-330.382C317.525,-313.026 297.291,-271.96 288.386,-248.241"/>
<polygon fill="midnightblue" stroke="midnightblue" points="291.682,-247.063 285.162,-238.712 285.051,-249.306 291.682,-247.063"/>
</g>
<!-- Node6&#45;&gt;Node2 -->
<g id="edge9" class="edge"><title>Node6&#45;&gt;Node2</title>
<path fill="none" stroke="midnightblue" d="M392.433,-110.36C375.473,-97.5316 340.845,-72.2931 309,-55 285.268,-42.1126 257.018,-30.3254 235.801,-22.1245"/>
<polygon fill="midnightblue" stroke="midnightblue" points="236.886,-18.7929 226.295,-18.5079 234.397,-25.3353 236.886,-18.7929"/>
</g>
<!-- Node6&#45;&gt;Node4 -->
<g id="edge10" class="edge"><title>Node6&#45;&gt;Node4</title>
<path fill="none" stroke="midnightblue" d="M382.193,-110.45C359.36,-101.617 322.492,-87.3546 296.417,-77.267"/>
<polygon fill="midnightblue" stroke="midnightblue" points="297.592,-73.9692 287.003,-73.6253 295.067,-80.4977 297.592,-73.9692"/>
</g>
<!-- Node6&#45;&gt;Node5 -->
<g id="edge11" class="edge"><title>Node6&#45;&gt;Node5</title>
<path fill="none" stroke="midnightblue" d="M406.611,-128.838C410.6,-154.55 405.091,-234.463 379,-294 374.367,-304.571 366.827,-315.01 359.196,-323.117"/>
<polygon fill="midnightblue" stroke="midnightblue" points="356.432,-320.918 351.638,-330.366 361.278,-325.97 356.432,-320.918"/>
</g>
<!-- Node7&#45;&gt;Node2 -->
<g id="edge13" class="edge"><title>Node7&#45;&gt;Node2</title>
<path fill="none" stroke="midnightblue" d="M170.047,-275.33C174.848,-237.888 194.803,-82.2345 201.668,-28.689"/>
<polygon fill="midnightblue" stroke="midnightblue" points="205.156,-29.0024 202.957,-18.6385 198.213,-28.1122 205.156,-29.0024"/>
</g>
<!-- Node7&#45;&gt;Node4 -->
<g id="edge14" class="edge"><title>Node7&#45;&gt;Node4</title>
<path fill="none" stroke="midnightblue" d="M172.567,-275.483C186.617,-243.908 238.328,-127.691 258.174,-83.0889"/>
<polygon fill="midnightblue" stroke="midnightblue" points="261.429,-84.3823 262.297,-73.8231 255.034,-81.5366 261.429,-84.3823"/>
</g>
<!-- Node7&#45;&gt;Node5 -->
<g id="edge16" class="edge"><title>Node7&#45;&gt;Node5</title>
<path fill="none" stroke="midnightblue" d="M199.487,-293.538C230.011,-302.51 276.446,-317.091 306.845,-327.206"/>
<polygon fill="midnightblue" stroke="midnightblue" points="305.9,-330.581 316.494,-330.45 308.131,-323.946 305.9,-330.581"/>
</g>
<!-- Node7&#45;&gt;Node6 -->
<g id="edge15" class="edge"><title>Node7&#45;&gt;Node6</title>
<path fill="none" stroke="midnightblue" d="M175.922,-275.423C187.095,-262.679 210.169,-237.555 233,-220 280.374,-183.573 342.286,-150.513 376.813,-133.198"/>
<polygon fill="midnightblue" stroke="midnightblue" points="378.794,-136.122 386.197,-128.543 375.683,-129.852 378.794,-136.122"/>
</g>
<!-- Node7&#45;&gt;Node8 -->
<g id="edge17" class="edge"><title>Node7&#45;&gt;Node8</title>
<path fill="none" stroke="midnightblue" d="M181.609,-275.45C198.736,-266.695 229.323,-252.606 252.898,-242.535"/>
<polygon fill="midnightblue" stroke="midnightblue" points="254.329,-245.73 262.189,-238.625 251.615,-239.277 254.329,-245.73"/>
</g>
<!-- Node8&#45;&gt;Node2 -->
<g id="edge18" class="edge"><title>Node8&#45;&gt;Node2</title>
<path fill="none" stroke="midnightblue" d="M281.37,-220.227C271.366,-197.276 242.831,-130.751 223,-74 217.715,-58.8766 212.559,-41.4224 208.955,-28.6451"/>
<polygon fill="midnightblue" stroke="midnightblue" points="212.269,-27.4971 206.223,-18.7967 205.524,-29.3684 212.269,-27.4971"/>
</g>
<!-- Node8&#45;&gt;Node4 -->
<g id="edge19" class="edge"><title>Node8&#45;&gt;Node4</title>
<path fill="none" stroke="midnightblue" d="M284.032,-220.193C281.097,-195.013 272.25,-119.114 268.14,-83.8621"/>
<polygon fill="midnightblue" stroke="midnightblue" points="271.578,-83.1246 266.944,-73.5971 264.625,-83.9351 271.578,-83.1246"/>
</g>
<!-- Node8&#45;&gt;Node5 -->
<g id="edge20" class="edge"><title>Node8&#45;&gt;Node5</title>
<path fill="none" stroke="midnightblue" d="M292.746,-238.712C304.569,-256.154 324.798,-297.231 333.663,-320.887"/>
<polygon fill="midnightblue" stroke="midnightblue" points="330.353,-322.025 336.865,-330.382 336.986,-319.788 330.353,-322.025"/>
</g>
<!-- Node8&#45;&gt;Node6 -->
<g id="edge21" class="edge"><title>Node8&#45;&gt;Node6</title>
<path fill="none" stroke="midnightblue" d="M293.869,-220.382C313.516,-202.4 360.969,-158.969 386.342,-135.747"/>
<polygon fill="midnightblue" stroke="midnightblue" points="389.014,-138.045 394.028,-128.712 384.288,-132.882 389.014,-138.045"/>
</g>
<!-- Node8&#45;&gt;Node7 -->
<g id="edge27" class="edge"><title>Node8&#45;&gt;Node7</title>
<path fill="none" stroke="midnightblue" d="M272.243,-238.625C255.038,-247.411 224.433,-261.505 200.899,-271.552"/>
<polygon fill="midnightblue" stroke="midnightblue" points="199.489,-268.348 191.627,-275.45 202.202,-274.801 199.489,-268.348"/>
</g>
<!-- Node8&#45;&gt;Node9 -->
<g id="edge22" class="edge"><title>Node8&#45;&gt;Node9</title>
<path fill="none" stroke="midnightblue" d="M318.261,-220.45C356.399,-211.221 419.03,-196.063 460.882,-185.935"/>
<polygon fill="midnightblue" stroke="midnightblue" points="461.889,-189.292 470.785,-183.538 460.242,-182.489 461.889,-189.292"/>
</g>
<!-- Node9&#45;&gt;Node2 -->
<g id="edge23" class="edge"><title>Node9&#45;&gt;Node2</title>
<path fill="none" stroke="midnightblue" d="M502.339,-165.344C499.227,-152.033 491.307,-125.564 475,-110 406.877,-44.9826 292.769,-21.8054 236.874,-14.0748"/>
<polygon fill="midnightblue" stroke="midnightblue" points="237.189,-10.5863 226.82,-12.7656 236.285,-17.5277 237.189,-10.5863"/>
</g>
<!-- Node9&#45;&gt;Node4 -->
<g id="edge24" class="edge"><title>Node9&#45;&gt;Node4</title>
<path fill="none" stroke="midnightblue" d="M499.374,-165.462C491.097,-151.832 472.407,-124.28 449,-110 406.338,-83.9741 349.386,-73.1629 310.415,-68.6759"/>
<polygon fill="midnightblue" stroke="midnightblue" points="310.734,-65.1902 300.421,-67.6182 309.997,-72.1513 310.734,-65.1902"/>
</g>
<!-- Node9&#45;&gt;Node5 -->
<g id="edge26" class="edge"><title>Node9&#45;&gt;Node5</title>
<path fill="none" stroke="midnightblue" d="M500.442,-183.744C491.06,-204.654 463.754,-260.474 426,-294 409.87,-308.324 388.299,-319.262 370.434,-326.709"/>
<polygon fill="midnightblue" stroke="midnightblue" points="368.943,-323.535 360.948,-330.487 371.533,-330.039 368.943,-323.535"/>
</g>
<!-- Node9&#45;&gt;Node6 -->
<g id="edge25" class="edge"><title>Node9&#45;&gt;Node6</title>
<path fill="none" stroke="midnightblue" d="M488.66,-165.45C472.421,-156.929 446.55,-143.353 427.485,-133.349"/>
<polygon fill="midnightblue" stroke="midnightblue" points="428.965,-130.173 418.484,-128.625 425.713,-136.371 428.965,-130.173"/>
</g>
</g>
</svg>
