<?xml version="1.0" encoding="UTF-8" standalone="no"?>
<!DOCTYPE svg PUBLIC "-//W3C//DTD SVG 1.1//EN"
 "http://www.w3.org/Graphics/SVG/1.1/DTD/svg11.dtd">
<!-- Generated by graphviz version 2.38.0 (20140413.2041)
 -->
<!-- Title: serverConnControlThread Pages: 1 -->
<svg width="1141pt" height="213pt"
 viewBox="0.00 0.00 1140.81 213.00" xmlns="http://www.w3.org/2000/svg" xmlns:xlink="http://www.w3.org/1999/xlink">
<g id="graph0" class="graph" transform="scale(1 1) rotate(0) translate(4 209)">
<title>serverConnControlThread</title>
<polygon fill="white" stroke="none" points="-4,4 -4,-209 1136.81,-209 1136.81,4 -4,4"/>
<!-- Node1 -->
<g id="node1" class="node"><title>Node1</title>
<polygon fill="#bfbfbf" stroke="black" points="0,-129.5 0,-147.5 131.61,-147.5 131.61,-129.5 0,-129.5"/>
<text text-anchor="middle" x="65.8052" y="-135.5" font-family="Helvetica,sans-Serif" font-size="10.00">serverConnControlThread</text>
</g>
<!-- Node2 -->
<g id="node2" class="node"><title>Node2</title>
<g id="a_node2"><a xlink:href="tcp_server_socket_comm_8c.html#a64aaa41ac5e2fbe7f8ba88c053b49ff9" target="_top" xlink:title="Initialize the connection to the server. ">
<polygon fill="white" stroke="black" points="167.61,-148.5 167.61,-166.5 302.561,-166.5 302.561,-148.5 167.61,-148.5"/>
<text text-anchor="middle" x="235.085" y="-154.5" font-family="Helvetica,sans-Serif" font-size="10.00">SSC_initServerConnection</text>
</a>
</g>
</g>
<!-- Node1&#45;&gt;Node2 -->
<g id="edge1" class="edge"><title>Node1&#45;&gt;Node2</title>
<path fill="none" stroke="midnightblue" d="M131.959,-145.9C140.333,-146.851 148.967,-147.832 157.503,-148.802"/>
<polygon fill="midnightblue" stroke="midnightblue" points="157.124,-152.281 167.456,-149.932 157.914,-145.326 157.124,-152.281"/>
</g>
<!-- Node16 -->
<g id="node16" class="node"><title>Node16</title>
<g id="a_node16"><a xlink:href="tcp_server_socket_comm_8c.html#a764e95eb0d9780103d96fe17901cafae" target="_top" xlink:title="Shutdown the connection to the server. ">
<polygon fill="white" stroke="black" points="177.894,-111.5 177.894,-129.5 292.277,-129.5 292.277,-111.5 177.894,-111.5"/>
<text text-anchor="middle" x="235.085" y="-117.5" font-family="Helvetica,sans-Serif" font-size="10.00">SSC_stopServerConn</text>
</a>
</g>
</g>
<!-- Node1&#45;&gt;Node16 -->
<g id="edge16" class="edge"><title>Node1&#45;&gt;Node16</title>
<path fill="none" stroke="midnightblue" d="M131.959,-131.489C143.666,-130.229 155.882,-128.915 167.626,-127.651"/>
<polygon fill="midnightblue" stroke="midnightblue" points="168.232,-131.106 177.8,-126.557 167.483,-124.147 168.232,-131.106"/>
</g>
<!-- Node3 -->
<g id="node3" class="node"><title>Node3</title>
<g id="a_node3"><a xlink:href="tcp_server_socket_comm_8c.html#ae12d709dd8d0c5c39e8949dfa433dff4" target="_top" xlink:title="Initialize the buffers involved in the server communication. ">
<polygon fill="white" stroke="black" points="367.831,-186.5 367.831,-204.5 454.241,-204.5 454.241,-186.5 367.831,-186.5"/>
<text text-anchor="middle" x="411.036" y="-192.5" font-family="Helvetica,sans-Serif" font-size="10.00">SSC_initBuffers</text>
</a>
</g>
</g>
<!-- Node2&#45;&gt;Node3 -->
<g id="edge2" class="edge"><title>Node2&#45;&gt;Node3</title>
<path fill="none" stroke="midnightblue" d="M277.309,-166.505C301.7,-171.834 332.802,-178.628 358.766,-184.3"/>
<polygon fill="midnightblue" stroke="midnightblue" points="358.29,-187.778 368.807,-186.493 359.784,-180.94 358.29,-187.778"/>
</g>
<!-- Node5 -->
<g id="node5" class="node"><title>Node5</title>
<g id="a_node5"><a xlink:href="tcp_server_socket_comm_8c.html#a71368ed7199c8c4f010605207359f972" target="_top" xlink:title="Create the connection to the server. ">
<polygon fill="white" stroke="black" points="706.018,-148.5 706.018,-166.5 852.638,-166.5 852.638,-148.5 706.018,-148.5"/>
<text text-anchor="middle" x="779.328" y="-154.5" font-family="Helvetica,sans-Serif" font-size="10.00">SSC_makeServerConnection</text>
</a>
</g>
</g>
<!-- Node2&#45;&gt;Node5 -->
<g id="edge4" class="edge"><title>Node2&#45;&gt;Node5</title>
<path fill="none" stroke="midnightblue" d="M302.575,-157.5C401.613,-157.5 587.746,-157.5 695.496,-157.5"/>
<polygon fill="midnightblue" stroke="midnightblue" points="695.673,-161 705.673,-157.5 695.673,-154 695.673,-161"/>
</g>
<!-- Node6 -->
<g id="node6" class="node"><title>Node6</title>
<g id="a_node6"><a xlink:href="tcp_server_socket_comm_8c.html#aefcfff31ea3a9b0d92a83ab83c9874f9" target="_top" xlink:title="Start the threads for listening and sending messages to the server. ">
<polygon fill="white" stroke="black" points="338.561,-110.5 338.561,-128.5 483.511,-128.5 483.511,-110.5 338.561,-110.5"/>
<text text-anchor="middle" x="411.036" y="-116.5" font-family="Helvetica,sans-Serif" font-size="10.00">SSC_initServerConnThreads</text>
</a>
</g>
</g>
<!-- Node2&#45;&gt;Node6 -->
<g id="edge5" class="edge"><title>Node2&#45;&gt;Node6</title>
<path fill="none" stroke="midnightblue" d="M277.309,-148.495C301.7,-143.166 332.802,-136.372 358.766,-130.7"/>
<polygon fill="midnightblue" stroke="midnightblue" points="359.784,-134.06 368.807,-128.507 358.29,-127.222 359.784,-134.06"/>
</g>
<!-- Node4 -->
<g id="node4" class="node"><title>Node4</title>
<g id="a_node4"><a xlink:href="msg_buffers_8c.html#a15ca8d0fea842defceb1611616a64560" target="_top" xlink:title="Create a new buffer or mailbox and initialize it for n values. ">
<polygon fill="white" stroke="black" points="556.84,-186.5 556.84,-204.5 632.688,-204.5 632.688,-186.5 556.84,-186.5"/>
<text text-anchor="middle" x="594.764" y="-192.5" font-family="Helvetica,sans-Serif" font-size="10.00">MB_initBuffer</text>
</a>
</g>
</g>
<!-- Node3&#45;&gt;Node4 -->
<g id="edge3" class="edge"><title>Node3&#45;&gt;Node4</title>
<path fill="none" stroke="midnightblue" d="M454.643,-195.5C482.206,-195.5 518.115,-195.5 546.547,-195.5"/>
<polygon fill="midnightblue" stroke="midnightblue" points="546.654,-199 556.654,-195.5 546.654,-192 546.654,-199"/>
</g>
<!-- Node7 -->
<g id="node7" class="node"><title>Node7</title>
<g id="a_node7"><a xlink:href="tcp_server_socket_comm_8c.html#ae54218394dd621113d0f73ec6ef8f873" target="_top" xlink:title="Thread to listen to messages coming from the server. ">
<polygon fill="white" stroke="black" points="519.511,-110.5 519.511,-128.5 670.018,-128.5 670.018,-110.5 519.511,-110.5"/>
<text text-anchor="middle" x="594.764" y="-116.5" font-family="Helvetica,sans-Serif" font-size="10.00">SSC_msgListenerThreadFunc</text>
</a>
</g>
</g>
<!-- Node6&#45;&gt;Node7 -->
<g id="edge6" class="edge"><title>Node6&#45;&gt;Node7</title>
<path fill="none" stroke="midnightblue" d="M483.599,-119.5C492.023,-119.5 500.679,-119.5 509.259,-119.5"/>
<polygon fill="midnightblue" stroke="midnightblue" points="509.278,-123 519.278,-119.5 509.278,-116 509.278,-123"/>
</g>
<!-- Node12 -->
<g id="node12" class="node"><title>Node12</title>
<g id="a_node12"><a xlink:href="tcp_server_socket_comm_8c.html#ab46f3e041cae487562197067e220af3b" target="_top" xlink:title="Thread to send the messages stored in the outbox to the server. ">
<polygon fill="white" stroke="black" points="521.176,-55.5 521.176,-73.5 668.353,-73.5 668.353,-55.5 521.176,-55.5"/>
<text text-anchor="middle" x="594.764" y="-61.5" font-family="Helvetica,sans-Serif" font-size="10.00">SSC_msgSenderThreadFunc</text>
</a>
</g>
</g>
<!-- Node6&#45;&gt;Node12 -->
<g id="edge12" class="edge"><title>Node6&#45;&gt;Node12</title>
<path fill="none" stroke="midnightblue" d="M442.044,-110.418C472.65,-101.155 520.305,-86.7325 554.028,-76.526"/>
<polygon fill="midnightblue" stroke="midnightblue" points="555.455,-79.751 564.013,-73.5042 553.428,-73.0511 555.455,-79.751"/>
</g>
<!-- Node7&#45;&gt;Node5 -->
<g id="edge11" class="edge"><title>Node7&#45;&gt;Node5</title>
<path fill="none" stroke="midnightblue" d="M639.029,-128.505C664.854,-133.881 697.848,-140.748 725.242,-146.45"/>
<polygon fill="midnightblue" stroke="midnightblue" points="724.554,-149.882 735.057,-148.493 725.98,-143.029 724.554,-149.882"/>
</g>
<!-- Node8 -->
<g id="node8" class="node"><title>Node8</title>
<g id="a_node8"><a xlink:href="tcp_server_socket_comm_8c.html#abe2574d5f7dd2457b0d09df7f29643a9" target="_top" xlink:title="Listen to the messages coming to the server. ">
<polygon fill="white" stroke="black" points="717.141,-111.5 717.141,-129.5 841.515,-129.5 841.515,-111.5 717.141,-111.5"/>
<text text-anchor="middle" x="779.328" y="-117.5" font-family="Helvetica,sans-Serif" font-size="10.00">SSC_listenToServerMsg</text>
</a>
</g>
</g>
<!-- Node7&#45;&gt;Node8 -->
<g id="edge7" class="edge"><title>Node7&#45;&gt;Node8</title>
<path fill="none" stroke="midnightblue" d="M670.02,-119.907C682.205,-119.973 694.81,-120.043 706.925,-120.109"/>
<polygon fill="midnightblue" stroke="midnightblue" points="706.946,-123.609 716.965,-120.164 706.985,-116.609 706.946,-123.609"/>
</g>
<!-- Node9 -->
<g id="node9" class="node"><title>Node9</title>
<g id="a_node9"><a xlink:href="message_parser_8c.html#a1e095af9fe3f1bd7c5a708d797e52bb9" target="_top" xlink:title="Message decoupler and receiver function. ">
<polygon fill="white" stroke="black" points="888.638,-130.5 888.638,-148.5 1005.23,-148.5 1005.23,-130.5 888.638,-130.5"/>
<text text-anchor="middle" x="946.936" y="-136.5" font-family="Helvetica,sans-Serif" font-size="10.00">MP_messageReceiver</text>
</a>
</g>
</g>
<!-- Node8&#45;&gt;Node9 -->
<g id="edge8" class="edge"><title>Node8&#45;&gt;Node9</title>
<path fill="none" stroke="midnightblue" d="M841.523,-127.521C853.545,-128.9 866.219,-130.354 878.434,-131.756"/>
<polygon fill="midnightblue" stroke="midnightblue" points="878.227,-135.255 888.561,-132.918 879.025,-128.3 878.227,-135.255"/>
</g>
<!-- Node11 -->
<g id="node11" class="node"><title>Node11</title>
<g id="a_node11"><a xlink:href="msg_buffers_8c.html#a94d8920e20c5150892cf23b81eb1dfd6" target="_top" xlink:title="Put a message into the buffer. ">
<polygon fill="white" stroke="black" points="901.416,-93.5 901.416,-111.5 992.455,-111.5 992.455,-93.5 901.416,-93.5"/>
<text text-anchor="middle" x="946.936" y="-99.5" font-family="Helvetica,sans-Serif" font-size="10.00">MB_putMessage</text>
</a>
</g>
</g>
<!-- Node8&#45;&gt;Node11 -->
<g id="edge10" class="edge"><title>Node8&#45;&gt;Node11</title>
<path fill="none" stroke="midnightblue" d="M841.523,-113.849C857.774,-112.082 875.218,-110.186 891.105,-108.46"/>
<polygon fill="midnightblue" stroke="midnightblue" points="891.729,-111.912 901.293,-107.352 890.973,-104.953 891.729,-111.912"/>
</g>
<!-- Node10 -->
<g id="node10" class="node"><title>Node10</title>
<g id="a_node10"><a xlink:href="message_parser_8c.html#a0026bd717404e4c2f9df87d137721377" target="_top" xlink:title="Message structure initializer. ">
<polygon fill="white" stroke="black" points="1041.23,-130.5 1041.23,-148.5 1132.81,-148.5 1132.81,-130.5 1041.23,-130.5"/>
<text text-anchor="middle" x="1087.02" y="-136.5" font-family="Helvetica,sans-Serif" font-size="10.00">MP_initMsgStruc</text>
</a>
</g>
</g>
<!-- Node9&#45;&gt;Node10 -->
<g id="edge9" class="edge"><title>Node9&#45;&gt;Node10</title>
<path fill="none" stroke="midnightblue" d="M1005.3,-139.5C1013.73,-139.5 1022.39,-139.5 1030.78,-139.5"/>
<polygon fill="midnightblue" stroke="midnightblue" points="1030.83,-143 1040.83,-139.5 1030.83,-136 1030.83,-143"/>
</g>
<!-- Node13 -->
<g id="node13" class="node"><title>Node13</title>
<g id="a_node13"><a xlink:href="msg_buffers_8c.html#a2bc61492dcc33dc1712d77d383b1e33d" target="_top" xlink:title="Get a message from the buffer. ">
<polygon fill="white" stroke="black" points="733.808,-74.5 733.808,-92.5 824.847,-92.5 824.847,-74.5 733.808,-74.5"/>
<text text-anchor="middle" x="779.328" y="-80.5" font-family="Helvetica,sans-Serif" font-size="10.00">MB_getMessage</text>
</a>
</g>
</g>
<!-- Node12&#45;&gt;Node13 -->
<g id="edge13" class="edge"><title>Node12&#45;&gt;Node13</title>
<path fill="none" stroke="midnightblue" d="M668.443,-72.0639C686.896,-73.9844 706.408,-76.0151 723.788,-77.8238"/>
<polygon fill="midnightblue" stroke="midnightblue" points="723.441,-81.3066 733.75,-78.8606 724.166,-74.3442 723.441,-81.3066"/>
</g>
<!-- Node14 -->
<g id="node14" class="node"><title>Node14</title>
<g id="a_node14"><a xlink:href="tcp_server_socket_comm_8c.html#a5cfbc3e4116f51d09d4416ce81a420a9" target="_top" xlink:title="Send a message to the server. ">
<polygon fill="white" stroke="black" points="707.128,-37.5 707.128,-55.5 851.527,-55.5 851.527,-37.5 707.128,-37.5"/>
<text text-anchor="middle" x="779.328" y="-43.5" font-family="Helvetica,sans-Serif" font-size="10.00">SSC_sendMessageToServer</text>
</a>
</g>
</g>
<!-- Node12&#45;&gt;Node14 -->
<g id="edge14" class="edge"><title>Node12&#45;&gt;Node14</title>
<path fill="none" stroke="midnightblue" d="M668.443,-57.3342C677.79,-56.4126 687.408,-55.4643 696.884,-54.53"/>
<polygon fill="midnightblue" stroke="midnightblue" points="697.482,-57.9881 707.09,-53.5237 696.795,-51.0219 697.482,-57.9881"/>
</g>
<!-- Node15 -->
<g id="node15" class="node"><title>Node15</title>
<g id="a_node15"><a xlink:href="message_parser_8c.html#a1e487e587ff3244c0808f4602ec6f1f7" target="_top" xlink:title="Message wiping function. ">
<polygon fill="white" stroke="black" points="730.476,-0.5 730.476,-18.5 828.18,-18.5 828.18,-0.5 730.476,-0.5"/>
<text text-anchor="middle" x="779.328" y="-6.5" font-family="Helvetica,sans-Serif" font-size="10.00">MP_wipeMessage</text>
</a>
</g>
</g>
<!-- Node12&#45;&gt;Node15 -->
<g id="edge15" class="edge"><title>Node12&#45;&gt;Node15</title>
<path fill="none" stroke="midnightblue" d="M620.982,-55.3979C643.212,-47.5277 676.557,-36.0954 706.018,-27.5 713.615,-25.2835 721.71,-23.0986 729.631,-21.0566"/>
<polygon fill="midnightblue" stroke="midnightblue" points="730.685,-24.4003 739.522,-18.5549 728.969,-17.614 730.685,-24.4003"/>
</g>
</g>
</svg>
