<?xml version="1.0" encoding="UTF-8" standalone="no"?>
<!DOCTYPE svg PUBLIC "-//W3C//DTD SVG 1.1//EN"
 "http://www.w3.org/Graphics/SVG/1.1/DTD/svg11.dtd">
<!-- Generated by graphviz version 2.38.0 (20140413.2041)
 -->
<!-- Title: MCM_initMcastServer Pages: 1 -->
<svg width="575pt" height="239pt"
 viewBox="0.00 0.00 574.57 239.00" xmlns="http://www.w3.org/2000/svg" xmlns:xlink="http://www.w3.org/1999/xlink">
<g id="graph0" class="graph" transform="scale(1 1) rotate(0) translate(4 235)">
<title>MCM_initMcastServer</title>
<polygon fill="white" stroke="none" points="-4,4 -4,-235 570.565,-235 570.565,4 -4,4"/>
<!-- Node1 -->
<g id="node1" class="node"><title>Node1</title>
<polygon fill="#bfbfbf" stroke="black" points="0,-119.5 0,-137.5 114.35,-137.5 114.35,-119.5 0,-119.5"/>
<text text-anchor="middle" x="57.1748" y="-125.5" font-family="Helvetica,sans-Serif" font-size="10.00">MCM_initMcastServer</text>
</g>
<!-- Node2 -->
<g id="node2" class="node"><title>Node2</title>
<g id="a_node2"><a xlink:href="msg_buffers_8c.html#a15ca8d0fea842defceb1611616a64560" target="_top" xlink:title="Create a new buffer or mailbox and initialize it for n values. ">
<polygon fill="white" stroke="black" points="173.223,-212.5 173.223,-230.5 249.072,-230.5 249.072,-212.5 173.223,-212.5"/>
<text text-anchor="middle" x="211.147" y="-218.5" font-family="Helvetica,sans-Serif" font-size="10.00">MB_initBuffer</text>
</a>
</g>
</g>
<!-- Node1&#45;&gt;Node2 -->
<g id="edge1" class="edge"><title>Node1&#45;&gt;Node2</title>
<path fill="none" stroke="midnightblue" d="M66.9778,-137.717C82.4366,-153.397 116.086,-185.325 150.35,-203.5 154.558,-205.732 159.083,-207.728 163.692,-209.504"/>
<polygon fill="midnightblue" stroke="midnightblue" points="162.602,-212.831 173.197,-212.843 164.923,-206.226 162.602,-212.831"/>
</g>
<!-- Node3 -->
<g id="node3" class="node"><title>Node3</title>
<g id="a_node3"><a xlink:href="mcast_messaging_8c.html#ad5775544efb4010edd675f4fabbacdfb" target="_top" xlink:title="Initialize the sockets for multicast communication. ">
<polygon fill="white" stroke="black" points="164.249,-175.5 164.249,-193.5 258.046,-193.5 258.046,-175.5 164.249,-175.5"/>
<text text-anchor="middle" x="211.147" y="-181.5" font-family="Helvetica,sans-Serif" font-size="10.00">MCM_initSockets</text>
</a>
</g>
</g>
<!-- Node1&#45;&gt;Node3 -->
<g id="edge2" class="edge"><title>Node1&#45;&gt;Node3</title>
<path fill="none" stroke="midnightblue" d="M78.4519,-137.536C96.9802,-145.631 125.235,-157.568 150.35,-166.5 156.043,-168.525 162.091,-170.521 168.071,-172.405"/>
<polygon fill="midnightblue" stroke="midnightblue" points="167.406,-175.863 177.993,-175.456 169.463,-169.172 167.406,-175.863"/>
</g>
<!-- Node4 -->
<g id="node4" class="node"><title>Node4</title>
<g id="a_node4"><a xlink:href="mcast_messaging_8c.html#ac5fae8e7dd4561321e0311a2bd76ac63" target="_top" xlink:title="Initialize the general groups. ">
<polygon fill="white" stroke="black" points="150.35,-138.5 150.35,-156.5 271.945,-156.5 271.945,-138.5 150.35,-138.5"/>
<text text-anchor="middle" x="211.147" y="-144.5" font-family="Helvetica,sans-Serif" font-size="10.00">MCM_initGeneralGroup</text>
</a>
</g>
</g>
<!-- Node1&#45;&gt;Node4 -->
<g id="edge3" class="edge"><title>Node1&#45;&gt;Node4</title>
<path fill="none" stroke="midnightblue" d="M114.764,-135.575C123.074,-136.614 131.715,-137.694 140.253,-138.762"/>
<polygon fill="midnightblue" stroke="midnightblue" points="139.846,-142.238 150.203,-140.006 140.715,-135.292 139.846,-142.238"/>
</g>
<!-- Node5 -->
<g id="node5" class="node"><title>Node5</title>
<g id="a_node5"><a xlink:href="mcast_messaging_8c.html#a672a537fdc193c0ce1d7175b9f26e3cf" target="_top" xlink:title="Sets the station group to the one that we have calculated first. ">
<polygon fill="white" stroke="black" points="152.571,-101.5 152.571,-119.5 269.724,-119.5 269.724,-101.5 152.571,-101.5"/>
<text text-anchor="middle" x="211.147" y="-107.5" font-family="Helvetica,sans-Serif" font-size="10.00">MCM_initStationGroup</text>
</a>
</g>
</g>
<!-- Node1&#45;&gt;Node5 -->
<g id="edge4" class="edge"><title>Node1&#45;&gt;Node5</title>
<path fill="none" stroke="midnightblue" d="M114.764,-121.797C123.812,-120.726 133.254,-119.607 142.527,-118.509"/>
<polygon fill="midnightblue" stroke="midnightblue" points="142.978,-121.98 152.497,-117.328 142.154,-115.029 142.978,-121.98"/>
</g>
<!-- Node7 -->
<g id="node7" class="node"><title>Node7</title>
<g id="a_node7"><a xlink:href="mcast_messaging_8c.html#ab9bc9b5c01c8c3a09c75e662eb019f04" target="_top" xlink:title="Thread for listening to messages coming from the general multicast group. ">
<polygon fill="white" stroke="black" points="156.465,-64.5 156.465,-82.5 265.83,-82.5 265.83,-64.5 156.465,-64.5"/>
<text text-anchor="middle" x="211.147" y="-70.5" font-family="Helvetica,sans-Serif" font-size="10.00">MCM_listenerThread</text>
</a>
</g>
</g>
<!-- Node1&#45;&gt;Node7 -->
<g id="edge6" class="edge"><title>Node1&#45;&gt;Node7</title>
<path fill="none" stroke="midnightblue" d="M80.3744,-119.364C98.9511,-111.831 126.217,-101.036 150.35,-92.5 156.835,-90.2058 163.761,-87.8871 170.513,-85.6958"/>
<polygon fill="midnightblue" stroke="midnightblue" points="171.754,-88.9737 180.213,-82.5939 169.622,-82.3063 171.754,-88.9737"/>
</g>
<!-- Node11 -->
<g id="node11" class="node"><title>Node11</title>
<g id="a_node11"><a xlink:href="mcast_messaging_8c.html#a82322ed09bb5d8af36d46860d2f49e2d" target="_top" xlink:title="Thread for sending the messages to the station multicast group. ">
<polygon fill="white" stroke="black" points="157.295,-18.5 157.295,-36.5 265,-36.5 265,-18.5 157.295,-18.5"/>
<text text-anchor="middle" x="211.147" y="-24.5" font-family="Helvetica,sans-Serif" font-size="10.00">MCM_senderThread</text>
</a>
</g>
</g>
<!-- Node1&#45;&gt;Node11 -->
<g id="edge10" class="edge"><title>Node1&#45;&gt;Node11</title>
<path fill="none" stroke="midnightblue" d="M67.7833,-119.404C83.8985,-104.48 117.814,-74.4604 150.35,-54.5 158.692,-49.382 168.171,-44.658 177.083,-40.64"/>
<polygon fill="midnightblue" stroke="midnightblue" points="178.673,-43.7656 186.451,-36.572 175.884,-37.3448 178.673,-43.7656"/>
</g>
<!-- Node6 -->
<g id="node6" class="node"><title>Node6</title>
<g id="a_node6"><a xlink:href="mcast_messaging_8c.html#ab72d654feaaf6ca97ec5c605445154bb" target="_top" xlink:title="Caltulate address for the multicast group. ">
<polygon fill="white" stroke="black" points="307.945,-111.5 307.945,-129.5 438.989,-129.5 438.989,-111.5 307.945,-111.5"/>
<text text-anchor="middle" x="373.467" y="-117.5" font-family="Helvetica,sans-Serif" font-size="10.00">MCM_calcStationAddress</text>
</a>
</g>
</g>
<!-- Node5&#45;&gt;Node6 -->
<g id="edge5" class="edge"><title>Node5&#45;&gt;Node6</title>
<path fill="none" stroke="midnightblue" d="M270.027,-114.11C279.05,-114.673 288.483,-115.261 297.816,-115.844"/>
<polygon fill="midnightblue" stroke="midnightblue" points="297.681,-119.342 307.88,-116.471 298.117,-112.355 297.681,-119.342"/>
</g>
<!-- Node8 -->
<g id="node8" class="node"><title>Node8</title>
<g id="a_node8"><a xlink:href="message_parser_8c.html#a1e095af9fe3f1bd7c5a708d797e52bb9" target="_top" xlink:title="Message decoupler and receiver function. ">
<polygon fill="white" stroke="black" points="315.169,-74.5 315.169,-92.5 431.765,-92.5 431.765,-74.5 315.169,-74.5"/>
<text text-anchor="middle" x="373.467" y="-80.5" font-family="Helvetica,sans-Serif" font-size="10.00">MP_messageReceiver</text>
</a>
</g>
</g>
<!-- Node7&#45;&gt;Node8 -->
<g id="edge7" class="edge"><title>Node7&#45;&gt;Node8</title>
<path fill="none" stroke="midnightblue" d="M265.978,-76.8577C278.395,-77.6322 291.761,-78.4659 304.687,-79.2722"/>
<polygon fill="midnightblue" stroke="midnightblue" points="304.734,-82.7818 314.932,-79.9112 305.17,-75.7954 304.734,-82.7818"/>
</g>
<!-- Node10 -->
<g id="node10" class="node"><title>Node10</title>
<g id="a_node10"><a xlink:href="msg_buffers_8c.html#a94d8920e20c5150892cf23b81eb1dfd6" target="_top" xlink:title="Put a message into the buffer. ">
<polygon fill="white" stroke="black" points="327.948,-37.5 327.948,-55.5 418.987,-55.5 418.987,-37.5 327.948,-37.5"/>
<text text-anchor="middle" x="373.467" y="-43.5" font-family="Helvetica,sans-Serif" font-size="10.00">MB_putMessage</text>
</a>
</g>
</g>
<!-- Node7&#45;&gt;Node10 -->
<g id="edge9" class="edge"><title>Node7&#45;&gt;Node10</title>
<path fill="none" stroke="midnightblue" d="M265.978,-64.4343C282.626,-61.6305 300.979,-58.5397 317.69,-55.7252"/>
<polygon fill="midnightblue" stroke="midnightblue" points="318.574,-59.1258 327.853,-54.0136 317.411,-52.223 318.574,-59.1258"/>
</g>
<!-- Node9 -->
<g id="node9" class="node"><title>Node9</title>
<g id="a_node9"><a xlink:href="message_parser_8c.html#a0026bd717404e4c2f9df87d137721377" target="_top" xlink:title="Message structure initializer. ">
<polygon fill="white" stroke="black" points="474.989,-74.5 474.989,-92.5 566.565,-92.5 566.565,-74.5 474.989,-74.5"/>
<text text-anchor="middle" x="520.777" y="-80.5" font-family="Helvetica,sans-Serif" font-size="10.00">MP_initMsgStruc</text>
</a>
</g>
</g>
<!-- Node8&#45;&gt;Node9 -->
<g id="edge8" class="edge"><title>Node8&#45;&gt;Node9</title>
<path fill="none" stroke="midnightblue" d="M431.898,-83.5C442.719,-83.5 454.011,-83.5 464.757,-83.5"/>
<polygon fill="midnightblue" stroke="midnightblue" points="464.858,-87.0001 474.857,-83.5 464.857,-80.0001 464.858,-87.0001"/>
</g>
<!-- Node12 -->
<g id="node12" class="node"><title>Node12</title>
<g id="a_node12"><a xlink:href="msg_buffers_8c.html#a2bc61492dcc33dc1712d77d383b1e33d" target="_top" xlink:title="Get a message from the buffer. ">
<polygon fill="white" stroke="black" points="327.948,-0.5 327.948,-18.5 418.987,-18.5 418.987,-0.5 327.948,-0.5"/>
<text text-anchor="middle" x="373.467" y="-6.5" font-family="Helvetica,sans-Serif" font-size="10.00">MB_getMessage</text>
</a>
</g>
</g>
<!-- Node11&#45;&gt;Node12 -->
<g id="edge11" class="edge"><title>Node11&#45;&gt;Node12</title>
<path fill="none" stroke="midnightblue" d="M265.086,-21.5562C281.93,-19.6652 300.592,-17.5698 317.571,-15.6635"/>
<polygon fill="midnightblue" stroke="midnightblue" points="318.346,-19.0985 327.893,-14.5046 317.565,-12.1423 318.346,-19.0985"/>
</g>
</g>
</svg>
