<?xml version="1.0" encoding="UTF-8" standalone="no"?>
<!DOCTYPE svg PUBLIC "-//W3C//DTD SVG 1.1//EN"
 "http://www.w3.org/Graphics/SVG/1.1/DTD/svg11.dtd">
<!-- Generated by graphviz version 2.38.0 (20140413.2041)
 -->
<!-- Title: MCM_calcStationAddress Pages: 1 -->
<svg width="683pt" height="27pt"
 viewBox="0.00 0.00 682.72 27.00" xmlns="http://www.w3.org/2000/svg" xmlns:xlink="http://www.w3.org/1999/xlink">
<g id="graph0" class="graph" transform="scale(1 1) rotate(0) translate(4 23)">
<title>MCM_calcStationAddress</title>
<polygon fill="white" stroke="none" points="-4,4 -4,-23 678.718,-23 678.718,4 -4,4"/>
<!-- Node1 -->
<g id="node1" class="node"><title>Node1</title>
<polygon fill="#bfbfbf" stroke="black" points="0,-0.5 0,-18.5 131.044,-18.5 131.044,-0.5 0,-0.5"/>
<text text-anchor="middle" x="65.522" y="-6.5" font-family="Helvetica,sans-Serif" font-size="10.00">MCM_calcStationAddress</text>
</g>
<!-- Node2 -->
<g id="node2" class="node"><title>Node2</title>
<g id="a_node2"><a xlink:href="mcast_messaging_8h.html#a672a537fdc193c0ce1d7175b9f26e3cf" target="_top" xlink:title="Sets the station group to the one that we have calculated first. ">
<polygon fill="white" stroke="black" points="167.044,-0.5 167.044,-18.5 284.196,-18.5 284.196,-0.5 167.044,-0.5"/>
<text text-anchor="middle" x="225.62" y="-6.5" font-family="Helvetica,sans-Serif" font-size="10.00">MCM_initStationGroup</text>
</a>
</g>
</g>
<!-- Node1&#45;&gt;Node2 -->
<g id="edge1" class="edge"><title>Node1&#45;&gt;Node2</title>
<path fill="none" stroke="midnightblue" d="M141.291,-9.5C149.864,-9.5 158.505,-9.5 166.807,-9.5"/>
<polygon fill="midnightblue" stroke="midnightblue" points="141.283,-6.0001 131.283,-9.5 141.283,-13.0001 141.283,-6.0001"/>
</g>
<!-- Node3 -->
<g id="node3" class="node"><title>Node3</title>
<g id="a_node3"><a xlink:href="mcast_messaging_8h.html#a4fd8b31a6cdd8fa515f1b3680a754def" target="_top" xlink:title="Intialize the multicast UDP listener and sender. ">
<polygon fill="white" stroke="black" points="320.196,-0.5 320.196,-18.5 434.546,-18.5 434.546,-0.5 320.196,-0.5"/>
<text text-anchor="middle" x="377.371" y="-6.5" font-family="Helvetica,sans-Serif" font-size="10.00">MCM_initMcastServer</text>
</a>
</g>
</g>
<!-- Node2&#45;&gt;Node3 -->
<g id="edge2" class="edge"><title>Node2&#45;&gt;Node3</title>
<path fill="none" stroke="midnightblue" d="M294.769,-9.5C303.245,-9.5 311.837,-9.5 320.105,-9.5"/>
<polygon fill="midnightblue" stroke="midnightblue" points="294.518,-6.0001 284.518,-9.5 294.518,-13.0001 294.518,-6.0001"/>
</g>
<!-- Node4 -->
<g id="node4" class="node"><title>Node4</title>
<g id="a_node4"><a xlink:href="main_8c.html#a82a03c8bafdc8925bacf4693a1c5e794" target="_top" xlink:title="Thread for controlling the multicast server initialization and shutdown. ">
<polygon fill="white" stroke="black" points="470.546,-0.5 470.546,-18.5 601.043,-18.5 601.043,-0.5 470.546,-0.5"/>
<text text-anchor="middle" x="535.794" y="-6.5" font-family="Helvetica,sans-Serif" font-size="10.00">mcastConnControlThread</text>
</a>
</g>
</g>
<!-- Node3&#45;&gt;Node4 -->
<g id="edge3" class="edge"><title>Node3&#45;&gt;Node4</title>
<path fill="none" stroke="midnightblue" d="M445.006,-9.5C453.434,-9.5 462.046,-9.5 470.437,-9.5"/>
<polygon fill="midnightblue" stroke="midnightblue" points="444.844,-6.0001 434.844,-9.5 444.843,-13.0001 444.844,-6.0001"/>
</g>
<!-- Node5 -->
<g id="node5" class="node"><title>Node5</title>
<g id="a_node5"><a xlink:href="main_8c.html#ac0f2228420376f4db7e1274f2b41667c" target="_top" xlink:title="main">
<polygon fill="white" stroke="black" points="637.043,-0.5 637.043,-18.5 674.718,-18.5 674.718,-0.5 637.043,-0.5"/>
<text text-anchor="middle" x="655.88" y="-6.5" font-family="Helvetica,sans-Serif" font-size="10.00">main</text>
</a>
</g>
</g>
<!-- Node4&#45;&gt;Node5 -->
<g id="edge4" class="edge"><title>Node4&#45;&gt;Node5</title>
<path fill="none" stroke="midnightblue" d="M611.408,-9.5C620.888,-9.5 629.792,-9.5 637.042,-9.5"/>
<polygon fill="midnightblue" stroke="midnightblue" points="611.366,-6.0001 601.365,-9.5 611.365,-13.0001 611.366,-6.0001"/>
</g>
</g>
</svg>
