<?xml version="1.0" encoding="UTF-8" standalone="no"?>
<!DOCTYPE svg PUBLIC "-//W3C//DTD SVG 1.1//EN"
 "http://www.w3.org/Graphics/SVG/1.1/DTD/svg11.dtd">
<!-- Generated by graphviz version 2.38.0 (20140413.2041)
 -->
<!-- Title: MCM_initMcastServer Pages: 1 -->
<svg width="363pt" height="27pt"
 viewBox="0.00 0.00 362.52 27.00" xmlns="http://www.w3.org/2000/svg" xmlns:xlink="http://www.w3.org/1999/xlink">
<g id="graph0" class="graph" transform="scale(1 1) rotate(0) translate(4 23)">
<title>MCM_initMcastServer</title>
<polygon fill="white" stroke="none" points="-4,4 -4,-23 358.521,-23 358.521,4 -4,4"/>
<!-- Node1 -->
<g id="node1" class="node"><title>Node1</title>
<polygon fill="#bfbfbf" stroke="black" points="0,-0.5 0,-18.5 114.35,-18.5 114.35,-0.5 0,-0.5"/>
<text text-anchor="middle" x="57.1748" y="-6.5" font-family="Helvetica,sans-Serif" font-size="10.00">MCM_initMcastServer</text>
</g>
<!-- Node2 -->
<g id="node2" class="node"><title>Node2</title>
<g id="a_node2"><a xlink:href="main_8c.html#a82a03c8bafdc8925bacf4693a1c5e794" target="_top" xlink:title="Thread for controlling the multicast server initialization and shutdown. ">
<polygon fill="white" stroke="black" points="150.35,-0.5 150.35,-18.5 280.847,-18.5 280.847,-0.5 150.35,-0.5"/>
<text text-anchor="middle" x="215.598" y="-6.5" font-family="Helvetica,sans-Serif" font-size="10.00">mcastConnControlThread</text>
</a>
</g>
</g>
<!-- Node1&#45;&gt;Node2 -->
<g id="edge1" class="edge"><title>Node1&#45;&gt;Node2</title>
<path fill="none" stroke="midnightblue" d="M124.81,-9.5C133.238,-9.5 141.849,-9.5 150.241,-9.5"/>
<polygon fill="midnightblue" stroke="midnightblue" points="124.647,-6.0001 114.647,-9.5 124.647,-13.0001 124.647,-6.0001"/>
</g>
<!-- Node3 -->
<g id="node3" class="node"><title>Node3</title>
<g id="a_node3"><a xlink:href="main_8c.html#ac0f2228420376f4db7e1274f2b41667c" target="_top" xlink:title="main">
<polygon fill="white" stroke="black" points="316.847,-0.5 316.847,-18.5 354.521,-18.5 354.521,-0.5 316.847,-0.5"/>
<text text-anchor="middle" x="335.684" y="-6.5" font-family="Helvetica,sans-Serif" font-size="10.00">main</text>
</a>
</g>
</g>
<!-- Node2&#45;&gt;Node3 -->
<g id="edge2" class="edge"><title>Node2&#45;&gt;Node3</title>
<path fill="none" stroke="midnightblue" d="M291.212,-9.5C300.692,-9.5 309.595,-9.5 316.846,-9.5"/>
<polygon fill="midnightblue" stroke="midnightblue" points="291.169,-6.0001 281.169,-9.5 291.169,-13.0001 291.169,-6.0001"/>
</g>
</g>
</svg>
