<?xml version="1.0" encoding="UTF-8" standalone="no"?>
<!DOCTYPE svg PUBLIC "-//W3C//DTD SVG 1.1//EN"
 "http://www.w3.org/Graphics/SVG/1.1/DTD/svg11.dtd">
<!-- Generated by graphviz version 2.38.0 (20140413.2041)
 -->
<!-- Title: rasPi&#45;EmergencyStation/mcastMessaging.h Pages: 1 -->
<svg width="941pt" height="367pt"
 viewBox="0.00 0.00 940.96 367.00" xmlns="http://www.w3.org/2000/svg" xmlns:xlink="http://www.w3.org/1999/xlink">
<g id="graph0" class="graph" transform="scale(1 1) rotate(0) translate(4 363)">
<title>rasPi&#45;EmergencyStation/mcastMessaging.h</title>
<polygon fill="white" stroke="none" points="-4,4 -4,-363 936.963,-363 936.963,4 -4,4"/>
<!-- Node1 -->
<g id="node1" class="node"><title>Node1</title>
<polygon fill="#bfbfbf" stroke="black" points="308.924,-330.5 308.924,-358.5 432.746,-358.5 432.746,-330.5 308.924,-330.5"/>
<text text-anchor="start" x="316.924" y="-346.5" font-family="Helvetica,sans-Serif" font-size="10.00">rasPi&#45;EmergencyStation</text>
<text text-anchor="middle" x="370.835" y="-336.5" font-family="Helvetica,sans-Serif" font-size="10.00">/mcastMessaging.h</text>
</g>
<!-- Node2 -->
<g id="node2" class="node"><title>Node2</title>
<polygon fill="white" stroke="#bfbfbf" points="261.103,-0.5 261.103,-18.5 306.566,-18.5 306.566,-0.5 261.103,-0.5"/>
<text text-anchor="middle" x="283.835" y="-6.5" font-family="Helvetica,sans-Serif" font-size="10.00">stdio.h</text>
</g>
<!-- Node1&#45;&gt;Node2 -->
<g id="edge1" class="edge"><title>Node1&#45;&gt;Node2</title>
<path fill="none" stroke="midnightblue" d="M308.613,-342.582C219.607,-339.991 62.0097,-330.257 19.8347,-294 -2.50397,-274.796 0.834655,-259.958 0.834655,-230.5 0.834655,-230.5 0.834655,-230.5 0.834655,-118.5 0.834655,-65.6202 175.486,-29.1721 250.382,-15.9731"/>
<polygon fill="midnightblue" stroke="midnightblue" points="251.417,-19.3462 260.676,-14.1952 250.226,-12.4483 251.417,-19.3462"/>
</g>
<!-- Node3 -->
<g id="node3" class="node"><title>Node3</title>
<polygon fill="white" stroke="#bfbfbf" points="28.8249,-275.5 28.8249,-293.5 94.8444,-293.5 94.8444,-275.5 28.8249,-275.5"/>
<text text-anchor="middle" x="61.8347" y="-281.5" font-family="Helvetica,sans-Serif" font-size="10.00">sys/types.h</text>
</g>
<!-- Node1&#45;&gt;Node3 -->
<g id="edge2" class="edge"><title>Node1&#45;&gt;Node3</title>
<path fill="none" stroke="midnightblue" d="M308.676,-331.833C248.204,-320.482 157.923,-303.536 104.946,-293.592"/>
<polygon fill="midnightblue" stroke="midnightblue" points="105.342,-290.105 94.8676,-291.7 104.05,-296.985 105.342,-290.105"/>
</g>
<!-- Node4 -->
<g id="node4" class="node"><title>Node4</title>
<polygon fill="white" stroke="#bfbfbf" points="203.325,-55.5 203.325,-73.5 274.344,-73.5 274.344,-55.5 203.325,-55.5"/>
<text text-anchor="middle" x="238.835" y="-61.5" font-family="Helvetica,sans-Serif" font-size="10.00">sys/socket.h</text>
</g>
<!-- Node1&#45;&gt;Node4 -->
<g id="edge3" class="edge"><title>Node1&#45;&gt;Node4</title>
<path fill="none" stroke="midnightblue" d="M308.718,-332.251C254.973,-318.516 185.835,-289.4 185.835,-230.5 185.835,-230.5 185.835,-230.5 185.835,-173.5 185.835,-137.658 209.65,-101.339 225.352,-81.2876"/>
<polygon fill="midnightblue" stroke="midnightblue" points="228.086,-83.4732 231.687,-73.5089 222.658,-79.053 228.086,-83.4732"/>
</g>
<!-- Node5 -->
<g id="node5" class="node"><title>Node5</title>
<polygon fill="white" stroke="#bfbfbf" points="597.372,-0.5 597.372,-18.5 662.298,-18.5 662.298,-0.5 597.372,-0.5"/>
<text text-anchor="middle" x="629.835" y="-6.5" font-family="Helvetica,sans-Serif" font-size="10.00">netinet/in.h</text>
</g>
<!-- Node1&#45;&gt;Node5 -->
<g id="edge4" class="edge"><title>Node1&#45;&gt;Node5</title>
<path fill="none" stroke="midnightblue" d="M432.838,-343.125C572.146,-340.609 897.835,-324.658 897.835,-230.5 897.835,-230.5 897.835,-230.5 897.835,-173.5 897.835,-69.3472 748.253,-29.8401 672.591,-16.5186"/>
<polygon fill="midnightblue" stroke="midnightblue" points="672.871,-13.0165 662.429,-14.8086 671.709,-19.9195 672.871,-13.0165"/>
</g>
<!-- Node6 -->
<g id="node6" class="node"><title>Node6</title>
<polygon fill="white" stroke="#bfbfbf" points="122.207,-55.5 122.207,-73.5 185.463,-73.5 185.463,-55.5 122.207,-55.5"/>
<text text-anchor="middle" x="153.835" y="-61.5" font-family="Helvetica,sans-Serif" font-size="10.00">arpa/inet.h</text>
</g>
<!-- Node1&#45;&gt;Node6 -->
<g id="edge5" class="edge"><title>Node1&#45;&gt;Node6</title>
<path fill="none" stroke="midnightblue" d="M308.538,-340.33C271.799,-335.253 226.947,-322.984 197.835,-294 139.878,-236.298 146.068,-126.967 151.196,-83.7439"/>
<polygon fill="midnightblue" stroke="midnightblue" points="154.694,-83.9844 152.529,-73.6131 147.754,-83.0709 154.694,-83.9844"/>
</g>
<!-- Node7 -->
<g id="node7" class="node"><title>Node7</title>
<g id="a_node7"><a xlink:href="structures_8h.html" target="_top" xlink:title="File containing all the structure definitions used in the other modules. ">
<polygon fill="white" stroke="black" points="713.714,-55.5 713.714,-73.5 781.955,-73.5 781.955,-55.5 713.714,-55.5"/>
<text text-anchor="middle" x="747.835" y="-61.5" font-family="Helvetica,sans-Serif" font-size="10.00">structures.h</text>
</a>
</g>
</g>
<!-- Node1&#45;&gt;Node7 -->
<g id="edge6" class="edge"><title>Node1&#45;&gt;Node7</title>
<path fill="none" stroke="midnightblue" d="M432.767,-342.083C564.35,-337.389 859.835,-317.197 859.835,-230.5 859.835,-230.5 859.835,-230.5 859.835,-173.5 859.835,-127.28 809.798,-94.5971 776.614,-78.004"/>
<polygon fill="midnightblue" stroke="midnightblue" points="777.874,-74.727 767.344,-73.563 774.85,-81.04 777.874,-74.727"/>
</g>
<!-- Node9 -->
<g id="node9" class="node"><title>Node9</title>
<g id="a_node9"><a xlink:href="msg_buffers_8h.html" target="_top" xlink:title="File containing the headers of all functions related to the message mailboxes. ">
<polygon fill="white" stroke="black" points="516.467,-275.5 516.467,-293.5 591.202,-293.5 591.202,-275.5 516.467,-275.5"/>
<text text-anchor="middle" x="553.835" y="-281.5" font-family="Helvetica,sans-Serif" font-size="10.00">msgBuffers.h</text>
</a>
</g>
</g>
<!-- Node1&#45;&gt;Node9 -->
<g id="edge10" class="edge"><title>Node1&#45;&gt;Node9</title>
<path fill="none" stroke="midnightblue" d="M411.903,-330.484C443.999,-320.311 488.134,-306.323 518.627,-296.659"/>
<polygon fill="midnightblue" stroke="midnightblue" points="519.933,-299.916 528.408,-293.559 517.818,-293.244 519.933,-299.916"/>
</g>
<!-- Node7&#45;&gt;Node2 -->
<g id="edge7" class="edge"><title>Node7&#45;&gt;Node2</title>
<path fill="none" stroke="midnightblue" d="M713.532,-57.1305C708.935,-56.3634 704.276,-55.63 699.835,-55 557.899,-34.8655 387.551,-19.3266 316.967,-13.265"/>
<polygon fill="midnightblue" stroke="midnightblue" points="317.164,-9.76923 306.903,-12.4071 316.57,-16.7439 317.164,-9.76923"/>
</g>
<!-- Node7&#45;&gt;Node5 -->
<g id="edge9" class="edge"><title>Node7&#45;&gt;Node5</title>
<path fill="none" stroke="midnightblue" d="M729.913,-55.4504C710.593,-46.7729 679.607,-32.8556 657.229,-22.8041"/>
<polygon fill="midnightblue" stroke="midnightblue" points="658.481,-19.5298 647.925,-18.6253 655.613,-25.9153 658.481,-19.5298"/>
</g>
<!-- Node8 -->
<g id="node8" class="node"><title>Node8</title>
<polygon fill="white" stroke="#bfbfbf" points="874.707,-0.5 874.707,-18.5 932.963,-18.5 932.963,-0.5 874.707,-0.5"/>
<text text-anchor="middle" x="903.835" y="-6.5" font-family="Helvetica,sans-Serif" font-size="10.00">pthread.h</text>
</g>
<!-- Node7&#45;&gt;Node8 -->
<g id="edge8" class="edge"><title>Node7&#45;&gt;Node8</title>
<path fill="none" stroke="midnightblue" d="M771.528,-55.4504C797.947,-46.4745 840.869,-31.8922 870.629,-21.7813"/>
<polygon fill="midnightblue" stroke="midnightblue" points="871.832,-25.0692 880.175,-18.5383 869.58,-18.4413 871.832,-25.0692"/>
</g>
<!-- Node9&#45;&gt;Node2 -->
<g id="edge11" class="edge"><title>Node9&#45;&gt;Node2</title>
<path fill="none" stroke="midnightblue" d="M516.205,-280.808C434.209,-272.887 238.333,-242.467 132.835,-129 108.89,-103.247 83.1758,-82.7026 104.835,-55 122.621,-32.2502 204.194,-19.4681 250.846,-13.9008"/>
<polygon fill="midnightblue" stroke="midnightblue" points="251.253,-17.3771 260.789,-12.7602 250.455,-10.4227 251.253,-17.3771"/>
</g>
<!-- Node9&#45;&gt;Node7 -->
<g id="edge14" class="edge"><title>Node9&#45;&gt;Node7</title>
<path fill="none" stroke="midnightblue" d="M591.303,-283.883C628.675,-282.145 685.101,-273.418 717.835,-239 758.528,-196.214 754.891,-119.215 750.655,-83.994"/>
<polygon fill="midnightblue" stroke="midnightblue" points="754.078,-83.1956 749.258,-73.7608 747.142,-84.1422 754.078,-83.1956"/>
</g>
<!-- Node9&#45;&gt;Node8 -->
<g id="edge12" class="edge"><title>Node9&#45;&gt;Node8</title>
<path fill="none" stroke="midnightblue" d="M591.39,-281.649C630.892,-278.145 693.495,-268.047 738.835,-239 822.954,-185.109 877.846,-71.8406 896.626,-28.1817"/>
<polygon fill="midnightblue" stroke="midnightblue" points="899.89,-29.4497 900.531,-18.8743 893.435,-26.7415 899.89,-29.4497"/>
</g>
<!-- Node10 -->
<g id="node10" class="node"><title>Node10</title>
<polygon fill="white" stroke="#bfbfbf" points="657.049,-220.5 657.049,-238.5 708.62,-238.5 708.62,-220.5 657.049,-220.5"/>
<text text-anchor="middle" x="682.835" y="-226.5" font-family="Helvetica,sans-Serif" font-size="10.00">assert.h</text>
</g>
<!-- Node9&#45;&gt;Node10 -->
<g id="edge13" class="edge"><title>Node9&#45;&gt;Node10</title>
<path fill="none" stroke="midnightblue" d="M573.427,-275.45C594.737,-266.695 629.031,-252.606 653.543,-242.535"/>
<polygon fill="midnightblue" stroke="midnightblue" points="655.138,-245.663 663.058,-238.625 652.478,-239.188 655.138,-245.663"/>
</g>
<!-- Node11 -->
<g id="node11" class="node"><title>Node11</title>
<g id="a_node11"><a xlink:href="message_parser_8h.html" target="_top" xlink:title="Message parser function headers. ">
<polygon fill="white" stroke="black" points="506.924,-220.5 506.924,-238.5 600.746,-238.5 600.746,-220.5 506.924,-220.5"/>
<text text-anchor="middle" x="553.835" y="-226.5" font-family="Helvetica,sans-Serif" font-size="10.00">messageParser.h</text>
</a>
</g>
</g>
<!-- Node9&#45;&gt;Node11 -->
<g id="edge15" class="edge"><title>Node9&#45;&gt;Node11</title>
<path fill="none" stroke="midnightblue" d="M548.772,-275.219C547.16,-268.099 546.703,-257.577 547.401,-248.529"/>
<polygon fill="midnightblue" stroke="midnightblue" points="550.877,-248.944 548.825,-238.55 543.947,-247.955 550.877,-248.944"/>
</g>
<!-- Node11&#45;&gt;Node2 -->
<g id="edge16" class="edge"><title>Node11&#45;&gt;Node2</title>
<path fill="none" stroke="midnightblue" d="M506.514,-226.89C450.419,-223.629 354.955,-213.772 278.835,-184 196.409,-151.762 154.705,-151.975 112.835,-74 84.2036,-20.681 193.612,-11.5812 250.921,-10.3939"/>
<polygon fill="midnightblue" stroke="midnightblue" points="251.02,-13.893 260.971,-10.2554 250.923,-6.89365 251.02,-13.893"/>
</g>
<!-- Node11&#45;&gt;Node7 -->
<g id="edge20" class="edge"><title>Node11&#45;&gt;Node7</title>
<path fill="none" stroke="midnightblue" d="M600.742,-220.491C626.643,-214.138 658.077,-203.038 680.835,-184 713.509,-156.667 733.387,-109.077 742.29,-83.3065"/>
<polygon fill="midnightblue" stroke="midnightblue" points="745.643,-84.3135 745.439,-73.7206 738.993,-82.1288 745.643,-84.3135"/>
</g>
<!-- Node11&#45;&gt;Node8 -->
<g id="edge19" class="edge"><title>Node11&#45;&gt;Node8</title>
<path fill="none" stroke="midnightblue" d="M599.092,-220.489C630.174,-213.739 671.649,-202.208 704.835,-184 784.482,-140.3 860.086,-60.2662 890.164,-26.3552"/>
<polygon fill="midnightblue" stroke="midnightblue" points="892.846,-28.6051 896.805,-18.7777 887.582,-23.9914 892.846,-28.6051"/>
</g>
<!-- Node11&#45;&gt;Node9 -->
<g id="edge21" class="edge"><title>Node11&#45;&gt;Node9</title>
<path fill="none" stroke="midnightblue" d="M558.844,-238.55C560.481,-245.595 560.964,-256.094 560.291,-265.175"/>
<polygon fill="midnightblue" stroke="midnightblue" points="556.805,-264.833 558.897,-275.219 563.738,-265.795 556.805,-264.833"/>
</g>
<!-- Node12 -->
<g id="node12" class="node"><title>Node12</title>
<polygon fill="white" stroke="#bfbfbf" points="330.438,-55.5 330.438,-73.5 379.231,-73.5 379.231,-55.5 330.438,-55.5"/>
<text text-anchor="middle" x="354.835" y="-61.5" font-family="Helvetica,sans-Serif" font-size="10.00">string.h</text>
</g>
<!-- Node11&#45;&gt;Node12 -->
<g id="edge17" class="edge"><title>Node11&#45;&gt;Node12</title>
<path fill="none" stroke="midnightblue" d="M506.732,-229.268C435.916,-227.55 303.834,-212.561 242.835,-129 219.933,-97.6276 279.729,-79.5875 320.505,-71.2352"/>
<polygon fill="midnightblue" stroke="midnightblue" points="321.248,-74.6564 330.4,-69.3182 319.917,-67.7841 321.248,-74.6564"/>
</g>
<!-- Node13 -->
<g id="node13" class="node"><title>Node13</title>
<polygon fill="white" stroke="#bfbfbf" points="540.992,-55.5 540.992,-73.5 588.677,-73.5 588.677,-55.5 540.992,-55.5"/>
<text text-anchor="middle" x="564.835" y="-61.5" font-family="Helvetica,sans-Serif" font-size="10.00">stdlib.h</text>
</g>
<!-- Node11&#45;&gt;Node13 -->
<g id="edge18" class="edge"><title>Node11&#45;&gt;Node13</title>
<path fill="none" stroke="midnightblue" d="M554.395,-220.193C556.095,-195.013 561.217,-119.114 563.595,-83.8621"/>
<polygon fill="midnightblue" stroke="midnightblue" points="567.107,-83.8101 564.288,-73.5971 560.123,-83.3387 567.107,-83.8101"/>
</g>
<!-- Node14 -->
<g id="node14" class="node"><title>Node14</title>
<g id="a_node14"><a xlink:href="tcp_vehicle_socket_comm_8h.html" target="_top" xlink:title="Vehicle connection server&#39;s headers. ">
<polygon fill="white" stroke="black" points="251.862,-110.5 251.862,-128.5 381.807,-128.5 381.807,-110.5 251.862,-110.5"/>
<text text-anchor="middle" x="316.835" y="-116.5" font-family="Helvetica,sans-Serif" font-size="10.00">tcpVehicleSocketComm.h</text>
</a>
</g>
</g>
<!-- Node11&#45;&gt;Node14 -->
<g id="edge22" class="edge"><title>Node11&#45;&gt;Node14</title>
<path fill="none" stroke="midnightblue" d="M536.021,-220.382C494.83,-201.612 392.787,-155.111 343.852,-132.812"/>
<polygon fill="midnightblue" stroke="midnightblue" points="345.083,-129.526 334.532,-128.564 342.18,-135.896 345.083,-129.526"/>
</g>
<!-- Node16 -->
<g id="node16" class="node"><title>Node16</title>
<g id="a_node16"><a xlink:href="station_actions_8h.html" target="_top" xlink:title="FIle containing all the station action headers. ">
<polygon fill="white" stroke="black" points="585.537,-165.5 585.537,-183.5 672.133,-183.5 672.133,-165.5 585.537,-165.5"/>
<text text-anchor="middle" x="628.835" y="-171.5" font-family="Helvetica,sans-Serif" font-size="10.00">stationActions.h</text>
</a>
</g>
</g>
<!-- Node11&#45;&gt;Node16 -->
<g id="edge30" class="edge"><title>Node11&#45;&gt;Node16</title>
<path fill="none" stroke="midnightblue" d="M560.216,-220.45C570.065,-212.123 588.356,-198.97 603.701,-189.039"/>
<polygon fill="midnightblue" stroke="midnightblue" points="605.708,-191.912 612.31,-183.625 601.981,-185.986 605.708,-191.912"/>
</g>
<!-- Node14&#45;&gt;Node4 -->
<g id="edge26" class="edge"><title>Node14&#45;&gt;Node4</title>
<path fill="none" stroke="midnightblue" d="M304.988,-110.45C292.847,-102.201 273.737,-89.2158 259.172,-79.3187"/>
<polygon fill="midnightblue" stroke="midnightblue" points="261.031,-76.3506 250.793,-73.6253 257.097,-82.1405 261.031,-76.3506"/>
</g>
<!-- Node14&#45;&gt;Node5 -->
<g id="edge24" class="edge"><title>Node14&#45;&gt;Node5</title>
<path fill="none" stroke="midnightblue" d="M314.597,-110.22C311.504,-96.729 307.77,-70.0085 321.835,-55 357.118,-17.3482 511.226,-11.1093 587.191,-10.3681"/>
<polygon fill="midnightblue" stroke="midnightblue" points="587.396,-13.8668 597.371,-10.2973 587.347,-6.86699 587.396,-13.8668"/>
</g>
<!-- Node14&#45;&gt;Node6 -->
<g id="edge25" class="edge"><title>Node14&#45;&gt;Node6</title>
<path fill="none" stroke="midnightblue" d="M292.078,-110.45C264.353,-101.436 219.235,-86.7653 188.125,-76.6496"/>
<polygon fill="midnightblue" stroke="midnightblue" points="189.148,-73.3021 178.556,-73.5383 186.984,-79.959 189.148,-73.3021"/>
</g>
<!-- Node14&#45;&gt;Node7 -->
<g id="edge28" class="edge"><title>Node14&#45;&gt;Node7</title>
<path fill="none" stroke="midnightblue" d="M381.826,-110.508C470.431,-99.6123 626.837,-80.3791 703.272,-70.9799"/>
<polygon fill="midnightblue" stroke="midnightblue" points="704.013,-74.4152 713.511,-69.7208 703.158,-67.4675 704.013,-74.4152"/>
</g>
<!-- Node14&#45;&gt;Node9 -->
<g id="edge29" class="edge"><title>Node14&#45;&gt;Node9</title>
<path fill="none" stroke="midnightblue" d="M328.036,-128.747C354.712,-148.322 424.231,-198.945 483.835,-239 499.761,-249.703 518.073,-261.32 531.972,-270"/>
<polygon fill="midnightblue" stroke="midnightblue" points="530.465,-273.185 540.806,-275.493 534.162,-267.24 530.465,-273.185"/>
</g>
<!-- Node14&#45;&gt;Node12 -->
<g id="edge23" class="edge"><title>Node14&#45;&gt;Node12</title>
<path fill="none" stroke="midnightblue" d="M322.772,-110.219C328.214,-102.629 336.426,-91.1753 343.177,-81.7597"/>
<polygon fill="midnightblue" stroke="midnightblue" points="346.081,-83.716 349.063,-73.5496 340.392,-79.6371 346.081,-83.716"/>
</g>
<!-- Node15 -->
<g id="node15" class="node"><title>Node15</title>
<polygon fill="white" stroke="#bfbfbf" points="397.153,-55.5 397.153,-73.5 446.517,-73.5 446.517,-55.5 397.153,-55.5"/>
<text text-anchor="middle" x="421.835" y="-61.5" font-family="Helvetica,sans-Serif" font-size="10.00">netdb.h</text>
</g>
<!-- Node14&#45;&gt;Node15 -->
<g id="edge27" class="edge"><title>Node14&#45;&gt;Node15</title>
<path fill="none" stroke="midnightblue" d="M332.782,-110.45C349.742,-101.89 376.805,-88.2291 396.651,-78.2119"/>
<polygon fill="midnightblue" stroke="midnightblue" points="398.387,-81.256 405.737,-73.6253 395.233,-75.007 398.387,-81.256"/>
</g>
<!-- Node16&#45;&gt;Node1 -->
<g id="edge50" class="edge"><title>Node16&#45;&gt;Node1</title>
<path fill="none" stroke="midnightblue" d="M660.09,-183.584C692.062,-193.503 734.817,-212.347 717.835,-239 688.109,-285.651 535.501,-317.518 442.848,-332.901"/>
<polygon fill="midnightblue" stroke="midnightblue" points="442.271,-329.449 432.967,-334.517 443.401,-336.357 442.271,-329.449"/>
</g>
<!-- Node16&#45;&gt;Node2 -->
<g id="edge31" class="edge"><title>Node16&#45;&gt;Node2</title>
<path fill="none" stroke="midnightblue" d="M636.265,-165.203C654.203,-144.167 696.29,-88.0756 666.835,-55 643.68,-28.9994 405.215,-15.8694 316.683,-11.8625"/>
<polygon fill="midnightblue" stroke="midnightblue" points="316.8,-8.36433 306.655,-11.4188 316.49,-15.3575 316.8,-8.36433"/>
</g>
<!-- Node16&#45;&gt;Node7 -->
<g id="edge35" class="edge"><title>Node16&#45;&gt;Node7</title>
<path fill="none" stroke="midnightblue" d="M639.643,-165.279C650.929,-156.574 669.019,-142.282 683.835,-129 701.4,-113.253 720.466,-94.0373 733.177,-80.8958"/>
<polygon fill="midnightblue" stroke="midnightblue" points="735.798,-83.2203 740.2,-73.5835 730.749,-78.3714 735.798,-83.2203"/>
</g>
<!-- Node16&#45;&gt;Node8 -->
<g id="edge33" class="edge"><title>Node16&#45;&gt;Node8</title>
<path fill="none" stroke="midnightblue" d="M643.472,-165.432C659.388,-156.617 685.539,-142.015 707.835,-129 771.512,-91.8279 845.776,-46.3336 881.88,-24.0759"/>
<polygon fill="midnightblue" stroke="midnightblue" points="883.939,-26.9185 890.61,-18.6882 880.262,-20.9615 883.939,-26.9185"/>
</g>
<!-- Node16&#45;&gt;Node9 -->
<g id="edge37" class="edge"><title>Node16&#45;&gt;Node9</title>
<path fill="none" stroke="midnightblue" d="M627.988,-183.582C626.326,-196.333 621.703,-221.466 609.835,-239 601.376,-251.496 588.33,-262.156 576.958,-269.907"/>
<polygon fill="midnightblue" stroke="midnightblue" points="574.824,-267.118 568.315,-275.479 578.617,-273.001 574.824,-267.118"/>
</g>
<!-- Node16&#45;&gt;Node11 -->
<g id="edge36" class="edge"><title>Node16&#45;&gt;Node11</title>
<path fill="none" stroke="midnightblue" d="M622.363,-183.625C612.464,-191.982 594.156,-205.139 578.829,-215.051"/>
<polygon fill="midnightblue" stroke="midnightblue" points="576.84,-212.167 570.235,-220.45 580.564,-218.094 576.84,-212.167"/>
</g>
<!-- Node16&#45;&gt;Node13 -->
<g id="edge32" class="edge"><title>Node16&#45;&gt;Node13</title>
<path fill="none" stroke="midnightblue" d="M624.024,-165.382C613.646,-147.869 588.964,-106.218 574.971,-82.6045"/>
<polygon fill="midnightblue" stroke="midnightblue" points="577.81,-80.5304 569.701,-73.7118 571.788,-84.099 577.81,-80.5304"/>
</g>
<!-- Node16&#45;&gt;Node14 -->
<g id="edge49" class="edge"><title>Node16&#45;&gt;Node14</title>
<path fill="none" stroke="midnightblue" d="M585.452,-166.131C530.336,-156.768 435.058,-140.583 374.042,-130.218"/>
<polygon fill="midnightblue" stroke="midnightblue" points="374.629,-126.767 364.184,-128.543 373.456,-133.669 374.629,-126.767"/>
</g>
<!-- Node17 -->
<g id="node17" class="node"><title>Node17</title>
<polygon fill="white" stroke="#bfbfbf" points="606.322,-55.5 606.322,-73.5 657.347,-73.5 657.347,-55.5 606.322,-55.5"/>
<text text-anchor="middle" x="631.835" y="-61.5" font-family="Helvetica,sans-Serif" font-size="10.00">unistd.h</text>
</g>
<!-- Node16&#45;&gt;Node17 -->
<g id="edge34" class="edge"><title>Node16&#45;&gt;Node17</title>
<path fill="none" stroke="midnightblue" d="M629.06,-165.382C629.538,-148.182 630.662,-107.698 631.324,-83.8866"/>
<polygon fill="midnightblue" stroke="midnightblue" points="634.827,-83.8051 631.607,-73.7118 627.83,-83.6107 634.827,-83.8051"/>
</g>
<!-- Node18 -->
<g id="node18" class="node"><title>Node18</title>
<g id="a_node18"><a xlink:href="tcp_server_socket_comm_8h.html" target="_top" xlink:title="Server connection related function definitions. ">
<polygon fill="white" stroke="black" points="400.261,-110.5 400.261,-128.5 527.408,-128.5 527.408,-110.5 400.261,-110.5"/>
<text text-anchor="middle" x="463.835" y="-116.5" font-family="Helvetica,sans-Serif" font-size="10.00">tcpServerSocketComm.h</text>
</a>
</g>
</g>
<!-- Node16&#45;&gt;Node18 -->
<g id="edge38" class="edge"><title>Node16&#45;&gt;Node18</title>
<path fill="none" stroke="midnightblue" d="M603.775,-165.45C575.709,-156.436 530.038,-141.765 498.546,-131.65"/>
<polygon fill="midnightblue" stroke="midnightblue" points="499.451,-128.264 488.86,-128.538 497.31,-134.929 499.451,-128.264"/>
</g>
<!-- Node18&#45;&gt;Node2 -->
<g id="edge39" class="edge"><title>Node18&#45;&gt;Node2</title>
<path fill="none" stroke="midnightblue" d="M465.429,-110.334C467.523,-97.0074 469.485,-70.5177 455.835,-55 437.681,-34.3639 361.449,-20.8938 316.797,-14.6131"/>
<polygon fill="midnightblue" stroke="midnightblue" points="317.094,-11.1213 306.713,-13.2412 316.15,-18.0574 317.094,-11.1213"/>
</g>
<!-- Node18&#45;&gt;Node4 -->
<g id="edge45" class="edge"><title>Node18&#45;&gt;Node4</title>
<path fill="none" stroke="midnightblue" d="M429.662,-110.45C390.397,-101.201 325.86,-85.9994 282.862,-75.8708"/>
<polygon fill="midnightblue" stroke="midnightblue" points="283.496,-72.4244 272.96,-73.5383 281.891,-79.238 283.496,-72.4244"/>
</g>
<!-- Node18&#45;&gt;Node5 -->
<g id="edge43" class="edge"><title>Node18&#45;&gt;Node5</title>
<path fill="none" stroke="midnightblue" d="M471.08,-110.173C482.802,-97.0876 507.117,-71.5038 531.835,-55 552.175,-41.419 577.333,-30.0929 597.067,-22.266"/>
<polygon fill="midnightblue" stroke="midnightblue" points="598.485,-25.4702 606.554,-18.6046 595.965,-18.9396 598.485,-25.4702"/>
</g>
<!-- Node18&#45;&gt;Node6 -->
<g id="edge44" class="edge"><title>Node18&#45;&gt;Node6</title>
<path fill="none" stroke="midnightblue" d="M410.683,-110.48C358.376,-102.421 275.983,-89.2832 195.94,-74.3341"/>
<polygon fill="midnightblue" stroke="midnightblue" points="196.159,-70.8141 185.685,-72.4063 194.866,-77.6936 196.159,-70.8141"/>
</g>
<!-- Node18&#45;&gt;Node7 -->
<g id="edge47" class="edge"><title>Node18&#45;&gt;Node7</title>
<path fill="none" stroke="midnightblue" d="M506.968,-110.45C560.177,-100.521 650.152,-83.7295 703.78,-73.7214"/>
<polygon fill="midnightblue" stroke="midnightblue" points="704.489,-77.1497 713.677,-71.8745 703.204,-70.2685 704.489,-77.1497"/>
</g>
<!-- Node18&#45;&gt;Node9 -->
<g id="edge48" class="edge"><title>Node18&#45;&gt;Node9</title>
<path fill="none" stroke="midnightblue" d="M464.469,-128.689C466.385,-149.006 473.566,-202.704 497.835,-239 506.113,-251.381 518.927,-261.929 530.208,-269.643"/>
<polygon fill="midnightblue" stroke="midnightblue" points="528.514,-272.715 538.812,-275.203 532.313,-266.836 528.514,-272.715"/>
</g>
<!-- Node18&#45;&gt;Node12 -->
<g id="edge42" class="edge"><title>Node18&#45;&gt;Node12</title>
<path fill="none" stroke="midnightblue" d="M447.28,-110.45C429.594,-101.851 401.324,-88.1048 380.697,-78.0755"/>
<polygon fill="midnightblue" stroke="midnightblue" points="382.069,-74.8506 371.545,-73.6253 379.008,-81.1459 382.069,-74.8506"/>
</g>
<!-- Node18&#45;&gt;Node13 -->
<g id="edge40" class="edge"><title>Node18&#45;&gt;Node13</title>
<path fill="none" stroke="midnightblue" d="M479.174,-110.45C495.414,-101.929 521.284,-88.3532 540.349,-78.3487"/>
<polygon fill="midnightblue" stroke="midnightblue" points="542.122,-81.3712 549.351,-73.6253 538.869,-75.1728 542.122,-81.3712"/>
</g>
<!-- Node18&#45;&gt;Node15 -->
<g id="edge46" class="edge"><title>Node18&#45;&gt;Node15</title>
<path fill="none" stroke="midnightblue" d="M457.272,-110.219C451.196,-102.551 441.994,-90.9387 434.489,-81.4691"/>
<polygon fill="midnightblue" stroke="midnightblue" points="437.168,-79.2132 428.214,-73.5496 431.681,-83.5608 437.168,-79.2132"/>
</g>
<!-- Node18&#45;&gt;Node17 -->
<g id="edge41" class="edge"><title>Node18&#45;&gt;Node17</title>
<path fill="none" stroke="midnightblue" d="M489.35,-110.45C517.926,-101.436 564.428,-86.7653 596.492,-76.6496"/>
<polygon fill="midnightblue" stroke="midnightblue" points="597.871,-79.8848 606.355,-73.5383 595.765,-73.2091 597.871,-79.8848"/>
</g>
</g>
</svg>
