<?xml version="1.0" encoding="UTF-8" standalone="no"?>
<!DOCTYPE svg PUBLIC "-//W3C//DTD SVG 1.1//EN"
 "http://www.w3.org/Graphics/SVG/1.1/DTD/svg11.dtd">
<!-- Generated by graphviz version 2.38.0 (20140413.2041)
 -->
<!-- Title: MCM_initSockets Pages: 1 -->
<svg width="492pt" height="27pt"
 viewBox="0.00 0.00 492.32 27.00" xmlns="http://www.w3.org/2000/svg" xmlns:xlink="http://www.w3.org/1999/xlink">
<g id="graph0" class="graph" transform="scale(1 1) rotate(0) translate(4 23)">
<title>MCM_initSockets</title>
<polygon fill="white" stroke="none" points="-4,4 -4,-23 488.319,-23 488.319,4 -4,4"/>
<!-- Node1 -->
<g id="node1" class="node"><title>Node1</title>
<polygon fill="#bfbfbf" stroke="black" points="0,-0.5 0,-18.5 93.7979,-18.5 93.7979,-0.5 0,-0.5"/>
<text text-anchor="middle" x="46.8989" y="-6.5" font-family="Helvetica,sans-Serif" font-size="10.00">MCM_initSockets</text>
</g>
<!-- Node2 -->
<g id="node2" class="node"><title>Node2</title>
<g id="a_node2"><a xlink:href="mcast_messaging_8h.html#a4fd8b31a6cdd8fa515f1b3680a754def" target="_top" xlink:title="Intialize the multicast UDP listener and sender. ">
<polygon fill="white" stroke="black" points="129.798,-0.5 129.798,-18.5 244.147,-18.5 244.147,-0.5 129.798,-0.5"/>
<text text-anchor="middle" x="186.973" y="-6.5" font-family="Helvetica,sans-Serif" font-size="10.00">MCM_initMcastServer</text>
</a>
</g>
</g>
<!-- Node1&#45;&gt;Node2 -->
<g id="edge1" class="edge"><title>Node1&#45;&gt;Node2</title>
<path fill="none" stroke="midnightblue" d="M104.012,-9.5C112.46,-9.5 121.176,-9.5 129.629,-9.5"/>
<polygon fill="midnightblue" stroke="midnightblue" points="103.876,-6.0001 93.8755,-9.5 103.875,-13.0001 103.876,-6.0001"/>
</g>
<!-- Node3 -->
<g id="node3" class="node"><title>Node3</title>
<g id="a_node3"><a xlink:href="main_8c.html#a82a03c8bafdc8925bacf4693a1c5e794" target="_top" xlink:title="Thread for controlling the multicast server initialization and shutdown. ">
<polygon fill="white" stroke="black" points="280.147,-0.5 280.147,-18.5 410.645,-18.5 410.645,-0.5 280.147,-0.5"/>
<text text-anchor="middle" x="345.396" y="-6.5" font-family="Helvetica,sans-Serif" font-size="10.00">mcastConnControlThread</text>
</a>
</g>
</g>
<!-- Node2&#45;&gt;Node3 -->
<g id="edge2" class="edge"><title>Node2&#45;&gt;Node3</title>
<path fill="none" stroke="midnightblue" d="M254.608,-9.5C263.036,-9.5 271.647,-9.5 280.039,-9.5"/>
<polygon fill="midnightblue" stroke="midnightblue" points="254.445,-6.0001 244.445,-9.5 254.445,-13.0001 254.445,-6.0001"/>
</g>
<!-- Node4 -->
<g id="node4" class="node"><title>Node4</title>
<g id="a_node4"><a xlink:href="main_8c.html#ac0f2228420376f4db7e1274f2b41667c" target="_top" xlink:title="main">
<polygon fill="white" stroke="black" points="446.645,-0.5 446.645,-18.5 484.319,-18.5 484.319,-0.5 446.645,-0.5"/>
<text text-anchor="middle" x="465.482" y="-6.5" font-family="Helvetica,sans-Serif" font-size="10.00">main</text>
</a>
</g>
</g>
<!-- Node3&#45;&gt;Node4 -->
<g id="edge3" class="edge"><title>Node3&#45;&gt;Node4</title>
<path fill="none" stroke="midnightblue" d="M421.01,-9.5C430.49,-9.5 439.393,-9.5 446.643,-9.5"/>
<polygon fill="midnightblue" stroke="midnightblue" points="420.967,-6.0001 410.967,-9.5 420.967,-13.0001 420.967,-6.0001"/>
</g>
</g>
</svg>
