<?xml version="1.0" encoding="UTF-8" standalone="no"?>
<!DOCTYPE svg PUBLIC "-//W3C//DTD SVG 1.1//EN"
 "http://www.w3.org/Graphics/SVG/1.1/DTD/svg11.dtd">
<!-- Generated by graphviz version 2.38.0 (20140413.2041)
 -->
<!-- Title: MCM_shutdownMcastServer Pages: 1 -->
<svg width="393pt" height="27pt"
 viewBox="0.00 0.00 392.55 27.00" xmlns="http://www.w3.org/2000/svg" xmlns:xlink="http://www.w3.org/1999/xlink">
<g id="graph0" class="graph" transform="scale(1 1) rotate(0) translate(4 23)">
<title>MCM_shutdownMcastServer</title>
<polygon fill="white" stroke="none" points="-4,4 -4,-23 388.546,-23 388.546,4 -4,4"/>
<!-- Node1 -->
<g id="node1" class="node"><title>Node1</title>
<polygon fill="#bfbfbf" stroke="black" points="0,-0.5 0,-18.5 144.374,-18.5 144.374,-0.5 0,-0.5"/>
<text text-anchor="middle" x="72.187" y="-6.5" font-family="Helvetica,sans-Serif" font-size="10.00">MCM_shutdownMcastServer</text>
</g>
<!-- Node2 -->
<g id="node2" class="node"><title>Node2</title>
<g id="a_node2"><a xlink:href="main_8c.html#a82a03c8bafdc8925bacf4693a1c5e794" target="_top" xlink:title="Thread for controlling the multicast server initialization and shutdown. ">
<polygon fill="white" stroke="black" points="180.374,-0.5 180.374,-18.5 310.871,-18.5 310.871,-0.5 180.374,-0.5"/>
<text text-anchor="middle" x="245.623" y="-6.5" font-family="Helvetica,sans-Serif" font-size="10.00">mcastConnControlThread</text>
</a>
</g>
</g>
<!-- Node1&#45;&gt;Node2 -->
<g id="edge1" class="edge"><title>Node1&#45;&gt;Node2</title>
<path fill="none" stroke="midnightblue" d="M154.485,-9.5C163.115,-9.5 171.805,-9.5 180.204,-9.5"/>
<polygon fill="midnightblue" stroke="midnightblue" points="154.402,-6.0001 144.402,-9.5 154.402,-13.0001 154.402,-6.0001"/>
</g>
<!-- Node3 -->
<g id="node3" class="node"><title>Node3</title>
<g id="a_node3"><a xlink:href="main_8c.html#ac0f2228420376f4db7e1274f2b41667c" target="_top" xlink:title="main">
<polygon fill="white" stroke="black" points="346.871,-0.5 346.871,-18.5 384.546,-18.5 384.546,-0.5 346.871,-0.5"/>
<text text-anchor="middle" x="365.708" y="-6.5" font-family="Helvetica,sans-Serif" font-size="10.00">main</text>
</a>
</g>
</g>
<!-- Node2&#45;&gt;Node3 -->
<g id="edge2" class="edge"><title>Node2&#45;&gt;Node3</title>
<path fill="none" stroke="midnightblue" d="M321.236,-9.5C330.717,-9.5 339.62,-9.5 346.87,-9.5"/>
<polygon fill="midnightblue" stroke="midnightblue" points="321.194,-6.0001 311.194,-9.5 321.194,-13.0001 321.194,-6.0001"/>
</g>
</g>
</svg>
