<?xml version="1.0" encoding="UTF-8" standalone="no"?>
<!DOCTYPE svg PUBLIC "-//W3C//DTD SVG 1.1//EN"
 "http://www.w3.org/Graphics/SVG/1.1/DTD/svg11.dtd">
<!-- Generated by graphviz version 2.38.0 (20140413.2041)
 -->
<!-- Title: MCM_listenerThread Pages: 1 -->
<svg width="508pt" height="27pt"
 viewBox="0.00 0.00 507.89 27.00" xmlns="http://www.w3.org/2000/svg" xmlns:xlink="http://www.w3.org/1999/xlink">
<g id="graph0" class="graph" transform="scale(1 1) rotate(0) translate(4 23)">
<title>MCM_listenerThread</title>
<polygon fill="white" stroke="none" points="-4,4 -4,-23 503.886,-23 503.886,4 -4,4"/>
<!-- Node1 -->
<g id="node1" class="node"><title>Node1</title>
<polygon fill="#bfbfbf" stroke="black" points="0,-0.5 0,-18.5 109.364,-18.5 109.364,-0.5 0,-0.5"/>
<text text-anchor="middle" x="54.6821" y="-6.5" font-family="Helvetica,sans-Serif" font-size="10.00">MCM_listenerThread</text>
</g>
<!-- Node2 -->
<g id="node2" class="node"><title>Node2</title>
<g id="a_node2"><a xlink:href="mcast_messaging_8h.html#a4fd8b31a6cdd8fa515f1b3680a754def" target="_top" xlink:title="Intialize the multicast UDP listener and sender. ">
<polygon fill="white" stroke="black" points="145.364,-0.5 145.364,-18.5 259.714,-18.5 259.714,-0.5 145.364,-0.5"/>
<text text-anchor="middle" x="202.539" y="-6.5" font-family="Helvetica,sans-Serif" font-size="10.00">MCM_initMcastServer</text>
</a>
</g>
</g>
<!-- Node1&#45;&gt;Node2 -->
<g id="edge1" class="edge"><title>Node1&#45;&gt;Node2</title>
<path fill="none" stroke="midnightblue" d="M119.713,-9.5C128.11,-9.5 136.667,-9.5 144.93,-9.5"/>
<polygon fill="midnightblue" stroke="midnightblue" points="119.579,-6.0001 109.579,-9.5 119.579,-13.0001 119.579,-6.0001"/>
</g>
<!-- Node3 -->
<g id="node3" class="node"><title>Node3</title>
<g id="a_node3"><a xlink:href="main_8c.html#a82a03c8bafdc8925bacf4693a1c5e794" target="_top" xlink:title="Thread for controlling the multicast server initialization and shutdown. ">
<polygon fill="white" stroke="black" points="295.714,-0.5 295.714,-18.5 426.211,-18.5 426.211,-0.5 295.714,-0.5"/>
<text text-anchor="middle" x="360.962" y="-6.5" font-family="Helvetica,sans-Serif" font-size="10.00">mcastConnControlThread</text>
</a>
</g>
</g>
<!-- Node2&#45;&gt;Node3 -->
<g id="edge2" class="edge"><title>Node2&#45;&gt;Node3</title>
<path fill="none" stroke="midnightblue" d="M270.174,-9.5C278.602,-9.5 287.214,-9.5 295.605,-9.5"/>
<polygon fill="midnightblue" stroke="midnightblue" points="270.012,-6.0001 260.011,-9.5 270.011,-13.0001 270.012,-6.0001"/>
</g>
<!-- Node4 -->
<g id="node4" class="node"><title>Node4</title>
<g id="a_node4"><a xlink:href="main_8c.html#ac0f2228420376f4db7e1274f2b41667c" target="_top" xlink:title="main">
<polygon fill="white" stroke="black" points="462.211,-0.5 462.211,-18.5 499.886,-18.5 499.886,-0.5 462.211,-0.5"/>
<text text-anchor="middle" x="481.048" y="-6.5" font-family="Helvetica,sans-Serif" font-size="10.00">main</text>
</a>
</g>
</g>
<!-- Node3&#45;&gt;Node4 -->
<g id="edge3" class="edge"><title>Node3&#45;&gt;Node4</title>
<path fill="none" stroke="midnightblue" d="M436.576,-9.5C446.056,-9.5 454.96,-9.5 462.21,-9.5"/>
<polygon fill="midnightblue" stroke="midnightblue" points="436.533,-6.0001 426.533,-9.5 436.533,-13.0001 436.533,-6.0001"/>
</g>
</g>
</svg>
