<?xml version="1.0" encoding="UTF-8" standalone="no"?>
<!DOCTYPE svg PUBLIC "-//W3C//DTD SVG 1.1//EN"
 "http://www.w3.org/Graphics/SVG/1.1/DTD/svg11.dtd">
<!-- Generated by graphviz version 2.38.0 (20140413.2041)
 -->
<!-- Title: rasPi&#45;EmergencyStation/mcastMessaging.c Pages: 1 -->
<svg width="941pt" height="422pt"
 viewBox="0.00 0.00 941.00 422.00" xmlns="http://www.w3.org/2000/svg" xmlns:xlink="http://www.w3.org/1999/xlink">
<g id="graph0" class="graph" transform="scale(1 1) rotate(0) translate(4 418)">
<title>rasPi&#45;EmergencyStation/mcastMessaging.c</title>
<polygon fill="white" stroke="none" points="-4,4 -4,-418 936.996,-418 936.996,4 -4,4"/>
<!-- Node1 -->
<g id="node1" class="node"><title>Node1</title>
<polygon fill="#bfbfbf" stroke="black" points="308.957,-385.5 308.957,-413.5 432.779,-413.5 432.779,-385.5 308.957,-385.5"/>
<text text-anchor="start" x="316.957" y="-401.5" font-family="Helvetica,sans-Serif" font-size="10.00">rasPi&#45;EmergencyStation</text>
<text text-anchor="middle" x="370.868" y="-391.5" font-family="Helvetica,sans-Serif" font-size="10.00">/mcastMessaging.c</text>
</g>
<!-- Node2 -->
<g id="node2" class="node"><title>Node2</title>
<g id="a_node2"><a xlink:href="mcast_messaging_8h.html" target="_top" xlink:title="FIle containing all the headers of the functions related to multicast communication. ">
<polygon fill="white" stroke="black" points="321.184,-330.5 321.184,-348.5 420.553,-348.5 420.553,-330.5 321.184,-330.5"/>
<text text-anchor="middle" x="370.868" y="-336.5" font-family="Helvetica,sans-Serif" font-size="10.00">mcastMessaging.h</text>
</a>
</g>
</g>
<!-- Node1&#45;&gt;Node2 -->
<g id="edge1" class="edge"><title>Node1&#45;&gt;Node2</title>
<path fill="none" stroke="midnightblue" d="M370.868,-385.339C370.868,-377.531 370.868,-367.512 370.868,-358.927"/>
<polygon fill="midnightblue" stroke="midnightblue" points="374.368,-358.771 370.868,-348.771 367.368,-358.772 374.368,-358.771"/>
</g>
<!-- Node3 -->
<g id="node3" class="node"><title>Node3</title>
<polygon fill="white" stroke="#bfbfbf" points="261.137,-0.5 261.137,-18.5 306.6,-18.5 306.6,-0.5 261.137,-0.5"/>
<text text-anchor="middle" x="283.868" y="-6.5" font-family="Helvetica,sans-Serif" font-size="10.00">stdio.h</text>
</g>
<!-- Node2&#45;&gt;Node3 -->
<g id="edge2" class="edge"><title>Node2&#45;&gt;Node3</title>
<path fill="none" stroke="midnightblue" d="M321.106,-338.669C235.264,-337.934 64.2664,-331.631 19.8681,-294 -2.60433,-274.953 0.86811,-259.958 0.86811,-230.5 0.86811,-230.5 0.86811,-230.5 0.86811,-118.5 0.86811,-65.6202 175.519,-29.1721 250.415,-15.9731"/>
<polygon fill="midnightblue" stroke="midnightblue" points="251.451,-19.3462 260.709,-14.1952 250.259,-12.4483 251.451,-19.3462"/>
</g>
<!-- Node4 -->
<g id="node4" class="node"><title>Node4</title>
<polygon fill="white" stroke="#bfbfbf" points="28.8583,-275.5 28.8583,-293.5 94.8779,-293.5 94.8779,-275.5 28.8583,-275.5"/>
<text text-anchor="middle" x="61.8681" y="-281.5" font-family="Helvetica,sans-Serif" font-size="10.00">sys/types.h</text>
</g>
<!-- Node2&#45;&gt;Node4 -->
<g id="edge3" class="edge"><title>Node2&#45;&gt;Node4</title>
<path fill="none" stroke="midnightblue" d="M322.553,-330.452C269.96,-321.656 183.397,-307.068 108.868,-294 107.605,-293.778 106.322,-293.553 105.028,-293.324"/>
<polygon fill="midnightblue" stroke="midnightblue" points="105.443,-289.843 94.9843,-291.535 104.215,-296.734 105.443,-289.843"/>
</g>
<!-- Node5 -->
<g id="node5" class="node"><title>Node5</title>
<polygon fill="white" stroke="#bfbfbf" points="203.358,-55.5 203.358,-73.5 274.378,-73.5 274.378,-55.5 203.358,-55.5"/>
<text text-anchor="middle" x="238.868" y="-61.5" font-family="Helvetica,sans-Serif" font-size="10.00">sys/socket.h</text>
</g>
<!-- Node2&#45;&gt;Node5 -->
<g id="edge4" class="edge"><title>Node2&#45;&gt;Node5</title>
<path fill="none" stroke="midnightblue" d="M320.804,-331.237C266.016,-320.127 185.868,-293.166 185.868,-230.5 185.868,-230.5 185.868,-230.5 185.868,-173.5 185.868,-137.658 209.684,-101.339 225.386,-81.2876"/>
<polygon fill="midnightblue" stroke="midnightblue" points="228.12,-83.4732 231.72,-73.5089 222.692,-79.053 228.12,-83.4732"/>
</g>
<!-- Node6 -->
<g id="node6" class="node"><title>Node6</title>
<polygon fill="white" stroke="#bfbfbf" points="597.405,-0.5 597.405,-18.5 662.331,-18.5 662.331,-0.5 597.405,-0.5"/>
<text text-anchor="middle" x="629.868" y="-6.5" font-family="Helvetica,sans-Serif" font-size="10.00">netinet/in.h</text>
</g>
<!-- Node2&#45;&gt;Node6 -->
<g id="edge5" class="edge"><title>Node2&#45;&gt;Node6</title>
<path fill="none" stroke="midnightblue" d="M420.922,-338.771C552.47,-338.143 897.868,-327.28 897.868,-230.5 897.868,-230.5 897.868,-230.5 897.868,-173.5 897.868,-69.3472 748.287,-29.8401 672.625,-16.5186"/>
<polygon fill="midnightblue" stroke="midnightblue" points="672.904,-13.0165 662.462,-14.8086 671.743,-19.9195 672.904,-13.0165"/>
</g>
<!-- Node7 -->
<g id="node7" class="node"><title>Node7</title>
<polygon fill="white" stroke="#bfbfbf" points="122.24,-55.5 122.24,-73.5 185.496,-73.5 185.496,-55.5 122.24,-55.5"/>
<text text-anchor="middle" x="153.868" y="-61.5" font-family="Helvetica,sans-Serif" font-size="10.00">arpa/inet.h</text>
</g>
<!-- Node2&#45;&gt;Node7 -->
<g id="edge6" class="edge"><title>Node2&#45;&gt;Node7</title>
<path fill="none" stroke="midnightblue" d="M321.046,-337.348C283.922,-333.922 234.251,-323.554 201.868,-294 141.126,-238.565 146.512,-127.492 151.364,-83.7771"/>
<polygon fill="midnightblue" stroke="midnightblue" points="154.849,-84.1134 152.604,-73.7591 147.902,-83.2533 154.849,-84.1134"/>
</g>
<!-- Node8 -->
<g id="node8" class="node"><title>Node8</title>
<g id="a_node8"><a xlink:href="structures_8h.html" target="_top" xlink:title="File containing all the structure definitions used in the other modules. ">
<polygon fill="white" stroke="black" points="713.748,-55.5 713.748,-73.5 781.989,-73.5 781.989,-55.5 713.748,-55.5"/>
<text text-anchor="middle" x="747.868" y="-61.5" font-family="Helvetica,sans-Serif" font-size="10.00">structures.h</text>
</a>
</g>
</g>
<!-- Node2&#45;&gt;Node8 -->
<g id="edge7" class="edge"><title>Node2&#45;&gt;Node8</title>
<path fill="none" stroke="midnightblue" d="M420.902,-337.969C545.531,-335.3 859.868,-319.724 859.868,-230.5 859.868,-230.5 859.868,-230.5 859.868,-173.5 859.868,-127.28 809.832,-94.5971 776.647,-78.004"/>
<polygon fill="midnightblue" stroke="midnightblue" points="777.908,-74.727 767.377,-73.563 774.883,-81.04 777.908,-74.727"/>
</g>
<!-- Node10 -->
<g id="node10" class="node"><title>Node10</title>
<g id="a_node10"><a xlink:href="msg_buffers_8h.html" target="_top" xlink:title="File containing the headers of all functions related to the message mailboxes. ">
<polygon fill="white" stroke="black" points="516.5,-275.5 516.5,-293.5 591.236,-293.5 591.236,-275.5 516.5,-275.5"/>
<text text-anchor="middle" x="553.868" y="-281.5" font-family="Helvetica,sans-Serif" font-size="10.00">msgBuffers.h</text>
</a>
</g>
</g>
<!-- Node2&#45;&gt;Node10 -->
<g id="edge11" class="edge"><title>Node2&#45;&gt;Node10</title>
<path fill="none" stroke="midnightblue" d="M398.662,-330.45C430.058,-321.357 481.321,-306.511 516.274,-296.388"/>
<polygon fill="midnightblue" stroke="midnightblue" points="517.482,-299.682 526.113,-293.538 515.534,-292.958 517.482,-299.682"/>
</g>
<!-- Node8&#45;&gt;Node3 -->
<g id="edge8" class="edge"><title>Node8&#45;&gt;Node3</title>
<path fill="none" stroke="midnightblue" d="M713.566,-57.1305C708.969,-56.3634 704.309,-55.63 699.868,-55 557.932,-34.8655 387.585,-19.3266 317.001,-13.265"/>
<polygon fill="midnightblue" stroke="midnightblue" points="317.198,-9.76923 306.937,-12.4071 316.603,-16.7439 317.198,-9.76923"/>
</g>
<!-- Node8&#45;&gt;Node6 -->
<g id="edge10" class="edge"><title>Node8&#45;&gt;Node6</title>
<path fill="none" stroke="midnightblue" d="M729.946,-55.4504C710.627,-46.7729 679.641,-32.8556 657.262,-22.8041"/>
<polygon fill="midnightblue" stroke="midnightblue" points="658.515,-19.5298 647.958,-18.6253 655.646,-25.9153 658.515,-19.5298"/>
</g>
<!-- Node9 -->
<g id="node9" class="node"><title>Node9</title>
<polygon fill="white" stroke="#bfbfbf" points="874.74,-0.5 874.74,-18.5 932.996,-18.5 932.996,-0.5 874.74,-0.5"/>
<text text-anchor="middle" x="903.868" y="-6.5" font-family="Helvetica,sans-Serif" font-size="10.00">pthread.h</text>
</g>
<!-- Node8&#45;&gt;Node9 -->
<g id="edge9" class="edge"><title>Node8&#45;&gt;Node9</title>
<path fill="none" stroke="midnightblue" d="M771.561,-55.4504C797.981,-46.4745 840.902,-31.8922 870.663,-21.7813"/>
<polygon fill="midnightblue" stroke="midnightblue" points="871.866,-25.0692 880.208,-18.5383 869.614,-18.4413 871.866,-25.0692"/>
</g>
<!-- Node10&#45;&gt;Node3 -->
<g id="edge12" class="edge"><title>Node10&#45;&gt;Node3</title>
<path fill="none" stroke="midnightblue" d="M516.239,-280.808C434.243,-272.887 238.367,-242.467 132.868,-129 108.924,-103.247 83.2092,-82.7026 104.868,-55 122.655,-32.2502 204.228,-19.4681 250.88,-13.9008"/>
<polygon fill="midnightblue" stroke="midnightblue" points="251.287,-17.3771 260.823,-12.7602 250.489,-10.4227 251.287,-17.3771"/>
</g>
<!-- Node10&#45;&gt;Node8 -->
<g id="edge15" class="edge"><title>Node10&#45;&gt;Node8</title>
<path fill="none" stroke="midnightblue" d="M591.337,-283.883C628.708,-282.145 685.135,-273.418 717.868,-239 758.561,-196.214 754.925,-119.215 750.688,-83.994"/>
<polygon fill="midnightblue" stroke="midnightblue" points="754.112,-83.1956 749.291,-73.7608 747.176,-84.1422 754.112,-83.1956"/>
</g>
<!-- Node10&#45;&gt;Node9 -->
<g id="edge13" class="edge"><title>Node10&#45;&gt;Node9</title>
<path fill="none" stroke="midnightblue" d="M591.423,-281.649C630.925,-278.145 693.529,-268.047 738.868,-239 822.988,-185.109 877.88,-71.8406 896.66,-28.1817"/>
<polygon fill="midnightblue" stroke="midnightblue" points="899.923,-29.4497 900.565,-18.8743 893.469,-26.7415 899.923,-29.4497"/>
</g>
<!-- Node11 -->
<g id="node11" class="node"><title>Node11</title>
<polygon fill="white" stroke="#bfbfbf" points="657.082,-220.5 657.082,-238.5 708.654,-238.5 708.654,-220.5 657.082,-220.5"/>
<text text-anchor="middle" x="682.868" y="-226.5" font-family="Helvetica,sans-Serif" font-size="10.00">assert.h</text>
</g>
<!-- Node10&#45;&gt;Node11 -->
<g id="edge14" class="edge"><title>Node10&#45;&gt;Node11</title>
<path fill="none" stroke="midnightblue" d="M573.46,-275.45C594.771,-266.695 629.064,-252.606 653.576,-242.535"/>
<polygon fill="midnightblue" stroke="midnightblue" points="655.172,-245.663 663.091,-238.625 652.512,-239.188 655.172,-245.663"/>
</g>
<!-- Node12 -->
<g id="node12" class="node"><title>Node12</title>
<g id="a_node12"><a xlink:href="message_parser_8h.html" target="_top" xlink:title="Message parser function headers. ">
<polygon fill="white" stroke="black" points="506.957,-220.5 506.957,-238.5 600.779,-238.5 600.779,-220.5 506.957,-220.5"/>
<text text-anchor="middle" x="553.868" y="-226.5" font-family="Helvetica,sans-Serif" font-size="10.00">messageParser.h</text>
</a>
</g>
</g>
<!-- Node10&#45;&gt;Node12 -->
<g id="edge16" class="edge"><title>Node10&#45;&gt;Node12</title>
<path fill="none" stroke="midnightblue" d="M548.806,-275.219C547.194,-268.099 546.736,-257.577 547.434,-248.529"/>
<polygon fill="midnightblue" stroke="midnightblue" points="550.911,-248.944 548.859,-238.55 543.981,-247.955 550.911,-248.944"/>
</g>
<!-- Node12&#45;&gt;Node3 -->
<g id="edge17" class="edge"><title>Node12&#45;&gt;Node3</title>
<path fill="none" stroke="midnightblue" d="M506.547,-226.89C450.453,-223.629 354.988,-213.772 278.868,-184 196.442,-151.762 154.739,-151.975 112.868,-74 84.237,-20.681 193.646,-11.5812 250.955,-10.3939"/>
<polygon fill="midnightblue" stroke="midnightblue" points="251.053,-13.893 261.004,-10.2554 250.957,-6.89365 251.053,-13.893"/>
</g>
<!-- Node12&#45;&gt;Node8 -->
<g id="edge21" class="edge"><title>Node12&#45;&gt;Node8</title>
<path fill="none" stroke="midnightblue" d="M600.776,-220.491C626.676,-214.138 658.11,-203.038 680.868,-184 713.543,-156.667 733.421,-109.077 742.324,-83.3065"/>
<polygon fill="midnightblue" stroke="midnightblue" points="745.677,-84.3135 745.472,-73.7206 739.026,-82.1288 745.677,-84.3135"/>
</g>
<!-- Node12&#45;&gt;Node9 -->
<g id="edge20" class="edge"><title>Node12&#45;&gt;Node9</title>
<path fill="none" stroke="midnightblue" d="M599.126,-220.489C630.208,-213.739 671.683,-202.208 704.868,-184 784.515,-140.3 860.119,-60.2662 890.197,-26.3552"/>
<polygon fill="midnightblue" stroke="midnightblue" points="892.879,-28.6051 896.838,-18.7777 887.615,-23.9914 892.879,-28.6051"/>
</g>
<!-- Node12&#45;&gt;Node10 -->
<g id="edge22" class="edge"><title>Node12&#45;&gt;Node10</title>
<path fill="none" stroke="midnightblue" d="M558.877,-238.55C560.515,-245.595 560.997,-256.094 560.324,-265.175"/>
<polygon fill="midnightblue" stroke="midnightblue" points="556.838,-264.833 558.931,-275.219 563.772,-265.795 556.838,-264.833"/>
</g>
<!-- Node13 -->
<g id="node13" class="node"><title>Node13</title>
<polygon fill="white" stroke="#bfbfbf" points="330.472,-55.5 330.472,-73.5 379.265,-73.5 379.265,-55.5 330.472,-55.5"/>
<text text-anchor="middle" x="354.868" y="-61.5" font-family="Helvetica,sans-Serif" font-size="10.00">string.h</text>
</g>
<!-- Node12&#45;&gt;Node13 -->
<g id="edge18" class="edge"><title>Node12&#45;&gt;Node13</title>
<path fill="none" stroke="midnightblue" d="M506.765,-229.268C435.949,-227.55 303.868,-212.561 242.868,-129 219.966,-97.6276 279.763,-79.5875 320.538,-71.2352"/>
<polygon fill="midnightblue" stroke="midnightblue" points="321.281,-74.6564 330.433,-69.3182 319.95,-67.7841 321.281,-74.6564"/>
</g>
<!-- Node14 -->
<g id="node14" class="node"><title>Node14</title>
<polygon fill="white" stroke="#bfbfbf" points="541.026,-55.5 541.026,-73.5 588.71,-73.5 588.71,-55.5 541.026,-55.5"/>
<text text-anchor="middle" x="564.868" y="-61.5" font-family="Helvetica,sans-Serif" font-size="10.00">stdlib.h</text>
</g>
<!-- Node12&#45;&gt;Node14 -->
<g id="edge19" class="edge"><title>Node12&#45;&gt;Node14</title>
<path fill="none" stroke="midnightblue" d="M554.429,-220.193C556.128,-195.013 561.25,-119.114 563.629,-83.8621"/>
<polygon fill="midnightblue" stroke="midnightblue" points="567.14,-83.8101 564.322,-73.5971 560.156,-83.3387 567.14,-83.8101"/>
</g>
<!-- Node15 -->
<g id="node15" class="node"><title>Node15</title>
<g id="a_node15"><a xlink:href="tcp_vehicle_socket_comm_8h.html" target="_top" xlink:title="Vehicle connection server&#39;s headers. ">
<polygon fill="white" stroke="black" points="251.895,-110.5 251.895,-128.5 381.841,-128.5 381.841,-110.5 251.895,-110.5"/>
<text text-anchor="middle" x="316.868" y="-116.5" font-family="Helvetica,sans-Serif" font-size="10.00">tcpVehicleSocketComm.h</text>
</a>
</g>
</g>
<!-- Node12&#45;&gt;Node15 -->
<g id="edge23" class="edge"><title>Node12&#45;&gt;Node15</title>
<path fill="none" stroke="midnightblue" d="M536.055,-220.382C494.863,-201.612 392.82,-155.111 343.885,-132.812"/>
<polygon fill="midnightblue" stroke="midnightblue" points="345.116,-129.526 334.565,-128.564 342.213,-135.896 345.116,-129.526"/>
</g>
<!-- Node17 -->
<g id="node17" class="node"><title>Node17</title>
<g id="a_node17"><a xlink:href="station_actions_8h.html" target="_top" xlink:title="FIle containing all the station action headers. ">
<polygon fill="white" stroke="black" points="585.57,-165.5 585.57,-183.5 672.166,-183.5 672.166,-165.5 585.57,-165.5"/>
<text text-anchor="middle" x="628.868" y="-171.5" font-family="Helvetica,sans-Serif" font-size="10.00">stationActions.h</text>
</a>
</g>
</g>
<!-- Node12&#45;&gt;Node17 -->
<g id="edge31" class="edge"><title>Node12&#45;&gt;Node17</title>
<path fill="none" stroke="midnightblue" d="M560.25,-220.45C570.098,-212.123 588.389,-198.97 603.734,-189.039"/>
<polygon fill="midnightblue" stroke="midnightblue" points="605.741,-191.912 612.343,-183.625 602.015,-185.986 605.741,-191.912"/>
</g>
<!-- Node15&#45;&gt;Node5 -->
<g id="edge27" class="edge"><title>Node15&#45;&gt;Node5</title>
<path fill="none" stroke="midnightblue" d="M305.022,-110.45C292.881,-102.201 273.771,-89.2158 259.205,-79.3187"/>
<polygon fill="midnightblue" stroke="midnightblue" points="261.064,-76.3506 250.826,-73.6253 257.13,-82.1405 261.064,-76.3506"/>
</g>
<!-- Node15&#45;&gt;Node6 -->
<g id="edge25" class="edge"><title>Node15&#45;&gt;Node6</title>
<path fill="none" stroke="midnightblue" d="M314.63,-110.22C311.537,-96.729 307.803,-70.0085 321.868,-55 357.152,-17.3482 511.259,-11.1093 587.225,-10.3681"/>
<polygon fill="midnightblue" stroke="midnightblue" points="587.429,-13.8668 597.405,-10.2973 587.381,-6.86699 587.429,-13.8668"/>
</g>
<!-- Node15&#45;&gt;Node7 -->
<g id="edge26" class="edge"><title>Node15&#45;&gt;Node7</title>
<path fill="none" stroke="midnightblue" d="M292.112,-110.45C264.387,-101.436 219.269,-86.7653 188.158,-76.6496"/>
<polygon fill="midnightblue" stroke="midnightblue" points="189.182,-73.3021 178.59,-73.5383 187.017,-79.959 189.182,-73.3021"/>
</g>
<!-- Node15&#45;&gt;Node8 -->
<g id="edge29" class="edge"><title>Node15&#45;&gt;Node8</title>
<path fill="none" stroke="midnightblue" d="M381.86,-110.508C470.464,-99.6123 626.87,-80.3791 703.305,-70.9799"/>
<polygon fill="midnightblue" stroke="midnightblue" points="704.046,-74.4152 713.544,-69.7208 703.192,-67.4675 704.046,-74.4152"/>
</g>
<!-- Node15&#45;&gt;Node10 -->
<g id="edge30" class="edge"><title>Node15&#45;&gt;Node10</title>
<path fill="none" stroke="midnightblue" d="M328.069,-128.747C354.745,-148.322 424.264,-198.945 483.868,-239 499.795,-249.703 518.106,-261.32 532.005,-270"/>
<polygon fill="midnightblue" stroke="midnightblue" points="530.499,-273.185 540.839,-275.493 534.195,-267.24 530.499,-273.185"/>
</g>
<!-- Node15&#45;&gt;Node13 -->
<g id="edge24" class="edge"><title>Node15&#45;&gt;Node13</title>
<path fill="none" stroke="midnightblue" d="M322.806,-110.219C328.247,-102.629 336.459,-91.1753 343.21,-81.7597"/>
<polygon fill="midnightblue" stroke="midnightblue" points="346.114,-83.716 349.097,-73.5496 340.425,-79.6371 346.114,-83.716"/>
</g>
<!-- Node16 -->
<g id="node16" class="node"><title>Node16</title>
<polygon fill="white" stroke="#bfbfbf" points="397.186,-55.5 397.186,-73.5 446.55,-73.5 446.55,-55.5 397.186,-55.5"/>
<text text-anchor="middle" x="421.868" y="-61.5" font-family="Helvetica,sans-Serif" font-size="10.00">netdb.h</text>
</g>
<!-- Node15&#45;&gt;Node16 -->
<g id="edge28" class="edge"><title>Node15&#45;&gt;Node16</title>
<path fill="none" stroke="midnightblue" d="M332.815,-110.45C349.775,-101.89 376.839,-88.2291 396.684,-78.2119"/>
<polygon fill="midnightblue" stroke="midnightblue" points="398.421,-81.256 405.771,-73.6253 395.266,-75.007 398.421,-81.256"/>
</g>
<!-- Node17&#45;&gt;Node2 -->
<g id="edge51" class="edge"><title>Node17&#45;&gt;Node2</title>
<path fill="none" stroke="midnightblue" d="M660.124,-183.584C692.095,-193.503 734.851,-212.347 717.868,-239 686.94,-287.538 521.771,-317.646 430.908,-330.784"/>
<polygon fill="midnightblue" stroke="midnightblue" points="430.154,-327.356 420.745,-332.227 431.138,-334.286 430.154,-327.356"/>
</g>
<!-- Node17&#45;&gt;Node3 -->
<g id="edge32" class="edge"><title>Node17&#45;&gt;Node3</title>
<path fill="none" stroke="midnightblue" d="M636.299,-165.203C654.237,-144.167 696.323,-88.0756 666.868,-55 643.714,-28.9994 405.249,-15.8694 316.717,-11.8625"/>
<polygon fill="midnightblue" stroke="midnightblue" points="316.833,-8.36433 306.688,-11.4188 316.524,-15.3575 316.833,-8.36433"/>
</g>
<!-- Node17&#45;&gt;Node8 -->
<g id="edge36" class="edge"><title>Node17&#45;&gt;Node8</title>
<path fill="none" stroke="midnightblue" d="M639.676,-165.279C650.963,-156.574 669.052,-142.282 683.868,-129 701.434,-113.253 720.5,-94.0373 733.211,-80.8958"/>
<polygon fill="midnightblue" stroke="midnightblue" points="735.831,-83.2203 740.234,-73.5835 730.783,-78.3714 735.831,-83.2203"/>
</g>
<!-- Node17&#45;&gt;Node9 -->
<g id="edge34" class="edge"><title>Node17&#45;&gt;Node9</title>
<path fill="none" stroke="midnightblue" d="M643.505,-165.432C659.422,-156.617 685.573,-142.015 707.868,-129 771.546,-91.8279 845.809,-46.3336 881.914,-24.0759"/>
<polygon fill="midnightblue" stroke="midnightblue" points="883.972,-26.9185 890.644,-18.6882 880.296,-20.9615 883.972,-26.9185"/>
</g>
<!-- Node17&#45;&gt;Node10 -->
<g id="edge38" class="edge"><title>Node17&#45;&gt;Node10</title>
<path fill="none" stroke="midnightblue" d="M628.021,-183.582C626.36,-196.333 621.736,-221.466 609.868,-239 601.41,-251.496 588.364,-262.156 576.991,-269.907"/>
<polygon fill="midnightblue" stroke="midnightblue" points="574.857,-267.118 568.349,-275.479 578.65,-273.001 574.857,-267.118"/>
</g>
<!-- Node17&#45;&gt;Node12 -->
<g id="edge37" class="edge"><title>Node17&#45;&gt;Node12</title>
<path fill="none" stroke="midnightblue" d="M622.397,-183.625C612.497,-191.982 594.19,-205.139 578.862,-215.051"/>
<polygon fill="midnightblue" stroke="midnightblue" points="576.874,-212.167 570.268,-220.45 580.598,-218.094 576.874,-212.167"/>
</g>
<!-- Node17&#45;&gt;Node14 -->
<g id="edge33" class="edge"><title>Node17&#45;&gt;Node14</title>
<path fill="none" stroke="midnightblue" d="M624.058,-165.382C613.68,-147.869 588.997,-106.218 575.004,-82.6045"/>
<polygon fill="midnightblue" stroke="midnightblue" points="577.843,-80.5304 569.734,-73.7118 571.821,-84.099 577.843,-80.5304"/>
</g>
<!-- Node17&#45;&gt;Node15 -->
<g id="edge50" class="edge"><title>Node17&#45;&gt;Node15</title>
<path fill="none" stroke="midnightblue" d="M585.486,-166.131C530.369,-156.768 435.092,-140.583 374.076,-130.218"/>
<polygon fill="midnightblue" stroke="midnightblue" points="374.662,-126.767 364.217,-128.543 373.49,-133.669 374.662,-126.767"/>
</g>
<!-- Node18 -->
<g id="node18" class="node"><title>Node18</title>
<polygon fill="white" stroke="#bfbfbf" points="606.356,-55.5 606.356,-73.5 657.38,-73.5 657.38,-55.5 606.356,-55.5"/>
<text text-anchor="middle" x="631.868" y="-61.5" font-family="Helvetica,sans-Serif" font-size="10.00">unistd.h</text>
</g>
<!-- Node17&#45;&gt;Node18 -->
<g id="edge35" class="edge"><title>Node17&#45;&gt;Node18</title>
<path fill="none" stroke="midnightblue" d="M629.094,-165.382C629.571,-148.182 630.696,-107.698 631.357,-83.8866"/>
<polygon fill="midnightblue" stroke="midnightblue" points="634.861,-83.8051 631.64,-73.7118 627.864,-83.6107 634.861,-83.8051"/>
</g>
<!-- Node19 -->
<g id="node19" class="node"><title>Node19</title>
<g id="a_node19"><a xlink:href="tcp_server_socket_comm_8h.html" target="_top" xlink:title="Server connection related function definitions. ">
<polygon fill="white" stroke="black" points="400.294,-110.5 400.294,-128.5 527.442,-128.5 527.442,-110.5 400.294,-110.5"/>
<text text-anchor="middle" x="463.868" y="-116.5" font-family="Helvetica,sans-Serif" font-size="10.00">tcpServerSocketComm.h</text>
</a>
</g>
</g>
<!-- Node17&#45;&gt;Node19 -->
<g id="edge39" class="edge"><title>Node17&#45;&gt;Node19</title>
<path fill="none" stroke="midnightblue" d="M603.808,-165.45C575.743,-156.436 530.071,-141.765 498.579,-131.65"/>
<polygon fill="midnightblue" stroke="midnightblue" points="499.484,-128.264 488.893,-128.538 497.344,-134.929 499.484,-128.264"/>
</g>
<!-- Node19&#45;&gt;Node3 -->
<g id="edge40" class="edge"><title>Node19&#45;&gt;Node3</title>
<path fill="none" stroke="midnightblue" d="M465.463,-110.334C467.556,-97.0074 469.519,-70.5177 455.868,-55 437.715,-34.3639 361.482,-20.8938 316.831,-14.6131"/>
<polygon fill="midnightblue" stroke="midnightblue" points="317.127,-11.1213 306.747,-13.2412 316.184,-18.0574 317.127,-11.1213"/>
</g>
<!-- Node19&#45;&gt;Node5 -->
<g id="edge46" class="edge"><title>Node19&#45;&gt;Node5</title>
<path fill="none" stroke="midnightblue" d="M429.695,-110.45C390.43,-101.201 325.894,-85.9994 282.895,-75.8708"/>
<polygon fill="midnightblue" stroke="midnightblue" points="283.529,-72.4244 272.993,-73.5383 281.924,-79.238 283.529,-72.4244"/>
</g>
<!-- Node19&#45;&gt;Node6 -->
<g id="edge44" class="edge"><title>Node19&#45;&gt;Node6</title>
<path fill="none" stroke="midnightblue" d="M471.114,-110.173C482.836,-97.0876 507.151,-71.5038 531.868,-55 552.208,-41.419 577.367,-30.0929 597.1,-22.266"/>
<polygon fill="midnightblue" stroke="midnightblue" points="598.519,-25.4702 606.588,-18.6046 595.998,-18.9396 598.519,-25.4702"/>
</g>
<!-- Node19&#45;&gt;Node7 -->
<g id="edge45" class="edge"><title>Node19&#45;&gt;Node7</title>
<path fill="none" stroke="midnightblue" d="M410.716,-110.48C358.41,-102.421 276.017,-89.2832 195.973,-74.3341"/>
<polygon fill="midnightblue" stroke="midnightblue" points="196.193,-70.8141 185.718,-72.4063 194.9,-77.6936 196.193,-70.8141"/>
</g>
<!-- Node19&#45;&gt;Node8 -->
<g id="edge48" class="edge"><title>Node19&#45;&gt;Node8</title>
<path fill="none" stroke="midnightblue" d="M507.002,-110.45C560.21,-100.521 650.185,-83.7295 703.814,-73.7214"/>
<polygon fill="midnightblue" stroke="midnightblue" points="704.522,-77.1497 713.71,-71.8745 703.238,-70.2685 704.522,-77.1497"/>
</g>
<!-- Node19&#45;&gt;Node10 -->
<g id="edge49" class="edge"><title>Node19&#45;&gt;Node10</title>
<path fill="none" stroke="midnightblue" d="M464.503,-128.689C466.418,-149.006 473.599,-202.704 497.868,-239 506.147,-251.381 518.96,-261.929 530.242,-269.643"/>
<polygon fill="midnightblue" stroke="midnightblue" points="528.547,-272.715 538.845,-275.203 532.347,-266.836 528.547,-272.715"/>
</g>
<!-- Node19&#45;&gt;Node13 -->
<g id="edge43" class="edge"><title>Node19&#45;&gt;Node13</title>
<path fill="none" stroke="midnightblue" d="M447.313,-110.45C429.627,-101.851 401.357,-88.1048 380.731,-78.0755"/>
<polygon fill="midnightblue" stroke="midnightblue" points="382.102,-74.8506 371.579,-73.6253 379.041,-81.1459 382.102,-74.8506"/>
</g>
<!-- Node19&#45;&gt;Node14 -->
<g id="edge41" class="edge"><title>Node19&#45;&gt;Node14</title>
<path fill="none" stroke="midnightblue" d="M479.208,-110.45C495.448,-101.929 521.318,-88.3532 540.383,-78.3487"/>
<polygon fill="midnightblue" stroke="midnightblue" points="542.155,-81.3712 549.384,-73.6253 538.903,-75.1728 542.155,-81.3712"/>
</g>
<!-- Node19&#45;&gt;Node16 -->
<g id="edge47" class="edge"><title>Node19&#45;&gt;Node16</title>
<path fill="none" stroke="midnightblue" d="M457.306,-110.219C451.229,-102.551 442.027,-90.9387 434.523,-81.4691"/>
<polygon fill="midnightblue" stroke="midnightblue" points="437.201,-79.2132 428.247,-73.5496 431.715,-83.5608 437.201,-79.2132"/>
</g>
<!-- Node19&#45;&gt;Node18 -->
<g id="edge42" class="edge"><title>Node19&#45;&gt;Node18</title>
<path fill="none" stroke="midnightblue" d="M489.384,-110.45C517.959,-101.436 564.461,-86.7653 596.526,-76.6496"/>
<polygon fill="midnightblue" stroke="midnightblue" points="597.905,-79.8848 606.388,-73.5383 595.798,-73.2091 597.905,-79.8848"/>
</g>
</g>
</svg>
