<?xml version="1.0" encoding="UTF-8" standalone="no"?>
<!DOCTYPE svg PUBLIC "-//W3C//DTD SVG 1.1//EN"
 "http://www.w3.org/Graphics/SVG/1.1/DTD/svg11.dtd">
<!-- Generated by graphviz version 2.38.0 (20140413.2041)
 -->
<!-- Title: MCM_initGeneralGroup Pages: 1 -->
<svg width="520pt" height="27pt"
 viewBox="0.00 0.00 520.12 27.00" xmlns="http://www.w3.org/2000/svg" xmlns:xlink="http://www.w3.org/1999/xlink">
<g id="graph0" class="graph" transform="scale(1 1) rotate(0) translate(4 23)">
<title>MCM_initGeneralGroup</title>
<polygon fill="white" stroke="none" points="-4,4 -4,-23 516.117,-23 516.117,4 -4,4"/>
<!-- Node1 -->
<g id="node1" class="node"><title>Node1</title>
<polygon fill="#bfbfbf" stroke="black" points="0,-0.5 0,-18.5 121.596,-18.5 121.596,-0.5 0,-0.5"/>
<text text-anchor="middle" x="60.7979" y="-6.5" font-family="Helvetica,sans-Serif" font-size="10.00">MCM_initGeneralGroup</text>
</g>
<!-- Node2 -->
<g id="node2" class="node"><title>Node2</title>
<g id="a_node2"><a xlink:href="mcast_messaging_8h.html#a4fd8b31a6cdd8fa515f1b3680a754def" target="_top" xlink:title="Intialize the multicast UDP listener and sender. ">
<polygon fill="white" stroke="black" points="157.596,-0.5 157.596,-18.5 271.945,-18.5 271.945,-0.5 157.596,-0.5"/>
<text text-anchor="middle" x="214.771" y="-6.5" font-family="Helvetica,sans-Serif" font-size="10.00">MCM_initMcastServer</text>
</a>
</g>
</g>
<!-- Node1&#45;&gt;Node2 -->
<g id="edge1" class="edge"><title>Node1&#45;&gt;Node2</title>
<path fill="none" stroke="midnightblue" d="M132.037,-9.5C140.44,-9.5 148.937,-9.5 157.114,-9.5"/>
<polygon fill="midnightblue" stroke="midnightblue" points="131.862,-6.0001 121.861,-9.5 131.861,-13.0001 131.862,-6.0001"/>
</g>
<!-- Node3 -->
<g id="node3" class="node"><title>Node3</title>
<g id="a_node3"><a xlink:href="main_8c.html#a82a03c8bafdc8925bacf4693a1c5e794" target="_top" xlink:title="Thread for controlling the multicast server initialization and shutdown. ">
<polygon fill="white" stroke="black" points="307.945,-0.5 307.945,-18.5 438.442,-18.5 438.442,-0.5 307.945,-0.5"/>
<text text-anchor="middle" x="373.194" y="-6.5" font-family="Helvetica,sans-Serif" font-size="10.00">mcastConnControlThread</text>
</a>
</g>
</g>
<!-- Node2&#45;&gt;Node3 -->
<g id="edge2" class="edge"><title>Node2&#45;&gt;Node3</title>
<path fill="none" stroke="midnightblue" d="M282.405,-9.5C290.834,-9.5 299.445,-9.5 307.837,-9.5"/>
<polygon fill="midnightblue" stroke="midnightblue" points="282.243,-6.0001 272.243,-9.5 282.243,-13.0001 282.243,-6.0001"/>
</g>
<!-- Node4 -->
<g id="node4" class="node"><title>Node4</title>
<g id="a_node4"><a xlink:href="main_8c.html#ac0f2228420376f4db7e1274f2b41667c" target="_top" xlink:title="main">
<polygon fill="white" stroke="black" points="474.442,-0.5 474.442,-18.5 512.117,-18.5 512.117,-0.5 474.442,-0.5"/>
<text text-anchor="middle" x="493.28" y="-6.5" font-family="Helvetica,sans-Serif" font-size="10.00">main</text>
</a>
</g>
</g>
<!-- Node3&#45;&gt;Node4 -->
<g id="edge3" class="edge"><title>Node3&#45;&gt;Node4</title>
<path fill="none" stroke="midnightblue" d="M448.808,-9.5C458.288,-9.5 467.191,-9.5 474.441,-9.5"/>
<polygon fill="midnightblue" stroke="midnightblue" points="448.765,-6.0001 438.765,-9.5 448.765,-13.0001 448.765,-6.0001"/>
</g>
</g>
</svg>
