<?xml version="1.0" encoding="UTF-8" standalone="no"?>
<!DOCTYPE svg PUBLIC "-//W3C//DTD SVG 1.1//EN"
 "http://www.w3.org/Graphics/SVG/1.1/DTD/svg11.dtd">
<!-- Generated by graphviz version 2.38.0 (20140413.2041)
 -->
<!-- Title: rasPi&#45;EmergencyStation/mcastMessaging.h Pages: 1 -->
<svg width="607pt" height="427pt"
 viewBox="0.00 0.00 607.27 427.00" xmlns="http://www.w3.org/2000/svg" xmlns:xlink="http://www.w3.org/1999/xlink">
<g id="graph0" class="graph" transform="scale(1 1) rotate(0) translate(4 423)">
<title>rasPi&#45;EmergencyStation/mcastMessaging.h</title>
<polygon fill="white" stroke="none" points="-4,4 -4,-423 603.273,-423 603.273,4 -4,4"/>
<!-- Node1 -->
<g id="node1" class="node"><title>Node1</title>
<polygon fill="#bfbfbf" stroke="black" points="385.451,-390.5 385.451,-418.5 509.273,-418.5 509.273,-390.5 385.451,-390.5"/>
<text text-anchor="start" x="393.451" y="-406.5" font-family="Helvetica,sans-Serif" font-size="10.00">rasPi&#45;EmergencyStation</text>
<text text-anchor="middle" x="447.362" y="-396.5" font-family="Helvetica,sans-Serif" font-size="10.00">/mcastMessaging.h</text>
</g>
<!-- Node2 -->
<g id="node2" class="node"><title>Node2</title>
<g id="a_node2"><a xlink:href="station_actions_8h.html" target="_top" xlink:title="FIle containing all the station action headers. ">
<polygon fill="white" stroke="black" points="181.451,-325.5 181.451,-353.5 305.273,-353.5 305.273,-325.5 181.451,-325.5"/>
<text text-anchor="start" x="189.451" y="-341.5" font-family="Helvetica,sans-Serif" font-size="10.00">rasPi&#45;EmergencyStation</text>
<text text-anchor="middle" x="243.362" y="-331.5" font-family="Helvetica,sans-Serif" font-size="10.00">/stationActions.h</text>
</a>
</g>
</g>
<!-- Node1&#45;&gt;Node2 -->
<g id="edge1" class="edge"><title>Node1&#45;&gt;Node2</title>
<path fill="none" stroke="midnightblue" d="M395.326,-387.43C361.303,-376.923 317.429,-363.374 285.577,-353.537"/>
<polygon fill="midnightblue" stroke="midnightblue" points="394.505,-390.84 405.093,-390.446 396.571,-384.151 394.505,-390.84"/>
</g>
<!-- Node14 -->
<g id="node14" class="node"><title>Node14</title>
<g id="a_node14"><a xlink:href="mcast_messaging_8c.html" target="_top" xlink:title="FIle containing all the definition of the functions related to multicast communication. ">
<polygon fill="white" stroke="black" points="475.451,-325.5 475.451,-353.5 599.273,-353.5 599.273,-325.5 475.451,-325.5"/>
<text text-anchor="start" x="483.451" y="-341.5" font-family="Helvetica,sans-Serif" font-size="10.00">rasPi&#45;EmergencyStation</text>
<text text-anchor="middle" x="537.362" y="-331.5" font-family="Helvetica,sans-Serif" font-size="10.00">/mcastMessaging.c</text>
</a>
</g>
</g>
<!-- Node1&#45;&gt;Node14 -->
<g id="edge22" class="edge"><title>Node1&#45;&gt;Node14</title>
<path fill="none" stroke="midnightblue" d="M474.476,-384.52C488.775,-374.511 505.952,-362.487 518.738,-353.537"/>
<polygon fill="midnightblue" stroke="midnightblue" points="472.195,-381.844 466.01,-390.446 476.209,-387.579 472.195,-381.844"/>
</g>
<!-- Node3 -->
<g id="node3" class="node"><title>Node3</title>
<g id="a_node3"><a xlink:href="message_parser_8h.html" target="_top" xlink:title="Message parser function headers. ">
<polygon fill="white" stroke="black" points="181.451,-260.5 181.451,-288.5 305.273,-288.5 305.273,-260.5 181.451,-260.5"/>
<text text-anchor="start" x="189.451" y="-276.5" font-family="Helvetica,sans-Serif" font-size="10.00">rasPi&#45;EmergencyStation</text>
<text text-anchor="middle" x="243.362" y="-266.5" font-family="Helvetica,sans-Serif" font-size="10.00">/messageParser.h</text>
</a>
</g>
</g>
<!-- Node2&#45;&gt;Node3 -->
<g id="edge2" class="edge"><title>Node2&#45;&gt;Node3</title>
<path fill="none" stroke="midnightblue" d="M236.833,-315.46C236.348,-306.388 236.661,-296.305 237.771,-288.537"/>
<polygon fill="midnightblue" stroke="midnightblue" points="233.351,-315.817 237.769,-325.446 240.32,-315.163 233.351,-315.817"/>
</g>
<!-- Node13 -->
<g id="node13" class="node"><title>Node13</title>
<g id="a_node13"><a xlink:href="station_actions_8c.html" target="_top" xlink:title="FIle containing all the station action definitions. ">
<polygon fill="white" stroke="black" points="39.4507,-260.5 39.4507,-288.5 163.273,-288.5 163.273,-260.5 39.4507,-260.5"/>
<text text-anchor="start" x="47.4507" y="-276.5" font-family="Helvetica,sans-Serif" font-size="10.00">rasPi&#45;EmergencyStation</text>
<text text-anchor="middle" x="101.362" y="-266.5" font-family="Helvetica,sans-Serif" font-size="10.00">/stationActions.c</text>
</a>
</g>
</g>
<!-- Node2&#45;&gt;Node13 -->
<g id="edge21" class="edge"><title>Node2&#45;&gt;Node13</title>
<path fill="none" stroke="midnightblue" d="M204.678,-321.337C181.371,-310.997 152.157,-298.036 130.747,-288.537"/>
<polygon fill="midnightblue" stroke="midnightblue" points="203.379,-324.59 213.939,-325.446 206.218,-318.192 203.379,-324.59"/>
</g>
<!-- Node3&#45;&gt;Node2 -->
<g id="edge19" class="edge"><title>Node3&#45;&gt;Node2</title>
<path fill="none" stroke="midnightblue" d="M249.89,-298.52C250.376,-307.591 250.064,-317.675 248.955,-325.446"/>
<polygon fill="midnightblue" stroke="midnightblue" points="253.372,-298.166 248.952,-288.537 246.402,-298.82 253.372,-298.166"/>
</g>
<!-- Node4 -->
<g id="node4" class="node"><title>Node4</title>
<g id="a_node4"><a xlink:href="main_8h.html" target="_top" xlink:title="Main file&#39;s headers of the emergency station application. ">
<polygon fill="white" stroke="black" points="167.451,-65.5 167.451,-93.5 291.273,-93.5 291.273,-65.5 167.451,-65.5"/>
<text text-anchor="start" x="175.451" y="-81.5" font-family="Helvetica,sans-Serif" font-size="10.00">rasPi&#45;EmergencyStation</text>
<text text-anchor="middle" x="229.362" y="-71.5" font-family="Helvetica,sans-Serif" font-size="10.00">/main.h</text>
</a>
</g>
</g>
<!-- Node3&#45;&gt;Node4 -->
<g id="edge3" class="edge"><title>Node3&#45;&gt;Node4</title>
<path fill="none" stroke="midnightblue" d="M241.666,-250.115C238.696,-209.174 232.648,-125.807 230.312,-93.6033"/>
<polygon fill="midnightblue" stroke="midnightblue" points="238.185,-250.514 242.4,-260.234 245.167,-250.007 238.185,-250.514"/>
</g>
<!-- Node6 -->
<g id="node6" class="node"><title>Node6</title>
<g id="a_node6"><a xlink:href="msg_buffers_8h.html" target="_top" xlink:title="File containing the headers of all functions related to the message mailboxes. ">
<polygon fill="white" stroke="black" points="257.451,-195.5 257.451,-223.5 381.273,-223.5 381.273,-195.5 257.451,-195.5"/>
<text text-anchor="start" x="265.451" y="-211.5" font-family="Helvetica,sans-Serif" font-size="10.00">rasPi&#45;EmergencyStation</text>
<text text-anchor="middle" x="319.362" y="-201.5" font-family="Helvetica,sans-Serif" font-size="10.00">/msgBuffers.h</text>
</a>
</g>
</g>
<!-- Node3&#45;&gt;Node6 -->
<g id="edge5" class="edge"><title>Node3&#45;&gt;Node6</title>
<path fill="none" stroke="midnightblue" d="M260.969,-253.665C272.074,-243.833 286.309,-232.234 298.044,-223.537"/>
<polygon fill="midnightblue" stroke="midnightblue" points="258.557,-251.128 253.516,-260.446 263.268,-256.305 258.557,-251.128"/>
</g>
<!-- Node12 -->
<g id="node12" class="node"><title>Node12</title>
<g id="a_node12"><a xlink:href="message_parser_8c.html" target="_top" xlink:title="Message parser functions definition. ">
<polygon fill="white" stroke="black" points="77.4507,-195.5 77.4507,-223.5 201.273,-223.5 201.273,-195.5 77.4507,-195.5"/>
<text text-anchor="start" x="85.4507" y="-211.5" font-family="Helvetica,sans-Serif" font-size="10.00">rasPi&#45;EmergencyStation</text>
<text text-anchor="middle" x="139.362" y="-201.5" font-family="Helvetica,sans-Serif" font-size="10.00">/messageParser.c</text>
</a>
</g>
</g>
<!-- Node3&#45;&gt;Node12 -->
<g id="edge20" class="edge"><title>Node3&#45;&gt;Node12</title>
<path fill="none" stroke="midnightblue" d="M212.961,-255.084C196.257,-244.965 175.937,-232.656 160.883,-223.537"/>
<polygon fill="midnightblue" stroke="midnightblue" points="211.446,-258.259 221.813,-260.446 215.073,-252.272 211.446,-258.259"/>
</g>
<!-- Node5 -->
<g id="node5" class="node"><title>Node5</title>
<g id="a_node5"><a xlink:href="main_8c.html" target="_top" xlink:title="Main file and functions of the emergency station application. ">
<polygon fill="white" stroke="black" points="167.451,-0.5 167.451,-28.5 291.273,-28.5 291.273,-0.5 167.451,-0.5"/>
<text text-anchor="start" x="175.451" y="-16.5" font-family="Helvetica,sans-Serif" font-size="10.00">rasPi&#45;EmergencyStation</text>
<text text-anchor="middle" x="229.362" y="-6.5" font-family="Helvetica,sans-Serif" font-size="10.00">/main.c</text>
</a>
</g>
</g>
<!-- Node4&#45;&gt;Node5 -->
<g id="edge4" class="edge"><title>Node4&#45;&gt;Node5</title>
<path fill="none" stroke="midnightblue" d="M229.362,-55.1641C229.362,-46.1693 229.362,-36.2205 229.362,-28.5369"/>
<polygon fill="midnightblue" stroke="midnightblue" points="225.862,-55.4463 229.362,-65.4464 232.862,-55.4464 225.862,-55.4463"/>
</g>
<!-- Node6&#45;&gt;Node1 -->
<g id="edge17" class="edge"><title>Node6&#45;&gt;Node1</title>
<path fill="none" stroke="midnightblue" d="M333.71,-232.134C360.372,-272.336 416.818,-357.445 438.564,-390.234"/>
<polygon fill="midnightblue" stroke="midnightblue" points="336.496,-230.003 328.052,-223.603 330.662,-233.872 336.496,-230.003"/>
</g>
<!-- Node6&#45;&gt;Node2 -->
<g id="edge12" class="edge"><title>Node6&#45;&gt;Node2</title>
<path fill="none" stroke="midnightblue" d="M322.997,-234.073C324.355,-250.503 323.725,-272.37 314.362,-289 305.294,-305.105 288.55,-317.161 273.598,-325.342"/>
<polygon fill="midnightblue" stroke="midnightblue" points="326.425,-233.241 321.822,-223.698 319.47,-234.028 326.425,-233.241"/>
</g>
<!-- Node6&#45;&gt;Node3 -->
<g id="edge6" class="edge"><title>Node6&#45;&gt;Node3</title>
<path fill="none" stroke="midnightblue" d="M301.776,-230.316C290.675,-240.146 276.44,-251.746 264.702,-260.446"/>
<polygon fill="midnightblue" stroke="midnightblue" points="304.185,-232.856 309.225,-223.537 299.473,-227.679 304.185,-232.856"/>
</g>
<!-- Node7 -->
<g id="node7" class="node"><title>Node7</title>
<g id="a_node7"><a xlink:href="tcp_vehicle_socket_comm_8h.html" target="_top" xlink:title="Vehicle connection server&#39;s headers. ">
<polygon fill="white" stroke="black" points="0,-130.5 0,-158.5 132.724,-158.5 132.724,-130.5 0,-130.5"/>
<text text-anchor="start" x="8" y="-146.5" font-family="Helvetica,sans-Serif" font-size="10.00">rasPi&#45;EmergencyStation</text>
<text text-anchor="middle" x="66.3618" y="-136.5" font-family="Helvetica,sans-Serif" font-size="10.00">/tcpVehicleSocketComm.h</text>
</a>
</g>
</g>
<!-- Node6&#45;&gt;Node7 -->
<g id="edge7" class="edge"><title>Node6&#45;&gt;Node7</title>
<path fill="none" stroke="midnightblue" d="M256.99,-192.969C214.504,-182.389 158.898,-168.543 118.716,-158.537"/>
<polygon fill="midnightblue" stroke="midnightblue" points="256.391,-196.426 266.94,-195.446 258.082,-189.634 256.391,-196.426"/>
</g>
<!-- Node9 -->
<g id="node9" class="node"><title>Node9</title>
<g id="a_node9"><a xlink:href="tcp_server_socket_comm_8h.html" target="_top" xlink:title="Server connection related function definitions. ">
<polygon fill="white" stroke="black" points="399.399,-130.5 399.399,-158.5 529.325,-158.5 529.325,-130.5 399.399,-130.5"/>
<text text-anchor="start" x="407.399" y="-146.5" font-family="Helvetica,sans-Serif" font-size="10.00">rasPi&#45;EmergencyStation</text>
<text text-anchor="middle" x="464.362" y="-136.5" font-family="Helvetica,sans-Serif" font-size="10.00">/tcpServerSocketComm.h</text>
</a>
</g>
</g>
<!-- Node6&#45;&gt;Node9 -->
<g id="edge13" class="edge"><title>Node6&#45;&gt;Node9</title>
<path fill="none" stroke="midnightblue" d="M358.863,-191.337C382.663,-180.997 412.493,-168.036 434.356,-158.537"/>
<polygon fill="midnightblue" stroke="midnightblue" points="357.183,-188.251 349.406,-195.446 359.972,-194.671 357.183,-188.251"/>
</g>
<!-- Node11 -->
<g id="node11" class="node"><title>Node11</title>
<g id="a_node11"><a xlink:href="msg_buffers_8c.html" target="_top" xlink:title="File containing the definitions of all functions related to the message mailboxes. ">
<polygon fill="white" stroke="black" points="257.451,-130.5 257.451,-158.5 381.273,-158.5 381.273,-130.5 257.451,-130.5"/>
<text text-anchor="start" x="265.451" y="-146.5" font-family="Helvetica,sans-Serif" font-size="10.00">rasPi&#45;EmergencyStation</text>
<text text-anchor="middle" x="319.362" y="-136.5" font-family="Helvetica,sans-Serif" font-size="10.00">/msgBuffers.c</text>
</a>
</g>
</g>
<!-- Node6&#45;&gt;Node11 -->
<g id="edge18" class="edge"><title>Node6&#45;&gt;Node11</title>
<path fill="none" stroke="midnightblue" d="M319.362,-185.164C319.362,-176.169 319.362,-166.221 319.362,-158.537"/>
<polygon fill="midnightblue" stroke="midnightblue" points="315.862,-185.446 319.362,-195.446 322.862,-185.446 315.862,-185.446"/>
</g>
<!-- Node7&#45;&gt;Node2 -->
<g id="edge9" class="edge"><title>Node7&#45;&gt;Node2</title>
<path fill="none" stroke="midnightblue" d="M50.6319,-167.105C30.6093,-197.476 1.84171,-253.092 30.3618,-289 48.9563,-312.411 125.294,-325.752 181.286,-332.552"/>
<polygon fill="midnightblue" stroke="midnightblue" points="53.7341,-168.769 56.492,-158.539 47.9568,-164.816 53.7341,-168.769"/>
</g>
<!-- Node7&#45;&gt;Node3 -->
<g id="edge8" class="edge"><title>Node7&#45;&gt;Node3</title>
<path fill="none" stroke="midnightblue" d="M60.1807,-168.977C57.1787,-185.997 56.4266,-208.631 68.3618,-224 75.7452,-233.507 136.433,-249.253 184.298,-260.431"/>
<polygon fill="midnightblue" stroke="midnightblue" points="63.702,-169.246 62.3676,-158.736 56.8564,-167.785 63.702,-169.246"/>
</g>
<!-- Node7&#45;&gt;Node4 -->
<g id="edge10" class="edge"><title>Node7&#45;&gt;Node4</title>
<path fill="none" stroke="midnightblue" d="M109.7,-126.75C136.625,-116.343 170.727,-103.163 195.631,-93.5369"/>
<polygon fill="midnightblue" stroke="midnightblue" points="108.201,-123.577 100.136,-130.446 110.725,-130.106 108.201,-123.577"/>
</g>
<!-- Node8 -->
<g id="node8" class="node"><title>Node8</title>
<g id="a_node8"><a xlink:href="tcp_vehicle_socket_comm_8c.html" target="_top" xlink:title="Vehicle connection server related function definitions. ">
<polygon fill="white" stroke="black" points="0.280762,-65.5 0.280762,-93.5 132.443,-93.5 132.443,-65.5 0.280762,-65.5"/>
<text text-anchor="start" x="8.28076" y="-81.5" font-family="Helvetica,sans-Serif" font-size="10.00">rasPi&#45;EmergencyStation</text>
<text text-anchor="middle" x="66.3618" y="-71.5" font-family="Helvetica,sans-Serif" font-size="10.00">/tcpVehicleSocketComm.c</text>
</a>
</g>
</g>
<!-- Node7&#45;&gt;Node8 -->
<g id="edge11" class="edge"><title>Node7&#45;&gt;Node8</title>
<path fill="none" stroke="midnightblue" d="M66.3618,-120.164C66.3618,-111.169 66.3618,-101.221 66.3618,-93.5369"/>
<polygon fill="midnightblue" stroke="midnightblue" points="62.8619,-120.446 66.3618,-130.446 69.8619,-120.446 62.8619,-120.446"/>
</g>
<!-- Node9&#45;&gt;Node2 -->
<g id="edge14" class="edge"><title>Node9&#45;&gt;Node2</title>
<path fill="none" stroke="midnightblue" d="M448.58,-166.807C425.643,-196.751 380.646,-251.779 333.362,-289 314.726,-303.67 291.162,-316.457 272.82,-325.359"/>
<polygon fill="midnightblue" stroke="midnightblue" points="451.461,-168.799 454.708,-158.714 445.881,-164.573 451.461,-168.799"/>
</g>
<!-- Node9&#45;&gt;Node4 -->
<g id="edge15" class="edge"><title>Node9&#45;&gt;Node4</title>
<path fill="none" stroke="midnightblue" d="M405.927,-127.835C366.529,-117.272 315.157,-103.5 277.992,-93.5369"/>
<polygon fill="midnightblue" stroke="midnightblue" points="405.104,-131.237 415.67,-130.446 406.917,-124.476 405.104,-131.237"/>
</g>
<!-- Node10 -->
<g id="node10" class="node"><title>Node10</title>
<g id="a_node10"><a xlink:href="tcp_server_socket_comm_8c.html" target="_top" xlink:title="Server connection related function headers. ">
<polygon fill="white" stroke="black" points="399.68,-65.5 399.68,-93.5 529.044,-93.5 529.044,-65.5 399.68,-65.5"/>
<text text-anchor="start" x="407.68" y="-81.5" font-family="Helvetica,sans-Serif" font-size="10.00">rasPi&#45;EmergencyStation</text>
<text text-anchor="middle" x="464.362" y="-71.5" font-family="Helvetica,sans-Serif" font-size="10.00">/tcpServerSocketComm.c</text>
</a>
</g>
</g>
<!-- Node9&#45;&gt;Node10 -->
<g id="edge16" class="edge"><title>Node9&#45;&gt;Node10</title>
<path fill="none" stroke="midnightblue" d="M464.362,-120.164C464.362,-111.169 464.362,-101.221 464.362,-93.5369"/>
<polygon fill="midnightblue" stroke="midnightblue" points="460.862,-120.446 464.362,-130.446 467.862,-120.446 460.862,-120.446"/>
</g>
</g>
</svg>
