<?xml version="1.0" encoding="UTF-8" standalone="no"?>
<!DOCTYPE svg PUBLIC "-//W3C//DTD SVG 1.1//EN"
 "http://www.w3.org/Graphics/SVG/1.1/DTD/svg11.dtd">
<!-- Generated by graphviz version 2.38.0 (20140413.2041)
 -->
<!-- Title: rasPi&#45;EmergencyStation/mcastMessaging.c Pages: 1 -->
<svg width="1194pt" height="422pt"
 viewBox="0.00 0.00 1194.01 422.00" xmlns="http://www.w3.org/2000/svg" xmlns:xlink="http://www.w3.org/1999/xlink">
<g id="graph0" class="graph" transform="scale(1 1) rotate(0) translate(4 418)">
<title>rasPi&#45;EmergencyStation/mcastMessaging.c</title>
<polygon fill="white" stroke="none" points="-4,4 -4,-418 1190.01,-418 1190.01,4 -4,4"/>
<!-- Node1 -->
<g id="node1" class="node"><title>Node1</title>
<polygon fill="#bfbfbf" stroke="black" points="693.089,-385.5 693.089,-413.5 816.911,-413.5 816.911,-385.5 693.089,-385.5"/>
<text text-anchor="start" x="701.089" y="-401.5" font-family="Helvetica,sans-Serif" font-size="10.00">rasPi&#45;EmergencyStation</text>
<text text-anchor="middle" x="755" y="-391.5" font-family="Helvetica,sans-Serif" font-size="10.00">/mcastMessaging.c</text>
</g>
<!-- Node2 -->
<g id="node2" class="node"><title>Node2</title>
<g id="a_node2"><a xlink:href="mcast_messaging_8h.html" target="_top" xlink:title="FIle containing all the headers of the functions related to multicast communication. ">
<polygon fill="white" stroke="black" points="705.315,-330.5 705.315,-348.5 804.685,-348.5 804.685,-330.5 705.315,-330.5"/>
<text text-anchor="middle" x="755" y="-336.5" font-family="Helvetica,sans-Serif" font-size="10.00">mcastMessaging.h</text>
</a>
</g>
</g>
<!-- Node1&#45;&gt;Node2 -->
<g id="edge1" class="edge"><title>Node1&#45;&gt;Node2</title>
<path fill="none" stroke="midnightblue" d="M755,-385.339C755,-377.531 755,-367.512 755,-358.927"/>
<polygon fill="midnightblue" stroke="midnightblue" points="758.5,-358.771 755,-348.771 751.5,-358.772 758.5,-358.771"/>
</g>
<!-- Node3 -->
<g id="node3" class="node"><title>Node3</title>
<polygon fill="white" stroke="#bfbfbf" points="288.269,-0.5 288.269,-18.5 333.731,-18.5 333.731,-0.5 288.269,-0.5"/>
<text text-anchor="middle" x="311" y="-6.5" font-family="Helvetica,sans-Serif" font-size="10.00">stdio.h</text>
</g>
<!-- Node2&#45;&gt;Node3 -->
<g id="edge2" class="edge"><title>Node2&#45;&gt;Node3</title>
<path fill="none" stroke="midnightblue" d="M705.17,-336.639C536.873,-329.699 0,-301.96 0,-230.5 0,-230.5 0,-230.5 0,-173.5 0,-48.9438 198.12,-19.3786 278.101,-12.518"/>
<polygon fill="midnightblue" stroke="midnightblue" points="278.439,-16.0023 288.131,-11.7246 277.887,-9.02411 278.439,-16.0023"/>
</g>
<!-- Node4 -->
<g id="node4" class="node"><title>Node4</title>
<polygon fill="white" stroke="#bfbfbf" points="1119.99,-275.5 1119.99,-293.5 1186.01,-293.5 1186.01,-275.5 1119.99,-275.5"/>
<text text-anchor="middle" x="1153" y="-281.5" font-family="Helvetica,sans-Serif" font-size="10.00">sys/types.h</text>
</g>
<!-- Node2&#45;&gt;Node4 -->
<g id="edge3" class="edge"><title>Node2&#45;&gt;Node4</title>
<path fill="none" stroke="midnightblue" d="M804.814,-333.023C872.957,-325.34 998.995,-310.447 1106,-294 1107.27,-293.805 1108.55,-293.603 1109.85,-293.395"/>
<polygon fill="midnightblue" stroke="midnightblue" points="1110.63,-296.813 1119.91,-291.71 1109.47,-289.909 1110.63,-296.813"/>
</g>
<!-- Node5 -->
<g id="node5" class="node"><title>Node5</title>
<polygon fill="white" stroke="#bfbfbf" points="904.49,-55.5 904.49,-73.5 975.51,-73.5 975.51,-55.5 904.49,-55.5"/>
<text text-anchor="middle" x="940" y="-61.5" font-family="Helvetica,sans-Serif" font-size="10.00">sys/socket.h</text>
</g>
<!-- Node2&#45;&gt;Node5 -->
<g id="edge4" class="edge"><title>Node2&#45;&gt;Node5</title>
<path fill="none" stroke="midnightblue" d="M763.72,-330.212C791.18,-303.636 876.725,-217.123 922,-129 929.371,-114.653 934.078,-96.8844 936.823,-83.795"/>
<polygon fill="midnightblue" stroke="midnightblue" points="940.312,-84.1787 938.746,-73.7003 933.436,-82.8682 940.312,-84.1787"/>
</g>
<!-- Node6 -->
<g id="node6" class="node"><title>Node6</title>
<polygon fill="white" stroke="#bfbfbf" points="633.537,-0.5 633.537,-18.5 698.463,-18.5 698.463,-0.5 633.537,-0.5"/>
<text text-anchor="middle" x="666" y="-6.5" font-family="Helvetica,sans-Serif" font-size="10.00">netinet/in.h</text>
</g>
<!-- Node2&#45;&gt;Node6 -->
<g id="edge5" class="edge"><title>Node2&#45;&gt;Node6</title>
<path fill="none" stroke="midnightblue" d="M804.726,-333.051C898.468,-321.388 1092,-290.095 1092,-230.5 1092,-230.5 1092,-230.5 1092,-118.5 1092,-88.0037 1090.34,-73.3704 1066,-55 1010.55,-13.1546 799.928,-9.46673 708.631,-9.9062"/>
<polygon fill="midnightblue" stroke="midnightblue" points="708.599,-6.40624 698.623,-9.97345 708.646,-13.4061 708.599,-6.40624"/>
</g>
<!-- Node7 -->
<g id="node7" class="node"><title>Node7</title>
<polygon fill="white" stroke="#bfbfbf" points="993.372,-55.5 993.372,-73.5 1056.63,-73.5 1056.63,-55.5 993.372,-55.5"/>
<text text-anchor="middle" x="1025" y="-61.5" font-family="Helvetica,sans-Serif" font-size="10.00">arpa/inet.h</text>
</g>
<!-- Node2&#45;&gt;Node7 -->
<g id="edge6" class="edge"><title>Node2&#45;&gt;Node7</title>
<path fill="none" stroke="midnightblue" d="M804.709,-331.065C889.731,-316.937 1054,-282.864 1054,-230.5 1054,-230.5 1054,-230.5 1054,-173.5 1054,-140.616 1041.3,-103.967 1032.71,-82.9311"/>
<polygon fill="midnightblue" stroke="midnightblue" points="1035.92,-81.5349 1028.79,-73.6997 1029.48,-84.2721 1035.92,-81.5349"/>
</g>
<!-- Node8 -->
<g id="node8" class="node"><title>Node8</title>
<g id="a_node8"><a xlink:href="structures_8h.html" target="_top" xlink:title="File containing all the structure definitions used in the other modules. ">
<polygon fill="white" stroke="black" points="276.879,-55.5 276.879,-73.5 345.121,-73.5 345.121,-55.5 276.879,-55.5"/>
<text text-anchor="middle" x="311" y="-61.5" font-family="Helvetica,sans-Serif" font-size="10.00">structures.h</text>
</a>
</g>
</g>
<!-- Node2&#45;&gt;Node8 -->
<g id="edge7" class="edge"><title>Node2&#45;&gt;Node8</title>
<path fill="none" stroke="midnightblue" d="M704.906,-338.234C590.14,-336.995 311.496,-330.229 226,-294 186.23,-277.147 146.9,-260.081 163,-220 188.8,-155.771 255.46,-103.185 289.823,-79.3239"/>
<polygon fill="midnightblue" stroke="midnightblue" points="291.904,-82.1416 298.21,-73.6276 287.971,-76.351 291.904,-82.1416"/>
</g>
<!-- Node10 -->
<g id="node10" class="node"><title>Node10</title>
<g id="a_node10"><a xlink:href="msg_buffers_8h.html" target="_top" xlink:title="File containing the headers of all functions related to the message mailboxes. ">
<polygon fill="white" stroke="black" points="456.632,-275.5 456.632,-293.5 531.368,-293.5 531.368,-275.5 456.632,-275.5"/>
<text text-anchor="middle" x="494" y="-281.5" font-family="Helvetica,sans-Serif" font-size="10.00">msgBuffers.h</text>
</a>
</g>
</g>
<!-- Node2&#45;&gt;Node10 -->
<g id="edge11" class="edge"><title>Node2&#45;&gt;Node10</title>
<path fill="none" stroke="midnightblue" d="M715.36,-330.45C668.665,-320.968 591.159,-305.23 541.35,-295.115"/>
<polygon fill="midnightblue" stroke="midnightblue" points="541.965,-291.669 531.469,-293.109 540.572,-298.529 541.965,-291.669"/>
</g>
<!-- Node8&#45;&gt;Node3 -->
<g id="edge8" class="edge"><title>Node8&#45;&gt;Node3</title>
<path fill="none" stroke="midnightblue" d="M311,-55.2188C311,-48.1769 311,-37.8083 311,-28.8277"/>
<polygon fill="midnightblue" stroke="midnightblue" points="314.5,-28.5495 311,-18.5496 307.5,-28.5496 314.5,-28.5495"/>
</g>
<!-- Node8&#45;&gt;Node6 -->
<g id="edge10" class="edge"><title>Node8&#45;&gt;Node6</title>
<path fill="none" stroke="midnightblue" d="M345.361,-58.37C410.623,-48.6266 552.327,-27.4709 623.461,-16.8508"/>
<polygon fill="midnightblue" stroke="midnightblue" points="624.053,-20.3013 633.427,-15.363 623.02,-13.3781 624.053,-20.3013"/>
</g>
<!-- Node9 -->
<g id="node9" class="node"><title>Node9</title>
<polygon fill="white" stroke="#bfbfbf" points="108.872,-0.5 108.872,-18.5 167.128,-18.5 167.128,-0.5 108.872,-0.5"/>
<text text-anchor="middle" x="138" y="-6.5" font-family="Helvetica,sans-Serif" font-size="10.00">pthread.h</text>
</g>
<!-- Node8&#45;&gt;Node9 -->
<g id="edge9" class="edge"><title>Node8&#45;&gt;Node9</title>
<path fill="none" stroke="midnightblue" d="M284.725,-55.4504C255.172,-46.3965 206.998,-31.6382 173.966,-21.5185"/>
<polygon fill="midnightblue" stroke="midnightblue" points="174.825,-18.1211 164.238,-18.5383 172.774,-24.8141 174.825,-18.1211"/>
</g>
<!-- Node10&#45;&gt;Node3 -->
<g id="edge12" class="edge"><title>Node10&#45;&gt;Node3</title>
<path fill="none" stroke="midnightblue" d="M456.61,-283.27C380.935,-282.04 213.232,-275.188 171,-239 148.631,-219.832 152,-204.958 152,-175.5 152,-175.5 152,-175.5 152,-118.5 152,-58.004 231.737,-29.0287 278.278,-17.2689"/>
<polygon fill="midnightblue" stroke="midnightblue" points="279.308,-20.6212 288.219,-14.8899 277.679,-13.8134 279.308,-20.6212"/>
</g>
<!-- Node10&#45;&gt;Node8 -->
<g id="edge15" class="edge"><title>Node10&#45;&gt;Node8</title>
<path fill="none" stroke="midnightblue" d="M476.201,-275.481C445.823,-261.034 383.524,-227.996 345,-184 327.061,-163.513 325.606,-155.147 318,-129 313.731,-114.323 312.03,-97.0463 311.369,-84.2217"/>
<polygon fill="midnightblue" stroke="midnightblue" points="314.855,-83.7708 311.01,-73.8982 307.859,-84.0137 314.855,-83.7708"/>
</g>
<!-- Node10&#45;&gt;Node9 -->
<g id="edge13" class="edge"><title>Node10&#45;&gt;Node9</title>
<path fill="none" stroke="midnightblue" d="M456.469,-284.308C376.415,-285.167 192.862,-282.251 152,-239 96.6276,-180.39 120.225,-71.1746 132.404,-28.3669"/>
<polygon fill="midnightblue" stroke="midnightblue" points="135.823,-29.1486 135.331,-18.5652 129.116,-27.1455 135.823,-29.1486"/>
</g>
<!-- Node11 -->
<g id="node11" class="node"><title>Node11</title>
<polygon fill="white" stroke="#bfbfbf" points="180.214,-220.5 180.214,-238.5 231.786,-238.5 231.786,-220.5 180.214,-220.5"/>
<text text-anchor="middle" x="206" y="-226.5" font-family="Helvetica,sans-Serif" font-size="10.00">assert.h</text>
</g>
<!-- Node10&#45;&gt;Node11 -->
<g id="edge14" class="edge"><title>Node10&#45;&gt;Node11</title>
<path fill="none" stroke="midnightblue" d="M456.537,-277.16C407.916,-268.845 320.479,-253.592 246,-239 244.563,-238.718 243.098,-238.427 241.619,-238.129"/>
<polygon fill="midnightblue" stroke="midnightblue" points="242.296,-234.696 231.796,-236.108 240.885,-241.552 242.296,-234.696"/>
</g>
<!-- Node12 -->
<g id="node12" class="node"><title>Node12</title>
<g id="a_node12"><a xlink:href="message_parser_8h.html" target="_top" xlink:title="Message parser function headers. ">
<polygon fill="white" stroke="black" points="485.089,-220.5 485.089,-238.5 578.911,-238.5 578.911,-220.5 485.089,-220.5"/>
<text text-anchor="middle" x="532" y="-226.5" font-family="Helvetica,sans-Serif" font-size="10.00">messageParser.h</text>
</a>
</g>
</g>
<!-- Node10&#45;&gt;Node12 -->
<g id="edge16" class="edge"><title>Node10&#45;&gt;Node12</title>
<path fill="none" stroke="midnightblue" d="M494.875,-275.219C498.675,-267.473 506.728,-255.701 514.535,-246.18"/>
<polygon fill="midnightblue" stroke="midnightblue" points="517.263,-248.378 521.219,-238.55 511.997,-243.765 517.263,-248.378"/>
</g>
<!-- Node12&#45;&gt;Node3 -->
<g id="edge17" class="edge"><title>Node12&#45;&gt;Node3</title>
<path fill="none" stroke="midnightblue" d="M484.864,-226.513C444.632,-222.784 386.817,-212.416 345,-184 295.641,-150.46 285.941,-130.916 268,-74 265.461,-65.9462 264.835,-62.8291 268,-55 272.747,-43.2562 282.243,-32.8905 291.106,-25.1246"/>
<polygon fill="midnightblue" stroke="midnightblue" points="293.375,-27.7906 298.914,-18.7587 288.951,-22.3654 293.375,-27.7906"/>
</g>
<!-- Node12&#45;&gt;Node5 -->
<g id="edge23" class="edge"><title>Node12&#45;&gt;Node5</title>
<path fill="none" stroke="midnightblue" d="M579.05,-227.17C636.69,-224.192 736.476,-214.623 816,-184 857.643,-167.964 868.725,-160.83 900,-129 913.389,-115.373 924.563,-96.5249 931.667,-82.9068"/>
<polygon fill="midnightblue" stroke="midnightblue" points="934.935,-84.1953 936.275,-73.6854 928.674,-81.0661 934.935,-84.1953"/>
</g>
<!-- Node12&#45;&gt;Node6 -->
<g id="edge21" class="edge"><title>Node12&#45;&gt;Node6</title>
<path fill="none" stroke="midnightblue" d="M524.414,-220.319C500.654,-193.7 431.713,-108.209 474,-55 492.274,-32.0065 572.381,-19.8401 623.174,-14.3197"/>
<polygon fill="midnightblue" stroke="midnightblue" points="623.641,-17.79 633.224,-13.272 622.915,-10.8278 623.641,-17.79"/>
</g>
<!-- Node12&#45;&gt;Node7 -->
<g id="edge22" class="edge"><title>Node12&#45;&gt;Node7</title>
<path fill="none" stroke="midnightblue" d="M579.087,-228.558C642.836,-227.175 759.182,-219.428 851,-184 915.552,-159.093 979.786,-106.22 1008.87,-80.3639"/>
<polygon fill="midnightblue" stroke="midnightblue" points="1011.34,-82.8473 1016.42,-73.5496 1006.65,-77.6502 1011.34,-82.8473"/>
</g>
<!-- Node12&#45;&gt;Node8 -->
<g id="edge26" class="edge"><title>Node12&#45;&gt;Node8</title>
<path fill="none" stroke="midnightblue" d="M484.861,-226.44C448.647,-222.565 399.344,-212.033 366,-184 334.696,-157.682 320.204,-109.648 314.371,-83.5468"/>
<polygon fill="midnightblue" stroke="midnightblue" points="317.757,-82.6371 312.324,-73.5416 310.899,-84.0403 317.757,-82.6371"/>
</g>
<!-- Node12&#45;&gt;Node9 -->
<g id="edge20" class="edge"><title>Node12&#45;&gt;Node9</title>
<path fill="none" stroke="midnightblue" d="M484.766,-226.396C439.191,-222.662 369.436,-212.357 316,-184 240.417,-143.89 175.134,-61.8294 149.539,-26.8651"/>
<polygon fill="midnightblue" stroke="midnightblue" points="152.332,-24.7543 143.648,-18.6835 146.651,-28.8441 152.332,-24.7543"/>
</g>
<!-- Node12&#45;&gt;Node10 -->
<g id="edge27" class="edge"><title>Node12&#45;&gt;Node10</title>
<path fill="none" stroke="midnightblue" d="M531.238,-238.55C527.524,-246.214 519.511,-257.967 511.7,-267.533"/>
<polygon fill="midnightblue" stroke="midnightblue" points="508.933,-265.381 505,-275.219 514.209,-269.981 508.933,-265.381"/>
</g>
<!-- Node13 -->
<g id="node13" class="node"><title>Node13</title>
<polygon fill="white" stroke="#bfbfbf" points="761.604,-55.5 761.604,-73.5 810.396,-73.5 810.396,-55.5 761.604,-55.5"/>
<text text-anchor="middle" x="786" y="-61.5" font-family="Helvetica,sans-Serif" font-size="10.00">string.h</text>
</g>
<!-- Node12&#45;&gt;Node13 -->
<g id="edge18" class="edge"><title>Node12&#45;&gt;Node13</title>
<path fill="none" stroke="midnightblue" d="M579.022,-222.542C666.469,-210.351 848.397,-179.383 883,-129 901.928,-101.441 855.457,-82.9115 820.485,-73.2964"/>
<polygon fill="midnightblue" stroke="midnightblue" points="821.098,-69.8394 810.539,-70.7095 819.336,-76.614 821.098,-69.8394"/>
</g>
<!-- Node14 -->
<g id="node14" class="node"><title>Node14</title>
<polygon fill="white" stroke="#bfbfbf" points="552.158,-55.5 552.158,-73.5 599.842,-73.5 599.842,-55.5 552.158,-55.5"/>
<text text-anchor="middle" x="576" y="-61.5" font-family="Helvetica,sans-Serif" font-size="10.00">stdlib.h</text>
</g>
<!-- Node12&#45;&gt;Node14 -->
<g id="edge19" class="edge"><title>Node12&#45;&gt;Node14</title>
<path fill="none" stroke="midnightblue" d="M534.242,-220.193C541.069,-194.903 561.706,-118.453 571.167,-83.4046"/>
<polygon fill="midnightblue" stroke="midnightblue" points="574.587,-84.1637 573.814,-73.5971 567.829,-82.3394 574.587,-84.1637"/>
</g>
<!-- Node15 -->
<g id="node15" class="node"><title>Node15</title>
<polygon fill="white" stroke="#bfbfbf" points="597.815,-165.5 597.815,-183.5 672.185,-183.5 672.185,-165.5 597.815,-165.5"/>
<text text-anchor="middle" x="635" y="-171.5" font-family="Helvetica,sans-Serif" font-size="10.00">semaphore.h</text>
</g>
<!-- Node12&#45;&gt;Node15 -->
<g id="edge24" class="edge"><title>Node12&#45;&gt;Node15</title>
<path fill="none" stroke="midnightblue" d="M547.643,-220.45C564.28,-211.89 590.828,-198.229 610.296,-188.212"/>
<polygon fill="midnightblue" stroke="midnightblue" points="611.919,-191.313 619.209,-183.625 608.716,-185.089 611.919,-191.313"/>
</g>
<!-- Node16 -->
<g id="node16" class="node"><title>Node16</title>
<polygon fill="white" stroke="#bfbfbf" points="483.488,-55.5 483.488,-73.5 534.512,-73.5 534.512,-55.5 483.488,-55.5"/>
<text text-anchor="middle" x="509" y="-61.5" font-family="Helvetica,sans-Serif" font-size="10.00">unistd.h</text>
</g>
<!-- Node12&#45;&gt;Node16 -->
<g id="edge25" class="edge"><title>Node12&#45;&gt;Node16</title>
<path fill="none" stroke="midnightblue" d="M530.828,-220.193C527.275,-195.013 516.565,-119.114 511.591,-83.8621"/>
<polygon fill="midnightblue" stroke="midnightblue" points="515.005,-83.01 510.143,-73.5971 508.074,-83.9881 515.005,-83.01"/>
</g>
<!-- Node17 -->
<g id="node17" class="node"><title>Node17</title>
<g id="a_node17"><a xlink:href="tcp_vehicle_socket_comm_8h.html" target="_top" xlink:title="Vehicle connection server&#39;s headers. ">
<polygon fill="white" stroke="black" points="744.027,-110.5 744.027,-128.5 873.973,-128.5 873.973,-110.5 744.027,-110.5"/>
<text text-anchor="middle" x="809" y="-116.5" font-family="Helvetica,sans-Serif" font-size="10.00">tcpVehicleSocketComm.h</text>
</a>
</g>
</g>
<!-- Node12&#45;&gt;Node17 -->
<g id="edge28" class="edge"><title>Node12&#45;&gt;Node17</title>
<path fill="none" stroke="midnightblue" d="M566.316,-220.478C598.736,-213.148 648.032,-200.877 689,-184 722.707,-170.114 758.841,-147.916 782.796,-133.783"/>
<polygon fill="midnightblue" stroke="midnightblue" points="784.779,-136.678 791.657,-128.619 781.255,-130.63 784.779,-136.678"/>
</g>
<!-- Node19 -->
<g id="node19" class="node"><title>Node19</title>
<g id="a_node19"><a xlink:href="station_actions_8h.html" target="_top" xlink:title="FIle containing all the station action headers. ">
<polygon fill="white" stroke="black" points="374.702,-165.5 374.702,-183.5 461.298,-183.5 461.298,-165.5 374.702,-165.5"/>
<text text-anchor="middle" x="418" y="-171.5" font-family="Helvetica,sans-Serif" font-size="10.00">stationActions.h</text>
</a>
</g>
</g>
<!-- Node12&#45;&gt;Node19 -->
<g id="edge62" class="edge"><title>Node12&#45;&gt;Node19</title>
<path fill="none" stroke="midnightblue" d="M509.677,-220.45C489.273,-211.89 459.606,-198.229 439.481,-188.212"/>
<polygon fill="midnightblue" stroke="midnightblue" points="440.951,-185.033 430.45,-183.625 437.781,-191.274 440.951,-185.033"/>
</g>
<!-- Node17&#45;&gt;Node3 -->
<g id="edge29" class="edge"><title>Node17&#45;&gt;Node3</title>
<path fill="none" stroke="midnightblue" d="M813.98,-110.286C821.39,-96.8912 833.023,-70.3051 819,-55 786.909,-19.9747 451.552,-12.4002 343.999,-10.8667"/>
<polygon fill="midnightblue" stroke="midnightblue" points="343.791,-7.3637 333.745,-10.7292 343.698,-14.3631 343.791,-7.3637"/>
</g>
<!-- Node17&#45;&gt;Node5 -->
<g id="edge35" class="edge"><title>Node17&#45;&gt;Node5</title>
<path fill="none" stroke="midnightblue" d="M828.896,-110.45C850.633,-101.656 885.672,-87.4802 910.585,-77.4006"/>
<polygon fill="midnightblue" stroke="midnightblue" points="911.959,-80.6204 919.917,-73.6253 909.334,-74.1313 911.959,-80.6204"/>
</g>
<!-- Node17&#45;&gt;Node6 -->
<g id="edge33" class="edge"><title>Node17&#45;&gt;Node6</title>
<path fill="none" stroke="midnightblue" d="M821.464,-110.419C838.944,-98.093 867.009,-74.0237 852,-55 834.48,-32.7936 757.891,-20.4346 708.62,-14.6515"/>
<polygon fill="midnightblue" stroke="midnightblue" points="708.881,-11.1589 698.552,-13.5161 708.097,-18.1148 708.881,-11.1589"/>
</g>
<!-- Node17&#45;&gt;Node7 -->
<g id="edge34" class="edge"><title>Node17&#45;&gt;Node7</title>
<path fill="none" stroke="midnightblue" d="M841.806,-110.45C879.748,-101.141 942.27,-85.7994 983.545,-75.6719"/>
<polygon fill="midnightblue" stroke="midnightblue" points="984.417,-79.0617 993.295,-73.2794 982.749,-72.2633 984.417,-79.0617"/>
</g>
<!-- Node17&#45;&gt;Node8 -->
<g id="edge37" class="edge"><title>Node17&#45;&gt;Node8</title>
<path fill="none" stroke="midnightblue" d="M743.634,-110.957C740.716,-110.631 737.828,-110.311 735,-110 596.749,-94.8054 433.008,-77.9408 355.687,-70.0447"/>
<polygon fill="midnightblue" stroke="midnightblue" points="355.665,-66.5244 345.362,-68.9911 354.955,-73.4882 355.665,-66.5244"/>
</g>
<!-- Node17&#45;&gt;Node10 -->
<g id="edge38" class="edge"><title>Node17&#45;&gt;Node10</title>
<path fill="none" stroke="midnightblue" d="M801.886,-128.53C782.487,-149.917 726.15,-208.685 667,-239 627.311,-259.34 577.622,-270.871 541.691,-277.071"/>
<polygon fill="midnightblue" stroke="midnightblue" points="540.773,-273.675 531.476,-278.754 541.912,-280.581 540.773,-273.675"/>
</g>
<!-- Node17&#45;&gt;Node12 -->
<g id="edge39" class="edge"><title>Node17&#45;&gt;Node12</title>
<path fill="none" stroke="midnightblue" d="M802.753,-128.619C786.477,-141.877 745.182,-168.271 707,-184 669.085,-199.619 624.037,-211.293 589.049,-218.757"/>
<polygon fill="midnightblue" stroke="midnightblue" points="588.078,-215.384 578.999,-220.843 589.502,-222.237 588.078,-215.384"/>
</g>
<!-- Node17&#45;&gt;Node13 -->
<g id="edge32" class="edge"><title>Node17&#45;&gt;Node13</title>
<path fill="none" stroke="midnightblue" d="M805.406,-110.219C802.248,-102.942 797.549,-92.1134 793.566,-82.9345"/>
<polygon fill="midnightblue" stroke="midnightblue" points="796.685,-81.3297 789.493,-73.5496 790.263,-84.1164 796.685,-81.3297"/>
</g>
<!-- Node17&#45;&gt;Node14 -->
<g id="edge30" class="edge"><title>Node17&#45;&gt;Node14</title>
<path fill="none" stroke="midnightblue" d="M773.612,-110.45C729.18,-100.343 653.497,-83.1281 609.816,-73.1921"/>
<polygon fill="midnightblue" stroke="midnightblue" points="610.488,-69.7555 599.961,-70.9503 608.935,-76.5812 610.488,-69.7555"/>
</g>
<!-- Node17&#45;&gt;Node16 -->
<g id="edge31" class="edge"><title>Node17&#45;&gt;Node16</title>
<path fill="none" stroke="midnightblue" d="M753.229,-110.485C701.456,-102.748 622.039,-90.1272 544.505,-74.1865"/>
<polygon fill="midnightblue" stroke="midnightblue" points="545.073,-70.7297 534.57,-72.1231 543.649,-77.5834 545.073,-70.7297"/>
</g>
<!-- Node18 -->
<g id="node18" class="node"><title>Node18</title>
<polygon fill="white" stroke="#bfbfbf" points="694.318,-55.5 694.318,-73.5 743.682,-73.5 743.682,-55.5 694.318,-55.5"/>
<text text-anchor="middle" x="719" y="-61.5" font-family="Helvetica,sans-Serif" font-size="10.00">netdb.h</text>
</g>
<!-- Node17&#45;&gt;Node18 -->
<g id="edge36" class="edge"><title>Node17&#45;&gt;Node18</title>
<path fill="none" stroke="midnightblue" d="M795.331,-110.45C781.058,-102.045 758.437,-88.7241 741.52,-78.7618"/>
<polygon fill="midnightblue" stroke="midnightblue" points="743.191,-75.6838 732.798,-73.6253 739.639,-81.7157 743.191,-75.6838"/>
</g>
<!-- Node17&#45;&gt;Node19 -->
<g id="edge40" class="edge"><title>Node17&#45;&gt;Node19</title>
<path fill="none" stroke="midnightblue" d="M754.805,-128.524C680.009,-138.994 546.158,-157.121 471.648,-166.859"/>
<polygon fill="midnightblue" stroke="midnightblue" points="471.004,-163.413 461.54,-168.175 471.909,-170.354 471.004,-163.413"/>
</g>
<!-- Node19&#45;&gt;Node2 -->
<g id="edge61" class="edge"><title>Node19&#45;&gt;Node2</title>
<path fill="none" stroke="midnightblue" d="M374.653,-176.867C310.857,-179.894 196.465,-189.537 171,-220 165.584,-226.479 165.642,-232.473 171,-239 236.592,-318.896 559.243,-334.669 694.823,-337.759"/>
<polygon fill="midnightblue" stroke="midnightblue" points="694.959,-341.262 705.031,-337.975 695.107,-334.264 694.959,-341.262"/>
</g>
<!-- Node19&#45;&gt;Node3 -->
<g id="edge41" class="edge"><title>Node19&#45;&gt;Node3</title>
<path fill="none" stroke="midnightblue" d="M414.511,-165.291C405.849,-145.373 382.03,-93.3045 354,-55 346.308,-44.4878 336.256,-33.9508 327.805,-25.7708"/>
<polygon fill="midnightblue" stroke="midnightblue" points="330.004,-23.0334 320.323,-18.7279 325.206,-28.1306 330.004,-23.0334"/>
</g>
<!-- Node19&#45;&gt;Node8 -->
<g id="edge45" class="edge"><title>Node19&#45;&gt;Node8</title>
<path fill="none" stroke="midnightblue" d="M407.638,-165.396C396.849,-156.786 379.652,-142.571 366,-129 350.704,-113.795 334.728,-94.9685 323.961,-81.7774"/>
<polygon fill="midnightblue" stroke="midnightblue" points="326.414,-79.2444 317.411,-73.6592 320.966,-83.6398 326.414,-79.2444"/>
</g>
<!-- Node19&#45;&gt;Node9 -->
<g id="edge43" class="edge"><title>Node19&#45;&gt;Node9</title>
<path fill="none" stroke="midnightblue" d="M404.115,-165.417C359.051,-139.183 216.578,-56.2433 160.752,-23.745"/>
<polygon fill="midnightblue" stroke="midnightblue" points="162.372,-20.6383 151.969,-18.632 158.85,-26.6879 162.372,-20.6383"/>
</g>
<!-- Node19&#45;&gt;Node10 -->
<g id="edge47" class="edge"><title>Node19&#45;&gt;Node10</title>
<path fill="none" stroke="midnightblue" d="M423.779,-183.712C436.274,-201.468 466.006,-243.719 482.493,-267.148"/>
<polygon fill="midnightblue" stroke="midnightblue" points="479.67,-269.219 488.288,-275.382 485.395,-265.19 479.67,-269.219"/>
</g>
<!-- Node19&#45;&gt;Node12 -->
<g id="edge46" class="edge"><title>Node19&#45;&gt;Node12</title>
<path fill="none" stroke="midnightblue" d="M440.504,-183.625C460.962,-192.216 490.628,-205.881 510.697,-215.877"/>
<polygon fill="midnightblue" stroke="midnightblue" points="509.195,-219.039 519.695,-220.45 512.367,-212.799 509.195,-219.039"/>
</g>
<!-- Node19&#45;&gt;Node14 -->
<g id="edge42" class="edge"><title>Node19&#45;&gt;Node14</title>
<path fill="none" stroke="midnightblue" d="M429.876,-165.382C456.64,-147.088 521.942,-102.451 555.44,-79.5536"/>
<polygon fill="midnightblue" stroke="midnightblue" points="557.706,-82.2444 563.987,-73.7118 553.756,-76.4654 557.706,-82.2444"/>
</g>
<!-- Node19&#45;&gt;Node16 -->
<g id="edge44" class="edge"><title>Node19&#45;&gt;Node16</title>
<path fill="none" stroke="midnightblue" d="M424.84,-165.382C439.794,-147.635 475.635,-105.098 495.379,-81.6656"/>
<polygon fill="midnightblue" stroke="midnightblue" points="498.314,-83.6143 502.081,-73.7118 492.961,-79.1038 498.314,-83.6143"/>
</g>
<!-- Node19&#45;&gt;Node17 -->
<g id="edge60" class="edge"><title>Node19&#45;&gt;Node17</title>
<path fill="none" stroke="midnightblue" d="M461.33,-167.001C527.371,-157.697 653.806,-140.528 734.679,-129.857"/>
<polygon fill="midnightblue" stroke="midnightblue" points="735.34,-133.3 744.798,-128.524 734.426,-126.36 735.34,-133.3"/>
</g>
<!-- Node20 -->
<g id="node20" class="node"><title>Node20</title>
<g id="a_node20"><a xlink:href="tcp_server_socket_comm_8h.html" target="_top" xlink:title="Server connection related function definitions. ">
<polygon fill="white" stroke="black" points="598.426,-110.5 598.426,-128.5 725.574,-128.5 725.574,-110.5 598.426,-110.5"/>
<text text-anchor="middle" x="662" y="-116.5" font-family="Helvetica,sans-Serif" font-size="10.00">tcpServerSocketComm.h</text>
</a>
</g>
</g>
<!-- Node19&#45;&gt;Node20 -->
<g id="edge48" class="edge"><title>Node19&#45;&gt;Node20</title>
<path fill="none" stroke="midnightblue" d="M455.058,-165.45C497.909,-156.143 568.513,-140.807 615.138,-130.679"/>
<polygon fill="midnightblue" stroke="midnightblue" points="615.964,-134.081 624.993,-128.538 614.478,-127.241 615.964,-134.081"/>
</g>
<!-- Node20&#45;&gt;Node3 -->
<g id="edge49" class="edge"><title>Node20&#45;&gt;Node3</title>
<path fill="none" stroke="midnightblue" d="M657.75,-110.237C650.088,-96.2693 632.538,-68.2204 609,-55 564.085,-29.7723 411.881,-17.0223 344.069,-12.4833"/>
<polygon fill="midnightblue" stroke="midnightblue" points="344.146,-8.98099 333.94,-11.8247 343.692,-15.9662 344.146,-8.98099"/>
</g>
<!-- Node20&#45;&gt;Node5 -->
<g id="edge55" class="edge"><title>Node20&#45;&gt;Node5</title>
<path fill="none" stroke="midnightblue" d="M704.222,-110.45C755.486,-100.677 841.616,-84.2567 894.37,-74.1992"/>
<polygon fill="midnightblue" stroke="midnightblue" points="895.288,-77.5873 904.456,-72.2764 893.977,-70.7112 895.288,-77.5873"/>
</g>
<!-- Node20&#45;&gt;Node6 -->
<g id="edge53" class="edge"><title>Node20&#45;&gt;Node6</title>
<path fill="none" stroke="midnightblue" d="M662.301,-110.382C662.938,-93.1822 664.437,-52.698 665.319,-28.8866"/>
<polygon fill="midnightblue" stroke="midnightblue" points="668.823,-28.8345 665.696,-18.7118 661.828,-28.5753 668.823,-28.8345"/>
</g>
<!-- Node20&#45;&gt;Node7 -->
<g id="edge54" class="edge"><title>Node20&#45;&gt;Node7</title>
<path fill="none" stroke="midnightblue" d="M725.645,-111.114C788.711,-103.482 888.274,-90.5955 983.114,-74.2328"/>
<polygon fill="midnightblue" stroke="midnightblue" points="983.912,-77.6465 993.164,-72.4826 982.711,-70.7503 983.912,-77.6465"/>
</g>
<!-- Node20&#45;&gt;Node8 -->
<g id="edge57" class="edge"><title>Node20&#45;&gt;Node8</title>
<path fill="none" stroke="midnightblue" d="M608.691,-110.45C539.476,-99.9992 419.923,-81.947 355.39,-72.2027"/>
<polygon fill="midnightblue" stroke="midnightblue" points="355.552,-68.6877 345.142,-70.6553 354.507,-75.6092 355.552,-68.6877"/>
</g>
<!-- Node20&#45;&gt;Node10 -->
<g id="edge58" class="edge"><title>Node20&#45;&gt;Node10</title>
<path fill="none" stroke="midnightblue" d="M672.806,-128.836C687.323,-141.085 709.992,-164.596 698,-184 664.154,-238.764 590.42,-264.154 541.497,-275.357"/>
<polygon fill="midnightblue" stroke="midnightblue" points="540.486,-271.995 531.457,-277.538 541.972,-278.835 540.486,-271.995"/>
</g>
<!-- Node20&#45;&gt;Node12 -->
<g id="edge59" class="edge"><title>Node20&#45;&gt;Node12</title>
<path fill="none" stroke="midnightblue" d="M668.665,-128.714C678.3,-141.645 693.649,-167.021 681,-184 660.043,-212.131 621.974,-223.17 589.563,-227.22"/>
<polygon fill="midnightblue" stroke="midnightblue" points="588.847,-223.775 579.268,-228.302 589.579,-230.737 588.847,-223.775"/>
</g>
<!-- Node20&#45;&gt;Node13 -->
<g id="edge52" class="edge"><title>Node20&#45;&gt;Node13</title>
<path fill="none" stroke="midnightblue" d="M680.833,-110.45C701.226,-101.734 733.989,-87.7306 757.529,-77.6691"/>
<polygon fill="midnightblue" stroke="midnightblue" points="759.17,-80.774 766.99,-73.6253 756.419,-74.3373 759.17,-80.774"/>
</g>
<!-- Node20&#45;&gt;Node14 -->
<g id="edge50" class="edge"><title>Node20&#45;&gt;Node14</title>
<path fill="none" stroke="midnightblue" d="M648.938,-110.45C635.426,-102.123 614.084,-88.9704 597.97,-79.0394"/>
<polygon fill="midnightblue" stroke="midnightblue" points="599.534,-75.8922 589.184,-73.6253 595.861,-81.8515 599.534,-75.8922"/>
</g>
<!-- Node20&#45;&gt;Node16 -->
<g id="edge51" class="edge"><title>Node20&#45;&gt;Node16</title>
<path fill="none" stroke="midnightblue" d="M638.763,-110.45C613.038,-101.539 571.363,-87.1029 542.202,-77.0014"/>
<polygon fill="midnightblue" stroke="midnightblue" points="543.051,-73.5914 532.456,-73.6253 540.76,-80.2058 543.051,-73.5914"/>
</g>
<!-- Node20&#45;&gt;Node18 -->
<g id="edge56" class="edge"><title>Node20&#45;&gt;Node18</title>
<path fill="none" stroke="midnightblue" d="M670.906,-110.219C679.405,-102.316 692.41,-90.2241 702.754,-80.6057"/>
<polygon fill="midnightblue" stroke="midnightblue" points="705.403,-82.9222 710.343,-73.5496 700.636,-77.7958 705.403,-82.9222"/>
</g>
</g>
</svg>
