<?xml version="1.0" encoding="UTF-8" standalone="no"?>
<!DOCTYPE svg PUBLIC "-//W3C//DTD SVG 1.1//EN"
 "http://www.w3.org/Graphics/SVG/1.1/DTD/svg11.dtd">
<!-- Generated by graphviz version 2.38.0 (20140413.2041)
 -->
<!-- Title: MCM_senderThread Pages: 1 -->
<svg width="506pt" height="27pt"
 viewBox="0.00 0.00 506.23 27.00" xmlns="http://www.w3.org/2000/svg" xmlns:xlink="http://www.w3.org/1999/xlink">
<g id="graph0" class="graph" transform="scale(1 1) rotate(0) translate(4 23)">
<title>MCM_senderThread</title>
<polygon fill="white" stroke="none" points="-4,4 -4,-23 502.226,-23 502.226,4 -4,4"/>
<!-- Node1 -->
<g id="node1" class="node"><title>Node1</title>
<polygon fill="#bfbfbf" stroke="black" points="0,-0.5 0,-18.5 107.704,-18.5 107.704,-0.5 0,-0.5"/>
<text text-anchor="middle" x="53.8521" y="-6.5" font-family="Helvetica,sans-Serif" font-size="10.00">MCM_senderThread</text>
</g>
<!-- Node2 -->
<g id="node2" class="node"><title>Node2</title>
<g id="a_node2"><a xlink:href="mcast_messaging_8h.html#a4fd8b31a6cdd8fa515f1b3680a754def" target="_top" xlink:title="Intialize the multicast UDP listener and sender. ">
<polygon fill="white" stroke="black" points="143.704,-0.5 143.704,-18.5 258.054,-18.5 258.054,-0.5 143.704,-0.5"/>
<text text-anchor="middle" x="200.879" y="-6.5" font-family="Helvetica,sans-Serif" font-size="10.00">MCM_initMcastServer</text>
</a>
</g>
</g>
<!-- Node1&#45;&gt;Node2 -->
<g id="edge1" class="edge"><title>Node1&#45;&gt;Node2</title>
<path fill="none" stroke="midnightblue" d="M118.13,-9.5C126.503,-9.5 135.042,-9.5 143.292,-9.5"/>
<polygon fill="midnightblue" stroke="midnightblue" points="118.031,-6.0001 108.031,-9.5 118.031,-13.0001 118.031,-6.0001"/>
</g>
<!-- Node3 -->
<g id="node3" class="node"><title>Node3</title>
<g id="a_node3"><a xlink:href="main_8c.html#a82a03c8bafdc8925bacf4693a1c5e794" target="_top" xlink:title="Thread for controlling the multicast server initialization and shutdown. ">
<polygon fill="white" stroke="black" points="294.054,-0.5 294.054,-18.5 424.551,-18.5 424.551,-0.5 294.054,-0.5"/>
<text text-anchor="middle" x="359.302" y="-6.5" font-family="Helvetica,sans-Serif" font-size="10.00">mcastConnControlThread</text>
</a>
</g>
</g>
<!-- Node2&#45;&gt;Node3 -->
<g id="edge2" class="edge"><title>Node2&#45;&gt;Node3</title>
<path fill="none" stroke="midnightblue" d="M268.514,-9.5C276.942,-9.5 285.553,-9.5 293.945,-9.5"/>
<polygon fill="midnightblue" stroke="midnightblue" points="268.351,-6.0001 258.351,-9.5 268.351,-13.0001 268.351,-6.0001"/>
</g>
<!-- Node4 -->
<g id="node4" class="node"><title>Node4</title>
<g id="a_node4"><a xlink:href="main_8c.html#ac0f2228420376f4db7e1274f2b41667c" target="_top" xlink:title="main">
<polygon fill="white" stroke="black" points="460.551,-0.5 460.551,-18.5 498.226,-18.5 498.226,-0.5 460.551,-0.5"/>
<text text-anchor="middle" x="479.388" y="-6.5" font-family="Helvetica,sans-Serif" font-size="10.00">main</text>
</a>
</g>
</g>
<!-- Node3&#45;&gt;Node4 -->
<g id="edge3" class="edge"><title>Node3&#45;&gt;Node4</title>
<path fill="none" stroke="midnightblue" d="M434.916,-9.5C444.396,-9.5 453.299,-9.5 460.55,-9.5"/>
<polygon fill="midnightblue" stroke="midnightblue" points="434.873,-6.0001 424.873,-9.5 434.873,-13.0001 434.873,-6.0001"/>
</g>
</g>
</svg>
