<?xml version="1.0" encoding="UTF-8" standalone="no"?>
<!DOCTYPE svg PUBLIC "-//W3C//DTD SVG 1.1//EN"
 "http://www.w3.org/Graphics/SVG/1.1/DTD/svg11.dtd">
<!-- Generated by graphviz version 2.38.0 (20140413.2041)
 -->
<!-- Title: MCM_listenerThread Pages: 1 -->
<svg width="398pt" height="64pt"
 viewBox="0.00 0.00 397.54 64.00" xmlns="http://www.w3.org/2000/svg" xmlns:xlink="http://www.w3.org/1999/xlink">
<g id="graph0" class="graph" transform="scale(1 1) rotate(0) translate(4 60)">
<title>MCM_listenerThread</title>
<polygon fill="white" stroke="none" points="-4,4 -4,-60 393.536,-60 393.536,4 -4,4"/>
<!-- Node1 -->
<g id="node1" class="node"><title>Node1</title>
<polygon fill="#bfbfbf" stroke="black" points="0,-18.5 0,-36.5 109.364,-36.5 109.364,-18.5 0,-18.5"/>
<text text-anchor="middle" x="54.6821" y="-24.5" font-family="Helvetica,sans-Serif" font-size="10.00">MCM_listenerThread</text>
</g>
<!-- Node2 -->
<g id="node2" class="node"><title>Node2</title>
<g id="a_node2"><a xlink:href="message_parser_8c.html#a1e095af9fe3f1bd7c5a708d797e52bb9" target="_top" xlink:title="Message decoupler and receiver function. ">
<polygon fill="white" stroke="black" points="145.364,-37.5 145.364,-55.5 261.96,-55.5 261.96,-37.5 145.364,-37.5"/>
<text text-anchor="middle" x="203.662" y="-43.5" font-family="Helvetica,sans-Serif" font-size="10.00">MP_messageReceiver</text>
</a>
</g>
</g>
<!-- Node1&#45;&gt;Node2 -->
<g id="edge1" class="edge"><title>Node1&#45;&gt;Node2</title>
<path fill="none" stroke="midnightblue" d="M109.577,-34.467C117.939,-35.548 126.666,-36.6761 135.281,-37.7897"/>
<polygon fill="midnightblue" stroke="midnightblue" points="134.947,-41.2755 145.313,-39.0865 135.844,-34.3333 134.947,-41.2755"/>
</g>
<!-- Node4 -->
<g id="node4" class="node"><title>Node4</title>
<g id="a_node4"><a xlink:href="msg_buffers_8c.html#a94d8920e20c5150892cf23b81eb1dfd6" target="_top" xlink:title="Put a message into the buffer. ">
<polygon fill="white" stroke="black" points="158.143,-0.5 158.143,-18.5 249.182,-18.5 249.182,-0.5 158.143,-0.5"/>
<text text-anchor="middle" x="203.662" y="-6.5" font-family="Helvetica,sans-Serif" font-size="10.00">MB_putMessage</text>
</a>
</g>
</g>
<!-- Node1&#45;&gt;Node4 -->
<g id="edge3" class="edge"><title>Node1&#45;&gt;Node4</title>
<path fill="none" stroke="midnightblue" d="M109.577,-20.8997C121.995,-19.379 135.218,-17.7596 147.681,-16.2333"/>
<polygon fill="midnightblue" stroke="midnightblue" points="148.436,-19.6671 157.937,-14.9773 147.585,-12.719 148.436,-19.6671"/>
</g>
<!-- Node3 -->
<g id="node3" class="node"><title>Node3</title>
<g id="a_node3"><a xlink:href="message_parser_8c.html#a0026bd717404e4c2f9df87d137721377" target="_top" xlink:title="Message structure initializer. ">
<polygon fill="white" stroke="black" points="297.96,-37.5 297.96,-55.5 389.536,-55.5 389.536,-37.5 297.96,-37.5"/>
<text text-anchor="middle" x="343.748" y="-43.5" font-family="Helvetica,sans-Serif" font-size="10.00">MP_initMsgStruc</text>
</a>
</g>
</g>
<!-- Node2&#45;&gt;Node3 -->
<g id="edge2" class="edge"><title>Node2&#45;&gt;Node3</title>
<path fill="none" stroke="midnightblue" d="M262.023,-46.5C270.452,-46.5 279.12,-46.5 287.505,-46.5"/>
<polygon fill="midnightblue" stroke="midnightblue" points="287.557,-50.0001 297.557,-46.5 287.557,-43.0001 287.557,-50.0001"/>
</g>
</g>
</svg>
