<?xml version="1.0" encoding="UTF-8" standalone="no"?>
<!DOCTYPE svg PUBLIC "-//W3C//DTD SVG 1.1//EN"
 "http://www.w3.org/Graphics/SVG/1.1/DTD/svg11.dtd">
<!-- Generated by graphviz version 2.38.0 (20140413.2041)
 -->
<!-- Title: MCM_initStationGroup Pages: 1 -->
<svg width="516pt" height="27pt"
 viewBox="0.00 0.00 515.67 27.00" xmlns="http://www.w3.org/2000/svg" xmlns:xlink="http://www.w3.org/1999/xlink">
<g id="graph0" class="graph" transform="scale(1 1) rotate(0) translate(4 23)">
<title>MCM_initStationGroup</title>
<polygon fill="white" stroke="none" points="-4,4 -4,-23 511.674,-23 511.674,4 -4,4"/>
<!-- Node1 -->
<g id="node1" class="node"><title>Node1</title>
<polygon fill="#bfbfbf" stroke="black" points="0,-0.5 0,-18.5 117.152,-18.5 117.152,-0.5 0,-0.5"/>
<text text-anchor="middle" x="58.5762" y="-6.5" font-family="Helvetica,sans-Serif" font-size="10.00">MCM_initStationGroup</text>
</g>
<!-- Node2 -->
<g id="node2" class="node"><title>Node2</title>
<g id="a_node2"><a xlink:href="mcast_messaging_8h.html#a4fd8b31a6cdd8fa515f1b3680a754def" target="_top" xlink:title="Intialize the multicast UDP listener and sender. ">
<polygon fill="white" stroke="black" points="153.152,-0.5 153.152,-18.5 267.502,-18.5 267.502,-0.5 153.152,-0.5"/>
<text text-anchor="middle" x="210.327" y="-6.5" font-family="Helvetica,sans-Serif" font-size="10.00">MCM_initMcastServer</text>
</a>
</g>
</g>
<!-- Node1&#45;&gt;Node2 -->
<g id="edge1" class="edge"><title>Node1&#45;&gt;Node2</title>
<path fill="none" stroke="midnightblue" d="M127.725,-9.5C136.201,-9.5 144.793,-9.5 153.061,-9.5"/>
<polygon fill="midnightblue" stroke="midnightblue" points="127.474,-6.0001 117.474,-9.5 127.474,-13.0001 127.474,-6.0001"/>
</g>
<!-- Node3 -->
<g id="node3" class="node"><title>Node3</title>
<g id="a_node3"><a xlink:href="main_8c.html#a82a03c8bafdc8925bacf4693a1c5e794" target="_top" xlink:title="Thread for controlling the multicast server initialization and shutdown. ">
<polygon fill="white" stroke="black" points="303.502,-0.5 303.502,-18.5 433.999,-18.5 433.999,-0.5 303.502,-0.5"/>
<text text-anchor="middle" x="368.75" y="-6.5" font-family="Helvetica,sans-Serif" font-size="10.00">mcastConnControlThread</text>
</a>
</g>
</g>
<!-- Node2&#45;&gt;Node3 -->
<g id="edge2" class="edge"><title>Node2&#45;&gt;Node3</title>
<path fill="none" stroke="midnightblue" d="M277.962,-9.5C286.39,-9.5 295.002,-9.5 303.393,-9.5"/>
<polygon fill="midnightblue" stroke="midnightblue" points="277.8,-6.0001 267.8,-9.5 277.8,-13.0001 277.8,-6.0001"/>
</g>
<!-- Node4 -->
<g id="node4" class="node"><title>Node4</title>
<g id="a_node4"><a xlink:href="main_8c.html#ac0f2228420376f4db7e1274f2b41667c" target="_top" xlink:title="main">
<polygon fill="white" stroke="black" points="469.999,-0.5 469.999,-18.5 507.674,-18.5 507.674,-0.5 469.999,-0.5"/>
<text text-anchor="middle" x="488.836" y="-6.5" font-family="Helvetica,sans-Serif" font-size="10.00">main</text>
</a>
</g>
</g>
<!-- Node3&#45;&gt;Node4 -->
<g id="edge3" class="edge"><title>Node3&#45;&gt;Node4</title>
<path fill="none" stroke="midnightblue" d="M444.364,-9.5C453.844,-9.5 462.748,-9.5 469.998,-9.5"/>
<polygon fill="midnightblue" stroke="midnightblue" points="444.322,-6.0001 434.322,-9.5 444.321,-13.0001 444.322,-6.0001"/>
</g>
</g>
</svg>
