<?xml version="1.0" encoding="UTF-8" standalone="no"?>
<!DOCTYPE svg PUBLIC "-//W3C//DTD SVG 1.1//EN"
 "http://www.w3.org/Graphics/SVG/1.1/DTD/svg11.dtd">
<!-- Generated by graphviz version 2.38.0 (20140413.2041)
 -->
<!-- Title: rasPi&#45;EmergencyStation/mcastMessaging.h Pages: 1 -->
<svg width="721pt" height="492pt"
 viewBox="0.00 0.00 720.87 492.00" xmlns="http://www.w3.org/2000/svg" xmlns:xlink="http://www.w3.org/1999/xlink">
<g id="graph0" class="graph" transform="scale(1 1) rotate(0) translate(4 488)">
<title>rasPi&#45;EmergencyStation/mcastMessaging.h</title>
<polygon fill="white" stroke="none" points="-4,4 -4,-488 716.874,-488 716.874,4 -4,4"/>
<!-- Node1 -->
<g id="node1" class="node"><title>Node1</title>
<polygon fill="#bfbfbf" stroke="black" points="496,-455.5 496,-483.5 619.822,-483.5 619.822,-455.5 496,-455.5"/>
<text text-anchor="start" x="504" y="-471.5" font-family="Helvetica,sans-Serif" font-size="10.00">rasPi&#45;EmergencyStation</text>
<text text-anchor="middle" x="557.911" y="-461.5" font-family="Helvetica,sans-Serif" font-size="10.00">/mcastMessaging.h</text>
</g>
<!-- Node2 -->
<g id="node2" class="node"><title>Node2</title>
<g id="a_node2"><a xlink:href="station_actions_8h.html" target="_top" xlink:title="FIle containing all the station action headers. ">
<polygon fill="white" stroke="black" points="354,-390.5 354,-418.5 477.822,-418.5 477.822,-390.5 354,-390.5"/>
<text text-anchor="start" x="362" y="-406.5" font-family="Helvetica,sans-Serif" font-size="10.00">rasPi&#45;EmergencyStation</text>
<text text-anchor="middle" x="415.911" y="-396.5" font-family="Helvetica,sans-Serif" font-size="10.00">/stationActions.h</text>
</a>
</g>
</g>
<!-- Node1&#45;&gt;Node2 -->
<g id="edge1" class="edge"><title>Node1&#45;&gt;Node2</title>
<path fill="none" stroke="midnightblue" d="M519.227,-451.337C495.92,-440.997 466.706,-428.036 445.296,-418.537"/>
<polygon fill="midnightblue" stroke="midnightblue" points="517.928,-454.59 528.489,-455.446 520.767,-448.192 517.928,-454.59"/>
</g>
<!-- Node14 -->
<g id="node14" class="node"><title>Node14</title>
<g id="a_node14"><a xlink:href="mcast_messaging_8c.html" target="_top" xlink:title="FIle containing all the definition of the functions related to multicast communication. ">
<polygon fill="white" stroke="black" points="496,-390.5 496,-418.5 619.822,-418.5 619.822,-390.5 496,-390.5"/>
<text text-anchor="start" x="504" y="-406.5" font-family="Helvetica,sans-Serif" font-size="10.00">rasPi&#45;EmergencyStation</text>
<text text-anchor="middle" x="557.911" y="-396.5" font-family="Helvetica,sans-Serif" font-size="10.00">/mcastMessaging.c</text>
</a>
</g>
</g>
<!-- Node1&#45;&gt;Node14 -->
<g id="edge27" class="edge"><title>Node1&#45;&gt;Node14</title>
<path fill="none" stroke="midnightblue" d="M557.911,-445.164C557.911,-436.169 557.911,-426.221 557.911,-418.537"/>
<polygon fill="midnightblue" stroke="midnightblue" points="554.411,-445.446 557.911,-455.446 561.411,-445.446 554.411,-445.446"/>
</g>
<!-- Node3 -->
<g id="node3" class="node"><title>Node3</title>
<g id="a_node3"><a xlink:href="tcp_vehicle_socket_comm_8h.html" target="_top" xlink:title="Vehicle connection server&#39;s headers. ">
<polygon fill="white" stroke="black" points="298.549,-325.5 298.549,-353.5 431.273,-353.5 431.273,-325.5 298.549,-325.5"/>
<text text-anchor="start" x="306.549" y="-341.5" font-family="Helvetica,sans-Serif" font-size="10.00">rasPi&#45;EmergencyStation</text>
<text text-anchor="middle" x="364.911" y="-331.5" font-family="Helvetica,sans-Serif" font-size="10.00">/tcpVehicleSocketComm.h</text>
</a>
</g>
</g>
<!-- Node2&#45;&gt;Node3 -->
<g id="edge2" class="edge"><title>Node2&#45;&gt;Node3</title>
<path fill="none" stroke="midnightblue" d="M392.771,-382.802C384.287,-373.159 375.502,-361.98 369.874,-353.537"/>
<polygon fill="midnightblue" stroke="midnightblue" points="390.424,-385.421 399.751,-390.446 395.593,-380.702 390.424,-385.421"/>
</g>
<!-- Node4 -->
<g id="node4" class="node"><title>Node4</title>
<g id="a_node4"><a xlink:href="message_parser_8h.html" target="_top" xlink:title="Message parser function headers. ">
<polygon fill="white" stroke="black" points="406,-260.5 406,-288.5 529.822,-288.5 529.822,-260.5 406,-260.5"/>
<text text-anchor="start" x="414" y="-276.5" font-family="Helvetica,sans-Serif" font-size="10.00">rasPi&#45;EmergencyStation</text>
<text text-anchor="middle" x="467.911" y="-266.5" font-family="Helvetica,sans-Serif" font-size="10.00">/messageParser.h</text>
</a>
</g>
</g>
<!-- Node2&#45;&gt;Node4 -->
<g id="edge24" class="edge"><title>Node2&#45;&gt;Node4</title>
<path fill="none" stroke="midnightblue" d="M419.107,-380.807C422.663,-372.468 427.183,-362.892 430.911,-354 440.367,-331.449 449.541,-304.461 457.273,-288.723"/>
<polygon fill="midnightblue" stroke="midnightblue" points="415.801,-379.649 415.366,-390.235 422.308,-382.231 415.801,-379.649"/>
</g>
<!-- Node5 -->
<g id="node5" class="node"><title>Node5</title>
<g id="a_node5"><a xlink:href="main_8h.html" target="_top" xlink:title="Main file&#39;s headers of the emergency station application. ">
<polygon fill="white" stroke="black" points="264,-65.5 264,-93.5 387.822,-93.5 387.822,-65.5 264,-65.5"/>
<text text-anchor="start" x="272" y="-81.5" font-family="Helvetica,sans-Serif" font-size="10.00">rasPi&#45;EmergencyStation</text>
<text text-anchor="middle" x="325.911" y="-71.5" font-family="Helvetica,sans-Serif" font-size="10.00">/main.h</text>
</a>
</g>
</g>
<!-- Node2&#45;&gt;Node5 -->
<g id="edge25" class="edge"><title>Node2&#45;&gt;Node5</title>
<path fill="none" stroke="midnightblue" d="M343.38,-398.811C265.227,-389.362 151.911,-360.93 151.911,-275.5 151.911,-275.5 151.911,-275.5 151.911,-208.5 151.911,-146.06 225.515,-110.696 276.979,-93.6002"/>
<polygon fill="midnightblue" stroke="midnightblue" points="343.352,-402.33 353.681,-399.973 344.136,-395.374 343.352,-402.33"/>
</g>
<!-- Node13 -->
<g id="node13" class="node"><title>Node13</title>
<g id="a_node13"><a xlink:href="station_actions_8c.html" target="_top" xlink:title="FIle containing all the station action definitions. ">
<polygon fill="white" stroke="black" points="0,-325.5 0,-353.5 123.822,-353.5 123.822,-325.5 0,-325.5"/>
<text text-anchor="start" x="8" y="-341.5" font-family="Helvetica,sans-Serif" font-size="10.00">rasPi&#45;EmergencyStation</text>
<text text-anchor="middle" x="61.9111" y="-331.5" font-family="Helvetica,sans-Serif" font-size="10.00">/stationActions.c</text>
</a>
</g>
</g>
<!-- Node2&#45;&gt;Node13 -->
<g id="edge26" class="edge"><title>Node2&#45;&gt;Node13</title>
<path fill="none" stroke="midnightblue" d="M343.727,-390.654C279.069,-379.147 185.243,-362.449 123.907,-351.533"/>
<polygon fill="midnightblue" stroke="midnightblue" points="343.385,-394.148 353.844,-392.454 344.612,-387.256 343.385,-394.148"/>
</g>
<!-- Node3&#45;&gt;Node2 -->
<g id="edge21" class="edge"><title>Node3&#45;&gt;Node2</title>
<path fill="none" stroke="midnightblue" d="M388.034,-361.179C396.518,-370.82 405.305,-381.999 410.937,-390.446"/>
<polygon fill="midnightblue" stroke="midnightblue" points="390.383,-358.561 381.055,-353.537 385.214,-363.281 390.383,-358.561"/>
</g>
<!-- Node3&#45;&gt;Node4 -->
<g id="edge3" class="edge"><title>Node3&#45;&gt;Node4</title>
<path fill="none" stroke="midnightblue" d="M389.252,-319.803C404.84,-309.738 424.944,-297.572 441.006,-288.537"/>
<polygon fill="midnightblue" stroke="midnightblue" points="387.097,-317.031 380.66,-325.446 390.94,-322.882 387.097,-317.031"/>
</g>
<!-- Node3&#45;&gt;Node5 -->
<g id="edge22" class="edge"><title>Node3&#45;&gt;Node5</title>
<path fill="none" stroke="midnightblue" d="M356.13,-315.828C347.574,-292.96 334.743,-256.489 326.911,-224 320.062,-195.585 319.14,-188.144 316.911,-159 315.928,-146.149 315.754,-142.837 316.911,-130 318.025,-117.647 320.672,-103.768 322.809,-93.8567"/>
<polygon fill="midnightblue" stroke="midnightblue" points="352.909,-317.204 359.727,-325.314 359.455,-314.723 352.909,-317.204"/>
</g>
<!-- Node12 -->
<g id="node12" class="node"><title>Node12</title>
<g id="a_node12"><a xlink:href="tcp_vehicle_socket_comm_8c.html" target="_top" xlink:title="Vehicle connection server related function definitions. ">
<polygon fill="white" stroke="black" points="179.83,-260.5 179.83,-288.5 311.992,-288.5 311.992,-260.5 179.83,-260.5"/>
<text text-anchor="start" x="187.83" y="-276.5" font-family="Helvetica,sans-Serif" font-size="10.00">rasPi&#45;EmergencyStation</text>
<text text-anchor="middle" x="245.911" y="-266.5" font-family="Helvetica,sans-Serif" font-size="10.00">/tcpVehicleSocketComm.c</text>
</a>
</g>
</g>
<!-- Node3&#45;&gt;Node12 -->
<g id="edge23" class="edge"><title>Node3&#45;&gt;Node12</title>
<path fill="none" stroke="midnightblue" d="M331.184,-320.644C311.876,-310.422 288.08,-297.825 270.536,-288.537"/>
<polygon fill="midnightblue" stroke="midnightblue" points="329.779,-323.861 340.254,-325.446 333.054,-317.674 329.779,-323.861"/>
</g>
<!-- Node4&#45;&gt;Node2 -->
<g id="edge18" class="edge"><title>Node4&#45;&gt;Node2</title>
<path fill="none" stroke="midnightblue" d="M468.002,-298.659C464.091,-314.426 456.594,-335.677 448.911,-354 443.667,-366.507 436.856,-380.369 430.294,-390.235"/>
<polygon fill="midnightblue" stroke="midnightblue" points="471.458,-299.23 470.095,-288.723 464.608,-297.787 471.458,-299.23"/>
</g>
<!-- Node4&#45;&gt;Node3 -->
<g id="edge17" class="edge"><title>Node4&#45;&gt;Node3</title>
<path fill="none" stroke="midnightblue" d="M443.599,-294.179C428.016,-304.241 407.913,-316.408 391.846,-325.446"/>
<polygon fill="midnightblue" stroke="midnightblue" points="445.751,-296.953 452.187,-288.537 441.908,-291.102 445.751,-296.953"/>
</g>
<!-- Node4&#45;&gt;Node5 -->
<g id="edge4" class="edge"><title>Node4&#45;&gt;Node5</title>
<path fill="none" stroke="midnightblue" d="M396.276,-258.86C376.865,-251.506 357.705,-240.488 344.911,-224 314.561,-184.887 319.67,-120.994 323.637,-93.6205"/>
<polygon fill="midnightblue" stroke="midnightblue" points="395.204,-262.193 405.798,-262.184 397.511,-255.584 395.204,-262.193"/>
</g>
<!-- Node7 -->
<g id="node7" class="node"><title>Node7</title>
<g id="a_node7"><a xlink:href="msg_buffers_8h.html" target="_top" xlink:title="File containing the headers of all functions related to the message mailboxes. ">
<polygon fill="white" stroke="black" points="496,-195.5 496,-223.5 619.822,-223.5 619.822,-195.5 496,-195.5"/>
<text text-anchor="start" x="504" y="-211.5" font-family="Helvetica,sans-Serif" font-size="10.00">rasPi&#45;EmergencyStation</text>
<text text-anchor="middle" x="557.911" y="-201.5" font-family="Helvetica,sans-Serif" font-size="10.00">/msgBuffers.h</text>
</a>
</g>
</g>
<!-- Node4&#45;&gt;Node7 -->
<g id="edge6" class="edge"><title>Node4&#45;&gt;Node7</title>
<path fill="none" stroke="midnightblue" d="M489.156,-254.236C502.562,-244.284 519.764,-232.403 533.697,-223.537"/>
<polygon fill="midnightblue" stroke="midnightblue" points="486.82,-251.615 480.966,-260.446 491.049,-257.193 486.82,-251.615"/>
</g>
<!-- Node8 -->
<g id="node8" class="node"><title>Node8</title>
<g id="a_node8"><a xlink:href="tcp_server_socket_comm_8h.html" target="_top" xlink:title="Server connection related function definitions. ">
<polygon fill="white" stroke="black" points="582.948,-130.5 582.948,-158.5 712.874,-158.5 712.874,-130.5 582.948,-130.5"/>
<text text-anchor="start" x="590.948" y="-146.5" font-family="Helvetica,sans-Serif" font-size="10.00">rasPi&#45;EmergencyStation</text>
<text text-anchor="middle" x="647.911" y="-136.5" font-family="Helvetica,sans-Serif" font-size="10.00">/tcpServerSocketComm.h</text>
</a>
</g>
</g>
<!-- Node4&#45;&gt;Node8 -->
<g id="edge19" class="edge"><title>Node4&#45;&gt;Node8</title>
<path fill="none" stroke="midnightblue" d="M539.989,-267.215C571.279,-260.88 605.946,-248.406 628.911,-224 645.727,-206.129 648.431,-176.008 648.459,-158.736"/>
<polygon fill="midnightblue" stroke="midnightblue" points="539.167,-263.807 529.967,-269.063 540.436,-270.691 539.167,-263.807"/>
</g>
<!-- Node11 -->
<g id="node11" class="node"><title>Node11</title>
<g id="a_node11"><a xlink:href="message_parser_8c.html" target="_top" xlink:title="Message parser functions definition. ">
<polygon fill="white" stroke="black" points="354,-195.5 354,-223.5 477.822,-223.5 477.822,-195.5 354,-195.5"/>
<text text-anchor="start" x="362" y="-211.5" font-family="Helvetica,sans-Serif" font-size="10.00">rasPi&#45;EmergencyStation</text>
<text text-anchor="middle" x="415.911" y="-201.5" font-family="Helvetica,sans-Serif" font-size="10.00">/messageParser.c</text>
</a>
</g>
</g>
<!-- Node4&#45;&gt;Node11 -->
<g id="edge20" class="edge"><title>Node4&#45;&gt;Node11</title>
<path fill="none" stroke="midnightblue" d="M450.588,-252.512C442.684,-242.936 433.571,-231.896 426.672,-223.537"/>
<polygon fill="midnightblue" stroke="midnightblue" points="448.072,-254.962 457.137,-260.446 453.47,-250.506 448.072,-254.962"/>
</g>
<!-- Node6 -->
<g id="node6" class="node"><title>Node6</title>
<g id="a_node6"><a xlink:href="main_8c.html" target="_top" xlink:title="Main file and functions of the emergency station application. ">
<polygon fill="white" stroke="black" points="264,-0.5 264,-28.5 387.822,-28.5 387.822,-0.5 264,-0.5"/>
<text text-anchor="start" x="272" y="-16.5" font-family="Helvetica,sans-Serif" font-size="10.00">rasPi&#45;EmergencyStation</text>
<text text-anchor="middle" x="325.911" y="-6.5" font-family="Helvetica,sans-Serif" font-size="10.00">/main.c</text>
</a>
</g>
</g>
<!-- Node5&#45;&gt;Node6 -->
<g id="edge5" class="edge"><title>Node5&#45;&gt;Node6</title>
<path fill="none" stroke="midnightblue" d="M325.911,-55.1641C325.911,-46.1693 325.911,-36.2205 325.911,-28.5369"/>
<polygon fill="midnightblue" stroke="midnightblue" points="322.411,-55.4463 325.911,-65.4464 329.411,-55.4464 322.411,-55.4463"/>
</g>
<!-- Node7&#45;&gt;Node1 -->
<g id="edge14" class="edge"><title>Node7&#45;&gt;Node1</title>
<path fill="none" stroke="midnightblue" d="M570.143,-233.212C587.295,-266.479 617.653,-330.929 628.911,-390 631.324,-402.661 634.874,-407.573 628.911,-419 620.43,-435.252 603.907,-447.256 588.934,-455.37"/>
<polygon fill="midnightblue" stroke="midnightblue" points="573.021,-231.163 565.28,-223.929 566.821,-234.411 573.021,-231.163"/>
</g>
<!-- Node7&#45;&gt;Node2 -->
<g id="edge9" class="edge"><title>Node7&#45;&gt;Node2</title>
<path fill="none" stroke="midnightblue" d="M555.837,-233.897C553.56,-250.245 548.806,-272.086 538.911,-289 512.836,-333.572 464.019,-371.245 436.372,-390.252"/>
<polygon fill="midnightblue" stroke="midnightblue" points="559.357,-233.925 557.05,-223.585 552.405,-233.107 559.357,-233.925"/>
</g>
<!-- Node7&#45;&gt;Node3 -->
<g id="edge8" class="edge"><title>Node7&#45;&gt;Node3</title>
<path fill="none" stroke="midnightblue" d="M487.024,-225.962C450.429,-235.158 410.626,-247.452 396.911,-260 377.8,-277.485 369.842,-308.032 366.734,-325.416"/>
<polygon fill="midnightblue" stroke="midnightblue" points="487.862,-229.36 496.737,-223.572 486.19,-222.562 487.862,-229.36"/>
</g>
<!-- Node7&#45;&gt;Node4 -->
<g id="edge7" class="edge"><title>Node7&#45;&gt;Node4</title>
<path fill="none" stroke="midnightblue" d="M536.692,-229.745C523.291,-239.695 506.089,-251.577 492.152,-260.446"/>
<polygon fill="midnightblue" stroke="midnightblue" points="539.025,-232.369 544.877,-223.537 534.795,-226.791 539.025,-232.369"/>
</g>
<!-- Node7&#45;&gt;Node5 -->
<g id="edge15" class="edge"><title>Node7&#45;&gt;Node5</title>
<path fill="none" stroke="midnightblue" d="M507.484,-192.136C483.873,-183.616 455.762,-172.213 431.911,-159 397.056,-139.692 360.613,-110.366 340.842,-93.5595"/>
<polygon fill="midnightblue" stroke="midnightblue" points="506.369,-195.455 516.964,-195.491 508.705,-188.856 506.369,-195.455"/>
</g>
<!-- Node7&#45;&gt;Node8 -->
<g id="edge10" class="edge"><title>Node7&#45;&gt;Node8</title>
<path fill="none" stroke="midnightblue" d="M585.025,-189.52C599.324,-179.511 616.501,-167.487 629.287,-158.537"/>
<polygon fill="midnightblue" stroke="midnightblue" points="582.744,-186.844 576.559,-195.446 586.759,-192.579 582.744,-186.844"/>
</g>
<!-- Node10 -->
<g id="node10" class="node"><title>Node10</title>
<g id="a_node10"><a xlink:href="msg_buffers_8c.html" target="_top" xlink:title="File containing the definitions of all functions related to the message mailboxes. ">
<polygon fill="white" stroke="black" points="441,-130.5 441,-158.5 564.822,-158.5 564.822,-130.5 441,-130.5"/>
<text text-anchor="start" x="449" y="-146.5" font-family="Helvetica,sans-Serif" font-size="10.00">rasPi&#45;EmergencyStation</text>
<text text-anchor="middle" x="502.911" y="-136.5" font-family="Helvetica,sans-Serif" font-size="10.00">/msgBuffers.c</text>
</a>
</g>
</g>
<!-- Node7&#45;&gt;Node10 -->
<g id="edge16" class="edge"><title>Node7&#45;&gt;Node10</title>
<path fill="none" stroke="midnightblue" d="M539.841,-187.802C531.423,-178.159 521.664,-166.98 514.293,-158.537"/>
<polygon fill="midnightblue" stroke="midnightblue" points="537.302,-190.215 546.515,-195.446 542.575,-185.611 537.302,-190.215"/>
</g>
<!-- Node8&#45;&gt;Node2 -->
<g id="edge11" class="edge"><title>Node8&#45;&gt;Node2</title>
<path fill="none" stroke="midnightblue" d="M653.494,-168.823C656.189,-184.974 657.42,-206.611 649.911,-224 612.057,-311.666 505.165,-366.867 449.917,-390.378"/>
<polygon fill="midnightblue" stroke="midnightblue" points="656.853,-167.77 651.483,-158.637 649.986,-169.126 656.853,-167.77"/>
</g>
<!-- Node8&#45;&gt;Node5 -->
<g id="edge12" class="edge"><title>Node8&#45;&gt;Node5</title>
<path fill="none" stroke="midnightblue" d="M572.853,-128.815C516.672,-117.823 440.74,-102.966 387.969,-92.6418"/>
<polygon fill="midnightblue" stroke="midnightblue" points="572.264,-132.266 582.75,-130.751 573.608,-125.396 572.264,-132.266"/>
</g>
<!-- Node9 -->
<g id="node9" class="node"><title>Node9</title>
<g id="a_node9"><a xlink:href="tcp_server_socket_comm_8c.html" target="_top" xlink:title="Server connection related function headers. ">
<polygon fill="white" stroke="black" points="583.229,-65.5 583.229,-93.5 712.593,-93.5 712.593,-65.5 583.229,-65.5"/>
<text text-anchor="start" x="591.229" y="-81.5" font-family="Helvetica,sans-Serif" font-size="10.00">rasPi&#45;EmergencyStation</text>
<text text-anchor="middle" x="647.911" y="-71.5" font-family="Helvetica,sans-Serif" font-size="10.00">/tcpServerSocketComm.c</text>
</a>
</g>
</g>
<!-- Node8&#45;&gt;Node9 -->
<g id="edge13" class="edge"><title>Node8&#45;&gt;Node9</title>
<path fill="none" stroke="midnightblue" d="M647.911,-120.164C647.911,-111.169 647.911,-101.221 647.911,-93.5369"/>
<polygon fill="midnightblue" stroke="midnightblue" points="644.411,-120.446 647.911,-130.446 651.411,-120.446 644.411,-120.446"/>
</g>
</g>
</svg>
