<?xml version="1.0" encoding="UTF-8" standalone="no"?>
<!DOCTYPE svg PUBLIC "-//W3C//DTD SVG 1.1//EN"
 "http://www.w3.org/Graphics/SVG/1.1/DTD/svg11.dtd">
<!-- Generated by graphviz version 2.38.0 (20140413.2041)
 -->
<!-- Title: rasPi&#45;EmergencyStation/messageParser.h Pages: 1 -->
<svg width="814pt" height="362pt"
 viewBox="0.00 0.00 813.76 362.00" xmlns="http://www.w3.org/2000/svg" xmlns:xlink="http://www.w3.org/1999/xlink">
<g id="graph0" class="graph" transform="scale(1 1) rotate(0) translate(4 358)">
<title>rasPi&#45;EmergencyStation/messageParser.h</title>
<polygon fill="white" stroke="none" points="-4,4 -4,-358 809.763,-358 809.763,4 -4,4"/>
<!-- Node1 -->
<g id="node1" class="node"><title>Node1</title>
<polygon fill="#bfbfbf" stroke="black" points="278.17,-325.5 278.17,-353.5 401.992,-353.5 401.992,-325.5 278.17,-325.5"/>
<text text-anchor="start" x="286.17" y="-341.5" font-family="Helvetica,sans-Serif" font-size="10.00">rasPi&#45;EmergencyStation</text>
<text text-anchor="middle" x="340.081" y="-331.5" font-family="Helvetica,sans-Serif" font-size="10.00">/messageParser.h</text>
</g>
<!-- Node2 -->
<g id="node2" class="node"><title>Node2</title>
<g id="a_node2"><a xlink:href="main_8h.html" target="_top" xlink:title="Main file&#39;s headers of the emergency station application. ">
<polygon fill="white" stroke="black" points="510.17,-65.5 510.17,-93.5 633.992,-93.5 633.992,-65.5 510.17,-65.5"/>
<text text-anchor="start" x="518.17" y="-81.5" font-family="Helvetica,sans-Serif" font-size="10.00">rasPi&#45;EmergencyStation</text>
<text text-anchor="middle" x="572.081" y="-71.5" font-family="Helvetica,sans-Serif" font-size="10.00">/main.h</text>
</a>
</g>
</g>
<!-- Node1&#45;&gt;Node2 -->
<g id="edge1" class="edge"><title>Node1&#45;&gt;Node2</title>
<path fill="none" stroke="midnightblue" d="M407.013,-322.614C460.392,-306.522 533.098,-276.352 576.081,-224 603.022,-191.187 601.541,-171.604 593.081,-130 590.477,-117.193 584.44,-103.59 579.505,-93.891"/>
<polygon fill="midnightblue" stroke="midnightblue" points="405.9,-319.293 397.283,-325.457 407.863,-326.012 405.9,-319.293"/>
</g>
<!-- Node4 -->
<g id="node4" class="node"><title>Node4</title>
<g id="a_node4"><a xlink:href="msg_buffers_8h.html" target="_top" xlink:title="File containing the headers of all functions related to the message mailboxes. ">
<polygon fill="white" stroke="black" points="278.17,-260.5 278.17,-288.5 401.992,-288.5 401.992,-260.5 278.17,-260.5"/>
<text text-anchor="start" x="286.17" y="-276.5" font-family="Helvetica,sans-Serif" font-size="10.00">rasPi&#45;EmergencyStation</text>
<text text-anchor="middle" x="340.081" y="-266.5" font-family="Helvetica,sans-Serif" font-size="10.00">/msgBuffers.h</text>
</a>
</g>
</g>
<!-- Node1&#45;&gt;Node4 -->
<g id="edge3" class="edge"><title>Node1&#45;&gt;Node4</title>
<path fill="none" stroke="midnightblue" d="M333.552,-315.46C333.067,-306.388 333.38,-296.305 334.491,-288.537"/>
<polygon fill="midnightblue" stroke="midnightblue" points="330.07,-315.817 334.488,-325.446 337.04,-315.163 330.07,-315.817"/>
</g>
<!-- Node5 -->
<g id="node5" class="node"><title>Node5</title>
<g id="a_node5"><a xlink:href="tcp_vehicle_socket_comm_8h.html" target="_top" xlink:title="Vehicle connection server&#39;s headers. ">
<polygon fill="white" stroke="black" points="33.7192,-195.5 33.7192,-223.5 166.443,-223.5 166.443,-195.5 33.7192,-195.5"/>
<text text-anchor="start" x="41.7192" y="-211.5" font-family="Helvetica,sans-Serif" font-size="10.00">rasPi&#45;EmergencyStation</text>
<text text-anchor="middle" x="100.081" y="-201.5" font-family="Helvetica,sans-Serif" font-size="10.00">/tcpVehicleSocketComm.h</text>
</a>
</g>
</g>
<!-- Node1&#45;&gt;Node5 -->
<g id="edge24" class="edge"><title>Node1&#45;&gt;Node5</title>
<path fill="none" stroke="midnightblue" d="M268.097,-326.134C236.691,-318.422 200.484,-306.545 171.081,-289 141.672,-271.452 114.888,-240.929 103.944,-223.566"/>
<polygon fill="midnightblue" stroke="midnightblue" points="267.574,-329.607 278.11,-328.493 269.18,-322.793 267.574,-329.607"/>
</g>
<!-- Node6 -->
<g id="node6" class="node"><title>Node6</title>
<g id="a_node6"><a xlink:href="station_actions_8h.html" target="_top" xlink:title="FIle containing all the station action headers. ">
<polygon fill="white" stroke="black" points="188.17,-130.5 188.17,-158.5 311.992,-158.5 311.992,-130.5 188.17,-130.5"/>
<text text-anchor="start" x="196.17" y="-146.5" font-family="Helvetica,sans-Serif" font-size="10.00">rasPi&#45;EmergencyStation</text>
<text text-anchor="middle" x="250.081" y="-136.5" font-family="Helvetica,sans-Serif" font-size="10.00">/stationActions.h</text>
</a>
</g>
</g>
<!-- Node1&#45;&gt;Node6 -->
<g id="edge25" class="edge"><title>Node1&#45;&gt;Node6</title>
<path fill="none" stroke="midnightblue" d="M295.741,-320.538C282.349,-312.505 268.942,-301.905 260.081,-289 232.202,-248.393 235.875,-185.849 243.168,-158.761"/>
<polygon fill="midnightblue" stroke="midnightblue" points="294.058,-323.606 304.492,-325.444 297.481,-317.501 294.058,-323.606"/>
</g>
<!-- Node9 -->
<g id="node9" class="node"><title>Node9</title>
<g id="a_node9"><a xlink:href="tcp_server_socket_comm_8h.html" target="_top" xlink:title="Server connection related function definitions. ">
<polygon fill="white" stroke="black" points="638.118,-195.5 638.118,-223.5 768.044,-223.5 768.044,-195.5 638.118,-195.5"/>
<text text-anchor="start" x="646.118" y="-211.5" font-family="Helvetica,sans-Serif" font-size="10.00">rasPi&#45;EmergencyStation</text>
<text text-anchor="middle" x="703.081" y="-201.5" font-family="Helvetica,sans-Serif" font-size="10.00">/tcpServerSocketComm.h</text>
</a>
</g>
</g>
<!-- Node1&#45;&gt;Node9 -->
<g id="edge26" class="edge"><title>Node1&#45;&gt;Node9</title>
<path fill="none" stroke="midnightblue" d="M412.304,-337.767C472.093,-334.465 557.686,-323.346 624.081,-289 654.65,-273.187 680.902,-241.412 694.062,-223.518"/>
<polygon fill="midnightblue" stroke="midnightblue" points="412.011,-334.278 402.195,-338.265 412.355,-341.269 412.011,-334.278"/>
</g>
<!-- Node14 -->
<g id="node14" class="node"><title>Node14</title>
<g id="a_node14"><a xlink:href="message_parser_8c.html" target="_top" xlink:title="Message parser functions definition. ">
<polygon fill="white" stroke="black" points="676.17,-260.5 676.17,-288.5 799.992,-288.5 799.992,-260.5 676.17,-260.5"/>
<text text-anchor="start" x="684.17" y="-276.5" font-family="Helvetica,sans-Serif" font-size="10.00">rasPi&#45;EmergencyStation</text>
<text text-anchor="middle" x="738.081" y="-266.5" font-family="Helvetica,sans-Serif" font-size="10.00">/messageParser.c</text>
</a>
</g>
</g>
<!-- Node1&#45;&gt;Node14 -->
<g id="edge27" class="edge"><title>Node1&#45;&gt;Node14</title>
<path fill="none" stroke="midnightblue" d="M412.367,-327.879C477.677,-318.166 576.409,-303.192 662.081,-289 666.576,-288.255 671.218,-287.47 675.888,-286.669"/>
<polygon fill="midnightblue" stroke="midnightblue" points="411.557,-324.461 402.179,-329.392 412.585,-331.385 411.557,-324.461"/>
</g>
<!-- Node3 -->
<g id="node3" class="node"><title>Node3</title>
<g id="a_node3"><a xlink:href="main_8c.html" target="_top" xlink:title="Main file and functions of the emergency station application. ">
<polygon fill="white" stroke="black" points="510.17,-0.5 510.17,-28.5 633.992,-28.5 633.992,-0.5 510.17,-0.5"/>
<text text-anchor="start" x="518.17" y="-16.5" font-family="Helvetica,sans-Serif" font-size="10.00">rasPi&#45;EmergencyStation</text>
<text text-anchor="middle" x="572.081" y="-6.5" font-family="Helvetica,sans-Serif" font-size="10.00">/main.c</text>
</a>
</g>
</g>
<!-- Node2&#45;&gt;Node3 -->
<g id="edge2" class="edge"><title>Node2&#45;&gt;Node3</title>
<path fill="none" stroke="midnightblue" d="M572.081,-55.1641C572.081,-46.1693 572.081,-36.2205 572.081,-28.5369"/>
<polygon fill="midnightblue" stroke="midnightblue" points="568.581,-55.4463 572.081,-65.4464 575.581,-55.4464 568.581,-55.4463"/>
</g>
<!-- Node4&#45;&gt;Node1 -->
<g id="edge4" class="edge"><title>Node4&#45;&gt;Node1</title>
<path fill="none" stroke="midnightblue" d="M346.609,-298.52C347.095,-307.591 346.783,-317.675 345.674,-325.446"/>
<polygon fill="midnightblue" stroke="midnightblue" points="350.091,-298.166 345.671,-288.537 343.122,-298.82 350.091,-298.166"/>
</g>
<!-- Node4&#45;&gt;Node2 -->
<g id="edge22" class="edge"><title>Node4&#45;&gt;Node2</title>
<path fill="none" stroke="midnightblue" d="M411.961,-265.58C466.142,-258.06 534.225,-244.774 553.081,-224 586.524,-187.156 579.601,-121.463 574.747,-93.5864"/>
<polygon fill="midnightblue" stroke="midnightblue" points="411.464,-262.115 402.02,-266.918 412.398,-269.053 411.464,-262.115"/>
</g>
<!-- Node4&#45;&gt;Node5 -->
<g id="edge5" class="edge"><title>Node4&#45;&gt;Node5</title>
<path fill="none" stroke="midnightblue" d="M280.659,-257.902C240.389,-247.331 187.782,-233.521 149.746,-223.537"/>
<polygon fill="midnightblue" stroke="midnightblue" points="279.792,-261.293 290.353,-260.446 281.569,-254.522 279.792,-261.293"/>
</g>
<!-- Node4&#45;&gt;Node6 -->
<g id="edge14" class="edge"><title>Node4&#45;&gt;Node6</title>
<path fill="none" stroke="midnightblue" d="M303.743,-255.326C291.064,-247.323 277.832,-236.8 269.081,-224 255.39,-203.975 251.526,-175.166 250.46,-158.59"/>
<polygon fill="midnightblue" stroke="midnightblue" points="301.987,-258.354 312.37,-260.46 305.567,-252.338 301.987,-258.354"/>
</g>
<!-- Node4&#45;&gt;Node9 -->
<g id="edge15" class="edge"><title>Node4&#45;&gt;Node9</title>
<path fill="none" stroke="midnightblue" d="M411.956,-261.026C477.784,-249.601 574.375,-232.837 637.979,-221.799"/>
<polygon fill="midnightblue" stroke="midnightblue" points="411.325,-257.583 402.071,-262.741 412.522,-264.48 411.325,-257.583"/>
</g>
<!-- Node11 -->
<g id="node11" class="node"><title>Node11</title>
<g id="a_node11"><a xlink:href="mcast_messaging_8h.html" target="_top" xlink:title="FIle containing all the headers of the functions related to multicast communication. ">
<polygon fill="white" stroke="black" points="420.17,-195.5 420.17,-223.5 543.992,-223.5 543.992,-195.5 420.17,-195.5"/>
<text text-anchor="start" x="428.17" y="-211.5" font-family="Helvetica,sans-Serif" font-size="10.00">rasPi&#45;EmergencyStation</text>
<text text-anchor="middle" x="482.081" y="-201.5" font-family="Helvetica,sans-Serif" font-size="10.00">/mcastMessaging.h</text>
</a>
</g>
</g>
<!-- Node4&#45;&gt;Node11 -->
<g id="edge19" class="edge"><title>Node4&#45;&gt;Node11</title>
<path fill="none" stroke="midnightblue" d="M378.765,-256.337C402.072,-245.997 431.286,-233.036 452.696,-223.537"/>
<polygon fill="midnightblue" stroke="midnightblue" points="377.225,-253.192 369.504,-260.446 380.064,-259.59 377.225,-253.192"/>
</g>
<!-- Node13 -->
<g id="node13" class="node"><title>Node13</title>
<g id="a_node13"><a xlink:href="msg_buffers_8c.html" target="_top" xlink:title="File containing the definitions of all functions related to the message mailboxes. ">
<polygon fill="white" stroke="black" points="278.17,-195.5 278.17,-223.5 401.992,-223.5 401.992,-195.5 278.17,-195.5"/>
<text text-anchor="start" x="286.17" y="-211.5" font-family="Helvetica,sans-Serif" font-size="10.00">rasPi&#45;EmergencyStation</text>
<text text-anchor="middle" x="340.081" y="-201.5" font-family="Helvetica,sans-Serif" font-size="10.00">/msgBuffers.c</text>
</a>
</g>
</g>
<!-- Node4&#45;&gt;Node13 -->
<g id="edge23" class="edge"><title>Node4&#45;&gt;Node13</title>
<path fill="none" stroke="midnightblue" d="M340.081,-250.164C340.081,-241.169 340.081,-231.221 340.081,-223.537"/>
<polygon fill="midnightblue" stroke="midnightblue" points="336.581,-250.446 340.081,-260.446 343.581,-250.446 336.581,-250.446"/>
</g>
<!-- Node5&#45;&gt;Node1 -->
<g id="edge6" class="edge"><title>Node5&#45;&gt;Node1</title>
<path fill="none" stroke="midnightblue" d="M123.297,-231.119C140.048,-248.807 163.578,-273.782 189.081,-289 217.671,-306.059 252.694,-317.761 281.871,-325.485"/>
<polygon fill="midnightblue" stroke="midnightblue" points="125.529,-228.388 116.095,-223.566 120.463,-233.218 125.529,-228.388"/>
</g>
<!-- Node5&#45;&gt;Node2 -->
<g id="edge12" class="edge"><title>Node5&#45;&gt;Node2</title>
<path fill="none" stroke="midnightblue" d="M118.369,-187.466C136.957,-166.637 164.966,-136.884 179.081,-130 235.946,-102.267 414.092,-88.8285 509.801,-83.463"/>
<polygon fill="midnightblue" stroke="midnightblue" points="115.52,-185.404 111.519,-195.215 120.764,-190.041 115.52,-185.404"/>
</g>
<!-- Node5&#45;&gt;Node6 -->
<g id="edge7" class="edge"><title>Node5&#45;&gt;Node6</title>
<path fill="none" stroke="midnightblue" d="M134.859,-191.337C158.451,-180.997 189.476,-168.036 213.45,-158.537"/>
<polygon fill="midnightblue" stroke="midnightblue" points="133.298,-188.201 125.568,-195.446 136.13,-194.602 133.298,-188.201"/>
</g>
<!-- Node8 -->
<g id="node8" class="node"><title>Node8</title>
<g id="a_node8"><a xlink:href="tcp_vehicle_socket_comm_8c.html" target="_top" xlink:title="Vehicle connection server related function definitions. ">
<polygon fill="white" stroke="black" points="0,-130.5 0,-158.5 132.162,-158.5 132.162,-130.5 0,-130.5"/>
<text text-anchor="start" x="8" y="-146.5" font-family="Helvetica,sans-Serif" font-size="10.00">rasPi&#45;EmergencyStation</text>
<text text-anchor="middle" x="66.0811" y="-136.5" font-family="Helvetica,sans-Serif" font-size="10.00">/tcpVehicleSocketComm.c</text>
</a>
</g>
</g>
<!-- Node5&#45;&gt;Node8 -->
<g id="edge13" class="edge"><title>Node5&#45;&gt;Node8</title>
<path fill="none" stroke="midnightblue" d="M88.2823,-186.638C83.2265,-177.269 77.4914,-166.643 73.1169,-158.537"/>
<polygon fill="midnightblue" stroke="midnightblue" points="85.2068,-188.308 93.0362,-195.446 91.3669,-184.984 85.2068,-188.308"/>
</g>
<!-- Node6&#45;&gt;Node1 -->
<g id="edge9" class="edge"><title>Node6&#45;&gt;Node1</title>
<path fill="none" stroke="midnightblue" d="M253.234,-168.847C253.449,-199.268 253.251,-252.835 278.081,-289 288.883,-304.732 306.441,-317.038 320.294,-325.444"/>
<polygon fill="midnightblue" stroke="midnightblue" points="256.733,-168.71 253.089,-158.761 249.733,-168.811 256.733,-168.71"/>
</g>
<!-- Node6&#45;&gt;Node2 -->
<g id="edge10" class="edge"><title>Node6&#45;&gt;Node2</title>
<path fill="none" stroke="midnightblue" d="M322.089,-129.412C378.507,-118.373 456.185,-103.175 509.913,-92.6634"/>
<polygon fill="midnightblue" stroke="midnightblue" points="321.308,-125.998 312.166,-131.353 322.652,-132.868 321.308,-125.998"/>
</g>
<!-- Node6&#45;&gt;Node5 -->
<g id="edge8" class="edge"><title>Node6&#45;&gt;Node5</title>
<path fill="none" stroke="midnightblue" d="M215.345,-162.644C191.761,-172.982 160.737,-185.943 136.754,-195.446"/>
<polygon fill="midnightblue" stroke="midnightblue" points="216.902,-165.783 224.631,-158.537 214.07,-159.381 216.902,-165.783"/>
</g>
<!-- Node7 -->
<g id="node7" class="node"><title>Node7</title>
<g id="a_node7"><a xlink:href="station_actions_8c.html" target="_top" xlink:title="FIle containing all the station action definitions. ">
<polygon fill="white" stroke="black" points="188.17,-65.5 188.17,-93.5 311.992,-93.5 311.992,-65.5 188.17,-65.5"/>
<text text-anchor="start" x="196.17" y="-81.5" font-family="Helvetica,sans-Serif" font-size="10.00">rasPi&#45;EmergencyStation</text>
<text text-anchor="middle" x="250.081" y="-71.5" font-family="Helvetica,sans-Serif" font-size="10.00">/stationActions.c</text>
</a>
</g>
</g>
<!-- Node6&#45;&gt;Node7 -->
<g id="edge11" class="edge"><title>Node6&#45;&gt;Node7</title>
<path fill="none" stroke="midnightblue" d="M250.081,-120.164C250.081,-111.169 250.081,-101.221 250.081,-93.5369"/>
<polygon fill="midnightblue" stroke="midnightblue" points="246.581,-120.446 250.081,-130.446 253.581,-120.446 246.581,-120.446"/>
</g>
<!-- Node9&#45;&gt;Node2 -->
<g id="edge17" class="edge"><title>Node9&#45;&gt;Node2</title>
<path fill="none" stroke="midnightblue" d="M682.816,-188.125C666.928,-172.208 644.211,-149.578 624.081,-130 611.393,-117.66 596.782,-103.78 586.284,-93.8645"/>
<polygon fill="midnightblue" stroke="midnightblue" points="680.488,-190.747 690.027,-195.357 685.445,-185.804 680.488,-190.747"/>
</g>
<!-- Node9&#45;&gt;Node6 -->
<g id="edge16" class="edge"><title>Node9&#45;&gt;Node6</title>
<path fill="none" stroke="midnightblue" d="M627.732,-198.021C539.327,-185.726 394.407,-165.572 312.172,-154.135"/>
<polygon fill="midnightblue" stroke="midnightblue" points="627.308,-201.496 637.695,-199.407 628.272,-194.562 627.308,-201.496"/>
</g>
<!-- Node10 -->
<g id="node10" class="node"><title>Node10</title>
<g id="a_node10"><a xlink:href="tcp_server_socket_comm_8c.html" target="_top" xlink:title="Server connection related function headers. ">
<polygon fill="white" stroke="black" points="676.399,-130.5 676.399,-158.5 805.763,-158.5 805.763,-130.5 676.399,-130.5"/>
<text text-anchor="start" x="684.399" y="-146.5" font-family="Helvetica,sans-Serif" font-size="10.00">rasPi&#45;EmergencyStation</text>
<text text-anchor="middle" x="741.081" y="-136.5" font-family="Helvetica,sans-Serif" font-size="10.00">/tcpServerSocketComm.c</text>
</a>
</g>
</g>
<!-- Node9&#45;&gt;Node10 -->
<g id="edge18" class="edge"><title>Node9&#45;&gt;Node10</title>
<path fill="none" stroke="midnightblue" d="M716.268,-186.638C721.919,-177.269 728.328,-166.643 733.218,-158.537"/>
<polygon fill="midnightblue" stroke="midnightblue" points="713.123,-185.076 710.955,-195.446 719.117,-188.691 713.123,-185.076"/>
</g>
<!-- Node11&#45;&gt;Node6 -->
<g id="edge20" class="edge"><title>Node11&#45;&gt;Node6</title>
<path fill="none" stroke="midnightblue" d="M423.897,-192.7C385.067,-182.156 334.625,-168.458 298.09,-158.537"/>
<polygon fill="midnightblue" stroke="midnightblue" points="423.443,-196.203 434.011,-195.446 425.277,-189.448 423.443,-196.203"/>
</g>
<!-- Node12 -->
<g id="node12" class="node"><title>Node12</title>
<g id="a_node12"><a xlink:href="mcast_messaging_8c.html" target="_top" xlink:title="FIle containing all the definition of the functions related to multicast communication. ">
<polygon fill="white" stroke="black" points="420.17,-130.5 420.17,-158.5 543.992,-158.5 543.992,-130.5 420.17,-130.5"/>
<text text-anchor="start" x="428.17" y="-146.5" font-family="Helvetica,sans-Serif" font-size="10.00">rasPi&#45;EmergencyStation</text>
<text text-anchor="middle" x="482.081" y="-136.5" font-family="Helvetica,sans-Serif" font-size="10.00">/mcastMessaging.c</text>
</a>
</g>
</g>
<!-- Node11&#45;&gt;Node12 -->
<g id="edge21" class="edge"><title>Node11&#45;&gt;Node12</title>
<path fill="none" stroke="midnightblue" d="M482.081,-185.164C482.081,-176.169 482.081,-166.221 482.081,-158.537"/>
<polygon fill="midnightblue" stroke="midnightblue" points="478.581,-185.446 482.081,-195.446 485.581,-185.446 478.581,-185.446"/>
</g>
</g>
</svg>
