<?xml version="1.0" encoding="UTF-8" standalone="no"?>
<!DOCTYPE svg PUBLIC "-//W3C//DTD SVG 1.1//EN"
 "http://www.w3.org/Graphics/SVG/1.1/DTD/svg11.dtd">
<!-- Generated by graphviz version 2.38.0 (20140413.2041)
 -->
<!-- Title: MP_parseMessage Pages: 1 -->
<svg width="432pt" height="27pt"
 viewBox="0.00 0.00 432.32 27.00" xmlns="http://www.w3.org/2000/svg" xmlns:xlink="http://www.w3.org/1999/xlink">
<g id="graph0" class="graph" transform="scale(1 1) rotate(0) translate(4 23)">
<title>MP_parseMessage</title>
<polygon fill="white" stroke="none" points="-4,4 -4,-23 428.324,-23 428.324,4 -4,4"/>
<!-- Node1 -->
<g id="node1" class="node"><title>Node1</title>
<polygon fill="#bfbfbf" stroke="black" points="0,-0.5 0,-18.5 102.152,-18.5 102.152,-0.5 0,-0.5"/>
<text text-anchor="middle" x="51.0762" y="-6.5" font-family="Helvetica,sans-Serif" font-size="10.00">MP_parseMessage</text>
</g>
<!-- Node2 -->
<g id="node2" class="node"><title>Node2</title>
<g id="a_node2"><a xlink:href="message_parser_8h.html#a995d4c39c3939fa306e45d06589bf8c0" target="_top" xlink:title="Thread function for the parser thread. ">
<polygon fill="white" stroke="black" points="138.152,-0.5 138.152,-18.5 235.852,-18.5 235.852,-0.5 138.152,-0.5"/>
<text text-anchor="middle" x="187.002" y="-6.5" font-family="Helvetica,sans-Serif" font-size="10.00">MP_ParserThread</text>
</a>
</g>
</g>
<!-- Node1&#45;&gt;Node2 -->
<g id="edge1" class="edge"><title>Node1&#45;&gt;Node2</title>
<path fill="none" stroke="midnightblue" d="M112.36,-9.5C120.995,-9.5 129.779,-9.5 138.132,-9.5"/>
<polygon fill="midnightblue" stroke="midnightblue" points="112.326,-6.0001 102.326,-9.5 112.326,-13.0001 112.326,-6.0001"/>
</g>
<!-- Node3 -->
<g id="node3" class="node"><title>Node3</title>
<g id="a_node3"><a xlink:href="message_parser_8h.html#a0a5ee1ec225573ebc80059d6bce9e0d6" target="_top" xlink:title="Parser thread initializer. ">
<polygon fill="white" stroke="black" points="271.852,-0.5 271.852,-18.5 350.649,-18.5 350.649,-0.5 271.852,-0.5"/>
<text text-anchor="middle" x="311.25" y="-6.5" font-family="Helvetica,sans-Serif" font-size="10.00">MP_initParser</text>
</a>
</g>
</g>
<!-- Node2&#45;&gt;Node3 -->
<g id="edge2" class="edge"><title>Node2&#45;&gt;Node3</title>
<path fill="none" stroke="midnightblue" d="M246.021,-9.5C254.654,-9.5 263.369,-9.5 271.476,-9.5"/>
<polygon fill="midnightblue" stroke="midnightblue" points="245.967,-6.0001 235.967,-9.5 245.967,-13.0001 245.967,-6.0001"/>
</g>
<!-- Node4 -->
<g id="node4" class="node"><title>Node4</title>
<g id="a_node4"><a xlink:href="main_8c.html#ac0f2228420376f4db7e1274f2b41667c" target="_top" xlink:title="main">
<polygon fill="white" stroke="black" points="386.649,-0.5 386.649,-18.5 424.324,-18.5 424.324,-0.5 386.649,-0.5"/>
<text text-anchor="middle" x="405.487" y="-6.5" font-family="Helvetica,sans-Serif" font-size="10.00">main</text>
</a>
</g>
</g>
<!-- Node3&#45;&gt;Node4 -->
<g id="edge3" class="edge"><title>Node3&#45;&gt;Node4</title>
<path fill="none" stroke="midnightblue" d="M360.966,-9.5C369.956,-9.5 378.814,-9.5 386.167,-9.5"/>
<polygon fill="midnightblue" stroke="midnightblue" points="360.833,-6.0001 350.833,-9.5 360.833,-13.0001 360.833,-6.0001"/>
</g>
</g>
</svg>
