<?xml version="1.0" encoding="UTF-8" standalone="no"?>
<!DOCTYPE svg PUBLIC "-//W3C//DTD SVG 1.1//EN"
 "http://www.w3.org/Graphics/SVG/1.1/DTD/svg11.dtd">
<!-- Generated by graphviz version 2.38.0 (20140413.2041)
 -->
<!-- Title: rasPi&#45;EmergencyStation/messageParser.h Pages: 1 -->
<svg width="1118pt" height="312pt"
 viewBox="0.00 0.00 1118.00 312.00" xmlns="http://www.w3.org/2000/svg" xmlns:xlink="http://www.w3.org/1999/xlink">
<g id="graph0" class="graph" transform="scale(1 1) rotate(0) translate(4 308)">
<title>rasPi&#45;EmergencyStation/messageParser.h</title>
<polygon fill="white" stroke="none" points="-4,4 -4,-308 1114,-308 1114,4 -4,4"/>
<!-- Node1 -->
<g id="node1" class="node"><title>Node1</title>
<polygon fill="#bfbfbf" stroke="black" points="315.089,-275.5 315.089,-303.5 438.911,-303.5 438.911,-275.5 315.089,-275.5"/>
<text text-anchor="start" x="323.089" y="-291.5" font-family="Helvetica,sans-Serif" font-size="10.00">rasPi&#45;EmergencyStation</text>
<text text-anchor="middle" x="377" y="-281.5" font-family="Helvetica,sans-Serif" font-size="10.00">/messageParser.h</text>
</g>
<!-- Node2 -->
<g id="node2" class="node"><title>Node2</title>
<polygon fill="white" stroke="#bfbfbf" points="226.269,-0.5 226.269,-18.5 271.731,-18.5 271.731,-0.5 226.269,-0.5"/>
<text text-anchor="middle" x="249" y="-6.5" font-family="Helvetica,sans-Serif" font-size="10.00">stdio.h</text>
</g>
<!-- Node1&#45;&gt;Node2 -->
<g id="edge1" class="edge"><title>Node1&#45;&gt;Node2</title>
<path fill="none" stroke="midnightblue" d="M314.746,-282.784C207.668,-271.215 0,-240.412 0,-175.5 0,-175.5 0,-175.5 0,-118.5 0,-25.4668 148.108,-11.6959 215.87,-10.2639"/>
<polygon fill="midnightblue" stroke="midnightblue" points="216.068,-13.7617 226.021,-10.1298 215.976,-6.76231 216.068,-13.7617"/>
</g>
<!-- Node3 -->
<g id="node3" class="node"><title>Node3</title>
<polygon fill="white" stroke="#bfbfbf" points="881.604,-110.5 881.604,-128.5 930.396,-128.5 930.396,-110.5 881.604,-110.5"/>
<text text-anchor="middle" x="906" y="-116.5" font-family="Helvetica,sans-Serif" font-size="10.00">string.h</text>
</g>
<!-- Node1&#45;&gt;Node3 -->
<g id="edge2" class="edge"><title>Node1&#45;&gt;Node3</title>
<path fill="none" stroke="midnightblue" d="M420.31,-275.43C484.7,-255.925 609.433,-217.863 715,-184 770.439,-166.217 834.618,-144.684 872.679,-131.815"/>
<polygon fill="midnightblue" stroke="midnightblue" points="873.882,-135.103 882.231,-128.581 871.637,-128.472 873.882,-135.103"/>
</g>
<!-- Node4 -->
<g id="node4" class="node"><title>Node4</title>
<polygon fill="white" stroke="#bfbfbf" points="66.1577,-110.5 66.1577,-128.5 113.842,-128.5 113.842,-110.5 66.1577,-110.5"/>
<text text-anchor="middle" x="90" y="-116.5" font-family="Helvetica,sans-Serif" font-size="10.00">stdlib.h</text>
</g>
<!-- Node1&#45;&gt;Node4 -->
<g id="edge3" class="edge"><title>Node1&#45;&gt;Node4</title>
<path fill="none" stroke="midnightblue" d="M352.384,-275.458C316.199,-256.142 246.693,-218.49 189,-184 161.463,-167.538 130.437,-147.364 110.576,-134.235"/>
<polygon fill="midnightblue" stroke="midnightblue" points="112.306,-131.183 102.038,-128.57 108.436,-137.015 112.306,-131.183"/>
</g>
<!-- Node5 -->
<g id="node5" class="node"><title>Node5</title>
<polygon fill="white" stroke="#bfbfbf" points="954.872,-0.5 954.872,-18.5 1013.13,-18.5 1013.13,-0.5 954.872,-0.5"/>
<text text-anchor="middle" x="984" y="-6.5" font-family="Helvetica,sans-Serif" font-size="10.00">pthread.h</text>
</g>
<!-- Node1&#45;&gt;Node5 -->
<g id="edge4" class="edge"><title>Node1&#45;&gt;Node5</title>
<path fill="none" stroke="midnightblue" d="M439.179,-285.431C616.168,-275.872 1110,-243.139 1110,-175.5 1110,-175.5 1110,-175.5 1110,-118.5 1110,-69.5718 1054.55,-38.0319 1017.22,-22.342"/>
<polygon fill="midnightblue" stroke="midnightblue" points="1018.28,-18.997 1007.7,-18.5144 1015.67,-25.4919 1018.28,-18.997"/>
</g>
<!-- Node6 -->
<g id="node6" class="node"><title>Node6</title>
<g id="a_node6"><a xlink:href="structures_8h.html" target="_top" xlink:title="File containing all the structure definitions used in the other modules. ">
<polygon fill="white" stroke="black" points="719.879,-55.5 719.879,-73.5 788.121,-73.5 788.121,-55.5 719.879,-55.5"/>
<text text-anchor="middle" x="754" y="-61.5" font-family="Helvetica,sans-Serif" font-size="10.00">structures.h</text>
</a>
</g>
</g>
<!-- Node1&#45;&gt;Node6 -->
<g id="edge5" class="edge"><title>Node1&#45;&gt;Node6</title>
<path fill="none" stroke="midnightblue" d="M439.126,-282.315C578.305,-266.885 906.875,-221.137 957,-129 961.035,-121.582 962.293,-116.579 957,-110 937.493,-85.7539 852.104,-73.9782 798.476,-68.876"/>
<polygon fill="midnightblue" stroke="midnightblue" points="798.478,-65.3619 788.203,-67.9428 797.845,-72.3332 798.478,-65.3619"/>
</g>
<!-- Node8 -->
<g id="node8" class="node"><title>Node8</title>
<g id="a_node8"><a xlink:href="msg_buffers_8h.html" target="_top" xlink:title="File containing the headers of all functions related to the message mailboxes. ">
<polygon fill="white" stroke="black" points="200.632,-110.5 200.632,-128.5 275.368,-128.5 275.368,-110.5 200.632,-110.5"/>
<text text-anchor="middle" x="238" y="-116.5" font-family="Helvetica,sans-Serif" font-size="10.00">msgBuffers.h</text>
</a>
</g>
</g>
<!-- Node1&#45;&gt;Node8 -->
<g id="edge9" class="edge"><title>Node1&#45;&gt;Node8</title>
<path fill="none" stroke="midnightblue" d="M354.987,-275.475C342.782,-265.729 328.107,-251.911 316,-239 294.202,-215.755 288.901,-209.657 270,-184 258.933,-168.978 247.512,-151.053 241.086,-138.085"/>
<polygon fill="midnightblue" stroke="midnightblue" points="244.144,-136.336 236.98,-128.53 237.712,-139.1 244.144,-136.336"/>
</g>
<!-- Node10 -->
<g id="node10" class="node"><title>Node10</title>
<g id="a_node10"><a xlink:href="tcp_vehicle_socket_comm_8h.html" target="_top" xlink:title="Vehicle connection server&#39;s headers. ">
<polygon fill="white" stroke="black" points="576.027,-165.5 576.027,-183.5 705.973,-183.5 705.973,-165.5 576.027,-165.5"/>
<text text-anchor="middle" x="641" y="-171.5" font-family="Helvetica,sans-Serif" font-size="10.00">tcpVehicleSocketComm.h</text>
</a>
</g>
</g>
<!-- Node1&#45;&gt;Node10 -->
<g id="edge15" class="edge"><title>Node1&#45;&gt;Node10</title>
<path fill="none" stroke="midnightblue" d="M407.542,-275.427C459.204,-253.314 563.076,-208.854 612.98,-187.493"/>
<polygon fill="midnightblue" stroke="midnightblue" points="614.394,-190.695 622.21,-183.543 611.639,-184.26 614.394,-190.695"/>
</g>
<!-- Node14 -->
<g id="node14" class="node"><title>Node14</title>
<g id="a_node14"><a xlink:href="station_actions_8h.html" target="_top" xlink:title="FIle containing all the station action headers. ">
<polygon fill="white" stroke="black" points="333.702,-220.5 333.702,-238.5 420.298,-238.5 420.298,-220.5 333.702,-220.5"/>
<text text-anchor="middle" x="377" y="-226.5" font-family="Helvetica,sans-Serif" font-size="10.00">stationActions.h</text>
</a>
</g>
</g>
<!-- Node1&#45;&gt;Node14 -->
<g id="edge23" class="edge"><title>Node1&#45;&gt;Node14</title>
<path fill="none" stroke="midnightblue" d="M371.239,-275.339C370.152,-267.531 369.961,-257.512 370.666,-248.927"/>
<polygon fill="midnightblue" stroke="midnightblue" points="374.167,-249.164 372.108,-238.771 367.237,-248.18 374.167,-249.164"/>
</g>
<!-- Node6&#45;&gt;Node2 -->
<g id="edge6" class="edge"><title>Node6&#45;&gt;Node2</title>
<path fill="none" stroke="midnightblue" d="M719.686,-59.8988C627.009,-50.1723 372.537,-23.4653 281.732,-13.9352"/>
<polygon fill="midnightblue" stroke="midnightblue" points="282.046,-10.4491 271.735,-12.8861 281.315,-17.4108 282.046,-10.4491"/>
</g>
<!-- Node6&#45;&gt;Node5 -->
<g id="edge7" class="edge"><title>Node6&#45;&gt;Node5</title>
<path fill="none" stroke="midnightblue" d="M788.433,-55.5654C830.403,-45.894 901.145,-29.5926 945.06,-19.4732"/>
<polygon fill="midnightblue" stroke="midnightblue" points="945.849,-22.8832 954.807,-17.227 944.277,-16.0619 945.849,-22.8832"/>
</g>
<!-- Node7 -->
<g id="node7" class="node"><title>Node7</title>
<polygon fill="white" stroke="#bfbfbf" points="752.537,-0.5 752.537,-18.5 817.463,-18.5 817.463,-0.5 752.537,-0.5"/>
<text text-anchor="middle" x="785" y="-6.5" font-family="Helvetica,sans-Serif" font-size="10.00">netinet/in.h</text>
</g>
<!-- Node6&#45;&gt;Node7 -->
<g id="edge8" class="edge"><title>Node6&#45;&gt;Node7</title>
<path fill="none" stroke="midnightblue" d="M758.844,-55.2188C763.191,-47.7856 769.707,-36.646 775.147,-27.3446"/>
<polygon fill="midnightblue" stroke="midnightblue" points="778.264,-28.9486 780.292,-18.5496 772.222,-25.4143 778.264,-28.9486"/>
</g>
<!-- Node8&#45;&gt;Node1 -->
<g id="edge14" class="edge"><title>Node8&#45;&gt;Node1</title>
<path fill="none" stroke="midnightblue" d="M248.512,-128.53C259.088,-140.788 273.835,-164.771 288,-184 306.901,-209.657 312.202,-215.755 334,-239 343.364,-248.986 354.264,-259.514 362.948,-268.281"/>
<polygon fill="midnightblue" stroke="midnightblue" points="360.444,-270.727 369.915,-275.475 365.472,-265.857 360.444,-270.727"/>
</g>
<!-- Node8&#45;&gt;Node2 -->
<g id="edge10" class="edge"><title>Node8&#45;&gt;Node2</title>
<path fill="none" stroke="midnightblue" d="M231.076,-110.334C221.745,-98.2962 207.061,-75.0468 214,-55 217.77,-44.108 225.43,-33.8573 232.626,-25.9458"/>
<polygon fill="midnightblue" stroke="midnightblue" points="235.295,-28.2213 239.773,-18.6191 230.285,-23.3332 235.295,-28.2213"/>
</g>
<!-- Node8&#45;&gt;Node5 -->
<g id="edge11" class="edge"><title>Node8&#45;&gt;Node5</title>
<path fill="none" stroke="midnightblue" d="M275.506,-113.07C402.385,-94.7017 814.829,-34.9913 944.562,-16.2096"/>
<polygon fill="midnightblue" stroke="midnightblue" points="945.425,-19.6212 954.82,-14.7245 944.422,-12.6934 945.425,-19.6212"/>
</g>
<!-- Node8&#45;&gt;Node6 -->
<g id="edge13" class="edge"><title>Node8&#45;&gt;Node6</title>
<path fill="none" stroke="midnightblue" d="M275.525,-114.646C368.592,-105.086 609.707,-80.3208 709.621,-70.0583"/>
<polygon fill="midnightblue" stroke="midnightblue" points="710.095,-73.5281 719.685,-69.0246 709.38,-66.5648 710.095,-73.5281"/>
</g>
<!-- Node9 -->
<g id="node9" class="node"><title>Node9</title>
<polygon fill="white" stroke="#bfbfbf" points="223.214,-55.5 223.214,-73.5 274.786,-73.5 274.786,-55.5 223.214,-55.5"/>
<text text-anchor="middle" x="249" y="-61.5" font-family="Helvetica,sans-Serif" font-size="10.00">assert.h</text>
</g>
<!-- Node8&#45;&gt;Node9 -->
<g id="edge12" class="edge"><title>Node8&#45;&gt;Node9</title>
<path fill="none" stroke="midnightblue" d="M239.719,-110.219C241.197,-103.099 243.38,-92.5775 245.258,-83.5289"/>
<polygon fill="midnightblue" stroke="midnightblue" points="248.724,-84.0522 247.329,-73.5496 241.87,-82.6296 248.724,-84.0522"/>
</g>
<!-- Node10&#45;&gt;Node3 -->
<g id="edge16" class="edge"><title>Node10&#45;&gt;Node3</title>
<path fill="none" stroke="midnightblue" d="M683.743,-165.471C729.424,-156.807 803.935,-142.442 868,-129 869.092,-128.771 870.2,-128.536 871.32,-128.297"/>
<polygon fill="midnightblue" stroke="midnightblue" points="872.465,-131.63 881.491,-126.082 870.975,-124.79 872.465,-131.63"/>
</g>
<!-- Node10&#45;&gt;Node6 -->
<g id="edge21" class="edge"><title>Node10&#45;&gt;Node6</title>
<path fill="none" stroke="midnightblue" d="M693.353,-165.454C733.588,-158.075 784.361,-145.748 797,-129 809.43,-112.529 791.049,-92.7273 774.608,-79.6648"/>
<polygon fill="midnightblue" stroke="midnightblue" points="776.466,-76.6841 766.361,-73.5016 772.276,-82.2914 776.466,-76.6841"/>
</g>
<!-- Node10&#45;&gt;Node7 -->
<g id="edge17" class="edge"><title>Node10&#45;&gt;Node7</title>
<path fill="none" stroke="midnightblue" d="M706.029,-173.294C784.481,-171.5 909.547,-163.177 939,-129 979.908,-81.53 880.369,-40.5587 822.663,-21.648"/>
<polygon fill="midnightblue" stroke="midnightblue" points="823.694,-18.3031 813.103,-18.5904 821.562,-24.9704 823.694,-18.3031"/>
</g>
<!-- Node10&#45;&gt;Node8 -->
<g id="edge22" class="edge"><title>Node10&#45;&gt;Node8</title>
<path fill="none" stroke="midnightblue" d="M579.793,-165.45C499.203,-154.852 359.175,-136.436 285.868,-126.795"/>
<polygon fill="midnightblue" stroke="midnightblue" points="285.922,-123.272 275.551,-125.439 285.01,-130.213 285.922,-123.272"/>
</g>
<!-- Node11 -->
<g id="node11" class="node"><title>Node11</title>
<polygon fill="white" stroke="#bfbfbf" points="573.372,-110.5 573.372,-128.5 636.628,-128.5 636.628,-110.5 573.372,-110.5"/>
<text text-anchor="middle" x="605" y="-116.5" font-family="Helvetica,sans-Serif" font-size="10.00">arpa/inet.h</text>
</g>
<!-- Node10&#45;&gt;Node11 -->
<g id="edge18" class="edge"><title>Node10&#45;&gt;Node11</title>
<path fill="none" stroke="midnightblue" d="M635.375,-165.219C630.273,-157.707 622.6,-146.411 616.243,-137.052"/>
<polygon fill="midnightblue" stroke="midnightblue" points="618.982,-134.855 610.468,-128.55 613.191,-138.788 618.982,-134.855"/>
</g>
<!-- Node12 -->
<g id="node12" class="node"><title>Node12</title>
<polygon fill="white" stroke="#bfbfbf" points="445.49,-110.5 445.49,-128.5 516.51,-128.5 516.51,-110.5 445.49,-110.5"/>
<text text-anchor="middle" x="481" y="-116.5" font-family="Helvetica,sans-Serif" font-size="10.00">sys/socket.h</text>
</g>
<!-- Node10&#45;&gt;Node12 -->
<g id="edge19" class="edge"><title>Node10&#45;&gt;Node12</title>
<path fill="none" stroke="midnightblue" d="M616.699,-165.45C589.602,-156.475 545.58,-141.892 515.057,-131.781"/>
<polygon fill="midnightblue" stroke="midnightblue" points="515.86,-128.36 505.267,-128.538 513.659,-135.005 515.86,-128.36"/>
</g>
<!-- Node13 -->
<g id="node13" class="node"><title>Node13</title>
<polygon fill="white" stroke="#bfbfbf" points="654.318,-110.5 654.318,-128.5 703.682,-128.5 703.682,-110.5 654.318,-110.5"/>
<text text-anchor="middle" x="679" y="-116.5" font-family="Helvetica,sans-Serif" font-size="10.00">netdb.h</text>
</g>
<!-- Node10&#45;&gt;Node13 -->
<g id="edge20" class="edge"><title>Node10&#45;&gt;Node13</title>
<path fill="none" stroke="midnightblue" d="M646.938,-165.219C652.379,-157.629 660.591,-146.175 667.342,-136.76"/>
<polygon fill="midnightblue" stroke="midnightblue" points="670.246,-138.716 673.229,-128.55 664.557,-134.637 670.246,-138.716"/>
</g>
<!-- Node14&#45;&gt;Node1 -->
<g id="edge29" class="edge"><title>Node14&#45;&gt;Node1</title>
<path fill="none" stroke="midnightblue" d="M381.892,-238.771C383.449,-245.7 384.027,-255.936 383.628,-265.323"/>
<polygon fill="midnightblue" stroke="midnightblue" points="380.136,-265.074 382.761,-275.339 387.11,-265.678 380.136,-265.074"/>
</g>
<!-- Node14&#45;&gt;Node2 -->
<g id="edge24" class="edge"><title>Node14&#45;&gt;Node2</title>
<path fill="none" stroke="midnightblue" d="M333.435,-221.771C253.348,-208.375 88.0618,-175.593 57,-129 14.2037,-64.8056 150.917,-29.2451 216.248,-16.2576"/>
<polygon fill="midnightblue" stroke="midnightblue" points="216.924,-19.692 226.082,-14.3661 215.601,-12.818 216.924,-19.692"/>
</g>
<!-- Node14&#45;&gt;Node4 -->
<g id="edge25" class="edge"><title>Node14&#45;&gt;Node4</title>
<path fill="none" stroke="midnightblue" d="M349.306,-220.484C321.06,-212.111 276.096,-198.234 238,-184 194.938,-167.911 146.142,-146.296 116.739,-132.889"/>
<polygon fill="midnightblue" stroke="midnightblue" points="118.097,-129.661 107.548,-128.677 115.181,-136.025 118.097,-129.661"/>
</g>
<!-- Node14&#45;&gt;Node5 -->
<g id="edge26" class="edge"><title>Node14&#45;&gt;Node5</title>
<path fill="none" stroke="midnightblue" d="M420.444,-227.263C525.166,-223.856 789,-212.614 872,-184 914.54,-169.335 931.213,-165.875 957,-129 978.4,-98.3986 983.115,-53.4761 983.987,-28.6571"/>
<polygon fill="midnightblue" stroke="midnightblue" points="987.489,-28.574 984.164,-18.5147 980.49,-28.4524 987.489,-28.574"/>
</g>
<!-- Node14&#45;&gt;Node6 -->
<g id="edge28" class="edge"><title>Node14&#45;&gt;Node6</title>
<path fill="none" stroke="midnightblue" d="M420.413,-227.909C540.955,-225.238 875.105,-210.481 939,-129 977.587,-79.793 864.935,-68.521 798.659,-66.0698"/>
<polygon fill="midnightblue" stroke="midnightblue" points="798.556,-62.5649 788.45,-65.7477 798.335,-69.5615 798.556,-62.5649"/>
</g>
<!-- Node14&#45;&gt;Node8 -->
<g id="edge30" class="edge"><title>Node14&#45;&gt;Node8</title>
<path fill="none" stroke="midnightblue" d="M361.551,-220.381C346.324,-212.086 322.69,-198.409 304,-184 284.812,-169.207 265.083,-149.527 252.256,-136.019"/>
<polygon fill="midnightblue" stroke="midnightblue" points="254.614,-133.417 245.227,-128.504 249.502,-138.199 254.614,-133.417"/>
</g>
<!-- Node14&#45;&gt;Node10 -->
<g id="edge42" class="edge"><title>Node14&#45;&gt;Node10</title>
<path fill="none" stroke="midnightblue" d="M417.096,-220.45C463.653,-211.104 540.491,-195.678 590.93,-185.552"/>
<polygon fill="midnightblue" stroke="midnightblue" points="591.845,-188.938 600.96,-183.538 590.467,-182.075 591.845,-188.938"/>
</g>
<!-- Node15 -->
<g id="node15" class="node"><title>Node15</title>
<polygon fill="white" stroke="#bfbfbf" points="131.488,-110.5 131.488,-128.5 182.512,-128.5 182.512,-110.5 131.488,-110.5"/>
<text text-anchor="middle" x="157" y="-116.5" font-family="Helvetica,sans-Serif" font-size="10.00">unistd.h</text>
</g>
<!-- Node14&#45;&gt;Node15 -->
<g id="edge27" class="edge"><title>Node14&#45;&gt;Node15</title>
<path fill="none" stroke="midnightblue" d="M358.439,-220.427C338.627,-211.728 306.385,-197.332 279,-184 244.506,-167.206 205.253,-146.48 180.803,-133.372"/>
<polygon fill="midnightblue" stroke="midnightblue" points="182.359,-130.235 171.894,-128.582 179.044,-136.4 182.359,-130.235"/>
</g>
<!-- Node16 -->
<g id="node16" class="node"><title>Node16</title>
<g id="a_node16"><a xlink:href="tcp_server_socket_comm_8h.html" target="_top" xlink:title="Server connection related function definitions. ">
<polygon fill="white" stroke="black" points="313.426,-165.5 313.426,-183.5 440.574,-183.5 440.574,-165.5 313.426,-165.5"/>
<text text-anchor="middle" x="377" y="-171.5" font-family="Helvetica,sans-Serif" font-size="10.00">tcpServerSocketComm.h</text>
</a>
</g>
</g>
<!-- Node14&#45;&gt;Node16 -->
<g id="edge31" class="edge"><title>Node14&#45;&gt;Node16</title>
<path fill="none" stroke="midnightblue" d="M377,-220.219C377,-213.177 377,-202.808 377,-193.828"/>
<polygon fill="midnightblue" stroke="midnightblue" points="380.5,-193.55 377,-183.55 373.5,-193.55 380.5,-193.55"/>
</g>
<!-- Node17 -->
<g id="node17" class="node"><title>Node17</title>
<g id="a_node17"><a xlink:href="mcast_messaging_8h.html" target="_top" xlink:title="FIle containing all the headers of the functions related to multicast communication. ">
<polygon fill="white" stroke="black" points="458.315,-165.5 458.315,-183.5 557.685,-183.5 557.685,-165.5 458.315,-165.5"/>
<text text-anchor="middle" x="508" y="-171.5" font-family="Helvetica,sans-Serif" font-size="10.00">mcastMessaging.h</text>
</a>
</g>
</g>
<!-- Node14&#45;&gt;Node17 -->
<g id="edge43" class="edge"><title>Node14&#45;&gt;Node17</title>
<path fill="none" stroke="midnightblue" d="M396.896,-220.45C418.633,-211.656 453.672,-197.48 478.585,-187.401"/>
<polygon fill="midnightblue" stroke="midnightblue" points="479.959,-190.62 487.917,-183.625 477.334,-184.131 479.959,-190.62"/>
</g>
<!-- Node16&#45;&gt;Node2 -->
<g id="edge32" class="edge"><title>Node16&#45;&gt;Node2</title>
<path fill="none" stroke="midnightblue" d="M366.142,-165.495C355.353,-157.182 338.763,-143.399 327,-129 302.935,-99.5415 305.366,-86.4709 284,-55 277.362,-45.2226 269.239,-34.8133 262.49,-26.5225"/>
<polygon fill="midnightblue" stroke="midnightblue" points="265.144,-24.2401 256.074,-18.7647 259.75,-28.7014 265.144,-24.2401"/>
</g>
<!-- Node16&#45;&gt;Node3 -->
<g id="edge35" class="edge"><title>Node16&#45;&gt;Node3</title>
<path fill="none" stroke="midnightblue" d="M440.595,-165.921C443.435,-165.605 446.247,-165.297 449,-165 606.449,-148.042 794.732,-130.606 871.182,-123.646"/>
<polygon fill="midnightblue" stroke="midnightblue" points="871.571,-127.125 881.213,-122.734 870.937,-120.153 871.571,-127.125"/>
</g>
<!-- Node16&#45;&gt;Node4 -->
<g id="edge33" class="edge"><title>Node16&#45;&gt;Node4</title>
<path fill="none" stroke="midnightblue" d="M323.007,-165.473C273.435,-157.788 197.761,-145.269 123.982,-129.302"/>
<polygon fill="midnightblue" stroke="midnightblue" points="124.575,-125.849 114.058,-127.13 123.079,-132.687 124.575,-125.849"/>
</g>
<!-- Node16&#45;&gt;Node6 -->
<g id="edge40" class="edge"><title>Node16&#45;&gt;Node6</title>
<path fill="none" stroke="midnightblue" d="M381.967,-165.208C390.854,-151.194 410.913,-123.079 436,-110 482.68,-85.6637 633.567,-73.0152 709.494,-68.0549"/>
<polygon fill="midnightblue" stroke="midnightblue" points="709.934,-71.5341 719.692,-67.4056 709.489,-64.5482 709.934,-71.5341"/>
</g>
<!-- Node16&#45;&gt;Node7 -->
<g id="edge36" class="edge"><title>Node16&#45;&gt;Node7</title>
<path fill="none" stroke="midnightblue" d="M378.73,-165.101C381.99,-151.439 390.363,-124.478 408,-110 507.319,-28.4717 666.628,-13.1424 742.356,-10.6652"/>
<polygon fill="midnightblue" stroke="midnightblue" points="742.569,-14.1609 752.472,-10.3954 742.382,-7.16334 742.569,-14.1609"/>
</g>
<!-- Node16&#45;&gt;Node8 -->
<g id="edge41" class="edge"><title>Node16&#45;&gt;Node8</title>
<path fill="none" stroke="midnightblue" d="M355.889,-165.45C332.723,-156.617 295.317,-142.355 268.861,-132.267"/>
<polygon fill="midnightblue" stroke="midnightblue" points="269.901,-128.918 259.31,-128.625 267.407,-135.458 269.901,-128.918"/>
</g>
<!-- Node16&#45;&gt;Node11 -->
<g id="edge37" class="edge"><title>Node16&#45;&gt;Node11</title>
<path fill="none" stroke="midnightblue" d="M411.628,-165.45C452.339,-155.987 519.861,-140.291 563.381,-130.175"/>
<polygon fill="midnightblue" stroke="midnightblue" points="564.412,-133.528 573.359,-127.855 562.827,-126.71 564.412,-133.528"/>
</g>
<!-- Node16&#45;&gt;Node12 -->
<g id="edge38" class="edge"><title>Node16&#45;&gt;Node12</title>
<path fill="none" stroke="midnightblue" d="M392.795,-165.45C409.594,-156.89 436.4,-143.229 456.056,-133.212"/>
<polygon fill="midnightblue" stroke="midnightblue" points="457.735,-136.284 465.056,-128.625 454.557,-130.047 457.735,-136.284"/>
</g>
<!-- Node16&#45;&gt;Node13 -->
<g id="edge39" class="edge"><title>Node16&#45;&gt;Node13</title>
<path fill="none" stroke="midnightblue" d="M434.472,-165.492C486.882,-157.85 566.643,-145.375 644.246,-129.232"/>
<polygon fill="midnightblue" stroke="midnightblue" points="645.124,-132.624 654.189,-127.141 643.683,-125.774 645.124,-132.624"/>
</g>
<!-- Node16&#45;&gt;Node15 -->
<g id="edge34" class="edge"><title>Node16&#45;&gt;Node15</title>
<path fill="none" stroke="midnightblue" d="M343.574,-165.483C308.473,-157.059 251.403,-143.348 192.469,-129.109"/>
<polygon fill="midnightblue" stroke="midnightblue" points="193.155,-125.674 182.613,-126.727 191.511,-132.478 193.155,-125.674"/>
</g>
<!-- Node17&#45;&gt;Node2 -->
<g id="edge44" class="edge"><title>Node17&#45;&gt;Node2</title>
<path fill="none" stroke="midnightblue" d="M494.702,-165.343C480.232,-156.452 456.429,-141.785 436,-129 375.843,-91.3513 305.185,-46.3668 270.467,-24.2134"/>
<polygon fill="midnightblue" stroke="midnightblue" points="271.979,-21.0261 261.666,-18.5955 268.212,-26.9264 271.979,-21.0261"/>
</g>
<!-- Node17&#45;&gt;Node6 -->
<g id="edge49" class="edge"><title>Node17&#45;&gt;Node6</title>
<path fill="none" stroke="midnightblue" d="M512.735,-165.442C521.2,-151.782 540.285,-124.186 564,-110 609.067,-83.0423 669.217,-72.4154 709.662,-68.2261"/>
<polygon fill="midnightblue" stroke="midnightblue" points="710.127,-71.6978 719.753,-67.2719 709.468,-64.7289 710.127,-71.6978"/>
</g>
<!-- Node17&#45;&gt;Node7 -->
<g id="edge47" class="edge"><title>Node17&#45;&gt;Node7</title>
<path fill="none" stroke="midnightblue" d="M557.929,-166.228C640.109,-154.202 795.058,-131.264 797,-129 821.376,-100.584 805.27,-53.0888 793.751,-27.7155"/>
<polygon fill="midnightblue" stroke="midnightblue" points="796.854,-26.093 789.368,-18.5954 790.545,-29.1248 796.854,-26.093"/>
</g>
<!-- Node17&#45;&gt;Node8 -->
<g id="edge50" class="edge"><title>Node17&#45;&gt;Node8</title>
<path fill="none" stroke="midnightblue" d="M466.993,-165.45C418.172,-155.867 336.793,-139.893 285.342,-129.793"/>
<polygon fill="midnightblue" stroke="midnightblue" points="285.956,-126.347 275.469,-127.855 284.608,-133.216 285.956,-126.347"/>
</g>
<!-- Node17&#45;&gt;Node11 -->
<g id="edge48" class="edge"><title>Node17&#45;&gt;Node11</title>
<path fill="none" stroke="midnightblue" d="M522.732,-165.45C538.258,-156.968 562.948,-143.477 581.233,-133.486"/>
<polygon fill="midnightblue" stroke="midnightblue" points="583.032,-136.492 590.129,-128.625 579.675,-130.349 583.032,-136.492"/>
</g>
<!-- Node17&#45;&gt;Node12 -->
<g id="edge46" class="edge"><title>Node17&#45;&gt;Node12</title>
<path fill="none" stroke="midnightblue" d="M503.781,-165.219C500.034,-157.864 494.439,-146.88 489.731,-137.639"/>
<polygon fill="midnightblue" stroke="midnightblue" points="492.759,-135.871 485.101,-128.55 486.521,-139.049 492.759,-135.871"/>
</g>
<!-- Node18 -->
<g id="node18" class="node"><title>Node18</title>
<polygon fill="white" stroke="#bfbfbf" points="721.99,-110.5 721.99,-128.5 788.01,-128.5 788.01,-110.5 721.99,-110.5"/>
<text text-anchor="middle" x="755" y="-116.5" font-family="Helvetica,sans-Serif" font-size="10.00">sys/types.h</text>
</g>
<!-- Node17&#45;&gt;Node18 -->
<g id="edge45" class="edge"><title>Node17&#45;&gt;Node18</title>
<path fill="none" stroke="midnightblue" d="M545.514,-165.45C590.274,-155.846 664.949,-139.823 712.001,-129.727"/>
<polygon fill="midnightblue" stroke="midnightblue" points="712.846,-133.125 721.889,-127.605 711.377,-126.281 712.846,-133.125"/>
</g>
</g>
</svg>
