<?xml version="1.0" encoding="UTF-8" standalone="no"?>
<!DOCTYPE svg PUBLIC "-//W3C//DTD SVG 1.1//EN"
 "http://www.w3.org/Graphics/SVG/1.1/DTD/svg11.dtd">
<!-- Generated by graphviz version 2.38.0 (20140413.2041)
 -->
<!-- Title: MP_initParser Pages: 1 -->
<svg width="1337pt" height="504pt"
 viewBox="0.00 0.00 1337.18 503.50" xmlns="http://www.w3.org/2000/svg" xmlns:xlink="http://www.w3.org/1999/xlink">
<g id="graph0" class="graph" transform="scale(1 1) rotate(0) translate(4 499.5)">
<title>MP_initParser</title>
<polygon fill="white" stroke="none" points="-4,4 -4,-499.5 1333.18,-499.5 1333.18,4 -4,4"/>
<!-- Node1 -->
<g id="node1" class="node"><title>Node1</title>
<polygon fill="#bfbfbf" stroke="black" points="0,-365.5 0,-383.5 78.7979,-383.5 78.7979,-365.5 0,-365.5"/>
<text text-anchor="middle" x="39.3989" y="-371.5" font-family="Helvetica,sans-Serif" font-size="10.00">MP_initParser</text>
</g>
<!-- Node2 -->
<g id="node2" class="node"><title>Node2</title>
<g id="a_node2"><a xlink:href="msg_buffers_8c.html#a15ca8d0fea842defceb1611616a64560" target="_top" xlink:title="Create a new buffer or mailbox and initialize it for n values. ">
<polygon fill="white" stroke="black" points="886.299,-76.5 886.299,-94.5 962.148,-94.5 962.148,-76.5 886.299,-76.5"/>
<text text-anchor="middle" x="924.224" y="-82.5" font-family="Helvetica,sans-Serif" font-size="10.00">MB_initBuffer</text>
</a>
</g>
</g>
<!-- Node1&#45;&gt;Node2 -->
<g id="edge1" class="edge"><title>Node1&#45;&gt;Node2</title>
<path fill="none" stroke="midnightblue" d="M50.8798,-383.595C84.4254,-411.735 193.137,-495.5 298.573,-495.5 298.573,-495.5 298.573,-495.5 617.2,-495.5 814.859,-495.5 900.121,-185.691 919.035,-104.689"/>
<polygon fill="midnightblue" stroke="midnightblue" points="922.472,-105.36 921.268,-94.8338 915.645,-103.813 922.472,-105.36"/>
</g>
<!-- Node3 -->
<g id="node3" class="node"><title>Node3</title>
<g id="a_node3"><a xlink:href="message_parser_8c.html#a995d4c39c3939fa306e45d06589bf8c0" target="_top" xlink:title="Thread function for the parser thread. ">
<polygon fill="white" stroke="black" points="114.798,-244.5 114.798,-262.5 212.497,-262.5 212.497,-244.5 114.798,-244.5"/>
<text text-anchor="middle" x="163.647" y="-250.5" font-family="Helvetica,sans-Serif" font-size="10.00">MP_ParserThread</text>
</a>
</g>
</g>
<!-- Node1&#45;&gt;Node3 -->
<g id="edge2" class="edge"><title>Node1&#45;&gt;Node3</title>
<path fill="none" stroke="midnightblue" d="M49.5874,-365.405C70.1189,-345.084 119.96,-295.752 146.07,-269.908"/>
<polygon fill="midnightblue" stroke="midnightblue" points="148.707,-272.222 153.352,-262.7 143.783,-267.247 148.707,-272.222"/>
</g>
<!-- Node4 -->
<g id="node4" class="node"><title>Node4</title>
<g id="a_node4"><a xlink:href="msg_buffers_8c.html#a2bc61492dcc33dc1712d77d383b1e33d" target="_top" xlink:title="Get a message from the buffer. ">
<polygon fill="white" stroke="black" points="1075.52,-0.5 1075.52,-18.5 1166.56,-18.5 1166.56,-0.5 1075.52,-0.5"/>
<text text-anchor="middle" x="1121.04" y="-6.5" font-family="Helvetica,sans-Serif" font-size="10.00">MB_getMessage</text>
</a>
</g>
</g>
<!-- Node3&#45;&gt;Node4 -->
<g id="edge3" class="edge"><title>Node3&#45;&gt;Node4</title>
<path fill="none" stroke="midnightblue" d="M169.354,-244.233C192.716,-199.663 300.984,-9.5 447.573,-9.5 447.573,-9.5 447.573,-9.5 762.872,-9.5 869.922,-9.5 995.02,-9.5 1065.14,-9.5"/>
<polygon fill="midnightblue" stroke="midnightblue" points="1065.49,-13.0001 1075.49,-9.5 1065.49,-6.0001 1065.49,-13.0001"/>
</g>
<!-- Node5 -->
<g id="node5" class="node"><title>Node5</title>
<g id="a_node5"><a xlink:href="message_parser_8c.html#a37ec21f46c51967253a4e2da9ab6f063" target="_top" xlink:title="Message parser main function. ">
<polygon fill="white" stroke="black" points="248.497,-244.5 248.497,-262.5 350.649,-262.5 350.649,-244.5 248.497,-244.5"/>
<text text-anchor="middle" x="299.573" y="-250.5" font-family="Helvetica,sans-Serif" font-size="10.00">MP_parseMessage</text>
</a>
</g>
</g>
<!-- Node3&#45;&gt;Node5 -->
<g id="edge4" class="edge"><title>Node3&#45;&gt;Node5</title>
<path fill="none" stroke="midnightblue" d="M212.619,-253.5C220.837,-253.5 229.47,-253.5 237.966,-253.5"/>
<polygon fill="midnightblue" stroke="midnightblue" points="238.223,-257 248.223,-253.5 238.223,-250 238.223,-257"/>
</g>
<!-- Node6 -->
<g id="node6" class="node"><title>Node6</title>
<g id="a_node6"><a xlink:href="station_actions_8c.html#a5e1c0855b4fc05bdfb48c63ee97d728e" target="_top" xlink:title="Function to treat the route messages sent by the server. ">
<polygon fill="white" stroke="black" points="387.487,-410.5 387.487,-428.5 509.659,-428.5 509.659,-410.5 387.487,-410.5"/>
<text text-anchor="middle" x="448.573" y="-416.5" font-family="Helvetica,sans-Serif" font-size="10.00">SA_treatRouteMessage</text>
</a>
</g>
</g>
<!-- Node5&#45;&gt;Node6 -->
<g id="edge5" class="edge"><title>Node5&#45;&gt;Node6</title>
<path fill="none" stroke="midnightblue" d="M303.271,-262.754C311.337,-288.768 337.788,-363.134 386.649,-401.5 388.699,-403.109 390.889,-404.575 393.176,-405.909"/>
<polygon fill="midnightblue" stroke="midnightblue" points="391.869,-409.167 402.388,-410.435 394.956,-402.884 391.869,-409.167"/>
</g>
<!-- Node7 -->
<g id="node7" class="node"><title>Node7</title>
<g id="a_node7"><a xlink:href="station_actions_8c.html#a78fa797ba2873bacdac3f25506fdca3b" target="_top" xlink:title="Search a vehicle by ID. ">
<polygon fill="white" stroke="black" points="557.612,-410.5 557.612,-428.5 674.789,-428.5 674.789,-410.5 557.612,-410.5"/>
<text text-anchor="middle" x="616.2" y="-416.5" font-family="Helvetica,sans-Serif" font-size="10.00">SA_searchVehicleById</text>
</a>
</g>
</g>
<!-- Node5&#45;&gt;Node7 -->
<g id="edge23" class="edge"><title>Node5&#45;&gt;Node7</title>
<path fill="none" stroke="midnightblue" d="M301.496,-262.625C305.209,-293.94 322.133,-397.36 386.649,-438.5 448.577,-477.989 539.926,-450.704 586.142,-432.372"/>
<polygon fill="midnightblue" stroke="midnightblue" points="587.633,-435.544 595.557,-428.511 584.977,-429.067 587.633,-435.544"/>
</g>
<!-- Node10 -->
<g id="node10" class="node"><title>Node10</title>
<g id="a_node10"><a xlink:href="station_actions_8c.html#abec412b1329832ff70968ddd70b18f3e" target="_top" xlink:title="Function to treat the Alert messages coming from the server. ">
<polygon fill="white" stroke="black" points="390.548,-299.5 390.548,-317.5 506.597,-317.5 506.597,-299.5 390.548,-299.5"/>
<text text-anchor="middle" x="448.573" y="-305.5" font-family="Helvetica,sans-Serif" font-size="10.00">SA_treatAlertMessage</text>
</a>
</g>
</g>
<!-- Node5&#45;&gt;Node10 -->
<g id="edge9" class="edge"><title>Node5&#45;&gt;Node10</title>
<path fill="none" stroke="midnightblue" d="M319.796,-262.543C337.069,-270.48 363.243,-282.045 386.649,-290.5 392.364,-292.564 398.441,-294.574 404.459,-296.456"/>
<polygon fill="midnightblue" stroke="midnightblue" points="403.872,-299.936 414.458,-299.492 405.906,-293.238 403.872,-299.936"/>
</g>
<!-- Node11 -->
<g id="node11" class="node"><title>Node11</title>
<g id="a_node11"><a xlink:href="station_actions_8c.html#a2194e68556b58027350c53533996f78a" target="_top" xlink:title="Function to treat the ID Assign messages. ">
<polygon fill="white" stroke="black" points="401.11,-151.5 401.11,-169.5 496.036,-169.5 496.036,-151.5 401.11,-151.5"/>
<text text-anchor="middle" x="448.573" y="-157.5" font-family="Helvetica,sans-Serif" font-size="10.00">SA_treatIDAssign</text>
</a>
</g>
</g>
<!-- Node5&#45;&gt;Node11 -->
<g id="edge11" class="edge"><title>Node5&#45;&gt;Node11</title>
<path fill="none" stroke="midnightblue" d="M308.652,-244.231C322.875,-228.474 353.984,-196.431 386.649,-178.5 390.347,-176.47 394.301,-174.645 398.35,-173.009"/>
<polygon fill="midnightblue" stroke="midnightblue" points="399.703,-176.241 407.898,-169.526 397.304,-169.664 399.703,-176.241"/>
</g>
<!-- Node13 -->
<g id="node13" class="node"><title>Node13</title>
<g id="a_node13"><a xlink:href="station_actions_8c.html#a1e710f6898a01da9a953e7fed354c358" target="_top" xlink:title="Function to treat the initial vehicle list message. ">
<polygon fill="white" stroke="black" points="393.048,-38.5 393.048,-56.5 504.097,-56.5 504.097,-38.5 393.048,-38.5"/>
<text text-anchor="middle" x="448.573" y="-44.5" font-family="Helvetica,sans-Serif" font-size="10.00">SA_treatListMessage</text>
</a>
</g>
</g>
<!-- Node5&#45;&gt;Node13 -->
<g id="edge14" class="edge"><title>Node5&#45;&gt;Node13</title>
<path fill="none" stroke="midnightblue" d="M302.003,-244.469C307.259,-214.299 328.339,-116.062 386.649,-65.5 388.376,-64.003 390.222,-62.6304 392.157,-61.3719"/>
<polygon fill="midnightblue" stroke="midnightblue" points="393.967,-64.3726 401.115,-56.5525 390.65,-58.208 393.967,-64.3726"/>
</g>
<!-- Node14 -->
<g id="node14" class="node"><title>Node14</title>
<g id="a_node14"><a xlink:href="station_actions_8c.html#adef80b5aef5924633f2ef4b37eecc820" target="_top" xlink:title="Add a new vehicle to the vehicle list. ">
<polygon fill="white" stroke="black" points="561.22,-57.5 561.22,-75.5 671.18,-75.5 671.18,-57.5 561.22,-57.5"/>
<text text-anchor="middle" x="616.2" y="-63.5" font-family="Helvetica,sans-Serif" font-size="10.00">SA_addVehicleToList</text>
</a>
</g>
</g>
<!-- Node5&#45;&gt;Node14 -->
<g id="edge24" class="edge"><title>Node5&#45;&gt;Node14</title>
<path fill="none" stroke="midnightblue" d="M305.029,-244.442C315.931,-223.211 346.055,-169.891 386.649,-141.5 433.939,-108.427 455.684,-120.55 510.496,-102.5 533.718,-94.853 559.71,-85.9184 579.988,-78.8631"/>
<polygon fill="midnightblue" stroke="midnightblue" points="581.156,-82.1624 589.446,-75.5645 578.851,-75.5528 581.156,-82.1624"/>
</g>
<!-- Node19 -->
<g id="node19" class="node"><title>Node19</title>
<g id="a_node19"><a xlink:href="station_actions_8c.html#a2be0d823bd5a676ce32b74e8f1b12dc2" target="_top" xlink:title="Send the vehicle connected message to the server. ">
<polygon fill="white" stroke="black" points="386.649,-336.5 386.649,-354.5 510.496,-354.5 510.496,-336.5 386.649,-336.5"/>
<text text-anchor="middle" x="448.573" y="-342.5" font-family="Helvetica,sans-Serif" font-size="10.00">SA_sendConnectedMsg</text>
</a>
</g>
</g>
<!-- Node5&#45;&gt;Node19 -->
<g id="edge25" class="edge"><title>Node5&#45;&gt;Node19</title>
<path fill="none" stroke="midnightblue" d="M308.679,-262.639C322.943,-278.178 354.112,-309.78 386.649,-327.5 390.354,-329.518 394.312,-331.334 398.364,-332.965"/>
<polygon fill="midnightblue" stroke="midnightblue" points="397.323,-336.31 407.918,-336.439 399.716,-329.732 397.323,-336.31"/>
</g>
<!-- Node20 -->
<g id="node20" class="node"><title>Node20</title>
<g id="a_node20"><a xlink:href="station_actions_8c.html#afbf777498692d2ce2582ab9228b11063" target="_top" xlink:title="Send the Join multicast group message to the vehicle. ">
<polygon fill="white" stroke="black" points="390.819,-373.5 390.819,-391.5 506.326,-391.5 506.326,-373.5 390.819,-373.5"/>
<text text-anchor="middle" x="448.573" y="-379.5" font-family="Helvetica,sans-Serif" font-size="10.00">SA_sendJoinMessage</text>
</a>
</g>
</g>
<!-- Node5&#45;&gt;Node20 -->
<g id="edge28" class="edge"><title>Node5&#45;&gt;Node20</title>
<path fill="none" stroke="midnightblue" d="M305.018,-262.524C315.896,-283.668 345.972,-336.717 386.649,-364.5 389.336,-366.335 392.213,-367.986 395.199,-369.471"/>
<polygon fill="midnightblue" stroke="midnightblue" points="393.843,-372.698 404.412,-373.448 396.617,-366.271 393.843,-372.698"/>
</g>
<!-- Node21 -->
<g id="node21" class="node"><title>Node21</title>
<g id="a_node21"><a xlink:href="station_actions_8c.html#a6aebd614595a0cd43b4f3dae79904502" target="_top" xlink:title="SA_treatIDMessage">
<polygon fill="white" stroke="black" points="395.829,-75.5 395.829,-93.5 501.316,-93.5 501.316,-75.5 395.829,-75.5"/>
<text text-anchor="middle" x="448.573" y="-81.5" font-family="Helvetica,sans-Serif" font-size="10.00">SA_treatIDMessage</text>
</a>
</g>
</g>
<!-- Node5&#45;&gt;Node21 -->
<g id="edge32" class="edge"><title>Node5&#45;&gt;Node21</title>
<path fill="none" stroke="midnightblue" d="M303.626,-244.281C312.437,-219.023 340.28,-147.968 386.649,-108.5 391.649,-104.245 397.493,-100.688 403.546,-97.7312"/>
<polygon fill="midnightblue" stroke="midnightblue" points="405.362,-100.759 413.139,-93.5644 402.573,-94.3381 405.362,-100.759"/>
</g>
<!-- Node22 -->
<g id="node22" class="node"><title>Node22</title>
<g id="a_node22"><a xlink:href="station_actions_8c.html#a508d1d36f16f6dee4c28344426c929f0" target="_top" xlink:title="Function to treat the ID Request Messages. ">
<polygon fill="white" stroke="black" points="386.657,-262.5 386.657,-280.5 510.489,-280.5 510.489,-262.5 386.657,-262.5"/>
<text text-anchor="middle" x="448.573" y="-268.5" font-family="Helvetica,sans-Serif" font-size="10.00">SA_treatIDReqMessage</text>
</a>
</g>
</g>
<!-- Node5&#45;&gt;Node22 -->
<g id="edge33" class="edge"><title>Node5&#45;&gt;Node22</title>
<path fill="none" stroke="midnightblue" d="M350.751,-259.644C359.001,-260.654 367.688,-261.718 376.333,-262.777"/>
<polygon fill="midnightblue" stroke="midnightblue" points="376.083,-266.272 386.434,-264.014 376.934,-259.324 376.083,-266.272"/>
</g>
<!-- Node23 -->
<g id="node23" class="node"><title>Node23</title>
<g id="a_node23"><a xlink:href="station_actions_8c.html#a1e0a9c39b59131a6b19a9d44544543ab" target="_top" xlink:title="Function to treat the Location messages. ">
<polygon fill="white" stroke="black" points="390.548,-225.5 390.548,-243.5 506.597,-243.5 506.597,-225.5 390.548,-225.5"/>
<text text-anchor="middle" x="448.573" y="-231.5" font-family="Helvetica,sans-Serif" font-size="10.00">SA_treatLOCMessage</text>
</a>
</g>
</g>
<!-- Node5&#45;&gt;Node23 -->
<g id="edge35" class="edge"><title>Node5&#45;&gt;Node23</title>
<path fill="none" stroke="midnightblue" d="M350.751,-247.014C360.357,-245.773 370.557,-244.454 380.593,-243.157"/>
<polygon fill="midnightblue" stroke="midnightblue" points="381.078,-246.624 390.547,-241.871 380.18,-239.682 381.078,-246.624"/>
</g>
<!-- Node24 -->
<g id="node24" class="node"><title>Node24</title>
<g id="a_node24"><a xlink:href="station_actions_8c.html#a5db92a163307a895ded7d4c6d9627c3f" target="_top" xlink:title="Function to treat the Status messages coming from the vehicle. ">
<polygon fill="white" stroke="black" points="386.654,-188.5 386.654,-206.5 510.491,-206.5 510.491,-188.5 386.654,-188.5"/>
<text text-anchor="middle" x="448.573" y="-194.5" font-family="Helvetica,sans-Serif" font-size="10.00">SA_treatStatusMessage</text>
</a>
</g>
</g>
<!-- Node5&#45;&gt;Node24 -->
<g id="edge37" class="edge"><title>Node5&#45;&gt;Node24</title>
<path fill="none" stroke="midnightblue" d="M319.095,-244.494C336.337,-236.309 362.878,-224.218 386.649,-215.5 392.288,-213.432 398.284,-211.43 404.231,-209.558"/>
<polygon fill="midnightblue" stroke="midnightblue" points="405.575,-212.808 414.12,-206.544 403.534,-206.112 405.575,-212.808"/>
</g>
<!-- Node6&#45;&gt;Node7 -->
<g id="edge6" class="edge"><title>Node6&#45;&gt;Node7</title>
<path fill="none" stroke="midnightblue" d="M509.837,-419.5C521.976,-419.5 534.816,-419.5 547.199,-419.5"/>
<polygon fill="midnightblue" stroke="midnightblue" points="547.468,-423 557.468,-419.5 547.468,-416 547.468,-423"/>
</g>
<!-- Node8 -->
<g id="node8" class="node"><title>Node8</title>
<g id="a_node8"><a xlink:href="message_parser_8c.html#a0026bd717404e4c2f9df87d137721377" target="_top" xlink:title="Message structure initializer. ">
<polygon fill="white" stroke="black" points="570.412,-373.5 570.412,-391.5 661.988,-391.5 661.988,-373.5 570.412,-373.5"/>
<text text-anchor="middle" x="616.2" y="-379.5" font-family="Helvetica,sans-Serif" font-size="10.00">MP_initMsgStruc</text>
</a>
</g>
</g>
<!-- Node6&#45;&gt;Node8 -->
<g id="edge7" class="edge"><title>Node6&#45;&gt;Node8</title>
<path fill="none" stroke="midnightblue" d="M490.09,-410.449C512.631,-405.413 540.888,-399.101 564.842,-393.75"/>
<polygon fill="midnightblue" stroke="midnightblue" points="565.818,-397.118 574.815,-391.522 564.292,-390.286 565.818,-397.118"/>
</g>
<!-- Node9 -->
<g id="node9" class="node"><title>Node9</title>
<g id="a_node9"><a xlink:href="msg_buffers_8c.html#a94d8920e20c5150892cf23b81eb1dfd6" target="_top" xlink:title="Put a message into the buffer. ">
<polygon fill="white" stroke="black" points="570.681,-280.5 570.681,-298.5 661.72,-298.5 661.72,-280.5 570.681,-280.5"/>
<text text-anchor="middle" x="616.2" y="-286.5" font-family="Helvetica,sans-Serif" font-size="10.00">MB_putMessage</text>
</a>
</g>
</g>
<!-- Node6&#45;&gt;Node9 -->
<g id="edge8" class="edge"><title>Node6&#45;&gt;Node9</title>
<path fill="none" stroke="midnightblue" d="M491.162,-410.458C497.892,-408.094 504.584,-405.15 510.496,-401.5 515.93,-398.144 572.083,-336.852 599.839,-306.393"/>
<polygon fill="midnightblue" stroke="midnightblue" points="602.705,-308.444 606.849,-298.693 597.529,-303.732 602.705,-308.444"/>
</g>
<!-- Node10&#45;&gt;Node9 -->
<g id="edge10" class="edge"><title>Node10&#45;&gt;Node9</title>
<path fill="none" stroke="midnightblue" d="M507.036,-301.908C524.291,-299.929 543.17,-297.763 560.257,-295.803"/>
<polygon fill="midnightblue" stroke="midnightblue" points="561.098,-299.229 570.634,-294.612 560.3,-292.275 561.098,-299.229"/>
</g>
<!-- Node11&#45;&gt;Node9 -->
<g id="edge13" class="edge"><title>Node11&#45;&gt;Node9</title>
<path fill="none" stroke="midnightblue" d="M491.149,-169.564C497.88,-171.926 504.576,-174.863 510.496,-178.5 550.726,-203.217 585.69,-247.32 603.221,-271.835"/>
<polygon fill="midnightblue" stroke="midnightblue" points="600.463,-273.999 609.061,-280.191 606.2,-269.989 600.463,-273.999"/>
</g>
<!-- Node12 -->
<g id="node12" class="node"><title>Node12</title>
<g id="a_node12"><a xlink:href="station_actions_8c.html#ad32eaec7f38945a0256977ee21f1318d" target="_top" xlink:title="Search a vehicle by socket number. ">
<polygon fill="white" stroke="black" points="546.496,-151.5 546.496,-169.5 685.904,-169.5 685.904,-151.5 546.496,-151.5"/>
<text text-anchor="middle" x="616.2" y="-157.5" font-family="Helvetica,sans-Serif" font-size="10.00">SA_searchVehicleBySocket</text>
</a>
</g>
</g>
<!-- Node11&#45;&gt;Node12 -->
<g id="edge12" class="edge"><title>Node11&#45;&gt;Node12</title>
<path fill="none" stroke="midnightblue" d="M496.15,-160.5C508.578,-160.5 522.362,-160.5 536.015,-160.5"/>
<polygon fill="midnightblue" stroke="midnightblue" points="536.405,-164 546.405,-160.5 536.405,-157 536.405,-164"/>
</g>
<!-- Node13&#45;&gt;Node14 -->
<g id="edge15" class="edge"><title>Node13&#45;&gt;Node14</title>
<path fill="none" stroke="midnightblue" d="M504.264,-53.774C519.26,-55.4941 535.651,-57.3744 551.121,-59.1491"/>
<polygon fill="midnightblue" stroke="midnightblue" points="550.797,-62.6348 561.131,-60.2974 551.595,-55.6804 550.797,-62.6348"/>
</g>
<!-- Node14&#45;&gt;Node2 -->
<g id="edge22" class="edge"><title>Node14&#45;&gt;Node2</title>
<path fill="none" stroke="midnightblue" d="M671.207,-69.8531C729.238,-73.4561 820.567,-79.1264 875.882,-82.5607"/>
<polygon fill="midnightblue" stroke="midnightblue" points="875.912,-86.0692 886.11,-83.1957 876.346,-79.0827 875.912,-86.0692"/>
</g>
<!-- Node15 -->
<g id="node15" class="node"><title>Node15</title>
<g id="a_node15"><a xlink:href="station_actions_8c.html#ac5974717372c28efe7b4e33f68ef895b" target="_top" xlink:title="Function to initialize a new vehicle structure. ">
<polygon fill="white" stroke="black" points="721.904,-38.5 721.904,-56.5 801.84,-56.5 801.84,-38.5 721.904,-38.5"/>
<text text-anchor="middle" x="761.872" y="-44.5" font-family="Helvetica,sans-Serif" font-size="10.00">SA_initVehicle</text>
</a>
</g>
</g>
<!-- Node14&#45;&gt;Node15 -->
<g id="edge16" class="edge"><title>Node14&#45;&gt;Node15</title>
<path fill="none" stroke="midnightblue" d="M671.516,-59.3169C684.684,-57.5756 698.687,-55.7237 711.607,-54.0151"/>
<polygon fill="midnightblue" stroke="midnightblue" points="712.244,-57.4614 721.699,-52.6805 711.327,-50.5218 712.244,-57.4614"/>
</g>
<!-- Node15&#45;&gt;Node2 -->
<g id="edge17" class="edge"><title>Node15&#45;&gt;Node2</title>
<path fill="none" stroke="midnightblue" d="M800.232,-56.5135C812.238,-59.3984 825.597,-62.5965 837.84,-65.5 850.347,-68.4663 863.892,-71.6515 876.429,-74.5884"/>
<polygon fill="midnightblue" stroke="midnightblue" points="875.694,-78.0109 886.229,-76.8817 877.289,-71.1951 875.694,-78.0109"/>
</g>
<!-- Node16 -->
<g id="node16" class="node"><title>Node16</title>
<g id="a_node16"><a xlink:href="tcp_vehicle_socket_comm_8c.html#a8a9cd2f1bfdc3aada6f66fbddee2aa39" target="_top" xlink:title="Thread to send the messages to the vehicle. ">
<polygon fill="white" stroke="black" points="837.84,-38.5 837.84,-56.5 1010.61,-56.5 1010.61,-38.5 837.84,-38.5"/>
<text text-anchor="middle" x="924.224" y="-44.5" font-family="Helvetica,sans-Serif" font-size="10.00">VSC_outboundHandlerThreadFunc</text>
</a>
</g>
</g>
<!-- Node15&#45;&gt;Node16 -->
<g id="edge18" class="edge"><title>Node15&#45;&gt;Node16</title>
<path fill="none" stroke="midnightblue" d="M802.098,-47.5C809.98,-47.5 818.584,-47.5 827.452,-47.5"/>
<polygon fill="midnightblue" stroke="midnightblue" points="827.553,-51.0001 837.553,-47.5 827.553,-44.0001 827.553,-51.0001"/>
</g>
<!-- Node16&#45;&gt;Node4 -->
<g id="edge19" class="edge"><title>Node16&#45;&gt;Node4</title>
<path fill="none" stroke="midnightblue" d="M971.393,-38.4945C999.474,-33.017 1035.5,-25.9902 1065.05,-20.226"/>
<polygon fill="midnightblue" stroke="midnightblue" points="1066.07,-23.5942 1075.21,-18.2444 1064.72,-16.7237 1066.07,-23.5942"/>
</g>
<!-- Node17 -->
<g id="node17" class="node"><title>Node17</title>
<g id="a_node17"><a xlink:href="tcp_vehicle_socket_comm_8c.html#a1c76ab448a30a8498f76e22546c81047" target="_top" xlink:title="Send a message to a vehicle. ">
<polygon fill="white" stroke="black" points="1046.61,-38.5 1046.61,-56.5 1195.47,-56.5 1195.47,-38.5 1046.61,-38.5"/>
<text text-anchor="middle" x="1121.04" y="-44.5" font-family="Helvetica,sans-Serif" font-size="10.00">VSC_SendMessageToVehicle</text>
</a>
</g>
</g>
<!-- Node16&#45;&gt;Node17 -->
<g id="edge20" class="edge"><title>Node16&#45;&gt;Node17</title>
<path fill="none" stroke="midnightblue" d="M1010.67,-47.5C1019.18,-47.5 1027.8,-47.5 1036.29,-47.5"/>
<polygon fill="midnightblue" stroke="midnightblue" points="1036.55,-51.0001 1046.55,-47.5 1036.55,-44.0001 1036.55,-51.0001"/>
</g>
<!-- Node18 -->
<g id="node18" class="node"><title>Node18</title>
<g id="a_node18"><a xlink:href="message_parser_8c.html#a1e487e587ff3244c0808f4602ec6f1f7" target="_top" xlink:title="Message wiping function. ">
<polygon fill="white" stroke="black" points="1231.47,-38.5 1231.47,-56.5 1329.18,-56.5 1329.18,-38.5 1231.47,-38.5"/>
<text text-anchor="middle" x="1280.33" y="-44.5" font-family="Helvetica,sans-Serif" font-size="10.00">MP_wipeMessage</text>
</a>
</g>
</g>
<!-- Node17&#45;&gt;Node18 -->
<g id="edge21" class="edge"><title>Node17&#45;&gt;Node18</title>
<path fill="none" stroke="midnightblue" d="M1195.62,-47.5C1204.26,-47.5 1212.98,-47.5 1221.36,-47.5"/>
<polygon fill="midnightblue" stroke="midnightblue" points="1221.39,-51.0001 1231.39,-47.5 1221.39,-44.0001 1221.39,-51.0001"/>
</g>
<!-- Node19&#45;&gt;Node8 -->
<g id="edge26" class="edge"><title>Node19&#45;&gt;Node8</title>
<path fill="none" stroke="midnightblue" d="M490.09,-354.551C512.631,-359.587 540.888,-365.899 564.842,-371.25"/>
<polygon fill="midnightblue" stroke="midnightblue" points="564.292,-374.714 574.815,-373.478 565.818,-367.882 564.292,-374.714"/>
</g>
<!-- Node19&#45;&gt;Node9 -->
<g id="edge27" class="edge"><title>Node19&#45;&gt;Node9</title>
<path fill="none" stroke="midnightblue" d="M481.621,-336.429C490.967,-333.676 501.172,-330.566 510.496,-327.5 534.65,-319.557 561.613,-309.749 582.128,-302.087"/>
<polygon fill="midnightblue" stroke="midnightblue" points="583.508,-305.307 591.64,-298.516 581.048,-298.754 583.508,-305.307"/>
</g>
<!-- Node20&#45;&gt;Node7 -->
<g id="edge29" class="edge"><title>Node20&#45;&gt;Node7</title>
<path fill="none" stroke="midnightblue" d="M490.09,-391.551C512.631,-396.587 540.888,-402.899 564.842,-408.25"/>
<polygon fill="midnightblue" stroke="midnightblue" points="564.292,-411.714 574.815,-410.478 565.818,-404.882 564.292,-411.714"/>
</g>
<!-- Node20&#45;&gt;Node8 -->
<g id="edge30" class="edge"><title>Node20&#45;&gt;Node8</title>
<path fill="none" stroke="midnightblue" d="M506.572,-382.5C523.853,-382.5 542.8,-382.5 559.963,-382.5"/>
<polygon fill="midnightblue" stroke="midnightblue" points="560.388,-386 570.388,-382.5 560.388,-379 560.388,-386"/>
</g>
<!-- Node20&#45;&gt;Node9 -->
<g id="edge31" class="edge"><title>Node20&#45;&gt;Node9</title>
<path fill="none" stroke="midnightblue" d="M487.37,-373.474C495.2,-371.016 503.262,-368.034 510.496,-364.5 543.545,-348.354 577.354,-321.99 597.3,-305.207"/>
<polygon fill="midnightblue" stroke="midnightblue" points="599.632,-307.818 604.957,-298.658 595.083,-302.498 599.632,-307.818"/>
</g>
<!-- Node22&#45;&gt;Node9 -->
<g id="edge34" class="edge"><title>Node22&#45;&gt;Node9</title>
<path fill="none" stroke="midnightblue" d="M510.776,-278.151C527.028,-279.918 544.474,-281.814 560.364,-283.54"/>
<polygon fill="midnightblue" stroke="midnightblue" points="560.232,-287.047 570.552,-284.648 560.989,-280.088 560.232,-287.047"/>
</g>
<!-- Node23&#45;&gt;Node9 -->
<g id="edge36" class="edge"><title>Node23&#45;&gt;Node9</title>
<path fill="none" stroke="midnightblue" d="M479.066,-243.51C489.064,-246.614 500.284,-250.153 510.496,-253.5 533.728,-261.115 559.72,-270.049 579.996,-277.112"/>
<polygon fill="midnightblue" stroke="midnightblue" points="578.858,-280.422 589.453,-280.416 581.166,-273.814 578.858,-280.422"/>
</g>
<!-- Node24&#45;&gt;Node9 -->
<g id="edge38" class="edge"><title>Node24&#45;&gt;Node9</title>
<path fill="none" stroke="midnightblue" d="M487.353,-206.561C495.184,-209.017 503.251,-211.989 510.496,-215.5 543.447,-231.469 577.284,-257.47 597.263,-274.017"/>
<polygon fill="midnightblue" stroke="midnightblue" points="595.029,-276.712 604.933,-280.473 599.536,-271.356 595.029,-276.712"/>
</g>
</g>
</svg>
