<?xml version="1.0" encoding="UTF-8" standalone="no"?>
<!DOCTYPE svg PUBLIC "-//W3C//DTD SVG 1.1//EN"
 "http://www.w3.org/Graphics/SVG/1.1/DTD/svg11.dtd">
<!-- Generated by graphviz version 2.38.0 (20140413.2041)
 -->
<!-- Title: rasPi&#45;EmergencyStation/messageParser.h Pages: 1 -->
<svg width="943pt" height="312pt"
 viewBox="0.00 0.00 943.18 312.00" xmlns="http://www.w3.org/2000/svg" xmlns:xlink="http://www.w3.org/1999/xlink">
<g id="graph0" class="graph" transform="scale(1 1) rotate(0) translate(4 308)">
<title>rasPi&#45;EmergencyStation/messageParser.h</title>
<polygon fill="white" stroke="none" points="-4,4 -4,-308 939.185,-308 939.185,4 -4,4"/>
<!-- Node1 -->
<g id="node1" class="node"><title>Node1</title>
<polygon fill="#bfbfbf" stroke="black" points="344.089,-275.5 344.089,-303.5 467.911,-303.5 467.911,-275.5 344.089,-275.5"/>
<text text-anchor="start" x="352.089" y="-291.5" font-family="Helvetica,sans-Serif" font-size="10.00">rasPi&#45;EmergencyStation</text>
<text text-anchor="middle" x="406" y="-281.5" font-family="Helvetica,sans-Serif" font-size="10.00">/messageParser.h</text>
</g>
<!-- Node2 -->
<g id="node2" class="node"><title>Node2</title>
<polygon fill="white" stroke="#bfbfbf" points="248.269,-0.5 248.269,-18.5 293.731,-18.5 293.731,-0.5 248.269,-0.5"/>
<text text-anchor="middle" x="271" y="-6.5" font-family="Helvetica,sans-Serif" font-size="10.00">stdio.h</text>
</g>
<!-- Node1&#45;&gt;Node2 -->
<g id="edge1" class="edge"><title>Node1&#45;&gt;Node2</title>
<path fill="none" stroke="midnightblue" d="M468.235,-287.964C586.689,-284.662 826.492,-265.733 753,-165 698.094,-89.7427 403.509,-33.1655 303.922,-15.9486"/>
<polygon fill="midnightblue" stroke="midnightblue" points="304.28,-12.4592 293.834,-14.2244 303.101,-19.3592 304.28,-12.4592"/>
</g>
<!-- Node3 -->
<g id="node3" class="node"><title>Node3</title>
<polygon fill="white" stroke="#bfbfbf" points="509.604,-165.5 509.604,-183.5 558.396,-183.5 558.396,-165.5 509.604,-165.5"/>
<text text-anchor="middle" x="534" y="-171.5" font-family="Helvetica,sans-Serif" font-size="10.00">string.h</text>
</g>
<!-- Node1&#45;&gt;Node3 -->
<g id="edge2" class="edge"><title>Node1&#45;&gt;Node3</title>
<path fill="none" stroke="midnightblue" d="M428.855,-275.488C444.108,-266.273 464.19,-253.087 480,-239 496.153,-224.608 511.856,-205.369 522.126,-191.853"/>
<polygon fill="midnightblue" stroke="midnightblue" points="525.149,-193.653 528.306,-183.54 519.531,-189.477 525.149,-193.653"/>
</g>
<!-- Node4 -->
<g id="node4" class="node"><title>Node4</title>
<polygon fill="white" stroke="#bfbfbf" points="434.158,-110.5 434.158,-128.5 481.842,-128.5 481.842,-110.5 434.158,-110.5"/>
<text text-anchor="middle" x="458" y="-116.5" font-family="Helvetica,sans-Serif" font-size="10.00">stdlib.h</text>
</g>
<!-- Node1&#45;&gt;Node4 -->
<g id="edge3" class="edge"><title>Node1&#45;&gt;Node4</title>
<path fill="none" stroke="midnightblue" d="M467.97,-277.981C554.913,-261.808 706.083,-228.033 738,-184 742.956,-177.163 743.483,-171.423 738,-165 706.756,-128.398 559.882,-121.749 492.249,-120.649"/>
<polygon fill="midnightblue" stroke="midnightblue" points="492.149,-117.148 482.104,-120.517 492.058,-124.147 492.149,-117.148"/>
</g>
<!-- Node5 -->
<g id="node5" class="node"><title>Node5</title>
<polygon fill="white" stroke="#bfbfbf" points="58.8721,-0.5 58.8721,-18.5 117.128,-18.5 117.128,-0.5 58.8721,-0.5"/>
<text text-anchor="middle" x="88" y="-6.5" font-family="Helvetica,sans-Serif" font-size="10.00">pthread.h</text>
</g>
<!-- Node1&#45;&gt;Node5 -->
<g id="edge4" class="edge"><title>Node1&#45;&gt;Node5</title>
<path fill="none" stroke="midnightblue" d="M343.895,-284.128C230.163,-274.403 0,-246.013 0,-175.5 0,-175.5 0,-175.5 0,-118.5 0,-76.9602 39.6092,-42.547 65.6801,-24.3953"/>
<polygon fill="midnightblue" stroke="midnightblue" points="67.8806,-27.1344 74.25,-18.668 63.991,-21.3145 67.8806,-27.1344"/>
</g>
<!-- Node6 -->
<g id="node6" class="node"><title>Node6</title>
<polygon fill="white" stroke="#bfbfbf" points="477.537,-0.5 477.537,-18.5 542.463,-18.5 542.463,-0.5 477.537,-0.5"/>
<text text-anchor="middle" x="510" y="-6.5" font-family="Helvetica,sans-Serif" font-size="10.00">netinet/in.h</text>
</g>
<!-- Node1&#45;&gt;Node6 -->
<g id="edge5" class="edge"><title>Node1&#45;&gt;Node6</title>
<path fill="none" stroke="midnightblue" d="M467.951,-288.509C567.556,-287.297 757.377,-279.549 809,-239 832.726,-220.363 833,-205.671 833,-175.5 833,-175.5 833,-175.5 833,-118.5 833,-60.1192 640.807,-27.5431 552.928,-15.6994"/>
<polygon fill="midnightblue" stroke="midnightblue" points="553.12,-12.1945 542.748,-14.3575 552.205,-19.1344 553.12,-12.1945"/>
</g>
<!-- Node7 -->
<g id="node7" class="node"><title>Node7</title>
<polygon fill="white" stroke="#bfbfbf" points="576.372,-165.5 576.372,-183.5 639.628,-183.5 639.628,-165.5 576.372,-165.5"/>
<text text-anchor="middle" x="608" y="-171.5" font-family="Helvetica,sans-Serif" font-size="10.00">arpa/inet.h</text>
</g>
<!-- Node1&#45;&gt;Node7 -->
<g id="edge6" class="edge"><title>Node1&#45;&gt;Node7</title>
<path fill="none" stroke="midnightblue" d="M433.035,-275.356C452.647,-265.664 479.707,-251.965 503,-239 532.511,-222.574 565.74,-202.14 586.764,-188.961"/>
<polygon fill="midnightblue" stroke="midnightblue" points="588.645,-191.912 595.244,-183.623 584.916,-185.988 588.645,-191.912"/>
</g>
<!-- Node8 -->
<g id="node8" class="node"><title>Node8</title>
<polygon fill="white" stroke="#bfbfbf" points="657.49,-165.5 657.49,-183.5 728.51,-183.5 728.51,-165.5 657.49,-165.5"/>
<text text-anchor="middle" x="693" y="-171.5" font-family="Helvetica,sans-Serif" font-size="10.00">sys/socket.h</text>
</g>
<!-- Node1&#45;&gt;Node8 -->
<g id="edge7" class="edge"><title>Node1&#45;&gt;Node8</title>
<path fill="none" stroke="midnightblue" d="M439.996,-275.469C465.813,-265.546 502.179,-251.507 534,-239 579.182,-221.242 631.43,-200.297 663.338,-187.459"/>
<polygon fill="midnightblue" stroke="midnightblue" points="664.979,-190.571 672.948,-183.59 662.365,-184.078 664.979,-190.571"/>
</g>
<!-- Node9 -->
<g id="node9" class="node"><title>Node9</title>
<polygon fill="white" stroke="#bfbfbf" points="860.815,-220.5 860.815,-238.5 935.185,-238.5 935.185,-220.5 860.815,-220.5"/>
<text text-anchor="middle" x="898" y="-226.5" font-family="Helvetica,sans-Serif" font-size="10.00">semaphore.h</text>
</g>
<!-- Node1&#45;&gt;Node9 -->
<g id="edge8" class="edge"><title>Node1&#45;&gt;Node9</title>
<path fill="none" stroke="midnightblue" d="M468.209,-282.574C553.724,-274.186 712.32,-257.768 847,-239 848.25,-238.826 849.517,-238.645 850.795,-238.459"/>
<polygon fill="midnightblue" stroke="midnightblue" points="851.352,-241.915 860.712,-236.951 850.299,-234.994 851.352,-241.915"/>
</g>
<!-- Node10 -->
<g id="node10" class="node"><title>Node10</title>
<polygon fill="white" stroke="#bfbfbf" points="288.488,-110.5 288.488,-128.5 339.512,-128.5 339.512,-110.5 288.488,-110.5"/>
<text text-anchor="middle" x="314" y="-116.5" font-family="Helvetica,sans-Serif" font-size="10.00">unistd.h</text>
</g>
<!-- Node1&#45;&gt;Node10 -->
<g id="edge9" class="edge"><title>Node1&#45;&gt;Node10</title>
<path fill="none" stroke="midnightblue" d="M375.464,-275.493C359.961,-267.296 342.278,-255.177 332,-239 312.348,-208.068 311.216,-163.615 312.423,-138.882"/>
<polygon fill="midnightblue" stroke="midnightblue" points="315.926,-138.96 313.109,-128.747 308.942,-138.488 315.926,-138.96"/>
</g>
<!-- Node11 -->
<g id="node11" class="node"><title>Node11</title>
<g id="a_node11"><a xlink:href="structures_8h.html" target="_top" xlink:title="File containing all the structure definitions used in the other modules. ">
<polygon fill="white" stroke="black" points="174.879,-55.5 174.879,-73.5 243.121,-73.5 243.121,-55.5 174.879,-55.5"/>
<text text-anchor="middle" x="209" y="-61.5" font-family="Helvetica,sans-Serif" font-size="10.00">structures.h</text>
</a>
</g>
</g>
<!-- Node1&#45;&gt;Node11 -->
<g id="edge10" class="edge"><title>Node1&#45;&gt;Node11</title>
<path fill="none" stroke="midnightblue" d="M344.076,-281.904C285.927,-271.898 202.945,-246.8 169,-184 150.415,-149.617 177.742,-104.999 195.604,-81.5383"/>
<polygon fill="midnightblue" stroke="midnightblue" points="198.392,-83.6556 201.871,-73.6483 192.911,-79.3018 198.392,-83.6556"/>
</g>
<!-- Node12 -->
<g id="node12" class="node"><title>Node12</title>
<g id="a_node12"><a xlink:href="msg_buffers_8h.html" target="_top" xlink:title="File containing the headers of all functions related to the message mailboxes. ">
<polygon fill="white" stroke="red" points="27.6323,-110.5 27.6323,-128.5 102.368,-128.5 102.368,-110.5 27.6323,-110.5"/>
<text text-anchor="middle" x="65" y="-116.5" font-family="Helvetica,sans-Serif" font-size="10.00">msgBuffers.h</text>
</a>
</g>
</g>
<!-- Node1&#45;&gt;Node12 -->
<g id="edge14" class="edge"><title>Node1&#45;&gt;Node12</title>
<path fill="none" stroke="midnightblue" d="M344.029,-283.7C272.594,-276.876 160.927,-262.519 127,-239 91.2998,-214.252 70.5753,-165.204 64.6938,-138.63"/>
<polygon fill="midnightblue" stroke="midnightblue" points="68.147,-138.059 63.0816,-128.754 61.2385,-139.187 68.147,-138.059"/>
</g>
<!-- Node13 -->
<g id="node13" class="node"><title>Node13</title>
<g id="a_node13"><a xlink:href="tcp_vehicle_socket_comm_8h.html" target="_top" xlink:title="Vehicle connection server&#39;s headers. ">
<polygon fill="white" stroke="red" points="341.027,-220.5 341.027,-238.5 470.973,-238.5 470.973,-220.5 341.027,-220.5"/>
<text text-anchor="middle" x="406" y="-226.5" font-family="Helvetica,sans-Serif" font-size="10.00">tcpVehicleSocketComm.h</text>
</a>
</g>
</g>
<!-- Node1&#45;&gt;Node13 -->
<g id="edge19" class="edge"><title>Node1&#45;&gt;Node13</title>
<path fill="none" stroke="midnightblue" d="M400.239,-275.339C399.152,-267.531 398.961,-257.512 399.666,-248.927"/>
<polygon fill="midnightblue" stroke="midnightblue" points="403.167,-249.164 401.108,-238.771 396.237,-248.18 403.167,-249.164"/>
</g>
<!-- Node14 -->
<g id="node14" class="node"><title>Node14</title>
<g id="a_node14"><a xlink:href="station_actions_8h.html" target="_top" xlink:title="FIle containing all the station action headers. ">
<polygon fill="white" stroke="red" points="177.702,-165.5 177.702,-183.5 264.298,-183.5 264.298,-165.5 177.702,-165.5"/>
<text text-anchor="middle" x="221" y="-171.5" font-family="Helvetica,sans-Serif" font-size="10.00">stationActions.h</text>
</a>
</g>
</g>
<!-- Node1&#45;&gt;Node14 -->
<g id="edge39" class="edge"><title>Node1&#45;&gt;Node14</title>
<path fill="none" stroke="midnightblue" d="M348.82,-275.484C322.867,-267.43 292.824,-255.445 269,-239 250.752,-226.405 234.358,-206.831 225.686,-192.745"/>
<polygon fill="midnightblue" stroke="midnightblue" points="228.619,-190.807 220.82,-183.636 222.445,-194.105 228.619,-190.807"/>
</g>
<!-- Node11&#45;&gt;Node2 -->
<g id="edge11" class="edge"><title>Node11&#45;&gt;Node2</title>
<path fill="none" stroke="midnightblue" d="M218.416,-55.4504C227.794,-47.4345 242.402,-34.9471 253.843,-25.1663"/>
<polygon fill="midnightblue" stroke="midnightblue" points="256.168,-27.7836 261.495,-18.6253 251.619,-22.4627 256.168,-27.7836"/>
</g>
<!-- Node11&#45;&gt;Node5 -->
<g id="edge12" class="edge"><title>Node11&#45;&gt;Node5</title>
<path fill="none" stroke="midnightblue" d="M190.623,-55.4504C170.723,-46.734 138.753,-32.7306 115.782,-22.6691"/>
<polygon fill="midnightblue" stroke="midnightblue" points="117.114,-19.4316 106.55,-18.6253 114.306,-25.8435 117.114,-19.4316"/>
</g>
<!-- Node11&#45;&gt;Node6 -->
<g id="edge13" class="edge"><title>Node11&#45;&gt;Node6</title>
<path fill="none" stroke="midnightblue" d="M243.235,-57.4718C298.44,-47.7514 407.008,-28.6348 467.226,-18.0317"/>
<polygon fill="midnightblue" stroke="midnightblue" points="467.93,-21.4616 477.171,-16.2804 466.716,-14.5677 467.93,-21.4616"/>
</g>
<!-- Node12&#45;&gt;Node1 -->
<g id="edge18" class="edge"><title>Node12&#45;&gt;Node1</title>
<path fill="none" stroke="midnightblue" d="M71.5654,-128.754C82.9597,-150.695 104.2,-210.717 145,-239 175.315,-260.015 267.696,-273.715 334.005,-281.262"/>
<polygon fill="midnightblue" stroke="midnightblue" points="333.673,-284.746 343.999,-282.376 334.448,-277.789 333.673,-284.746"/>
</g>
<!-- Node12&#45;&gt;Node2 -->
<g id="edge15" class="edge"><title>Node12&#45;&gt;Node2</title>
<path fill="none" stroke="midnightblue" d="M76.4564,-110.441C94.819,-97.7237 132.215,-72.6347 166,-55 190.092,-42.425 218.535,-30.5417 239.737,-22.2235"/>
<polygon fill="midnightblue" stroke="midnightblue" points="241.158,-25.4264 249.219,-18.5511 238.63,-18.8988 241.158,-25.4264"/>
</g>
<!-- Node12&#45;&gt;Node5 -->
<g id="edge16" class="edge"><title>Node12&#45;&gt;Node5</title>
<path fill="none" stroke="midnightblue" d="M66.7287,-110.382C70.4084,-93.104 79.0919,-52.3294 84.1533,-28.5629"/>
<polygon fill="midnightblue" stroke="midnightblue" points="87.5914,-29.2215 86.2512,-18.7118 80.745,-27.7634 87.5914,-29.2215"/>
</g>
<!-- Node12&#45;&gt;Node11 -->
<g id="edge17" class="edge"><title>Node12&#45;&gt;Node11</title>
<path fill="none" stroke="midnightblue" d="M86.8705,-110.45C110.976,-101.578 149.963,-87.2288 177.391,-77.134"/>
<polygon fill="midnightblue" stroke="midnightblue" points="178.748,-80.364 186.924,-73.6253 176.33,-73.7948 178.748,-80.364"/>
</g>
<!-- Node13&#45;&gt;Node1 -->
<g id="edge29" class="edge"><title>Node13&#45;&gt;Node1</title>
<path fill="none" stroke="midnightblue" d="M410.892,-238.771C412.449,-245.7 413.027,-255.936 412.628,-265.323"/>
<polygon fill="midnightblue" stroke="midnightblue" points="409.136,-265.074 411.761,-275.339 416.11,-265.678 409.136,-265.074"/>
</g>
<!-- Node13&#45;&gt;Node2 -->
<g id="edge20" class="edge"><title>Node13&#45;&gt;Node2</title>
<path fill="none" stroke="midnightblue" d="M405.13,-220.355C402.651,-200.137 394.1,-146.649 370,-110 347.306,-75.489 311.263,-43.0584 289.497,-25.0826"/>
<polygon fill="midnightblue" stroke="midnightblue" points="291.62,-22.2979 281.649,-18.7171 287.211,-27.7346 291.62,-22.2979"/>
</g>
<!-- Node13&#45;&gt;Node3 -->
<g id="edge23" class="edge"><title>Node13&#45;&gt;Node3</title>
<path fill="none" stroke="midnightblue" d="M425.44,-220.45C446.585,-211.695 480.613,-197.606 504.935,-187.535"/>
<polygon fill="midnightblue" stroke="midnightblue" points="506.476,-190.685 514.377,-183.625 503.798,-184.217 506.476,-190.685"/>
</g>
<!-- Node13&#45;&gt;Node4 -->
<g id="edge21" class="edge"><title>Node13&#45;&gt;Node4</title>
<path fill="none" stroke="midnightblue" d="M409.908,-220.382C418.303,-202.948 438.216,-161.59 449.612,-137.922"/>
<polygon fill="midnightblue" stroke="midnightblue" points="452.861,-139.24 454.046,-128.712 446.554,-136.203 452.861,-139.24"/>
</g>
<!-- Node13&#45;&gt;Node6 -->
<g id="edge24" class="edge"><title>Node13&#45;&gt;Node6</title>
<path fill="none" stroke="midnightblue" d="M415.929,-220.413C434.247,-204.863 473.119,-168.788 491,-129 505.9,-95.8456 509.316,-52.8483 509.98,-28.8195"/>
<polygon fill="midnightblue" stroke="midnightblue" points="513.482,-28.722 510.123,-18.6735 506.482,-28.623 513.482,-28.722"/>
</g>
<!-- Node13&#45;&gt;Node7 -->
<g id="edge25" class="edge"><title>Node13&#45;&gt;Node7</title>
<path fill="none" stroke="midnightblue" d="M436.679,-220.45C471.633,-211.279 528.894,-196.256 567.492,-186.128"/>
<polygon fill="midnightblue" stroke="midnightblue" points="568.579,-189.462 577.363,-183.538 566.803,-182.691 568.579,-189.462"/>
</g>
<!-- Node13&#45;&gt;Node8 -->
<g id="edge26" class="edge"><title>Node13&#45;&gt;Node8</title>
<path fill="none" stroke="midnightblue" d="M450.811,-220.428C497.493,-211.99 573.033,-198.25 647.45,-184.278"/>
<polygon fill="midnightblue" stroke="midnightblue" points="648.283,-187.683 657.464,-182.396 646.99,-180.804 648.283,-187.683"/>
</g>
<!-- Node13&#45;&gt;Node10 -->
<g id="edge22" class="edge"><title>Node13&#45;&gt;Node10</title>
<path fill="none" stroke="midnightblue" d="M394.79,-220.489C383.634,-212.172 366.429,-198.386 354,-184 341.646,-169.701 330.452,-151.223 323.068,-137.89"/>
<polygon fill="midnightblue" stroke="midnightblue" points="326.027,-136.002 318.208,-128.852 319.862,-139.317 326.027,-136.002"/>
</g>
<!-- Node13&#45;&gt;Node11 -->
<g id="edge27" class="edge"><title>Node13&#45;&gt;Node11</title>
<path fill="none" stroke="midnightblue" d="M403.021,-220.267C394.115,-196.053 367.185,-125.792 349,-110 322.301,-86.8134 283.455,-75.6893 253.452,-70.363"/>
<polygon fill="midnightblue" stroke="midnightblue" points="253.673,-66.8533 243.243,-68.7105 252.555,-73.7634 253.673,-66.8533"/>
</g>
<!-- Node13&#45;&gt;Node12 -->
<g id="edge28" class="edge"><title>Node13&#45;&gt;Node12</title>
<path fill="none" stroke="midnightblue" d="M340.899,-222.696C292.284,-216.843 224.883,-205.475 169,-184 136.806,-171.628 103.438,-149.261 83.4481,-134.646"/>
<polygon fill="midnightblue" stroke="midnightblue" points="85.3667,-131.711 75.2572,-128.541 81.1832,-137.324 85.3667,-131.711"/>
</g>
<!-- Node13&#45;&gt;Node14 -->
<g id="edge30" class="edge"><title>Node13&#45;&gt;Node14</title>
<path fill="none" stroke="midnightblue" d="M372.893,-220.45C339.186,-211.396 287.474,-196.638 253.862,-186.519"/>
<polygon fill="midnightblue" stroke="midnightblue" points="254.637,-183.096 244.052,-183.538 252.602,-189.794 254.637,-183.096"/>
</g>
<!-- Node14&#45;&gt;Node1 -->
<g id="edge36" class="edge"><title>Node14&#45;&gt;Node1</title>
<path fill="none" stroke="midnightblue" d="M231.916,-183.636C244.509,-196.919 264.323,-223.347 287,-239 307.753,-253.325 333.225,-264.266 355.33,-272.172"/>
<polygon fill="midnightblue" stroke="midnightblue" points="354.301,-275.52 364.896,-275.484 356.591,-268.905 354.301,-275.52"/>
</g>
<!-- Node14&#45;&gt;Node2 -->
<g id="edge31" class="edge"><title>Node14&#45;&gt;Node2</title>
<path fill="none" stroke="midnightblue" d="M223.604,-165.254C228.973,-148.224 241.643,-107.917 252,-74 256.679,-58.6783 261.888,-41.2414 265.667,-28.5213"/>
<polygon fill="midnightblue" stroke="midnightblue" points="269.083,-29.3113 268.57,-18.7289 262.372,-27.3214 269.083,-29.3113"/>
</g>
<!-- Node14&#45;&gt;Node4 -->
<g id="edge32" class="edge"><title>Node14&#45;&gt;Node4</title>
<path fill="none" stroke="midnightblue" d="M256.995,-165.45C302.31,-155.317 379.581,-138.037 423.956,-128.113"/>
<polygon fill="midnightblue" stroke="midnightblue" points="424.966,-131.474 433.961,-125.876 423.438,-124.643 424.966,-131.474"/>
</g>
<!-- Node14&#45;&gt;Node5 -->
<g id="edge33" class="edge"><title>Node14&#45;&gt;Node5</title>
<path fill="none" stroke="midnightblue" d="M214.222,-165.193C193.23,-139.466 129.035,-60.7905 101.154,-26.6216"/>
<polygon fill="midnightblue" stroke="midnightblue" points="103.641,-24.1325 94.6069,-18.5971 98.2171,-28.5579 103.641,-24.1325"/>
</g>
<!-- Node14&#45;&gt;Node10 -->
<g id="edge34" class="edge"><title>Node14&#45;&gt;Node10</title>
<path fill="none" stroke="midnightblue" d="M235.125,-165.45C249.873,-157.045 273.248,-143.724 290.729,-133.762"/>
<polygon fill="midnightblue" stroke="midnightblue" points="292.787,-136.618 299.742,-128.625 289.321,-130.536 292.787,-136.618"/>
</g>
<!-- Node14&#45;&gt;Node11 -->
<g id="edge35" class="edge"><title>Node14&#45;&gt;Node11</title>
<path fill="none" stroke="midnightblue" d="M220.098,-165.382C218.187,-148.182 213.689,-107.698 211.043,-83.8866"/>
<polygon fill="midnightblue" stroke="midnightblue" points="214.495,-83.264 209.912,-73.7118 207.538,-84.0371 214.495,-83.264"/>
</g>
<!-- Node14&#45;&gt;Node12 -->
<g id="edge37" class="edge"><title>Node14&#45;&gt;Node12</title>
<path fill="none" stroke="midnightblue" d="M197.307,-165.45C170.887,-156.475 127.966,-141.892 98.2052,-131.781"/>
<polygon fill="midnightblue" stroke="midnightblue" points="99.2543,-128.441 88.6599,-128.538 97.0025,-135.069 99.2543,-128.441"/>
</g>
<!-- Node14&#45;&gt;Node13 -->
<g id="edge38" class="edge"><title>Node14&#45;&gt;Node13</title>
<path fill="none" stroke="midnightblue" d="M254.065,-183.538C287.758,-192.588 339.469,-207.345 373.096,-217.469"/>
<polygon fill="midnightblue" stroke="midnightblue" points="372.326,-220.893 382.912,-220.45 374.361,-214.195 372.326,-220.893"/>
</g>
</g>
</svg>
