<?xml version="1.0" encoding="UTF-8" standalone="no"?>
<!DOCTYPE svg PUBLIC "-//W3C//DTD SVG 1.1//EN"
 "http://www.w3.org/Graphics/SVG/1.1/DTD/svg11.dtd">
<!-- Generated by graphviz version 2.38.0 (20140413.2041)
 -->
<!-- Title: MP_ParserThread Pages: 1 -->
<svg width="1222pt" height="466pt"
 viewBox="0.00 0.00 1222.38 465.50" xmlns="http://www.w3.org/2000/svg" xmlns:xlink="http://www.w3.org/1999/xlink">
<g id="graph0" class="graph" transform="scale(1 1) rotate(0) translate(4 461.5)">
<title>MP_ParserThread</title>
<polygon fill="white" stroke="none" points="-4,4 -4,-461.5 1218.38,-461.5 1218.38,4 -4,4"/>
<!-- Node1 -->
<g id="node1" class="node"><title>Node1</title>
<polygon fill="#bfbfbf" stroke="black" points="0,-335.5 0,-353.5 97.6992,-353.5 97.6992,-335.5 0,-335.5"/>
<text text-anchor="middle" x="48.8496" y="-341.5" font-family="Helvetica,sans-Serif" font-size="10.00">MP_ParserThread</text>
</g>
<!-- Node2 -->
<g id="node2" class="node"><title>Node2</title>
<g id="a_node2"><a xlink:href="msg_buffers_8c.html#a2bc61492dcc33dc1712d77d383b1e33d" target="_top" xlink:title="Get a message from the buffer. ">
<polygon fill="white" stroke="black" points="960.723,-429.5 960.723,-447.5 1051.76,-447.5 1051.76,-429.5 960.723,-429.5"/>
<text text-anchor="middle" x="1006.24" y="-435.5" font-family="Helvetica,sans-Serif" font-size="10.00">MB_getMessage</text>
</a>
</g>
</g>
<!-- Node1&#45;&gt;Node2 -->
<g id="edge1" class="edge"><title>Node1&#45;&gt;Node2</title>
<path fill="none" stroke="midnightblue" d="M62.3838,-353.556C100.77,-380.371 220.909,-457.5 332.775,-457.5 332.775,-457.5 332.775,-457.5 648.074,-457.5 755.128,-457.5 879.976,-448.883 950.101,-443.255"/>
<polygon fill="midnightblue" stroke="midnightblue" points="950.774,-446.712 960.458,-442.414 950.207,-439.735 950.774,-446.712"/>
</g>
<!-- Node3 -->
<g id="node3" class="node"><title>Node3</title>
<g id="a_node3"><a xlink:href="message_parser_8c.html#a37ec21f46c51967253a4e2da9ab6f063" target="_top" xlink:title="Message parser main function. ">
<polygon fill="white" stroke="black" points="133.699,-222.5 133.699,-240.5 235.852,-240.5 235.852,-222.5 133.699,-222.5"/>
<text text-anchor="middle" x="184.775" y="-228.5" font-family="Helvetica,sans-Serif" font-size="10.00">MP_parseMessage</text>
</a>
</g>
</g>
<!-- Node1&#45;&gt;Node3 -->
<g id="edge2" class="edge"><title>Node1&#45;&gt;Node3</title>
<path fill="none" stroke="midnightblue" d="M60.8093,-335.253C83.6817,-315.954 136.721,-271.202 165.088,-247.268"/>
<polygon fill="midnightblue" stroke="midnightblue" points="167.653,-249.683 173.039,-240.559 163.139,-244.333 167.653,-249.683"/>
</g>
<!-- Node4 -->
<g id="node4" class="node"><title>Node4</title>
<g id="a_node4"><a xlink:href="station_actions_8c.html#a5e1c0855b4fc05bdfb48c63ee97d728e" target="_top" xlink:title="Function to treat the route messages sent by the server. ">
<polygon fill="white" stroke="black" points="272.689,-222.5 272.689,-240.5 394.861,-240.5 394.861,-222.5 272.689,-222.5"/>
<text text-anchor="middle" x="333.775" y="-228.5" font-family="Helvetica,sans-Serif" font-size="10.00">SA_treatRouteMessage</text>
</a>
</g>
</g>
<!-- Node3&#45;&gt;Node4 -->
<g id="edge3" class="edge"><title>Node3&#45;&gt;Node4</title>
<path fill="none" stroke="midnightblue" d="M235.953,-231.5C244.534,-231.5 253.589,-231.5 262.577,-231.5"/>
<polygon fill="midnightblue" stroke="midnightblue" points="262.668,-235 272.668,-231.5 262.668,-228 262.668,-235"/>
</g>
<!-- Node5 -->
<g id="node5" class="node"><title>Node5</title>
<g id="a_node5"><a xlink:href="station_actions_8c.html#a78fa797ba2873bacdac3f25506fdca3b" target="_top" xlink:title="Search a vehicle by ID. ">
<polygon fill="white" stroke="black" points="442.814,-259.5 442.814,-277.5 559.991,-277.5 559.991,-259.5 442.814,-259.5"/>
<text text-anchor="middle" x="501.402" y="-265.5" font-family="Helvetica,sans-Serif" font-size="10.00">SA_searchVehicleById</text>
</a>
</g>
</g>
<!-- Node3&#45;&gt;Node5 -->
<g id="edge21" class="edge"><title>Node3&#45;&gt;Node5</title>
<path fill="none" stroke="midnightblue" d="M195.677,-240.578C210.77,-253.731 241.042,-277.497 271.852,-286.5 335.962,-305.233 414.227,-291.673 460.544,-280.107"/>
<polygon fill="midnightblue" stroke="midnightblue" points="461.682,-283.427 470.484,-277.531 459.926,-276.651 461.682,-283.427"/>
</g>
<!-- Node8 -->
<g id="node8" class="node"><title>Node8</title>
<g id="a_node8"><a xlink:href="station_actions_8c.html#abec412b1329832ff70968ddd70b18f3e" target="_top" xlink:title="Function to treat the Alert messages coming from the server. ">
<polygon fill="white" stroke="black" points="275.75,-111.5 275.75,-129.5 391.799,-129.5 391.799,-111.5 275.75,-111.5"/>
<text text-anchor="middle" x="333.775" y="-117.5" font-family="Helvetica,sans-Serif" font-size="10.00">SA_treatAlertMessage</text>
</a>
</g>
</g>
<!-- Node3&#45;&gt;Node8 -->
<g id="edge7" class="edge"><title>Node3&#45;&gt;Node8</title>
<path fill="none" stroke="midnightblue" d="M191.707,-222.317C204.224,-203.677 235.219,-161.246 271.852,-138.5 274.987,-136.553 278.345,-134.807 281.812,-133.244"/>
<polygon fill="midnightblue" stroke="midnightblue" points="283.174,-136.468 291.17,-129.517 280.584,-129.965 283.174,-136.468"/>
</g>
<!-- Node9 -->
<g id="node9" class="node"><title>Node9</title>
<g id="a_node9"><a xlink:href="station_actions_8c.html#a2194e68556b58027350c53533996f78a" target="_top" xlink:title="Function to treat the ID Assign messages. ">
<polygon fill="white" stroke="black" points="286.312,-0.5 286.312,-18.5 381.238,-18.5 381.238,-0.5 286.312,-0.5"/>
<text text-anchor="middle" x="333.775" y="-6.5" font-family="Helvetica,sans-Serif" font-size="10.00">SA_treatIDAssign</text>
</a>
</g>
</g>
<!-- Node3&#45;&gt;Node9 -->
<g id="edge9" class="edge"><title>Node3&#45;&gt;Node9</title>
<path fill="none" stroke="midnightblue" d="M186.889,-222.168C191.227,-190.022 209.946,-82.8337 271.852,-27.5 273.555,-25.9772 275.382,-24.583 277.301,-23.3065"/>
<polygon fill="midnightblue" stroke="midnightblue" points="279.118,-26.3021 286.21,-18.4304 275.757,-20.1617 279.118,-26.3021"/>
</g>
<!-- Node11 -->
<g id="node11" class="node"><title>Node11</title>
<g id="a_node11"><a xlink:href="station_actions_8c.html#a1e710f6898a01da9a953e7fed354c358" target="_top" xlink:title="Function to treat the initial vehicle list message. ">
<polygon fill="white" stroke="black" points="278.25,-373.5 278.25,-391.5 389.299,-391.5 389.299,-373.5 278.25,-373.5"/>
<text text-anchor="middle" x="333.775" y="-379.5" font-family="Helvetica,sans-Serif" font-size="10.00">SA_treatListMessage</text>
</a>
</g>
</g>
<!-- Node3&#45;&gt;Node11 -->
<g id="edge12" class="edge"><title>Node3&#45;&gt;Node11</title>
<path fill="none" stroke="midnightblue" d="M189.588,-240.549C199.673,-263.462 229.23,-324.37 271.852,-358.5 277.217,-362.797 283.447,-366.403 289.834,-369.404"/>
<polygon fill="midnightblue" stroke="midnightblue" points="288.648,-372.703 299.221,-373.38 291.378,-366.257 288.648,-372.703"/>
</g>
<!-- Node12 -->
<g id="node12" class="node"><title>Node12</title>
<g id="a_node12"><a xlink:href="station_actions_8c.html#adef80b5aef5924633f2ef4b37eecc820" target="_top" xlink:title="Add a new vehicle to the vehicle list. ">
<polygon fill="white" stroke="black" points="446.422,-372.5 446.422,-390.5 556.382,-390.5 556.382,-372.5 446.422,-372.5"/>
<text text-anchor="middle" x="501.402" y="-378.5" font-family="Helvetica,sans-Serif" font-size="10.00">SA_addVehicleToList</text>
</a>
</g>
</g>
<!-- Node3&#45;&gt;Node12 -->
<g id="edge22" class="edge"><title>Node3&#45;&gt;Node12</title>
<path fill="none" stroke="midnightblue" d="M193.946,-240.523C208.306,-255.887 239.618,-287.234 271.852,-305.5 327.892,-337.257 399.244,-358.314 447.189,-370.049"/>
<polygon fill="midnightblue" stroke="midnightblue" points="446.51,-373.486 457.051,-372.412 448.142,-366.678 446.51,-373.486"/>
</g>
<!-- Node18 -->
<g id="node18" class="node"><title>Node18</title>
<g id="a_node18"><a xlink:href="station_actions_8c.html#a2be0d823bd5a676ce32b74e8f1b12dc2" target="_top" xlink:title="Send the vehicle connected message to the server. ">
<polygon fill="white" stroke="black" points="271.852,-185.5 271.852,-203.5 395.698,-203.5 395.698,-185.5 271.852,-185.5"/>
<text text-anchor="middle" x="333.775" y="-191.5" font-family="Helvetica,sans-Serif" font-size="10.00">SA_sendConnectedMsg</text>
</a>
</g>
</g>
<!-- Node3&#45;&gt;Node18 -->
<g id="edge23" class="edge"><title>Node3&#45;&gt;Node18</title>
<path fill="none" stroke="midnightblue" d="M221.736,-222.449C241.474,-217.481 266.15,-211.27 287.224,-205.965"/>
<polygon fill="midnightblue" stroke="midnightblue" points="288.088,-209.357 296.932,-203.522 286.38,-202.569 288.088,-209.357"/>
</g>
<!-- Node19 -->
<g id="node19" class="node"><title>Node19</title>
<g id="a_node19"><a xlink:href="station_actions_8c.html#afbf777498692d2ce2582ab9228b11063" target="_top" xlink:title="Send the Join multicast group message to the vehicle. ">
<polygon fill="white" stroke="black" points="276.021,-259.5 276.021,-277.5 391.528,-277.5 391.528,-259.5 276.021,-259.5"/>
<text text-anchor="middle" x="333.775" y="-265.5" font-family="Helvetica,sans-Serif" font-size="10.00">SA_sendJoinMessage</text>
</a>
</g>
</g>
<!-- Node3&#45;&gt;Node19 -->
<g id="edge26" class="edge"><title>Node3&#45;&gt;Node19</title>
<path fill="none" stroke="midnightblue" d="M221.736,-240.551C241.474,-245.519 266.15,-251.73 287.224,-257.035"/>
<polygon fill="midnightblue" stroke="midnightblue" points="286.38,-260.431 296.932,-259.478 288.088,-253.643 286.38,-260.431"/>
</g>
<!-- Node20 -->
<g id="node20" class="node"><title>Node20</title>
<g id="a_node20"><a xlink:href="station_actions_8c.html#a6aebd614595a0cd43b4f3dae79904502" target="_top" xlink:title="SA_treatIDMessage">
<polygon fill="white" stroke="black" points="281.031,-410.5 281.031,-428.5 386.519,-428.5 386.519,-410.5 281.031,-410.5"/>
<text text-anchor="middle" x="333.775" y="-416.5" font-family="Helvetica,sans-Serif" font-size="10.00">SA_treatIDMessage</text>
</a>
</g>
</g>
<!-- Node3&#45;&gt;Node20 -->
<g id="edge30" class="edge"><title>Node3&#45;&gt;Node20</title>
<path fill="none" stroke="midnightblue" d="M187.802,-240.771C194.484,-269.125 218.508,-355.477 271.852,-400.5 274.23,-402.508 276.82,-404.303 279.547,-405.91"/>
<polygon fill="midnightblue" stroke="midnightblue" points="278.116,-409.107 288.629,-410.422 281.231,-402.838 278.116,-409.107"/>
</g>
<!-- Node21 -->
<g id="node21" class="node"><title>Node21</title>
<g id="a_node21"><a xlink:href="station_actions_8c.html#a508d1d36f16f6dee4c28344426c929f0" target="_top" xlink:title="Function to treat the ID Request Messages. ">
<polygon fill="white" stroke="black" points="271.859,-74.5 271.859,-92.5 395.691,-92.5 395.691,-74.5 271.859,-74.5"/>
<text text-anchor="middle" x="333.775" y="-80.5" font-family="Helvetica,sans-Serif" font-size="10.00">SA_treatIDReqMessage</text>
</a>
</g>
</g>
<!-- Node3&#45;&gt;Node21 -->
<g id="edge31" class="edge"><title>Node3&#45;&gt;Node21</title>
<path fill="none" stroke="midnightblue" d="M189.212,-222.353C198.6,-198.626 227.013,-134.648 271.852,-101.5 274.18,-99.7789 276.671,-98.2216 279.267,-96.8124"/>
<polygon fill="midnightblue" stroke="midnightblue" points="280.816,-99.9522 288.416,-92.5699 277.871,-93.6017 280.816,-99.9522"/>
</g>
<!-- Node22 -->
<g id="node22" class="node"><title>Node22</title>
<g id="a_node22"><a xlink:href="station_actions_8c.html#a1e0a9c39b59131a6b19a9d44544543ab" target="_top" xlink:title="Function to treat the Location messages. ">
<polygon fill="white" stroke="black" points="275.75,-37.5 275.75,-55.5 391.799,-55.5 391.799,-37.5 275.75,-37.5"/>
<text text-anchor="middle" x="333.775" y="-43.5" font-family="Helvetica,sans-Serif" font-size="10.00">SA_treatLOCMessage</text>
</a>
</g>
</g>
<!-- Node3&#45;&gt;Node22 -->
<g id="edge33" class="edge"><title>Node3&#45;&gt;Node22</title>
<path fill="none" stroke="midnightblue" d="M187.807,-222.302C194.505,-194.178 218.568,-108.574 271.852,-64.5 273.647,-63.015 275.561,-61.6525 277.561,-60.4025"/>
<polygon fill="midnightblue" stroke="midnightblue" points="279.528,-63.3249 286.79,-55.6101 276.302,-57.1125 279.528,-63.3249"/>
</g>
<!-- Node23 -->
<g id="node23" class="node"><title>Node23</title>
<g id="a_node23"><a xlink:href="station_actions_8c.html#a5db92a163307a895ded7d4c6d9627c3f" target="_top" xlink:title="Function to treat the Status messages coming from the vehicle. ">
<polygon fill="white" stroke="black" points="271.856,-148.5 271.856,-166.5 395.693,-166.5 395.693,-148.5 271.856,-148.5"/>
<text text-anchor="middle" x="333.775" y="-154.5" font-family="Helvetica,sans-Serif" font-size="10.00">SA_treatStatusMessage</text>
</a>
</g>
</g>
<!-- Node3&#45;&gt;Node23 -->
<g id="edge35" class="edge"><title>Node3&#45;&gt;Node23</title>
<path fill="none" stroke="midnightblue" d="M197.391,-222.361C213.358,-210.18 243.357,-188.638 271.852,-175.5 276.312,-173.444 281.063,-171.558 285.871,-169.846"/>
<polygon fill="midnightblue" stroke="midnightblue" points="287.348,-173.043 295.74,-166.576 285.147,-166.399 287.348,-173.043"/>
</g>
<!-- Node4&#45;&gt;Node5 -->
<g id="edge4" class="edge"><title>Node4&#45;&gt;Node5</title>
<path fill="none" stroke="midnightblue" d="M375.292,-240.551C397.834,-245.587 426.09,-251.899 450.044,-257.25"/>
<polygon fill="midnightblue" stroke="midnightblue" points="449.494,-260.714 460.017,-259.478 451.021,-253.882 449.494,-260.714"/>
</g>
<!-- Node6 -->
<g id="node6" class="node"><title>Node6</title>
<g id="a_node6"><a xlink:href="message_parser_8c.html#a0026bd717404e4c2f9df87d137721377" target="_top" xlink:title="Message structure initializer. ">
<polygon fill="white" stroke="black" points="455.614,-222.5 455.614,-240.5 547.19,-240.5 547.19,-222.5 455.614,-222.5"/>
<text text-anchor="middle" x="501.402" y="-228.5" font-family="Helvetica,sans-Serif" font-size="10.00">MP_initMsgStruc</text>
</a>
</g>
</g>
<!-- Node4&#45;&gt;Node6 -->
<g id="edge5" class="edge"><title>Node4&#45;&gt;Node6</title>
<path fill="none" stroke="midnightblue" d="M395.039,-231.5C411.428,-231.5 429.092,-231.5 445.186,-231.5"/>
<polygon fill="midnightblue" stroke="midnightblue" points="445.506,-235 455.506,-231.5 445.506,-228 445.506,-235"/>
</g>
<!-- Node7 -->
<g id="node7" class="node"><title>Node7</title>
<g id="a_node7"><a xlink:href="msg_buffers_8c.html#a94d8920e20c5150892cf23b81eb1dfd6" target="_top" xlink:title="Put a message into the buffer. ">
<polygon fill="white" stroke="black" points="455.883,-129.5 455.883,-147.5 546.922,-147.5 546.922,-129.5 455.883,-129.5"/>
<text text-anchor="middle" x="501.402" y="-135.5" font-family="Helvetica,sans-Serif" font-size="10.00">MB_putMessage</text>
</a>
</g>
</g>
<!-- Node4&#45;&gt;Node7 -->
<g id="edge6" class="edge"><title>Node4&#45;&gt;Node7</title>
<path fill="none" stroke="midnightblue" d="M370.299,-222.473C378.822,-219.753 387.751,-216.425 395.698,-212.5 428.354,-196.37 462.04,-170.629 482.098,-154.152"/>
<polygon fill="midnightblue" stroke="midnightblue" points="484.38,-156.806 489.817,-147.712 479.896,-151.43 484.38,-156.806"/>
</g>
<!-- Node8&#45;&gt;Node7 -->
<g id="edge8" class="edge"><title>Node8&#45;&gt;Node7</title>
<path fill="none" stroke="midnightblue" d="M392.239,-126.745C409.493,-128.62 428.372,-130.672 445.459,-132.529"/>
<polygon fill="midnightblue" stroke="midnightblue" points="445.516,-136.056 455.836,-133.657 446.273,-129.097 445.516,-136.056"/>
</g>
<!-- Node9&#45;&gt;Node7 -->
<g id="edge11" class="edge"><title>Node9&#45;&gt;Node7</title>
<path fill="none" stroke="midnightblue" d="M376.351,-18.5642C383.082,-20.9256 389.778,-23.8627 395.698,-27.5 435.928,-52.2165 470.892,-96.3202 488.423,-120.835"/>
<polygon fill="midnightblue" stroke="midnightblue" points="485.665,-122.999 494.263,-129.191 491.403,-118.989 485.665,-122.999"/>
</g>
<!-- Node10 -->
<g id="node10" class="node"><title>Node10</title>
<g id="a_node10"><a xlink:href="station_actions_8c.html#ad32eaec7f38945a0256977ee21f1318d" target="_top" xlink:title="Search a vehicle by socket number. ">
<polygon fill="white" stroke="black" points="431.698,-0.5 431.698,-18.5 571.106,-18.5 571.106,-0.5 431.698,-0.5"/>
<text text-anchor="middle" x="501.402" y="-6.5" font-family="Helvetica,sans-Serif" font-size="10.00">SA_searchVehicleBySocket</text>
</a>
</g>
</g>
<!-- Node9&#45;&gt;Node10 -->
<g id="edge10" class="edge"><title>Node9&#45;&gt;Node10</title>
<path fill="none" stroke="midnightblue" d="M381.352,-9.5C393.78,-9.5 407.564,-9.5 421.217,-9.5"/>
<polygon fill="midnightblue" stroke="midnightblue" points="421.607,-13.0001 431.607,-9.5 421.607,-6.0001 421.607,-13.0001"/>
</g>
<!-- Node11&#45;&gt;Node12 -->
<g id="edge13" class="edge"><title>Node11&#45;&gt;Node12</title>
<path fill="none" stroke="midnightblue" d="M389.467,-382.17C404.462,-382.079 420.853,-381.98 436.323,-381.887"/>
<polygon fill="midnightblue" stroke="midnightblue" points="436.354,-385.387 446.333,-381.826 436.312,-378.387 436.354,-385.387"/>
</g>
<!-- Node13 -->
<g id="node13" class="node"><title>Node13</title>
<g id="a_node13"><a xlink:href="station_actions_8c.html#ac5974717372c28efe7b4e33f68ef895b" target="_top" xlink:title="Function to initialize a new vehicle structure. ">
<polygon fill="white" stroke="black" points="607.106,-372.5 607.106,-390.5 687.042,-390.5 687.042,-372.5 607.106,-372.5"/>
<text text-anchor="middle" x="647.074" y="-378.5" font-family="Helvetica,sans-Serif" font-size="10.00">SA_initVehicle</text>
</a>
</g>
</g>
<!-- Node12&#45;&gt;Node13 -->
<g id="edge14" class="edge"><title>Node12&#45;&gt;Node13</title>
<path fill="none" stroke="midnightblue" d="M556.719,-381.5C569.886,-381.5 583.89,-381.5 596.809,-381.5"/>
<polygon fill="midnightblue" stroke="midnightblue" points="596.901,-385 606.901,-381.5 596.901,-378 596.901,-385"/>
</g>
<!-- Node14 -->
<g id="node14" class="node"><title>Node14</title>
<g id="a_node14"><a xlink:href="msg_buffers_8c.html#a15ca8d0fea842defceb1611616a64560" target="_top" xlink:title="Create a new buffer or mailbox and initialize it for n values. ">
<polygon fill="white" stroke="black" points="771.501,-410.5 771.501,-428.5 847.35,-428.5 847.35,-410.5 771.501,-410.5"/>
<text text-anchor="middle" x="809.426" y="-416.5" font-family="Helvetica,sans-Serif" font-size="10.00">MB_initBuffer</text>
</a>
</g>
</g>
<!-- Node12&#45;&gt;Node14 -->
<g id="edge20" class="edge"><title>Node12&#45;&gt;Node14</title>
<path fill="none" stroke="midnightblue" d="M550.509,-390.509C568.254,-393.637 588.555,-396.987 607.106,-399.5 659.616,-406.613 720.155,-412.288 761.021,-415.75"/>
<polygon fill="midnightblue" stroke="midnightblue" points="760.971,-419.258 771.228,-416.603 761.555,-412.282 760.971,-419.258"/>
</g>
<!-- Node13&#45;&gt;Node14 -->
<g id="edge15" class="edge"><title>Node13&#45;&gt;Node14</title>
<path fill="none" stroke="midnightblue" d="M682.733,-390.509C695.397,-393.741 709.849,-397.361 723.042,-400.5 735.515,-403.468 749.048,-406.545 761.586,-409.336"/>
<polygon fill="midnightblue" stroke="midnightblue" points="760.867,-412.761 771.387,-411.505 762.38,-405.927 760.867,-412.761"/>
</g>
<!-- Node15 -->
<g id="node15" class="node"><title>Node15</title>
<g id="a_node15"><a xlink:href="tcp_vehicle_socket_comm_8c.html#a8a9cd2f1bfdc3aada6f66fbddee2aa39" target="_top" xlink:title="Thread to send the messages to the vehicle. ">
<polygon fill="white" stroke="black" points="723.042,-373.5 723.042,-391.5 895.81,-391.5 895.81,-373.5 723.042,-373.5"/>
<text text-anchor="middle" x="809.426" y="-379.5" font-family="Helvetica,sans-Serif" font-size="10.00">VSC_outboundHandlerThreadFunc</text>
</a>
</g>
</g>
<!-- Node13&#45;&gt;Node15 -->
<g id="edge16" class="edge"><title>Node13&#45;&gt;Node15</title>
<path fill="none" stroke="midnightblue" d="M687.301,-381.745C695.182,-381.794 703.786,-381.847 712.654,-381.903"/>
<polygon fill="midnightblue" stroke="midnightblue" points="712.733,-385.403 722.755,-381.966 712.777,-378.403 712.733,-385.403"/>
</g>
<!-- Node15&#45;&gt;Node2 -->
<g id="edge17" class="edge"><title>Node15&#45;&gt;Node2</title>
<path fill="none" stroke="midnightblue" d="M858.552,-391.534C870.779,-394.133 883.84,-397.175 895.81,-400.5 921.906,-407.75 950.83,-417.889 972.385,-425.87"/>
<polygon fill="midnightblue" stroke="midnightblue" points="971.439,-429.253 982.031,-429.479 973.892,-422.697 971.439,-429.253"/>
</g>
<!-- Node16 -->
<g id="node16" class="node"><title>Node16</title>
<g id="a_node16"><a xlink:href="tcp_vehicle_socket_comm_8c.html#a1c76ab448a30a8498f76e22546c81047" target="_top" xlink:title="Send a message to a vehicle. ">
<polygon fill="white" stroke="black" points="931.81,-373.5 931.81,-391.5 1080.68,-391.5 1080.68,-373.5 931.81,-373.5"/>
<text text-anchor="middle" x="1006.24" y="-379.5" font-family="Helvetica,sans-Serif" font-size="10.00">VSC_SendMessageToVehicle</text>
</a>
</g>
</g>
<!-- Node15&#45;&gt;Node16 -->
<g id="edge18" class="edge"><title>Node15&#45;&gt;Node16</title>
<path fill="none" stroke="midnightblue" d="M895.875,-382.5C904.379,-382.5 913.007,-382.5 921.493,-382.5"/>
<polygon fill="midnightblue" stroke="midnightblue" points="921.757,-386 931.757,-382.5 921.757,-379 921.757,-386"/>
</g>
<!-- Node17 -->
<g id="node17" class="node"><title>Node17</title>
<g id="a_node17"><a xlink:href="message_parser_8c.html#a1e487e587ff3244c0808f4602ec6f1f7" target="_top" xlink:title="Message wiping function. ">
<polygon fill="white" stroke="black" points="1116.68,-373.5 1116.68,-391.5 1214.38,-391.5 1214.38,-373.5 1116.68,-373.5"/>
<text text-anchor="middle" x="1165.53" y="-379.5" font-family="Helvetica,sans-Serif" font-size="10.00">MP_wipeMessage</text>
</a>
</g>
</g>
<!-- Node16&#45;&gt;Node17 -->
<g id="edge19" class="edge"><title>Node16&#45;&gt;Node17</title>
<path fill="none" stroke="midnightblue" d="M1080.82,-382.5C1089.46,-382.5 1098.18,-382.5 1106.57,-382.5"/>
<polygon fill="midnightblue" stroke="midnightblue" points="1106.6,-386 1116.6,-382.5 1106.6,-379 1106.6,-386"/>
</g>
<!-- Node18&#45;&gt;Node6 -->
<g id="edge24" class="edge"><title>Node18&#45;&gt;Node6</title>
<path fill="none" stroke="midnightblue" d="M375.292,-203.551C397.834,-208.587 426.09,-214.899 450.044,-220.25"/>
<polygon fill="midnightblue" stroke="midnightblue" points="449.494,-223.714 460.017,-222.478 451.021,-216.882 449.494,-223.714"/>
</g>
<!-- Node18&#45;&gt;Node7 -->
<g id="edge25" class="edge"><title>Node18&#45;&gt;Node7</title>
<path fill="none" stroke="midnightblue" d="M364.594,-185.444C374.515,-182.367 385.605,-178.856 395.698,-175.5 419.281,-167.659 445.662,-158.333 466.044,-151.006"/>
<polygon fill="midnightblue" stroke="midnightblue" points="467.31,-154.27 475.529,-147.584 464.935,-147.685 467.31,-154.27"/>
</g>
<!-- Node19&#45;&gt;Node5 -->
<g id="edge27" class="edge"><title>Node19&#45;&gt;Node5</title>
<path fill="none" stroke="midnightblue" d="M391.774,-268.5C404.898,-268.5 418.983,-268.5 432.518,-268.5"/>
<polygon fill="midnightblue" stroke="midnightblue" points="432.735,-272 442.735,-268.5 432.735,-265 432.735,-272"/>
</g>
<!-- Node19&#45;&gt;Node6 -->
<g id="edge28" class="edge"><title>Node19&#45;&gt;Node6</title>
<path fill="none" stroke="midnightblue" d="M375.292,-259.449C397.834,-254.413 426.09,-248.101 450.044,-242.75"/>
<polygon fill="midnightblue" stroke="midnightblue" points="451.021,-246.118 460.017,-240.522 449.494,-239.286 451.021,-246.118"/>
</g>
<!-- Node19&#45;&gt;Node7 -->
<g id="edge29" class="edge"><title>Node19&#45;&gt;Node7</title>
<path fill="none" stroke="midnightblue" d="M374.108,-259.493C381.585,-256.892 389.121,-253.609 395.698,-249.5 398.405,-247.809 456.407,-185.723 484.892,-155.159"/>
<polygon fill="midnightblue" stroke="midnightblue" points="487.505,-157.488 491.761,-147.785 482.384,-152.716 487.505,-157.488"/>
</g>
<!-- Node21&#45;&gt;Node7 -->
<g id="edge32" class="edge"><title>Node21&#45;&gt;Node7</title>
<path fill="none" stroke="midnightblue" d="M366.492,-92.529C375.923,-95.3057 386.256,-98.4391 395.698,-101.5 419.497,-109.215 446.072,-118.615 466.494,-126.01"/>
<polygon fill="midnightblue" stroke="midnightblue" points="465.391,-129.334 475.985,-129.463 467.784,-122.755 465.391,-129.334"/>
</g>
<!-- Node22&#45;&gt;Node7 -->
<g id="edge34" class="edge"><title>Node22&#45;&gt;Node7</title>
<path fill="none" stroke="midnightblue" d="M372.555,-55.5612C380.386,-58.0165 388.453,-60.9889 395.698,-64.5 428.65,-80.4687 462.486,-106.47 482.465,-123.017"/>
<polygon fill="midnightblue" stroke="midnightblue" points="480.231,-125.712 490.135,-129.473 484.738,-120.356 480.231,-125.712"/>
</g>
<!-- Node23&#45;&gt;Node7 -->
<g id="edge36" class="edge"><title>Node23&#45;&gt;Node7</title>
<path fill="none" stroke="midnightblue" d="M395.978,-150.479C412.23,-148.615 429.677,-146.613 445.566,-144.791"/>
<polygon fill="midnightblue" stroke="midnightblue" points="446.218,-148.239 455.754,-143.622 445.42,-141.284 446.218,-148.239"/>
</g>
</g>
</svg>
