<?xml version="1.0" encoding="UTF-8" standalone="no"?>
<!DOCTYPE svg PUBLIC "-//W3C//DTD SVG 1.1//EN"
 "http://www.w3.org/Graphics/SVG/1.1/DTD/svg11.dtd">
<!-- Generated by graphviz version 2.38.0 (20140413.2041)
 -->
<!-- Title: MP_messageReceiver Pages: 1 -->
<svg width="1107pt" height="102pt"
 viewBox="0.00 0.00 1106.94 102.00" xmlns="http://www.w3.org/2000/svg" xmlns:xlink="http://www.w3.org/1999/xlink">
<g id="graph0" class="graph" transform="scale(1 1) rotate(0) translate(4 98)">
<title>MP_messageReceiver</title>
<polygon fill="white" stroke="none" points="-4,4 -4,-98 1102.94,-98 1102.94,4 -4,4"/>
<!-- Node1 -->
<g id="node1" class="node"><title>Node1</title>
<polygon fill="#bfbfbf" stroke="black" points="0,-37.5 0,-55.5 116.596,-55.5 116.596,-37.5 0,-37.5"/>
<text text-anchor="middle" x="58.2979" y="-43.5" font-family="Helvetica,sans-Serif" font-size="10.00">MP_messageReceiver</text>
</g>
<!-- Node2 -->
<g id="node2" class="node"><title>Node2</title>
<g id="a_node2"><a xlink:href="mcast_messaging_8h.html#ab9bc9b5c01c8c3a09c75e662eb019f04" target="_top" xlink:title="Thread for listening to messages coming from the general multicast group. ">
<polygon fill="white" stroke="black" points="181.238,-74.5 181.238,-92.5 290.603,-92.5 290.603,-74.5 181.238,-74.5"/>
<text text-anchor="middle" x="235.92" y="-80.5" font-family="Helvetica,sans-Serif" font-size="10.00">MCM_listenerThread</text>
</a>
</g>
</g>
<!-- Node1&#45;&gt;Node2 -->
<g id="edge1" class="edge"><title>Node1&#45;&gt;Node2</title>
<path fill="none" stroke="midnightblue" d="M112.164,-57.6378C137.725,-63.0229 168.006,-69.4026 192.098,-74.4782"/>
<polygon fill="midnightblue" stroke="midnightblue" points="112.767,-54.188 102.26,-55.5512 111.324,-61.0377 112.767,-54.188"/>
</g>
<!-- Node6 -->
<g id="node6" class="node"><title>Node6</title>
<g id="a_node6"><a xlink:href="tcp_server_socket_comm_8c.html#abe2574d5f7dd2457b0d09df7f29643a9" target="_top" xlink:title="Listen to the messages coming to the server. ">
<polygon fill="white" stroke="black" points="173.733,-37.5 173.733,-55.5 298.107,-55.5 298.107,-37.5 173.733,-37.5"/>
<text text-anchor="middle" x="235.92" y="-43.5" font-family="Helvetica,sans-Serif" font-size="10.00">SSC_listenToServerMsg</text>
</a>
</g>
</g>
<!-- Node1&#45;&gt;Node6 -->
<g id="edge5" class="edge"><title>Node1&#45;&gt;Node6</title>
<path fill="none" stroke="midnightblue" d="M127.229,-46.5C142.52,-46.5 158.659,-46.5 173.658,-46.5"/>
<polygon fill="midnightblue" stroke="midnightblue" points="126.803,-43.0001 116.803,-46.5 126.803,-50.0001 126.803,-43.0001"/>
</g>
<!-- Node11 -->
<g id="node11" class="node"><title>Node11</title>
<g id="a_node11"><a xlink:href="tcp_vehicle_socket_comm_8h.html#a919ad3564e41afca64d17244390cfba7" target="_top" xlink:title="Thread to handle the inbound messages from the vehicles. ">
<polygon fill="white" stroke="black" points="152.596,-0.5 152.596,-18.5 319.245,-18.5 319.245,-0.5 152.596,-0.5"/>
<text text-anchor="middle" x="235.92" y="-6.5" font-family="Helvetica,sans-Serif" font-size="10.00">VSC_inboundHandlerThreadFunc</text>
</a>
</g>
</g>
<!-- Node1&#45;&gt;Node11 -->
<g id="edge11" class="edge"><title>Node1&#45;&gt;Node11</title>
<path fill="none" stroke="midnightblue" d="M112.164,-35.3622C137.725,-29.9771 168.006,-23.5974 192.098,-18.5218"/>
<polygon fill="midnightblue" stroke="midnightblue" points="111.324,-31.9623 102.26,-37.4488 112.767,-38.812 111.324,-31.9623"/>
</g>
<!-- Node3 -->
<g id="node3" class="node"><title>Node3</title>
<g id="a_node3"><a xlink:href="mcast_messaging_8h.html#a4fd8b31a6cdd8fa515f1b3680a754def" target="_top" xlink:title="Intialize the multicast UDP listener and sender. ">
<polygon fill="white" stroke="black" points="373.324,-74.5 373.324,-92.5 487.673,-92.5 487.673,-74.5 373.324,-74.5"/>
<text text-anchor="middle" x="430.499" y="-80.5" font-family="Helvetica,sans-Serif" font-size="10.00">MCM_initMcastServer</text>
</a>
</g>
</g>
<!-- Node2&#45;&gt;Node3 -->
<g id="edge2" class="edge"><title>Node2&#45;&gt;Node3</title>
<path fill="none" stroke="midnightblue" d="M300.99,-83.5C324.37,-83.5 350.614,-83.5 373.262,-83.5"/>
<polygon fill="midnightblue" stroke="midnightblue" points="300.82,-80.0001 290.82,-83.5 300.82,-87.0001 300.82,-80.0001"/>
</g>
<!-- Node4 -->
<g id="node4" class="node"><title>Node4</title>
<g id="a_node4"><a xlink:href="main_8c.html#a82a03c8bafdc8925bacf4693a1c5e794" target="_top" xlink:title="Thread for controlling the multicast server initialization and shutdown. ">
<polygon fill="white" stroke="black" points="894.214,-75.5 894.214,-93.5 1024.71,-93.5 1024.71,-75.5 894.214,-75.5"/>
<text text-anchor="middle" x="959.462" y="-81.5" font-family="Helvetica,sans-Serif" font-size="10.00">mcastConnControlThread</text>
</a>
</g>
</g>
<!-- Node3&#45;&gt;Node4 -->
<g id="edge3" class="edge"><title>Node3&#45;&gt;Node4</title>
<path fill="none" stroke="midnightblue" d="M498.057,-83.6263C599.918,-83.8196 793.228,-84.1864 893.888,-84.3775"/>
<polygon fill="midnightblue" stroke="midnightblue" points="497.9,-80.1261 487.893,-83.607 497.886,-87.1261 497.9,-80.1261"/>
</g>
<!-- Node5 -->
<g id="node5" class="node"><title>Node5</title>
<g id="a_node5"><a xlink:href="main_8c.html#ac0f2228420376f4db7e1274f2b41667c" target="_top" xlink:title="main">
<polygon fill="white" stroke="black" points="1061.27,-38.5 1061.27,-56.5 1098.94,-56.5 1098.94,-38.5 1061.27,-38.5"/>
<text text-anchor="middle" x="1080.1" y="-44.5" font-family="Helvetica,sans-Serif" font-size="10.00">main</text>
</a>
</g>
</g>
<!-- Node4&#45;&gt;Node5 -->
<g id="edge4" class="edge"><title>Node4&#45;&gt;Node5</title>
<path fill="none" stroke="midnightblue" d="M1001.84,-72.6185C1009.64,-70.3088 1017.72,-67.8684 1025.27,-65.5 1037.3,-61.7248 1050.76,-57.2248 1061.21,-53.6686"/>
<polygon fill="midnightblue" stroke="midnightblue" points="1000.78,-69.2819 992.177,-75.4591 1002.76,-75.9979 1000.78,-69.2819"/>
</g>
<!-- Node7 -->
<g id="node7" class="node"><title>Node7</title>
<g id="a_node7"><a xlink:href="tcp_server_socket_comm_8h.html#ae54218394dd621113d0f73ec6ef8f873" target="_top" xlink:title="Thread to listen to messages coming from the server. ">
<polygon fill="white" stroke="black" points="355.245,-37.5 355.245,-55.5 505.752,-55.5 505.752,-37.5 355.245,-37.5"/>
<text text-anchor="middle" x="430.499" y="-43.5" font-family="Helvetica,sans-Serif" font-size="10.00">SSC_msgListenerThreadFunc</text>
</a>
</g>
</g>
<!-- Node6&#45;&gt;Node7 -->
<g id="edge6" class="edge"><title>Node6&#45;&gt;Node7</title>
<path fill="none" stroke="midnightblue" d="M308.459,-46.5C323.628,-46.5 339.677,-46.5 354.955,-46.5"/>
<polygon fill="midnightblue" stroke="midnightblue" points="308.118,-43.0001 298.118,-46.5 308.118,-50.0001 308.118,-43.0001"/>
</g>
<!-- Node8 -->
<g id="node8" class="node"><title>Node8</title>
<g id="a_node8"><a xlink:href="tcp_server_socket_comm_8h.html#aefcfff31ea3a9b0d92a83ab83c9874f9" target="_top" xlink:title="Start the threads for listening and sending messages to the server. ">
<polygon fill="white" stroke="black" points="541.752,-37.5 541.752,-55.5 686.702,-55.5 686.702,-37.5 541.752,-37.5"/>
<text text-anchor="middle" x="614.227" y="-43.5" font-family="Helvetica,sans-Serif" font-size="10.00">SSC_initServerConnThreads</text>
</a>
</g>
</g>
<!-- Node7&#45;&gt;Node8 -->
<g id="edge7" class="edge"><title>Node7&#45;&gt;Node8</title>
<path fill="none" stroke="midnightblue" d="M516.214,-46.5C524.684,-46.5 533.225,-46.5 541.542,-46.5"/>
<polygon fill="midnightblue" stroke="midnightblue" points="515.939,-43.0001 505.939,-46.5 515.939,-50.0001 515.939,-43.0001"/>
</g>
<!-- Node9 -->
<g id="node9" class="node"><title>Node9</title>
<g id="a_node9"><a xlink:href="tcp_server_socket_comm_8h.html#a64aaa41ac5e2fbe7f8ba88c053b49ff9" target="_top" xlink:title="Initialize the connection to the server. ">
<polygon fill="white" stroke="black" points="722.705,-37.5 722.705,-55.5 857.655,-55.5 857.655,-37.5 722.705,-37.5"/>
<text text-anchor="middle" x="790.18" y="-43.5" font-family="Helvetica,sans-Serif" font-size="10.00">SSC_initServerConnection</text>
</a>
</g>
</g>
<!-- Node8&#45;&gt;Node9 -->
<g id="edge8" class="edge"><title>Node8&#45;&gt;Node9</title>
<path fill="none" stroke="midnightblue" d="M696.849,-46.5C705.511,-46.5 714.244,-46.5 722.704,-46.5"/>
<polygon fill="midnightblue" stroke="midnightblue" points="696.733,-43.0001 686.733,-46.5 696.733,-50.0001 696.733,-43.0001"/>
</g>
<!-- Node10 -->
<g id="node10" class="node"><title>Node10</title>
<g id="a_node10"><a xlink:href="main_8c.html#aea1c0564829983a4a1da026f1640f762" target="_top" xlink:title="Thread for controlling the server client initialization and shutdown. ">
<polygon fill="white" stroke="black" points="893.657,-38.5 893.657,-56.5 1025.27,-56.5 1025.27,-38.5 893.657,-38.5"/>
<text text-anchor="middle" x="959.462" y="-44.5" font-family="Helvetica,sans-Serif" font-size="10.00">serverConnControlThread</text>
</a>
</g>
</g>
<!-- Node9&#45;&gt;Node10 -->
<g id="edge9" class="edge"><title>Node9&#45;&gt;Node10</title>
<path fill="none" stroke="midnightblue" d="M867.781,-46.9579C876.363,-47.0092 885.044,-47.0611 893.46,-47.1114"/>
<polygon fill="midnightblue" stroke="midnightblue" points="867.796,-43.458 857.775,-46.8981 867.754,-50.4579 867.796,-43.458"/>
</g>
<!-- Node10&#45;&gt;Node5 -->
<g id="edge10" class="edge"><title>Node10&#45;&gt;Node5</title>
<path fill="none" stroke="midnightblue" d="M1035.43,-47.5C1044.95,-47.5 1053.9,-47.5 1061.18,-47.5"/>
<polygon fill="midnightblue" stroke="midnightblue" points="1035.34,-44.0001 1025.34,-47.5 1035.34,-51.0001 1035.34,-44.0001"/>
</g>
<!-- Node12 -->
<g id="node12" class="node"><title>Node12</title>
<g id="a_node12"><a xlink:href="tcp_vehicle_socket_comm_8h.html#a3ec3f2c1297ab45cb0ad39f925a4bce5" target="_top" xlink:title="Accept the new connections from vehicles. ">
<polygon fill="white" stroke="black" points="366.91,-0.5 366.91,-18.5 494.087,-18.5 494.087,-0.5 366.91,-0.5"/>
<text text-anchor="middle" x="430.499" y="-6.5" font-family="Helvetica,sans-Serif" font-size="10.00">VSC_acceptConnections</text>
</a>
</g>
</g>
<!-- Node11&#45;&gt;Node12 -->
<g id="edge12" class="edge"><title>Node11&#45;&gt;Node12</title>
<path fill="none" stroke="midnightblue" d="M329.493,-9.5C342.086,-9.5 354.764,-9.5 366.664,-9.5"/>
<polygon fill="midnightblue" stroke="midnightblue" points="329.429,-6.0001 319.429,-9.5 329.429,-13.0001 329.429,-6.0001"/>
</g>
<!-- Node13 -->
<g id="node13" class="node"><title>Node13</title>
<g id="a_node13"><a xlink:href="tcp_vehicle_socket_comm_8h.html#a49fe9e8bc1bd13ac909ae2b7d2391886" target="_top" xlink:title="Initialize the vehicle comunication server. ">
<polygon fill="white" stroke="black" points="555.922,-0.5 555.922,-18.5 672.532,-18.5 672.532,-0.5 555.922,-0.5"/>
<text text-anchor="middle" x="614.227" y="-6.5" font-family="Helvetica,sans-Serif" font-size="10.00">VSC_initVehicleServer</text>
</a>
</g>
</g>
<!-- Node12&#45;&gt;Node13 -->
<g id="edge13" class="edge"><title>Node12&#45;&gt;Node13</title>
<path fill="none" stroke="midnightblue" d="M504.765,-9.5C521.797,-9.5 539.686,-9.5 555.915,-9.5"/>
<polygon fill="midnightblue" stroke="midnightblue" points="504.294,-6.0001 494.294,-9.5 504.294,-13.0001 504.294,-6.0001"/>
</g>
<!-- Node14 -->
<g id="node14" class="node"><title>Node14</title>
<g id="a_node14"><a xlink:href="main_8c.html#ae346112f7679ae0199c3158f6624fd8b" target="_top" xlink:title="Thread for controlling the vehicle server initialization and shutdown. ">
<polygon fill="white" stroke="black" points="722.702,-0.5 722.702,-18.5 857.657,-18.5 857.657,-0.5 722.702,-0.5"/>
<text text-anchor="middle" x="790.18" y="-6.5" font-family="Helvetica,sans-Serif" font-size="10.00">vehicleConnControlThread</text>
</a>
</g>
</g>
<!-- Node13&#45;&gt;Node14 -->
<g id="edge14" class="edge"><title>Node13&#45;&gt;Node14</title>
<path fill="none" stroke="midnightblue" d="M682.927,-9.5C695.91,-9.5 709.497,-9.5 722.449,-9.5"/>
<polygon fill="midnightblue" stroke="midnightblue" points="682.668,-6.0001 672.668,-9.5 682.668,-13.0001 682.668,-6.0001"/>
</g>
<!-- Node14&#45;&gt;Node5 -->
<g id="edge15" class="edge"><title>Node14&#45;&gt;Node5</title>
<path fill="none" stroke="midnightblue" d="M867.887,-10.7457C913.942,-12.7224 973.458,-17.4502 1025.27,-28.5 1037.48,-31.105 1050.71,-35.7484 1061,-39.7926"/>
<polygon fill="midnightblue" stroke="midnightblue" points="867.808,-7.23996 857.678,-10.3429 867.532,-14.2345 867.808,-7.23996"/>
</g>
</g>
</svg>
