<?xml version="1.0" encoding="UTF-8" standalone="no"?>
<!DOCTYPE svg PUBLIC "-//W3C//DTD SVG 1.1//EN"
 "http://www.w3.org/Graphics/SVG/1.1/DTD/svg11.dtd">
<!-- Generated by graphviz version 2.38.0 (20140413.2041)
 -->
<!-- Title: rasPi&#45;EmergencyStation/messageParser.h Pages: 1 -->
<svg width="952pt" height="297pt"
 viewBox="0.00 0.00 951.99 297.00" xmlns="http://www.w3.org/2000/svg" xmlns:xlink="http://www.w3.org/1999/xlink">
<g id="graph0" class="graph" transform="scale(1 1) rotate(0) translate(4 293)">
<title>rasPi&#45;EmergencyStation/messageParser.h</title>
<polygon fill="white" stroke="none" points="-4,4 -4,-293 947.992,-293 947.992,4 -4,4"/>
<!-- Node1 -->
<g id="node1" class="node"><title>Node1</title>
<polygon fill="#bfbfbf" stroke="black" points="435.17,-260.5 435.17,-288.5 558.992,-288.5 558.992,-260.5 435.17,-260.5"/>
<text text-anchor="start" x="443.17" y="-276.5" font-family="Helvetica,sans-Serif" font-size="10.00">rasPi&#45;EmergencyStation</text>
<text text-anchor="middle" x="497.081" y="-266.5" font-family="Helvetica,sans-Serif" font-size="10.00">/messageParser.h</text>
</g>
<!-- Node2 -->
<g id="node2" class="node"><title>Node2</title>
<g id="a_node2"><a xlink:href="main_8h.html" target="_top" xlink:title="Main file&#39;s headers of the emergency station application. ">
<polygon fill="white" stroke="black" points="150.17,-65.5 150.17,-93.5 273.992,-93.5 273.992,-65.5 150.17,-65.5"/>
<text text-anchor="start" x="158.17" y="-81.5" font-family="Helvetica,sans-Serif" font-size="10.00">rasPi&#45;EmergencyStation</text>
<text text-anchor="middle" x="212.081" y="-71.5" font-family="Helvetica,sans-Serif" font-size="10.00">/main.h</text>
</a>
</g>
</g>
<!-- Node1&#45;&gt;Node2 -->
<g id="edge1" class="edge"><title>Node1&#45;&gt;Node2</title>
<path fill="none" stroke="midnightblue" d="M424.987,-261.154C329.458,-243.138 169.009,-206.547 135.081,-159 127.595,-148.508 128.905,-141.313 135.081,-130 144.143,-113.401 161.419,-101.538 177.313,-93.5947"/>
<polygon fill="midnightblue" stroke="midnightblue" points="424.405,-264.606 434.877,-262.997 425.687,-257.724 424.405,-264.606"/>
</g>
<!-- Node4 -->
<g id="node4" class="node"><title>Node4</title>
<g id="a_node4"><a xlink:href="msg_buffers_8h.html" target="_top" xlink:title="File containing the headers of all functions related to the message mailboxes. ">
<polygon fill="white" stroke="black" points="435.17,-195.5 435.17,-223.5 558.992,-223.5 558.992,-195.5 435.17,-195.5"/>
<text text-anchor="start" x="443.17" y="-211.5" font-family="Helvetica,sans-Serif" font-size="10.00">rasPi&#45;EmergencyStation</text>
<text text-anchor="middle" x="497.081" y="-201.5" font-family="Helvetica,sans-Serif" font-size="10.00">/msgBuffers.h</text>
</a>
</g>
</g>
<!-- Node1&#45;&gt;Node4 -->
<g id="edge3" class="edge"><title>Node1&#45;&gt;Node4</title>
<path fill="none" stroke="midnightblue" d="M490.552,-250.46C490.067,-241.388 490.38,-231.305 491.491,-223.537"/>
<polygon fill="midnightblue" stroke="midnightblue" points="487.07,-250.817 491.488,-260.446 494.04,-250.163 487.07,-250.817"/>
</g>
<!-- Node6 -->
<g id="node6" class="node"><title>Node6</title>
<g id="a_node6"><a xlink:href="station_actions_8h.html" target="_top" xlink:title="FIle containing all the station action headers. ">
<polygon fill="white" stroke="black" points="461.17,-65.5 461.17,-93.5 584.992,-93.5 584.992,-65.5 461.17,-65.5"/>
<text text-anchor="start" x="469.17" y="-81.5" font-family="Helvetica,sans-Serif" font-size="10.00">rasPi&#45;EmergencyStation</text>
<text text-anchor="middle" x="523.081" y="-71.5" font-family="Helvetica,sans-Serif" font-size="10.00">/stationActions.h</text>
</a>
</g>
</g>
<!-- Node1&#45;&gt;Node6 -->
<g id="edge21" class="edge"><title>Node1&#45;&gt;Node6</title>
<path fill="none" stroke="midnightblue" d="M569.203,-261.682C627.829,-248.087 706.875,-219.293 746.081,-159 753.107,-148.195 754.188,-140.02 746.081,-130 735.703,-117.173 647.409,-101.009 585.021,-90.7111"/>
<polygon fill="midnightblue" stroke="midnightblue" points="568.249,-258.308 559.245,-263.892 569.766,-265.142 568.249,-258.308"/>
</g>
<!-- Node14 -->
<g id="node14" class="node"><title>Node14</title>
<g id="a_node14"><a xlink:href="message_parser_8c.html" target="_top" xlink:title="Message parser functions definition. ">
<polygon fill="white" stroke="black" points="820.17,-195.5 820.17,-223.5 943.992,-223.5 943.992,-195.5 820.17,-195.5"/>
<text text-anchor="start" x="828.17" y="-211.5" font-family="Helvetica,sans-Serif" font-size="10.00">rasPi&#45;EmergencyStation</text>
<text text-anchor="middle" x="882.081" y="-201.5" font-family="Helvetica,sans-Serif" font-size="10.00">/messageParser.c</text>
</a>
</g>
</g>
<!-- Node1&#45;&gt;Node14 -->
<g id="edge22" class="edge"><title>Node1&#45;&gt;Node14</title>
<path fill="none" stroke="midnightblue" d="M569.451,-262.262C632.109,-252.447 725.141,-237.671 806.081,-224 810.574,-223.241 815.214,-222.446 819.882,-221.637"/>
<polygon fill="midnightblue" stroke="midnightblue" points="568.615,-258.85 559.276,-263.854 569.697,-265.766 568.615,-258.85"/>
</g>
<!-- Node3 -->
<g id="node3" class="node"><title>Node3</title>
<g id="a_node3"><a xlink:href="main_8c.html" target="_top" xlink:title="Main file and functions of the emergency station application. ">
<polygon fill="white" stroke="black" points="150.17,-0.5 150.17,-28.5 273.992,-28.5 273.992,-0.5 150.17,-0.5"/>
<text text-anchor="start" x="158.17" y="-16.5" font-family="Helvetica,sans-Serif" font-size="10.00">rasPi&#45;EmergencyStation</text>
<text text-anchor="middle" x="212.081" y="-6.5" font-family="Helvetica,sans-Serif" font-size="10.00">/main.c</text>
</a>
</g>
</g>
<!-- Node2&#45;&gt;Node3 -->
<g id="edge2" class="edge"><title>Node2&#45;&gt;Node3</title>
<path fill="none" stroke="midnightblue" d="M212.081,-55.1641C212.081,-46.1693 212.081,-36.2205 212.081,-28.5369"/>
<polygon fill="midnightblue" stroke="midnightblue" points="208.581,-55.4463 212.081,-65.4464 215.581,-55.4464 208.581,-55.4463"/>
</g>
<!-- Node4&#45;&gt;Node1 -->
<g id="edge4" class="edge"><title>Node4&#45;&gt;Node1</title>
<path fill="none" stroke="midnightblue" d="M503.609,-233.52C504.095,-242.591 503.783,-252.675 502.674,-260.446"/>
<polygon fill="midnightblue" stroke="midnightblue" points="507.091,-233.166 502.671,-223.537 500.122,-233.82 507.091,-233.166"/>
</g>
<!-- Node5 -->
<g id="node5" class="node"><title>Node5</title>
<g id="a_node5"><a xlink:href="tcp_vehicle_socket_comm_8h.html" target="_top" xlink:title="Vehicle connection server&#39;s headers. ">
<polygon fill="white" stroke="black" points="143.719,-130.5 143.719,-158.5 276.443,-158.5 276.443,-130.5 143.719,-130.5"/>
<text text-anchor="start" x="151.719" y="-146.5" font-family="Helvetica,sans-Serif" font-size="10.00">rasPi&#45;EmergencyStation</text>
<text text-anchor="middle" x="210.081" y="-136.5" font-family="Helvetica,sans-Serif" font-size="10.00">/tcpVehicleSocketComm.h</text>
</a>
</g>
</g>
<!-- Node4&#45;&gt;Node5 -->
<g id="edge5" class="edge"><title>Node4&#45;&gt;Node5</title>
<path fill="none" stroke="midnightblue" d="M427.544,-193.236C379.198,-182.623 315.437,-168.627 269.471,-158.537"/>
<polygon fill="midnightblue" stroke="midnightblue" points="427.097,-196.721 437.614,-195.446 428.597,-189.884 427.097,-196.721"/>
</g>
<!-- Node4&#45;&gt;Node6 -->
<g id="edge12" class="edge"><title>Node4&#45;&gt;Node6</title>
<path fill="none" stroke="midnightblue" d="M481.449,-186.847C471.94,-170.874 463.042,-148.751 471.081,-130 477.515,-114.993 490.98,-102.383 502.597,-93.6462"/>
<polygon fill="midnightblue" stroke="midnightblue" points="478.641,-188.952 486.994,-195.47 484.528,-185.166 478.641,-188.952"/>
</g>
<!-- Node9 -->
<g id="node9" class="node"><title>Node9</title>
<g id="a_node9"><a xlink:href="tcp_server_socket_comm_8h.html" target="_top" xlink:title="Server connection related function definitions. ">
<polygon fill="white" stroke="black" points="294.118,-130.5 294.118,-158.5 424.044,-158.5 424.044,-130.5 294.118,-130.5"/>
<text text-anchor="start" x="302.118" y="-146.5" font-family="Helvetica,sans-Serif" font-size="10.00">rasPi&#45;EmergencyStation</text>
<text text-anchor="middle" x="359.081" y="-136.5" font-family="Helvetica,sans-Serif" font-size="10.00">/tcpServerSocketComm.h</text>
</a>
</g>
</g>
<!-- Node4&#45;&gt;Node9 -->
<g id="edge13" class="edge"><title>Node4&#45;&gt;Node9</title>
<path fill="none" stroke="midnightblue" d="M459.184,-191.199C436.584,-180.882 408.353,-167.994 387.638,-158.537"/>
<polygon fill="midnightblue" stroke="midnightblue" points="457.937,-194.477 468.487,-195.446 460.844,-188.109 457.937,-194.477"/>
</g>
<!-- Node11 -->
<g id="node11" class="node"><title>Node11</title>
<g id="a_node11"><a xlink:href="mcast_messaging_8h.html" target="_top" xlink:title="FIle containing all the headers of the functions related to multicast communication. ">
<polygon fill="white" stroke="black" points="622.17,-130.5 622.17,-158.5 745.992,-158.5 745.992,-130.5 622.17,-130.5"/>
<text text-anchor="start" x="630.17" y="-146.5" font-family="Helvetica,sans-Serif" font-size="10.00">rasPi&#45;EmergencyStation</text>
<text text-anchor="middle" x="684.081" y="-136.5" font-family="Helvetica,sans-Serif" font-size="10.00">/mcastMessaging.h</text>
</a>
</g>
</g>
<!-- Node4&#45;&gt;Node11 -->
<g id="edge17" class="edge"><title>Node4&#45;&gt;Node11</title>
<path fill="none" stroke="midnightblue" d="M545.585,-192.159C576.658,-181.691 616.437,-168.289 645.384,-158.537"/>
<polygon fill="midnightblue" stroke="midnightblue" points="544.187,-188.937 535.828,-195.446 546.422,-195.57 544.187,-188.937"/>
</g>
<!-- Node13 -->
<g id="node13" class="node"><title>Node13</title>
<g id="a_node13"><a xlink:href="msg_buffers_8c.html" target="_top" xlink:title="File containing the definitions of all functions related to the message mailboxes. ">
<polygon fill="white" stroke="black" points="480.17,-130.5 480.17,-158.5 603.992,-158.5 603.992,-130.5 480.17,-130.5"/>
<text text-anchor="start" x="488.17" y="-146.5" font-family="Helvetica,sans-Serif" font-size="10.00">rasPi&#45;EmergencyStation</text>
<text text-anchor="middle" x="542.081" y="-136.5" font-family="Helvetica,sans-Serif" font-size="10.00">/msgBuffers.c</text>
</a>
</g>
</g>
<!-- Node4&#45;&gt;Node13 -->
<g id="edge20" class="edge"><title>Node4&#45;&gt;Node13</title>
<path fill="none" stroke="midnightblue" d="M512.28,-187.221C519.072,-177.713 526.858,-166.812 532.769,-158.537"/>
<polygon fill="midnightblue" stroke="midnightblue" points="509.369,-185.275 506.405,-195.446 515.066,-189.343 509.369,-185.275"/>
</g>
<!-- Node5&#45;&gt;Node1 -->
<g id="edge6" class="edge"><title>Node5&#45;&gt;Node1</title>
<path fill="none" stroke="midnightblue" d="M248.847,-162.79C307.02,-188.734 415.613,-237.166 467.716,-260.403"/>
<polygon fill="midnightblue" stroke="midnightblue" points="250.178,-159.551 239.619,-158.674 247.327,-165.944 250.178,-159.551"/>
</g>
<!-- Node5&#45;&gt;Node2 -->
<g id="edge10" class="edge"><title>Node5&#45;&gt;Node2</title>
<path fill="none" stroke="midnightblue" d="M210.822,-120.164C211.107,-111.169 211.423,-101.221 211.667,-93.5369"/>
<polygon fill="midnightblue" stroke="midnightblue" points="207.315,-120.34 210.495,-130.446 214.311,-120.562 207.315,-120.34"/>
</g>
<!-- Node5&#45;&gt;Node6 -->
<g id="edge7" class="edge"><title>Node5&#45;&gt;Node6</title>
<path fill="none" stroke="midnightblue" d="M284.762,-128.468C338.561,-117.64 410.307,-103.199 460.976,-93.0003"/>
<polygon fill="midnightblue" stroke="midnightblue" points="284.048,-125.042 274.935,-130.446 285.429,-131.904 284.048,-125.042"/>
</g>
<!-- Node8 -->
<g id="node8" class="node"><title>Node8</title>
<g id="a_node8"><a xlink:href="tcp_vehicle_socket_comm_8c.html" target="_top" xlink:title="Vehicle connection server related function definitions. ">
<polygon fill="white" stroke="black" points="0,-65.5 0,-93.5 132.162,-93.5 132.162,-65.5 0,-65.5"/>
<text text-anchor="start" x="8" y="-81.5" font-family="Helvetica,sans-Serif" font-size="10.00">rasPi&#45;EmergencyStation</text>
<text text-anchor="middle" x="66.0811" y="-71.5" font-family="Helvetica,sans-Serif" font-size="10.00">/tcpVehicleSocketComm.c</text>
</a>
</g>
</g>
<!-- Node5&#45;&gt;Node8 -->
<g id="edge11" class="edge"><title>Node5&#45;&gt;Node8</title>
<path fill="none" stroke="midnightblue" d="M170.852,-126.337C147.217,-115.997 117.592,-103.036 95.8797,-93.5369"/>
<polygon fill="midnightblue" stroke="midnightblue" points="169.68,-129.645 180.244,-130.446 172.485,-123.232 169.68,-129.645"/>
</g>
<!-- Node6&#45;&gt;Node1 -->
<g id="edge8" class="edge"><title>Node6&#45;&gt;Node1</title>
<path fill="none" stroke="midnightblue" d="M595.324,-90.2074C662.481,-100.476 753.532,-116.962 764.081,-130 772.188,-140.02 771.107,-148.195 764.081,-159 719.468,-227.608 623.269,-255.43 559.274,-266.482"/>
<polygon fill="midnightblue" stroke="midnightblue" points="595.595,-86.7087 585.185,-88.6765 594.55,-93.6303 595.595,-86.7087"/>
</g>
<!-- Node7 -->
<g id="node7" class="node"><title>Node7</title>
<g id="a_node7"><a xlink:href="station_actions_8c.html" target="_top" xlink:title="FIle containing all the station action definitions. ">
<polygon fill="white" stroke="black" points="461.17,-0.5 461.17,-28.5 584.992,-28.5 584.992,-0.5 461.17,-0.5"/>
<text text-anchor="start" x="469.17" y="-16.5" font-family="Helvetica,sans-Serif" font-size="10.00">rasPi&#45;EmergencyStation</text>
<text text-anchor="middle" x="523.081" y="-6.5" font-family="Helvetica,sans-Serif" font-size="10.00">/stationActions.c</text>
</a>
</g>
</g>
<!-- Node6&#45;&gt;Node7 -->
<g id="edge9" class="edge"><title>Node6&#45;&gt;Node7</title>
<path fill="none" stroke="midnightblue" d="M523.081,-55.1641C523.081,-46.1693 523.081,-36.2205 523.081,-28.5369"/>
<polygon fill="midnightblue" stroke="midnightblue" points="519.581,-55.4463 523.081,-65.4464 526.581,-55.4464 519.581,-55.4463"/>
</g>
<!-- Node9&#45;&gt;Node2 -->
<g id="edge15" class="edge"><title>Node9&#45;&gt;Node2</title>
<path fill="none" stroke="midnightblue" d="M319.356,-126.475C295.176,-116.112 264.763,-103.078 242.501,-93.5369"/>
<polygon fill="midnightblue" stroke="midnightblue" points="318.052,-129.724 328.623,-130.446 320.81,-123.29 318.052,-129.724"/>
</g>
<!-- Node9&#45;&gt;Node6 -->
<g id="edge14" class="edge"><title>Node9&#45;&gt;Node6</title>
<path fill="none" stroke="midnightblue" d="M402.685,-126.75C429.775,-116.343 464.086,-103.163 489.144,-93.5369"/>
<polygon fill="midnightblue" stroke="midnightblue" points="401.142,-123.593 393.062,-130.446 403.652,-130.128 401.142,-123.593"/>
</g>
<!-- Node10 -->
<g id="node10" class="node"><title>Node10</title>
<g id="a_node10"><a xlink:href="tcp_server_socket_comm_8c.html" target="_top" xlink:title="Server connection related function headers. ">
<polygon fill="white" stroke="black" points="294.399,-65.5 294.399,-93.5 423.763,-93.5 423.763,-65.5 294.399,-65.5"/>
<text text-anchor="start" x="302.399" y="-81.5" font-family="Helvetica,sans-Serif" font-size="10.00">rasPi&#45;EmergencyStation</text>
<text text-anchor="middle" x="359.081" y="-71.5" font-family="Helvetica,sans-Serif" font-size="10.00">/tcpServerSocketComm.c</text>
</a>
</g>
</g>
<!-- Node9&#45;&gt;Node10 -->
<g id="edge16" class="edge"><title>Node9&#45;&gt;Node10</title>
<path fill="none" stroke="midnightblue" d="M359.081,-120.164C359.081,-111.169 359.081,-101.221 359.081,-93.5369"/>
<polygon fill="midnightblue" stroke="midnightblue" points="355.581,-120.446 359.081,-130.446 362.581,-120.446 355.581,-120.446"/>
</g>
<!-- Node11&#45;&gt;Node6 -->
<g id="edge18" class="edge"><title>Node11&#45;&gt;Node6</title>
<path fill="none" stroke="midnightblue" d="M641.274,-126.75C614.68,-116.343 580.996,-103.163 556.398,-93.5369"/>
<polygon fill="midnightblue" stroke="midnightblue" points="640.134,-130.062 650.722,-130.446 642.685,-123.543 640.134,-130.062"/>
</g>
<!-- Node12 -->
<g id="node12" class="node"><title>Node12</title>
<g id="a_node12"><a xlink:href="mcast_messaging_8c.html" target="_top" xlink:title="FIle containing all the definition of the functions related to multicast communication. ">
<polygon fill="white" stroke="black" points="622.17,-65.5 622.17,-93.5 745.992,-93.5 745.992,-65.5 622.17,-65.5"/>
<text text-anchor="start" x="630.17" y="-81.5" font-family="Helvetica,sans-Serif" font-size="10.00">rasPi&#45;EmergencyStation</text>
<text text-anchor="middle" x="684.081" y="-71.5" font-family="Helvetica,sans-Serif" font-size="10.00">/mcastMessaging.c</text>
</a>
</g>
</g>
<!-- Node11&#45;&gt;Node12 -->
<g id="edge19" class="edge"><title>Node11&#45;&gt;Node12</title>
<path fill="none" stroke="midnightblue" d="M684.081,-120.164C684.081,-111.169 684.081,-101.221 684.081,-93.5369"/>
<polygon fill="midnightblue" stroke="midnightblue" points="680.581,-120.446 684.081,-130.446 687.581,-120.446 680.581,-120.446"/>
</g>
</g>
</svg>
