<?xml version="1.0" encoding="UTF-8" standalone="no"?>
<!DOCTYPE svg PUBLIC "-//W3C//DTD SVG 1.1//EN"
 "http://www.w3.org/Graphics/SVG/1.1/DTD/svg11.dtd">
<!-- Generated by graphviz version 2.38.0 (20140413.2041)
 -->
<!-- Title: MP_ParserThread Pages: 1 -->
<svg width="294pt" height="27pt"
 viewBox="0.00 0.00 294.17 27.00" xmlns="http://www.w3.org/2000/svg" xmlns:xlink="http://www.w3.org/1999/xlink">
<g id="graph0" class="graph" transform="scale(1 1) rotate(0) translate(4 23)">
<title>MP_ParserThread</title>
<polygon fill="white" stroke="none" points="-4,4 -4,-23 290.172,-23 290.172,4 -4,4"/>
<!-- Node1 -->
<g id="node1" class="node"><title>Node1</title>
<polygon fill="#bfbfbf" stroke="black" points="0,-0.5 0,-18.5 97.6992,-18.5 97.6992,-0.5 0,-0.5"/>
<text text-anchor="middle" x="48.8496" y="-6.5" font-family="Helvetica,sans-Serif" font-size="10.00">MP_ParserThread</text>
</g>
<!-- Node2 -->
<g id="node2" class="node"><title>Node2</title>
<g id="a_node2"><a xlink:href="message_parser_8h.html#a0a5ee1ec225573ebc80059d6bce9e0d6" target="_top" xlink:title="Parser thread initializer. ">
<polygon fill="white" stroke="black" points="133.699,-0.5 133.699,-18.5 212.497,-18.5 212.497,-0.5 133.699,-0.5"/>
<text text-anchor="middle" x="173.098" y="-6.5" font-family="Helvetica,sans-Serif" font-size="10.00">MP_initParser</text>
</a>
</g>
</g>
<!-- Node1&#45;&gt;Node2 -->
<g id="edge1" class="edge"><title>Node1&#45;&gt;Node2</title>
<path fill="none" stroke="midnightblue" d="M107.869,-9.5C116.501,-9.5 125.217,-9.5 133.323,-9.5"/>
<polygon fill="midnightblue" stroke="midnightblue" points="107.815,-6.0001 97.8146,-9.5 107.815,-13.0001 107.815,-6.0001"/>
</g>
<!-- Node3 -->
<g id="node3" class="node"><title>Node3</title>
<g id="a_node3"><a xlink:href="main_8c.html#ac0f2228420376f4db7e1274f2b41667c" target="_top" xlink:title="main">
<polygon fill="white" stroke="black" points="248.497,-0.5 248.497,-18.5 286.172,-18.5 286.172,-0.5 248.497,-0.5"/>
<text text-anchor="middle" x="267.334" y="-6.5" font-family="Helvetica,sans-Serif" font-size="10.00">main</text>
</a>
</g>
</g>
<!-- Node2&#45;&gt;Node3 -->
<g id="edge2" class="edge"><title>Node2&#45;&gt;Node3</title>
<path fill="none" stroke="midnightblue" d="M222.813,-9.5C231.803,-9.5 240.661,-9.5 248.015,-9.5"/>
<polygon fill="midnightblue" stroke="midnightblue" points="222.68,-6.0001 212.68,-9.5 222.68,-13.0001 222.68,-6.0001"/>
</g>
</g>
</svg>
