<?xml version="1.0" encoding="UTF-8" standalone="no"?>
<!DOCTYPE svg PUBLIC "-//W3C//DTD SVG 1.1//EN"
 "http://www.w3.org/Graphics/SVG/1.1/DTD/svg11.dtd">
<!-- Generated by graphviz version 2.38.0 (20140413.2041)
 -->
<!-- Title: MP_wipeMessage Pages: 1 -->
<svg width="1444pt" height="103pt"
 viewBox="0.00 0.00 1444.18 103.00" xmlns="http://www.w3.org/2000/svg" xmlns:xlink="http://www.w3.org/1999/xlink">
<g id="graph0" class="graph" transform="scale(1 1) rotate(0) translate(4 99)">
<title>MP_wipeMessage</title>
<polygon fill="white" stroke="none" points="-4,4 -4,-99 1440.18,-99 1440.18,4 -4,4"/>
<!-- Node1 -->
<g id="node1" class="node"><title>Node1</title>
<polygon fill="#bfbfbf" stroke="black" points="0,-56.5 0,-74.5 97.7041,-74.5 97.7041,-56.5 0,-56.5"/>
<text text-anchor="middle" x="48.8521" y="-62.5" font-family="Helvetica,sans-Serif" font-size="10.00">MP_wipeMessage</text>
</g>
<!-- Node2 -->
<g id="node2" class="node"><title>Node2</title>
<g id="a_node2"><a xlink:href="tcp_server_socket_comm_8h.html#ab46f3e041cae487562197067e220af3b" target="_top" xlink:title="Thread to send the messages stored in the outbox to the server. ">
<polygon fill="white" stroke="black" points="134.549,-75.5 134.549,-93.5 281.726,-93.5 281.726,-75.5 134.549,-75.5"/>
<text text-anchor="middle" x="208.137" y="-81.5" font-family="Helvetica,sans-Serif" font-size="10.00">SSC_msgSenderThreadFunc</text>
</a>
</g>
</g>
<!-- Node1&#45;&gt;Node2 -->
<g id="edge1" class="edge"><title>Node1&#45;&gt;Node2</title>
<path fill="none" stroke="midnightblue" d="M107.875,-72.5091C116.538,-73.5556 125.561,-74.6456 134.48,-75.723"/>
<polygon fill="midnightblue" stroke="midnightblue" points="108.245,-69.0285 97.8974,-71.3039 107.405,-75.978 108.245,-69.0285"/>
</g>
<!-- Node7 -->
<g id="node7" class="node"><title>Node7</title>
<g id="a_node7"><a xlink:href="tcp_vehicle_socket_comm_8c.html#a1c76ab448a30a8498f76e22546c81047" target="_top" xlink:title="Send a message to a vehicle. ">
<polygon fill="white" stroke="black" points="133.704,-38.5 133.704,-56.5 282.57,-56.5 282.57,-38.5 133.704,-38.5"/>
<text text-anchor="middle" x="208.137" y="-44.5" font-family="Helvetica,sans-Serif" font-size="10.00">VSC_SendMessageToVehicle</text>
</a>
</g>
</g>
<!-- Node1&#45;&gt;Node7 -->
<g id="edge6" class="edge"><title>Node1&#45;&gt;Node7</title>
<path fill="none" stroke="midnightblue" d="M107.912,-58.8555C116.282,-57.8977 124.985,-56.9016 133.607,-55.9149"/>
<polygon fill="midnightblue" stroke="midnightblue" points="107.435,-55.3872 97.8974,-60.0016 108.231,-62.3418 107.435,-55.3872"/>
</g>
<!-- Node3 -->
<g id="node3" class="node"><title>Node3</title>
<g id="a_node3"><a xlink:href="tcp_server_socket_comm_8h.html#aefcfff31ea3a9b0d92a83ab83c9874f9" target="_top" xlink:title="Start the threads for listening and sending messages to the server. ">
<polygon fill="white" stroke="black" points="332.479,-75.5 332.479,-93.5 477.429,-93.5 477.429,-75.5 332.479,-75.5"/>
<text text-anchor="middle" x="404.954" y="-81.5" font-family="Helvetica,sans-Serif" font-size="10.00">SSC_initServerConnThreads</text>
</a>
</g>
</g>
<!-- Node2&#45;&gt;Node3 -->
<g id="edge2" class="edge"><title>Node2&#45;&gt;Node3</title>
<path fill="none" stroke="midnightblue" d="M292.074,-84.5C305.421,-84.5 319.138,-84.5 332.194,-84.5"/>
<polygon fill="midnightblue" stroke="midnightblue" points="291.957,-81.0001 281.957,-84.5 291.957,-88.0001 291.957,-81.0001"/>
</g>
<!-- Node4 -->
<g id="node4" class="node"><title>Node4</title>
<g id="a_node4"><a xlink:href="tcp_server_socket_comm_8h.html#a64aaa41ac5e2fbe7f8ba88c053b49ff9" target="_top" xlink:title="Initialize the connection to the server. ">
<polygon fill="white" stroke="black" points="527.338,-75.5 527.338,-93.5 662.288,-93.5 662.288,-75.5 527.338,-75.5"/>
<text text-anchor="middle" x="594.813" y="-81.5" font-family="Helvetica,sans-Serif" font-size="10.00">SSC_initServerConnection</text>
</a>
</g>
</g>
<!-- Node3&#45;&gt;Node4 -->
<g id="edge3" class="edge"><title>Node3&#45;&gt;Node4</title>
<path fill="none" stroke="midnightblue" d="M487.532,-84.5C500.743,-84.5 514.286,-84.5 527.09,-84.5"/>
<polygon fill="midnightblue" stroke="midnightblue" points="487.511,-81.0001 477.511,-84.5 487.511,-88.0001 487.511,-81.0001"/>
</g>
<!-- Node5 -->
<g id="node5" class="node"><title>Node5</title>
<g id="a_node5"><a xlink:href="main_8c.html#aea1c0564829983a4a1da026f1640f762" target="_top" xlink:title="Thread for controlling the server client initialization and shutdown. ">
<polygon fill="white" stroke="black" points="844.248,-76.5 844.248,-94.5 975.858,-94.5 975.858,-76.5 844.248,-76.5"/>
<text text-anchor="middle" x="910.053" y="-82.5" font-family="Helvetica,sans-Serif" font-size="10.00">serverConnControlThread</text>
</a>
</g>
</g>
<!-- Node4&#45;&gt;Node5 -->
<g id="edge4" class="edge"><title>Node4&#45;&gt;Node5</title>
<path fill="none" stroke="midnightblue" d="M672.921,-84.7462C725.533,-84.9141 794.435,-85.1341 844.219,-85.293"/>
<polygon fill="midnightblue" stroke="midnightblue" points="672.638,-81.2453 662.627,-84.7133 672.615,-88.2453 672.638,-81.2453"/>
</g>
<!-- Node6 -->
<g id="node6" class="node"><title>Node6</title>
<g id="a_node6"><a xlink:href="main_8c.html#ac0f2228420376f4db7e1274f2b41667c" target="_top" xlink:title="main">
<polygon fill="white" stroke="black" points="1398.51,-57.5 1398.51,-75.5 1436.18,-75.5 1436.18,-57.5 1398.51,-57.5"/>
<text text-anchor="middle" x="1417.35" y="-63.5" font-family="Helvetica,sans-Serif" font-size="10.00">main</text>
</a>
</g>
</g>
<!-- Node5&#45;&gt;Node6 -->
<g id="edge5" class="edge"><title>Node5&#45;&gt;Node6</title>
<path fill="none" stroke="midnightblue" d="M986.26,-82.6721C1105.92,-78.1725 1332.84,-69.64 1398.27,-67.1797"/>
<polygon fill="midnightblue" stroke="midnightblue" points="985.938,-79.1816 976.077,-83.055 986.201,-86.1767 985.938,-79.1816"/>
</g>
<!-- Node8 -->
<g id="node8" class="node"><title>Node8</title>
<g id="a_node8"><a xlink:href="tcp_vehicle_socket_comm_8h.html#a8a9cd2f1bfdc3aada6f66fbddee2aa39" target="_top" xlink:title="Thread to send the messages to the vehicle. ">
<polygon fill="white" stroke="black" points="318.57,-38.5 318.57,-56.5 491.338,-56.5 491.338,-38.5 318.57,-38.5"/>
<text text-anchor="middle" x="404.954" y="-44.5" font-family="Helvetica,sans-Serif" font-size="10.00">VSC_outboundHandlerThreadFunc</text>
</a>
</g>
</g>
<!-- Node7&#45;&gt;Node8 -->
<g id="edge7" class="edge"><title>Node7&#45;&gt;Node8</title>
<path fill="none" stroke="midnightblue" d="M292.984,-47.5C301.413,-47.5 309.979,-47.5 318.425,-47.5"/>
<polygon fill="midnightblue" stroke="midnightblue" points="292.789,-44.0001 282.789,-47.5 292.789,-51.0001 292.789,-44.0001"/>
</g>
<!-- Node9 -->
<g id="node9" class="node"><title>Node9</title>
<g id="a_node9"><a xlink:href="station_actions_8h.html#ac5974717372c28efe7b4e33f68ef895b" target="_top" xlink:title="Function to initialize a new vehicle structure. ">
<polygon fill="white" stroke="black" points="554.845,-38.5 554.845,-56.5 634.781,-56.5 634.781,-38.5 554.845,-38.5"/>
<text text-anchor="middle" x="594.813" y="-44.5" font-family="Helvetica,sans-Serif" font-size="10.00">SA_initVehicle</text>
</a>
</g>
</g>
<!-- Node8&#45;&gt;Node9 -->
<g id="edge8" class="edge"><title>Node8&#45;&gt;Node9</title>
<path fill="none" stroke="midnightblue" d="M501.49,-47.5C520.289,-47.5 539.002,-47.5 554.616,-47.5"/>
<polygon fill="midnightblue" stroke="midnightblue" points="501.363,-44.0001 491.363,-47.5 501.363,-51.0001 501.363,-44.0001"/>
</g>
<!-- Node10 -->
<g id="node10" class="node"><title>Node10</title>
<g id="a_node10"><a xlink:href="station_actions_8h.html#adef80b5aef5924633f2ef4b37eecc820" target="_top" xlink:title="Add a new vehicle to the vehicle list. ">
<polygon fill="white" stroke="black" points="698.288,-38.5 698.288,-56.5 808.248,-56.5 808.248,-38.5 698.288,-38.5"/>
<text text-anchor="middle" x="753.268" y="-44.5" font-family="Helvetica,sans-Serif" font-size="10.00">SA_addVehicleToList</text>
</a>
</g>
</g>
<!-- Node9&#45;&gt;Node10 -->
<g id="edge9" class="edge"><title>Node9&#45;&gt;Node10</title>
<path fill="none" stroke="midnightblue" d="M645.074,-47.5C661.92,-47.5 680.852,-47.5 698.065,-47.5"/>
<polygon fill="midnightblue" stroke="midnightblue" points="644.89,-44.0001 634.89,-47.5 644.89,-51.0001 644.89,-44.0001"/>
</g>
<!-- Node11 -->
<g id="node11" class="node"><title>Node11</title>
<g id="a_node11"><a xlink:href="message_parser_8h.html#a37ec21f46c51967253a4e2da9ab6f063" target="_top" xlink:title="Message parser main function. ">
<polygon fill="white" stroke="black" points="1011.86,-38.5 1011.86,-56.5 1114.01,-56.5 1114.01,-38.5 1011.86,-38.5"/>
<text text-anchor="middle" x="1062.93" y="-44.5" font-family="Helvetica,sans-Serif" font-size="10.00">MP_parseMessage</text>
</a>
</g>
</g>
<!-- Node10&#45;&gt;Node11 -->
<g id="edge10" class="edge"><title>Node10&#45;&gt;Node11</title>
<path fill="none" stroke="midnightblue" d="M818.626,-47.5C876.085,-47.5 959.072,-47.5 1011.75,-47.5"/>
<polygon fill="midnightblue" stroke="midnightblue" points="818.564,-44.0001 808.564,-47.5 818.564,-51.0001 818.564,-44.0001"/>
</g>
<!-- Node14 -->
<g id="node14" class="node"><title>Node14</title>
<g id="a_node14"><a xlink:href="station_actions_8h.html#a1e710f6898a01da9a953e7fed354c358" target="_top" xlink:title="Function to treat the initial vehicle list message. ">
<polygon fill="white" stroke="black" points="854.529,-0.5 854.529,-18.5 965.578,-18.5 965.578,-0.5 854.529,-0.5"/>
<text text-anchor="middle" x="910.053" y="-6.5" font-family="Helvetica,sans-Serif" font-size="10.00">SA_treatListMessage</text>
</a>
</g>
</g>
<!-- Node10&#45;&gt;Node14 -->
<g id="edge14" class="edge"><title>Node10&#45;&gt;Node14</title>
<path fill="none" stroke="midnightblue" d="M800.806,-36.0748C823.721,-30.4492 850.95,-23.7643 872.367,-18.5066"/>
<polygon fill="midnightblue" stroke="midnightblue" points="799.827,-32.7112 790.95,-38.4945 801.496,-39.5093 799.827,-32.7112"/>
</g>
<!-- Node12 -->
<g id="node12" class="node"><title>Node12</title>
<g id="a_node12"><a xlink:href="message_parser_8h.html#a995d4c39c3939fa306e45d06589bf8c0" target="_top" xlink:title="Thread function for the parser thread. ">
<polygon fill="white" stroke="black" points="1150.01,-38.5 1150.01,-56.5 1247.71,-56.5 1247.71,-38.5 1150.01,-38.5"/>
<text text-anchor="middle" x="1198.86" y="-44.5" font-family="Helvetica,sans-Serif" font-size="10.00">MP_ParserThread</text>
</a>
</g>
</g>
<!-- Node11&#45;&gt;Node12 -->
<g id="edge11" class="edge"><title>Node11&#45;&gt;Node12</title>
<path fill="none" stroke="midnightblue" d="M1124.22,-47.5C1132.85,-47.5 1141.64,-47.5 1149.99,-47.5"/>
<polygon fill="midnightblue" stroke="midnightblue" points="1124.18,-44.0001 1114.18,-47.5 1124.18,-51.0001 1124.18,-44.0001"/>
</g>
<!-- Node13 -->
<g id="node13" class="node"><title>Node13</title>
<g id="a_node13"><a xlink:href="message_parser_8h.html#a0a5ee1ec225573ebc80059d6bce9e0d6" target="_top" xlink:title="Parser thread initializer. ">
<polygon fill="white" stroke="black" points="1283.71,-38.5 1283.71,-56.5 1362.51,-56.5 1362.51,-38.5 1283.71,-38.5"/>
<text text-anchor="middle" x="1323.11" y="-44.5" font-family="Helvetica,sans-Serif" font-size="10.00">MP_initParser</text>
</a>
</g>
</g>
<!-- Node12&#45;&gt;Node13 -->
<g id="edge12" class="edge"><title>Node12&#45;&gt;Node13</title>
<path fill="none" stroke="midnightblue" d="M1257.88,-47.5C1266.51,-47.5 1275.23,-47.5 1283.33,-47.5"/>
<polygon fill="midnightblue" stroke="midnightblue" points="1257.83,-44.0001 1247.83,-47.5 1257.83,-51.0001 1257.83,-44.0001"/>
</g>
<!-- Node13&#45;&gt;Node6 -->
<g id="edge13" class="edge"><title>Node13&#45;&gt;Node6</title>
<path fill="none" stroke="midnightblue" d="M1372.53,-57.4752C1381.62,-59.3476 1390.59,-61.1952 1398.03,-62.7263"/>
<polygon fill="midnightblue" stroke="midnightblue" points="1373.19,-54.0372 1362.69,-55.4476 1371.78,-60.8933 1373.19,-54.0372"/>
</g>
<!-- Node14&#45;&gt;Node11 -->
<g id="edge15" class="edge"><title>Node14&#45;&gt;Node11</title>
<path fill="none" stroke="midnightblue" d="M956.719,-21.001C978.992,-26.6107 1005.39,-33.2592 1026.17,-38.4934"/>
<polygon fill="midnightblue" stroke="midnightblue" points="957.362,-17.5538 946.81,-18.5055 955.652,-24.3418 957.362,-17.5538"/>
</g>
</g>
</svg>
