<?xml version="1.0" encoding="UTF-8" standalone="no"?>
<!DOCTYPE svg PUBLIC "-//W3C//DTD SVG 1.1//EN"
 "http://www.w3.org/Graphics/SVG/1.1/DTD/svg11.dtd">
<!-- Generated by graphviz version 2.38.0 (20140413.2041)
 -->
<!-- Title: MP_initMsgStruc Pages: 1 -->
<svg width="1254pt" height="212pt"
 viewBox="0.00 0.00 1253.99 212.00" xmlns="http://www.w3.org/2000/svg" xmlns:xlink="http://www.w3.org/1999/xlink">
<g id="graph0" class="graph" transform="scale(1 1) rotate(0) translate(4 208)">
<title>MP_initMsgStruc</title>
<polygon fill="white" stroke="none" points="-4,4 -4,-208 1249.99,-208 1249.99,4 -4,4"/>
<!-- Node1 -->
<g id="node1" class="node"><title>Node1</title>
<polygon fill="#bfbfbf" stroke="black" points="0,-74.5 0,-92.5 91.5762,-92.5 91.5762,-74.5 0,-74.5"/>
<text text-anchor="middle" x="45.7881" y="-80.5" font-family="Helvetica,sans-Serif" font-size="10.00">MP_initMsgStruc</text>
</g>
<!-- Node2 -->
<g id="node2" class="node"><title>Node2</title>
<g id="a_node2"><a xlink:href="message_parser_8h.html#a1e095af9fe3f1bd7c5a708d797e52bb9" target="_top" xlink:title="Message decoupler and receiver function. ">
<polygon fill="white" stroke="black" points="137.312,-148.5 137.312,-166.5 253.908,-166.5 253.908,-148.5 137.312,-148.5"/>
<text text-anchor="middle" x="195.61" y="-154.5" font-family="Helvetica,sans-Serif" font-size="10.00">MP_messageReceiver</text>
</a>
</g>
</g>
<!-- Node1&#45;&gt;Node2 -->
<g id="edge1" class="edge"><title>Node1&#45;&gt;Node2</title>
<path fill="none" stroke="midnightblue" d="M65.3989,-99.1907C81.0831,-111.702 104.585,-128.838 127.576,-139.5 135.228,-143.049 143.708,-146.003 151.99,-148.422"/>
<polygon fill="midnightblue" stroke="midnightblue" points="67.505,-96.392 57.5426,-92.7862 63.082,-101.818 67.505,-96.392"/>
</g>
<!-- Node16 -->
<g id="node16" class="node"><title>Node16</title>
<g id="a_node16"><a xlink:href="station_actions_8h.html#a5e1c0855b4fc05bdfb48c63ee97d728e" target="_top" xlink:title="Function to treat the route messages sent by the server. ">
<polygon fill="white" stroke="black" points="134.524,-74.5 134.524,-92.5 256.696,-92.5 256.696,-74.5 134.524,-74.5"/>
<text text-anchor="middle" x="195.61" y="-80.5" font-family="Helvetica,sans-Serif" font-size="10.00">SA_treatRouteMessage</text>
</a>
</g>
</g>
<!-- Node1&#45;&gt;Node16 -->
<g id="edge17" class="edge"><title>Node1&#45;&gt;Node16</title>
<path fill="none" stroke="midnightblue" d="M102.251,-83.5C112.77,-83.5 123.823,-83.5 134.479,-83.5"/>
<polygon fill="midnightblue" stroke="midnightblue" points="101.943,-80.0001 91.9429,-83.5 101.943,-87.0001 101.943,-80.0001"/>
</g>
<!-- Node20 -->
<g id="node20" class="node"><title>Node20</title>
<g id="a_node20"><a xlink:href="station_actions_8h.html#a2be0d823bd5a676ce32b74e8f1b12dc2" target="_top" xlink:title="Send the vehicle connected message to the server. ">
<polygon fill="white" stroke="black" points="133.687,-37.5 133.687,-55.5 257.534,-55.5 257.534,-37.5 133.687,-37.5"/>
<text text-anchor="middle" x="195.61" y="-43.5" font-family="Helvetica,sans-Serif" font-size="10.00">SA_sendConnectedMsg</text>
</a>
</g>
</g>
<!-- Node1&#45;&gt;Node20 -->
<g id="edge22" class="edge"><title>Node1&#45;&gt;Node20</title>
<path fill="none" stroke="midnightblue" d="M92.7195,-72.0033C113.926,-66.6954 138.737,-60.4851 158.566,-55.5218"/>
<polygon fill="midnightblue" stroke="midnightblue" points="91.8004,-68.6253 82.9495,-74.4488 93.5001,-75.4159 91.8004,-68.6253"/>
</g>
<!-- Node21 -->
<g id="node21" class="node"><title>Node21</title>
<g id="a_node21"><a xlink:href="station_actions_8h.html#a62de0824fbc9e952d2f17577d16d38d1" target="_top" xlink:title="Send the vehicle disconnected message to the server. ">
<polygon fill="white" stroke="black" points="127.576,-111.5 127.576,-129.5 263.645,-129.5 263.645,-111.5 127.576,-111.5"/>
<text text-anchor="middle" x="195.61" y="-117.5" font-family="Helvetica,sans-Serif" font-size="10.00">SA_sendDisconnectedMsg</text>
</a>
</g>
</g>
<!-- Node1&#45;&gt;Node21 -->
<g id="edge24" class="edge"><title>Node1&#45;&gt;Node21</title>
<path fill="none" stroke="midnightblue" d="M92.7195,-94.9967C113.926,-100.305 138.737,-106.515 158.566,-111.478"/>
<polygon fill="midnightblue" stroke="midnightblue" points="93.5001,-91.5841 82.9495,-92.5512 91.8004,-98.3747 93.5001,-91.5841"/>
</g>
<!-- Node22 -->
<g id="node22" class="node"><title>Node22</title>
<g id="a_node22"><a xlink:href="station_actions_8h.html#afbf777498692d2ce2582ab9228b11063" target="_top" xlink:title="Send the Join multicast group message to the vehicle. ">
<polygon fill="white" stroke="black" points="137.857,-0.5 137.857,-18.5 253.364,-18.5 253.364,-0.5 137.857,-0.5"/>
<text text-anchor="middle" x="195.61" y="-6.5" font-family="Helvetica,sans-Serif" font-size="10.00">SA_sendJoinMessage</text>
</a>
</g>
</g>
<!-- Node1&#45;&gt;Node22 -->
<g id="edge26" class="edge"><title>Node1&#45;&gt;Node22</title>
<path fill="none" stroke="midnightblue" d="M65.3989,-67.8093C81.0831,-55.2979 104.585,-38.162 127.576,-27.5 135.228,-23.9513 143.708,-20.9974 151.99,-18.5784"/>
<polygon fill="midnightblue" stroke="midnightblue" points="63.082,-65.1824 57.5426,-74.2138 67.505,-70.608 63.082,-65.1824"/>
</g>
<!-- Node3 -->
<g id="node3" class="node"><title>Node3</title>
<g id="a_node3"><a xlink:href="mcast_messaging_8h.html#ab9bc9b5c01c8c3a09c75e662eb019f04" target="_top" xlink:title="Thread for listening to messages coming from the general multicast group. ">
<polygon fill="white" stroke="black" points="328.287,-185.5 328.287,-203.5 437.651,-203.5 437.651,-185.5 328.287,-185.5"/>
<text text-anchor="middle" x="382.969" y="-191.5" font-family="Helvetica,sans-Serif" font-size="10.00">MCM_listenerThread</text>
</a>
</g>
</g>
<!-- Node2&#45;&gt;Node3 -->
<g id="edge2" class="edge"><title>Node2&#45;&gt;Node3</title>
<path fill="none" stroke="midnightblue" d="M252.05,-168.566C279.102,-173.966 311.233,-180.38 336.773,-185.478"/>
<polygon fill="midnightblue" stroke="midnightblue" points="252.446,-165.077 241.954,-166.551 251.076,-171.941 252.446,-165.077"/>
</g>
<!-- Node7 -->
<g id="node7" class="node"><title>Node7</title>
<g id="a_node7"><a xlink:href="tcp_server_socket_comm_8c.html#abe2574d5f7dd2457b0d09df7f29643a9" target="_top" xlink:title="Listen to the messages coming to the server. ">
<polygon fill="white" stroke="black" points="320.782,-148.5 320.782,-166.5 445.156,-166.5 445.156,-148.5 320.782,-148.5"/>
<text text-anchor="middle" x="382.969" y="-154.5" font-family="Helvetica,sans-Serif" font-size="10.00">SSC_listenToServerMsg</text>
</a>
</g>
</g>
<!-- Node2&#45;&gt;Node7 -->
<g id="edge6" class="edge"><title>Node2&#45;&gt;Node7</title>
<path fill="none" stroke="midnightblue" d="M264.098,-157.5C282.6,-157.5 302.551,-157.5 320.683,-157.5"/>
<polygon fill="midnightblue" stroke="midnightblue" points="263.99,-154 253.99,-157.5 263.99,-161 263.99,-154"/>
</g>
<!-- Node12 -->
<g id="node12" class="node"><title>Node12</title>
<g id="a_node12"><a xlink:href="tcp_vehicle_socket_comm_8h.html#a919ad3564e41afca64d17244390cfba7" target="_top" xlink:title="Thread to handle the inbound messages from the vehicles. ">
<polygon fill="white" stroke="black" points="299.645,-111.5 299.645,-129.5 466.294,-129.5 466.294,-111.5 299.645,-111.5"/>
<text text-anchor="middle" x="382.969" y="-117.5" font-family="Helvetica,sans-Serif" font-size="10.00">VSC_inboundHandlerThreadFunc</text>
</a>
</g>
</g>
<!-- Node2&#45;&gt;Node12 -->
<g id="edge12" class="edge"><title>Node2&#45;&gt;Node12</title>
<path fill="none" stroke="midnightblue" d="M252.05,-146.434C279.102,-141.034 311.233,-134.62 336.773,-129.522"/>
<polygon fill="midnightblue" stroke="midnightblue" points="251.076,-143.059 241.954,-148.449 252.446,-149.923 251.076,-143.059"/>
</g>
<!-- Node4 -->
<g id="node4" class="node"><title>Node4</title>
<g id="a_node4"><a xlink:href="mcast_messaging_8h.html#a4fd8b31a6cdd8fa515f1b3680a754def" target="_top" xlink:title="Intialize the multicast UDP listener and sender. ">
<polygon fill="white" stroke="black" points="520.373,-185.5 520.373,-203.5 634.722,-203.5 634.722,-185.5 520.373,-185.5"/>
<text text-anchor="middle" x="577.547" y="-191.5" font-family="Helvetica,sans-Serif" font-size="10.00">MCM_initMcastServer</text>
</a>
</g>
</g>
<!-- Node3&#45;&gt;Node4 -->
<g id="edge3" class="edge"><title>Node3&#45;&gt;Node4</title>
<path fill="none" stroke="midnightblue" d="M448.039,-194.5C471.419,-194.5 497.663,-194.5 520.31,-194.5"/>
<polygon fill="midnightblue" stroke="midnightblue" points="447.869,-191 437.869,-194.5 447.869,-198 447.869,-191"/>
</g>
<!-- Node5 -->
<g id="node5" class="node"><title>Node5</title>
<g id="a_node5"><a xlink:href="main_8c.html#a82a03c8bafdc8925bacf4693a1c5e794" target="_top" xlink:title="Thread for controlling the multicast server initialization and shutdown. ">
<polygon fill="white" stroke="black" points="1041.26,-185.5 1041.26,-203.5 1171.76,-203.5 1171.76,-185.5 1041.26,-185.5"/>
<text text-anchor="middle" x="1106.51" y="-191.5" font-family="Helvetica,sans-Serif" font-size="10.00">mcastConnControlThread</text>
</a>
</g>
</g>
<!-- Node4&#45;&gt;Node5 -->
<g id="edge4" class="edge"><title>Node4&#45;&gt;Node5</title>
<path fill="none" stroke="midnightblue" d="M645.105,-194.5C746.967,-194.5 940.277,-194.5 1040.94,-194.5"/>
<polygon fill="midnightblue" stroke="midnightblue" points="644.942,-191 634.942,-194.5 644.942,-198 644.942,-191"/>
</g>
<!-- Node6 -->
<g id="node6" class="node"><title>Node6</title>
<g id="a_node6"><a xlink:href="main_8c.html#ac0f2228420376f4db7e1274f2b41667c" target="_top" xlink:title="main">
<polygon fill="white" stroke="black" points="1208.32,-129.5 1208.32,-147.5 1245.99,-147.5 1245.99,-129.5 1208.32,-129.5"/>
<text text-anchor="middle" x="1227.15" y="-135.5" font-family="Helvetica,sans-Serif" font-size="10.00">main</text>
</a>
</g>
</g>
<!-- Node5&#45;&gt;Node6 -->
<g id="edge5" class="edge"><title>Node5&#45;&gt;Node6</title>
<path fill="none" stroke="midnightblue" d="M1157.93,-182.353C1162.88,-180.612 1167.75,-178.665 1172.32,-176.5 1188.65,-168.755 1205.33,-156.096 1215.71,-147.538"/>
<polygon fill="midnightblue" stroke="midnightblue" points="1156.82,-179.034 1148.39,-185.451 1158.98,-185.691 1156.82,-179.034"/>
</g>
<!-- Node8 -->
<g id="node8" class="node"><title>Node8</title>
<g id="a_node8"><a xlink:href="tcp_server_socket_comm_8h.html#ae54218394dd621113d0f73ec6ef8f873" target="_top" xlink:title="Thread to listen to messages coming from the server. ">
<polygon fill="white" stroke="black" points="502.294,-147.5 502.294,-165.5 652.801,-165.5 652.801,-147.5 502.294,-147.5"/>
<text text-anchor="middle" x="577.547" y="-153.5" font-family="Helvetica,sans-Serif" font-size="10.00">SSC_msgListenerThreadFunc</text>
</a>
</g>
</g>
<!-- Node7&#45;&gt;Node8 -->
<g id="edge7" class="edge"><title>Node7&#45;&gt;Node8</title>
<path fill="none" stroke="midnightblue" d="M455.508,-157.129C470.677,-157.05 486.726,-156.966 502.003,-156.887"/>
<polygon fill="midnightblue" stroke="midnightblue" points="455.148,-153.63 445.167,-157.182 455.185,-160.63 455.148,-153.63"/>
</g>
<!-- Node9 -->
<g id="node9" class="node"><title>Node9</title>
<g id="a_node9"><a xlink:href="tcp_server_socket_comm_8h.html#aefcfff31ea3a9b0d92a83ab83c9874f9" target="_top" xlink:title="Start the threads for listening and sending messages to the server. ">
<polygon fill="white" stroke="black" points="688.801,-147.5 688.801,-165.5 833.751,-165.5 833.751,-147.5 688.801,-147.5"/>
<text text-anchor="middle" x="761.276" y="-153.5" font-family="Helvetica,sans-Serif" font-size="10.00">SSC_initServerConnThreads</text>
</a>
</g>
</g>
<!-- Node8&#45;&gt;Node9 -->
<g id="edge8" class="edge"><title>Node8&#45;&gt;Node9</title>
<path fill="none" stroke="midnightblue" d="M663.263,-156.5C671.733,-156.5 680.274,-156.5 688.591,-156.5"/>
<polygon fill="midnightblue" stroke="midnightblue" points="662.988,-153 652.988,-156.5 662.988,-160 662.988,-153"/>
</g>
<!-- Node10 -->
<g id="node10" class="node"><title>Node10</title>
<g id="a_node10"><a xlink:href="tcp_server_socket_comm_8h.html#a64aaa41ac5e2fbe7f8ba88c053b49ff9" target="_top" xlink:title="Initialize the connection to the server. ">
<polygon fill="white" stroke="black" points="869.753,-147.5 869.753,-165.5 1004.7,-165.5 1004.7,-147.5 869.753,-147.5"/>
<text text-anchor="middle" x="937.229" y="-153.5" font-family="Helvetica,sans-Serif" font-size="10.00">SSC_initServerConnection</text>
</a>
</g>
</g>
<!-- Node9&#45;&gt;Node10 -->
<g id="edge9" class="edge"><title>Node9&#45;&gt;Node10</title>
<path fill="none" stroke="midnightblue" d="M843.898,-156.5C852.56,-156.5 861.293,-156.5 869.752,-156.5"/>
<polygon fill="midnightblue" stroke="midnightblue" points="843.782,-153 833.782,-156.5 843.782,-160 843.782,-153"/>
</g>
<!-- Node11 -->
<g id="node11" class="node"><title>Node11</title>
<g id="a_node11"><a xlink:href="main_8c.html#aea1c0564829983a4a1da026f1640f762" target="_top" xlink:title="Thread for controlling the server client initialization and shutdown. ">
<polygon fill="white" stroke="black" points="1040.71,-148.5 1040.71,-166.5 1172.32,-166.5 1172.32,-148.5 1040.71,-148.5"/>
<text text-anchor="middle" x="1106.51" y="-154.5" font-family="Helvetica,sans-Serif" font-size="10.00">serverConnControlThread</text>
</a>
</g>
</g>
<!-- Node10&#45;&gt;Node11 -->
<g id="edge10" class="edge"><title>Node10&#45;&gt;Node11</title>
<path fill="none" stroke="midnightblue" d="M1014.83,-156.958C1023.41,-157.009 1032.09,-157.061 1040.51,-157.111"/>
<polygon fill="midnightblue" stroke="midnightblue" points="1014.84,-153.458 1004.82,-156.898 1014.8,-160.458 1014.84,-153.458"/>
</g>
<!-- Node11&#45;&gt;Node6 -->
<g id="edge11" class="edge"><title>Node11&#45;&gt;Node6</title>
<path fill="none" stroke="midnightblue" d="M1174.17,-146.825C1186.71,-144.816 1198.82,-142.878 1208.18,-141.378"/>
<polygon fill="midnightblue" stroke="midnightblue" points="1173.37,-143.408 1164.05,-148.445 1174.48,-150.32 1173.37,-143.408"/>
</g>
<!-- Node13 -->
<g id="node13" class="node"><title>Node13</title>
<g id="a_node13"><a xlink:href="tcp_vehicle_socket_comm_8h.html#a3ec3f2c1297ab45cb0ad39f925a4bce5" target="_top" xlink:title="Accept the new connections from vehicles. ">
<polygon fill="white" stroke="black" points="513.959,-110.5 513.959,-128.5 641.136,-128.5 641.136,-110.5 513.959,-110.5"/>
<text text-anchor="middle" x="577.547" y="-116.5" font-family="Helvetica,sans-Serif" font-size="10.00">VSC_acceptConnections</text>
</a>
</g>
</g>
<!-- Node12&#45;&gt;Node13 -->
<g id="edge13" class="edge"><title>Node12&#45;&gt;Node13</title>
<path fill="none" stroke="midnightblue" d="M476.542,-120.019C489.135,-119.954 501.813,-119.888 513.712,-119.826"/>
<polygon fill="midnightblue" stroke="midnightblue" points="476.459,-116.52 466.478,-120.072 476.496,-123.519 476.459,-116.52"/>
</g>
<!-- Node14 -->
<g id="node14" class="node"><title>Node14</title>
<g id="a_node14"><a xlink:href="tcp_vehicle_socket_comm_8h.html#a49fe9e8bc1bd13ac909ae2b7d2391886" target="_top" xlink:title="Initialize the vehicle comunication server. ">
<polygon fill="white" stroke="black" points="702.971,-110.5 702.971,-128.5 819.581,-128.5 819.581,-110.5 702.971,-110.5"/>
<text text-anchor="middle" x="761.276" y="-116.5" font-family="Helvetica,sans-Serif" font-size="10.00">VSC_initVehicleServer</text>
</a>
</g>
</g>
<!-- Node13&#45;&gt;Node14 -->
<g id="edge14" class="edge"><title>Node13&#45;&gt;Node14</title>
<path fill="none" stroke="midnightblue" d="M651.814,-119.5C668.846,-119.5 686.735,-119.5 702.963,-119.5"/>
<polygon fill="midnightblue" stroke="midnightblue" points="651.343,-116 641.342,-119.5 651.342,-123 651.343,-116"/>
</g>
<!-- Node15 -->
<g id="node15" class="node"><title>Node15</title>
<g id="a_node15"><a xlink:href="main_8c.html#ae346112f7679ae0199c3158f6624fd8b" target="_top" xlink:title="Thread for controlling the vehicle server initialization and shutdown. ">
<polygon fill="white" stroke="black" points="869.751,-110.5 869.751,-128.5 1004.71,-128.5 1004.71,-110.5 869.751,-110.5"/>
<text text-anchor="middle" x="937.229" y="-116.5" font-family="Helvetica,sans-Serif" font-size="10.00">vehicleConnControlThread</text>
</a>
</g>
</g>
<!-- Node14&#45;&gt;Node15 -->
<g id="edge15" class="edge"><title>Node14&#45;&gt;Node15</title>
<path fill="none" stroke="midnightblue" d="M829.976,-119.5C842.959,-119.5 856.545,-119.5 869.498,-119.5"/>
<polygon fill="midnightblue" stroke="midnightblue" points="829.717,-116 819.717,-119.5 829.717,-123 829.717,-116"/>
</g>
<!-- Node15&#45;&gt;Node6 -->
<g id="edge16" class="edge"><title>Node15&#45;&gt;Node6</title>
<path fill="none" stroke="midnightblue" d="M1015.33,-124.588C1081.02,-128.923 1170.59,-134.833 1208.28,-137.32"/>
<polygon fill="midnightblue" stroke="midnightblue" points="1015.22,-121.073 1005.01,-123.907 1014.76,-128.058 1015.22,-121.073"/>
</g>
<!-- Node17 -->
<g id="node17" class="node"><title>Node17</title>
<g id="a_node17"><a xlink:href="message_parser_8h.html#a37ec21f46c51967253a4e2da9ab6f063" target="_top" xlink:title="Message parser main function. ">
<polygon fill="white" stroke="black" points="331.893,-38.5 331.893,-56.5 434.045,-56.5 434.045,-38.5 331.893,-38.5"/>
<text text-anchor="middle" x="382.969" y="-44.5" font-family="Helvetica,sans-Serif" font-size="10.00">MP_parseMessage</text>
</a>
</g>
</g>
<!-- Node16&#45;&gt;Node17 -->
<g id="edge18" class="edge"><title>Node16&#45;&gt;Node17</title>
<path fill="none" stroke="midnightblue" d="M253.24,-72.5015C279.602,-67.3815 310.574,-61.3661 335.532,-56.519"/>
<polygon fill="midnightblue" stroke="midnightblue" points="252.533,-69.0732 243.384,-74.4157 253.868,-75.9448 252.533,-69.0732"/>
</g>
<!-- Node18 -->
<g id="node18" class="node"><title>Node18</title>
<g id="a_node18"><a xlink:href="message_parser_8h.html#a995d4c39c3939fa306e45d06589bf8c0" target="_top" xlink:title="Thread function for the parser thread. ">
<polygon fill="white" stroke="black" points="712.426,-42.5 712.426,-60.5 810.125,-60.5 810.125,-42.5 712.426,-42.5"/>
<text text-anchor="middle" x="761.276" y="-48.5" font-family="Helvetica,sans-Serif" font-size="10.00">MP_ParserThread</text>
</a>
</g>
</g>
<!-- Node17&#45;&gt;Node18 -->
<g id="edge19" class="edge"><title>Node17&#45;&gt;Node18</title>
<path fill="none" stroke="midnightblue" d="M444.498,-48.1434C519.017,-48.9355 644.06,-50.2647 712.295,-50.99"/>
<polygon fill="midnightblue" stroke="midnightblue" points="444.366,-44.6419 434.329,-48.0353 444.291,-51.6415 444.366,-44.6419"/>
</g>
<!-- Node19 -->
<g id="node19" class="node"><title>Node19</title>
<g id="a_node19"><a xlink:href="message_parser_8h.html#a0a5ee1ec225573ebc80059d6bce9e0d6" target="_top" xlink:title="Parser thread initializer. ">
<polygon fill="white" stroke="black" points="897.83,-59.5 897.83,-77.5 976.627,-77.5 976.627,-59.5 897.83,-59.5"/>
<text text-anchor="middle" x="937.229" y="-65.5" font-family="Helvetica,sans-Serif" font-size="10.00">MP_initParser</text>
</a>
</g>
</g>
<!-- Node18&#45;&gt;Node19 -->
<g id="edge20" class="edge"><title>Node18&#45;&gt;Node19</title>
<path fill="none" stroke="midnightblue" d="M820.543,-57.1943C845.969,-59.6792 875.083,-62.5243 897.743,-64.7388"/>
<polygon fill="midnightblue" stroke="midnightblue" points="820.563,-53.6797 810.27,-56.1903 819.882,-60.6465 820.563,-53.6797"/>
</g>
<!-- Node19&#45;&gt;Node6 -->
<g id="edge21" class="edge"><title>Node19&#45;&gt;Node6</title>
<path fill="none" stroke="midnightblue" d="M986.942,-78.8124C1034.44,-89.0855 1108.63,-105.708 1172.32,-122.5 1184.38,-125.682 1197.84,-129.682 1208.29,-132.887"/>
<polygon fill="midnightblue" stroke="midnightblue" points="987.445,-75.3404 976.932,-76.656 985.971,-82.1834 987.445,-75.3404"/>
</g>
<!-- Node20&#45;&gt;Node17 -->
<g id="edge23" class="edge"><title>Node20&#45;&gt;Node17</title>
<path fill="none" stroke="midnightblue" d="M267.59,-46.8829C289.001,-46.9984 312.049,-47.1228 331.807,-47.2294"/>
<polygon fill="midnightblue" stroke="midnightblue" points="267.579,-43.3829 257.561,-46.8288 267.541,-50.3828 267.579,-43.3829"/>
</g>
<!-- Node21&#45;&gt;Node12 -->
<g id="edge25" class="edge"><title>Node21&#45;&gt;Node12</title>
<path fill="none" stroke="midnightblue" d="M273.979,-120.5C282.419,-120.5 291.032,-120.5 299.53,-120.5"/>
<polygon fill="midnightblue" stroke="midnightblue" points="273.791,-117 263.791,-120.5 273.791,-124 273.791,-117"/>
</g>
<!-- Node22&#45;&gt;Node17 -->
<g id="edge27" class="edge"><title>Node22&#45;&gt;Node17</title>
<path fill="none" stroke="midnightblue" d="M250.503,-20.5485C278.316,-26.2503 311.815,-33.1178 338.036,-38.4934"/>
<polygon fill="midnightblue" stroke="midnightblue" points="251.037,-17.0852 240.538,-18.5055 249.631,-23.9425 251.037,-17.0852"/>
</g>
</g>
</svg>
