<?xml version="1.0" encoding="UTF-8" standalone="no"?>
<!DOCTYPE svg PUBLIC "-//W3C//DTD SVG 1.1//EN"
 "http://www.w3.org/Graphics/SVG/1.1/DTD/svg11.dtd">
<!-- Generated by graphviz version 2.38.0 (20140413.2041)
 -->
<!-- Title: rasPi&#45;EmergencyStation/messageParser.c Pages: 1 -->
<svg width="1240pt" height="422pt"
 viewBox="0.00 0.00 1240.00 422.00" xmlns="http://www.w3.org/2000/svg" xmlns:xlink="http://www.w3.org/1999/xlink">
<g id="graph0" class="graph" transform="scale(1 1) rotate(0) translate(4 418)">
<title>rasPi&#45;EmergencyStation/messageParser.c</title>
<polygon fill="white" stroke="none" points="-4,4 -4,-418 1236,-418 1236,4 -4,4"/>
<!-- Node1 -->
<g id="node1" class="node"><title>Node1</title>
<polygon fill="#bfbfbf" stroke="black" points="660.089,-385.5 660.089,-413.5 783.911,-413.5 783.911,-385.5 660.089,-385.5"/>
<text text-anchor="start" x="668.089" y="-401.5" font-family="Helvetica,sans-Serif" font-size="10.00">rasPi&#45;EmergencyStation</text>
<text text-anchor="middle" x="722" y="-391.5" font-family="Helvetica,sans-Serif" font-size="10.00">/messageParser.c</text>
</g>
<!-- Node2 -->
<g id="node2" class="node"><title>Node2</title>
<g id="a_node2"><a xlink:href="message_parser_8h.html" target="_top" xlink:title="Message parser function headers. ">
<polygon fill="white" stroke="black" points="675.089,-330.5 675.089,-348.5 768.911,-348.5 768.911,-330.5 675.089,-330.5"/>
<text text-anchor="middle" x="722" y="-336.5" font-family="Helvetica,sans-Serif" font-size="10.00">messageParser.h</text>
</a>
</g>
</g>
<!-- Node1&#45;&gt;Node2 -->
<g id="edge1" class="edge"><title>Node1&#45;&gt;Node2</title>
<path fill="none" stroke="midnightblue" d="M722,-385.339C722,-377.531 722,-367.512 722,-358.927"/>
<polygon fill="midnightblue" stroke="midnightblue" points="725.5,-358.771 722,-348.771 718.5,-358.772 725.5,-358.771"/>
</g>
<!-- Node3 -->
<g id="node3" class="node"><title>Node3</title>
<polygon fill="white" stroke="#bfbfbf" points="737.269,-0.5 737.269,-18.5 782.731,-18.5 782.731,-0.5 737.269,-0.5"/>
<text text-anchor="middle" x="760" y="-6.5" font-family="Helvetica,sans-Serif" font-size="10.00">stdio.h</text>
</g>
<!-- Node2&#45;&gt;Node3 -->
<g id="edge2" class="edge"><title>Node2&#45;&gt;Node3</title>
<path fill="none" stroke="midnightblue" d="M674.986,-336.049C520.451,-327.375 38,-295.119 38,-230.5 38,-230.5 38,-230.5 38,-173.5 38,-30.2577 585.571,-12.8847 726.991,-10.7864"/>
<polygon fill="midnightblue" stroke="midnightblue" points="727.247,-14.2834 737.2,-10.6516 727.154,-7.28404 727.247,-14.2834"/>
</g>
<!-- Node4 -->
<g id="node4" class="node"><title>Node4</title>
<polygon fill="white" stroke="#bfbfbf" points="127.604,-110.5 127.604,-128.5 176.396,-128.5 176.396,-110.5 127.604,-110.5"/>
<text text-anchor="middle" x="152" y="-116.5" font-family="Helvetica,sans-Serif" font-size="10.00">string.h</text>
</g>
<!-- Node2&#45;&gt;Node4 -->
<g id="edge3" class="edge"><title>Node2&#45;&gt;Node4</title>
<path fill="none" stroke="midnightblue" d="M675.067,-337.412C612.359,-334.724 498.524,-325.496 407,-294 314.371,-262.124 293.866,-243.44 216,-184 197.042,-169.528 177.978,-149.787 165.651,-136.177"/>
<polygon fill="midnightblue" stroke="midnightblue" points="168.169,-133.741 158.907,-128.596 162.939,-138.394 168.169,-133.741"/>
</g>
<!-- Node5 -->
<g id="node5" class="node"><title>Node5</title>
<polygon fill="white" stroke="#bfbfbf" points="910.158,-110.5 910.158,-128.5 957.842,-128.5 957.842,-110.5 910.158,-110.5"/>
<text text-anchor="middle" x="934" y="-116.5" font-family="Helvetica,sans-Serif" font-size="10.00">stdlib.h</text>
</g>
<!-- Node2&#45;&gt;Node5 -->
<g id="edge4" class="edge"><title>Node2&#45;&gt;Node5</title>
<path fill="none" stroke="midnightblue" d="M759.108,-330.436C803.415,-318.652 875.813,-292.093 910,-239 930.013,-207.92 933.849,-163.522 934.294,-138.838"/>
<polygon fill="midnightblue" stroke="midnightblue" points="937.794,-138.728 934.301,-128.725 930.794,-138.723 937.794,-138.728"/>
</g>
<!-- Node6 -->
<g id="node6" class="node"><title>Node6</title>
<polygon fill="white" stroke="#bfbfbf" points="1122.87,-0.5 1122.87,-18.5 1181.13,-18.5 1181.13,-0.5 1122.87,-0.5"/>
<text text-anchor="middle" x="1152" y="-6.5" font-family="Helvetica,sans-Serif" font-size="10.00">pthread.h</text>
</g>
<!-- Node2&#45;&gt;Node6 -->
<g id="edge5" class="edge"><title>Node2&#45;&gt;Node6</title>
<path fill="none" stroke="midnightblue" d="M769.065,-338.46C895.32,-337.094 1232,-324.625 1232,-230.5 1232,-230.5 1232,-230.5 1232,-118.5 1232,-78.3915 1195.93,-43.4536 1172.23,-24.8253"/>
<polygon fill="midnightblue" stroke="midnightblue" points="1174.24,-21.9549 1164.15,-18.7208 1170.02,-27.5407 1174.24,-21.9549"/>
</g>
<!-- Node7 -->
<g id="node7" class="node"><title>Node7</title>
<polygon fill="white" stroke="#bfbfbf" points="379.537,-0.5 379.537,-18.5 444.463,-18.5 444.463,-0.5 379.537,-0.5"/>
<text text-anchor="middle" x="412" y="-6.5" font-family="Helvetica,sans-Serif" font-size="10.00">netinet/in.h</text>
</g>
<!-- Node2&#45;&gt;Node7 -->
<g id="edge6" class="edge"><title>Node2&#45;&gt;Node7</title>
<path fill="none" stroke="midnightblue" d="M674.696,-337.148C553.786,-333.335 235.805,-320.977 134,-294 70.2946,-277.119 0,-296.404 0,-230.5 0,-230.5 0,-230.5 0,-118.5 0,-42.8107 263.472,-19.111 369.027,-12.6533"/>
<polygon fill="midnightblue" stroke="midnightblue" points="369.549,-16.1288 379.327,-12.0476 369.138,-9.14084 369.549,-16.1288"/>
</g>
<!-- Node8 -->
<g id="node8" class="node"><title>Node8</title>
<polygon fill="white" stroke="#bfbfbf" points="630.372,-110.5 630.372,-128.5 693.628,-128.5 693.628,-110.5 630.372,-110.5"/>
<text text-anchor="middle" x="662" y="-116.5" font-family="Helvetica,sans-Serif" font-size="10.00">arpa/inet.h</text>
</g>
<!-- Node2&#45;&gt;Node8 -->
<g id="edge7" class="edge"><title>Node2&#45;&gt;Node8</title>
<path fill="none" stroke="midnightblue" d="M734.908,-330.439C746.031,-322.658 761.321,-309.754 768,-294 771.296,-286.225 770.747,-282.985 768,-275 751.315,-226.491 725.248,-226.82 697,-184 687.045,-168.91 677.245,-150.767 670.559,-137.746"/>
<polygon fill="midnightblue" stroke="midnightblue" points="673.551,-135.906 665.92,-128.556 667.302,-139.061 673.551,-135.906"/>
</g>
<!-- Node9 -->
<g id="node9" class="node"><title>Node9</title>
<polygon fill="white" stroke="#bfbfbf" points="271.49,-110.5 271.49,-128.5 342.51,-128.5 342.51,-110.5 271.49,-110.5"/>
<text text-anchor="middle" x="307" y="-116.5" font-family="Helvetica,sans-Serif" font-size="10.00">sys/socket.h</text>
</g>
<!-- Node2&#45;&gt;Node9 -->
<g id="edge8" class="edge"><title>Node2&#45;&gt;Node9</title>
<path fill="none" stroke="midnightblue" d="M674.787,-332.75C630.488,-326.424 562.872,-314.351 507,-294 458.607,-276.373 447.213,-268.508 405,-239 374.81,-217.896 366.175,-212.632 343,-184 331.55,-169.854 321.617,-151.596 315.103,-138.291"/>
<polygon fill="midnightblue" stroke="midnightblue" points="318.083,-136.404 310.648,-128.856 311.753,-139.393 318.083,-136.404"/>
</g>
<!-- Node10 -->
<g id="node10" class="node"><title>Node10</title>
<polygon fill="white" stroke="#bfbfbf" points="684.815,-275.5 684.815,-293.5 759.185,-293.5 759.185,-275.5 684.815,-275.5"/>
<text text-anchor="middle" x="722" y="-281.5" font-family="Helvetica,sans-Serif" font-size="10.00">semaphore.h</text>
</g>
<!-- Node2&#45;&gt;Node10 -->
<g id="edge9" class="edge"><title>Node2&#45;&gt;Node10</title>
<path fill="none" stroke="midnightblue" d="M722,-330.219C722,-323.177 722,-312.808 722,-303.828"/>
<polygon fill="midnightblue" stroke="midnightblue" points="725.5,-303.55 722,-293.55 718.5,-303.55 725.5,-303.55"/>
</g>
<!-- Node11 -->
<g id="node11" class="node"><title>Node11</title>
<polygon fill="white" stroke="#bfbfbf" points="202.488,-110.5 202.488,-128.5 253.512,-128.5 253.512,-110.5 202.488,-110.5"/>
<text text-anchor="middle" x="228" y="-116.5" font-family="Helvetica,sans-Serif" font-size="10.00">unistd.h</text>
</g>
<!-- Node2&#45;&gt;Node11 -->
<g id="edge10" class="edge"><title>Node2&#45;&gt;Node11</title>
<path fill="none" stroke="midnightblue" d="M674.917,-335.707C621.078,-331.352 530.963,-320.484 458,-294 370.582,-262.269 349.165,-246.168 280,-184 264.157,-169.76 249.084,-150.496 239.285,-136.932"/>
<polygon fill="midnightblue" stroke="midnightblue" points="242.022,-134.74 233.399,-128.584 236.301,-138.774 242.022,-134.74"/>
</g>
<!-- Node12 -->
<g id="node12" class="node"><title>Node12</title>
<g id="a_node12"><a xlink:href="structures_8h.html" target="_top" xlink:title="File containing all the structure definitions used in the other modules. ">
<polygon fill="white" stroke="black" points="787.879,-55.5 787.879,-73.5 856.121,-73.5 856.121,-55.5 787.879,-55.5"/>
<text text-anchor="middle" x="822" y="-61.5" font-family="Helvetica,sans-Serif" font-size="10.00">structures.h</text>
</a>
</g>
</g>
<!-- Node2&#45;&gt;Node12 -->
<g id="edge11" class="edge"><title>Node2&#45;&gt;Node12</title>
<path fill="none" stroke="midnightblue" d="M769.148,-332.477C809.943,-326.191 869.928,-314.341 919,-294 1018.65,-252.694 1061.29,-230.791 1097,-129 1099.8,-121.032 1102.47,-116.43 1097,-110 1067.93,-75.8452 936.625,-67.8227 866.49,-65.9946"/>
<polygon fill="midnightblue" stroke="midnightblue" points="866.272,-62.4888 856.195,-65.7594 866.112,-69.487 866.272,-62.4888"/>
</g>
<!-- Node13 -->
<g id="node13" class="node"><title>Node13</title>
<g id="a_node13"><a xlink:href="msg_buffers_8h.html" target="_top" xlink:title="File containing the headers of all functions related to the message mailboxes. ">
<polygon fill="white" stroke="black" points="1013.63,-110.5 1013.63,-128.5 1088.37,-128.5 1088.37,-110.5 1013.63,-110.5"/>
<text text-anchor="middle" x="1051" y="-116.5" font-family="Helvetica,sans-Serif" font-size="10.00">msgBuffers.h</text>
</a>
</g>
</g>
<!-- Node2&#45;&gt;Node13 -->
<g id="edge15" class="edge"><title>Node2&#45;&gt;Node13</title>
<path fill="none" stroke="midnightblue" d="M757.869,-330.48C788.29,-323.525 832.269,-311.747 868,-294 941.082,-257.701 964.634,-248.202 1015,-184 1025.84,-170.18 1033.12,-151.36 1039.05,-137.801"/>
<polygon fill="midnightblue" stroke="midnightblue" points="1042.28,-139.167 1043.36,-128.628 1035.94,-136.19 1042.28,-139.167"/>
</g>
<!-- Node15 -->
<g id="node15" class="node"><title>Node15</title>
<g id="a_node15"><a xlink:href="tcp_vehicle_socket_comm_8h.html" target="_top" xlink:title="Vehicle connection server&#39;s headers. ">
<polygon fill="white" stroke="black" points="537.027,-275.5 537.027,-293.5 666.973,-293.5 666.973,-275.5 537.027,-275.5"/>
<text text-anchor="middle" x="602" y="-281.5" font-family="Helvetica,sans-Serif" font-size="10.00">tcpVehicleSocketComm.h</text>
</a>
</g>
</g>
<!-- Node2&#45;&gt;Node15 -->
<g id="edge21" class="edge"><title>Node2&#45;&gt;Node15</title>
<path fill="none" stroke="midnightblue" d="M698.765,-330.45C677.296,-321.851 645.895,-308.105 624.631,-298.075"/>
<polygon fill="midnightblue" stroke="midnightblue" points="625.899,-294.802 615.37,-293.625 622.867,-301.111 625.899,-294.802"/>
</g>
<!-- Node17 -->
<g id="node17" class="node"><title>Node17</title>
<g id="a_node17"><a xlink:href="station_actions_8h.html" target="_top" xlink:title="FIle containing all the station action headers. ">
<polygon fill="white" stroke="black" points="814.702,-220.5 814.702,-238.5 901.298,-238.5 901.298,-220.5 814.702,-220.5"/>
<text text-anchor="middle" x="858" y="-226.5" font-family="Helvetica,sans-Serif" font-size="10.00">stationActions.h</text>
</a>
</g>
</g>
<!-- Node2&#45;&gt;Node17 -->
<g id="edge62" class="edge"><title>Node2&#45;&gt;Node17</title>
<path fill="none" stroke="midnightblue" d="M733.014,-330.469C747.7,-322.53 772.846,-309.367 792,-294 809.773,-279.741 826.766,-259.693 839.452,-245.96"/>
<polygon fill="midnightblue" stroke="midnightblue" points="842.016,-248.342 846.397,-238.696 836.957,-243.505 842.016,-248.342"/>
</g>
<!-- Node12&#45;&gt;Node3 -->
<g id="edge12" class="edge"><title>Node12&#45;&gt;Node3</title>
<path fill="none" stroke="midnightblue" d="M812.584,-55.4504C803.206,-47.4345 788.598,-34.9471 777.157,-25.1663"/>
<polygon fill="midnightblue" stroke="midnightblue" points="779.381,-22.4627 769.505,-18.6253 774.832,-27.7836 779.381,-22.4627"/>
</g>
<!-- Node12&#45;&gt;Node6 -->
<g id="edge13" class="edge"><title>Node12&#45;&gt;Node6</title>
<path fill="none" stroke="midnightblue" d="M856.382,-57.9781C918.121,-48.0624 1047.4,-27.3001 1112.6,-16.8277"/>
<polygon fill="midnightblue" stroke="midnightblue" points="1113.18,-20.2801 1122.5,-15.2385 1112.07,-13.3687 1113.18,-20.2801"/>
</g>
<!-- Node12&#45;&gt;Node7 -->
<g id="edge14" class="edge"><title>Node12&#45;&gt;Node7</title>
<path fill="none" stroke="midnightblue" d="M787.749,-59.0724C713.184,-49.4336 536.314,-26.5699 454.663,-16.015"/>
<polygon fill="midnightblue" stroke="midnightblue" points="455.091,-12.5412 444.724,-14.7302 454.193,-19.4834 455.091,-12.5412"/>
</g>
<!-- Node13&#45;&gt;Node2 -->
<g id="edge20" class="edge"><title>Node13&#45;&gt;Node2</title>
<path fill="none" stroke="midnightblue" d="M1054.68,-128.628C1054.6,-141.441 1046.61,-166.657 1033,-184 982.634,-248.202 959.082,-257.701 886,-294 852.369,-310.704 811.431,-322.12 778.78,-329.204"/>
<polygon fill="midnightblue" stroke="midnightblue" points="778.002,-325.791 768.93,-331.264 779.435,-332.642 778.002,-325.791"/>
</g>
<!-- Node13&#45;&gt;Node3 -->
<g id="edge16" class="edge"><title>Node13&#45;&gt;Node3</title>
<path fill="none" stroke="midnightblue" d="M1029.13,-110.382C978.023,-91.4158 850.634,-44.1372 791.313,-22.1213"/>
<polygon fill="midnightblue" stroke="midnightblue" points="792.322,-18.7626 781.729,-18.5644 789.886,-25.3252 792.322,-18.7626"/>
</g>
<!-- Node13&#45;&gt;Node6 -->
<g id="edge17" class="edge"><title>Node13&#45;&gt;Node6</title>
<path fill="none" stroke="midnightblue" d="M1058.59,-110.382C1075.33,-92.4786 1115.67,-49.3466 1137.46,-26.0507"/>
<polygon fill="midnightblue" stroke="midnightblue" points="1140.05,-28.4062 1144.32,-18.7118 1134.93,-23.6249 1140.05,-28.4062"/>
</g>
<!-- Node13&#45;&gt;Node12 -->
<g id="edge19" class="edge"><title>Node13&#45;&gt;Node12</title>
<path fill="none" stroke="midnightblue" d="M1016.22,-110.45C976.056,-101.155 909.913,-85.8468 866.153,-75.7188"/>
<polygon fill="midnightblue" stroke="midnightblue" points="866.889,-72.2967 856.357,-73.4517 865.31,-79.1164 866.889,-72.2967"/>
</g>
<!-- Node14 -->
<g id="node14" class="node"><title>Node14</title>
<polygon fill="white" stroke="#bfbfbf" points="1025.21,-55.5 1025.21,-73.5 1076.79,-73.5 1076.79,-55.5 1025.21,-55.5"/>
<text text-anchor="middle" x="1051" y="-61.5" font-family="Helvetica,sans-Serif" font-size="10.00">assert.h</text>
</g>
<!-- Node13&#45;&gt;Node14 -->
<g id="edge18" class="edge"><title>Node13&#45;&gt;Node14</title>
<path fill="none" stroke="midnightblue" d="M1051,-110.219C1051,-103.177 1051,-92.8083 1051,-83.8277"/>
<polygon fill="midnightblue" stroke="midnightblue" points="1054.5,-83.5495 1051,-73.5496 1047.5,-83.5496 1054.5,-83.5495"/>
</g>
<!-- Node15&#45;&gt;Node2 -->
<g id="edge32" class="edge"><title>Node15&#45;&gt;Node2</title>
<path fill="none" stroke="midnightblue" d="M625.424,-293.625C646.951,-302.255 678.351,-316.005 699.556,-326.013"/>
<polygon fill="midnightblue" stroke="midnightblue" points="698.255,-329.271 708.784,-330.45 701.289,-322.962 698.255,-329.271"/>
</g>
<!-- Node15&#45;&gt;Node3 -->
<g id="edge22" class="edge"><title>Node15&#45;&gt;Node3</title>
<path fill="none" stroke="midnightblue" d="M598.894,-275.452C595.679,-266.654 590.87,-252.067 589,-239 580.825,-181.862 569.779,-156.481 604,-110 635.858,-66.729 692.687,-37.5243 728.253,-22.4782"/>
<polygon fill="midnightblue" stroke="midnightblue" points="729.758,-25.6436 737.682,-18.61 727.101,-19.1674 729.758,-25.6436"/>
</g>
<!-- Node15&#45;&gt;Node4 -->
<g id="edge25" class="edge"><title>Node15&#45;&gt;Node4</title>
<path fill="none" stroke="midnightblue" d="M536.861,-277.101C488.161,-270.945 420.522,-259.458 364,-239 288.661,-211.732 208.362,-159.656 171.975,-134.623"/>
<polygon fill="midnightblue" stroke="midnightblue" points="173.516,-131.432 163.307,-128.597 169.52,-137.179 173.516,-131.432"/>
</g>
<!-- Node15&#45;&gt;Node5 -->
<g id="edge23" class="edge"><title>Node15&#45;&gt;Node5</title>
<path fill="none" stroke="midnightblue" d="M618.739,-275.359C643.895,-263.158 692.984,-239.481 735,-220 770.373,-203.599 780.003,-201.188 815,-184 848.622,-167.488 886.689,-146.818 910.518,-133.634"/>
<polygon fill="midnightblue" stroke="midnightblue" points="912.465,-136.556 919.508,-128.641 909.066,-130.436 912.465,-136.556"/>
</g>
<!-- Node15&#45;&gt;Node7 -->
<g id="edge26" class="edge"><title>Node15&#45;&gt;Node7</title>
<path fill="none" stroke="midnightblue" d="M536.82,-279.702C478.052,-274.794 389.922,-263.715 317,-239 268.592,-222.593 260.678,-208.829 216,-184 172.681,-159.926 143.946,-171.823 119,-129 63.4926,-33.7173 275.7,-15.0059 369.504,-11.3643"/>
<polygon fill="midnightblue" stroke="midnightblue" points="369.661,-14.8611 379.534,-11.0151 369.418,-7.8653 369.661,-14.8611"/>
</g>
<!-- Node15&#45;&gt;Node8 -->
<g id="edge27" class="edge"><title>Node15&#45;&gt;Node8</title>
<path fill="none" stroke="midnightblue" d="M605.058,-275.193C614.367,-249.903 642.508,-173.453 655.409,-138.405"/>
<polygon fill="midnightblue" stroke="midnightblue" points="658.85,-139.191 659.019,-128.597 652.28,-136.772 658.85,-139.191"/>
</g>
<!-- Node15&#45;&gt;Node9 -->
<g id="edge28" class="edge"><title>Node15&#45;&gt;Node9</title>
<path fill="none" stroke="midnightblue" d="M547.16,-275.466C513.816,-268.978 471.215,-257.749 437,-239 387.409,-211.825 341.544,-161.965 319.96,-136.454"/>
<polygon fill="midnightblue" stroke="midnightblue" points="322.454,-133.979 313.372,-128.523 317.069,-138.452 322.454,-133.979"/>
</g>
<!-- Node15&#45;&gt;Node11 -->
<g id="edge24" class="edge"><title>Node15&#45;&gt;Node11</title>
<path fill="none" stroke="midnightblue" d="M539.83,-275.458C500.116,-268.881 448.164,-257.558 405,-239 340.994,-211.48 275.332,-160.285 245.118,-135.167"/>
<polygon fill="midnightblue" stroke="midnightblue" points="247.147,-132.3 237.242,-128.539 242.64,-137.656 247.147,-132.3"/>
</g>
<!-- Node15&#45;&gt;Node12 -->
<g id="edge30" class="edge"><title>Node15&#45;&gt;Node12</title>
<path fill="none" stroke="midnightblue" d="M599.959,-275.307C593.667,-247.912 577.506,-158.504 621,-110 641.468,-87.1741 724.776,-74.9566 777.504,-69.3803"/>
<polygon fill="midnightblue" stroke="midnightblue" points="778.02,-72.846 787.615,-68.3524 777.312,-65.8819 778.02,-72.846"/>
</g>
<!-- Node15&#45;&gt;Node13 -->
<g id="edge31" class="edge"><title>Node15&#45;&gt;Node13</title>
<path fill="none" stroke="midnightblue" d="M625.639,-275.433C651.362,-266.619 693.678,-252.017 730,-239 836.829,-200.716 962.967,-153.583 1020.11,-132.126"/>
<polygon fill="midnightblue" stroke="midnightblue" points="1021.51,-135.339 1029.64,-128.546 1019.05,-128.787 1021.51,-135.339"/>
</g>
<!-- Node16 -->
<g id="node16" class="node"><title>Node16</title>
<polygon fill="white" stroke="#bfbfbf" points="360.318,-110.5 360.318,-128.5 409.682,-128.5 409.682,-110.5 360.318,-110.5"/>
<text text-anchor="middle" x="385" y="-116.5" font-family="Helvetica,sans-Serif" font-size="10.00">netdb.h</text>
</g>
<!-- Node15&#45;&gt;Node16 -->
<g id="edge29" class="edge"><title>Node15&#45;&gt;Node16</title>
<path fill="none" stroke="midnightblue" d="M563.843,-275.434C517.561,-263.595 440.59,-236.926 399,-184 388.973,-171.24 385.793,-152.788 384.931,-139.06"/>
<polygon fill="midnightblue" stroke="midnightblue" points="388.425,-138.769 384.654,-128.868 381.427,-138.959 388.425,-138.769"/>
</g>
<!-- Node15&#45;&gt;Node17 -->
<g id="edge33" class="edge"><title>Node15&#45;&gt;Node17</title>
<path fill="none" stroke="midnightblue" d="M635.872,-275.45C679.06,-266.057 753.959,-250.524 804.779,-240.401"/>
<polygon fill="midnightblue" stroke="midnightblue" points="805.478,-243.83 814.606,-238.452 804.116,-236.964 805.478,-243.83"/>
</g>
<!-- Node17&#45;&gt;Node2 -->
<g id="edge39" class="edge"><title>Node17&#45;&gt;Node2</title>
<path fill="none" stroke="midnightblue" d="M857.713,-238.696C851.406,-251.601 831.261,-276.942 810,-294 793.839,-306.966 773.412,-318.363 756.155,-326.377"/>
<polygon fill="midnightblue" stroke="midnightblue" points="754.66,-323.211 746.941,-330.469 757.501,-329.608 754.66,-323.211"/>
</g>
<!-- Node17&#45;&gt;Node3 -->
<g id="edge34" class="edge"><title>Node17&#45;&gt;Node3</title>
<path fill="none" stroke="midnightblue" d="M901.568,-221.558C936.028,-214.966 984.713,-203.162 1024,-184 1060.51,-166.192 1078.87,-165.354 1097,-129 1106.44,-110.063 1097.55,-65.8601 1086,-55 1044.25,-15.7505 867.705,-10.6896 793.292,-10.3364"/>
<polygon fill="midnightblue" stroke="midnightblue" points="793.09,-6.83608 783.083,-10.315 793.075,-13.8361 793.09,-6.83608"/>
</g>
<!-- Node17&#45;&gt;Node5 -->
<g id="edge35" class="edge"><title>Node17&#45;&gt;Node5</title>
<path fill="none" stroke="midnightblue" d="M863.712,-220.382C876.146,-202.713 905.871,-160.472 922.406,-136.976"/>
<polygon fill="midnightblue" stroke="midnightblue" points="925.329,-138.904 928.221,-128.712 919.604,-134.876 925.329,-138.904"/>
</g>
<!-- Node17&#45;&gt;Node6 -->
<g id="edge36" class="edge"><title>Node17&#45;&gt;Node6</title>
<path fill="none" stroke="midnightblue" d="M901.699,-226.005C944.211,-221.981 1009.46,-211.468 1059,-184 1088.96,-167.39 1095.18,-158.257 1113,-129 1132.84,-96.4246 1143.84,-52.5888 1148.77,-28.4014"/>
<polygon fill="midnightblue" stroke="midnightblue" points="1152.22,-28.9913 1150.67,-18.5108 1145.35,-27.672 1152.22,-28.9913"/>
</g>
<!-- Node17&#45;&gt;Node11 -->
<g id="edge37" class="edge"><title>Node17&#45;&gt;Node11</title>
<path fill="none" stroke="midnightblue" d="M814.691,-228.015C732.567,-226.282 549,-218.506 399,-184 346.139,-171.84 287.465,-147.526 254.419,-132.765"/>
<polygon fill="midnightblue" stroke="midnightblue" points="255.575,-129.446 245.022,-128.515 252.691,-135.824 255.575,-129.446"/>
</g>
<!-- Node17&#45;&gt;Node12 -->
<g id="edge38" class="edge"><title>Node17&#45;&gt;Node12</title>
<path fill="none" stroke="midnightblue" d="M876.136,-220.423C915.01,-201.996 1000.23,-154.957 967,-110 954.859,-93.5742 904.183,-80.7144 866.136,-73.1308"/>
<polygon fill="midnightblue" stroke="midnightblue" points="866.757,-69.6862 856.275,-71.2254 865.429,-76.5591 866.757,-69.6862"/>
</g>
<!-- Node17&#45;&gt;Node13 -->
<g id="edge40" class="edge"><title>Node17&#45;&gt;Node13</title>
<path fill="none" stroke="midnightblue" d="M901.605,-221.73C931.308,-215.542 970.446,-204.172 1000,-184 1017.65,-171.954 1032.23,-152.001 1041.22,-137.674"/>
<polygon fill="midnightblue" stroke="midnightblue" points="1044.39,-139.2 1046.52,-128.821 1038.38,-135.606 1044.39,-139.2"/>
</g>
<!-- Node17&#45;&gt;Node15 -->
<g id="edge53" class="edge"><title>Node17&#45;&gt;Node15</title>
<path fill="none" stroke="midnightblue" d="M824.18,-238.538C781.142,-247.9 706.554,-263.37 655.723,-273.499"/>
<polygon fill="midnightblue" stroke="midnightblue" points="655.018,-270.071 645.89,-275.45 656.38,-276.937 655.018,-270.071"/>
</g>
<!-- Node18 -->
<g id="node18" class="node"><title>Node18</title>
<g id="a_node18"><a xlink:href="tcp_server_socket_comm_8h.html" target="_top" xlink:title="Server connection related function definitions. ">
<polygon fill="white" stroke="black" points="408.426,-165.5 408.426,-183.5 535.574,-183.5 535.574,-165.5 408.426,-165.5"/>
<text text-anchor="middle" x="472" y="-171.5" font-family="Helvetica,sans-Serif" font-size="10.00">tcpServerSocketComm.h</text>
</a>
</g>
</g>
<!-- Node17&#45;&gt;Node18 -->
<g id="edge41" class="edge"><title>Node17&#45;&gt;Node18</title>
<path fill="none" stroke="midnightblue" d="M814.471,-222.523C747.862,-213.377 620.051,-195.828 540.804,-184.947"/>
<polygon fill="midnightblue" stroke="midnightblue" points="540.817,-181.416 530.433,-183.523 539.864,-188.351 540.817,-181.416"/>
</g>
<!-- Node19 -->
<g id="node19" class="node"><title>Node19</title>
<g id="a_node19"><a xlink:href="mcast_messaging_8h.html" target="_top" xlink:title="FIle containing all the headers of the functions related to multicast communication. ">
<polygon fill="white" stroke="black" points="706.315,-165.5 706.315,-183.5 805.685,-183.5 805.685,-165.5 706.315,-165.5"/>
<text text-anchor="middle" x="756" y="-171.5" font-family="Helvetica,sans-Serif" font-size="10.00">mcastMessaging.h</text>
</a>
</g>
</g>
<!-- Node17&#45;&gt;Node19 -->
<g id="edge54" class="edge"><title>Node17&#45;&gt;Node19</title>
<path fill="none" stroke="midnightblue" d="M842.508,-220.45C826.108,-211.929 799.982,-198.353 780.728,-188.349"/>
<polygon fill="midnightblue" stroke="midnightblue" points="782.125,-185.13 771.637,-183.625 778.897,-191.342 782.125,-185.13"/>
</g>
<!-- Node18&#45;&gt;Node2 -->
<g id="edge52" class="edge"><title>Node18&#45;&gt;Node2</title>
<path fill="none" stroke="midnightblue" d="M473.336,-183.618C477.336,-205.22 491.298,-264.478 528,-294 566.556,-325.013 622.676,-335.255 664.649,-338.259"/>
<polygon fill="midnightblue" stroke="midnightblue" points="664.534,-341.758 674.725,-338.862 664.952,-334.771 664.534,-341.758"/>
</g>
<!-- Node18&#45;&gt;Node3 -->
<g id="edge42" class="edge"><title>Node18&#45;&gt;Node3</title>
<path fill="none" stroke="midnightblue" d="M475.264,-165.454C480.956,-152.3 493.845,-126.053 512,-110 575.889,-53.5059 675.907,-26.8395 727.22,-16.2946"/>
<polygon fill="midnightblue" stroke="midnightblue" points="727.973,-19.7136 737.104,-14.3403 726.615,-12.8465 727.973,-19.7136"/>
</g>
<!-- Node18&#45;&gt;Node4 -->
<g id="edge45" class="edge"><title>Node18&#45;&gt;Node4</title>
<path fill="none" stroke="midnightblue" d="M416.816,-165.468C360.44,-157.082 270.435,-143.194 193,-129 190.933,-128.621 188.81,-128.219 186.67,-127.805"/>
<polygon fill="midnightblue" stroke="midnightblue" points="187.172,-124.336 176.68,-125.809 185.801,-131.2 187.172,-124.336"/>
</g>
<!-- Node18&#45;&gt;Node5 -->
<g id="edge43" class="edge"><title>Node18&#45;&gt;Node5</title>
<path fill="none" stroke="midnightblue" d="M535.653,-169.865C617.733,-164.519 764.984,-152.696 899.841,-128.944"/>
<polygon fill="midnightblue" stroke="midnightblue" points="900.713,-132.343 909.941,-127.138 899.481,-125.453 900.713,-132.343"/>
</g>
<!-- Node18&#45;&gt;Node7 -->
<g id="edge46" class="edge"><title>Node18&#45;&gt;Node7</title>
<path fill="none" stroke="midnightblue" d="M468.942,-165.193C459.633,-139.903 431.492,-63.4535 418.591,-28.4046"/>
<polygon fill="midnightblue" stroke="midnightblue" points="421.72,-26.7725 414.981,-18.5971 415.15,-29.1906 421.72,-26.7725"/>
</g>
<!-- Node18&#45;&gt;Node8 -->
<g id="edge47" class="edge"><title>Node18&#45;&gt;Node8</title>
<path fill="none" stroke="midnightblue" d="M500.857,-165.45C533.594,-156.318 587.135,-141.383 623.434,-131.258"/>
<polygon fill="midnightblue" stroke="midnightblue" points="624.492,-134.597 633.183,-128.538 622.611,-127.854 624.492,-134.597"/>
</g>
<!-- Node18&#45;&gt;Node9 -->
<g id="edge48" class="edge"><title>Node18&#45;&gt;Node9</title>
<path fill="none" stroke="midnightblue" d="M446.94,-165.45C418.875,-156.436 373.203,-141.765 341.711,-131.65"/>
<polygon fill="midnightblue" stroke="midnightblue" points="342.616,-128.264 332.025,-128.538 340.475,-134.929 342.616,-128.264"/>
</g>
<!-- Node18&#45;&gt;Node11 -->
<g id="edge44" class="edge"><title>Node18&#45;&gt;Node11</title>
<path fill="none" stroke="midnightblue" d="M432.038,-165.48C391.785,-157.302 327.655,-144.002 263.477,-129.282"/>
<polygon fill="midnightblue" stroke="midnightblue" points="264.127,-125.84 253.596,-127.004 262.554,-132.661 264.127,-125.84"/>
</g>
<!-- Node18&#45;&gt;Node12 -->
<g id="edge50" class="edge"><title>Node18&#45;&gt;Node12</title>
<path fill="none" stroke="midnightblue" d="M483.931,-165.307C504.32,-151.696 547.588,-124.495 588,-110 651.825,-87.107 729.887,-75.2842 777.764,-69.7424"/>
<polygon fill="midnightblue" stroke="midnightblue" points="778.248,-73.2101 787.798,-68.622 777.472,-66.2534 778.248,-73.2101"/>
</g>
<!-- Node18&#45;&gt;Node13 -->
<g id="edge51" class="edge"><title>Node18&#45;&gt;Node13</title>
<path fill="none" stroke="midnightblue" d="M535.705,-168.002C629.976,-159.815 812.178,-143.792 967,-129 978.737,-127.879 991.391,-126.623 1003.23,-125.428"/>
<polygon fill="midnightblue" stroke="midnightblue" points="1003.78,-128.89 1013.38,-124.398 1003.07,-121.925 1003.78,-128.89"/>
</g>
<!-- Node18&#45;&gt;Node16 -->
<g id="edge49" class="edge"><title>Node18&#45;&gt;Node16</title>
<path fill="none" stroke="midnightblue" d="M458.787,-165.45C445.117,-157.123 423.527,-143.97 407.225,-134.039"/>
<polygon fill="midnightblue" stroke="midnightblue" points="408.699,-130.839 398.338,-128.625 405.057,-136.817 408.699,-130.839"/>
</g>
<!-- Node19&#45;&gt;Node3 -->
<g id="edge55" class="edge"><title>Node19&#45;&gt;Node3</title>
<path fill="none" stroke="midnightblue" d="M756.204,-165.193C756.822,-140.013 758.684,-64.1144 759.549,-28.8621"/>
<polygon fill="midnightblue" stroke="midnightblue" points="763.055,-28.68 759.801,-18.5971 756.057,-28.5082 763.055,-28.68"/>
</g>
<!-- Node19&#45;&gt;Node7 -->
<g id="edge58" class="edge"><title>Node19&#45;&gt;Node7</title>
<path fill="none" stroke="midnightblue" d="M751.215,-165.248C743.014,-151.797 725.008,-125.133 703,-110 624.605,-56.0933 514.356,-29.0235 454.58,-17.5482"/>
<polygon fill="midnightblue" stroke="midnightblue" points="455.2,-14.1036 444.728,-15.711 453.917,-20.985 455.2,-14.1036"/>
</g>
<!-- Node19&#45;&gt;Node8 -->
<g id="edge59" class="edge"><title>Node19&#45;&gt;Node8</title>
<path fill="none" stroke="midnightblue" d="M741.723,-165.45C726.816,-157.045 703.19,-143.724 685.521,-133.762"/>
<polygon fill="midnightblue" stroke="midnightblue" points="686.841,-130.488 676.411,-128.625 683.403,-136.586 686.841,-130.488"/>
</g>
<!-- Node19&#45;&gt;Node9 -->
<g id="edge57" class="edge"><title>Node19&#45;&gt;Node9</title>
<path fill="none" stroke="midnightblue" d="M706.266,-169.349C631.574,-162.827 485.806,-148.98 352.927,-129.194"/>
<polygon fill="midnightblue" stroke="midnightblue" points="353.387,-125.724 342.977,-127.697 352.345,-132.646 353.387,-125.724"/>
</g>
<!-- Node19&#45;&gt;Node12 -->
<g id="edge60" class="edge"><title>Node19&#45;&gt;Node12</title>
<path fill="none" stroke="midnightblue" d="M760.961,-165.382C771.711,-147.791 797.344,-105.846 811.74,-82.2894"/>
<polygon fill="midnightblue" stroke="midnightblue" points="814.754,-84.0697 816.982,-73.7118 808.781,-80.4195 814.754,-84.0697"/>
</g>
<!-- Node19&#45;&gt;Node13 -->
<g id="edge61" class="edge"><title>Node19&#45;&gt;Node13</title>
<path fill="none" stroke="midnightblue" d="M800.804,-165.45C855.43,-155.636 947.362,-139.12 1003.28,-129.074"/>
<polygon fill="midnightblue" stroke="midnightblue" points="1004.06,-132.49 1013.28,-127.276 1002.82,-125.6 1004.06,-132.49"/>
</g>
<!-- Node20 -->
<g id="node20" class="node"><title>Node20</title>
<polygon fill="white" stroke="#bfbfbf" points="825.99,-110.5 825.99,-128.5 892.01,-128.5 892.01,-110.5 825.99,-110.5"/>
<text text-anchor="middle" x="859" y="-116.5" font-family="Helvetica,sans-Serif" font-size="10.00">sys/types.h</text>
</g>
<!-- Node19&#45;&gt;Node20 -->
<g id="edge56" class="edge"><title>Node19&#45;&gt;Node20</title>
<path fill="none" stroke="midnightblue" d="M771.643,-165.45C788.28,-156.89 814.828,-143.229 834.296,-133.212"/>
<polygon fill="midnightblue" stroke="midnightblue" points="835.919,-136.313 843.209,-128.625 832.716,-130.089 835.919,-136.313"/>
</g>
</g>
</svg>
