<?xml version="1.0" encoding="UTF-8" standalone="no"?>
<!DOCTYPE svg PUBLIC "-//W3C//DTD SVG 1.1//EN"
 "http://www.w3.org/Graphics/SVG/1.1/DTD/svg11.dtd">
<!-- Generated by graphviz version 2.38.0 (20140413.2041)
 -->
<!-- Title: MP_parseMessage Pages: 1 -->
<svg width="1089pt" height="429pt"
 viewBox="0.00 0.00 1088.68 428.79" xmlns="http://www.w3.org/2000/svg" xmlns:xlink="http://www.w3.org/1999/xlink">
<g id="graph0" class="graph" transform="scale(1 1) rotate(0) translate(4 424.795)">
<title>MP_parseMessage</title>
<polygon fill="white" stroke="none" points="-4,4 -4,-424.795 1084.68,-424.795 1084.68,4 -4,4"/>
<!-- Node1 -->
<g id="node1" class="node"><title>Node1</title>
<polygon fill="#bfbfbf" stroke="black" points="0,-205.5 0,-223.5 102.152,-223.5 102.152,-205.5 0,-205.5"/>
<text text-anchor="middle" x="51.0762" y="-211.5" font-family="Helvetica,sans-Serif" font-size="10.00">MP_parseMessage</text>
</g>
<!-- Node2 -->
<g id="node2" class="node"><title>Node2</title>
<g id="a_node2"><a xlink:href="station_actions_8c.html#a5e1c0855b4fc05bdfb48c63ee97d728e" target="_top" xlink:title="Function to treat the route messages sent by the server. ">
<polygon fill="white" stroke="black" points="138.99,-372.5 138.99,-390.5 261.162,-390.5 261.162,-372.5 138.99,-372.5"/>
<text text-anchor="middle" x="200.076" y="-378.5" font-family="Helvetica,sans-Serif" font-size="10.00">SA_treatRouteMessage</text>
</a>
</g>
</g>
<!-- Node1&#45;&gt;Node2 -->
<g id="edge1" class="edge"><title>Node1&#45;&gt;Node2</title>
<path fill="none" stroke="midnightblue" d="M54.7548,-223.816C62.7698,-250.004 89.1008,-324.869 138.152,-363.5 140.199,-365.112 142.387,-366.58 144.673,-367.917"/>
<polygon fill="midnightblue" stroke="midnightblue" points="143.363,-371.172 153.88,-372.448 146.453,-364.892 143.363,-371.172"/>
</g>
<!-- Node3 -->
<g id="node3" class="node"><title>Node3</title>
<g id="a_node3"><a xlink:href="station_actions_8c.html#a78fa797ba2873bacdac3f25506fdca3b" target="_top" xlink:title="Search a vehicle by ID. ">
<polygon fill="white" stroke="black" points="309.115,-372.5 309.115,-390.5 426.292,-390.5 426.292,-372.5 309.115,-372.5"/>
<text text-anchor="middle" x="367.703" y="-378.5" font-family="Helvetica,sans-Serif" font-size="10.00">SA_searchVehicleById</text>
</a>
</g>
</g>
<!-- Node1&#45;&gt;Node3 -->
<g id="edge19" class="edge"><title>Node1&#45;&gt;Node3</title>
<path fill="none" stroke="midnightblue" d="M52.9807,-223.673C56.6359,-255.15 73.392,-359.111 138.152,-400.5 200.039,-440.053 291.406,-412.74 337.636,-394.387"/>
<polygon fill="midnightblue" stroke="midnightblue" points="339.131,-397.556 347.053,-390.522 336.473,-391.081 339.131,-397.556"/>
</g>
<!-- Node6 -->
<g id="node6" class="node"><title>Node6</title>
<g id="a_node6"><a xlink:href="station_actions_8c.html#abec412b1329832ff70968ddd70b18f3e" target="_top" xlink:title="Function to treat the Alert messages coming from the server. ">
<polygon fill="white" stroke="black" points="142.051,-261.5 142.051,-279.5 258.1,-279.5 258.1,-261.5 142.051,-261.5"/>
<text text-anchor="middle" x="200.076" y="-267.5" font-family="Helvetica,sans-Serif" font-size="10.00">SA_treatAlertMessage</text>
</a>
</g>
</g>
<!-- Node1&#45;&gt;Node6 -->
<g id="edge5" class="edge"><title>Node1&#45;&gt;Node6</title>
<path fill="none" stroke="midnightblue" d="M70.5983,-223.506C87.8403,-231.691 114.381,-243.782 138.152,-252.5 143.791,-254.568 149.787,-256.57 155.734,-258.442"/>
<polygon fill="midnightblue" stroke="midnightblue" points="155.037,-261.888 165.623,-261.456 157.078,-255.192 155.037,-261.888"/>
</g>
<!-- Node7 -->
<g id="node7" class="node"><title>Node7</title>
<g id="a_node7"><a xlink:href="station_actions_8c.html#a2194e68556b58027350c53533996f78a" target="_top" xlink:title="Function to treat the ID Assign messages. ">
<polygon fill="white" stroke="black" points="152.613,-113.5 152.613,-131.5 247.539,-131.5 247.539,-113.5 152.613,-113.5"/>
<text text-anchor="middle" x="200.076" y="-119.5" font-family="Helvetica,sans-Serif" font-size="10.00">SA_treatIDAssign</text>
</a>
</g>
</g>
<!-- Node1&#45;&gt;Node7 -->
<g id="edge7" class="edge"><title>Node1&#45;&gt;Node7</title>
<path fill="none" stroke="midnightblue" d="M60.7009,-205.05C75.2494,-189.641 106.218,-159.064 138.152,-141.5 142.589,-139.06 147.384,-136.885 152.266,-134.959"/>
<polygon fill="midnightblue" stroke="midnightblue" points="153.476,-138.244 161.695,-131.558 151.1,-131.659 153.476,-138.244"/>
</g>
<!-- Node9 -->
<g id="node9" class="node"><title>Node9</title>
<g id="a_node9"><a xlink:href="station_actions_8c.html#a1e710f6898a01da9a953e7fed354c358" target="_top" xlink:title="Function to treat the initial vehicle list message. ">
<polygon fill="white" stroke="black" points="144.551,-37.5 144.551,-55.5 255.6,-55.5 255.6,-37.5 144.551,-37.5"/>
<text text-anchor="middle" x="200.076" y="-43.5" font-family="Helvetica,sans-Serif" font-size="10.00">SA_treatListMessage</text>
</a>
</g>
</g>
<!-- Node1&#45;&gt;Node9 -->
<g id="edge10" class="edge"><title>Node1&#45;&gt;Node9</title>
<path fill="none" stroke="midnightblue" d="M55.1478,-205.345C64.0063,-180.261 91.9596,-109.697 138.152,-70.5 143.158,-66.2524 149.006,-62.6998 155.061,-59.7449"/>
<polygon fill="midnightblue" stroke="midnightblue" points="156.876,-62.7724 164.655,-55.5794 154.088,-56.3514 156.876,-62.7724"/>
</g>
<!-- Node10 -->
<g id="node10" class="node"><title>Node10</title>
<g id="a_node10"><a xlink:href="station_actions_8c.html#adef80b5aef5924633f2ef4b37eecc820" target="_top" xlink:title="Add a new vehicle to the vehicle list. ">
<polygon fill="white" stroke="black" points="312.723,-56.5 312.723,-74.5 422.683,-74.5 422.683,-56.5 312.723,-56.5"/>
<text text-anchor="middle" x="367.703" y="-62.5" font-family="Helvetica,sans-Serif" font-size="10.00">SA_addVehicleToList</text>
</a>
</g>
</g>
<!-- Node1&#45;&gt;Node10 -->
<g id="edge20" class="edge"><title>Node1&#45;&gt;Node10</title>
<path fill="none" stroke="midnightblue" d="M56.3351,-205.232C66.8131,-183.576 96.0865,-129.596 138.152,-104.5 188.013,-74.7532 254.244,-66.1463 302.568,-64.3008"/>
<polygon fill="midnightblue" stroke="midnightblue" points="302.703,-67.7984 312.596,-64.0044 302.497,-60.8015 302.703,-67.7984"/>
</g>
<!-- Node17 -->
<g id="node17" class="node"><title>Node17</title>
<g id="a_node17"><a xlink:href="station_actions_8c.html#a2be0d823bd5a676ce32b74e8f1b12dc2" target="_top" xlink:title="Send the vehicle connected message to the server. ">
<polygon fill="white" stroke="black" points="138.152,-298.5 138.152,-316.5 261.999,-316.5 261.999,-298.5 138.152,-298.5"/>
<text text-anchor="middle" x="200.076" y="-304.5" font-family="Helvetica,sans-Serif" font-size="10.00">SA_sendConnectedMsg</text>
</a>
</g>
</g>
<!-- Node1&#45;&gt;Node17 -->
<g id="edge21" class="edge"><title>Node1&#45;&gt;Node17</title>
<path fill="none" stroke="midnightblue" d="M60.1553,-223.769C74.3775,-239.526 105.487,-271.569 138.152,-289.5 141.85,-291.53 145.803,-293.355 149.853,-294.991"/>
<polygon fill="midnightblue" stroke="midnightblue" points="148.807,-298.336 159.401,-298.474 151.206,-291.759 148.807,-298.336"/>
</g>
<!-- Node18 -->
<g id="node18" class="node"><title>Node18</title>
<g id="a_node18"><a xlink:href="station_actions_8c.html#afbf777498692d2ce2582ab9228b11063" target="_top" xlink:title="Send the Join multicast group message to the vehicle. ">
<polygon fill="white" stroke="black" points="142.322,-335.5 142.322,-353.5 257.829,-353.5 257.829,-335.5 142.322,-335.5"/>
<text text-anchor="middle" x="200.076" y="-341.5" font-family="Helvetica,sans-Serif" font-size="10.00">SA_sendJoinMessage</text>
</a>
</g>
</g>
<!-- Node1&#45;&gt;Node18 -->
<g id="edge24" class="edge"><title>Node1&#45;&gt;Node18</title>
<path fill="none" stroke="midnightblue" d="M56.498,-223.606C67.3279,-244.942 97.3067,-298.471 138.152,-326.5 140.835,-328.341 143.708,-329.996 146.693,-331.485"/>
<polygon fill="midnightblue" stroke="midnightblue" points="145.333,-334.71 155.9,-335.468 148.112,-328.286 145.333,-334.71"/>
</g>
<!-- Node19 -->
<g id="node19" class="node"><title>Node19</title>
<g id="a_node19"><a xlink:href="station_actions_8c.html#a6aebd614595a0cd43b4f3dae79904502" target="_top" xlink:title="SA_treatIDMessage">
<polygon fill="white" stroke="black" points="147.332,-0.5 147.332,-18.5 252.819,-18.5 252.819,-0.5 147.332,-0.5"/>
<text text-anchor="middle" x="200.076" y="-6.5" font-family="Helvetica,sans-Serif" font-size="10.00">SA_treatIDMessage</text>
</a>
</g>
</g>
<!-- Node1&#45;&gt;Node19 -->
<g id="edge28" class="edge"><title>Node1&#45;&gt;Node19</title>
<path fill="none" stroke="midnightblue" d="M53.6433,-205.177C59.2164,-174.947 80.8979,-78.6997 138.152,-28.5 140.378,-26.5484 142.803,-24.7972 145.361,-23.2258"/>
<polygon fill="midnightblue" stroke="midnightblue" points="147.179,-26.2271 154.476,-18.5462 143.982,-19.9998 147.179,-26.2271"/>
</g>
<!-- Node20 -->
<g id="node20" class="node"><title>Node20</title>
<g id="a_node20"><a xlink:href="station_actions_8c.html#a508d1d36f16f6dee4c28344426c929f0" target="_top" xlink:title="Function to treat the ID Request Messages. ">
<polygon fill="white" stroke="black" points="138.16,-224.5 138.16,-242.5 261.992,-242.5 261.992,-224.5 138.16,-224.5"/>
<text text-anchor="middle" x="200.076" y="-230.5" font-family="Helvetica,sans-Serif" font-size="10.00">SA_treatIDReqMessage</text>
</a>
</g>
</g>
<!-- Node1&#45;&gt;Node20 -->
<g id="edge29" class="edge"><title>Node1&#45;&gt;Node20</title>
<path fill="none" stroke="midnightblue" d="M102.254,-220.986C110.504,-222.052 119.191,-223.175 127.836,-224.292"/>
<polygon fill="midnightblue" stroke="midnightblue" points="127.571,-227.787 137.937,-225.598 128.468,-220.845 127.571,-227.787"/>
</g>
<!-- Node21 -->
<g id="node21" class="node"><title>Node21</title>
<g id="a_node21"><a xlink:href="station_actions_8c.html#a1e0a9c39b59131a6b19a9d44544543ab" target="_top" xlink:title="Function to treat the Location messages. ">
<polygon fill="white" stroke="black" points="142.051,-187.5 142.051,-205.5 258.1,-205.5 258.1,-187.5 142.051,-187.5"/>
<text text-anchor="middle" x="200.076" y="-193.5" font-family="Helvetica,sans-Serif" font-size="10.00">SA_treatLOCMessage</text>
</a>
</g>
</g>
<!-- Node1&#45;&gt;Node21 -->
<g id="edge31" class="edge"><title>Node1&#45;&gt;Node21</title>
<path fill="none" stroke="midnightblue" d="M102.254,-208.356C111.86,-207.179 122.06,-205.931 132.096,-204.702"/>
<polygon fill="midnightblue" stroke="midnightblue" points="132.549,-208.172 142.05,-203.483 131.698,-201.224 132.549,-208.172"/>
</g>
<!-- Node22 -->
<g id="node22" class="node"><title>Node22</title>
<g id="a_node22"><a xlink:href="station_actions_8c.html#a5db92a163307a895ded7d4c6d9627c3f" target="_top" xlink:title="Function to treat the Status messages coming from the vehicle. ">
<polygon fill="white" stroke="black" points="138.157,-150.5 138.157,-168.5 261.994,-168.5 261.994,-150.5 138.157,-150.5"/>
<text text-anchor="middle" x="200.076" y="-156.5" font-family="Helvetica,sans-Serif" font-size="10.00">SA_treatStatusMessage</text>
</a>
</g>
</g>
<!-- Node1&#45;&gt;Node22 -->
<g id="edge33" class="edge"><title>Node1&#45;&gt;Node22</title>
<path fill="none" stroke="midnightblue" d="M72.385,-205.371C89.6938,-197.744 115.322,-186.814 138.152,-178.5 144.657,-176.131 151.616,-173.787 158.42,-171.596"/>
<polygon fill="midnightblue" stroke="midnightblue" points="159.722,-174.856 168.207,-168.511 157.617,-168.18 159.722,-174.856"/>
</g>
<!-- Node2&#45;&gt;Node3 -->
<g id="edge2" class="edge"><title>Node2&#45;&gt;Node3</title>
<path fill="none" stroke="midnightblue" d="M261.34,-381.5C273.479,-381.5 286.319,-381.5 298.702,-381.5"/>
<polygon fill="midnightblue" stroke="midnightblue" points="298.971,-385 308.971,-381.5 298.971,-378 298.971,-385"/>
</g>
<!-- Node4 -->
<g id="node4" class="node"><title>Node4</title>
<g id="a_node4"><a xlink:href="message_parser_8c.html#a0026bd717404e4c2f9df87d137721377" target="_top" xlink:title="Message structure initializer. ">
<polygon fill="white" stroke="black" points="321.915,-335.5 321.915,-353.5 413.491,-353.5 413.491,-335.5 321.915,-335.5"/>
<text text-anchor="middle" x="367.703" y="-341.5" font-family="Helvetica,sans-Serif" font-size="10.00">MP_initMsgStruc</text>
</a>
</g>
</g>
<!-- Node2&#45;&gt;Node4 -->
<g id="edge3" class="edge"><title>Node2&#45;&gt;Node4</title>
<path fill="none" stroke="midnightblue" d="M241.593,-372.449C264.134,-367.413 292.391,-361.101 316.345,-355.75"/>
<polygon fill="midnightblue" stroke="midnightblue" points="317.321,-359.118 326.318,-353.522 315.795,-352.286 317.321,-359.118"/>
</g>
<!-- Node5 -->
<g id="node5" class="node"><title>Node5</title>
<g id="a_node5"><a xlink:href="msg_buffers_8c.html#a94d8920e20c5150892cf23b81eb1dfd6" target="_top" xlink:title="Put a message into the buffer. ">
<polygon fill="white" stroke="black" points="322.184,-242.5 322.184,-260.5 413.223,-260.5 413.223,-242.5 322.184,-242.5"/>
<text text-anchor="middle" x="367.703" y="-248.5" font-family="Helvetica,sans-Serif" font-size="10.00">MB_putMessage</text>
</a>
</g>
</g>
<!-- Node2&#45;&gt;Node5 -->
<g id="edge4" class="edge"><title>Node2&#45;&gt;Node5</title>
<path fill="none" stroke="midnightblue" d="M242.665,-372.458C249.395,-370.094 256.087,-367.15 261.999,-363.5 267.433,-360.144 323.585,-298.852 351.342,-268.393"/>
<polygon fill="midnightblue" stroke="midnightblue" points="354.208,-270.444 358.352,-260.693 349.032,-265.732 354.208,-270.444"/>
</g>
<!-- Node6&#45;&gt;Node5 -->
<g id="edge6" class="edge"><title>Node6&#45;&gt;Node5</title>
<path fill="none" stroke="midnightblue" d="M258.539,-263.908C275.794,-261.929 294.673,-259.763 311.76,-257.803"/>
<polygon fill="midnightblue" stroke="midnightblue" points="312.601,-261.229 322.137,-256.612 311.803,-254.275 312.601,-261.229"/>
</g>
<!-- Node7&#45;&gt;Node5 -->
<g id="edge9" class="edge"><title>Node7&#45;&gt;Node5</title>
<path fill="none" stroke="midnightblue" d="M240.394,-131.531C247.873,-134.13 255.412,-137.405 261.999,-141.5 301.908,-166.309 336.998,-209.892 354.635,-234.082"/>
<polygon fill="midnightblue" stroke="midnightblue" points="351.857,-236.215 360.513,-242.324 357.556,-232.15 351.857,-236.215"/>
</g>
<!-- Node8 -->
<g id="node8" class="node"><title>Node8</title>
<g id="a_node8"><a xlink:href="station_actions_8c.html#ad32eaec7f38945a0256977ee21f1318d" target="_top" xlink:title="Search a vehicle by socket number. ">
<polygon fill="white" stroke="black" points="297.999,-113.5 297.999,-131.5 437.407,-131.5 437.407,-113.5 297.999,-113.5"/>
<text text-anchor="middle" x="367.703" y="-119.5" font-family="Helvetica,sans-Serif" font-size="10.00">SA_searchVehicleBySocket</text>
</a>
</g>
</g>
<!-- Node7&#45;&gt;Node8 -->
<g id="edge8" class="edge"><title>Node7&#45;&gt;Node8</title>
<path fill="none" stroke="midnightblue" d="M247.653,-122.5C260.081,-122.5 273.865,-122.5 287.518,-122.5"/>
<polygon fill="midnightblue" stroke="midnightblue" points="287.908,-126 297.908,-122.5 287.908,-119 287.908,-126"/>
</g>
<!-- Node9&#45;&gt;Node10 -->
<g id="edge11" class="edge"><title>Node9&#45;&gt;Node10</title>
<path fill="none" stroke="midnightblue" d="M255.767,-52.774C270.762,-54.4941 287.154,-56.3744 302.624,-58.1491"/>
<polygon fill="midnightblue" stroke="midnightblue" points="302.3,-61.6348 312.633,-59.2974 303.098,-54.6804 302.3,-61.6348"/>
</g>
<!-- Node11 -->
<g id="node11" class="node"><title>Node11</title>
<g id="a_node11"><a xlink:href="station_actions_8c.html#ac5974717372c28efe7b4e33f68ef895b" target="_top" xlink:title="Function to initialize a new vehicle structure. ">
<polygon fill="white" stroke="black" points="473.407,-37.5 473.407,-55.5 553.343,-55.5 553.343,-37.5 473.407,-37.5"/>
<text text-anchor="middle" x="513.375" y="-43.5" font-family="Helvetica,sans-Serif" font-size="10.00">SA_initVehicle</text>
</a>
</g>
</g>
<!-- Node10&#45;&gt;Node11 -->
<g id="edge12" class="edge"><title>Node10&#45;&gt;Node11</title>
<path fill="none" stroke="midnightblue" d="M423.019,-58.3169C436.187,-56.5756 450.19,-54.7237 463.11,-53.0151"/>
<polygon fill="midnightblue" stroke="midnightblue" points="463.747,-56.4614 473.202,-51.6805 462.829,-49.5218 463.747,-56.4614"/>
</g>
<!-- Node12 -->
<g id="node12" class="node"><title>Node12</title>
<g id="a_node12"><a xlink:href="msg_buffers_8c.html#a15ca8d0fea842defceb1611616a64560" target="_top" xlink:title="Create a new buffer or mailbox and initialize it for n values. ">
<polygon fill="white" stroke="black" points="637.802,-74.5 637.802,-92.5 713.651,-92.5 713.651,-74.5 637.802,-74.5"/>
<text text-anchor="middle" x="675.727" y="-80.5" font-family="Helvetica,sans-Serif" font-size="10.00">MB_initBuffer</text>
</a>
</g>
</g>
<!-- Node10&#45;&gt;Node12 -->
<g id="edge18" class="edge"><title>Node10&#45;&gt;Node12</title>
<path fill="none" stroke="midnightblue" d="M422.71,-68.6766C480.741,-72.09 572.07,-77.4618 627.385,-80.7154"/>
<polygon fill="midnightblue" stroke="midnightblue" points="627.425,-84.2237 637.613,-81.317 627.836,-77.2358 627.425,-84.2237"/>
</g>
<!-- Node11&#45;&gt;Node12 -->
<g id="edge13" class="edge"><title>Node11&#45;&gt;Node12</title>
<path fill="none" stroke="midnightblue" d="M549.015,-55.5904C561.677,-58.8309 576.133,-62.4349 589.343,-65.5 601.802,-68.391 615.331,-71.3329 627.868,-73.9777"/>
<polygon fill="midnightblue" stroke="midnightblue" points="627.165,-77.4065 637.67,-76.0285 628.599,-70.5548 627.165,-77.4065"/>
</g>
<!-- Node13 -->
<g id="node13" class="node"><title>Node13</title>
<g id="a_node13"><a xlink:href="tcp_vehicle_socket_comm_8c.html#a8a9cd2f1bfdc3aada6f66fbddee2aa39" target="_top" xlink:title="Thread to send the messages to the vehicle. ">
<polygon fill="white" stroke="black" points="589.343,-37.5 589.343,-55.5 762.11,-55.5 762.11,-37.5 589.343,-37.5"/>
<text text-anchor="middle" x="675.727" y="-43.5" font-family="Helvetica,sans-Serif" font-size="10.00">VSC_outboundHandlerThreadFunc</text>
</a>
</g>
</g>
<!-- Node11&#45;&gt;Node13 -->
<g id="edge14" class="edge"><title>Node11&#45;&gt;Node13</title>
<path fill="none" stroke="midnightblue" d="M553.601,-46.5C561.483,-46.5 570.087,-46.5 578.955,-46.5"/>
<polygon fill="midnightblue" stroke="midnightblue" points="579.056,-50.0001 589.056,-46.5 579.056,-43.0001 579.056,-50.0001"/>
</g>
<!-- Node14 -->
<g id="node14" class="node"><title>Node14</title>
<g id="a_node14"><a xlink:href="msg_buffers_8c.html#a2bc61492dcc33dc1712d77d383b1e33d" target="_top" xlink:title="Get a message from the buffer. ">
<polygon fill="white" stroke="black" points="827.024,-56.5 827.024,-74.5 918.063,-74.5 918.063,-56.5 827.024,-56.5"/>
<text text-anchor="middle" x="872.543" y="-62.5" font-family="Helvetica,sans-Serif" font-size="10.00">MB_getMessage</text>
</a>
</g>
</g>
<!-- Node13&#45;&gt;Node14 -->
<g id="edge15" class="edge"><title>Node13&#45;&gt;Node14</title>
<path fill="none" stroke="midnightblue" d="M762.176,-54.8337C780.633,-56.6337 799.671,-58.4905 816.586,-60.1402"/>
<polygon fill="midnightblue" stroke="midnightblue" points="816.527,-63.6509 826.82,-61.1382 817.207,-56.684 816.527,-63.6509"/>
</g>
<!-- Node15 -->
<g id="node15" class="node"><title>Node15</title>
<g id="a_node15"><a xlink:href="tcp_vehicle_socket_comm_8c.html#a1c76ab448a30a8498f76e22546c81047" target="_top" xlink:title="Send a message to a vehicle. ">
<polygon fill="white" stroke="black" points="798.11,-19.5 798.11,-37.5 946.977,-37.5 946.977,-19.5 798.11,-19.5"/>
<text text-anchor="middle" x="872.543" y="-25.5" font-family="Helvetica,sans-Serif" font-size="10.00">VSC_SendMessageToVehicle</text>
</a>
</g>
</g>
<!-- Node13&#45;&gt;Node15 -->
<g id="edge16" class="edge"><title>Node13&#45;&gt;Node15</title>
<path fill="none" stroke="midnightblue" d="M762.176,-38.6049C770.774,-37.8106 779.497,-37.0046 788.074,-36.2122"/>
<polygon fill="midnightblue" stroke="midnightblue" points="788.422,-39.695 798.057,-35.2897 787.778,-32.7247 788.422,-39.695"/>
</g>
<!-- Node16 -->
<g id="node16" class="node"><title>Node16</title>
<g id="a_node16"><a xlink:href="message_parser_8c.html#a1e487e587ff3244c0808f4602ec6f1f7" target="_top" xlink:title="Message wiping function. ">
<polygon fill="white" stroke="black" points="982.977,-19.5 982.977,-37.5 1080.68,-37.5 1080.68,-19.5 982.977,-19.5"/>
<text text-anchor="middle" x="1031.83" y="-25.5" font-family="Helvetica,sans-Serif" font-size="10.00">MP_wipeMessage</text>
</a>
</g>
</g>
<!-- Node15&#45;&gt;Node16 -->
<g id="edge17" class="edge"><title>Node15&#45;&gt;Node16</title>
<path fill="none" stroke="midnightblue" d="M947.12,-28.5C955.76,-28.5 964.482,-28.5 972.866,-28.5"/>
<polygon fill="midnightblue" stroke="midnightblue" points="972.897,-32.0001 982.897,-28.5 972.897,-25.0001 972.897,-32.0001"/>
</g>
<!-- Node17&#45;&gt;Node4 -->
<g id="edge22" class="edge"><title>Node17&#45;&gt;Node4</title>
<path fill="none" stroke="midnightblue" d="M241.593,-316.551C264.134,-321.587 292.391,-327.899 316.345,-333.25"/>
<polygon fill="midnightblue" stroke="midnightblue" points="315.795,-336.714 326.318,-335.478 317.321,-329.882 315.795,-336.714"/>
</g>
<!-- Node17&#45;&gt;Node5 -->
<g id="edge23" class="edge"><title>Node17&#45;&gt;Node5</title>
<path fill="none" stroke="midnightblue" d="M233.124,-298.429C242.47,-295.676 252.675,-292.566 261.999,-289.5 286.153,-281.557 313.116,-271.749 333.631,-264.087"/>
<polygon fill="midnightblue" stroke="midnightblue" points="335.011,-267.307 343.143,-260.516 332.551,-260.754 335.011,-267.307"/>
</g>
<!-- Node18&#45;&gt;Node3 -->
<g id="edge25" class="edge"><title>Node18&#45;&gt;Node3</title>
<path fill="none" stroke="midnightblue" d="M241.593,-353.551C264.134,-358.587 292.391,-364.899 316.345,-370.25"/>
<polygon fill="midnightblue" stroke="midnightblue" points="315.795,-373.714 326.318,-372.478 317.321,-366.882 315.795,-373.714"/>
</g>
<!-- Node18&#45;&gt;Node4 -->
<g id="edge26" class="edge"><title>Node18&#45;&gt;Node4</title>
<path fill="none" stroke="midnightblue" d="M258.075,-344.5C275.356,-344.5 294.303,-344.5 311.466,-344.5"/>
<polygon fill="midnightblue" stroke="midnightblue" points="311.891,-348 321.89,-344.5 311.89,-341 311.891,-348"/>
</g>
<!-- Node18&#45;&gt;Node5 -->
<g id="edge27" class="edge"><title>Node18&#45;&gt;Node5</title>
<path fill="none" stroke="midnightblue" d="M238.873,-335.474C246.703,-333.016 254.765,-330.034 261.999,-326.5 295.048,-310.354 328.857,-283.99 348.803,-267.207"/>
<polygon fill="midnightblue" stroke="midnightblue" points="351.135,-269.818 356.46,-260.658 346.585,-264.498 351.135,-269.818"/>
</g>
<!-- Node20&#45;&gt;Node5 -->
<g id="edge30" class="edge"><title>Node20&#45;&gt;Node5</title>
<path fill="none" stroke="midnightblue" d="M262.279,-240.151C278.531,-241.918 295.977,-243.814 311.867,-245.54"/>
<polygon fill="midnightblue" stroke="midnightblue" points="311.735,-249.047 322.055,-246.648 312.492,-242.088 311.735,-249.047"/>
</g>
<!-- Node21&#45;&gt;Node5 -->
<g id="edge32" class="edge"><title>Node21&#45;&gt;Node5</title>
<path fill="none" stroke="midnightblue" d="M230.569,-205.51C240.567,-208.614 251.787,-212.153 261.999,-215.5 285.231,-223.115 311.223,-232.049 331.499,-239.112"/>
<polygon fill="midnightblue" stroke="midnightblue" points="330.361,-242.422 340.956,-242.416 332.669,-235.814 330.361,-242.422"/>
</g>
<!-- Node22&#45;&gt;Node5 -->
<g id="edge34" class="edge"><title>Node22&#45;&gt;Node5</title>
<path fill="none" stroke="midnightblue" d="M236.583,-168.563C245.105,-171.282 254.04,-174.6 261.999,-178.5 294.56,-194.453 328.272,-219.835 348.361,-236.076"/>
<polygon fill="midnightblue" stroke="midnightblue" points="346.144,-238.784 356.094,-242.423 350.585,-233.373 346.144,-238.784"/>
</g>
</g>
</svg>
