<?xml version="1.0" encoding="UTF-8" standalone="no"?>
<!DOCTYPE svg PUBLIC "-//W3C//DTD SVG 1.1//EN"
 "http://www.w3.org/Graphics/SVG/1.1/DTD/svg11.dtd">
<!-- Generated by graphviz version 2.38.0 (20140413.2041)
 -->
<!-- Title: MB_putMessage Pages: 1 -->
<svg width="1070pt" height="436pt"
 viewBox="0.00 0.00 1070.29 436.00" xmlns="http://www.w3.org/2000/svg" xmlns:xlink="http://www.w3.org/1999/xlink">
<g id="graph0" class="graph" transform="scale(1 1) rotate(0) translate(4 432)">
<title>MB_putMessage</title>
<polygon fill="white" stroke="none" points="-4,4 -4,-432 1066.29,-432 1066.29,4 -4,4"/>
<!-- Node1 -->
<g id="node1" class="node"><title>Node1</title>
<polygon fill="#bfbfbf" stroke="black" points="0,-205.5 0,-223.5 91.0391,-223.5 91.0391,-205.5 0,-205.5"/>
<text text-anchor="middle" x="45.5195" y="-211.5" font-family="Helvetica,sans-Serif" font-size="10.00">MB_putMessage</text>
</g>
<!-- Node2 -->
<g id="node2" class="node"><title>Node2</title>
<g id="a_node2"><a xlink:href="mcast_messaging_8h.html#ab9bc9b5c01c8c3a09c75e662eb019f04" target="_top" xlink:title="Thread for listening to messages coming from the general multicast group. ">
<polygon fill="white" stroke="black" points="140.391,-409.5 140.391,-427.5 249.755,-427.5 249.755,-409.5 140.391,-409.5"/>
<text text-anchor="middle" x="195.073" y="-415.5" font-family="Helvetica,sans-Serif" font-size="10.00">MCM_listenerThread</text>
</a>
</g>
</g>
<!-- Node1&#45;&gt;Node2 -->
<g id="edge1" class="edge"><title>Node1&#45;&gt;Node2</title>
<path fill="none" stroke="midnightblue" d="M49.3152,-234.131C55.7849,-272.127 75.3891,-355.899 127.039,-400.5 131.326,-404.202 136.298,-407.151 141.559,-409.499"/>
<polygon fill="midnightblue" stroke="midnightblue" points="52.718,-233.238 47.7081,-223.903 45.8028,-234.325 52.718,-233.238"/>
</g>
<!-- Node6 -->
<g id="node6" class="node"><title>Node6</title>
<g id="a_node6"><a xlink:href="station_actions_8h.html#a508d1d36f16f6dee4c28344426c929f0" target="_top" xlink:title="Function to treat the ID Request Messages. ">
<polygon fill="white" stroke="black" points="133.157,-372.5 133.157,-390.5 256.989,-390.5 256.989,-372.5 133.157,-372.5"/>
<text text-anchor="middle" x="195.073" y="-378.5" font-family="Helvetica,sans-Serif" font-size="10.00">SA_treatIDReqMessage</text>
</a>
</g>
</g>
<!-- Node1&#45;&gt;Node6 -->
<g id="edge5" class="edge"><title>Node1&#45;&gt;Node6</title>
<path fill="none" stroke="midnightblue" d="M51.5197,-233.73C60.8318,-265.646 83.9113,-329.413 127.039,-363.5 131.671,-367.161 136.986,-370.08 142.553,-372.407"/>
<polygon fill="midnightblue" stroke="midnightblue" points="54.8313,-232.573 48.7898,-223.869 48.0851,-234.441 54.8313,-232.573"/>
</g>
<!-- Node10 -->
<g id="node10" class="node"><title>Node10</title>
<g id="a_node10"><a xlink:href="station_actions_8h.html#a2194e68556b58027350c53533996f78a" target="_top" xlink:title="Function to treat the ID Assign messages. ">
<polygon fill="white" stroke="black" points="147.61,-335.5 147.61,-353.5 242.536,-353.5 242.536,-335.5 147.61,-335.5"/>
<text text-anchor="middle" x="195.073" y="-341.5" font-family="Helvetica,sans-Serif" font-size="10.00">SA_treatIDAssign</text>
</a>
</g>
</g>
<!-- Node1&#45;&gt;Node10 -->
<g id="edge10" class="edge"><title>Node1&#45;&gt;Node10</title>
<path fill="none" stroke="midnightblue" d="M54.7186,-232.8C66.8752,-257.812 92.0666,-302.321 127.039,-326.5 133.184,-330.749 140.285,-333.995 147.518,-336.476"/>
<polygon fill="midnightblue" stroke="midnightblue" points="57.8562,-231.247 50.4447,-223.676 51.5173,-234.216 57.8562,-231.247"/>
</g>
<!-- Node11 -->
<g id="node11" class="node"><title>Node11</title>
<g id="a_node11"><a xlink:href="station_actions_8h.html#a1e0a9c39b59131a6b19a9d44544543ab" target="_top" xlink:title="Function to treat the Location messages. ">
<polygon fill="white" stroke="black" points="137.049,-298.5 137.049,-316.5 253.098,-316.5 253.098,-298.5 137.049,-298.5"/>
<text text-anchor="middle" x="195.073" y="-304.5" font-family="Helvetica,sans-Serif" font-size="10.00">SA_treatLOCMessage</text>
</a>
</g>
</g>
<!-- Node1&#45;&gt;Node11 -->
<g id="edge12" class="edge"><title>Node1&#45;&gt;Node11</title>
<path fill="none" stroke="midnightblue" d="M60.4564,-231.677C75.243,-248.787 100.147,-274.594 127.039,-289.5 133.573,-293.122 140.875,-296.045 148.188,-298.396"/>
<polygon fill="midnightblue" stroke="midnightblue" points="62.803,-229.029 53.6893,-223.626 57.4445,-233.533 62.803,-229.029"/>
</g>
<!-- Node12 -->
<g id="node12" class="node"><title>Node12</title>
<g id="a_node12"><a xlink:href="station_actions_8h.html#a5e1c0855b4fc05bdfb48c63ee97d728e" target="_top" xlink:title="Function to treat the route messages sent by the server. ">
<polygon fill="white" stroke="black" points="133.987,-261.5 133.987,-279.5 256.159,-279.5 256.159,-261.5 133.987,-261.5"/>
<text text-anchor="middle" x="195.073" y="-267.5" font-family="Helvetica,sans-Serif" font-size="10.00">SA_treatRouteMessage</text>
</a>
</g>
</g>
<!-- Node1&#45;&gt;Node12 -->
<g id="edge14" class="edge"><title>Node1&#45;&gt;Node12</title>
<path fill="none" stroke="midnightblue" d="M72.4182,-228.172C87.9605,-236.009 108.292,-245.622 127.039,-252.5 136.202,-255.862 146.278,-258.898 155.771,-261.479"/>
<polygon fill="midnightblue" stroke="midnightblue" points="73.9129,-225.006 63.4168,-223.563 70.7225,-231.236 73.9129,-225.006"/>
</g>
<!-- Node13 -->
<g id="node13" class="node"><title>Node13</title>
<g id="a_node13"><a xlink:href="station_actions_8h.html#a5db92a163307a895ded7d4c6d9627c3f" target="_top" xlink:title="Function to treat the Status messages coming from the vehicle. ">
<polygon fill="white" stroke="black" points="133.155,-224.5 133.155,-242.5 256.992,-242.5 256.992,-224.5 133.155,-224.5"/>
<text text-anchor="middle" x="195.073" y="-230.5" font-family="Helvetica,sans-Serif" font-size="10.00">SA_treatStatusMessage</text>
</a>
</g>
</g>
<!-- Node1&#45;&gt;Node13 -->
<g id="edge16" class="edge"><title>Node1&#45;&gt;Node13</title>
<path fill="none" stroke="midnightblue" d="M101.294,-221.553C111.607,-222.881 122.452,-224.278 132.945,-225.629"/>
<polygon fill="midnightblue" stroke="midnightblue" points="101.556,-218.058 91.1909,-220.252 100.662,-225.001 101.556,-218.058"/>
</g>
<!-- Node14 -->
<g id="node14" class="node"><title>Node14</title>
<g id="a_node14"><a xlink:href="station_actions_8h.html#abec412b1329832ff70968ddd70b18f3e" target="_top" xlink:title="Function to treat the Alert messages coming from the server. ">
<polygon fill="white" stroke="black" points="137.049,-187.5 137.049,-205.5 253.098,-205.5 253.098,-187.5 137.049,-187.5"/>
<text text-anchor="middle" x="195.073" y="-193.5" font-family="Helvetica,sans-Serif" font-size="10.00">SA_treatAlertMessage</text>
</a>
</g>
</g>
<!-- Node1&#45;&gt;Node14 -->
<g id="edge18" class="edge"><title>Node1&#45;&gt;Node14</title>
<path fill="none" stroke="midnightblue" d="M101.232,-207.826C112.894,-206.403 125.239,-204.897 136.987,-203.464"/>
<polygon fill="midnightblue" stroke="midnightblue" points="100.693,-204.365 91.1909,-209.051 101.541,-211.314 100.693,-204.365"/>
</g>
<!-- Node15 -->
<g id="node15" class="node"><title>Node15</title>
<g id="a_node15"><a xlink:href="station_actions_8h.html#a2be0d823bd5a676ce32b74e8f1b12dc2" target="_top" xlink:title="Send the vehicle connected message to the server. ">
<polygon fill="white" stroke="black" points="133.15,-150.5 133.15,-168.5 256.997,-168.5 256.997,-150.5 133.15,-150.5"/>
<text text-anchor="middle" x="195.073" y="-156.5" font-family="Helvetica,sans-Serif" font-size="10.00">SA_sendConnectedMsg</text>
</a>
</g>
</g>
<!-- Node1&#45;&gt;Node15 -->
<g id="edge20" class="edge"><title>Node1&#45;&gt;Node15</title>
<path fill="none" stroke="midnightblue" d="M74.1763,-200.945C89.5267,-193.726 109.093,-185.017 127.039,-178.5 137.158,-174.826 148.344,-171.409 158.631,-168.516"/>
<polygon fill="midnightblue" stroke="midnightblue" points="72.277,-197.973 64.757,-205.436 75.2898,-204.292 72.277,-197.973"/>
</g>
<!-- Node16 -->
<g id="node16" class="node"><title>Node16</title>
<g id="a_node16"><a xlink:href="station_actions_8h.html#a62de0824fbc9e952d2f17577d16d38d1" target="_top" xlink:title="Send the vehicle disconnected message to the server. ">
<polygon fill="white" stroke="black" points="127.039,-76.5 127.039,-94.5 263.107,-94.5 263.107,-76.5 127.039,-76.5"/>
<text text-anchor="middle" x="195.073" y="-82.5" font-family="Helvetica,sans-Serif" font-size="10.00">SA_sendDisconnectedMsg</text>
</a>
</g>
</g>
<!-- Node1&#45;&gt;Node16 -->
<g id="edge22" class="edge"><title>Node1&#45;&gt;Node16</title>
<path fill="none" stroke="midnightblue" d="M54.7621,-196.364C66.9699,-171.575 92.2211,-127.463 127.039,-103.5 132.399,-99.8109 138.481,-96.8773 144.741,-94.5445"/>
<polygon fill="midnightblue" stroke="midnightblue" points="51.5962,-194.872 50.4682,-205.406 57.9195,-197.874 51.5962,-194.872"/>
</g>
<!-- Node17 -->
<g id="node17" class="node"><title>Node17</title>
<g id="a_node17"><a xlink:href="tcp_vehicle_socket_comm_8h.html#a919ad3564e41afca64d17244390cfba7" target="_top" xlink:title="Thread to handle the inbound messages from the vehicles. ">
<polygon fill="white" stroke="black" points="299.107,-76.5 299.107,-94.5 465.757,-94.5 465.757,-76.5 299.107,-76.5"/>
<text text-anchor="middle" x="382.432" y="-82.5" font-family="Helvetica,sans-Serif" font-size="10.00">VSC_inboundHandlerThreadFunc</text>
</a>
</g>
</g>
<!-- Node1&#45;&gt;Node17 -->
<g id="edge36" class="edge"><title>Node1&#45;&gt;Node17</title>
<path fill="none" stroke="midnightblue" d="M50.3421,-195.498C58.1475,-162.36 79.372,-94.8316 127.039,-66.5 202.801,-21.4697 314.497,-57.9284 360.481,-76.3964"/>
<polygon fill="midnightblue" stroke="midnightblue" points="46.9134,-194.794 48.1907,-205.312 53.751,-196.293 46.9134,-194.794"/>
</g>
<!-- Node21 -->
<g id="node21" class="node"><title>Node21</title>
<g id="a_node21"><a xlink:href="station_actions_8h.html#afbf777498692d2ce2582ab9228b11063" target="_top" xlink:title="Send the Join multicast group message to the vehicle. ">
<polygon fill="white" stroke="black" points="137.32,-113.5 137.32,-131.5 252.827,-131.5 252.827,-113.5 137.32,-113.5"/>
<text text-anchor="middle" x="195.073" y="-119.5" font-family="Helvetica,sans-Serif" font-size="10.00">SA_sendJoinMessage</text>
</a>
</g>
</g>
<!-- Node1&#45;&gt;Node21 -->
<g id="edge28" class="edge"><title>Node1&#45;&gt;Node21</title>
<path fill="none" stroke="midnightblue" d="M60.8317,-197.608C75.7552,-181.026 100.621,-156.15 127.039,-141.5 134.444,-137.394 142.812,-134.112 151.061,-131.512"/>
<polygon fill="midnightblue" stroke="midnightblue" points="57.9386,-195.599 53.9784,-205.426 63.2024,-200.213 57.9386,-195.599"/>
</g>
<!-- Node22 -->
<g id="node22" class="node"><title>Node22</title>
<g id="a_node22"><a xlink:href="tcp_server_socket_comm_8c.html#abe2574d5f7dd2457b0d09df7f29643a9" target="_top" xlink:title="Listen to the messages coming to the server. ">
<polygon fill="white" stroke="black" points="132.886,-0.5 132.886,-18.5 257.26,-18.5 257.26,-0.5 132.886,-0.5"/>
<text text-anchor="middle" x="195.073" y="-6.5" font-family="Helvetica,sans-Serif" font-size="10.00">SSC_listenToServerMsg</text>
</a>
</g>
</g>
<!-- Node1&#45;&gt;Node22 -->
<g id="edge30" class="edge"><title>Node1&#45;&gt;Node22</title>
<path fill="none" stroke="midnightblue" d="M49.9047,-195.231C57.3183,-158.624 78.3735,-78.6566 127.039,-33.5 134.197,-26.8577 143.322,-22.0294 152.516,-18.5281"/>
<polygon fill="midnightblue" stroke="midnightblue" points="46.4553,-194.635 48.0264,-205.113 53.3322,-195.942 46.4553,-194.635"/>
</g>
<!-- Node3 -->
<g id="node3" class="node"><title>Node3</title>
<g id="a_node3"><a xlink:href="mcast_messaging_8h.html#a4fd8b31a6cdd8fa515f1b3680a754def" target="_top" xlink:title="Intialize the multicast UDP listener and sender. ">
<polygon fill="white" stroke="black" points="325.257,-335.5 325.257,-353.5 439.607,-353.5 439.607,-335.5 325.257,-335.5"/>
<text text-anchor="middle" x="382.432" y="-341.5" font-family="Helvetica,sans-Serif" font-size="10.00">MCM_initMcastServer</text>
</a>
</g>
</g>
<!-- Node2&#45;&gt;Node3 -->
<g id="edge2" class="edge"><title>Node2&#45;&gt;Node3</title>
<path fill="none" stroke="midnightblue" d="M244.313,-406.668C250.69,-404.778 257.095,-402.71 263.107,-400.5 300.438,-386.781 342.024,-365.649 364.603,-353.651"/>
<polygon fill="midnightblue" stroke="midnightblue" points="243.043,-403.39 234.378,-409.486 244.953,-410.124 243.043,-403.39"/>
</g>
<!-- Node4 -->
<g id="node4" class="node"><title>Node4</title>
<g id="a_node4"><a xlink:href="main_8c.html#a82a03c8bafdc8925bacf4693a1c5e794" target="_top" xlink:title="Thread for controlling the multicast server initialization and shutdown. ">
<polygon fill="white" stroke="black" points="855.886,-255.5 855.886,-273.5 986.383,-273.5 986.383,-255.5 855.886,-255.5"/>
<text text-anchor="middle" x="921.135" y="-261.5" font-family="Helvetica,sans-Serif" font-size="10.00">mcastConnControlThread</text>
</a>
</g>
</g>
<!-- Node3&#45;&gt;Node4 -->
<g id="edge3" class="edge"><title>Node3&#45;&gt;Node4</title>
<path fill="none" stroke="midnightblue" d="M450.03,-334.573C555.222,-318.893 758.26,-288.629 859.567,-273.528"/>
<polygon fill="midnightblue" stroke="midnightblue" points="449.229,-331.154 439.854,-336.09 450.261,-338.077 449.229,-331.154"/>
</g>
<!-- Node5 -->
<g id="node5" class="node"><title>Node5</title>
<g id="a_node5"><a xlink:href="main_8c.html#ac0f2228420376f4db7e1274f2b41667c" target="_top" xlink:title="main">
<polygon fill="white" stroke="black" points="1024.61,-170.5 1024.61,-188.5 1062.29,-188.5 1062.29,-170.5 1024.61,-170.5"/>
<text text-anchor="middle" x="1043.45" y="-176.5" font-family="Helvetica,sans-Serif" font-size="10.00">main</text>
</a>
</g>
</g>
<!-- Node4&#45;&gt;Node5 -->
<g id="edge4" class="edge"><title>Node4&#45;&gt;Node5</title>
<path fill="none" stroke="midnightblue" d="M949.165,-250.638C961.54,-243.895 976.184,-235.345 988.612,-226.5 1005.19,-214.702 1022.62,-198.731 1033.01,-188.776"/>
<polygon fill="midnightblue" stroke="midnightblue" points="947.389,-247.619 940.218,-255.417 950.687,-253.793 947.389,-247.619"/>
</g>
<!-- Node7 -->
<g id="node7" class="node"><title>Node7</title>
<g id="a_node7"><a xlink:href="message_parser_8h.html#a37ec21f46c51967253a4e2da9ab6f063" target="_top" xlink:title="Message parser main function. ">
<polygon fill="white" stroke="black" points="331.356,-224.5 331.356,-242.5 433.508,-242.5 433.508,-224.5 331.356,-224.5"/>
<text text-anchor="middle" x="382.432" y="-230.5" font-family="Helvetica,sans-Serif" font-size="10.00">MP_parseMessage</text>
</a>
</g>
</g>
<!-- Node6&#45;&gt;Node7 -->
<g id="edge6" class="edge"><title>Node6&#45;&gt;Node7</title>
<path fill="none" stroke="midnightblue" d="M253.068,-368.705C256.559,-367.16 259.937,-365.432 263.107,-363.5 270.078,-359.251 348.079,-271.263 373.485,-242.506"/>
<polygon fill="midnightblue" stroke="midnightblue" points="251.681,-365.489 243.634,-372.381 254.222,-372.012 251.681,-365.489"/>
</g>
<!-- Node8 -->
<g id="node8" class="node"><title>Node8</title>
<g id="a_node8"><a xlink:href="message_parser_8h.html#a995d4c39c3939fa306e45d06589bf8c0" target="_top" xlink:title="Thread function for the parser thread. ">
<polygon fill="white" stroke="black" points="525.382,-220.5 525.382,-238.5 623.082,-238.5 623.082,-220.5 525.382,-220.5"/>
<text text-anchor="middle" x="574.232" y="-226.5" font-family="Helvetica,sans-Serif" font-size="10.00">MP_ParserThread</text>
</a>
</g>
</g>
<!-- Node7&#45;&gt;Node8 -->
<g id="edge7" class="edge"><title>Node7&#45;&gt;Node8</title>
<path fill="none" stroke="midnightblue" d="M444.017,-232.223C470.278,-231.67 500.589,-231.031 525.251,-230.511"/>
<polygon fill="midnightblue" stroke="midnightblue" points="443.721,-228.729 433.797,-232.439 443.868,-235.727 443.721,-228.729"/>
</g>
<!-- Node9 -->
<g id="node9" class="node"><title>Node9</title>
<g id="a_node9"><a xlink:href="message_parser_8h.html#a0a5ee1ec225573ebc80059d6bce9e0d6" target="_top" xlink:title="Parser thread initializer. ">
<polygon fill="white" stroke="black" points="710.783,-210.5 710.783,-228.5 789.581,-228.5 789.581,-210.5 710.783,-210.5"/>
<text text-anchor="middle" x="750.182" y="-216.5" font-family="Helvetica,sans-Serif" font-size="10.00">MP_initParser</text>
</a>
</g>
</g>
<!-- Node8&#45;&gt;Node9 -->
<g id="edge8" class="edge"><title>Node8&#45;&gt;Node9</title>
<path fill="none" stroke="midnightblue" d="M633.498,-226.15C658.924,-224.689 688.037,-223.015 710.697,-221.712"/>
<polygon fill="midnightblue" stroke="midnightblue" points="633.008,-222.673 623.225,-226.741 633.409,-229.661 633.008,-222.673"/>
</g>
<!-- Node9&#45;&gt;Node5 -->
<g id="edge9" class="edge"><title>Node9&#45;&gt;Node5</title>
<path fill="none" stroke="midnightblue" d="M800.026,-212.792C866.079,-203.721 980.672,-187.984 1024.6,-181.951"/>
<polygon fill="midnightblue" stroke="midnightblue" points="799.291,-209.36 789.86,-214.188 800.243,-216.295 799.291,-209.36"/>
</g>
<!-- Node10&#45;&gt;Node7 -->
<g id="edge11" class="edge"><title>Node10&#45;&gt;Node7</title>
<path fill="none" stroke="midnightblue" d="M249.581,-332.262C254.248,-330.56 258.821,-328.646 263.107,-326.5 308.899,-303.571 353.932,-261.237 372.526,-242.653"/>
<polygon fill="midnightblue" stroke="midnightblue" points="248.32,-328.993 239.931,-335.464 250.525,-335.637 248.32,-328.993"/>
</g>
<!-- Node11&#45;&gt;Node7 -->
<g id="edge13" class="edge"><title>Node11&#45;&gt;Node7</title>
<path fill="none" stroke="midnightblue" d="M244.313,-295.668C250.69,-293.778 257.095,-291.71 263.107,-289.5 300.438,-275.781 342.024,-254.649 364.603,-242.651"/>
<polygon fill="midnightblue" stroke="midnightblue" points="243.043,-292.39 234.378,-298.486 244.953,-299.124 243.043,-292.39"/>
</g>
<!-- Node12&#45;&gt;Node7 -->
<g id="edge15" class="edge"><title>Node12&#45;&gt;Node7</title>
<path fill="none" stroke="midnightblue" d="M251.512,-259.434C278.565,-254.034 310.696,-247.62 336.236,-242.522"/>
<polygon fill="midnightblue" stroke="midnightblue" points="250.539,-256.059 241.417,-261.449 251.909,-262.923 250.539,-256.059"/>
</g>
<!-- Node13&#45;&gt;Node7 -->
<g id="edge17" class="edge"><title>Node13&#45;&gt;Node7</title>
<path fill="none" stroke="midnightblue" d="M267.053,-233.5C288.464,-233.5 311.512,-233.5 331.269,-233.5"/>
<polygon fill="midnightblue" stroke="midnightblue" points="267.023,-230 257.023,-233.5 267.023,-237 267.023,-230"/>
</g>
<!-- Node14&#45;&gt;Node7 -->
<g id="edge19" class="edge"><title>Node14&#45;&gt;Node7</title>
<path fill="none" stroke="midnightblue" d="M251.512,-207.566C278.565,-212.966 310.696,-219.38 336.236,-224.478"/>
<polygon fill="midnightblue" stroke="midnightblue" points="251.909,-204.077 241.417,-205.551 250.539,-210.941 251.909,-204.077"/>
</g>
<!-- Node15&#45;&gt;Node7 -->
<g id="edge21" class="edge"><title>Node15&#45;&gt;Node7</title>
<path fill="none" stroke="midnightblue" d="M241.643,-171.36C248.885,-173.547 256.247,-175.952 263.107,-178.5 300.057,-192.225 341.442,-212.701 364.162,-224.411"/>
<polygon fill="midnightblue" stroke="midnightblue" points="242.478,-167.958 231.898,-168.519 240.519,-174.678 242.478,-167.958"/>
</g>
<!-- Node16&#45;&gt;Node17 -->
<g id="edge23" class="edge"><title>Node16&#45;&gt;Node17</title>
<path fill="none" stroke="midnightblue" d="M273.442,-85.5C281.882,-85.5 290.495,-85.5 298.992,-85.5"/>
<polygon fill="midnightblue" stroke="midnightblue" points="273.254,-82.0001 263.254,-85.5 273.254,-89.0001 273.254,-82.0001"/>
</g>
<!-- Node18 -->
<g id="node18" class="node"><title>Node18</title>
<g id="a_node18"><a xlink:href="tcp_vehicle_socket_comm_8h.html#a3ec3f2c1297ab45cb0ad39f925a4bce5" target="_top" xlink:title="Accept the new connections from vehicles. ">
<polygon fill="white" stroke="black" points="510.644,-82.5 510.644,-100.5 637.82,-100.5 637.82,-82.5 510.644,-82.5"/>
<text text-anchor="middle" x="574.232" y="-88.5" font-family="Helvetica,sans-Serif" font-size="10.00">VSC_acceptConnections</text>
</a>
</g>
</g>
<!-- Node17&#45;&gt;Node18 -->
<g id="edge24" class="edge"><title>Node17&#45;&gt;Node18</title>
<path fill="none" stroke="midnightblue" d="M476.1,-88.4294C487.794,-88.7991 499.533,-89.1702 510.607,-89.5203"/>
<polygon fill="midnightblue" stroke="midnightblue" points="475.959,-84.9233 465.853,-88.1055 475.737,-91.9198 475.959,-84.9233"/>
</g>
<!-- Node19 -->
<g id="node19" class="node"><title>Node19</title>
<g id="a_node19"><a xlink:href="tcp_vehicle_socket_comm_8h.html#a49fe9e8bc1bd13ac909ae2b7d2391886" target="_top" xlink:title="Initialize the vehicle comunication server. ">
<polygon fill="white" stroke="black" points="691.877,-131.5 691.877,-149.5 808.487,-149.5 808.487,-131.5 691.877,-131.5"/>
<text text-anchor="middle" x="750.182" y="-137.5" font-family="Helvetica,sans-Serif" font-size="10.00">VSC_initVehicleServer</text>
</a>
</g>
</g>
<!-- Node18&#45;&gt;Node19 -->
<g id="edge25" class="edge"><title>Node18&#45;&gt;Node19</title>
<path fill="none" stroke="midnightblue" d="M617.519,-103.412C648.185,-112.05 689.026,-123.555 717.044,-131.447"/>
<polygon fill="midnightblue" stroke="midnightblue" points="618.117,-99.9442 607.543,-100.602 616.219,-106.682 618.117,-99.9442"/>
</g>
<!-- Node20 -->
<g id="node20" class="node"><title>Node20</title>
<g id="a_node20"><a xlink:href="main_8c.html#ae346112f7679ae0199c3158f6624fd8b" target="_top" xlink:title="Thread for controlling the vehicle server initialization and shutdown. ">
<polygon fill="white" stroke="black" points="853.657,-138.5 853.657,-156.5 988.612,-156.5 988.612,-138.5 853.657,-138.5"/>
<text text-anchor="middle" x="921.135" y="-144.5" font-family="Helvetica,sans-Serif" font-size="10.00">vehicleConnControlThread</text>
</a>
</g>
</g>
<!-- Node19&#45;&gt;Node20 -->
<g id="edge26" class="edge"><title>Node19&#45;&gt;Node20</title>
<path fill="none" stroke="midnightblue" d="M819.101,-143.314C830.411,-143.783 842.135,-144.268 853.415,-144.736"/>
<polygon fill="midnightblue" stroke="midnightblue" points="818.99,-139.806 808.853,-142.889 818.7,-146.8 818.99,-139.806"/>
</g>
<!-- Node20&#45;&gt;Node5 -->
<g id="edge27" class="edge"><title>Node20&#45;&gt;Node5</title>
<path fill="none" stroke="midnightblue" d="M965.973,-159.16C986.224,-164.546 1009.14,-170.642 1024.57,-174.744"/>
<polygon fill="midnightblue" stroke="midnightblue" points="966.854,-155.772 956.29,-156.584 965.055,-162.537 966.854,-155.772"/>
</g>
<!-- Node21&#45;&gt;Node7 -->
<g id="edge29" class="edge"><title>Node21&#45;&gt;Node7</title>
<path fill="none" stroke="midnightblue" d="M247.281,-134.776C252.74,-136.74 258.116,-138.974 263.107,-141.5 308.38,-164.414 353.337,-205.8 372.191,-224.222"/>
<polygon fill="midnightblue" stroke="midnightblue" points="248.025,-131.336 237.432,-131.526 245.832,-137.983 248.025,-131.336"/>
</g>
<!-- Node23 -->
<g id="node23" class="node"><title>Node23</title>
<g id="a_node23"><a xlink:href="tcp_server_socket_comm_8h.html#ae54218394dd621113d0f73ec6ef8f873" target="_top" xlink:title="Thread to listen to messages coming from the server. ">
<polygon fill="white" stroke="black" points="307.179,-20.5 307.179,-38.5 457.686,-38.5 457.686,-20.5 307.179,-20.5"/>
<text text-anchor="middle" x="382.432" y="-26.5" font-family="Helvetica,sans-Serif" font-size="10.00">SSC_msgListenerThreadFunc</text>
</a>
</g>
</g>
<!-- Node22&#45;&gt;Node23 -->
<g id="edge31" class="edge"><title>Node22&#45;&gt;Node23</title>
<path fill="none" stroke="midnightblue" d="M267.524,-17.2094C280.478,-18.6072 294.018,-20.0681 307.054,-21.4747"/>
<polygon fill="midnightblue" stroke="midnightblue" points="267.598,-13.6972 257.28,-16.1042 266.847,-20.6568 267.598,-13.6972"/>
</g>
<!-- Node24 -->
<g id="node24" class="node"><title>Node24</title>
<g id="a_node24"><a xlink:href="tcp_server_socket_comm_8h.html#aefcfff31ea3a9b0d92a83ab83c9874f9" target="_top" xlink:title="Start the threads for listening and sending messages to the server. ">
<polygon fill="white" stroke="black" points="501.757,-36.5 501.757,-54.5 646.707,-54.5 646.707,-36.5 501.757,-36.5"/>
<text text-anchor="middle" x="574.232" y="-42.5" font-family="Helvetica,sans-Serif" font-size="10.00">SSC_initServerConnThreads</text>
</a>
</g>
</g>
<!-- Node23&#45;&gt;Node24 -->
<g id="edge32" class="edge"><title>Node23&#45;&gt;Node24</title>
<path fill="none" stroke="midnightblue" d="M468.068,-36.6348C479.217,-37.5746 490.556,-38.5305 501.462,-39.4498"/>
<polygon fill="midnightblue" stroke="midnightblue" points="468.16,-33.1302 457.901,-35.7777 467.572,-40.1054 468.16,-33.1302"/>
</g>
<!-- Node25 -->
<g id="node25" class="node"><title>Node25</title>
<g id="a_node25"><a xlink:href="tcp_server_socket_comm_8h.html#a64aaa41ac5e2fbe7f8ba88c053b49ff9" target="_top" xlink:title="Initialize the connection to the server. ">
<polygon fill="white" stroke="black" points="682.707,-39.5 682.707,-57.5 817.657,-57.5 817.657,-39.5 682.707,-39.5"/>
<text text-anchor="middle" x="750.182" y="-45.5" font-family="Helvetica,sans-Serif" font-size="10.00">SSC_initServerConnection</text>
</a>
</g>
</g>
<!-- Node24&#45;&gt;Node25 -->
<g id="edge33" class="edge"><title>Node24&#45;&gt;Node25</title>
<path fill="none" stroke="midnightblue" d="M656.852,-46.9077C665.515,-47.057 674.248,-47.2077 682.707,-47.3535"/>
<polygon fill="midnightblue" stroke="midnightblue" points="656.796,-43.4063 646.737,-46.7332 656.675,-50.4052 656.796,-43.4063"/>
</g>
<!-- Node26 -->
<g id="node26" class="node"><title>Node26</title>
<g id="a_node26"><a xlink:href="main_8c.html#aea1c0564829983a4a1da026f1640f762" target="_top" xlink:title="Thread for controlling the server client initialization and shutdown. ">
<polygon fill="white" stroke="black" points="855.33,-74.5 855.33,-92.5 986.94,-92.5 986.94,-74.5 855.33,-74.5"/>
<text text-anchor="middle" x="921.135" y="-80.5" font-family="Helvetica,sans-Serif" font-size="10.00">serverConnControlThread</text>
</a>
</g>
</g>
<!-- Node25&#45;&gt;Node26 -->
<g id="edge34" class="edge"><title>Node25&#45;&gt;Node26</title>
<path fill="none" stroke="midnightblue" d="M804.7,-59.5866C827.837,-64.3797 854.57,-69.9176 876.479,-74.4564"/>
<polygon fill="midnightblue" stroke="midnightblue" points="805.194,-56.1147 794.692,-57.5134 803.774,-62.9692 805.194,-56.1147"/>
</g>
<!-- Node26&#45;&gt;Node5 -->
<g id="edge35" class="edge"><title>Node26&#45;&gt;Node5</title>
<path fill="none" stroke="midnightblue" d="M945.005,-98.1498C958.103,-106.826 974.656,-118.286 988.612,-129.5 1005.12,-142.763 1022.86,-159.849 1033.29,-170.224"/>
<polygon fill="midnightblue" stroke="midnightblue" points="946.848,-95.1731 936.564,-92.6251 943.015,-101.03 946.848,-95.1731"/>
</g>
</g>
</svg>
