<?xml version="1.0" encoding="UTF-8" standalone="no"?>
<!DOCTYPE svg PUBLIC "-//W3C//DTD SVG 1.1//EN"
 "http://www.w3.org/Graphics/SVG/1.1/DTD/svg11.dtd">
<!-- Generated by graphviz version 2.38.0 (20140413.2041)
 -->
<!-- Title: MB_getMessage Pages: 1 -->
<svg width="1365pt" height="170pt"
 viewBox="0.00 0.00 1365.46 169.50" xmlns="http://www.w3.org/2000/svg" xmlns:xlink="http://www.w3.org/1999/xlink">
<g id="graph0" class="graph" transform="scale(1 1) rotate(0) translate(4 165.5)">
<title>MB_getMessage</title>
<polygon fill="white" stroke="none" points="-4,4 -4,-165.5 1361.46,-165.5 1361.46,4 -4,4"/>
<!-- Node1 -->
<g id="node1" class="node"><title>Node1</title>
<polygon fill="#bfbfbf" stroke="black" points="0,-86 0,-104 91.0391,-104 91.0391,-86 0,-86"/>
<text text-anchor="middle" x="45.5195" y="-92" font-family="Helvetica,sans-Serif" font-size="10.00">MB_getMessage</text>
</g>
<!-- Node2 -->
<g id="node2" class="node"><title>Node2</title>
<g id="a_node2"><a xlink:href="mcast_messaging_8h.html#a82322ed09bb5d8af36d46860d2f49e2d" target="_top" xlink:title="Thread for sending the messages to the station multicast group. ">
<polygon fill="white" stroke="black" points="159.571,-143 159.571,-161 267.275,-161 267.275,-143 159.571,-143"/>
<text text-anchor="middle" x="213.423" y="-149" font-family="Helvetica,sans-Serif" font-size="10.00">MCM_senderThread</text>
</a>
</g>
</g>
<!-- Node1&#45;&gt;Node2 -->
<g id="edge1" class="edge"><title>Node1&#45;&gt;Node2</title>
<path fill="none" stroke="midnightblue" d="M76.1234,-108.087C91.2066,-114.51 109.93,-122.111 127.039,-128 143.2,-133.563 161.399,-138.813 176.83,-142.977"/>
<polygon fill="midnightblue" stroke="midnightblue" points="77.3596,-104.809 66.7908,-104.066 74.5899,-111.238 77.3596,-104.809"/>
</g>
<!-- Node6 -->
<g id="node6" class="node"><title>Node6</title>
<g id="a_node6"><a xlink:href="message_parser_8h.html#a995d4c39c3939fa306e45d06589bf8c0" target="_top" xlink:title="Thread function for the parser thread. ">
<polygon fill="white" stroke="black" points="1054.34,-48 1054.34,-66 1152.04,-66 1152.04,-48 1054.34,-48"/>
<text text-anchor="middle" x="1103.19" y="-54" font-family="Helvetica,sans-Serif" font-size="10.00">MP_ParserThread</text>
</a>
</g>
</g>
<!-- Node1&#45;&gt;Node6 -->
<g id="edge5" class="edge"><title>Node1&#45;&gt;Node6</title>
<path fill="none" stroke="midnightblue" d="M71.6735,-81.2008C87.2353,-73.1555 107.843,-63.3702 127.039,-57 248.133,-16.815 280.808,-0 408.395,-0 408.395,-0 408.395,-0 768.409,-0 880.985,-0 1011.91,-31.8957 1070.74,-47.9682"/>
<polygon fill="midnightblue" stroke="midnightblue" points="69.9046,-78.1767 62.6939,-85.9392 73.1715,-84.3677 69.9046,-78.1767"/>
</g>
<!-- Node8 -->
<g id="node8" class="node"><title>Node8</title>
<g id="a_node8"><a xlink:href="tcp_server_socket_comm_8h.html#ab46f3e041cae487562197067e220af3b" target="_top" xlink:title="Thread to send the messages stored in the outbox to the server. ">
<polygon fill="white" stroke="black" points="335.807,-105 335.807,-123 482.983,-123 482.983,-105 335.807,-105"/>
<text text-anchor="middle" x="409.395" y="-111" font-family="Helvetica,sans-Serif" font-size="10.00">SSC_msgSenderThreadFunc</text>
</a>
</g>
</g>
<!-- Node1&#45;&gt;Node8 -->
<g id="edge8" class="edge"><title>Node1&#45;&gt;Node8</title>
<path fill="none" stroke="midnightblue" d="M101.316,-97.877C163.858,-101.161 266.419,-106.546 335.624,-110.179"/>
<polygon fill="midnightblue" stroke="midnightblue" points="101.425,-94.3781 91.2555,-97.3488 101.058,-101.368 101.425,-94.3781"/>
</g>
<!-- Node12 -->
<g id="node12" class="node"><title>Node12</title>
<g id="a_node12"><a xlink:href="tcp_vehicle_socket_comm_8h.html#a8a9cd2f1bfdc3aada6f66fbddee2aa39" target="_top" xlink:title="Thread to send the messages to the vehicle. ">
<polygon fill="white" stroke="black" points="127.039,-67 127.039,-85 299.807,-85 299.807,-67 127.039,-67"/>
<text text-anchor="middle" x="213.423" y="-73" font-family="Helvetica,sans-Serif" font-size="10.00">VSC_outboundHandlerThreadFunc</text>
</a>
</g>
</g>
<!-- Node1&#45;&gt;Node12 -->
<g id="edge13" class="edge"><title>Node1&#45;&gt;Node12</title>
<path fill="none" stroke="midnightblue" d="M101.477,-88.7061C111.784,-87.5257 122.744,-86.2705 133.609,-85.0262"/>
<polygon fill="midnightblue" stroke="midnightblue" points="100.952,-85.2432 91.4154,-89.8583 101.749,-92.1977 100.952,-85.2432"/>
</g>
<!-- Node3 -->
<g id="node3" class="node"><title>Node3</title>
<g id="a_node3"><a xlink:href="mcast_messaging_8h.html#a4fd8b31a6cdd8fa515f1b3680a754def" target="_top" xlink:title="Intialize the multicast UDP listener and sender. ">
<polygon fill="white" stroke="black" points="352.22,-143 352.22,-161 466.57,-161 466.57,-143 352.22,-143"/>
<text text-anchor="middle" x="409.395" y="-149" font-family="Helvetica,sans-Serif" font-size="10.00">MCM_initMcastServer</text>
</a>
</g>
</g>
<!-- Node2&#45;&gt;Node3 -->
<g id="edge2" class="edge"><title>Node2&#45;&gt;Node3</title>
<path fill="none" stroke="midnightblue" d="M277.505,-152C301.521,-152 328.711,-152 352.062,-152"/>
<polygon fill="midnightblue" stroke="midnightblue" points="277.427,-148.5 267.427,-152 277.427,-155.5 277.427,-148.5"/>
</g>
<!-- Node4 -->
<g id="node4" class="node"><title>Node4</title>
<g id="a_node4"><a xlink:href="main_8c.html#a82a03c8bafdc8925bacf4693a1c5e794" target="_top" xlink:title="Thread for controlling the multicast server initialization and shutdown. ">
<polygon fill="white" stroke="black" points="870.884,-143 870.884,-161 1001.38,-161 1001.38,-143 870.884,-143"/>
<text text-anchor="middle" x="936.132" y="-149" font-family="Helvetica,sans-Serif" font-size="10.00">mcastConnControlThread</text>
</a>
</g>
</g>
<!-- Node3&#45;&gt;Node4 -->
<g id="edge3" class="edge"><title>Node3&#45;&gt;Node4</title>
<path fill="none" stroke="midnightblue" d="M476.917,-152C578.296,-152 770.234,-152 870.484,-152"/>
<polygon fill="midnightblue" stroke="midnightblue" points="476.8,-148.5 466.8,-152 476.8,-155.5 476.8,-148.5"/>
</g>
<!-- Node5 -->
<g id="node5" class="node"><title>Node5</title>
<g id="a_node5"><a xlink:href="main_8c.html#ac0f2228420376f4db7e1274f2b41667c" target="_top" xlink:title="main">
<polygon fill="white" stroke="black" points="1319.79,-105 1319.79,-123 1357.46,-123 1357.46,-105 1319.79,-105"/>
<text text-anchor="middle" x="1338.63" y="-111" font-family="Helvetica,sans-Serif" font-size="10.00">main</text>
</a>
</g>
</g>
<!-- Node4&#45;&gt;Node5 -->
<g id="edge4" class="edge"><title>Node4&#45;&gt;Node5</title>
<path fill="none" stroke="midnightblue" d="M1011.55,-150.826C1082.06,-148.776 1190.72,-143.188 1283.79,-128 1295.8,-126.04 1309.03,-122.618 1319.37,-119.648"/>
<polygon fill="midnightblue" stroke="midnightblue" points="1011.33,-147.33 1001.43,-151.103 1011.53,-154.328 1011.33,-147.33"/>
</g>
<!-- Node7 -->
<g id="node7" class="node"><title>Node7</title>
<g id="a_node7"><a xlink:href="message_parser_8h.html#a0a5ee1ec225573ebc80059d6bce9e0d6" target="_top" xlink:title="Parser thread initializer. ">
<polygon fill="white" stroke="black" points="1204.99,-58 1204.99,-76 1283.79,-76 1283.79,-58 1204.99,-58"/>
<text text-anchor="middle" x="1244.39" y="-64" font-family="Helvetica,sans-Serif" font-size="10.00">MP_initParser</text>
</a>
</g>
</g>
<!-- Node6&#45;&gt;Node7 -->
<g id="edge6" class="edge"><title>Node6&#45;&gt;Node7</title>
<path fill="none" stroke="midnightblue" d="M1162.33,-61.1766C1176.59,-62.2012 1191.51,-63.2733 1204.61,-64.2142"/>
<polygon fill="midnightblue" stroke="midnightblue" points="1162.32,-57.667 1152.09,-60.4414 1161.82,-64.6491 1162.32,-57.667"/>
</g>
<!-- Node7&#45;&gt;Node5 -->
<g id="edge7" class="edge"><title>Node7&#45;&gt;Node5</title>
<path fill="none" stroke="midnightblue" d="M1272.2,-80.6629C1287.55,-88.4848 1306.39,-98.0809 1319.9,-104.966"/>
<polygon fill="midnightblue" stroke="midnightblue" points="1273.67,-77.4838 1263.17,-76.0621 1270.5,-83.7208 1273.67,-77.4838"/>
</g>
<!-- Node9 -->
<g id="node9" class="node"><title>Node9</title>
<g id="a_node9"><a xlink:href="tcp_server_socket_comm_8h.html#aefcfff31ea3a9b0d92a83ab83c9874f9" target="_top" xlink:title="Start the threads for listening and sending messages to the server. ">
<polygon fill="white" stroke="black" points="518.983,-105 518.983,-123 663.934,-123 663.934,-105 518.983,-105"/>
<text text-anchor="middle" x="591.458" y="-111" font-family="Helvetica,sans-Serif" font-size="10.00">SSC_initServerConnThreads</text>
</a>
</g>
</g>
<!-- Node8&#45;&gt;Node9 -->
<g id="edge9" class="edge"><title>Node8&#45;&gt;Node9</title>
<path fill="none" stroke="midnightblue" d="M493.159,-114C501.766,-114 510.462,-114 518.93,-114"/>
<polygon fill="midnightblue" stroke="midnightblue" points="493.115,-110.5 483.115,-114 493.115,-117.5 493.115,-110.5"/>
</g>
<!-- Node10 -->
<g id="node10" class="node"><title>Node10</title>
<g id="a_node10"><a xlink:href="tcp_server_socket_comm_8h.html#a64aaa41ac5e2fbe7f8ba88c053b49ff9" target="_top" xlink:title="Initialize the connection to the server. ">
<polygon fill="white" stroke="black" points="699.934,-105 699.934,-123 834.884,-123 834.884,-105 699.934,-105"/>
<text text-anchor="middle" x="767.409" y="-111" font-family="Helvetica,sans-Serif" font-size="10.00">SSC_initServerConnection</text>
</a>
</g>
</g>
<!-- Node9&#45;&gt;Node10 -->
<g id="edge10" class="edge"><title>Node9&#45;&gt;Node10</title>
<path fill="none" stroke="midnightblue" d="M674.079,-114C682.741,-114 691.475,-114 699.934,-114"/>
<polygon fill="midnightblue" stroke="midnightblue" points="673.964,-110.5 663.964,-114 673.964,-117.5 673.964,-110.5"/>
</g>
<!-- Node11 -->
<g id="node11" class="node"><title>Node11</title>
<g id="a_node11"><a xlink:href="main_8c.html#aea1c0564829983a4a1da026f1640f762" target="_top" xlink:title="Thread for controlling the server client initialization and shutdown. ">
<polygon fill="white" stroke="black" points="1037.38,-105 1037.38,-123 1168.99,-123 1168.99,-105 1037.38,-105"/>
<text text-anchor="middle" x="1103.19" y="-111" font-family="Helvetica,sans-Serif" font-size="10.00">serverConnControlThread</text>
</a>
</g>
</g>
<!-- Node10&#45;&gt;Node11 -->
<g id="edge11" class="edge"><title>Node10&#45;&gt;Node11</title>
<path fill="none" stroke="midnightblue" d="M845.384,-114C903.49,-114 982.327,-114 1037.26,-114"/>
<polygon fill="midnightblue" stroke="midnightblue" points="845.151,-110.5 835.151,-114 845.151,-117.5 845.151,-110.5"/>
</g>
<!-- Node11&#45;&gt;Node5 -->
<g id="edge12" class="edge"><title>Node11&#45;&gt;Node5</title>
<path fill="none" stroke="midnightblue" d="M1179.29,-114C1228.92,-114 1290.1,-114 1319.79,-114"/>
<polygon fill="midnightblue" stroke="midnightblue" points="1179.21,-110.5 1169.21,-114 1179.21,-117.5 1179.21,-110.5"/>
</g>
<!-- Node13 -->
<g id="node13" class="node"><title>Node13</title>
<g id="a_node13"><a xlink:href="station_actions_8h.html#ac5974717372c28efe7b4e33f68ef895b" target="_top" xlink:title="Function to initialize a new vehicle structure. ">
<polygon fill="white" stroke="black" points="369.427,-67 369.427,-85 449.363,-85 449.363,-67 369.427,-67"/>
<text text-anchor="middle" x="409.395" y="-73" font-family="Helvetica,sans-Serif" font-size="10.00">SA_initVehicle</text>
</a>
</g>
</g>
<!-- Node12&#45;&gt;Node13 -->
<g id="edge14" class="edge"><title>Node12&#45;&gt;Node13</title>
<path fill="none" stroke="midnightblue" d="M310.296,-76C331.18,-76 352.133,-76 369.28,-76"/>
<polygon fill="midnightblue" stroke="midnightblue" points="310.067,-72.5001 300.067,-76 310.066,-79.5001 310.067,-72.5001"/>
</g>
<!-- Node14 -->
<g id="node14" class="node"><title>Node14</title>
<g id="a_node14"><a xlink:href="station_actions_8h.html#adef80b5aef5924633f2ef4b37eecc820" target="_top" xlink:title="Add a new vehicle to the vehicle list. ">
<polygon fill="white" stroke="black" points="536.479,-67 536.479,-85 646.438,-85 646.438,-67 536.479,-67"/>
<text text-anchor="middle" x="591.458" y="-73" font-family="Helvetica,sans-Serif" font-size="10.00">SA_addVehicleToList</text>
</a>
</g>
</g>
<!-- Node13&#45;&gt;Node14 -->
<g id="edge15" class="edge"><title>Node13&#45;&gt;Node14</title>
<path fill="none" stroke="midnightblue" d="M459.68,-76C483.466,-76 512.06,-76 536.437,-76"/>
<polygon fill="midnightblue" stroke="midnightblue" points="459.466,-72.5001 449.466,-76 459.466,-79.5001 459.466,-72.5001"/>
</g>
<!-- Node15 -->
<g id="node15" class="node"><title>Node15</title>
<g id="a_node15"><a xlink:href="message_parser_8h.html#a37ec21f46c51967253a4e2da9ab6f063" target="_top" xlink:title="Message parser main function. ">
<polygon fill="white" stroke="black" points="885.056,-48 885.056,-66 987.208,-66 987.208,-48 885.056,-48"/>
<text text-anchor="middle" x="936.132" y="-54" font-family="Helvetica,sans-Serif" font-size="10.00">MP_parseMessage</text>
</a>
</g>
</g>
<!-- Node14&#45;&gt;Node15 -->
<g id="edge16" class="edge"><title>Node14&#45;&gt;Node15</title>
<path fill="none" stroke="midnightblue" d="M657.059,-72.4181C723.213,-68.7501 824.65,-63.1258 884.991,-59.7802"/>
<polygon fill="midnightblue" stroke="midnightblue" points="656.547,-68.9411 646.756,-72.9894 656.935,-75.9303 656.547,-68.9411"/>
</g>
<!-- Node16 -->
<g id="node16" class="node"><title>Node16</title>
<g id="a_node16"><a xlink:href="station_actions_8h.html#a1e710f6898a01da9a953e7fed354c358" target="_top" xlink:title="Function to treat the initial vehicle list message. ">
<polygon fill="white" stroke="black" points="711.884,-29 711.884,-47 822.933,-47 822.933,-29 711.884,-29"/>
<text text-anchor="middle" x="767.409" y="-35" font-family="Helvetica,sans-Serif" font-size="10.00">SA_treatListMessage</text>
</a>
</g>
</g>
<!-- Node14&#45;&gt;Node16 -->
<g id="edge18" class="edge"><title>Node14&#45;&gt;Node16</title>
<path fill="none" stroke="midnightblue" d="M643.722,-64.8012C669.686,-59.1294 700.788,-52.3351 725.18,-47.0066"/>
<polygon fill="midnightblue" stroke="midnightblue" points="642.705,-61.4409 633.682,-66.9945 644.199,-68.2796 642.705,-61.4409"/>
</g>
<!-- Node15&#45;&gt;Node6 -->
<g id="edge17" class="edge"><title>Node15&#45;&gt;Node6</title>
<path fill="none" stroke="midnightblue" d="M997.724,-57C1016.38,-57 1036.66,-57 1054.33,-57"/>
<polygon fill="midnightblue" stroke="midnightblue" points="997.551,-53.5001 987.551,-57 997.551,-60.5001 997.551,-53.5001"/>
</g>
<!-- Node16&#45;&gt;Node15 -->
<g id="edge19" class="edge"><title>Node16&#45;&gt;Node15</title>
<path fill="none" stroke="midnightblue" d="M832.994,-45.3603C850.231,-47.3245 868.597,-49.4176 884.933,-51.2792"/>
<polygon fill="midnightblue" stroke="midnightblue" points="833.332,-41.8762 823,-44.2213 832.54,-48.8312 833.332,-41.8762"/>
</g>
</g>
</svg>
