<?xml version="1.0" encoding="UTF-8" standalone="no"?>
<!DOCTYPE svg PUBLIC "-//W3C//DTD SVG 1.1//EN"
 "http://www.w3.org/Graphics/SVG/1.1/DTD/svg11.dtd">
<!-- Generated by graphviz version 2.38.0 (20140413.2041)
 -->
<!-- Title: rasPi&#45;EmergencyStation/msgBuffers.c Pages: 1 -->
<svg width="1003pt" height="367pt"
 viewBox="0.00 0.00 1003.22 367.00" xmlns="http://www.w3.org/2000/svg" xmlns:xlink="http://www.w3.org/1999/xlink">
<g id="graph0" class="graph" transform="scale(1 1) rotate(0) translate(4 363)">
<title>rasPi&#45;EmergencyStation/msgBuffers.c</title>
<polygon fill="white" stroke="none" points="-4,4 -4,-363 999.216,-363 999.216,4 -4,4"/>
<!-- Node1 -->
<g id="node1" class="node"><title>Node1</title>
<polygon fill="#bfbfbf" stroke="black" points="381.577,-330.5 381.577,-358.5 505.399,-358.5 505.399,-330.5 381.577,-330.5"/>
<text text-anchor="start" x="389.577" y="-346.5" font-family="Helvetica,sans-Serif" font-size="10.00">rasPi&#45;EmergencyStation</text>
<text text-anchor="middle" x="443.488" y="-336.5" font-family="Helvetica,sans-Serif" font-size="10.00">/msgBuffers.c</text>
</g>
<!-- Node2 -->
<g id="node2" class="node"><title>Node2</title>
<g id="a_node2"><a xlink:href="msg_buffers_8h.html" target="_top" xlink:title="File containing the headers of all functions related to the message mailboxes. ">
<polygon fill="white" stroke="black" points="406.12,-275.5 406.12,-293.5 480.856,-293.5 480.856,-275.5 406.12,-275.5"/>
<text text-anchor="middle" x="443.488" y="-281.5" font-family="Helvetica,sans-Serif" font-size="10.00">msgBuffers.h</text>
</a>
</g>
</g>
<!-- Node1&#45;&gt;Node2 -->
<g id="edge1" class="edge"><title>Node1&#45;&gt;Node2</title>
<path fill="none" stroke="midnightblue" d="M443.488,-330.339C443.488,-322.531 443.488,-312.512 443.488,-303.927"/>
<polygon fill="midnightblue" stroke="midnightblue" points="446.988,-303.771 443.488,-293.771 439.988,-303.772 446.988,-303.771"/>
</g>
<!-- Node3 -->
<g id="node3" class="node"><title>Node3</title>
<polygon fill="white" stroke="#bfbfbf" points="173.757,-0.5 173.757,-18.5 219.22,-18.5 219.22,-0.5 173.757,-0.5"/>
<text text-anchor="middle" x="196.488" y="-6.5" font-family="Helvetica,sans-Serif" font-size="10.00">stdio.h</text>
</g>
<!-- Node2&#45;&gt;Node3 -->
<g id="edge2" class="edge"><title>Node2&#45;&gt;Node3</title>
<path fill="none" stroke="midnightblue" d="M405.833,-282.387C306.512,-279.067 43.2776,-267.624 17.4881,-239 -52.6164,-161.191 109.082,-59.1181 172.415,-23.4609"/>
<polygon fill="midnightblue" stroke="midnightblue" points="174.299,-26.4182 181.346,-18.5069 170.904,-20.2969 174.299,-26.4182"/>
</g>
<!-- Node4 -->
<g id="node4" class="node"><title>Node4</title>
<polygon fill="white" stroke="#bfbfbf" points="10.3601,-0.5 10.3601,-18.5 68.616,-18.5 68.616,-0.5 10.3601,-0.5"/>
<text text-anchor="middle" x="39.4881" y="-6.5" font-family="Helvetica,sans-Serif" font-size="10.00">pthread.h</text>
</g>
<!-- Node2&#45;&gt;Node4 -->
<g id="edge3" class="edge"><title>Node2&#45;&gt;Node4</title>
<path fill="none" stroke="midnightblue" d="M410.467,-275.468C382.663,-268.025 342.297,-255.6 309.488,-239 196.264,-181.713 162.153,-167.611 76.4881,-74 63.8581,-60.1985 53.5581,-41.3757 47.0623,-27.8111"/>
<polygon fill="midnightblue" stroke="midnightblue" points="50.2058,-26.2691 42.8609,-18.6334 43.841,-29.1828 50.2058,-26.2691"/>
</g>
<!-- Node5 -->
<g id="node5" class="node"><title>Node5</title>
<polygon fill="white" stroke="#bfbfbf" points="937.702,-220.5 937.702,-238.5 989.274,-238.5 989.274,-220.5 937.702,-220.5"/>
<text text-anchor="middle" x="963.488" y="-226.5" font-family="Helvetica,sans-Serif" font-size="10.00">assert.h</text>
</g>
<!-- Node2&#45;&gt;Node5 -->
<g id="edge4" class="edge"><title>Node2&#45;&gt;Node5</title>
<path fill="none" stroke="midnightblue" d="M481.012,-281.519C562.117,-276.909 759.664,-263.913 923.488,-239 924.751,-238.808 926.035,-238.601 927.329,-238.382"/>
<polygon fill="midnightblue" stroke="midnightblue" points="928.129,-241.793 937.318,-236.519 926.846,-234.912 928.129,-241.793"/>
</g>
<!-- Node6 -->
<g id="node6" class="node"><title>Node6</title>
<g id="a_node6"><a xlink:href="structures_8h.html" target="_top" xlink:title="File containing all the structure definitions used in the other modules. ">
<polygon fill="white" stroke="black" points="162.367,-55.5 162.367,-73.5 230.609,-73.5 230.609,-55.5 162.367,-55.5"/>
<text text-anchor="middle" x="196.488" y="-61.5" font-family="Helvetica,sans-Serif" font-size="10.00">structures.h</text>
</a>
</g>
</g>
<!-- Node2&#45;&gt;Node6 -->
<g id="edge5" class="edge"><title>Node2&#45;&gt;Node6</title>
<path fill="none" stroke="midnightblue" d="M421.068,-275.421C374.06,-257.241 265.183,-208.392 212.488,-129 203.45,-115.384 199.518,-97.037 197.806,-83.5657"/>
<polygon fill="midnightblue" stroke="midnightblue" points="201.289,-83.2173 196.828,-73.6075 194.322,-83.9018 201.289,-83.2173"/>
</g>
<!-- Node8 -->
<g id="node8" class="node"><title>Node8</title>
<g id="a_node8"><a xlink:href="message_parser_8h.html" target="_top" xlink:title="Message parser function headers. ">
<polygon fill="white" stroke="black" points="490.577,-220.5 490.577,-238.5 584.399,-238.5 584.399,-220.5 490.577,-220.5"/>
<text text-anchor="middle" x="537.488" y="-226.5" font-family="Helvetica,sans-Serif" font-size="10.00">messageParser.h</text>
</a>
</g>
</g>
<!-- Node2&#45;&gt;Node8 -->
<g id="edge9" class="edge"><title>Node2&#45;&gt;Node8</title>
<path fill="none" stroke="midnightblue" d="M452.755,-275.45C465.949,-266.89 489.893,-253.229 509.081,-243.212"/>
<polygon fill="midnightblue" stroke="midnightblue" points="510.74,-246.294 518.05,-238.625 507.553,-240.062 510.74,-246.294"/>
</g>
<!-- Node6&#45;&gt;Node3 -->
<g id="edge6" class="edge"><title>Node6&#45;&gt;Node3</title>
<path fill="none" stroke="midnightblue" d="M196.488,-55.2188C196.488,-48.1769 196.488,-37.8083 196.488,-28.8277"/>
<polygon fill="midnightblue" stroke="midnightblue" points="199.988,-28.5495 196.488,-18.5496 192.988,-28.5496 199.988,-28.5495"/>
</g>
<!-- Node6&#45;&gt;Node4 -->
<g id="edge7" class="edge"><title>Node6&#45;&gt;Node4</title>
<path fill="none" stroke="midnightblue" d="M172.643,-55.4504C146.054,-46.4745 102.857,-31.8922 72.9061,-21.7813"/>
<polygon fill="midnightblue" stroke="midnightblue" points="73.8938,-18.4207 63.2997,-18.5383 71.6549,-25.053 73.8938,-18.4207"/>
</g>
<!-- Node7 -->
<g id="node7" class="node"><title>Node7</title>
<polygon fill="white" stroke="#bfbfbf" points="595.025,-0.5 595.025,-18.5 659.951,-18.5 659.951,-0.5 595.025,-0.5"/>
<text text-anchor="middle" x="627.488" y="-6.5" font-family="Helvetica,sans-Serif" font-size="10.00">netinet/in.h</text>
</g>
<!-- Node6&#45;&gt;Node7 -->
<g id="edge8" class="edge"><title>Node6&#45;&gt;Node7</title>
<path fill="none" stroke="midnightblue" d="M230.668,-59.2969C308.554,-49.7193 499.067,-26.292 584.64,-15.769"/>
<polygon fill="midnightblue" stroke="midnightblue" points="585.286,-19.216 594.784,-14.5216 584.431,-12.2684 585.286,-19.216"/>
</g>
<!-- Node8&#45;&gt;Node2 -->
<g id="edge20" class="edge"><title>Node8&#45;&gt;Node2</title>
<path fill="none" stroke="midnightblue" d="M528.104,-238.625C514.847,-247.216 490.885,-260.881 471.726,-270.877"/>
<polygon fill="midnightblue" stroke="midnightblue" points="470.086,-267.784 462.774,-275.45 473.271,-274.017 470.086,-267.784"/>
</g>
<!-- Node8&#45;&gt;Node3 -->
<g id="edge10" class="edge"><title>Node8&#45;&gt;Node3</title>
<path fill="none" stroke="midnightblue" d="M490.456,-228.344C415.665,-225.558 269.233,-209.369 182.488,-129 155.8,-104.274 132.761,-88.2682 147.488,-55 153.012,-42.5218 163.954,-32.0449 174.1,-24.3975"/>
<polygon fill="midnightblue" stroke="midnightblue" points="176.114,-27.26 182.299,-18.6575 172.099,-21.5258 176.114,-27.26"/>
</g>
<!-- Node8&#45;&gt;Node4 -->
<g id="edge13" class="edge"><title>Node8&#45;&gt;Node4</title>
<path fill="none" stroke="midnightblue" d="M490.489,-224.963C413.444,-217.409 257.55,-194.64 144.488,-129 110.872,-109.484 101.8,-103.5 76.4881,-74 64.3056,-59.8019 53.9405,-41.0369 47.3074,-27.594"/>
<polygon fill="midnightblue" stroke="midnightblue" points="50.4468,-26.0458 42.9942,-18.5153 44.1241,-29.0498 50.4468,-26.0458"/>
</g>
<!-- Node8&#45;&gt;Node6 -->
<g id="edge19" class="edge"><title>Node8&#45;&gt;Node6</title>
<path fill="none" stroke="midnightblue" d="M490.375,-223.99C425.469,-215.576 307.917,-192.171 231.488,-129 217.107,-117.113 207.646,-97.7047 202.229,-83.4688"/>
<polygon fill="midnightblue" stroke="midnightblue" points="205.455,-82.0923 198.86,-73.801 198.845,-84.3959 205.455,-82.0923"/>
</g>
<!-- Node8&#45;&gt;Node7 -->
<g id="edge14" class="edge"><title>Node8&#45;&gt;Node7</title>
<path fill="none" stroke="midnightblue" d="M584.621,-228.461C646.287,-226.907 756.698,-218.9 843.488,-184 919.527,-153.423 955.409,-147.587 991.488,-74 995.206,-66.4179 997.085,-61.323 991.488,-55 970.461,-31.2457 761.521,-17.5052 670.027,-12.585"/>
<polygon fill="midnightblue" stroke="midnightblue" points="670.16,-9.08728 659.99,-12.0554 669.791,-16.0776 670.16,-9.08728"/>
</g>
<!-- Node9 -->
<g id="node9" class="node"><title>Node9</title>
<polygon fill="white" stroke="#bfbfbf" points="792.092,-55.5 792.092,-73.5 840.885,-73.5 840.885,-55.5 792.092,-55.5"/>
<text text-anchor="middle" x="816.488" y="-61.5" font-family="Helvetica,sans-Serif" font-size="10.00">string.h</text>
</g>
<!-- Node8&#45;&gt;Node9 -->
<g id="edge11" class="edge"><title>Node8&#45;&gt;Node9</title>
<path fill="none" stroke="midnightblue" d="M584.479,-224.13C646.907,-217.647 753.195,-204.049 786.488,-184 813.069,-167.993 819.381,-158.336 829.488,-129 834.694,-113.889 830.122,-95.9992 825.019,-83.0655"/>
<polygon fill="midnightblue" stroke="midnightblue" points="828.219,-81.648 820.989,-73.9032 821.811,-84.4661 828.219,-81.648"/>
</g>
<!-- Node10 -->
<g id="node10" class="node"><title>Node10</title>
<polygon fill="white" stroke="#bfbfbf" points="934.646,-55.5 934.646,-73.5 982.33,-73.5 982.33,-55.5 934.646,-55.5"/>
<text text-anchor="middle" x="958.488" y="-61.5" font-family="Helvetica,sans-Serif" font-size="10.00">stdlib.h</text>
</g>
<!-- Node8&#45;&gt;Node10 -->
<g id="edge12" class="edge"><title>Node8&#45;&gt;Node10</title>
<path fill="none" stroke="midnightblue" d="M584.525,-228.263C641.216,-226.355 738.234,-217.834 813.488,-184 869.141,-158.979 921.129,-106.951 944.912,-80.9657"/>
<polygon fill="midnightblue" stroke="midnightblue" points="947.53,-83.2885 951.612,-73.5113 942.324,-78.6094 947.53,-83.2885"/>
</g>
<!-- Node11 -->
<g id="node11" class="node"><title>Node11</title>
<polygon fill="white" stroke="#bfbfbf" points="408.86,-55.5 408.86,-73.5 472.116,-73.5 472.116,-55.5 408.86,-55.5"/>
<text text-anchor="middle" x="440.488" y="-61.5" font-family="Helvetica,sans-Serif" font-size="10.00">arpa/inet.h</text>
</g>
<!-- Node8&#45;&gt;Node11 -->
<g id="edge15" class="edge"><title>Node8&#45;&gt;Node11</title>
<path fill="none" stroke="midnightblue" d="M518.153,-220.427C502.96,-213.103 482.433,-200.865 470.488,-184 448.781,-153.351 442.749,-108.447 441.094,-83.6436"/>
<polygon fill="midnightblue" stroke="midnightblue" points="444.582,-83.3227 440.592,-73.5082 437.591,-83.6691 444.582,-83.3227"/>
</g>
<!-- Node12 -->
<g id="node12" class="node"><title>Node12</title>
<polygon fill="white" stroke="#bfbfbf" points="489.978,-55.5 489.978,-73.5 560.998,-73.5 560.998,-55.5 489.978,-55.5"/>
<text text-anchor="middle" x="525.488" y="-61.5" font-family="Helvetica,sans-Serif" font-size="10.00">sys/socket.h</text>
</g>
<!-- Node8&#45;&gt;Node12 -->
<g id="edge16" class="edge"><title>Node8&#45;&gt;Node12</title>
<path fill="none" stroke="midnightblue" d="M520.532,-220.41C507.182,-213.005 489.531,-200.664 481.488,-184 467.192,-154.381 468.988,-140.421 481.488,-110 486.357,-98.1513 496.074,-87.7773 505.141,-80.0331"/>
<polygon fill="midnightblue" stroke="midnightblue" points="507.471,-82.6522 513.128,-73.6934 503.119,-77.1696 507.471,-82.6522"/>
</g>
<!-- Node13 -->
<g id="node13" class="node"><title>Node13</title>
<polygon fill="white" stroke="#bfbfbf" points="594.303,-165.5 594.303,-183.5 668.673,-183.5 668.673,-165.5 594.303,-165.5"/>
<text text-anchor="middle" x="631.488" y="-171.5" font-family="Helvetica,sans-Serif" font-size="10.00">semaphore.h</text>
</g>
<!-- Node8&#45;&gt;Node13 -->
<g id="edge17" class="edge"><title>Node8&#45;&gt;Node13</title>
<path fill="none" stroke="midnightblue" d="M551.765,-220.45C566.672,-212.045 590.298,-198.724 607.967,-188.762"/>
<polygon fill="midnightblue" stroke="midnightblue" points="610.085,-191.586 617.077,-183.625 606.647,-185.488 610.085,-191.586"/>
</g>
<!-- Node14 -->
<g id="node14" class="node"><title>Node14</title>
<polygon fill="white" stroke="#bfbfbf" points="722.976,-55.5 722.976,-73.5 774,-73.5 774,-55.5 722.976,-55.5"/>
<text text-anchor="middle" x="748.488" y="-61.5" font-family="Helvetica,sans-Serif" font-size="10.00">unistd.h</text>
</g>
<!-- Node8&#45;&gt;Node14 -->
<g id="edge18" class="edge"><title>Node8&#45;&gt;Node14</title>
<path fill="none" stroke="midnightblue" d="M584.657,-228.651C651.225,-225.895 769.521,-209.308 813.488,-129 824.956,-108.053 800.135,-89.6758 777.931,-78.1533"/>
<polygon fill="midnightblue" stroke="midnightblue" points="779.211,-74.8836 768.689,-73.6472 776.143,-81.1757 779.211,-74.8836"/>
</g>
<!-- Node15 -->
<g id="node15" class="node"><title>Node15</title>
<g id="a_node15"><a xlink:href="tcp_vehicle_socket_comm_8h.html" target="_top" xlink:title="Vehicle connection server&#39;s headers. ">
<polygon fill="white" stroke="black" points="674.515,-110.5 674.515,-128.5 804.461,-128.5 804.461,-110.5 674.515,-110.5"/>
<text text-anchor="middle" x="739.488" y="-116.5" font-family="Helvetica,sans-Serif" font-size="10.00">tcpVehicleSocketComm.h</text>
</a>
</g>
</g>
<!-- Node8&#45;&gt;Node15 -->
<g id="edge21" class="edge"><title>Node8&#45;&gt;Node15</title>
<path fill="none" stroke="midnightblue" d="M584.469,-222.219C615.395,-216.4 655.411,-205.256 685.488,-184 702.324,-172.101 715.076,-151.829 724.538,-137.392"/>
<polygon fill="midnightblue" stroke="midnightblue" points="727.583,-139.137 730.29,-128.893 721.786,-135.213 727.583,-139.137"/>
</g>
<!-- Node17 -->
<g id="node17" class="node"><title>Node17</title>
<g id="a_node17"><a xlink:href="station_actions_8h.html" target="_top" xlink:title="FIle containing all the station action headers. ">
<polygon fill="white" stroke="black" points="490.19,-165.5 490.19,-183.5 576.786,-183.5 576.786,-165.5 490.19,-165.5"/>
<text text-anchor="middle" x="533.488" y="-171.5" font-family="Helvetica,sans-Serif" font-size="10.00">stationActions.h</text>
</a>
</g>
</g>
<!-- Node8&#45;&gt;Node17 -->
<g id="edge62" class="edge"><title>Node8&#45;&gt;Node17</title>
<path fill="none" stroke="midnightblue" d="M531.801,-220.219C529.651,-213.099 528.4,-202.577 528.415,-193.529"/>
<polygon fill="midnightblue" stroke="midnightblue" points="531.907,-193.762 529.086,-183.55 524.923,-193.292 531.907,-193.762"/>
</g>
<!-- Node15&#45;&gt;Node2 -->
<g id="edge31" class="edge"><title>Node15&#45;&gt;Node2</title>
<path fill="none" stroke="midnightblue" d="M740.245,-128.519C741.035,-141.634 740.675,-167.827 727.488,-184 669.163,-255.532 556.087,-275.721 491.604,-281.365"/>
<polygon fill="midnightblue" stroke="midnightblue" points="490.997,-277.902 481.304,-282.178 491.549,-284.88 490.997,-277.902"/>
</g>
<!-- Node15&#45;&gt;Node3 -->
<g id="edge22" class="edge"><title>Node15&#45;&gt;Node3</title>
<path fill="none" stroke="midnightblue" d="M779.612,-110.48C820.482,-100.62 874.551,-81.8292 849.488,-55 828.103,-32.1081 358.895,-15.6311 229.356,-11.5067"/>
<polygon fill="midnightblue" stroke="midnightblue" points="229.359,-8.00519 219.253,-11.1883 229.138,-15.0017 229.359,-8.00519"/>
</g>
<!-- Node15&#45;&gt;Node6 -->
<g id="edge30" class="edge"><title>Node15&#45;&gt;Node6</title>
<path fill="none" stroke="midnightblue" d="M674.437,-112.411C584.988,-103.997 418.996,-88.2396 277.488,-74 265.628,-72.8065 252.794,-71.4773 240.915,-70.2311"/>
<polygon fill="midnightblue" stroke="midnightblue" points="241.082,-66.7294 230.77,-69.1629 240.349,-73.6909 241.082,-66.7294"/>
</g>
<!-- Node15&#45;&gt;Node7 -->
<g id="edge26" class="edge"><title>Node15&#45;&gt;Node7</title>
<path fill="none" stroke="midnightblue" d="M804.756,-111.143C854.025,-102.958 908.969,-86.5021 882.488,-55 855.863,-23.326 735.596,-14.1943 670.183,-11.5634"/>
<polygon fill="midnightblue" stroke="midnightblue" points="670.301,-8.0654 660.178,-11.1945 670.043,-15.0606 670.301,-8.0654"/>
</g>
<!-- Node15&#45;&gt;Node8 -->
<g id="edge32" class="edge"><title>Node15&#45;&gt;Node8</title>
<path fill="none" stroke="midnightblue" d="M741.386,-128.893C738.467,-142.546 724.012,-169.495 703.488,-184 671.692,-206.472 628.786,-217.641 594.471,-223.167"/>
<polygon fill="midnightblue" stroke="midnightblue" points="593.953,-219.705 584.579,-224.643 594.987,-226.628 593.953,-219.705"/>
</g>
<!-- Node15&#45;&gt;Node9 -->
<g id="edge25" class="edge"><title>Node15&#45;&gt;Node9</title>
<path fill="none" stroke="midnightblue" d="M751.183,-110.45C763.168,-102.201 782.033,-89.2158 796.412,-79.3187"/>
<polygon fill="midnightblue" stroke="midnightblue" points="798.431,-82.1782 804.683,-73.6253 794.462,-76.4121 798.431,-82.1782"/>
</g>
<!-- Node15&#45;&gt;Node10 -->
<g id="edge23" class="edge"><title>Node15&#45;&gt;Node10</title>
<path fill="none" stroke="midnightblue" d="M772.749,-110.45C813.784,-100.52 883.177,-83.7259 924.53,-73.7181"/>
<polygon fill="midnightblue" stroke="midnightblue" points="925.509,-77.0824 934.405,-71.3283 923.862,-70.2788 925.509,-77.0824"/>
</g>
<!-- Node15&#45;&gt;Node11 -->
<g id="edge27" class="edge"><title>Node15&#45;&gt;Node11</title>
<path fill="none" stroke="midnightblue" d="M689.247,-110.467C639.131,-102.32 559.697,-89.044 482.264,-74.2878"/>
<polygon fill="midnightblue" stroke="midnightblue" points="482.822,-70.8312 472.342,-72.3867 481.505,-77.7061 482.822,-70.8312"/>
</g>
<!-- Node15&#45;&gt;Node12 -->
<g id="edge28" class="edge"><title>Node15&#45;&gt;Node12</title>
<path fill="none" stroke="midnightblue" d="M706.986,-110.45C669.798,-101.24 608.777,-86.1276 567.881,-75.9993"/>
<polygon fill="midnightblue" stroke="midnightblue" points="568.493,-72.545 557.945,-73.5383 566.81,-79.3397 568.493,-72.545"/>
</g>
<!-- Node15&#45;&gt;Node14 -->
<g id="edge24" class="edge"><title>Node15&#45;&gt;Node14</title>
<path fill="none" stroke="midnightblue" d="M740.894,-110.219C742.103,-103.099 743.89,-92.5775 745.427,-83.5289"/>
<polygon fill="midnightblue" stroke="midnightblue" points="748.898,-83.9944 747.121,-73.5496 741.996,-82.8224 748.898,-83.9944"/>
</g>
<!-- Node16 -->
<g id="node16" class="node"><title>Node16</title>
<polygon fill="white" stroke="#bfbfbf" points="655.806,-55.5 655.806,-73.5 705.17,-73.5 705.17,-55.5 655.806,-55.5"/>
<text text-anchor="middle" x="680.488" y="-61.5" font-family="Helvetica,sans-Serif" font-size="10.00">netdb.h</text>
</g>
<!-- Node15&#45;&gt;Node16 -->
<g id="edge29" class="edge"><title>Node15&#45;&gt;Node16</title>
<path fill="none" stroke="midnightblue" d="M730.527,-110.45C721.69,-102.512 707.972,-90.1891 697.133,-80.4519"/>
<polygon fill="midnightblue" stroke="midnightblue" points="699.311,-77.7043 689.533,-73.6253 694.634,-82.9118 699.311,-77.7043"/>
</g>
<!-- Node15&#45;&gt;Node17 -->
<g id="edge33" class="edge"><title>Node15&#45;&gt;Node17</title>
<path fill="none" stroke="midnightblue" d="M713.252,-128.538C679.543,-137.763 620.795,-152.92 579.594,-163.053"/>
<polygon fill="midnightblue" stroke="midnightblue" points="578.667,-159.676 569.784,-165.45 580.329,-166.476 578.667,-159.676"/>
</g>
<!-- Node17&#45;&gt;Node2 -->
<g id="edge40" class="edge"><title>Node17&#45;&gt;Node2</title>
<path fill="none" stroke="midnightblue" d="M521.786,-183.764C510.568,-192.066 493.599,-205.654 481.488,-220 469.469,-234.238 458.872,-252.724 451.943,-266.075"/>
<polygon fill="midnightblue" stroke="midnightblue" points="448.757,-264.621 447.397,-275.129 455.012,-267.763 448.757,-264.621"/>
</g>
<!-- Node17&#45;&gt;Node3 -->
<g id="edge34" class="edge"><title>Node17&#45;&gt;Node3</title>
<path fill="none" stroke="midnightblue" d="M490.099,-173.355C429.93,-171.782 318.716,-163.863 231.488,-129 192.099,-113.257 173.013,-111.658 153.488,-74 144.232,-56.1483 160.864,-37.2586 176.06,-24.7691"/>
<polygon fill="midnightblue" stroke="midnightblue" points="178.379,-27.4014 184.18,-18.5362 174.117,-21.8485 178.379,-27.4014"/>
</g>
<!-- Node17&#45;&gt;Node4 -->
<g id="edge36" class="edge"><title>Node17&#45;&gt;Node4</title>
<path fill="none" stroke="midnightblue" d="M490.06,-171.025C408.755,-165.896 236.873,-152.576 182.488,-129 127.205,-105.035 76.4326,-52.9128 53.044,-26.5119"/>
<polygon fill="midnightblue" stroke="midnightblue" points="55.3937,-23.8796 46.1951,-18.6225 50.1077,-28.4685 55.3937,-23.8796"/>
</g>
<!-- Node17&#45;&gt;Node6 -->
<g id="edge38" class="edge"><title>Node17&#45;&gt;Node6</title>
<path fill="none" stroke="midnightblue" d="M489.831,-174.406C433.724,-173.833 334.713,-166.847 260.488,-129 238.779,-117.931 219.804,-96.8394 208.267,-82.0101"/>
<polygon fill="midnightblue" stroke="midnightblue" points="210.874,-79.6511 202.087,-73.7315 205.265,-83.8386 210.874,-79.6511"/>
</g>
<!-- Node17&#45;&gt;Node8 -->
<g id="edge39" class="edge"><title>Node17&#45;&gt;Node8</title>
<path fill="none" stroke="midnightblue" d="M539.105,-183.55C541.274,-190.595 542.549,-201.094 542.561,-210.175"/>
<polygon fill="midnightblue" stroke="midnightblue" points="539.064,-210.018 541.926,-220.219 546.05,-210.46 539.064,-210.018"/>
</g>
<!-- Node17&#45;&gt;Node10 -->
<g id="edge35" class="edge"><title>Node17&#45;&gt;Node10</title>
<path fill="none" stroke="midnightblue" d="M576.897,-166.386C579.804,-165.915 582.688,-165.45 585.488,-165 686.778,-148.725 715.029,-157.813 813.488,-129 857.608,-116.089 905.98,-92.9382 934.209,-78.4423"/>
<polygon fill="midnightblue" stroke="midnightblue" points="936.058,-81.4263 943.314,-73.7069 932.828,-75.216 936.058,-81.4263"/>
</g>
<!-- Node17&#45;&gt;Node14 -->
<g id="edge37" class="edge"><title>Node17&#45;&gt;Node14</title>
<path fill="none" stroke="midnightblue" d="M551.264,-165.35C570.245,-156.586 601.152,-142.137 627.488,-129 661.598,-111.985 700.555,-91.3146 724.838,-78.2797"/>
<polygon fill="midnightblue" stroke="midnightblue" points="726.539,-81.339 733.687,-73.5188 723.222,-75.1745 726.539,-81.339"/>
</g>
<!-- Node17&#45;&gt;Node15 -->
<g id="edge53" class="edge"><title>Node17&#45;&gt;Node15</title>
<path fill="none" stroke="midnightblue" d="M559.766,-165.45C593.494,-156.221 652.245,-141.063 693.432,-130.935"/>
<polygon fill="midnightblue" stroke="midnightblue" points="694.355,-134.313 703.238,-128.538 692.693,-127.513 694.355,-134.313"/>
</g>
<!-- Node18 -->
<g id="node18" class="node"><title>Node18</title>
<g id="a_node18"><a xlink:href="tcp_server_socket_comm_8h.html" target="_top" xlink:title="Server connection related function definitions. ">
<polygon fill="white" stroke="black" points="490.914,-110.5 490.914,-128.5 618.062,-128.5 618.062,-110.5 490.914,-110.5"/>
<text text-anchor="middle" x="554.488" y="-116.5" font-family="Helvetica,sans-Serif" font-size="10.00">tcpServerSocketComm.h</text>
</a>
</g>
</g>
<!-- Node17&#45;&gt;Node18 -->
<g id="edge41" class="edge"><title>Node17&#45;&gt;Node18</title>
<path fill="none" stroke="midnightblue" d="M536.769,-165.219C539.653,-157.942 543.943,-147.113 547.58,-137.934"/>
<polygon fill="midnightblue" stroke="midnightblue" points="550.869,-139.136 551.299,-128.55 544.361,-136.557 550.869,-139.136"/>
</g>
<!-- Node19 -->
<g id="node19" class="node"><title>Node19</title>
<g id="a_node19"><a xlink:href="mcast_messaging_8h.html" target="_top" xlink:title="FIle containing all the headers of the functions related to multicast communication. ">
<polygon fill="white" stroke="black" points="269.803,-110.5 269.803,-128.5 369.173,-128.5 369.173,-110.5 269.803,-110.5"/>
<text text-anchor="middle" x="319.488" y="-116.5" font-family="Helvetica,sans-Serif" font-size="10.00">mcastMessaging.h</text>
</a>
</g>
</g>
<!-- Node17&#45;&gt;Node19 -->
<g id="edge54" class="edge"><title>Node17&#45;&gt;Node19</title>
<path fill="none" stroke="midnightblue" d="M500.986,-165.45C463.798,-156.24 402.777,-141.128 361.881,-130.999"/>
<polygon fill="midnightblue" stroke="midnightblue" points="362.493,-127.545 351.945,-128.538 360.81,-134.34 362.493,-127.545"/>
</g>
<!-- Node18&#45;&gt;Node2 -->
<g id="edge51" class="edge"><title>Node18&#45;&gt;Node2</title>
<path fill="none" stroke="midnightblue" d="M533.395,-128.508C517.05,-135.727 494.983,-147.855 481.488,-165 457.84,-195.044 448.728,-240.18 445.355,-265.184"/>
<polygon fill="midnightblue" stroke="midnightblue" points="441.845,-265.067 444.15,-275.408 448.797,-265.887 441.845,-265.067"/>
</g>
<!-- Node18&#45;&gt;Node3 -->
<g id="edge42" class="edge"><title>Node18&#45;&gt;Node3</title>
<path fill="none" stroke="midnightblue" d="M560.572,-110.4C569.721,-97.168 584.53,-70.8112 570.488,-55 547.98,-29.6555 316.572,-16.1733 229.435,-11.9645"/>
<polygon fill="midnightblue" stroke="midnightblue" points="229.464,-8.46206 219.31,-11.4861 229.134,-15.4543 229.464,-8.46206"/>
</g>
<!-- Node18&#45;&gt;Node6 -->
<g id="edge50" class="edge"><title>Node18&#45;&gt;Node6</title>
<path fill="none" stroke="midnightblue" d="M500.116,-110.45C429.189,-99.9502 306.438,-81.7774 240.84,-72.0661"/>
<polygon fill="midnightblue" stroke="midnightblue" points="241.224,-68.5849 230.82,-70.5826 240.199,-75.5094 241.224,-68.5849"/>
</g>
<!-- Node18&#45;&gt;Node7 -->
<g id="edge46" class="edge"><title>Node18&#45;&gt;Node7</title>
<path fill="none" stroke="midnightblue" d="M566.461,-110.219C577.414,-102.104 593.404,-88.8216 603.488,-74 612.914,-60.1452 619.273,-42.0916 623.064,-28.7776"/>
<polygon fill="midnightblue" stroke="midnightblue" points="626.502,-29.4657 625.656,-18.9047 619.732,-27.6885 626.502,-29.4657"/>
</g>
<!-- Node18&#45;&gt;Node8 -->
<g id="edge52" class="edge"><title>Node18&#45;&gt;Node8</title>
<path fill="none" stroke="midnightblue" d="M608.327,-128.568C650.705,-137.327 699.266,-154.226 677.488,-184 658.549,-209.892 624.424,-221.083 594.607,-225.77"/>
<polygon fill="midnightblue" stroke="midnightblue" points="594.125,-222.303 584.689,-227.121 595.07,-229.239 594.125,-222.303"/>
</g>
<!-- Node18&#45;&gt;Node9 -->
<g id="edge45" class="edge"><title>Node18&#45;&gt;Node9</title>
<path fill="none" stroke="midnightblue" d="M600.278,-110.44C644.454,-102.476 713.433,-89.552 781.921,-74.2516"/>
<polygon fill="midnightblue" stroke="midnightblue" points="783.033,-77.5889 792.019,-71.9772 781.495,-70.76 783.033,-77.5889"/>
</g>
<!-- Node18&#45;&gt;Node10 -->
<g id="edge43" class="edge"><title>Node18&#45;&gt;Node10</title>
<path fill="none" stroke="midnightblue" d="M615.847,-110.45C701.963,-99.153 855.78,-78.974 924.127,-70.0077"/>
<polygon fill="midnightblue" stroke="midnightblue" points="924.88,-73.4391 934.339,-68.668 923.969,-66.4986 924.88,-73.4391"/>
</g>
<!-- Node18&#45;&gt;Node11 -->
<g id="edge47" class="edge"><title>Node18&#45;&gt;Node11</title>
<path fill="none" stroke="midnightblue" d="M537.174,-110.45C518.593,-101.812 488.842,-87.9803 467.245,-77.9396"/>
<polygon fill="midnightblue" stroke="midnightblue" points="468.509,-74.6674 457.965,-73.6253 465.558,-81.0149 468.509,-74.6674"/>
</g>
<!-- Node18&#45;&gt;Node12 -->
<g id="edge48" class="edge"><title>Node18&#45;&gt;Node12</title>
<path fill="none" stroke="midnightblue" d="M549.957,-110.219C545.89,-102.786 539.794,-91.646 534.705,-82.3446"/>
<polygon fill="midnightblue" stroke="midnightblue" points="537.763,-80.6421 529.893,-73.5496 531.622,-84.0023 537.763,-80.6421"/>
</g>
<!-- Node18&#45;&gt;Node14 -->
<g id="edge44" class="edge"><title>Node18&#45;&gt;Node14</title>
<path fill="none" stroke="midnightblue" d="M583.952,-110.45C618.542,-101.001 675.876,-85.3373 712.912,-75.2192"/>
<polygon fill="midnightblue" stroke="midnightblue" points="714.06,-78.5339 722.784,-72.5222 712.215,-71.7814 714.06,-78.5339"/>
</g>
<!-- Node18&#45;&gt;Node16 -->
<g id="edge49" class="edge"><title>Node18&#45;&gt;Node16</title>
<path fill="none" stroke="midnightblue" d="M573.625,-110.45C594.439,-101.695 627.935,-87.6055 651.877,-77.5346"/>
<polygon fill="midnightblue" stroke="midnightblue" points="653.311,-80.7289 661.171,-73.6253 650.596,-74.2765 653.311,-80.7289"/>
</g>
<!-- Node19&#45;&gt;Node2 -->
<g id="edge61" class="edge"><title>Node19&#45;&gt;Node2</title>
<path fill="none" stroke="midnightblue" d="M325.648,-128.597C344.998,-154.034 404.831,-232.685 431.01,-267.097"/>
<polygon fill="midnightblue" stroke="midnightblue" points="428.328,-269.353 437.168,-275.193 433.899,-265.115 428.328,-269.353"/>
</g>
<!-- Node19&#45;&gt;Node3 -->
<g id="edge55" class="edge"><title>Node19&#45;&gt;Node3</title>
<path fill="none" stroke="midnightblue" d="M310.243,-110.382C289.674,-92.3222 239.87,-48.5913 213.509,-25.4449"/>
<polygon fill="midnightblue" stroke="midnightblue" points="215.664,-22.6797 205.84,-18.7118 211.045,-27.9398 215.664,-22.6797"/>
</g>
<!-- Node19&#45;&gt;Node6 -->
<g id="edge60" class="edge"><title>Node19&#45;&gt;Node6</title>
<path fill="none" stroke="midnightblue" d="M300.807,-110.45C280.578,-101.734 248.08,-87.7306 224.73,-77.6691"/>
<polygon fill="midnightblue" stroke="midnightblue" points="225.914,-74.3683 215.345,-73.6253 223.144,-80.7969 225.914,-74.3683"/>
</g>
<!-- Node19&#45;&gt;Node7 -->
<g id="edge58" class="edge"><title>Node19&#45;&gt;Node7</title>
<path fill="none" stroke="midnightblue" d="M327.014,-110.393C340.259,-96.6584 369.212,-68.9527 399.488,-55 459.931,-27.1451 537.188,-16.7106 584.468,-12.812"/>
<polygon fill="midnightblue" stroke="midnightblue" points="584.955,-16.2851 594.66,-12.035 584.423,-9.30538 584.955,-16.2851"/>
</g>
<!-- Node19&#45;&gt;Node11 -->
<g id="edge59" class="edge"><title>Node19&#45;&gt;Node11</title>
<path fill="none" stroke="midnightblue" d="M337.865,-110.45C357.765,-101.734 389.735,-87.7306 412.706,-77.6691"/>
<polygon fill="midnightblue" stroke="midnightblue" points="414.182,-80.8435 421.938,-73.6253 411.374,-74.4316 414.182,-80.8435"/>
</g>
<!-- Node19&#45;&gt;Node12 -->
<g id="edge57" class="edge"><title>Node19&#45;&gt;Node12</title>
<path fill="none" stroke="midnightblue" d="M350.775,-110.45C386.497,-101.26 445.064,-86.1916 484.429,-76.0637"/>
<polygon fill="midnightblue" stroke="midnightblue" points="485.432,-79.4197 494.245,-73.5383 483.688,-72.6404 485.432,-79.4197"/>
</g>
<!-- Node20 -->
<g id="node20" class="node"><title>Node20</title>
<polygon fill="white" stroke="#bfbfbf" points="286.478,-55.5 286.478,-73.5 352.498,-73.5 352.498,-55.5 286.478,-55.5"/>
<text text-anchor="middle" x="319.488" y="-61.5" font-family="Helvetica,sans-Serif" font-size="10.00">sys/types.h</text>
</g>
<!-- Node19&#45;&gt;Node20 -->
<g id="edge56" class="edge"><title>Node19&#45;&gt;Node20</title>
<path fill="none" stroke="midnightblue" d="M319.488,-110.219C319.488,-103.177 319.488,-92.8083 319.488,-83.8277"/>
<polygon fill="midnightblue" stroke="midnightblue" points="322.988,-83.5495 319.488,-73.5496 315.988,-83.5496 322.988,-83.5495"/>
</g>
</g>
</svg>
