<?xml version="1.0" encoding="UTF-8" standalone="no"?>
<!DOCTYPE svg PUBLIC "-//W3C//DTD SVG 1.1//EN"
 "http://www.w3.org/Graphics/SVG/1.1/DTD/svg11.dtd">
<!-- Generated by graphviz version 2.38.0 (20140413.2041)
 -->
<!-- Title: MB_initBuffer Pages: 1 -->
<svg width="1074pt" height="178pt"
 viewBox="0.00 0.00 1073.69 178.00" xmlns="http://www.w3.org/2000/svg" xmlns:xlink="http://www.w3.org/1999/xlink">
<g id="graph0" class="graph" transform="scale(1 1) rotate(0) translate(4 174)">
<title>MB_initBuffer</title>
<polygon fill="white" stroke="none" points="-4,4 -4,-174 1069.69,-174 1069.69,4 -4,4"/>
<!-- Node1 -->
<g id="node1" class="node"><title>Node1</title>
<polygon fill="#bfbfbf" stroke="black" points="0,-75.5 0,-93.5 75.8486,-93.5 75.8486,-75.5 0,-75.5"/>
<text text-anchor="middle" x="37.9243" y="-81.5" font-family="Helvetica,sans-Serif" font-size="10.00">MB_initBuffer</text>
</g>
<!-- Node2 -->
<g id="node2" class="node"><title>Node2</title>
<g id="a_node2"><a xlink:href="mcast_messaging_8h.html#a4fd8b31a6cdd8fa515f1b3680a754def" target="_top" xlink:title="Intialize the multicast UDP listener and sender. ">
<polygon fill="white" stroke="black" points="111.849,-151.5 111.849,-169.5 226.198,-169.5 226.198,-151.5 111.849,-151.5"/>
<text text-anchor="middle" x="169.023" y="-157.5" font-family="Helvetica,sans-Serif" font-size="10.00">MCM_initMcastServer</text>
</a>
</g>
</g>
<!-- Node1&#45;&gt;Node2 -->
<g id="edge1" class="edge"><title>Node1&#45;&gt;Node2</title>
<path fill="none" stroke="midnightblue" d="M58.3436,-100.106C72.613,-111.127 92.7607,-125.783 111.849,-136.5 121.928,-142.159 133.608,-147.35 143.699,-151.446"/>
<polygon fill="midnightblue" stroke="midnightblue" points="60.3089,-97.1991 50.2806,-93.7809 55.9885,-102.707 60.3089,-97.1991"/>
</g>
<!-- Node5 -->
<g id="node5" class="node"><title>Node5</title>
<g id="a_node5"><a xlink:href="message_parser_8h.html#a0a5ee1ec225573ebc80059d6bce9e0d6" target="_top" xlink:title="Parser thread initializer. ">
<polygon fill="white" stroke="black" points="913.216,-102.5 913.216,-120.5 992.014,-120.5 992.014,-102.5 913.216,-102.5"/>
<text text-anchor="middle" x="952.615" y="-108.5" font-family="Helvetica,sans-Serif" font-size="10.00">MP_initParser</text>
</a>
</g>
</g>
<!-- Node1&#45;&gt;Node5 -->
<g id="edge4" class="edge"><title>Node1&#45;&gt;Node5</title>
<path fill="none" stroke="midnightblue" d="M81.1239,-96.0125C91.1373,-98.439 101.823,-100.781 111.849,-102.5 201.784,-117.918 224.931,-122.5 316.178,-122.5 316.178,-122.5 316.178,-122.5 645.357,-122.5 741.656,-122.5 854.879,-117.001 912.954,-113.779"/>
<polygon fill="midnightblue" stroke="midnightblue" points="81.9343,-92.6075 71.384,-93.578 80.2368,-99.3985 81.9343,-92.6075"/>
</g>
<!-- Node6 -->
<g id="node6" class="node"><title>Node6</title>
<g id="a_node6"><a xlink:href="station_actions_8h.html#ac5974717372c28efe7b4e33f68ef895b" target="_top" xlink:title="Function to initialize a new vehicle structure. ">
<polygon fill="white" stroke="black" points="129.056,-75.5 129.056,-93.5 208.991,-93.5 208.991,-75.5 129.056,-75.5"/>
<text text-anchor="middle" x="169.023" y="-81.5" font-family="Helvetica,sans-Serif" font-size="10.00">SA_initVehicle</text>
</a>
</g>
</g>
<!-- Node1&#45;&gt;Node6 -->
<g id="edge6" class="edge"><title>Node1&#45;&gt;Node6</title>
<path fill="none" stroke="midnightblue" d="M86.3188,-84.5C100.275,-84.5 115.385,-84.5 128.77,-84.5"/>
<polygon fill="midnightblue" stroke="midnightblue" points="85.919,-81.0001 75.9189,-84.5 85.9189,-88.0001 85.919,-81.0001"/>
</g>
<!-- Node7 -->
<g id="node7" class="node"><title>Node7</title>
<g id="a_node7"><a xlink:href="station_actions_8h.html#adef80b5aef5924633f2ef4b37eecc820" target="_top" xlink:title="Add a new vehicle to the vehicle list. ">
<polygon fill="white" stroke="black" points="262.198,-56.5 262.198,-74.5 372.158,-74.5 372.158,-56.5 262.198,-56.5"/>
<text text-anchor="middle" x="317.178" y="-62.5" font-family="Helvetica,sans-Serif" font-size="10.00">SA_addVehicleToList</text>
</a>
</g>
</g>
<!-- Node1&#45;&gt;Node7 -->
<g id="edge13" class="edge"><title>Node1&#45;&gt;Node7</title>
<path fill="none" stroke="midnightblue" d="M76.5727,-72.7395C87.8058,-69.763 100.224,-66.9895 111.849,-65.5 162.517,-59.0077 220.834,-59.8193 262.164,-61.772"/>
<polygon fill="midnightblue" stroke="midnightblue" points="75.3436,-69.4484 66.6465,-75.4991 77.2186,-76.1926 75.3436,-69.4484"/>
</g>
<!-- Node11 -->
<g id="node11" class="node"><title>Node11</title>
<g id="a_node11"><a xlink:href="tcp_server_socket_comm_8h.html#ae12d709dd8d0c5c39e8949dfa433dff4" target="_top" xlink:title="Initialize the buffers involved in the server communication. ">
<polygon fill="white" stroke="black" points="273.973,-0.5 273.973,-18.5 360.383,-18.5 360.383,-0.5 273.973,-0.5"/>
<text text-anchor="middle" x="317.178" y="-6.5" font-family="Helvetica,sans-Serif" font-size="10.00">SSC_initBuffers</text>
</a>
</g>
</g>
<!-- Node1&#45;&gt;Node11 -->
<g id="edge14" class="edge"><title>Node1&#45;&gt;Node11</title>
<path fill="none" stroke="midnightblue" d="M69.3993,-71.7001C82.3435,-66.5517 97.6885,-60.8236 111.849,-56.5 167.028,-39.6517 232.207,-25.6496 273.85,-17.4278"/>
<polygon fill="midnightblue" stroke="midnightblue" points="67.9858,-68.4964 60.0283,-75.4913 70.611,-74.9854 67.9858,-68.4964"/>
</g>
<!-- Node3 -->
<g id="node3" class="node"><title>Node3</title>
<g id="a_node3"><a xlink:href="main_8c.html#a82a03c8bafdc8925bacf4693a1c5e794" target="_top" xlink:title="Thread for controlling the multicast server initialization and shutdown. ">
<polygon fill="white" stroke="black" points="579.108,-151.5 579.108,-169.5 709.605,-169.5 709.605,-151.5 579.108,-151.5"/>
<text text-anchor="middle" x="644.357" y="-157.5" font-family="Helvetica,sans-Serif" font-size="10.00">mcastConnControlThread</text>
</a>
</g>
</g>
<!-- Node2&#45;&gt;Node3 -->
<g id="edge2" class="edge"><title>Node2&#45;&gt;Node3</title>
<path fill="none" stroke="midnightblue" d="M236.827,-160.5C327.656,-160.5 489.043,-160.5 578.729,-160.5"/>
<polygon fill="midnightblue" stroke="midnightblue" points="236.648,-157 226.648,-160.5 236.648,-164 236.648,-157"/>
</g>
<!-- Node4 -->
<g id="node4" class="node"><title>Node4</title>
<g id="a_node4"><a xlink:href="main_8c.html#ac0f2228420376f4db7e1274f2b41667c" target="_top" xlink:title="main">
<polygon fill="white" stroke="black" points="1028.01,-102.5 1028.01,-120.5 1065.69,-120.5 1065.69,-102.5 1028.01,-102.5"/>
<text text-anchor="middle" x="1046.85" y="-108.5" font-family="Helvetica,sans-Serif" font-size="10.00">main</text>
</a>
</g>
</g>
<!-- Node3&#45;&gt;Node4 -->
<g id="edge3" class="edge"><title>Node3&#45;&gt;Node4</title>
<path fill="none" stroke="midnightblue" d="M719.806,-159.478C790.558,-157.237 899.577,-150.473 992.014,-130.5 1004.22,-127.862 1017.45,-123.218 1027.75,-119.182"/>
<polygon fill="midnightblue" stroke="midnightblue" points="719.544,-155.984 709.651,-159.777 719.75,-162.981 719.544,-155.984"/>
</g>
<!-- Node5&#45;&gt;Node4 -->
<g id="edge5" class="edge"><title>Node5&#45;&gt;Node4</title>
<path fill="none" stroke="midnightblue" d="M1002.33,-111.5C1011.32,-111.5 1020.18,-111.5 1027.53,-111.5"/>
<polygon fill="midnightblue" stroke="midnightblue" points="1002.2,-108 992.197,-111.5 1002.2,-115 1002.2,-108"/>
</g>
<!-- Node6&#45;&gt;Node7 -->
<g id="edge7" class="edge"><title>Node6&#45;&gt;Node7</title>
<path fill="none" stroke="midnightblue" d="M219.401,-78.0809C233.121,-76.2973 248.091,-74.3512 262.067,-72.5344"/>
<polygon fill="midnightblue" stroke="midnightblue" points="218.656,-74.6483 209.19,-79.4083 219.558,-81.5899 218.656,-74.6483"/>
</g>
<!-- Node8 -->
<g id="node8" class="node"><title>Node8</title>
<g id="a_node8"><a xlink:href="message_parser_8h.html#a37ec21f46c51967253a4e2da9ab6f063" target="_top" xlink:title="Message parser main function. ">
<polygon fill="white" stroke="black" points="593.281,-75.5 593.281,-93.5 695.433,-93.5 695.433,-75.5 593.281,-75.5"/>
<text text-anchor="middle" x="644.357" y="-81.5" font-family="Helvetica,sans-Serif" font-size="10.00">MP_parseMessage</text>
</a>
</g>
</g>
<!-- Node7&#45;&gt;Node8 -->
<g id="edge8" class="edge"><title>Node7&#45;&gt;Node8</title>
<path fill="none" stroke="midnightblue" d="M382.275,-69.2451C444.129,-72.8592 536.5,-78.2564 593.177,-81.568"/>
<polygon fill="midnightblue" stroke="midnightblue" points="382.427,-65.7481 372.24,-68.6588 382.019,-72.7362 382.427,-65.7481"/>
</g>
<!-- Node10 -->
<g id="node10" class="node"><title>Node10</title>
<g id="a_node10"><a xlink:href="station_actions_8h.html#a1e710f6898a01da9a953e7fed354c358" target="_top" xlink:title="Function to treat the initial vehicle list message. ">
<polygon fill="white" stroke="black" points="420.109,-37.5 420.109,-55.5 531.158,-55.5 531.158,-37.5 420.109,-37.5"/>
<text text-anchor="middle" x="475.633" y="-43.5" font-family="Helvetica,sans-Serif" font-size="10.00">SA_treatListMessage</text>
</a>
</g>
</g>
<!-- Node7&#45;&gt;Node10 -->
<g id="edge11" class="edge"><title>Node7&#45;&gt;Node10</title>
<path fill="none" stroke="midnightblue" d="M382.705,-57.6639C395.067,-56.1626 407.901,-54.6041 419.918,-53.1447"/>
<polygon fill="midnightblue" stroke="midnightblue" points="381.965,-54.2279 372.46,-58.908 382.809,-61.1769 381.965,-54.2279"/>
</g>
<!-- Node9 -->
<g id="node9" class="node"><title>Node9</title>
<g id="a_node9"><a xlink:href="message_parser_8h.html#a995d4c39c3939fa306e45d06589bf8c0" target="_top" xlink:title="Thread function for the parser thread. ">
<polygon fill="white" stroke="black" points="762.561,-75.5 762.561,-93.5 860.26,-93.5 860.26,-75.5 762.561,-75.5"/>
<text text-anchor="middle" x="811.411" y="-81.5" font-family="Helvetica,sans-Serif" font-size="10.00">MP_ParserThread</text>
</a>
</g>
</g>
<!-- Node8&#45;&gt;Node9 -->
<g id="edge9" class="edge"><title>Node8&#45;&gt;Node9</title>
<path fill="none" stroke="midnightblue" d="M705.949,-84.5C724.609,-84.5 744.881,-84.5 762.559,-84.5"/>
<polygon fill="midnightblue" stroke="midnightblue" points="705.775,-81.0001 695.775,-84.5 705.775,-88.0001 705.775,-81.0001"/>
</g>
<!-- Node9&#45;&gt;Node5 -->
<g id="edge10" class="edge"><title>Node9&#45;&gt;Node5</title>
<path fill="none" stroke="midnightblue" d="M869.21,-95.5167C883.972,-98.38 899.53,-101.398 913.103,-104.03"/>
<polygon fill="midnightblue" stroke="midnightblue" points="869.634,-92.0339 859.151,-93.5657 868.301,-98.9059 869.634,-92.0339"/>
</g>
<!-- Node10&#45;&gt;Node8 -->
<g id="edge12" class="edge"><title>Node10&#45;&gt;Node8</title>
<path fill="none" stroke="midnightblue" d="M526.098,-57.7741C550.916,-63.4307 580.566,-70.1885 603.841,-75.4934"/>
<polygon fill="midnightblue" stroke="midnightblue" points="526.672,-54.3153 516.144,-55.5055 525.117,-61.1403 526.672,-54.3153"/>
</g>
<!-- Node12 -->
<g id="node12" class="node"><title>Node12</title>
<g id="a_node12"><a xlink:href="tcp_server_socket_comm_8h.html#a64aaa41ac5e2fbe7f8ba88c053b49ff9" target="_top" xlink:title="Initialize the connection to the server. ">
<polygon fill="white" stroke="black" points="408.158,-0.5 408.158,-18.5 543.108,-18.5 543.108,-0.5 408.158,-0.5"/>
<text text-anchor="middle" x="475.633" y="-6.5" font-family="Helvetica,sans-Serif" font-size="10.00">SSC_initServerConnection</text>
</a>
</g>
</g>
<!-- Node11&#45;&gt;Node12 -->
<g id="edge15" class="edge"><title>Node11&#45;&gt;Node12</title>
<path fill="none" stroke="midnightblue" d="M370.78,-9.5C382.759,-9.5 395.64,-9.5 408.114,-9.5"/>
<polygon fill="midnightblue" stroke="midnightblue" points="370.517,-6.0001 360.517,-9.5 370.517,-13.0001 370.517,-6.0001"/>
</g>
<!-- Node13 -->
<g id="node13" class="node"><title>Node13</title>
<g id="a_node13"><a xlink:href="main_8c.html#aea1c0564829983a4a1da026f1640f762" target="_top" xlink:title="Thread for controlling the server client initialization and shutdown. ">
<polygon fill="white" stroke="black" points="745.605,-29.5 745.605,-47.5 877.216,-47.5 877.216,-29.5 745.605,-29.5"/>
<text text-anchor="middle" x="811.411" y="-35.5" font-family="Helvetica,sans-Serif" font-size="10.00">serverConnControlThread</text>
</a>
</g>
</g>
<!-- Node12&#45;&gt;Node13 -->
<g id="edge16" class="edge"><title>Node12&#45;&gt;Node13</title>
<path fill="none" stroke="midnightblue" d="M553.608,-16.1879C611.714,-21.2364 690.552,-28.0861 745.487,-32.8592"/>
<polygon fill="midnightblue" stroke="midnightblue" points="553.641,-12.6777 543.376,-15.2989 553.035,-19.6514 553.641,-12.6777"/>
</g>
<!-- Node13&#45;&gt;Node4 -->
<g id="edge17" class="edge"><title>Node13&#45;&gt;Node4</title>
<path fill="none" stroke="midnightblue" d="M853.82,-50.348C890.335,-60.9385 944.909,-77.1161 992.014,-92.5 1004.07,-96.4387 1017.53,-101.189 1027.98,-104.954"/>
<polygon fill="midnightblue" stroke="midnightblue" points="854.6,-46.9302 844.022,-47.5144 852.656,-53.6547 854.6,-46.9302"/>
</g>
</g>
</svg>
