<?xml version="1.0" encoding="UTF-8" standalone="no"?>
<!DOCTYPE svg PUBLIC "-//W3C//DTD SVG 1.1//EN"
 "http://www.w3.org/Graphics/SVG/1.1/DTD/svg11.dtd">
<!-- Generated by graphviz version 2.38.0 (20140413.2041)
 -->
<!-- Title: rasPi&#45;EmergencyStation/msgBuffers.h Pages: 1 -->
<svg width="828pt" height="297pt"
 viewBox="0.00 0.00 827.82 297.00" xmlns="http://www.w3.org/2000/svg" xmlns:xlink="http://www.w3.org/1999/xlink">
<g id="graph0" class="graph" transform="scale(1 1) rotate(0) translate(4 293)">
<title>rasPi&#45;EmergencyStation/msgBuffers.h</title>
<polygon fill="white" stroke="none" points="-4,4 -4,-293 823.822,-293 823.822,4 -4,4"/>
<!-- Node1 -->
<g id="node1" class="node"><title>Node1</title>
<polygon fill="#bfbfbf" stroke="black" points="371,-260.5 371,-288.5 494.822,-288.5 494.822,-260.5 371,-260.5"/>
<text text-anchor="start" x="379" y="-276.5" font-family="Helvetica,sans-Serif" font-size="10.00">rasPi&#45;EmergencyStation</text>
<text text-anchor="middle" x="432.911" y="-266.5" font-family="Helvetica,sans-Serif" font-size="10.00">/msgBuffers.h</text>
</g>
<!-- Node2 -->
<g id="node2" class="node"><title>Node2</title>
<g id="a_node2"><a xlink:href="message_parser_8h.html" target="_top" xlink:title="Message parser function headers. ">
<polygon fill="white" stroke="black" points="0,-130.5 0,-158.5 123.822,-158.5 123.822,-130.5 0,-130.5"/>
<text text-anchor="start" x="8" y="-146.5" font-family="Helvetica,sans-Serif" font-size="10.00">rasPi&#45;EmergencyStation</text>
<text text-anchor="middle" x="61.9111" y="-136.5" font-family="Helvetica,sans-Serif" font-size="10.00">/messageParser.h</text>
</a>
</g>
</g>
<!-- Node1&#45;&gt;Node2 -->
<g id="edge1" class="edge"><title>Node1&#45;&gt;Node2</title>
<path fill="none" stroke="midnightblue" d="M360.885,-261.644C318.46,-253.183 264.3,-240.407 217.911,-224 165.574,-205.49 107.687,-175.603 79.1698,-158.544"/>
<polygon fill="midnightblue" stroke="midnightblue" points="360.366,-265.108 370.852,-263.595 361.711,-258.239 360.366,-265.108"/>
</g>
<!-- Node5 -->
<g id="node5" class="node"><title>Node5</title>
<g id="a_node5"><a xlink:href="station_actions_8h.html" target="_top" xlink:title="FIle containing all the station action headers. ">
<polygon fill="white" stroke="black" points="327,-65.5 327,-93.5 450.822,-93.5 450.822,-65.5 327,-65.5"/>
<text text-anchor="start" x="335" y="-81.5" font-family="Helvetica,sans-Serif" font-size="10.00">rasPi&#45;EmergencyStation</text>
<text text-anchor="middle" x="388.911" y="-71.5" font-family="Helvetica,sans-Serif" font-size="10.00">/stationActions.h</text>
</a>
</g>
</g>
<!-- Node1&#45;&gt;Node5 -->
<g id="edge14" class="edge"><title>Node1&#45;&gt;Node5</title>
<path fill="none" stroke="midnightblue" d="M456.589,-253.628C487.527,-225.199 534.669,-171.745 506.911,-130 494.18,-110.853 472.455,-99.0973 451.09,-91.8858"/>
<polygon fill="midnightblue" stroke="midnightblue" points="454.253,-251.021 449.128,-260.294 458.917,-256.241 454.253,-251.021"/>
</g>
<!-- Node8 -->
<g id="node8" class="node"><title>Node8</title>
<g id="a_node8"><a xlink:href="tcp_vehicle_socket_comm_8h.html" target="_top" xlink:title="Vehicle connection server&#39;s headers. ">
<polygon fill="white" stroke="black" points="235.549,-195.5 235.549,-223.5 368.273,-223.5 368.273,-195.5 235.549,-195.5"/>
<text text-anchor="start" x="243.549" y="-211.5" font-family="Helvetica,sans-Serif" font-size="10.00">rasPi&#45;EmergencyStation</text>
<text text-anchor="middle" x="301.911" y="-201.5" font-family="Helvetica,sans-Serif" font-size="10.00">/tcpVehicleSocketComm.h</text>
</a>
</g>
</g>
<!-- Node1&#45;&gt;Node8 -->
<g id="edge9" class="edge"><title>Node1&#45;&gt;Node8</title>
<path fill="none" stroke="midnightblue" d="M396.649,-256.061C375.243,-245.767 348.596,-232.951 329.02,-223.537"/>
<polygon fill="midnightblue" stroke="midnightblue" points="395.239,-259.266 405.768,-260.446 398.273,-252.958 395.239,-259.266"/>
</g>
<!-- Node10 -->
<g id="node10" class="node"><title>Node10</title>
<g id="a_node10"><a xlink:href="tcp_server_socket_comm_8h.html" target="_top" xlink:title="Server connection related function definitions. ">
<polygon fill="white" stroke="black" points="367.948,-130.5 367.948,-158.5 497.874,-158.5 497.874,-130.5 367.948,-130.5"/>
<text text-anchor="start" x="375.948" y="-146.5" font-family="Helvetica,sans-Serif" font-size="10.00">rasPi&#45;EmergencyStation</text>
<text text-anchor="middle" x="432.911" y="-136.5" font-family="Helvetica,sans-Serif" font-size="10.00">/tcpServerSocketComm.h</text>
</a>
</g>
</g>
<!-- Node1&#45;&gt;Node10 -->
<g id="edge15" class="edge"><title>Node1&#45;&gt;Node10</title>
<path fill="none" stroke="midnightblue" d="M432.911,-250.25C432.911,-223.495 432.911,-180.473 432.911,-158.836"/>
<polygon fill="midnightblue" stroke="midnightblue" points="429.411,-250.284 432.911,-260.284 436.411,-250.284 429.411,-250.284"/>
</g>
<!-- Node12 -->
<g id="node12" class="node"><title>Node12</title>
<g id="a_node12"><a xlink:href="mcast_messaging_8h.html" target="_top" xlink:title="FIle containing all the headers of the functions related to multicast communication. ">
<polygon fill="white" stroke="black" points="554,-195.5 554,-223.5 677.822,-223.5 677.822,-195.5 554,-195.5"/>
<text text-anchor="start" x="562" y="-211.5" font-family="Helvetica,sans-Serif" font-size="10.00">rasPi&#45;EmergencyStation</text>
<text text-anchor="middle" x="615.911" y="-201.5" font-family="Helvetica,sans-Serif" font-size="10.00">/mcastMessaging.h</text>
</a>
</g>
</g>
<!-- Node1&#45;&gt;Node12 -->
<g id="edge19" class="edge"><title>Node1&#45;&gt;Node12</title>
<path fill="none" stroke="midnightblue" d="M480.378,-257.159C510.786,-246.691 549.714,-233.289 578.042,-223.537"/>
<polygon fill="midnightblue" stroke="midnightblue" points="479.145,-253.882 470.829,-260.446 481.424,-260.501 479.145,-253.882"/>
</g>
<!-- Node14 -->
<g id="node14" class="node"><title>Node14</title>
<g id="a_node14"><a xlink:href="msg_buffers_8c.html" target="_top" xlink:title="File containing the definitions of all functions related to the message mailboxes. ">
<polygon fill="white" stroke="black" points="696,-195.5 696,-223.5 819.822,-223.5 819.822,-195.5 696,-195.5"/>
<text text-anchor="start" x="704" y="-211.5" font-family="Helvetica,sans-Serif" font-size="10.00">rasPi&#45;EmergencyStation</text>
<text text-anchor="middle" x="757.911" y="-201.5" font-family="Helvetica,sans-Serif" font-size="10.00">/msgBuffers.c</text>
</a>
</g>
</g>
<!-- Node1&#45;&gt;Node14 -->
<g id="edge22" class="edge"><title>Node1&#45;&gt;Node14</title>
<path fill="none" stroke="midnightblue" d="M505.249,-259.478C562.459,-248.388 641.484,-233.069 695.843,-222.532"/>
<polygon fill="midnightblue" stroke="midnightblue" points="504.341,-256.088 495.19,-261.428 505.673,-262.96 504.341,-256.088"/>
</g>
<!-- Node2&#45;&gt;Node1 -->
<g id="edge4" class="edge"><title>Node2&#45;&gt;Node1</title>
<path fill="none" stroke="midnightblue" d="M100.759,-163.211C135.595,-180.656 188.071,-207.08 235.911,-224 280.124,-239.637 331.395,-251.977 370.615,-260.425"/>
<polygon fill="midnightblue" stroke="midnightblue" points="101.93,-159.883 91.4198,-158.544 98.8006,-166.145 101.93,-159.883"/>
</g>
<!-- Node3 -->
<g id="node3" class="node"><title>Node3</title>
<g id="a_node3"><a xlink:href="main_8h.html" target="_top" xlink:title="Main file&#39;s headers of the emergency station application. ">
<polygon fill="white" stroke="black" points="185,-65.5 185,-93.5 308.822,-93.5 308.822,-65.5 185,-65.5"/>
<text text-anchor="start" x="193" y="-81.5" font-family="Helvetica,sans-Serif" font-size="10.00">rasPi&#45;EmergencyStation</text>
<text text-anchor="middle" x="246.911" y="-71.5" font-family="Helvetica,sans-Serif" font-size="10.00">/main.h</text>
</a>
</g>
</g>
<!-- Node2&#45;&gt;Node3 -->
<g id="edge2" class="edge"><title>Node2&#45;&gt;Node3</title>
<path fill="none" stroke="midnightblue" d="M109.897,-127.159C140.637,-116.691 179.99,-103.289 208.628,-93.5369"/>
<polygon fill="midnightblue" stroke="midnightblue" points="108.581,-123.91 100.243,-130.446 110.838,-130.536 108.581,-123.91"/>
</g>
<!-- Node2&#45;&gt;Node5 -->
<g id="edge5" class="edge"><title>Node2&#45;&gt;Node5</title>
<path fill="none" stroke="midnightblue" d="M134.226,-128.44C191.987,-117.048 271.997,-101.672 326.878,-91.4378"/>
<polygon fill="midnightblue" stroke="midnightblue" points="133.205,-125.074 124.073,-130.446 134.562,-131.941 133.205,-125.074"/>
</g>
<!-- Node7 -->
<g id="node7" class="node"><title>Node7</title>
<g id="a_node7"><a xlink:href="message_parser_8c.html" target="_top" xlink:title="Message parser functions definition. ">
<polygon fill="white" stroke="black" points="0,-65.5 0,-93.5 123.822,-93.5 123.822,-65.5 0,-65.5"/>
<text text-anchor="start" x="8" y="-81.5" font-family="Helvetica,sans-Serif" font-size="10.00">rasPi&#45;EmergencyStation</text>
<text text-anchor="middle" x="61.9111" y="-71.5" font-family="Helvetica,sans-Serif" font-size="10.00">/messageParser.c</text>
</a>
</g>
</g>
<!-- Node2&#45;&gt;Node7 -->
<g id="edge8" class="edge"><title>Node2&#45;&gt;Node7</title>
<path fill="none" stroke="midnightblue" d="M61.9111,-120.164C61.9111,-111.169 61.9111,-101.221 61.9111,-93.5369"/>
<polygon fill="midnightblue" stroke="midnightblue" points="58.4112,-120.446 61.9111,-130.446 65.4112,-120.446 58.4112,-120.446"/>
</g>
<!-- Node4 -->
<g id="node4" class="node"><title>Node4</title>
<g id="a_node4"><a xlink:href="main_8c.html" target="_top" xlink:title="Main file and functions of the emergency station application. ">
<polygon fill="white" stroke="black" points="185,-0.5 185,-28.5 308.822,-28.5 308.822,-0.5 185,-0.5"/>
<text text-anchor="start" x="193" y="-16.5" font-family="Helvetica,sans-Serif" font-size="10.00">rasPi&#45;EmergencyStation</text>
<text text-anchor="middle" x="246.911" y="-6.5" font-family="Helvetica,sans-Serif" font-size="10.00">/main.c</text>
</a>
</g>
</g>
<!-- Node3&#45;&gt;Node4 -->
<g id="edge3" class="edge"><title>Node3&#45;&gt;Node4</title>
<path fill="none" stroke="midnightblue" d="M246.911,-55.1641C246.911,-46.1693 246.911,-36.2205 246.911,-28.5369"/>
<polygon fill="midnightblue" stroke="midnightblue" points="243.411,-55.4463 246.911,-65.4464 250.411,-55.4464 243.411,-55.4463"/>
</g>
<!-- Node5&#45;&gt;Node2 -->
<g id="edge6" class="edge"><title>Node5&#45;&gt;Node2</title>
<path fill="none" stroke="midnightblue" d="M316.751,-95.5299C259.046,-106.911 179.062,-122.283 124.137,-132.526"/>
<polygon fill="midnightblue" stroke="midnightblue" points="317.762,-98.8977 326.894,-93.525 316.405,-92.0306 317.762,-98.8977"/>
</g>
<!-- Node6 -->
<g id="node6" class="node"><title>Node6</title>
<g id="a_node6"><a xlink:href="station_actions_8c.html" target="_top" xlink:title="FIle containing all the station action definitions. ">
<polygon fill="white" stroke="black" points="327,-0.5 327,-28.5 450.822,-28.5 450.822,-0.5 327,-0.5"/>
<text text-anchor="start" x="335" y="-16.5" font-family="Helvetica,sans-Serif" font-size="10.00">rasPi&#45;EmergencyStation</text>
<text text-anchor="middle" x="388.911" y="-6.5" font-family="Helvetica,sans-Serif" font-size="10.00">/stationActions.c</text>
</a>
</g>
</g>
<!-- Node5&#45;&gt;Node6 -->
<g id="edge7" class="edge"><title>Node5&#45;&gt;Node6</title>
<path fill="none" stroke="midnightblue" d="M388.911,-55.1641C388.911,-46.1693 388.911,-36.2205 388.911,-28.5369"/>
<polygon fill="midnightblue" stroke="midnightblue" points="385.411,-55.4463 388.911,-65.4464 392.411,-55.4464 385.411,-55.4463"/>
</g>
<!-- Node8&#45;&gt;Node2 -->
<g id="edge10" class="edge"><title>Node8&#45;&gt;Node2</title>
<path fill="none" stroke="midnightblue" d="M242.489,-192.902C202.219,-182.331 149.612,-168.521 111.576,-158.537"/>
<polygon fill="midnightblue" stroke="midnightblue" points="241.622,-196.293 252.183,-195.446 243.399,-189.522 241.622,-196.293"/>
</g>
<!-- Node8&#45;&gt;Node3 -->
<g id="edge12" class="edge"><title>Node8&#45;&gt;Node3</title>
<path fill="none" stroke="midnightblue" d="M298.755,-185.361C295.986,-169.294 291.088,-147.683 282.911,-130 276.756,-116.69 266.776,-103.346 258.883,-93.8719"/>
<polygon fill="midnightblue" stroke="midnightblue" points="295.336,-186.147 300.347,-195.482 302.251,-185.06 295.336,-186.147"/>
</g>
<!-- Node8&#45;&gt;Node5 -->
<g id="edge11" class="edge"><title>Node8&#45;&gt;Node5</title>
<path fill="none" stroke="midnightblue" d="M316.518,-187.009C334.592,-160.418 364.814,-115.954 379.847,-93.836"/>
<polygon fill="midnightblue" stroke="midnightblue" points="313.621,-185.046 310.894,-195.284 319.41,-188.981 313.621,-185.046"/>
</g>
<!-- Node9 -->
<g id="node9" class="node"><title>Node9</title>
<g id="a_node9"><a xlink:href="tcp_vehicle_socket_comm_8c.html" target="_top" xlink:title="Vehicle connection server related function definitions. ">
<polygon fill="white" stroke="black" points="141.83,-130.5 141.83,-158.5 273.992,-158.5 273.992,-130.5 141.83,-130.5"/>
<text text-anchor="start" x="149.83" y="-146.5" font-family="Helvetica,sans-Serif" font-size="10.00">rasPi&#45;EmergencyStation</text>
<text text-anchor="middle" x="207.911" y="-136.5" font-family="Helvetica,sans-Serif" font-size="10.00">/tcpVehicleSocketComm.c</text>
</a>
</g>
</g>
<!-- Node8&#45;&gt;Node9 -->
<g id="edge13" class="edge"><title>Node8&#45;&gt;Node9</title>
<path fill="none" stroke="midnightblue" d="M274.014,-189.803C258.996,-179.738 240.843,-167.572 227.363,-158.537"/>
<polygon fill="midnightblue" stroke="midnightblue" points="272.179,-192.786 282.434,-195.446 276.076,-186.972 272.179,-192.786"/>
</g>
<!-- Node10&#45;&gt;Node3 -->
<g id="edge17" class="edge"><title>Node10&#45;&gt;Node3</title>
<path fill="none" stroke="midnightblue" d="M384.666,-127.159C353.759,-116.691 314.194,-103.289 285.401,-93.5369"/>
<polygon fill="midnightblue" stroke="midnightblue" points="383.778,-130.553 394.372,-130.446 386.023,-123.923 383.778,-130.553"/>
</g>
<!-- Node10&#45;&gt;Node5 -->
<g id="edge16" class="edge"><title>Node10&#45;&gt;Node5</title>
<path fill="none" stroke="midnightblue" d="M418.05,-122.221C411.409,-112.713 403.795,-101.812 398.016,-93.5369"/>
<polygon fill="midnightblue" stroke="midnightblue" points="415.199,-124.252 423.794,-130.446 420.938,-120.244 415.199,-124.252"/>
</g>
<!-- Node11 -->
<g id="node11" class="node"><title>Node11</title>
<g id="a_node11"><a xlink:href="tcp_server_socket_comm_8c.html" target="_top" xlink:title="Server connection related function headers. ">
<polygon fill="white" stroke="black" points="469.229,-65.5 469.229,-93.5 598.593,-93.5 598.593,-65.5 469.229,-65.5"/>
<text text-anchor="start" x="477.229" y="-81.5" font-family="Helvetica,sans-Serif" font-size="10.00">rasPi&#45;EmergencyStation</text>
<text text-anchor="middle" x="533.911" y="-71.5" font-family="Helvetica,sans-Serif" font-size="10.00">/tcpServerSocketComm.c</text>
</a>
</g>
</g>
<!-- Node10&#45;&gt;Node11 -->
<g id="edge18" class="edge"><title>Node10&#45;&gt;Node11</title>
<path fill="none" stroke="midnightblue" d="M462.435,-125.084C478.657,-114.965 498.391,-102.656 513.011,-93.5369"/>
<polygon fill="midnightblue" stroke="midnightblue" points="460.471,-122.184 453.838,-130.446 464.175,-128.124 460.471,-122.184"/>
</g>
<!-- Node12&#45;&gt;Node5 -->
<g id="edge20" class="edge"><title>Node12&#45;&gt;Node5</title>
<path fill="none" stroke="midnightblue" d="M600.367,-187.471C586.344,-169.857 564.232,-145.22 539.911,-130 512.9,-113.096 479.525,-101.37 451.027,-93.5893"/>
<polygon fill="midnightblue" stroke="midnightblue" points="597.683,-189.722 606.575,-195.482 603.216,-185.434 597.683,-189.722"/>
</g>
<!-- Node13 -->
<g id="node13" class="node"><title>Node13</title>
<g id="a_node13"><a xlink:href="mcast_messaging_8c.html" target="_top" xlink:title="FIle containing all the definition of the functions related to multicast communication. ">
<polygon fill="white" stroke="black" points="592,-130.5 592,-158.5 715.822,-158.5 715.822,-130.5 592,-130.5"/>
<text text-anchor="start" x="600" y="-146.5" font-family="Helvetica,sans-Serif" font-size="10.00">rasPi&#45;EmergencyStation</text>
<text text-anchor="middle" x="653.911" y="-136.5" font-family="Helvetica,sans-Serif" font-size="10.00">/mcastMessaging.c</text>
</a>
</g>
</g>
<!-- Node12&#45;&gt;Node13 -->
<g id="edge21" class="edge"><title>Node12&#45;&gt;Node13</title>
<path fill="none" stroke="midnightblue" d="M629.098,-186.638C634.749,-177.269 641.158,-166.643 646.048,-158.537"/>
<polygon fill="midnightblue" stroke="midnightblue" points="625.953,-185.076 623.785,-195.446 631.947,-188.691 625.953,-185.076"/>
</g>
</g>
</svg>
