<?xml version="1.0" encoding="UTF-8" standalone="no"?>
<!DOCTYPE svg PUBLIC "-//W3C//DTD SVG 1.1//EN"
 "http://www.w3.org/Graphics/SVG/1.1/DTD/svg11.dtd">
<!-- Generated by graphviz version 2.38.0 (20140413.2041)
 -->
<!-- Title: rasPi&#45;EmergencyStation/msgBuffers.c Pages: 1 -->
<svg width="1086pt" height="367pt"
 viewBox="0.00 0.00 1085.79 367.00" xmlns="http://www.w3.org/2000/svg" xmlns:xlink="http://www.w3.org/1999/xlink">
<g id="graph0" class="graph" transform="scale(1 1) rotate(0) translate(4 363)">
<title>rasPi&#45;EmergencyStation/msgBuffers.c</title>
<polygon fill="white" stroke="none" points="-4,4 -4,-363 1081.79,-363 1081.79,4 -4,4"/>
<!-- Node1 -->
<g id="node1" class="node"><title>Node1</title>
<polygon fill="#bfbfbf" stroke="black" points="519.089,-330.5 519.089,-358.5 642.911,-358.5 642.911,-330.5 519.089,-330.5"/>
<text text-anchor="start" x="527.089" y="-346.5" font-family="Helvetica,sans-Serif" font-size="10.00">rasPi&#45;EmergencyStation</text>
<text text-anchor="middle" x="581" y="-336.5" font-family="Helvetica,sans-Serif" font-size="10.00">/msgBuffers.c</text>
</g>
<!-- Node2 -->
<g id="node2" class="node"><title>Node2</title>
<g id="a_node2"><a xlink:href="msg_buffers_8h.html" target="_top" xlink:title="File containing the headers of all functions related to the message mailboxes. ">
<polygon fill="white" stroke="black" points="543.632,-275.5 543.632,-293.5 618.368,-293.5 618.368,-275.5 543.632,-275.5"/>
<text text-anchor="middle" x="581" y="-281.5" font-family="Helvetica,sans-Serif" font-size="10.00">msgBuffers.h</text>
</a>
</g>
</g>
<!-- Node1&#45;&gt;Node2 -->
<g id="edge1" class="edge"><title>Node1&#45;&gt;Node2</title>
<path fill="none" stroke="midnightblue" d="M581,-330.339C581,-322.531 581,-312.512 581,-303.927"/>
<polygon fill="midnightblue" stroke="midnightblue" points="584.5,-303.771 581,-293.771 577.5,-303.772 584.5,-303.771"/>
</g>
<!-- Node3 -->
<g id="node3" class="node"><title>Node3</title>
<polygon fill="white" stroke="#bfbfbf" points="114.269,-0.5 114.269,-18.5 159.731,-18.5 159.731,-0.5 114.269,-0.5"/>
<text text-anchor="middle" x="137" y="-6.5" font-family="Helvetica,sans-Serif" font-size="10.00">stdio.h</text>
</g>
<!-- Node2&#45;&gt;Node3 -->
<g id="edge2" class="edge"><title>Node2&#45;&gt;Node3</title>
<path fill="none" stroke="midnightblue" d="M543.327,-280.509C414.58,-269.79 0,-230.966 0,-175.5 0,-175.5 0,-175.5 0,-118.5 0,-65.4787 64.068,-34.4684 104.578,-20.16"/>
<polygon fill="midnightblue" stroke="midnightblue" points="105.713,-23.4713 114.069,-16.9584 103.475,-16.8385 105.713,-23.4713"/>
</g>
<!-- Node4 -->
<g id="node4" class="node"><title>Node4</title>
<polygon fill="white" stroke="#bfbfbf" points="911.872,-0.5 911.872,-18.5 970.128,-18.5 970.128,-0.5 911.872,-0.5"/>
<text text-anchor="middle" x="941" y="-6.5" font-family="Helvetica,sans-Serif" font-size="10.00">pthread.h</text>
</g>
<!-- Node2&#45;&gt;Node4 -->
<g id="edge3" class="edge"><title>Node2&#45;&gt;Node4</title>
<path fill="none" stroke="midnightblue" d="M618.373,-281.798C720.726,-276.126 998,-253.556 998,-175.5 998,-175.5 998,-175.5 998,-118.5 998,-82.3023 972.647,-46.3493 955.758,-26.4152"/>
<polygon fill="midnightblue" stroke="midnightblue" points="958.165,-23.8536 948.926,-18.669 952.915,-28.4839 958.165,-23.8536"/>
</g>
<!-- Node5 -->
<g id="node5" class="node"><title>Node5</title>
<polygon fill="white" stroke="#bfbfbf" points="1026.21,-220.5 1026.21,-238.5 1077.79,-238.5 1077.79,-220.5 1026.21,-220.5"/>
<text text-anchor="middle" x="1052" y="-226.5" font-family="Helvetica,sans-Serif" font-size="10.00">assert.h</text>
</g>
<!-- Node2&#45;&gt;Node5 -->
<g id="edge4" class="edge"><title>Node2&#45;&gt;Node5</title>
<path fill="none" stroke="midnightblue" d="M618.647,-280.968C693.765,-275.619 867.469,-261.751 1012,-239 1013.26,-238.801 1014.54,-238.588 1015.84,-238.365"/>
<polygon fill="midnightblue" stroke="midnightblue" points="1016.65,-241.774 1025.82,-236.48 1015.35,-234.895 1016.65,-241.774"/>
</g>
<!-- Node6 -->
<g id="node6" class="node"><title>Node6</title>
<g id="a_node6"><a xlink:href="structures_8h.html" target="_top" xlink:title="File containing all the structure definitions used in the other modules. ">
<polygon fill="white" stroke="black" points="825.879,-55.5 825.879,-73.5 894.121,-73.5 894.121,-55.5 825.879,-55.5"/>
<text text-anchor="middle" x="860" y="-61.5" font-family="Helvetica,sans-Serif" font-size="10.00">structures.h</text>
</a>
</g>
</g>
<!-- Node2&#45;&gt;Node6 -->
<g id="edge5" class="edge"><title>Node2&#45;&gt;Node6</title>
<path fill="none" stroke="midnightblue" d="M596.976,-275.389C636.624,-254.754 741.483,-197.05 813,-129 827.712,-115.001 841.128,-95.954 849.826,-82.3807"/>
<polygon fill="midnightblue" stroke="midnightblue" points="852.968,-83.9555 855.276,-73.6152 847.024,-80.2591 852.968,-83.9555"/>
</g>
<!-- Node8 -->
<g id="node8" class="node"><title>Node8</title>
<g id="a_node8"><a xlink:href="message_parser_8h.html" target="_top" xlink:title="Message parser function headers. ">
<polygon fill="white" stroke="black" points="440.089,-220.5 440.089,-238.5 533.911,-238.5 533.911,-220.5 440.089,-220.5"/>
<text text-anchor="middle" x="487" y="-226.5" font-family="Helvetica,sans-Serif" font-size="10.00">messageParser.h</text>
</a>
</g>
</g>
<!-- Node2&#45;&gt;Node8 -->
<g id="edge9" class="edge"><title>Node2&#45;&gt;Node8</title>
<path fill="none" stroke="midnightblue" d="M561.714,-275.45C545.01,-267.123 521.361,-253.97 505.039,-244.039"/>
<polygon fill="midnightblue" stroke="midnightblue" points="506.718,-240.961 496.384,-238.625 503.006,-246.896 506.718,-240.961"/>
</g>
<!-- Node6&#45;&gt;Node3 -->
<g id="edge6" class="edge"><title>Node6&#45;&gt;Node3</title>
<path fill="none" stroke="midnightblue" d="M825.799,-56.3233C822.831,-55.827 819.867,-55.3756 817,-55 569.948,-22.6374 269.163,-13.4053 170.258,-11.1487"/>
<polygon fill="midnightblue" stroke="midnightblue" points="170.074,-7.64391 159.999,-10.9235 169.92,-14.6422 170.074,-7.64391"/>
</g>
<!-- Node6&#45;&gt;Node4 -->
<g id="edge7" class="edge"><title>Node6&#45;&gt;Node4</title>
<path fill="none" stroke="midnightblue" d="M872.302,-55.4504C884.91,-47.201 904.755,-34.2158 919.881,-24.3187"/>
<polygon fill="midnightblue" stroke="midnightblue" points="922.131,-27.0294 928.582,-18.6253 918.298,-21.1719 922.131,-27.0294"/>
</g>
<!-- Node7 -->
<g id="node7" class="node"><title>Node7</title>
<polygon fill="white" stroke="#bfbfbf" points="643.537,-0.5 643.537,-18.5 708.463,-18.5 708.463,-0.5 643.537,-0.5"/>
<text text-anchor="middle" x="676" y="-6.5" font-family="Helvetica,sans-Serif" font-size="10.00">netinet/in.h</text>
</g>
<!-- Node6&#45;&gt;Node7 -->
<g id="edge8" class="edge"><title>Node6&#45;&gt;Node7</title>
<path fill="none" stroke="midnightblue" d="M832.054,-55.4504C800.486,-46.3575 748.943,-31.5108 713.8,-21.3879"/>
<polygon fill="midnightblue" stroke="midnightblue" points="714.485,-17.943 703.907,-18.5383 712.547,-24.6695 714.485,-17.943"/>
</g>
<!-- Node8&#45;&gt;Node2 -->
<g id="edge15" class="edge"><title>Node8&#45;&gt;Node2</title>
<path fill="none" stroke="midnightblue" d="M506.438,-238.625C523.184,-246.982 546.832,-260.139 563.109,-270.051"/>
<polygon fill="midnightblue" stroke="midnightblue" points="561.4,-273.11 571.733,-275.45 565.115,-267.177 561.4,-273.11"/>
</g>
<!-- Node8&#45;&gt;Node3 -->
<g id="edge10" class="edge"><title>Node8&#45;&gt;Node3</title>
<path fill="none" stroke="midnightblue" d="M439.771,-226.936C352.501,-221.12 168.387,-194.445 97,-74 86.9107,-56.9772 102.871,-37.8029 117.523,-25.0213"/>
<polygon fill="midnightblue" stroke="midnightblue" points="119.819,-27.6655 125.355,-18.6323 115.394,-22.2414 119.819,-27.6655"/>
</g>
<!-- Node8&#45;&gt;Node4 -->
<g id="edge13" class="edge"><title>Node8&#45;&gt;Node4</title>
<path fill="none" stroke="midnightblue" d="M534.191,-221.96C577.742,-215.14 643.82,-202.79 699,-184 804.747,-147.99 854.707,-160.823 925,-74 935.284,-61.2982 939.063,-42.839 940.4,-29.0933"/>
<polygon fill="midnightblue" stroke="midnightblue" points="943.908,-29.0842 941.039,-18.8853 936.921,-28.6474 943.908,-29.0842"/>
</g>
<!-- Node8&#45;&gt;Node6 -->
<g id="edge14" class="edge"><title>Node8&#45;&gt;Node6</title>
<path fill="none" stroke="midnightblue" d="M526.102,-220.456C584.988,-207.264 698.717,-177.536 785,-129 808.12,-115.994 830.822,-95.3626 845.086,-81.166"/>
<polygon fill="midnightblue" stroke="midnightblue" points="847.946,-83.248 852.448,-73.6571 842.947,-78.3473 847.946,-83.248"/>
</g>
<!-- Node9 -->
<g id="node9" class="node"><title>Node9</title>
<polygon fill="white" stroke="#bfbfbf" points="254.604,-55.5 254.604,-73.5 303.396,-73.5 303.396,-55.5 254.604,-55.5"/>
<text text-anchor="middle" x="279" y="-61.5" font-family="Helvetica,sans-Serif" font-size="10.00">string.h</text>
</g>
<!-- Node8&#45;&gt;Node9 -->
<g id="edge11" class="edge"><title>Node8&#45;&gt;Node9</title>
<path fill="none" stroke="midnightblue" d="M457.597,-220.461C416.538,-207.758 342.319,-179.181 300,-129 289.239,-116.24 283.942,-97.788 281.365,-84.0597"/>
<polygon fill="midnightblue" stroke="midnightblue" points="284.775,-83.2111 279.78,-73.8676 277.859,-84.2866 284.775,-83.2111"/>
</g>
<!-- Node10 -->
<g id="node10" class="node"><title>Node10</title>
<polygon fill="white" stroke="#bfbfbf" points="113.158,-55.5 113.158,-73.5 160.842,-73.5 160.842,-55.5 113.158,-55.5"/>
<text text-anchor="middle" x="137" y="-61.5" font-family="Helvetica,sans-Serif" font-size="10.00">stdlib.h</text>
</g>
<!-- Node8&#45;&gt;Node10 -->
<g id="edge12" class="edge"><title>Node8&#45;&gt;Node10</title>
<path fill="none" stroke="midnightblue" d="M451.775,-220.433C421.251,-212.853 376.259,-200.252 339,-184 268.869,-153.41 192.69,-103.76 157.252,-79.6016"/>
<polygon fill="midnightblue" stroke="midnightblue" points="158.985,-76.5458 148.76,-73.7676 155.02,-82.3152 158.985,-76.5458"/>
</g>
<!-- Node11 -->
<g id="node11" class="node"><title>Node11</title>
<g id="a_node11"><a xlink:href="tcp_vehicle_socket_comm_8h.html" target="_top" xlink:title="Vehicle connection server&#39;s headers. ">
<polygon fill="white" stroke="black" points="493.027,-110.5 493.027,-128.5 622.973,-128.5 622.973,-110.5 493.027,-110.5"/>
<text text-anchor="middle" x="558" y="-116.5" font-family="Helvetica,sans-Serif" font-size="10.00">tcpVehicleSocketComm.h</text>
</a>
</g>
</g>
<!-- Node8&#45;&gt;Node11 -->
<g id="edge16" class="edge"><title>Node8&#45;&gt;Node11</title>
<path fill="none" stroke="midnightblue" d="M500.434,-220.241C512.23,-212.326 529.02,-199.338 539,-184 548.022,-170.135 552.902,-151.819 555.448,-138.422"/>
<polygon fill="midnightblue" stroke="midnightblue" points="558.905,-138.968 557.077,-128.532 551.998,-137.83 558.905,-138.968"/>
</g>
<!-- Node15 -->
<g id="node15" class="node"><title>Node15</title>
<g id="a_node15"><a xlink:href="station_actions_8h.html" target="_top" xlink:title="FIle containing all the station action headers. ">
<polygon fill="white" stroke="black" points="443.702,-165.5 443.702,-183.5 530.298,-183.5 530.298,-165.5 443.702,-165.5"/>
<text text-anchor="middle" x="487" y="-171.5" font-family="Helvetica,sans-Serif" font-size="10.00">stationActions.h</text>
</a>
</g>
</g>
<!-- Node8&#45;&gt;Node15 -->
<g id="edge24" class="edge"><title>Node8&#45;&gt;Node15</title>
<path fill="none" stroke="midnightblue" d="M481.938,-220.219C480.325,-213.099 479.868,-202.577 480.566,-193.529"/>
<polygon fill="midnightblue" stroke="midnightblue" points="484.043,-193.944 481.991,-183.55 477.113,-192.955 484.043,-193.944"/>
</g>
<!-- Node11&#45;&gt;Node2 -->
<g id="edge23" class="edge"><title>Node11&#45;&gt;Node2</title>
<path fill="none" stroke="midnightblue" d="M559.143,-128.597C562.655,-153.492 573.361,-229.362 578.367,-264.841"/>
<polygon fill="midnightblue" stroke="midnightblue" points="574.965,-265.78 579.828,-275.193 581.896,-264.802 574.965,-265.78"/>
</g>
<!-- Node11&#45;&gt;Node6 -->
<g id="edge22" class="edge"><title>Node11&#45;&gt;Node6</title>
<path fill="none" stroke="midnightblue" d="M606.755,-110.497C656.728,-102.21 736.952,-88.6755 815.659,-74.2117"/>
<polygon fill="midnightblue" stroke="midnightblue" points="816.548,-77.6069 825.747,-72.3511 815.278,-70.723 816.548,-77.6069"/>
</g>
<!-- Node11&#45;&gt;Node7 -->
<g id="edge18" class="edge"><title>Node11&#45;&gt;Node7</title>
<path fill="none" stroke="midnightblue" d="M570.735,-110.352C583.5,-101.929 603.438,-88.0614 619,-74 635.411,-59.1722 652.067,-40.0422 663.1,-26.6711"/>
<polygon fill="midnightblue" stroke="midnightblue" points="665.89,-28.7873 669.48,-18.8191 660.458,-24.3732 665.89,-28.7873"/>
</g>
<!-- Node11&#45;&gt;Node9 -->
<g id="edge17" class="edge"><title>Node11&#45;&gt;Node9</title>
<path fill="none" stroke="midnightblue" d="M507.374,-110.454C459.631,-102.617 385.875,-89.8667 313.236,-74.1478"/>
<polygon fill="midnightblue" stroke="midnightblue" points="313.977,-70.7274 303.461,-72.0128 312.483,-77.5661 313.977,-70.7274"/>
</g>
<!-- Node12 -->
<g id="node12" class="node"><title>Node12</title>
<polygon fill="white" stroke="#bfbfbf" points="546.372,-55.5 546.372,-73.5 609.628,-73.5 609.628,-55.5 546.372,-55.5"/>
<text text-anchor="middle" x="578" y="-61.5" font-family="Helvetica,sans-Serif" font-size="10.00">arpa/inet.h</text>
</g>
<!-- Node11&#45;&gt;Node12 -->
<g id="edge19" class="edge"><title>Node11&#45;&gt;Node12</title>
<path fill="none" stroke="midnightblue" d="M561.125,-110.219C563.871,-102.942 567.957,-92.1134 571.421,-82.9345"/>
<polygon fill="midnightblue" stroke="midnightblue" points="574.706,-84.1413 574.962,-73.5496 568.157,-81.6699 574.706,-84.1413"/>
</g>
<!-- Node13 -->
<g id="node13" class="node"><title>Node13</title>
<polygon fill="white" stroke="#bfbfbf" points="457.49,-55.5 457.49,-73.5 528.51,-73.5 528.51,-55.5 457.49,-55.5"/>
<text text-anchor="middle" x="493" y="-61.5" font-family="Helvetica,sans-Serif" font-size="10.00">sys/socket.h</text>
</g>
<!-- Node11&#45;&gt;Node13 -->
<g id="edge20" class="edge"><title>Node11&#45;&gt;Node13</title>
<path fill="none" stroke="midnightblue" d="M548.128,-110.45C538.297,-102.434 522.982,-89.9471 510.987,-80.1663"/>
<polygon fill="midnightblue" stroke="midnightblue" points="512.927,-77.2322 502.965,-73.6253 508.503,-82.6573 512.927,-77.2322"/>
</g>
<!-- Node14 -->
<g id="node14" class="node"><title>Node14</title>
<polygon fill="white" stroke="#bfbfbf" points="390.318,-55.5 390.318,-73.5 439.682,-73.5 439.682,-55.5 390.318,-55.5"/>
<text text-anchor="middle" x="415" y="-61.5" font-family="Helvetica,sans-Serif" font-size="10.00">netdb.h</text>
</g>
<!-- Node11&#45;&gt;Node14 -->
<g id="edge21" class="edge"><title>Node11&#45;&gt;Node14</title>
<path fill="none" stroke="midnightblue" d="M536.281,-110.45C512.344,-101.578 473.627,-87.2288 446.39,-77.134"/>
<polygon fill="midnightblue" stroke="midnightblue" points="447.516,-73.8188 436.923,-73.6253 445.083,-80.3825 447.516,-73.8188"/>
</g>
<!-- Node15&#45;&gt;Node2 -->
<g id="edge31" class="edge"><title>Node15&#45;&gt;Node2</title>
<path fill="none" stroke="midnightblue" d="M499.653,-183.582C511.771,-191.748 530.073,-205.24 543,-220 555.411,-234.171 566.071,-252.94 572.914,-266.391"/>
<polygon fill="midnightblue" stroke="midnightblue" points="569.824,-268.039 577.369,-275.477 576.109,-264.957 569.824,-268.039"/>
</g>
<!-- Node15&#45;&gt;Node3 -->
<g id="edge25" class="edge"><title>Node15&#45;&gt;Node3</title>
<path fill="none" stroke="midnightblue" d="M443.504,-169.238C351.459,-159.175 142.262,-130.438 104,-74 93.3931,-58.3544 107.049,-38.8775 119.875,-25.649"/>
<polygon fill="midnightblue" stroke="midnightblue" points="122.361,-28.1138 127.141,-18.6585 117.508,-23.0693 122.361,-28.1138"/>
</g>
<!-- Node15&#45;&gt;Node4 -->
<g id="edge27" class="edge"><title>Node15&#45;&gt;Node4</title>
<path fill="none" stroke="midnightblue" d="M530.538,-170.93C589.353,-166.577 696.962,-155.482 785,-129 840.409,-112.333 860.032,-112.752 903,-74 917.141,-61.2467 927.646,-41.9749 933.984,-28.0079"/>
<polygon fill="midnightblue" stroke="midnightblue" points="937.311,-29.1288 938.011,-18.5571 930.871,-26.3851 937.311,-29.1288"/>
</g>
<!-- Node15&#45;&gt;Node6 -->
<g id="edge29" class="edge"><title>Node15&#45;&gt;Node6</title>
<path fill="none" stroke="midnightblue" d="M530.554,-170.874C583.717,-166.604 675.712,-155.746 750,-129 783.977,-116.768 819.498,-94.1995 840.684,-79.5253"/>
<polygon fill="midnightblue" stroke="midnightblue" points="842.944,-82.2142 849.096,-73.5884 838.907,-76.4951 842.944,-82.2142"/>
</g>
<!-- Node15&#45;&gt;Node8 -->
<g id="edge30" class="edge"><title>Node15&#45;&gt;Node8</title>
<path fill="none" stroke="midnightblue" d="M492.009,-183.55C493.647,-190.595 494.129,-201.094 493.456,-210.175"/>
<polygon fill="midnightblue" stroke="midnightblue" points="489.97,-209.833 492.062,-220.219 496.904,-210.795 489.97,-209.833"/>
</g>
<!-- Node15&#45;&gt;Node10 -->
<g id="edge26" class="edge"><title>Node15&#45;&gt;Node10</title>
<path fill="none" stroke="midnightblue" d="M446.071,-165.459C407.889,-157.559 349.536,-144.462 300,-129 251.395,-113.829 196.542,-91.2936 164.472,-77.547"/>
<polygon fill="midnightblue" stroke="midnightblue" points="165.851,-74.3301 155.283,-73.5808 163.077,-80.7571 165.851,-74.3301"/>
</g>
<!-- Node15&#45;&gt;Node11 -->
<g id="edge43" class="edge"><title>Node15&#45;&gt;Node11</title>
<path fill="none" stroke="midnightblue" d="M497.783,-165.45C508.626,-157.357 525.576,-144.704 538.733,-134.882"/>
<polygon fill="midnightblue" stroke="midnightblue" points="541.195,-137.412 547.115,-128.625 537.008,-131.803 541.195,-137.412"/>
</g>
<!-- Node16 -->
<g id="node16" class="node"><title>Node16</title>
<polygon fill="white" stroke="#bfbfbf" points="321.488,-55.5 321.488,-73.5 372.512,-73.5 372.512,-55.5 321.488,-55.5"/>
<text text-anchor="middle" x="347" y="-61.5" font-family="Helvetica,sans-Serif" font-size="10.00">unistd.h</text>
</g>
<!-- Node15&#45;&gt;Node16 -->
<g id="edge28" class="edge"><title>Node15&#45;&gt;Node16</title>
<path fill="none" stroke="midnightblue" d="M483.632,-165.422C477.767,-152.221 464.511,-125.909 446,-110 427.578,-94.1671 402.607,-82.9961 382.353,-75.8066"/>
<polygon fill="midnightblue" stroke="midnightblue" points="383.432,-72.4771 372.838,-72.594 381.193,-79.1092 383.432,-72.4771"/>
</g>
<!-- Node17 -->
<g id="node17" class="node"><title>Node17</title>
<g id="a_node17"><a xlink:href="tcp_server_socket_comm_8h.html" target="_top" xlink:title="Server connection related function definitions. ">
<polygon fill="white" stroke="black" points="309.426,-110.5 309.426,-128.5 436.574,-128.5 436.574,-110.5 309.426,-110.5"/>
<text text-anchor="middle" x="373" y="-116.5" font-family="Helvetica,sans-Serif" font-size="10.00">tcpServerSocketComm.h</text>
</a>
</g>
</g>
<!-- Node15&#45;&gt;Node17 -->
<g id="edge32" class="edge"><title>Node15&#45;&gt;Node17</title>
<path fill="none" stroke="midnightblue" d="M469.686,-165.45C451.105,-156.812 421.354,-142.98 399.757,-132.94"/>
<polygon fill="midnightblue" stroke="midnightblue" points="401.021,-129.667 390.477,-128.625 398.069,-136.015 401.021,-129.667"/>
</g>
<!-- Node18 -->
<g id="node18" class="node"><title>Node18</title>
<g id="a_node18"><a xlink:href="mcast_messaging_8h.html" target="_top" xlink:title="FIle containing all the headers of the functions related to multicast communication. ">
<polygon fill="white" stroke="black" points="641.315,-110.5 641.315,-128.5 740.685,-128.5 740.685,-110.5 641.315,-110.5"/>
<text text-anchor="middle" x="691" y="-116.5" font-family="Helvetica,sans-Serif" font-size="10.00">mcastMessaging.h</text>
</a>
</g>
</g>
<!-- Node15&#45;&gt;Node18 -->
<g id="edge44" class="edge"><title>Node15&#45;&gt;Node18</title>
<path fill="none" stroke="midnightblue" d="M517.983,-165.45C553.283,-156.279 611.111,-141.256 650.091,-131.128"/>
<polygon fill="midnightblue" stroke="midnightblue" points="651.262,-134.44 660.06,-128.538 649.501,-127.665 651.262,-134.44"/>
</g>
<!-- Node17&#45;&gt;Node2 -->
<g id="edge42" class="edge"><title>Node17&#45;&gt;Node2</title>
<path fill="none" stroke="midnightblue" d="M374.65,-128.809C379.371,-150.367 394.973,-208.531 431,-239 459.728,-263.296 501.28,-274.328 533.369,-279.337"/>
<polygon fill="midnightblue" stroke="midnightblue" points="533.035,-282.824 543.427,-280.76 534.016,-275.893 533.035,-282.824"/>
</g>
<!-- Node17&#45;&gt;Node3 -->
<g id="edge33" class="edge"><title>Node17&#45;&gt;Node3</title>
<path fill="none" stroke="midnightblue" d="M324.092,-110.5C291.333,-103.821 247.969,-92.368 213,-74 189.111,-61.4523 165.95,-40.4248 151.602,-26.0299"/>
<polygon fill="midnightblue" stroke="midnightblue" points="154.068,-23.5449 144.589,-18.8112 149.047,-28.4226 154.068,-23.5449"/>
</g>
<!-- Node17&#45;&gt;Node6 -->
<g id="edge41" class="edge"><title>Node17&#45;&gt;Node6</title>
<path fill="none" stroke="midnightblue" d="M436.763,-112.865C537.376,-103.85 729.575,-86.1043 815.806,-74.0144"/>
<polygon fill="midnightblue" stroke="midnightblue" points="816.389,-77.4667 825.784,-72.5691 815.385,-70.539 816.389,-77.4667"/>
</g>
<!-- Node17&#45;&gt;Node7 -->
<g id="edge37" class="edge"><title>Node17&#45;&gt;Node7</title>
<path fill="none" stroke="midnightblue" d="M319.948,-110.424C274.406,-101.333 219.915,-83.9237 246,-55 271.634,-26.5765 529.453,-15.1953 633.147,-11.7442"/>
<polygon fill="midnightblue" stroke="midnightblue" points="633.388,-15.2384 643.269,-11.4164 633.161,-8.24203 633.388,-15.2384"/>
</g>
<!-- Node17&#45;&gt;Node9 -->
<g id="edge36" class="edge"><title>Node17&#45;&gt;Node9</title>
<path fill="none" stroke="midnightblue" d="M358.723,-110.45C343.816,-102.045 320.19,-88.7241 302.521,-78.7618"/>
<polygon fill="midnightblue" stroke="midnightblue" points="303.841,-75.488 293.411,-73.6253 300.403,-81.5856 303.841,-75.488"/>
</g>
<!-- Node17&#45;&gt;Node10 -->
<g id="edge34" class="edge"><title>Node17&#45;&gt;Node10</title>
<path fill="none" stroke="midnightblue" d="M337.157,-110.45C292.033,-100.317 215.088,-83.0367 170.9,-73.1132"/>
<polygon fill="midnightblue" stroke="midnightblue" points="171.462,-69.6522 160.938,-70.8759 169.928,-76.4821 171.462,-69.6522"/>
</g>
<!-- Node17&#45;&gt;Node12 -->
<g id="edge38" class="edge"><title>Node17&#45;&gt;Node12</title>
<path fill="none" stroke="midnightblue" d="M404.135,-110.45C439.683,-101.26 497.967,-86.1916 537.14,-76.0637"/>
<polygon fill="midnightblue" stroke="midnightblue" points="538.103,-79.43 546.908,-73.5383 536.351,-72.6529 538.103,-79.43"/>
</g>
<!-- Node17&#45;&gt;Node13 -->
<g id="edge39" class="edge"><title>Node17&#45;&gt;Node13</title>
<path fill="none" stroke="midnightblue" d="M391.225,-110.45C410.961,-101.734 442.666,-87.7306 465.447,-77.6691"/>
<polygon fill="midnightblue" stroke="midnightblue" points="466.87,-80.8672 474.603,-73.6253 464.041,-74.4639 466.87,-80.8672"/>
</g>
<!-- Node17&#45;&gt;Node14 -->
<g id="edge40" class="edge"><title>Node17&#45;&gt;Node14</title>
<path fill="none" stroke="midnightblue" d="M379.562,-110.219C385.639,-102.551 394.841,-90.9387 402.345,-81.4691"/>
<polygon fill="midnightblue" stroke="midnightblue" points="405.153,-83.5608 408.621,-73.5496 399.667,-79.2132 405.153,-83.5608"/>
</g>
<!-- Node17&#45;&gt;Node16 -->
<g id="edge35" class="edge"><title>Node17&#45;&gt;Node16</title>
<path fill="none" stroke="midnightblue" d="M368.938,-110.219C365.329,-102.864 359.941,-91.8801 355.408,-82.639"/>
<polygon fill="midnightblue" stroke="midnightblue" points="358.495,-80.986 350.949,-73.5496 352.211,-84.069 358.495,-80.986"/>
</g>
<!-- Node18&#45;&gt;Node2 -->
<g id="edge51" class="edge"><title>Node18&#45;&gt;Node2</title>
<path fill="none" stroke="midnightblue" d="M685.536,-128.597C668.443,-153.925 615.744,-232.016 592.368,-266.655"/>
<polygon fill="midnightblue" stroke="midnightblue" points="589.299,-264.946 586.606,-275.193 595.101,-268.861 589.299,-264.946"/>
</g>
<!-- Node18&#45;&gt;Node3 -->
<g id="edge45" class="edge"><title>Node18&#45;&gt;Node3</title>
<path fill="none" stroke="midnightblue" d="M684.548,-110.067C673.114,-95.8416 647.769,-67.4153 619,-55 537.926,-20.0123 265.149,-12.4799 170.042,-10.9041"/>
<polygon fill="midnightblue" stroke="midnightblue" points="169.912,-7.40174 159.859,-10.7472 169.804,-14.4009 169.912,-7.40174"/>
</g>
<!-- Node18&#45;&gt;Node6 -->
<g id="edge50" class="edge"><title>Node18&#45;&gt;Node6</title>
<path fill="none" stroke="midnightblue" d="M716.667,-110.45C745.413,-101.436 792.192,-86.7653 824.447,-76.6496"/>
<polygon fill="midnightblue" stroke="midnightblue" points="825.874,-79.8704 834.368,-73.5383 823.779,-73.1911 825.874,-79.8704"/>
</g>
<!-- Node18&#45;&gt;Node7 -->
<g id="edge48" class="edge"><title>Node18&#45;&gt;Node7</title>
<path fill="none" stroke="midnightblue" d="M691.625,-110.213C692.375,-98.0261 693.167,-74.5919 690,-55 688.526,-45.883 685.588,-36.0587 682.781,-27.9661"/>
<polygon fill="midnightblue" stroke="midnightblue" points="686.046,-26.7028 679.303,-18.5305 679.478,-29.1239 686.046,-26.7028"/>
</g>
<!-- Node18&#45;&gt;Node12 -->
<g id="edge49" class="edge"><title>Node18&#45;&gt;Node12</title>
<path fill="none" stroke="midnightblue" d="M673.838,-110.45C655.42,-101.812 625.93,-87.9803 604.522,-77.9396"/>
<polygon fill="midnightblue" stroke="midnightblue" points="605.864,-74.703 595.324,-73.6253 602.891,-81.0405 605.864,-74.703"/>
</g>
<!-- Node18&#45;&gt;Node13 -->
<g id="edge47" class="edge"><title>Node18&#45;&gt;Node13</title>
<path fill="none" stroke="midnightblue" d="M660.928,-110.45C626.666,-101.279 570.539,-86.2555 532.706,-76.1283"/>
<polygon fill="midnightblue" stroke="midnightblue" points="533.595,-72.7431 523.03,-73.5383 531.785,-79.5051 533.595,-72.7431"/>
</g>
<!-- Node19 -->
<g id="node19" class="node"><title>Node19</title>
<polygon fill="white" stroke="#bfbfbf" points="741.99,-55.5 741.99,-73.5 808.01,-73.5 808.01,-55.5 741.99,-55.5"/>
<text text-anchor="middle" x="775" y="-61.5" font-family="Helvetica,sans-Serif" font-size="10.00">sys/types.h</text>
</g>
<!-- Node18&#45;&gt;Node19 -->
<g id="edge46" class="edge"><title>Node18&#45;&gt;Node19</title>
<path fill="none" stroke="midnightblue" d="M703.758,-110.45C716.956,-102.123 737.802,-88.9704 753.541,-79.0394"/>
<polygon fill="midnightblue" stroke="midnightblue" points="755.533,-81.9216 762.122,-73.6253 751.797,-76.0014 755.533,-81.9216"/>
</g>
</g>
</svg>
