<?xml version="1.0" encoding="UTF-8" standalone="no"?>
<!DOCTYPE svg PUBLIC "-//W3C//DTD SVG 1.1//EN"
 "http://www.w3.org/Graphics/SVG/1.1/DTD/svg11.dtd">
<!-- Generated by graphviz version 2.38.0 (20140413.2041)
 -->
<!-- Title: rasPi&#45;EmergencyStation/msgBuffers.h Pages: 1 -->
<svg width="1003pt" height="312pt"
 viewBox="0.00 0.00 1003.04 312.00" xmlns="http://www.w3.org/2000/svg" xmlns:xlink="http://www.w3.org/1999/xlink">
<g id="graph0" class="graph" transform="scale(1 1) rotate(0) translate(4 308)">
<title>rasPi&#45;EmergencyStation/msgBuffers.h</title>
<polygon fill="white" stroke="none" points="-4,4 -4,-308 999.043,-308 999.043,4 -4,4"/>
<!-- Node1 -->
<g id="node1" class="node"><title>Node1</title>
<polygon fill="#bfbfbf" stroke="black" points="381.404,-275.5 381.404,-303.5 505.226,-303.5 505.226,-275.5 381.404,-275.5"/>
<text text-anchor="start" x="389.404" y="-291.5" font-family="Helvetica,sans-Serif" font-size="10.00">rasPi&#45;EmergencyStation</text>
<text text-anchor="middle" x="443.315" y="-281.5" font-family="Helvetica,sans-Serif" font-size="10.00">/msgBuffers.h</text>
</g>
<!-- Node2 -->
<g id="node2" class="node"><title>Node2</title>
<polygon fill="white" stroke="#bfbfbf" points="173.584,-0.5 173.584,-18.5 219.047,-18.5 219.047,-0.5 173.584,-0.5"/>
<text text-anchor="middle" x="196.315" y="-6.5" font-family="Helvetica,sans-Serif" font-size="10.00">stdio.h</text>
</g>
<!-- Node1&#45;&gt;Node2 -->
<g id="edge1" class="edge"><title>Node1&#45;&gt;Node2</title>
<path fill="none" stroke="midnightblue" d="M381.209,-285.77C268.824,-280.189 41.0833,-265.69 17.3153,-239 -52.1775,-160.965 108.342,-59.4316 171.855,-23.6629"/>
<polygon fill="midnightblue" stroke="midnightblue" points="173.778,-26.5984 180.825,-18.6864 170.382,-20.4773 173.778,-26.5984"/>
</g>
<!-- Node3 -->
<g id="node3" class="node"><title>Node3</title>
<polygon fill="white" stroke="#bfbfbf" points="10.1873,-0.5 10.1873,-18.5 68.4432,-18.5 68.4432,-0.5 10.1873,-0.5"/>
<text text-anchor="middle" x="39.3153" y="-6.5" font-family="Helvetica,sans-Serif" font-size="10.00">pthread.h</text>
</g>
<!-- Node1&#45;&gt;Node3 -->
<g id="edge2" class="edge"><title>Node1&#45;&gt;Node3</title>
<path fill="none" stroke="midnightblue" d="M397.563,-275.459C370.282,-266.839 335.408,-254.313 306.315,-239 194.989,-180.403 160.962,-167.07 76.3153,-74 63.7277,-60.1599 53.4215,-41.3427 46.9127,-27.79"/>
<polygon fill="midnightblue" stroke="midnightblue" points="50.0559,-26.2477 42.7007,-18.6219 43.6951,-29.17 50.0559,-26.2477"/>
</g>
<!-- Node4 -->
<g id="node4" class="node"><title>Node4</title>
<polygon fill="white" stroke="#bfbfbf" points="937.53,-220.5 937.53,-238.5 989.101,-238.5 989.101,-220.5 937.53,-220.5"/>
<text text-anchor="middle" x="963.315" y="-226.5" font-family="Helvetica,sans-Serif" font-size="10.00">assert.h</text>
</g>
<!-- Node1&#45;&gt;Node4 -->
<g id="edge3" class="edge"><title>Node1&#45;&gt;Node4</title>
<path fill="none" stroke="midnightblue" d="M505.342,-284.228C597.073,-277.431 774.146,-262.472 923.315,-239 924.578,-238.801 925.86,-238.589 927.154,-238.365"/>
<polygon fill="midnightblue" stroke="midnightblue" points="927.962,-241.774 937.14,-236.48 926.664,-234.896 927.962,-241.774"/>
</g>
<!-- Node5 -->
<g id="node5" class="node"><title>Node5</title>
<g id="a_node5"><a xlink:href="structures_8h.html" target="_top" xlink:title="File containing all the structure definitions used in the other modules. ">
<polygon fill="white" stroke="black" points="162.195,-55.5 162.195,-73.5 230.436,-73.5 230.436,-55.5 162.195,-55.5"/>
<text text-anchor="middle" x="196.315" y="-61.5" font-family="Helvetica,sans-Serif" font-size="10.00">structures.h</text>
</a>
</g>
</g>
<!-- Node1&#45;&gt;Node5 -->
<g id="edge4" class="edge"><title>Node1&#45;&gt;Node5</title>
<path fill="none" stroke="midnightblue" d="M410.544,-275.477C359.544,-253.424 261.905,-203.713 212.315,-129 203.278,-115.384 199.345,-97.037 197.633,-83.5657"/>
<polygon fill="midnightblue" stroke="midnightblue" points="201.116,-83.2173 196.655,-73.6075 194.15,-83.9018 201.116,-83.2173"/>
</g>
<!-- Node7 -->
<g id="node7" class="node"><title>Node7</title>
<g id="a_node7"><a xlink:href="message_parser_8h.html" target="_top" xlink:title="Message parser function headers. ">
<polygon fill="white" stroke="black" points="490.404,-220.5 490.404,-238.5 584.226,-238.5 584.226,-220.5 490.404,-220.5"/>
<text text-anchor="middle" x="537.315" y="-226.5" font-family="Helvetica,sans-Serif" font-size="10.00">messageParser.h</text>
</a>
</g>
</g>
<!-- Node1&#45;&gt;Node7 -->
<g id="edge8" class="edge"><title>Node1&#45;&gt;Node7</title>
<path fill="none" stroke="midnightblue" d="M458.885,-275.339C473.006,-265.807 493.799,-252.982 510.525,-243.49"/>
<polygon fill="midnightblue" stroke="midnightblue" points="512.287,-246.516 519.331,-238.602 508.889,-240.395 512.287,-246.516"/>
</g>
<!-- Node5&#45;&gt;Node2 -->
<g id="edge5" class="edge"><title>Node5&#45;&gt;Node2</title>
<path fill="none" stroke="midnightblue" d="M196.315,-55.2188C196.315,-48.1769 196.315,-37.8083 196.315,-28.8277"/>
<polygon fill="midnightblue" stroke="midnightblue" points="199.815,-28.5495 196.315,-18.5496 192.815,-28.5496 199.815,-28.5495"/>
</g>
<!-- Node5&#45;&gt;Node3 -->
<g id="edge6" class="edge"><title>Node5&#45;&gt;Node3</title>
<path fill="none" stroke="midnightblue" d="M172.47,-55.4504C145.881,-46.4745 102.685,-31.8922 72.7333,-21.7813"/>
<polygon fill="midnightblue" stroke="midnightblue" points="73.7211,-18.4207 63.1269,-18.5383 71.4821,-25.053 73.7211,-18.4207"/>
</g>
<!-- Node6 -->
<g id="node6" class="node"><title>Node6</title>
<polygon fill="white" stroke="#bfbfbf" points="594.852,-0.5 594.852,-18.5 659.778,-18.5 659.778,-0.5 594.852,-0.5"/>
<text text-anchor="middle" x="627.315" y="-6.5" font-family="Helvetica,sans-Serif" font-size="10.00">netinet/in.h</text>
</g>
<!-- Node5&#45;&gt;Node6 -->
<g id="edge7" class="edge"><title>Node5&#45;&gt;Node6</title>
<path fill="none" stroke="midnightblue" d="M230.495,-59.2969C308.381,-49.7193 498.894,-26.292 584.467,-15.769"/>
<polygon fill="midnightblue" stroke="midnightblue" points="585.113,-19.216 594.611,-14.5216 584.259,-12.2684 585.113,-19.216"/>
</g>
<!-- Node7&#45;&gt;Node1 -->
<g id="edge19" class="edge"><title>Node7&#45;&gt;Node1</title>
<path fill="none" stroke="midnightblue" d="M528.743,-238.814C517.344,-246.973 497.208,-259.69 479.272,-270.215"/>
<polygon fill="midnightblue" stroke="midnightblue" points="477.06,-267.451 470.151,-275.484 480.561,-273.512 477.06,-267.451"/>
</g>
<!-- Node7&#45;&gt;Node2 -->
<g id="edge9" class="edge"><title>Node7&#45;&gt;Node2</title>
<path fill="none" stroke="midnightblue" d="M490.283,-228.344C415.492,-225.558 269.06,-209.369 182.315,-129 155.627,-104.274 132.588,-88.2682 147.315,-55 152.839,-42.5218 163.782,-32.0449 173.927,-24.3975"/>
<polygon fill="midnightblue" stroke="midnightblue" points="175.941,-27.26 182.126,-18.6575 171.927,-21.5258 175.941,-27.26"/>
</g>
<!-- Node7&#45;&gt;Node3 -->
<g id="edge12" class="edge"><title>Node7&#45;&gt;Node3</title>
<path fill="none" stroke="midnightblue" d="M490.317,-224.963C413.271,-217.409 257.377,-194.64 144.315,-129 110.699,-109.484 101.627,-103.5 76.3153,-74 64.1328,-59.8019 53.7677,-41.0369 47.1346,-27.594"/>
<polygon fill="midnightblue" stroke="midnightblue" points="50.2741,-26.0458 42.8214,-18.5153 43.9513,-29.0498 50.2741,-26.0458"/>
</g>
<!-- Node7&#45;&gt;Node5 -->
<g id="edge18" class="edge"><title>Node7&#45;&gt;Node5</title>
<path fill="none" stroke="midnightblue" d="M490.202,-223.99C425.297,-215.576 307.744,-192.171 231.315,-129 216.934,-117.113 207.473,-97.7047 202.056,-83.4688"/>
<polygon fill="midnightblue" stroke="midnightblue" points="205.283,-82.0923 198.687,-73.801 198.672,-84.3959 205.283,-82.0923"/>
</g>
<!-- Node7&#45;&gt;Node6 -->
<g id="edge13" class="edge"><title>Node7&#45;&gt;Node6</title>
<path fill="none" stroke="midnightblue" d="M584.448,-228.461C646.114,-226.907 756.525,-218.9 843.315,-184 919.354,-153.423 955.236,-147.587 991.315,-74 995.033,-66.4179 996.912,-61.323 991.315,-55 970.288,-31.2457 761.348,-17.5052 669.854,-12.585"/>
<polygon fill="midnightblue" stroke="midnightblue" points="669.988,-9.08728 659.817,-12.0554 669.619,-16.0776 669.988,-9.08728"/>
</g>
<!-- Node8 -->
<g id="node8" class="node"><title>Node8</title>
<polygon fill="white" stroke="#bfbfbf" points="791.919,-55.5 791.919,-73.5 840.712,-73.5 840.712,-55.5 791.919,-55.5"/>
<text text-anchor="middle" x="816.315" y="-61.5" font-family="Helvetica,sans-Serif" font-size="10.00">string.h</text>
</g>
<!-- Node7&#45;&gt;Node8 -->
<g id="edge10" class="edge"><title>Node7&#45;&gt;Node8</title>
<path fill="none" stroke="midnightblue" d="M584.306,-224.13C646.735,-217.647 753.022,-204.049 786.315,-184 812.896,-167.993 819.209,-158.336 829.315,-129 834.521,-113.889 829.949,-95.9992 824.846,-83.0655"/>
<polygon fill="midnightblue" stroke="midnightblue" points="828.046,-81.648 820.817,-73.9032 821.639,-84.4661 828.046,-81.648"/>
</g>
<!-- Node9 -->
<g id="node9" class="node"><title>Node9</title>
<polygon fill="white" stroke="#bfbfbf" points="934.473,-55.5 934.473,-73.5 982.158,-73.5 982.158,-55.5 934.473,-55.5"/>
<text text-anchor="middle" x="958.315" y="-61.5" font-family="Helvetica,sans-Serif" font-size="10.00">stdlib.h</text>
</g>
<!-- Node7&#45;&gt;Node9 -->
<g id="edge11" class="edge"><title>Node7&#45;&gt;Node9</title>
<path fill="none" stroke="midnightblue" d="M584.353,-228.263C641.043,-226.355 738.061,-217.834 813.315,-184 868.968,-158.979 920.956,-106.951 944.739,-80.9657"/>
<polygon fill="midnightblue" stroke="midnightblue" points="947.358,-83.2885 951.439,-73.5113 942.151,-78.6094 947.358,-83.2885"/>
</g>
<!-- Node10 -->
<g id="node10" class="node"><title>Node10</title>
<polygon fill="white" stroke="#bfbfbf" points="408.687,-55.5 408.687,-73.5 471.943,-73.5 471.943,-55.5 408.687,-55.5"/>
<text text-anchor="middle" x="440.315" y="-61.5" font-family="Helvetica,sans-Serif" font-size="10.00">arpa/inet.h</text>
</g>
<!-- Node7&#45;&gt;Node10 -->
<g id="edge14" class="edge"><title>Node7&#45;&gt;Node10</title>
<path fill="none" stroke="midnightblue" d="M517.981,-220.427C502.787,-213.103 482.26,-200.865 470.315,-184 448.608,-153.351 442.577,-108.447 440.921,-83.6436"/>
<polygon fill="midnightblue" stroke="midnightblue" points="444.41,-83.3227 440.419,-73.5082 437.418,-83.6691 444.41,-83.3227"/>
</g>
<!-- Node11 -->
<g id="node11" class="node"><title>Node11</title>
<polygon fill="white" stroke="#bfbfbf" points="489.806,-55.5 489.806,-73.5 560.825,-73.5 560.825,-55.5 489.806,-55.5"/>
<text text-anchor="middle" x="525.315" y="-61.5" font-family="Helvetica,sans-Serif" font-size="10.00">sys/socket.h</text>
</g>
<!-- Node7&#45;&gt;Node11 -->
<g id="edge15" class="edge"><title>Node7&#45;&gt;Node11</title>
<path fill="none" stroke="midnightblue" d="M520.359,-220.41C507.009,-213.005 489.358,-200.664 481.315,-184 467.02,-154.381 468.815,-140.421 481.315,-110 486.184,-98.1513 495.901,-87.7773 504.969,-80.0331"/>
<polygon fill="midnightblue" stroke="midnightblue" points="507.299,-82.6522 512.955,-73.6934 502.946,-77.1696 507.299,-82.6522"/>
</g>
<!-- Node12 -->
<g id="node12" class="node"><title>Node12</title>
<polygon fill="white" stroke="#bfbfbf" points="594.131,-165.5 594.131,-183.5 668.5,-183.5 668.5,-165.5 594.131,-165.5"/>
<text text-anchor="middle" x="631.315" y="-171.5" font-family="Helvetica,sans-Serif" font-size="10.00">semaphore.h</text>
</g>
<!-- Node7&#45;&gt;Node12 -->
<g id="edge16" class="edge"><title>Node7&#45;&gt;Node12</title>
<path fill="none" stroke="midnightblue" d="M551.592,-220.45C566.499,-212.045 590.125,-198.724 607.794,-188.762"/>
<polygon fill="midnightblue" stroke="midnightblue" points="609.913,-191.586 616.904,-183.625 606.475,-185.488 609.913,-191.586"/>
</g>
<!-- Node13 -->
<g id="node13" class="node"><title>Node13</title>
<polygon fill="white" stroke="#bfbfbf" points="722.803,-55.5 722.803,-73.5 773.827,-73.5 773.827,-55.5 722.803,-55.5"/>
<text text-anchor="middle" x="748.315" y="-61.5" font-family="Helvetica,sans-Serif" font-size="10.00">unistd.h</text>
</g>
<!-- Node7&#45;&gt;Node13 -->
<g id="edge17" class="edge"><title>Node7&#45;&gt;Node13</title>
<path fill="none" stroke="midnightblue" d="M584.484,-228.651C651.052,-225.895 769.348,-209.308 813.315,-129 824.783,-108.053 799.962,-89.6758 777.758,-78.1533"/>
<polygon fill="midnightblue" stroke="midnightblue" points="779.038,-74.8836 768.516,-73.6472 775.971,-81.1757 779.038,-74.8836"/>
</g>
<!-- Node14 -->
<g id="node14" class="node"><title>Node14</title>
<g id="a_node14"><a xlink:href="tcp_vehicle_socket_comm_8h.html" target="_top" xlink:title="Vehicle connection server&#39;s headers. ">
<polygon fill="white" stroke="black" points="674.343,-110.5 674.343,-128.5 804.288,-128.5 804.288,-110.5 674.343,-110.5"/>
<text text-anchor="middle" x="739.315" y="-116.5" font-family="Helvetica,sans-Serif" font-size="10.00">tcpVehicleSocketComm.h</text>
</a>
</g>
</g>
<!-- Node7&#45;&gt;Node14 -->
<g id="edge20" class="edge"><title>Node7&#45;&gt;Node14</title>
<path fill="none" stroke="midnightblue" d="M584.296,-222.219C615.222,-216.4 655.239,-205.256 685.315,-184 702.151,-172.101 714.904,-151.829 724.365,-137.392"/>
<polygon fill="midnightblue" stroke="midnightblue" points="727.41,-139.137 730.117,-128.893 721.613,-135.213 727.41,-139.137"/>
</g>
<!-- Node16 -->
<g id="node16" class="node"><title>Node16</title>
<g id="a_node16"><a xlink:href="station_actions_8h.html" target="_top" xlink:title="FIle containing all the station action headers. ">
<polygon fill="white" stroke="black" points="490.017,-165.5 490.017,-183.5 576.613,-183.5 576.613,-165.5 490.017,-165.5"/>
<text text-anchor="middle" x="533.315" y="-171.5" font-family="Helvetica,sans-Serif" font-size="10.00">stationActions.h</text>
</a>
</g>
</g>
<!-- Node7&#45;&gt;Node16 -->
<g id="edge61" class="edge"><title>Node7&#45;&gt;Node16</title>
<path fill="none" stroke="midnightblue" d="M531.628,-220.219C529.478,-213.099 528.227,-202.577 528.242,-193.529"/>
<polygon fill="midnightblue" stroke="midnightblue" points="531.734,-193.762 528.913,-183.55 524.75,-193.292 531.734,-193.762"/>
</g>
<!-- Node14&#45;&gt;Node1 -->
<g id="edge30" class="edge"><title>Node14&#45;&gt;Node1</title>
<path fill="none" stroke="midnightblue" d="M740.072,-128.519C740.862,-141.634 740.503,-167.827 727.315,-184 675.474,-247.579 581.216,-272.476 515.571,-282.226"/>
<polygon fill="midnightblue" stroke="midnightblue" points="514.711,-278.812 505.292,-283.664 515.681,-285.744 514.711,-278.812"/>
</g>
<!-- Node14&#45;&gt;Node2 -->
<g id="edge21" class="edge"><title>Node14&#45;&gt;Node2</title>
<path fill="none" stroke="midnightblue" d="M779.439,-110.48C820.309,-100.62 874.378,-81.8292 849.315,-55 827.93,-32.1081 358.722,-15.6311 229.183,-11.5067"/>
<polygon fill="midnightblue" stroke="midnightblue" points="229.186,-8.00519 219.081,-11.1883 228.965,-15.0017 229.186,-8.00519"/>
</g>
<!-- Node14&#45;&gt;Node5 -->
<g id="edge29" class="edge"><title>Node14&#45;&gt;Node5</title>
<path fill="none" stroke="midnightblue" d="M674.264,-112.411C584.815,-103.997 418.824,-88.2396 277.315,-74 265.455,-72.8065 252.622,-71.4773 240.743,-70.2311"/>
<polygon fill="midnightblue" stroke="midnightblue" points="240.909,-66.7294 230.598,-69.1629 240.176,-73.6909 240.909,-66.7294"/>
</g>
<!-- Node14&#45;&gt;Node6 -->
<g id="edge25" class="edge"><title>Node14&#45;&gt;Node6</title>
<path fill="none" stroke="midnightblue" d="M804.584,-111.143C853.852,-102.958 908.796,-86.5021 882.315,-55 855.69,-23.326 735.423,-14.1943 670.01,-11.5634"/>
<polygon fill="midnightblue" stroke="midnightblue" points="670.128,-8.0654 660.006,-11.1945 669.87,-15.0606 670.128,-8.0654"/>
</g>
<!-- Node14&#45;&gt;Node7 -->
<g id="edge31" class="edge"><title>Node14&#45;&gt;Node7</title>
<path fill="none" stroke="midnightblue" d="M741.213,-128.893C738.294,-142.546 723.839,-169.495 703.315,-184 671.519,-206.472 628.614,-217.641 594.299,-223.167"/>
<polygon fill="midnightblue" stroke="midnightblue" points="593.78,-219.705 584.407,-224.643 594.814,-226.628 593.78,-219.705"/>
</g>
<!-- Node14&#45;&gt;Node8 -->
<g id="edge24" class="edge"><title>Node14&#45;&gt;Node8</title>
<path fill="none" stroke="midnightblue" d="M751.01,-110.45C762.995,-102.201 781.86,-89.2158 796.239,-79.3187"/>
<polygon fill="midnightblue" stroke="midnightblue" points="798.258,-82.1782 804.511,-73.6253 794.289,-76.4121 798.258,-82.1782"/>
</g>
<!-- Node14&#45;&gt;Node9 -->
<g id="edge22" class="edge"><title>Node14&#45;&gt;Node9</title>
<path fill="none" stroke="midnightblue" d="M772.577,-110.45C813.612,-100.52 883.004,-83.7259 924.357,-73.7181"/>
<polygon fill="midnightblue" stroke="midnightblue" points="925.336,-77.0824 934.232,-71.3283 923.69,-70.2788 925.336,-77.0824"/>
</g>
<!-- Node14&#45;&gt;Node10 -->
<g id="edge26" class="edge"><title>Node14&#45;&gt;Node10</title>
<path fill="none" stroke="midnightblue" d="M689.074,-110.467C638.959,-102.32 559.524,-89.044 482.091,-74.2878"/>
<polygon fill="midnightblue" stroke="midnightblue" points="482.649,-70.8312 472.169,-72.3867 481.332,-77.7061 482.649,-70.8312"/>
</g>
<!-- Node14&#45;&gt;Node11 -->
<g id="edge27" class="edge"><title>Node14&#45;&gt;Node11</title>
<path fill="none" stroke="midnightblue" d="M706.813,-110.45C669.626,-101.24 608.604,-86.1276 567.709,-75.9993"/>
<polygon fill="midnightblue" stroke="midnightblue" points="568.32,-72.545 557.772,-73.5383 566.637,-79.3397 568.32,-72.545"/>
</g>
<!-- Node14&#45;&gt;Node13 -->
<g id="edge23" class="edge"><title>Node14&#45;&gt;Node13</title>
<path fill="none" stroke="midnightblue" d="M740.722,-110.219C741.931,-103.099 743.717,-92.5775 745.254,-83.5289"/>
<polygon fill="midnightblue" stroke="midnightblue" points="748.725,-83.9944 746.948,-73.5496 741.824,-82.8224 748.725,-83.9944"/>
</g>
<!-- Node15 -->
<g id="node15" class="node"><title>Node15</title>
<polygon fill="white" stroke="#bfbfbf" points="655.633,-55.5 655.633,-73.5 704.997,-73.5 704.997,-55.5 655.633,-55.5"/>
<text text-anchor="middle" x="680.315" y="-61.5" font-family="Helvetica,sans-Serif" font-size="10.00">netdb.h</text>
</g>
<!-- Node14&#45;&gt;Node15 -->
<g id="edge28" class="edge"><title>Node14&#45;&gt;Node15</title>
<path fill="none" stroke="midnightblue" d="M730.354,-110.45C721.518,-102.512 707.799,-90.1891 696.96,-80.4519"/>
<polygon fill="midnightblue" stroke="midnightblue" points="699.139,-77.7043 689.36,-73.6253 694.461,-82.9118 699.139,-77.7043"/>
</g>
<!-- Node14&#45;&gt;Node16 -->
<g id="edge32" class="edge"><title>Node14&#45;&gt;Node16</title>
<path fill="none" stroke="midnightblue" d="M713.079,-128.538C679.371,-137.763 620.623,-152.92 579.421,-163.053"/>
<polygon fill="midnightblue" stroke="midnightblue" points="578.495,-159.676 569.612,-165.45 580.157,-166.476 578.495,-159.676"/>
</g>
<!-- Node16&#45;&gt;Node1 -->
<g id="edge39" class="edge"><title>Node16&#45;&gt;Node1</title>
<path fill="none" stroke="midnightblue" d="M521.509,-183.678C510.214,-191.915 493.189,-205.458 481.315,-220 469.895,-233.987 460.099,-251.891 453.315,-265.887"/>
<polygon fill="midnightblue" stroke="midnightblue" points="449.99,-264.735 448.927,-275.276 456.332,-267.699 449.99,-264.735"/>
</g>
<!-- Node16&#45;&gt;Node2 -->
<g id="edge33" class="edge"><title>Node16&#45;&gt;Node2</title>
<path fill="none" stroke="midnightblue" d="M489.927,-173.355C429.758,-171.782 318.543,-163.863 231.315,-129 191.927,-113.257 172.84,-111.658 153.315,-74 144.06,-56.1483 160.692,-37.2586 175.887,-24.7691"/>
<polygon fill="midnightblue" stroke="midnightblue" points="178.206,-27.4014 184.008,-18.5362 173.944,-21.8485 178.206,-27.4014"/>
</g>
<!-- Node16&#45;&gt;Node3 -->
<g id="edge35" class="edge"><title>Node16&#45;&gt;Node3</title>
<path fill="none" stroke="midnightblue" d="M489.887,-171.025C408.583,-165.896 236.701,-152.576 182.315,-129 127.032,-105.035 76.2598,-52.9128 52.8712,-26.5119"/>
<polygon fill="midnightblue" stroke="midnightblue" points="55.2209,-23.8796 46.0223,-18.6225 49.9349,-28.4685 55.2209,-23.8796"/>
</g>
<!-- Node16&#45;&gt;Node5 -->
<g id="edge37" class="edge"><title>Node16&#45;&gt;Node5</title>
<path fill="none" stroke="midnightblue" d="M489.658,-174.406C433.551,-173.833 334.54,-166.847 260.315,-129 238.606,-117.931 219.631,-96.8394 208.094,-82.0101"/>
<polygon fill="midnightblue" stroke="midnightblue" points="210.701,-79.6511 201.914,-73.7315 205.092,-83.8386 210.701,-79.6511"/>
</g>
<!-- Node16&#45;&gt;Node7 -->
<g id="edge38" class="edge"><title>Node16&#45;&gt;Node7</title>
<path fill="none" stroke="midnightblue" d="M538.932,-183.55C541.101,-190.595 542.376,-201.094 542.388,-210.175"/>
<polygon fill="midnightblue" stroke="midnightblue" points="538.891,-210.018 541.753,-220.219 545.877,-210.46 538.891,-210.018"/>
</g>
<!-- Node16&#45;&gt;Node9 -->
<g id="edge34" class="edge"><title>Node16&#45;&gt;Node9</title>
<path fill="none" stroke="midnightblue" d="M576.724,-166.386C579.631,-165.915 582.515,-165.45 585.315,-165 686.605,-148.725 714.856,-157.813 813.315,-129 857.436,-116.089 905.807,-92.9382 934.037,-78.4423"/>
<polygon fill="midnightblue" stroke="midnightblue" points="935.885,-81.4263 943.142,-73.7069 932.655,-75.216 935.885,-81.4263"/>
</g>
<!-- Node16&#45;&gt;Node13 -->
<g id="edge36" class="edge"><title>Node16&#45;&gt;Node13</title>
<path fill="none" stroke="midnightblue" d="M551.091,-165.35C570.072,-156.586 600.979,-142.137 627.315,-129 661.425,-111.985 700.382,-91.3146 724.665,-78.2797"/>
<polygon fill="midnightblue" stroke="midnightblue" points="726.366,-81.339 733.514,-73.5188 723.05,-75.1745 726.366,-81.339"/>
</g>
<!-- Node16&#45;&gt;Node14 -->
<g id="edge52" class="edge"><title>Node16&#45;&gt;Node14</title>
<path fill="none" stroke="midnightblue" d="M559.593,-165.45C593.321,-156.221 652.072,-141.063 693.259,-130.935"/>
<polygon fill="midnightblue" stroke="midnightblue" points="694.182,-134.313 703.065,-128.538 692.52,-127.513 694.182,-134.313"/>
</g>
<!-- Node17 -->
<g id="node17" class="node"><title>Node17</title>
<g id="a_node17"><a xlink:href="tcp_server_socket_comm_8h.html" target="_top" xlink:title="Server connection related function definitions. ">
<polygon fill="white" stroke="black" points="490.742,-110.5 490.742,-128.5 617.889,-128.5 617.889,-110.5 490.742,-110.5"/>
<text text-anchor="middle" x="554.315" y="-116.5" font-family="Helvetica,sans-Serif" font-size="10.00">tcpServerSocketComm.h</text>
</a>
</g>
</g>
<!-- Node16&#45;&gt;Node17 -->
<g id="edge40" class="edge"><title>Node16&#45;&gt;Node17</title>
<path fill="none" stroke="midnightblue" d="M536.597,-165.219C539.48,-157.942 543.77,-147.113 547.407,-137.934"/>
<polygon fill="midnightblue" stroke="midnightblue" points="550.696,-139.136 551.126,-128.55 544.188,-136.557 550.696,-139.136"/>
</g>
<!-- Node18 -->
<g id="node18" class="node"><title>Node18</title>
<g id="a_node18"><a xlink:href="mcast_messaging_8h.html" target="_top" xlink:title="FIle containing all the headers of the functions related to multicast communication. ">
<polygon fill="white" stroke="black" points="269.631,-110.5 269.631,-128.5 369,-128.5 369,-110.5 269.631,-110.5"/>
<text text-anchor="middle" x="319.315" y="-116.5" font-family="Helvetica,sans-Serif" font-size="10.00">mcastMessaging.h</text>
</a>
</g>
</g>
<!-- Node16&#45;&gt;Node18 -->
<g id="edge53" class="edge"><title>Node16&#45;&gt;Node18</title>
<path fill="none" stroke="midnightblue" d="M500.813,-165.45C463.626,-156.24 402.604,-141.128 361.709,-130.999"/>
<polygon fill="midnightblue" stroke="midnightblue" points="362.32,-127.545 351.772,-128.538 360.637,-134.34 362.32,-127.545"/>
</g>
<!-- Node17&#45;&gt;Node1 -->
<g id="edge50" class="edge"><title>Node17&#45;&gt;Node1</title>
<path fill="none" stroke="midnightblue" d="M532.832,-128.612C516.491,-135.825 494.618,-147.893 481.315,-165 458.199,-194.728 449.059,-238.574 445.506,-265.238"/>
<polygon fill="midnightblue" stroke="midnightblue" points="442.027,-264.859 444.334,-275.199 448.979,-265.677 442.027,-264.859"/>
</g>
<!-- Node17&#45;&gt;Node2 -->
<g id="edge41" class="edge"><title>Node17&#45;&gt;Node2</title>
<path fill="none" stroke="midnightblue" d="M560.399,-110.4C569.548,-97.168 584.357,-70.8112 570.315,-55 547.808,-29.6555 316.399,-16.1733 229.262,-11.9645"/>
<polygon fill="midnightblue" stroke="midnightblue" points="229.291,-8.46206 219.137,-11.4861 228.961,-15.4543 229.291,-8.46206"/>
</g>
<!-- Node17&#45;&gt;Node5 -->
<g id="edge49" class="edge"><title>Node17&#45;&gt;Node5</title>
<path fill="none" stroke="midnightblue" d="M499.943,-110.45C429.016,-99.9502 306.265,-81.7774 240.667,-72.0661"/>
<polygon fill="midnightblue" stroke="midnightblue" points="241.052,-68.5849 230.647,-70.5826 240.026,-75.5094 241.052,-68.5849"/>
</g>
<!-- Node17&#45;&gt;Node6 -->
<g id="edge45" class="edge"><title>Node17&#45;&gt;Node6</title>
<path fill="none" stroke="midnightblue" d="M566.288,-110.219C577.242,-102.104 593.231,-88.8216 603.315,-74 612.742,-60.1452 619.101,-42.0916 622.892,-28.7776"/>
<polygon fill="midnightblue" stroke="midnightblue" points="626.329,-29.4657 625.483,-18.9047 619.559,-27.6885 626.329,-29.4657"/>
</g>
<!-- Node17&#45;&gt;Node7 -->
<g id="edge51" class="edge"><title>Node17&#45;&gt;Node7</title>
<path fill="none" stroke="midnightblue" d="M608.154,-128.568C650.533,-137.327 699.094,-154.226 677.315,-184 658.377,-209.892 624.251,-221.083 594.435,-225.77"/>
<polygon fill="midnightblue" stroke="midnightblue" points="593.952,-222.303 584.516,-227.121 594.897,-229.239 593.952,-222.303"/>
</g>
<!-- Node17&#45;&gt;Node8 -->
<g id="edge44" class="edge"><title>Node17&#45;&gt;Node8</title>
<path fill="none" stroke="midnightblue" d="M600.105,-110.44C644.282,-102.476 713.26,-89.552 781.748,-74.2516"/>
<polygon fill="midnightblue" stroke="midnightblue" points="782.86,-77.5889 791.847,-71.9772 781.322,-70.76 782.86,-77.5889"/>
</g>
<!-- Node17&#45;&gt;Node9 -->
<g id="edge42" class="edge"><title>Node17&#45;&gt;Node9</title>
<path fill="none" stroke="midnightblue" d="M615.674,-110.45C701.79,-99.153 855.608,-78.974 923.955,-70.0077"/>
<polygon fill="midnightblue" stroke="midnightblue" points="924.707,-73.4391 934.167,-68.668 923.796,-66.4986 924.707,-73.4391"/>
</g>
<!-- Node17&#45;&gt;Node10 -->
<g id="edge46" class="edge"><title>Node17&#45;&gt;Node10</title>
<path fill="none" stroke="midnightblue" d="M537.001,-110.45C518.42,-101.812 488.669,-87.9803 467.072,-77.9396"/>
<polygon fill="midnightblue" stroke="midnightblue" points="468.336,-74.6674 457.792,-73.6253 465.385,-81.0149 468.336,-74.6674"/>
</g>
<!-- Node17&#45;&gt;Node11 -->
<g id="edge47" class="edge"><title>Node17&#45;&gt;Node11</title>
<path fill="none" stroke="midnightblue" d="M549.784,-110.219C545.717,-102.786 539.622,-91.646 534.532,-82.3446"/>
<polygon fill="midnightblue" stroke="midnightblue" points="537.59,-80.6421 529.72,-73.5496 531.449,-84.0023 537.59,-80.6421"/>
</g>
<!-- Node17&#45;&gt;Node13 -->
<g id="edge43" class="edge"><title>Node17&#45;&gt;Node13</title>
<path fill="none" stroke="midnightblue" d="M583.78,-110.45C618.369,-101.001 675.703,-85.3373 712.739,-75.2192"/>
<polygon fill="midnightblue" stroke="midnightblue" points="713.887,-78.5339 722.611,-72.5222 712.043,-71.7814 713.887,-78.5339"/>
</g>
<!-- Node17&#45;&gt;Node15 -->
<g id="edge48" class="edge"><title>Node17&#45;&gt;Node15</title>
<path fill="none" stroke="midnightblue" d="M573.452,-110.45C594.267,-101.695 627.763,-87.6055 651.705,-77.5346"/>
<polygon fill="midnightblue" stroke="midnightblue" points="653.138,-80.7289 660.998,-73.6253 650.424,-74.2765 653.138,-80.7289"/>
</g>
<!-- Node18&#45;&gt;Node1 -->
<g id="edge60" class="edge"><title>Node18&#45;&gt;Node1</title>
<path fill="none" stroke="midnightblue" d="M325.28,-128.582C343.65,-153.47 399.791,-229.531 427.503,-267.076"/>
<polygon fill="midnightblue" stroke="midnightblue" points="424.831,-269.35 433.585,-275.317 430.463,-265.193 424.831,-269.35"/>
</g>
<!-- Node18&#45;&gt;Node2 -->
<g id="edge54" class="edge"><title>Node18&#45;&gt;Node2</title>
<path fill="none" stroke="midnightblue" d="M310.07,-110.382C289.502,-92.3222 239.697,-48.5913 213.336,-25.4449"/>
<polygon fill="midnightblue" stroke="midnightblue" points="215.491,-22.6797 205.668,-18.7118 210.873,-27.9398 215.491,-22.6797"/>
</g>
<!-- Node18&#45;&gt;Node5 -->
<g id="edge59" class="edge"><title>Node18&#45;&gt;Node5</title>
<path fill="none" stroke="midnightblue" d="M300.634,-110.45C280.406,-101.734 247.907,-87.7306 224.557,-77.6691"/>
<polygon fill="midnightblue" stroke="midnightblue" points="225.741,-74.3683 215.172,-73.6253 222.971,-80.7969 225.741,-74.3683"/>
</g>
<!-- Node18&#45;&gt;Node6 -->
<g id="edge57" class="edge"><title>Node18&#45;&gt;Node6</title>
<path fill="none" stroke="midnightblue" d="M326.842,-110.393C340.086,-96.6584 369.039,-68.9527 399.315,-55 459.758,-27.1451 537.016,-16.7106 584.295,-12.812"/>
<polygon fill="midnightblue" stroke="midnightblue" points="584.782,-16.2851 594.487,-12.035 584.25,-9.30538 584.782,-16.2851"/>
</g>
<!-- Node18&#45;&gt;Node10 -->
<g id="edge58" class="edge"><title>Node18&#45;&gt;Node10</title>
<path fill="none" stroke="midnightblue" d="M337.693,-110.45C357.592,-101.734 389.562,-87.7306 412.533,-77.6691"/>
<polygon fill="midnightblue" stroke="midnightblue" points="414.009,-80.8435 421.765,-73.6253 411.201,-74.4316 414.009,-80.8435"/>
</g>
<!-- Node18&#45;&gt;Node11 -->
<g id="edge56" class="edge"><title>Node18&#45;&gt;Node11</title>
<path fill="none" stroke="midnightblue" d="M350.602,-110.45C386.324,-101.26 444.891,-86.1916 484.256,-76.0637"/>
<polygon fill="midnightblue" stroke="midnightblue" points="485.26,-79.4197 494.072,-73.5383 483.515,-72.6404 485.26,-79.4197"/>
</g>
<!-- Node19 -->
<g id="node19" class="node"><title>Node19</title>
<polygon fill="white" stroke="#bfbfbf" points="286.306,-55.5 286.306,-73.5 352.325,-73.5 352.325,-55.5 286.306,-55.5"/>
<text text-anchor="middle" x="319.315" y="-61.5" font-family="Helvetica,sans-Serif" font-size="10.00">sys/types.h</text>
</g>
<!-- Node18&#45;&gt;Node19 -->
<g id="edge55" class="edge"><title>Node18&#45;&gt;Node19</title>
<path fill="none" stroke="midnightblue" d="M319.315,-110.219C319.315,-103.177 319.315,-92.8083 319.315,-83.8277"/>
<polygon fill="midnightblue" stroke="midnightblue" points="322.815,-83.5495 319.315,-73.5496 315.815,-83.5496 322.815,-83.5495"/>
</g>
</g>
</svg>
