<?xml version="1.0" encoding="UTF-8" standalone="no"?>
<!DOCTYPE svg PUBLIC "-//W3C//DTD SVG 1.1//EN"
 "http://www.w3.org/Graphics/SVG/1.1/DTD/svg11.dtd">
<!-- Generated by graphviz version 2.38.0 (20140413.2041)
 -->
<!-- Title: rasPi&#45;EmergencyStation/msgBuffers.h Pages: 1 -->
<svg width="566pt" height="362pt"
 viewBox="0.00 0.00 565.91 362.00" xmlns="http://www.w3.org/2000/svg" xmlns:xlink="http://www.w3.org/1999/xlink">
<g id="graph0" class="graph" transform="scale(1 1) rotate(0) translate(4 358)">
<title>rasPi&#45;EmergencyStation/msgBuffers.h</title>
<polygon fill="white" stroke="none" points="-4,4 -4,-358 561.911,-358 561.911,4 -4,4"/>
<!-- Node1 -->
<g id="node1" class="node"><title>Node1</title>
<polygon fill="#bfbfbf" stroke="black" points="164.089,-325.5 164.089,-353.5 287.911,-353.5 287.911,-325.5 164.089,-325.5"/>
<text text-anchor="start" x="172.089" y="-341.5" font-family="Helvetica,sans-Serif" font-size="10.00">rasPi&#45;EmergencyStation</text>
<text text-anchor="middle" x="226" y="-331.5" font-family="Helvetica,sans-Serif" font-size="10.00">/msgBuffers.h</text>
</g>
<!-- Node2 -->
<g id="node2" class="node"><title>Node2</title>
<g id="a_node2"><a xlink:href="message_parser_8h.html" target="_top" xlink:title="Message parser function headers. ">
<polygon fill="white" stroke="red" points="117.089,-260.5 117.089,-288.5 240.911,-288.5 240.911,-260.5 117.089,-260.5"/>
<text text-anchor="start" x="125.089" y="-276.5" font-family="Helvetica,sans-Serif" font-size="10.00">rasPi&#45;EmergencyStation</text>
<text text-anchor="middle" x="179" y="-266.5" font-family="Helvetica,sans-Serif" font-size="10.00">/messageParser.h</text>
</a>
</g>
</g>
<!-- Node1&#45;&gt;Node2 -->
<g id="edge1" class="edge"><title>Node1&#45;&gt;Node2</title>
<path fill="none" stroke="midnightblue" d="M204.174,-317.802C196.303,-308.159 188.227,-296.98 183.136,-288.537"/>
<polygon fill="midnightblue" stroke="midnightblue" points="201.527,-320.091 210.669,-325.446 206.862,-315.559 201.527,-320.091"/>
</g>
<!-- Node3 -->
<g id="node3" class="node"><title>Node3</title>
<g id="a_node3"><a xlink:href="main_8h.html" target="_top" xlink:title="Main file&#39;s headers of the emergency station application. ">
<polygon fill="white" stroke="red" points="108.089,-0.5 108.089,-28.5 231.911,-28.5 231.911,-0.5 108.089,-0.5"/>
<text text-anchor="start" x="116.089" y="-16.5" font-family="Helvetica,sans-Serif" font-size="10.00">rasPi&#45;EmergencyStation</text>
<text text-anchor="middle" x="170" y="-6.5" font-family="Helvetica,sans-Serif" font-size="10.00">/main.h</text>
</a>
</g>
</g>
<!-- Node1&#45;&gt;Node3 -->
<g id="edge20" class="edge"><title>Node1&#45;&gt;Node3</title>
<path fill="none" stroke="midnightblue" d="M153.944,-328.322C87.7954,-314.434 0,-282.449 0,-210.5 0,-210.5 0,-210.5 0,-143.5 0,-81.6179 72.7777,-45.917 123.097,-28.6287"/>
<polygon fill="midnightblue" stroke="midnightblue" points="153.454,-331.794 163.946,-330.321 154.825,-324.929 153.454,-331.794"/>
</g>
<!-- Node4 -->
<g id="node4" class="node"><title>Node4</title>
<g id="a_node4"><a xlink:href="tcp_vehicle_socket_comm_8h.html" target="_top" xlink:title="Vehicle connection server&#39;s headers. ">
<polygon fill="white" stroke="red" points="103.638,-65.5 103.638,-93.5 236.362,-93.5 236.362,-65.5 103.638,-65.5"/>
<text text-anchor="start" x="111.638" y="-81.5" font-family="Helvetica,sans-Serif" font-size="10.00">rasPi&#45;EmergencyStation</text>
<text text-anchor="middle" x="170" y="-71.5" font-family="Helvetica,sans-Serif" font-size="10.00">/tcpVehicleSocketComm.h</text>
</a>
</g>
</g>
<!-- Node1&#45;&gt;Node4 -->
<g id="edge15" class="edge"><title>Node1&#45;&gt;Node4</title>
<path fill="none" stroke="midnightblue" d="M154.314,-323.593C136.205,-316.25 118.841,-305.305 108,-289 64.8206,-224.062 131.643,-128.223 159.099,-93.5878"/>
<polygon fill="midnightblue" stroke="midnightblue" points="153.228,-326.923 163.821,-327.114 155.659,-320.359 153.228,-326.923"/>
</g>
<!-- Node5 -->
<g id="node5" class="node"><title>Node5</title>
<g id="a_node5"><a xlink:href="station_actions_8h.html" target="_top" xlink:title="FIle containing all the station action headers. ">
<polygon fill="white" stroke="red" points="181.089,-130.5 181.089,-158.5 304.911,-158.5 304.911,-130.5 181.089,-130.5"/>
<text text-anchor="start" x="189.089" y="-146.5" font-family="Helvetica,sans-Serif" font-size="10.00">rasPi&#45;EmergencyStation</text>
<text text-anchor="middle" x="243" y="-136.5" font-family="Helvetica,sans-Serif" font-size="10.00">/stationActions.h</text>
</a>
</g>
</g>
<!-- Node1&#45;&gt;Node5 -->
<g id="edge16" class="edge"><title>Node1&#45;&gt;Node5</title>
<path fill="none" stroke="midnightblue" d="M257.85,-319.81C287.74,-300.227 330.532,-266.423 349,-224 354.145,-212.182 355.922,-205.872 349,-195 337.819,-177.439 318.599,-166.005 299.569,-158.607"/>
<polygon fill="midnightblue" stroke="midnightblue" points="255.585,-317.102 249.029,-325.425 259.344,-323.008 255.585,-317.102"/>
</g>
<!-- Node6 -->
<g id="node6" class="node"><title>Node6</title>
<g id="a_node6"><a xlink:href="tcp_server_socket_comm_8h.html" target="_top" xlink:title="Server connection related function definitions. ">
<polygon fill="white" stroke="red" points="396.037,-195.5 396.037,-223.5 525.963,-223.5 525.963,-195.5 396.037,-195.5"/>
<text text-anchor="start" x="404.037" y="-211.5" font-family="Helvetica,sans-Serif" font-size="10.00">rasPi&#45;EmergencyStation</text>
<text text-anchor="middle" x="461" y="-201.5" font-family="Helvetica,sans-Serif" font-size="10.00">/tcpServerSocketComm.h</text>
</a>
</g>
</g>
<!-- Node1&#45;&gt;Node6 -->
<g id="edge17" class="edge"><title>Node1&#45;&gt;Node6</title>
<path fill="none" stroke="midnightblue" d="M298.091,-323.308C325.6,-315.585 356.461,-304.474 382,-289 411.104,-271.366 437.53,-240.875 451.204,-223.541"/>
<polygon fill="midnightblue" stroke="midnightblue" points="296.864,-320.014 288.124,-326.002 298.69,-326.772 296.864,-320.014"/>
</g>
<!-- Node7 -->
<g id="node7" class="node"><title>Node7</title>
<g id="a_node7"><a xlink:href="mcast_messaging_8h.html" target="_top" xlink:title="FIle containing all the headers of the functions related to multicast communication. ">
<polygon fill="white" stroke="red" points="216.089,-195.5 216.089,-223.5 339.911,-223.5 339.911,-195.5 216.089,-195.5"/>
<text text-anchor="start" x="224.089" y="-211.5" font-family="Helvetica,sans-Serif" font-size="10.00">rasPi&#45;EmergencyStation</text>
<text text-anchor="middle" x="278" y="-201.5" font-family="Helvetica,sans-Serif" font-size="10.00">/mcastMessaging.h</text>
</a>
</g>
</g>
<!-- Node1&#45;&gt;Node7 -->
<g id="edge18" class="edge"><title>Node1&#45;&gt;Node7</title>
<path fill="none" stroke="midnightblue" d="M237.509,-316.081C241.652,-307.679 246.231,-297.989 250,-289 259.456,-266.449 268.63,-239.461 273.773,-223.723"/>
<polygon fill="midnightblue" stroke="midnightblue" points="234.273,-314.727 232.919,-325.235 240.53,-317.864 234.273,-314.727"/>
</g>
<!-- Node8 -->
<g id="node8" class="node"><title>Node8</title>
<g id="a_node8"><a xlink:href="msg_buffers_8c.html" target="_top" xlink:title="File containing the definitions of all functions related to the message mailboxes. ">
<polygon fill="white" stroke="black" points="434.089,-260.5 434.089,-288.5 557.911,-288.5 557.911,-260.5 434.089,-260.5"/>
<text text-anchor="start" x="442.089" y="-276.5" font-family="Helvetica,sans-Serif" font-size="10.00">rasPi&#45;EmergencyStation</text>
<text text-anchor="middle" x="496" y="-266.5" font-family="Helvetica,sans-Serif" font-size="10.00">/msgBuffers.c</text>
</a>
</g>
</g>
<!-- Node1&#45;&gt;Node8 -->
<g id="edge21" class="edge"><title>Node1&#45;&gt;Node8</title>
<path fill="none" stroke="midnightblue" d="M291.704,-323.169C337.152,-312.565 396.975,-298.606 440.127,-288.537"/>
<polygon fill="midnightblue" stroke="midnightblue" points="290.887,-319.766 281.944,-325.446 292.478,-326.582 290.887,-319.766"/>
</g>
<!-- Node2&#45;&gt;Node1 -->
<g id="edge3" class="edge"><title>Node2&#45;&gt;Node1</title>
<path fill="none" stroke="midnightblue" d="M200.81,-296.179C208.682,-305.82 216.759,-316.999 221.854,-325.446"/>
<polygon fill="midnightblue" stroke="midnightblue" points="203.459,-293.891 194.316,-288.537 198.124,-298.424 203.459,-293.891"/>
</g>
<!-- Node2&#45;&gt;Node3 -->
<g id="edge2" class="edge"><title>Node2&#45;&gt;Node3</title>
<path fill="none" stroke="midnightblue" d="M164.812,-251.532C144.596,-218.788 108.461,-154.526 95,-94 92.2018,-81.4185 88.892,-76.3497 95,-65 103.872,-48.5144 120.906,-36.6076 136.501,-28.6092"/>
<polygon fill="midnightblue" stroke="midnightblue" points="162.017,-253.663 170.296,-260.274 167.947,-249.943 162.017,-253.663"/>
</g>
<!-- Node2&#45;&gt;Node4 -->
<g id="edge4" class="edge"><title>Node2&#45;&gt;Node4</title>
<path fill="none" stroke="midnightblue" d="M170.543,-250.575C166.759,-227.468 164.376,-190.777 163,-159 162.003,-135.982 161.451,-109.144 163.78,-93.5612"/>
<polygon fill="midnightblue" stroke="midnightblue" points="167.118,-251.301 172.448,-260.458 173.992,-249.976 167.118,-251.301"/>
</g>
<!-- Node2&#45;&gt;Node5 -->
<g id="edge11" class="edge"><title>Node2&#45;&gt;Node5</title>
<path fill="none" stroke="midnightblue" d="M177.822,-250.139C181.257,-234.129 188.67,-212.674 198,-195 204.945,-181.844 215.06,-168.273 224.274,-158.676"/>
<polygon fill="midnightblue" stroke="midnightblue" points="174.33,-249.795 176.104,-260.24 181.231,-250.968 174.33,-249.795"/>
</g>
<!-- Node2&#45;&gt;Node6 -->
<g id="edge12" class="edge"><title>Node2&#45;&gt;Node6</title>
<path fill="none" stroke="midnightblue" d="M247.326,-258.236C294.83,-247.623 357.479,-233.627 402.644,-223.537"/>
<polygon fill="midnightblue" stroke="midnightblue" points="246.427,-254.85 237.431,-260.446 247.953,-261.682 246.427,-254.85"/>
</g>
<!-- Node4&#45;&gt;Node2 -->
<g id="edge5" class="edge"><title>Node4&#45;&gt;Node2</title>
<path fill="none" stroke="midnightblue" d="M178.029,-103.868C179.684,-119.482 180.198,-140.478 181,-159 182.594,-195.809 185.54,-239.213 183.655,-260.458"/>
<polygon fill="midnightblue" stroke="midnightblue" points="181.44,-102.987 176.601,-93.5612 174.506,-103.947 181.44,-102.987"/>
</g>
<!-- Node4&#45;&gt;Node3 -->
<g id="edge10" class="edge"><title>Node4&#45;&gt;Node3</title>
<path fill="none" stroke="midnightblue" d="M170,-55.1641C170,-46.1693 170,-36.2205 170,-28.5369"/>
<polygon fill="midnightblue" stroke="midnightblue" points="166.5,-55.4463 170,-65.4464 173.5,-55.4464 166.5,-55.4463"/>
</g>
<!-- Node4&#45;&gt;Node5 -->
<g id="edge6" class="edge"><title>Node4&#45;&gt;Node5</title>
<path fill="none" stroke="midnightblue" d="M198.574,-99.7451C210.915,-109.695 224.456,-121.577 233.467,-130.446"/>
<polygon fill="midnightblue" stroke="midnightblue" points="200.717,-96.978 190.697,-93.5369 196.384,-102.476 200.717,-96.978"/>
</g>
<!-- Node5&#45;&gt;Node2 -->
<g id="edge8" class="edge"><title>Node5&#45;&gt;Node2</title>
<path fill="none" stroke="midnightblue" d="M233.651,-167.083C227.91,-175.453 221.1,-185.339 216,-195 204.517,-216.753 195.937,-244.232 188.833,-260.24"/>
<polygon fill="midnightblue" stroke="midnightblue" points="236.633,-168.922 239.33,-158.676 230.832,-165.004 236.633,-168.922"/>
</g>
<!-- Node5&#45;&gt;Node3 -->
<g id="edge9" class="edge"><title>Node5&#45;&gt;Node3</title>
<path fill="none" stroke="midnightblue" d="M249.357,-120.489C252.576,-104.051 254.115,-81.9381 245,-65 236.128,-48.5144 219.094,-36.6076 203.499,-28.6092"/>
<polygon fill="midnightblue" stroke="midnightblue" points="245.917,-119.831 247.094,-130.361 252.74,-121.395 245.917,-119.831"/>
</g>
<!-- Node5&#45;&gt;Node4 -->
<g id="edge7" class="edge"><title>Node5&#45;&gt;Node4</title>
<path fill="none" stroke="midnightblue" d="M214.403,-124.236C202.06,-114.284 188.521,-102.403 179.516,-93.5369"/>
<polygon fill="midnightblue" stroke="midnightblue" points="212.261,-127.005 222.282,-130.446 216.595,-121.507 212.261,-127.005"/>
</g>
<!-- Node6&#45;&gt;Node3 -->
<g id="edge14" class="edge"><title>Node6&#45;&gt;Node3</title>
<path fill="none" stroke="midnightblue" d="M436.47,-189.02C399.794,-160.293 328.01,-105.589 263,-65 241.434,-51.5355 215.87,-38.0993 197.007,-28.6302"/>
<polygon fill="midnightblue" stroke="midnightblue" points="434.568,-191.977 444.593,-195.408 438.896,-186.475 434.568,-191.977"/>
</g>
<!-- Node6&#45;&gt;Node5 -->
<g id="edge13" class="edge"><title>Node6&#45;&gt;Node5</title>
<path fill="none" stroke="midnightblue" d="M405.861,-192.565C369.437,-182.039 322.296,-168.416 288.112,-158.537"/>
<polygon fill="midnightblue" stroke="midnightblue" points="405.252,-196.032 415.83,-195.446 407.195,-189.308 405.252,-196.032"/>
</g>
<!-- Node7&#45;&gt;Node5 -->
<g id="edge19" class="edge"><title>Node7&#45;&gt;Node5</title>
<path fill="none" stroke="midnightblue" d="M265.854,-186.638C260.65,-177.269 254.746,-166.643 250.243,-158.537"/>
<polygon fill="midnightblue" stroke="midnightblue" points="262.832,-188.405 270.748,-195.446 268.951,-185.005 262.832,-188.405"/>
</g>
</g>
</svg>
