<?xml version="1.0" encoding="UTF-8" standalone="no"?>
<!DOCTYPE svg PUBLIC "-//W3C//DTD SVG 1.1//EN"
 "http://www.w3.org/Graphics/SVG/1.1/DTD/svg11.dtd">
<!-- Generated by graphviz version 2.38.0 (20140413.2041)
 -->
<!-- Title: SA_treatAlertMessage Pages: 1 -->
<svg width="584pt" height="27pt"
 viewBox="0.00 0.00 584.37 27.00" xmlns="http://www.w3.org/2000/svg" xmlns:xlink="http://www.w3.org/1999/xlink">
<g id="graph0" class="graph" transform="scale(1 1) rotate(0) translate(4 23)">
<title>SA_treatAlertMessage</title>
<polygon fill="white" stroke="none" points="-4,4 -4,-23 580.373,-23 580.373,4 -4,4"/>
<!-- Node1 -->
<g id="node1" class="node"><title>Node1</title>
<polygon fill="#bfbfbf" stroke="black" points="0,-0.5 0,-18.5 116.049,-18.5 116.049,-0.5 0,-0.5"/>
<text text-anchor="middle" x="58.0244" y="-6.5" font-family="Helvetica,sans-Serif" font-size="10.00">SA_treatAlertMessage</text>
</g>
<!-- Node2 -->
<g id="node2" class="node"><title>Node2</title>
<g id="a_node2"><a xlink:href="message_parser_8h.html#a37ec21f46c51967253a4e2da9ab6f063" target="_top" xlink:title="Message parser main function. ">
<polygon fill="white" stroke="black" points="152.049,-0.5 152.049,-18.5 254.201,-18.5 254.201,-0.5 152.049,-0.5"/>
<text text-anchor="middle" x="203.125" y="-6.5" font-family="Helvetica,sans-Serif" font-size="10.00">MP_parseMessage</text>
</a>
</g>
</g>
<!-- Node1&#45;&gt;Node2 -->
<g id="edge1" class="edge"><title>Node1&#45;&gt;Node2</title>
<path fill="none" stroke="midnightblue" d="M126.618,-9.5C135.048,-9.5 143.551,-9.5 151.657,-9.5"/>
<polygon fill="midnightblue" stroke="midnightblue" points="126.404,-6.0001 116.404,-9.5 126.404,-13.0001 126.404,-6.0001"/>
</g>
<!-- Node3 -->
<g id="node3" class="node"><title>Node3</title>
<g id="a_node3"><a xlink:href="message_parser_8h.html#a995d4c39c3939fa306e45d06589bf8c0" target="_top" xlink:title="Thread function for the parser thread. ">
<polygon fill="white" stroke="black" points="290.201,-0.5 290.201,-18.5 387.9,-18.5 387.9,-0.5 290.201,-0.5"/>
<text text-anchor="middle" x="339.051" y="-6.5" font-family="Helvetica,sans-Serif" font-size="10.00">MP_ParserThread</text>
</a>
</g>
</g>
<!-- Node2&#45;&gt;Node3 -->
<g id="edge2" class="edge"><title>Node2&#45;&gt;Node3</title>
<path fill="none" stroke="midnightblue" d="M264.408,-9.5C273.043,-9.5 281.828,-9.5 290.181,-9.5"/>
<polygon fill="midnightblue" stroke="midnightblue" points="264.375,-6.0001 254.375,-9.5 264.375,-13.0001 264.375,-6.0001"/>
</g>
<!-- Node4 -->
<g id="node4" class="node"><title>Node4</title>
<g id="a_node4"><a xlink:href="message_parser_8h.html#a0a5ee1ec225573ebc80059d6bce9e0d6" target="_top" xlink:title="Parser thread initializer. ">
<polygon fill="white" stroke="black" points="423.9,-0.5 423.9,-18.5 502.698,-18.5 502.698,-0.5 423.9,-0.5"/>
<text text-anchor="middle" x="463.299" y="-6.5" font-family="Helvetica,sans-Serif" font-size="10.00">MP_initParser</text>
</a>
</g>
</g>
<!-- Node3&#45;&gt;Node4 -->
<g id="edge3" class="edge"><title>Node3&#45;&gt;Node4</title>
<path fill="none" stroke="midnightblue" d="M398.07,-9.5C406.702,-9.5 415.418,-9.5 423.525,-9.5"/>
<polygon fill="midnightblue" stroke="midnightblue" points="398.016,-6.0001 388.016,-9.5 398.016,-13.0001 398.016,-6.0001"/>
</g>
<!-- Node5 -->
<g id="node5" class="node"><title>Node5</title>
<g id="a_node5"><a xlink:href="main_8c.html#ac0f2228420376f4db7e1274f2b41667c" target="_top" xlink:title="main">
<polygon fill="white" stroke="black" points="538.698,-0.5 538.698,-18.5 576.373,-18.5 576.373,-0.5 538.698,-0.5"/>
<text text-anchor="middle" x="557.536" y="-6.5" font-family="Helvetica,sans-Serif" font-size="10.00">main</text>
</a>
</g>
</g>
<!-- Node4&#45;&gt;Node5 -->
<g id="edge4" class="edge"><title>Node4&#45;&gt;Node5</title>
<path fill="none" stroke="midnightblue" d="M513.014,-9.5C522.004,-9.5 530.862,-9.5 538.216,-9.5"/>
<polygon fill="midnightblue" stroke="midnightblue" points="512.881,-6.0001 502.881,-9.5 512.881,-13.0001 512.881,-6.0001"/>
</g>
</g>
</svg>
