<?xml version="1.0" encoding="UTF-8" standalone="no"?>
<!DOCTYPE svg PUBLIC "-//W3C//DTD SVG 1.1//EN"
 "http://www.w3.org/Graphics/SVG/1.1/DTD/svg11.dtd">
<!-- Generated by graphviz version 2.38.0 (20140413.2041)
 -->
<!-- Title: SA_sendConnectedMsg Pages: 1 -->
<svg width="259pt" height="64pt"
 viewBox="0.00 0.00 259.42 64.00" xmlns="http://www.w3.org/2000/svg" xmlns:xlink="http://www.w3.org/1999/xlink">
<g id="graph0" class="graph" transform="scale(1 1) rotate(0) translate(4 60)">
<title>SA_sendConnectedMsg</title>
<polygon fill="white" stroke="none" points="-4,4 -4,-60 255.423,-60 255.423,4 -4,4"/>
<!-- Node1 -->
<g id="node1" class="node"><title>Node1</title>
<polygon fill="#bfbfbf" stroke="black" points="0,-18.5 0,-36.5 123.847,-36.5 123.847,-18.5 0,-18.5"/>
<text text-anchor="middle" x="61.9233" y="-24.5" font-family="Helvetica,sans-Serif" font-size="10.00">SA_sendConnectedMsg</text>
</g>
<!-- Node2 -->
<g id="node2" class="node"><title>Node2</title>
<g id="a_node2"><a xlink:href="message_parser_8c.html#a0026bd717404e4c2f9df87d137721377" target="_top" xlink:title="Message structure initializer. ">
<polygon fill="white" stroke="black" points="159.847,-37.5 159.847,-55.5 251.423,-55.5 251.423,-37.5 159.847,-37.5"/>
<text text-anchor="middle" x="205.635" y="-43.5" font-family="Helvetica,sans-Serif" font-size="10.00">MP_initMsgStruc</text>
</a>
</g>
</g>
<!-- Node1&#45;&gt;Node2 -->
<g id="edge1" class="edge"><title>Node1&#45;&gt;Node2</title>
<path fill="none" stroke="midnightblue" d="M124.256,-35.7232C132.658,-36.8497 141.243,-38.0007 149.525,-39.1111"/>
<polygon fill="midnightblue" stroke="midnightblue" points="149.068,-42.5812 159.445,-40.4411 149.999,-35.6432 149.068,-42.5812"/>
</g>
<!-- Node3 -->
<g id="node3" class="node"><title>Node3</title>
<g id="a_node3"><a xlink:href="msg_buffers_8c.html#a94d8920e20c5150892cf23b81eb1dfd6" target="_top" xlink:title="Put a message into the buffer. ">
<polygon fill="white" stroke="black" points="160.115,-0.5 160.115,-18.5 251.154,-18.5 251.154,-0.5 160.115,-0.5"/>
<text text-anchor="middle" x="205.635" y="-6.5" font-family="Helvetica,sans-Serif" font-size="10.00">MB_putMessage</text>
</a>
</g>
</g>
<!-- Node1&#45;&gt;Node3 -->
<g id="edge2" class="edge"><title>Node1&#45;&gt;Node3</title>
<path fill="none" stroke="midnightblue" d="M124.256,-19.7096C132.765,-18.6288 141.46,-17.5244 149.839,-16.46"/>
<polygon fill="midnightblue" stroke="midnightblue" points="150.39,-19.9183 159.869,-15.186 149.508,-12.9741 150.39,-19.9183"/>
</g>
</g>
</svg>
