<?xml version="1.0" encoding="UTF-8" standalone="no"?>
<!DOCTYPE svg PUBLIC "-//W3C//DTD SVG 1.1//EN"
 "http://www.w3.org/Graphics/SVG/1.1/DTD/svg11.dtd">
<!-- Generated by graphviz version 2.38.0 (20140413.2041)
 -->
<!-- Title: rasPi&#45;EmergencyStation/stationActions.h Pages: 1 -->
<svg width="900pt" height="367pt"
 viewBox="0.00 0.00 900.00 367.00" xmlns="http://www.w3.org/2000/svg" xmlns:xlink="http://www.w3.org/1999/xlink">
<g id="graph0" class="graph" transform="scale(1 1) rotate(0) translate(4 363)">
<title>rasPi&#45;EmergencyStation/stationActions.h</title>
<polygon fill="white" stroke="none" points="-4,4 -4,-363 896,-363 896,4 -4,4"/>
<!-- Node1 -->
<g id="node1" class="node"><title>Node1</title>
<polygon fill="#bfbfbf" stroke="black" points="427.089,-330.5 427.089,-358.5 550.911,-358.5 550.911,-330.5 427.089,-330.5"/>
<text text-anchor="start" x="435.089" y="-346.5" font-family="Helvetica,sans-Serif" font-size="10.00">rasPi&#45;EmergencyStation</text>
<text text-anchor="middle" x="489" y="-336.5" font-family="Helvetica,sans-Serif" font-size="10.00">/stationActions.h</text>
</g>
<!-- Node2 -->
<g id="node2" class="node"><title>Node2</title>
<polygon fill="white" stroke="#bfbfbf" points="410.269,-0.5 410.269,-18.5 455.731,-18.5 455.731,-0.5 410.269,-0.5"/>
<text text-anchor="middle" x="433" y="-6.5" font-family="Helvetica,sans-Serif" font-size="10.00">stdio.h</text>
</g>
<!-- Node1&#45;&gt;Node2 -->
<g id="edge1" class="edge"><title>Node1&#45;&gt;Node2</title>
<path fill="none" stroke="midnightblue" d="M551.086,-339.001C664.13,-329.09 892,-300.439 892,-230.5 892,-230.5 892,-230.5 892,-118.5 892,-30.8463 570.818,-14.2661 465.796,-11.1876"/>
<polygon fill="midnightblue" stroke="midnightblue" points="465.853,-7.68798 455.762,-10.9159 465.663,-14.6854 465.853,-7.68798"/>
</g>
<!-- Node3 -->
<g id="node3" class="node"><title>Node3</title>
<polygon fill="white" stroke="#bfbfbf" points="626.158,-110.5 626.158,-128.5 673.842,-128.5 673.842,-110.5 626.158,-110.5"/>
<text text-anchor="middle" x="650" y="-116.5" font-family="Helvetica,sans-Serif" font-size="10.00">stdlib.h</text>
</g>
<!-- Node1&#45;&gt;Node3 -->
<g id="edge2" class="edge"><title>Node1&#45;&gt;Node3</title>
<path fill="none" stroke="midnightblue" d="M551.156,-338.625C611.368,-332.459 696.503,-319.424 717,-294 756.981,-244.408 695.551,-168.214 665.268,-135.869"/>
<polygon fill="midnightblue" stroke="midnightblue" points="667.771,-133.423 658.32,-128.634 662.722,-138.271 667.771,-133.423"/>
</g>
<!-- Node4 -->
<g id="node4" class="node"><title>Node4</title>
<polygon fill="white" stroke="#bfbfbf" points="66.8721,-0.5 66.8721,-18.5 125.128,-18.5 125.128,-0.5 66.8721,-0.5"/>
<text text-anchor="middle" x="96" y="-6.5" font-family="Helvetica,sans-Serif" font-size="10.00">pthread.h</text>
</g>
<!-- Node1&#45;&gt;Node4 -->
<g id="edge3" class="edge"><title>Node1&#45;&gt;Node4</title>
<path fill="none" stroke="midnightblue" d="M427.068,-342.083C295.485,-337.389 0,-317.197 0,-230.5 0,-230.5 0,-230.5 0,-118.5 0,-75.2637 43.5113,-41.2934 71.9474,-23.7093"/>
<polygon fill="midnightblue" stroke="midnightblue" points="73.7651,-26.7006 80.5759,-18.585 70.1907,-20.6819 73.7651,-26.7006"/>
</g>
<!-- Node5 -->
<g id="node5" class="node"><title>Node5</title>
<polygon fill="white" stroke="#bfbfbf" points="554.488,-110.5 554.488,-128.5 605.512,-128.5 605.512,-110.5 554.488,-110.5"/>
<text text-anchor="middle" x="580" y="-116.5" font-family="Helvetica,sans-Serif" font-size="10.00">unistd.h</text>
</g>
<!-- Node1&#45;&gt;Node5 -->
<g id="edge4" class="edge"><title>Node1&#45;&gt;Node5</title>
<path fill="none" stroke="midnightblue" d="M551.002,-337.327C606.138,-330.406 680.777,-317.017 699,-294 744.073,-237.068 647.375,-163.927 601.916,-134.086"/>
<polygon fill="midnightblue" stroke="midnightblue" points="603.618,-131.019 593.313,-128.555 599.832,-136.907 603.618,-131.019"/>
</g>
<!-- Node6 -->
<g id="node6" class="node"><title>Node6</title>
<g id="a_node6"><a xlink:href="structures_8h.html" target="_top" xlink:title="File containing all the structure definitions used in the other modules. ">
<polygon fill="white" stroke="red" points="298.879,-55.5 298.879,-73.5 367.121,-73.5 367.121,-55.5 298.879,-55.5"/>
<text text-anchor="middle" x="333" y="-61.5" font-family="Helvetica,sans-Serif" font-size="10.00">structures.h</text>
</a>
</g>
</g>
<!-- Node1&#45;&gt;Node6 -->
<g id="edge5" class="edge"><title>Node1&#45;&gt;Node6</title>
<path fill="none" stroke="midnightblue" d="M426.723,-339.407C311.347,-330.105 76,-302.328 76,-230.5 76,-230.5 76,-230.5 76,-173.5 76,-82.3952 214.959,-66.8777 288.518,-65.0457"/>
<polygon fill="midnightblue" stroke="midnightblue" points="288.934,-68.5391 298.872,-64.8673 288.814,-61.5402 288.934,-68.5391"/>
</g>
<!-- Node7 -->
<g id="node7" class="node"><title>Node7</title>
<g id="a_node7"><a xlink:href="message_parser_8h.html" target="_top" xlink:title="Message parser function headers. ">
<polygon fill="white" stroke="red" points="393.089,-220.5 393.089,-238.5 486.911,-238.5 486.911,-220.5 393.089,-220.5"/>
<text text-anchor="middle" x="440" y="-226.5" font-family="Helvetica,sans-Serif" font-size="10.00">messageParser.h</text>
</a>
</g>
</g>
<!-- Node1&#45;&gt;Node7 -->
<g id="edge8" class="edge"><title>Node1&#45;&gt;Node7</title>
<path fill="none" stroke="midnightblue" d="M478.632,-330.094C467.098,-309.796 450.193,-271.231 442.709,-248.506"/>
<polygon fill="midnightblue" stroke="midnightblue" points="446.027,-247.384 439.856,-238.772 439.31,-249.353 446.027,-247.384"/>
</g>
<!-- Node8 -->
<g id="node8" class="node"><title>Node8</title>
<g id="a_node8"><a xlink:href="msg_buffers_8h.html" target="_top" xlink:title="File containing the headers of all functions related to the message mailboxes. ">
<polygon fill="white" stroke="red" points="233.632,-110.5 233.632,-128.5 308.368,-128.5 308.368,-110.5 233.632,-110.5"/>
<text text-anchor="middle" x="271" y="-116.5" font-family="Helvetica,sans-Serif" font-size="10.00">msgBuffers.h</text>
</a>
</g>
</g>
<!-- Node1&#45;&gt;Node8 -->
<g id="edge28" class="edge"><title>Node1&#45;&gt;Node8</title>
<path fill="none" stroke="midnightblue" d="M465.857,-330.436C425.687,-306.582 343.051,-252.097 298,-184 288.602,-169.794 281.314,-151.779 276.692,-138.569"/>
<polygon fill="midnightblue" stroke="midnightblue" points="279.919,-137.181 273.448,-128.792 273.275,-139.385 279.919,-137.181"/>
</g>
<!-- Node9 -->
<g id="node9" class="node"><title>Node9</title>
<g id="a_node9"><a xlink:href="tcp_vehicle_socket_comm_8h.html" target="_top" xlink:title="Vehicle connection server&#39;s headers. ">
<polygon fill="white" stroke="red" points="468.027,-165.5 468.027,-183.5 597.973,-183.5 597.973,-165.5 468.027,-165.5"/>
<text text-anchor="middle" x="533" y="-171.5" font-family="Helvetica,sans-Serif" font-size="10.00">tcpVehicleSocketComm.h</text>
</a>
</g>
</g>
<!-- Node1&#45;&gt;Node9 -->
<g id="edge36" class="edge"><title>Node1&#45;&gt;Node9</title>
<path fill="none" stroke="midnightblue" d="M488.61,-330.317C492.764,-300.304 511.835,-226.868 524.072,-193.061"/>
<polygon fill="midnightblue" stroke="midnightblue" points="527.396,-194.17 527.777,-183.582 520.877,-191.621 527.396,-194.17"/>
</g>
<!-- Node10 -->
<g id="node10" class="node"><title>Node10</title>
<g id="a_node10"><a xlink:href="tcp_server_socket_comm_8h.html" target="_top" xlink:title="Server connection related function definitions. ">
<polygon fill="white" stroke="red" points="562.426,-275.5 562.426,-293.5 689.574,-293.5 689.574,-275.5 562.426,-275.5"/>
<text text-anchor="middle" x="626" y="-281.5" font-family="Helvetica,sans-Serif" font-size="10.00">tcpServerSocketComm.h</text>
</a>
</g>
</g>
<!-- Node1&#45;&gt;Node10 -->
<g id="edge29" class="edge"><title>Node1&#45;&gt;Node10</title>
<path fill="none" stroke="midnightblue" d="M519.745,-330.484C542.973,-320.65 574.624,-307.25 597.329,-297.638"/>
<polygon fill="midnightblue" stroke="midnightblue" points="598.92,-300.765 606.765,-293.643 596.191,-294.319 598.92,-300.765"/>
</g>
<!-- Node11 -->
<g id="node11" class="node"><title>Node11</title>
<g id="a_node11"><a xlink:href="mcast_messaging_8h.html" target="_top" xlink:title="FIle containing all the headers of the functions related to multicast communication. ">
<polygon fill="white" stroke="red" points="104.315,-165.5 104.315,-183.5 203.685,-183.5 203.685,-165.5 104.315,-165.5"/>
<text text-anchor="middle" x="154" y="-171.5" font-family="Helvetica,sans-Serif" font-size="10.00">mcastMessaging.h</text>
</a>
</g>
</g>
<!-- Node1&#45;&gt;Node11 -->
<g id="edge37" class="edge"><title>Node1&#45;&gt;Node11</title>
<path fill="none" stroke="midnightblue" d="M426.781,-338.373C357.375,-331.59 250.555,-317.643 218,-294 183.733,-269.114 165.918,-220.123 158.428,-193.595"/>
<polygon fill="midnightblue" stroke="midnightblue" points="161.763,-192.516 155.832,-183.736 154.994,-194.298 161.763,-192.516"/>
</g>
<!-- Node6&#45;&gt;Node2 -->
<g id="edge6" class="edge"><title>Node6&#45;&gt;Node2</title>
<path fill="none" stroke="midnightblue" d="M348.188,-55.4504C364.267,-46.9286 389.881,-33.3532 408.757,-23.3487"/>
<polygon fill="midnightblue" stroke="midnightblue" points="410.473,-26.4008 417.669,-18.6253 407.194,-20.2158 410.473,-26.4008"/>
</g>
<!-- Node6&#45;&gt;Node4 -->
<g id="edge7" class="edge"><title>Node6&#45;&gt;Node4</title>
<path fill="none" stroke="midnightblue" d="M298.791,-55.8499C255.411,-46.149 180.785,-29.4604 135.168,-19.259"/>
<polygon fill="midnightblue" stroke="midnightblue" points="135.864,-15.8284 125.341,-17.0616 134.336,-22.6597 135.864,-15.8284"/>
</g>
<!-- Node7&#45;&gt;Node1 -->
<g id="edge27" class="edge"><title>Node7&#45;&gt;Node1</title>
<path fill="none" stroke="midnightblue" d="M447.318,-238.772C457.97,-255.778 475.669,-295.19 484.593,-320.521"/>
<polygon fill="midnightblue" stroke="midnightblue" points="481.293,-321.687 487.741,-330.094 487.942,-319.501 481.293,-321.687"/>
</g>
<!-- Node7&#45;&gt;Node2 -->
<g id="edge9" class="edge"><title>Node7&#45;&gt;Node2</title>
<path fill="none" stroke="midnightblue" d="M439.743,-220.483C438.735,-189.107 435.044,-74.1587 433.592,-28.9443"/>
<polygon fill="midnightblue" stroke="midnightblue" points="437.086,-28.7056 433.267,-18.8231 430.09,-28.9303 437.086,-28.7056"/>
</g>
<!-- Node7&#45;&gt;Node3 -->
<g id="edge10" class="edge"><title>Node7&#45;&gt;Node3</title>
<path fill="none" stroke="midnightblue" d="M486.963,-224.874C522.673,-220.136 571.54,-209.208 607,-184 623.242,-172.454 635.19,-152.703 642.314,-138.288"/>
<polygon fill="midnightblue" stroke="midnightblue" points="645.621,-139.474 646.64,-128.928 639.267,-136.537 645.621,-139.474"/>
</g>
<!-- Node7&#45;&gt;Node4 -->
<g id="edge11" class="edge"><title>Node7&#45;&gt;Node4</title>
<path fill="none" stroke="midnightblue" d="M392.845,-225.826C302.98,-220.246 114.366,-206.024 95,-184 56.4116,-140.115 76.8842,-63.1028 89.0631,-28.3763"/>
<polygon fill="midnightblue" stroke="midnightblue" points="92.4617,-29.2762 92.6405,-18.6829 85.8947,-26.8526 92.4617,-29.2762"/>
</g>
<!-- Node7&#45;&gt;Node5 -->
<g id="edge12" class="edge"><title>Node7&#45;&gt;Node5</title>
<path fill="none" stroke="midnightblue" d="M440.196,-220.351C440.953,-207.049 444.339,-180.594 459,-165 481.197,-141.39 516.988,-130.252 543.898,-125.031"/>
<polygon fill="midnightblue" stroke="midnightblue" points="544.844,-128.418 554.092,-123.249 543.639,-121.523 544.844,-128.418"/>
</g>
<!-- Node7&#45;&gt;Node6 -->
<g id="edge13" class="edge"><title>Node7&#45;&gt;Node6</title>
<path fill="none" stroke="midnightblue" d="M427.522,-220.196C416.059,-212.064 399.2,-198.77 388,-184 363.757,-152.028 346.756,-107.656 338.564,-83.2892"/>
<polygon fill="midnightblue" stroke="midnightblue" points="341.841,-82.0495 335.426,-73.618 335.183,-84.21 341.841,-82.0495"/>
</g>
<!-- Node7&#45;&gt;Node8 -->
<g id="edge14" class="edge"><title>Node7&#45;&gt;Node8</title>
<path fill="none" stroke="midnightblue" d="M413.852,-220.444C393.056,-212.296 364.214,-198.818 341,-184 318.399,-169.573 294.715,-149.824 281.142,-136.199"/>
<polygon fill="midnightblue" stroke="midnightblue" points="283.466,-133.558 274.097,-128.609 278.335,-138.32 283.466,-133.558"/>
</g>
<!-- Node7&#45;&gt;Node9 -->
<g id="edge19" class="edge"><title>Node7&#45;&gt;Node9</title>
<path fill="none" stroke="midnightblue" d="M449.115,-220.45C462.088,-211.929 485.619,-198.353 504.573,-188.349"/>
<polygon fill="midnightblue" stroke="midnightblue" points="506.438,-191.325 513.715,-183.625 503.225,-185.106 506.438,-191.325"/>
</g>
<!-- Node8&#45;&gt;Node2 -->
<g id="edge15" class="edge"><title>Node8&#45;&gt;Node2</title>
<path fill="none" stroke="midnightblue" d="M271.109,-110.266C271.739,-96.8431 274.949,-70.2172 290,-55 319.158,-25.5204 367.481,-15.5004 399.776,-12.1354"/>
<polygon fill="midnightblue" stroke="midnightblue" points="400.408,-15.5934 410.063,-11.2308 399.795,-8.62032 400.408,-15.5934"/>
</g>
<!-- Node8&#45;&gt;Node4 -->
<g id="edge16" class="edge"><title>Node8&#45;&gt;Node4</title>
<path fill="none" stroke="midnightblue" d="M257.847,-110.382C227.949,-91.9313 154.635,-46.6862 117.828,-23.9713"/>
<polygon fill="midnightblue" stroke="midnightblue" points="119.654,-20.9852 109.306,-18.7118 115.978,-26.9421 119.654,-20.9852"/>
</g>
<!-- Node8&#45;&gt;Node6 -->
<g id="edge17" class="edge"><title>Node8&#45;&gt;Node6</title>
<path fill="none" stroke="midnightblue" d="M280.416,-110.45C289.794,-102.434 304.402,-89.9471 315.843,-80.1663"/>
<polygon fill="midnightblue" stroke="midnightblue" points="318.168,-82.7836 323.495,-73.6253 313.619,-77.4627 318.168,-82.7836"/>
</g>
<!-- Node8&#45;&gt;Node7 -->
<g id="edge18" class="edge"><title>Node8&#45;&gt;Node7</title>
<path fill="none" stroke="midnightblue" d="M285.414,-128.609C302.837,-141.397 331.708,-166.579 359,-184 378.406,-196.387 401.744,-207.838 418.555,-216.021"/>
<polygon fill="midnightblue" stroke="midnightblue" points="417.098,-219.204 427.621,-220.444 420.168,-212.913 417.098,-219.204"/>
</g>
<!-- Node9&#45;&gt;Node1 -->
<g id="edge26" class="edge"><title>Node9&#45;&gt;Node1</title>
<path fill="none" stroke="midnightblue" d="M533.989,-183.582C531.758,-208.155 512.823,-282.614 499.795,-320.632"/>
<polygon fill="midnightblue" stroke="midnightblue" points="496.402,-319.723 496.296,-330.317 502.985,-322.102 496.402,-319.723"/>
</g>
<!-- Node9&#45;&gt;Node2 -->
<g id="edge20" class="edge"><title>Node9&#45;&gt;Node2</title>
<path fill="none" stroke="midnightblue" d="M527.904,-165.193C512.254,-139.684 464.672,-62.1258 443.432,-27.5036"/>
<polygon fill="midnightblue" stroke="midnightblue" points="446.18,-25.2906 437.968,-18.5971 440.214,-28.9512 446.18,-25.2906"/>
</g>
<!-- Node9&#45;&gt;Node3 -->
<g id="edge21" class="edge"><title>Node9&#45;&gt;Node3</title>
<path fill="none" stroke="midnightblue" d="M550.77,-165.45C569.926,-156.773 600.649,-142.856 622.838,-132.804"/>
<polygon fill="midnightblue" stroke="midnightblue" points="624.398,-135.94 632.063,-128.625 621.51,-129.564 624.398,-135.94"/>
</g>
<!-- Node9&#45;&gt;Node5 -->
<g id="edge22" class="edge"><title>Node9&#45;&gt;Node5</title>
<path fill="none" stroke="midnightblue" d="M540.344,-165.219C547.213,-157.473 557.652,-145.701 566.095,-136.18"/>
<polygon fill="midnightblue" stroke="midnightblue" points="568.845,-138.354 572.862,-128.55 563.608,-133.709 568.845,-138.354"/>
</g>
<!-- Node9&#45;&gt;Node6 -->
<g id="edge23" class="edge"><title>Node9&#45;&gt;Node6</title>
<path fill="none" stroke="midnightblue" d="M517.967,-165.382C483.497,-146.768 398.529,-100.886 356.843,-78.3754"/>
<polygon fill="midnightblue" stroke="midnightblue" points="358.396,-75.2363 347.934,-73.5644 355.07,-81.3956 358.396,-75.2363"/>
</g>
<!-- Node9&#45;&gt;Node7 -->
<g id="edge25" class="edge"><title>Node9&#45;&gt;Node7</title>
<path fill="none" stroke="midnightblue" d="M523.769,-183.625C510.734,-192.177 487.186,-205.757 468.259,-215.74"/>
<polygon fill="midnightblue" stroke="midnightblue" points="466.414,-212.753 459.134,-220.45 469.625,-218.973 466.414,-212.753"/>
</g>
<!-- Node9&#45;&gt;Node8 -->
<g id="edge24" class="edge"><title>Node9&#45;&gt;Node8</title>
<path fill="none" stroke="midnightblue" d="M493.208,-165.45C446.334,-155.968 368.531,-140.23 318.531,-130.115"/>
<polygon fill="midnightblue" stroke="midnightblue" points="319.108,-126.661 308.612,-128.109 317.72,-133.522 319.108,-126.661"/>
</g>
<!-- Node10&#45;&gt;Node2 -->
<g id="edge30" class="edge"><title>Node10&#45;&gt;Node2</title>
<path fill="none" stroke="midnightblue" d="M635.1,-275.325C662.833,-249.42 742.026,-167.482 702,-110 647.757,-32.1009 525.131,-15.0439 466.047,-11.4122"/>
<polygon fill="midnightblue" stroke="midnightblue" points="465.954,-7.90265 455.785,-10.8786 465.59,-14.8932 465.954,-7.90265"/>
</g>
<!-- Node10&#45;&gt;Node3 -->
<g id="edge31" class="edge"><title>Node10&#45;&gt;Node3</title>
<path fill="none" stroke="midnightblue" d="M629.13,-275.438C632.409,-266.63 637.433,-252.032 640,-239 646.895,-203.995 649.038,-162.254 649.703,-138.82"/>
<polygon fill="midnightblue" stroke="midnightblue" points="653.206,-138.707 649.929,-128.631 646.208,-138.551 653.206,-138.707"/>
</g>
<!-- Node10&#45;&gt;Node5 -->
<g id="edge32" class="edge"><title>Node10&#45;&gt;Node5</title>
<path fill="none" stroke="midnightblue" d="M625.77,-275.471C624.988,-255.951 621.59,-204.701 607,-165 603.371,-155.124 597.457,-145.026 592.088,-136.951"/>
<polygon fill="midnightblue" stroke="midnightblue" points="594.803,-134.726 586.205,-128.535 589.066,-138.737 594.803,-134.726"/>
</g>
<!-- Node10&#45;&gt;Node6 -->
<g id="edge33" class="edge"><title>Node10&#45;&gt;Node6</title>
<path fill="none" stroke="midnightblue" d="M633.721,-275.133C657.885,-247.946 727.849,-160.913 683,-110 663.088,-87.3965 467.121,-73.2554 377.419,-67.9178"/>
<polygon fill="midnightblue" stroke="midnightblue" points="377.469,-64.4148 367.281,-67.3252 377.06,-71.4029 377.469,-64.4148"/>
</g>
<!-- Node10&#45;&gt;Node7 -->
<g id="edge35" class="edge"><title>Node10&#45;&gt;Node7</title>
<path fill="none" stroke="midnightblue" d="M597.751,-275.45C565.839,-266.357 513.736,-251.511 478.21,-241.388"/>
<polygon fill="midnightblue" stroke="midnightblue" points="478.786,-237.913 468.21,-238.538 476.868,-244.645 478.786,-237.913"/>
</g>
<!-- Node10&#45;&gt;Node8 -->
<g id="edge34" class="edge"><title>Node10&#45;&gt;Node8</title>
<path fill="none" stroke="midnightblue" d="M562.241,-280.995C511.707,-276.886 440.454,-266.255 384,-239 336.576,-216.104 298.615,-164.293 281.255,-137.404"/>
<polygon fill="midnightblue" stroke="midnightblue" points="284.09,-135.337 275.812,-128.724 278.16,-139.056 284.09,-135.337"/>
</g>
<!-- Node11&#45;&gt;Node2 -->
<g id="edge38" class="edge"><title>Node11&#45;&gt;Node2</title>
<path fill="none" stroke="midnightblue" d="M203.796,-166.344C237.359,-160.015 281.767,-148.635 317,-129 363.362,-103.163 403.109,-53.0826 421.724,-27.0763"/>
<polygon fill="midnightblue" stroke="midnightblue" points="424.737,-28.8748 427.599,-18.6738 419,-24.8636 424.737,-28.8748"/>
</g>
<!-- Node11&#45;&gt;Node6 -->
<g id="edge39" class="edge"><title>Node11&#45;&gt;Node6</title>
<path fill="none" stroke="midnightblue" d="M161.573,-165.094C173.822,-151.9 199.224,-126.17 225,-110 247.495,-95.8885 275.234,-84.5703 296.967,-76.88"/>
<polygon fill="midnightblue" stroke="midnightblue" points="298.172,-80.167 306.49,-73.6049 295.895,-73.5476 298.172,-80.167"/>
</g>
<!-- Node11&#45;&gt;Node8 -->
<g id="edge40" class="edge"><title>Node11&#45;&gt;Node8</title>
<path fill="none" stroke="midnightblue" d="M171.77,-165.45C190.926,-156.773 221.649,-142.856 243.838,-132.804"/>
<polygon fill="midnightblue" stroke="midnightblue" points="245.398,-135.94 253.063,-128.625 242.51,-129.564 245.398,-135.94"/>
</g>
</g>
</svg>
