<?xml version="1.0" encoding="UTF-8" standalone="no"?>
<!DOCTYPE svg PUBLIC "-//W3C//DTD SVG 1.1//EN"
 "http://www.w3.org/Graphics/SVG/1.1/DTD/svg11.dtd">
<!-- Generated by graphviz version 2.38.0 (20140413.2041)
 -->
<!-- Title: SA_sendJoinMessage Pages: 1 -->
<svg width="584pt" height="27pt"
 viewBox="0.00 0.00 583.83 27.00" xmlns="http://www.w3.org/2000/svg" xmlns:xlink="http://www.w3.org/1999/xlink">
<g id="graph0" class="graph" transform="scale(1 1) rotate(0) translate(4 23)">
<title>SA_sendJoinMessage</title>
<polygon fill="white" stroke="none" points="-4,4 -4,-23 579.831,-23 579.831,4 -4,4"/>
<!-- Node1 -->
<g id="node1" class="node"><title>Node1</title>
<polygon fill="#bfbfbf" stroke="black" points="0,-0.5 0,-18.5 115.507,-18.5 115.507,-0.5 0,-0.5"/>
<text text-anchor="middle" x="57.7534" y="-6.5" font-family="Helvetica,sans-Serif" font-size="10.00">SA_sendJoinMessage</text>
</g>
<!-- Node2 -->
<g id="node2" class="node"><title>Node2</title>
<g id="a_node2"><a xlink:href="message_parser_8h.html#a37ec21f46c51967253a4e2da9ab6f063" target="_top" xlink:title="Message parser main function. ">
<polygon fill="white" stroke="black" points="151.507,-0.5 151.507,-18.5 253.659,-18.5 253.659,-0.5 151.507,-0.5"/>
<text text-anchor="middle" x="202.583" y="-6.5" font-family="Helvetica,sans-Serif" font-size="10.00">MP_parseMessage</text>
</a>
</g>
</g>
<!-- Node1&#45;&gt;Node2 -->
<g id="edge1" class="edge"><title>Node1&#45;&gt;Node2</title>
<path fill="none" stroke="midnightblue" d="M125.692,-9.5C134.338,-9.5 143.072,-9.5 151.384,-9.5"/>
<polygon fill="midnightblue" stroke="midnightblue" points="125.614,-6.0001 115.614,-9.5 125.614,-13.0001 125.614,-6.0001"/>
</g>
<!-- Node3 -->
<g id="node3" class="node"><title>Node3</title>
<g id="a_node3"><a xlink:href="message_parser_8h.html#a995d4c39c3939fa306e45d06589bf8c0" target="_top" xlink:title="Thread function for the parser thread. ">
<polygon fill="white" stroke="black" points="289.659,-0.5 289.659,-18.5 387.358,-18.5 387.358,-0.5 289.659,-0.5"/>
<text text-anchor="middle" x="338.509" y="-6.5" font-family="Helvetica,sans-Serif" font-size="10.00">MP_ParserThread</text>
</a>
</g>
</g>
<!-- Node2&#45;&gt;Node3 -->
<g id="edge2" class="edge"><title>Node2&#45;&gt;Node3</title>
<path fill="none" stroke="midnightblue" d="M263.866,-9.5C272.502,-9.5 281.286,-9.5 289.639,-9.5"/>
<polygon fill="midnightblue" stroke="midnightblue" points="263.833,-6.0001 253.833,-9.5 263.833,-13.0001 263.833,-6.0001"/>
</g>
<!-- Node4 -->
<g id="node4" class="node"><title>Node4</title>
<g id="a_node4"><a xlink:href="message_parser_8h.html#a0a5ee1ec225573ebc80059d6bce9e0d6" target="_top" xlink:title="Parser thread initializer. ">
<polygon fill="white" stroke="black" points="423.358,-0.5 423.358,-18.5 502.156,-18.5 502.156,-0.5 423.358,-0.5"/>
<text text-anchor="middle" x="462.757" y="-6.5" font-family="Helvetica,sans-Serif" font-size="10.00">MP_initParser</text>
</a>
</g>
</g>
<!-- Node3&#45;&gt;Node4 -->
<g id="edge3" class="edge"><title>Node3&#45;&gt;Node4</title>
<path fill="none" stroke="midnightblue" d="M397.528,-9.5C406.16,-9.5 414.876,-9.5 422.983,-9.5"/>
<polygon fill="midnightblue" stroke="midnightblue" points="397.474,-6.0001 387.474,-9.5 397.474,-13.0001 397.474,-6.0001"/>
</g>
<!-- Node5 -->
<g id="node5" class="node"><title>Node5</title>
<g id="a_node5"><a xlink:href="main_8c.html#ac0f2228420376f4db7e1274f2b41667c" target="_top" xlink:title="main">
<polygon fill="white" stroke="black" points="538.156,-0.5 538.156,-18.5 575.831,-18.5 575.831,-0.5 538.156,-0.5"/>
<text text-anchor="middle" x="556.994" y="-6.5" font-family="Helvetica,sans-Serif" font-size="10.00">main</text>
</a>
</g>
</g>
<!-- Node4&#45;&gt;Node5 -->
<g id="edge4" class="edge"><title>Node4&#45;&gt;Node5</title>
<path fill="none" stroke="midnightblue" d="M512.472,-9.5C521.462,-9.5 530.32,-9.5 537.674,-9.5"/>
<polygon fill="midnightblue" stroke="midnightblue" points="512.339,-6.0001 502.339,-9.5 512.339,-13.0001 512.339,-6.0001"/>
</g>
</g>
</svg>
