<?xml version="1.0" encoding="UTF-8" standalone="no"?>
<!DOCTYPE svg PUBLIC "-//W3C//DTD SVG 1.1//EN"
 "http://www.w3.org/Graphics/SVG/1.1/DTD/svg11.dtd">
<!-- Generated by graphviz version 2.38.0 (20140413.2041)
 -->
<!-- Title: SA_addVehicleToList Pages: 1 -->
<svg width="725pt" height="46pt"
 viewBox="0.00 0.00 725.33 46.00" xmlns="http://www.w3.org/2000/svg" xmlns:xlink="http://www.w3.org/1999/xlink">
<g id="graph0" class="graph" transform="scale(1 1) rotate(0) translate(4 42)">
<title>SA_addVehicleToList</title>
<polygon fill="white" stroke="none" points="-4,4 -4,-42 721.333,-42 721.333,4 -4,4"/>
<!-- Node1 -->
<g id="node1" class="node"><title>Node1</title>
<polygon fill="#bfbfbf" stroke="black" points="0,-19.5 0,-37.5 109.96,-37.5 109.96,-19.5 0,-19.5"/>
<text text-anchor="middle" x="54.98" y="-25.5" font-family="Helvetica,sans-Serif" font-size="10.00">SA_addVehicleToList</text>
</g>
<!-- Node2 -->
<g id="node2" class="node"><title>Node2</title>
<g id="a_node2"><a xlink:href="message_parser_8h.html#a37ec21f46c51967253a4e2da9ab6f063" target="_top" xlink:title="Message parser main function. ">
<polygon fill="white" stroke="black" points="293.009,-19.5 293.009,-37.5 395.161,-37.5 395.161,-19.5 293.009,-19.5"/>
<text text-anchor="middle" x="344.085" y="-25.5" font-family="Helvetica,sans-Serif" font-size="10.00">MP_parseMessage</text>
</a>
</g>
</g>
<!-- Node1&#45;&gt;Node2 -->
<g id="edge1" class="edge"><title>Node1&#45;&gt;Node2</title>
<path fill="none" stroke="midnightblue" d="M120.118,-28.5C172.22,-28.5 244.689,-28.5 292.693,-28.5"/>
<polygon fill="midnightblue" stroke="midnightblue" points="119.982,-25.0001 109.982,-28.5 119.982,-32.0001 119.982,-25.0001"/>
</g>
<!-- Node6 -->
<g id="node6" class="node"><title>Node6</title>
<g id="a_node6"><a xlink:href="station_actions_8h.html#a1e710f6898a01da9a953e7fed354c358" target="_top" xlink:title="Function to treat the initial vehicle list message. ">
<polygon fill="white" stroke="black" points="145.96,-0.5 145.96,-18.5 257.009,-18.5 257.009,-0.5 145.96,-0.5"/>
<text text-anchor="middle" x="201.484" y="-6.5" font-family="Helvetica,sans-Serif" font-size="10.00">SA_treatListMessage</text>
</a>
</g>
</g>
<!-- Node1&#45;&gt;Node6 -->
<g id="edge5" class="edge"><title>Node1&#45;&gt;Node6</title>
<path fill="none" stroke="midnightblue" d="M120.333,-20.0386C128.725,-18.9352 137.261,-17.8129 145.48,-16.7322"/>
<polygon fill="midnightblue" stroke="midnightblue" points="119.658,-16.5972 110.199,-21.371 120.57,-23.5375 119.658,-16.5972"/>
</g>
<!-- Node3 -->
<g id="node3" class="node"><title>Node3</title>
<g id="a_node3"><a xlink:href="message_parser_8h.html#a995d4c39c3939fa306e45d06589bf8c0" target="_top" xlink:title="Thread function for the parser thread. ">
<polygon fill="white" stroke="black" points="431.161,-19.5 431.161,-37.5 528.86,-37.5 528.86,-19.5 431.161,-19.5"/>
<text text-anchor="middle" x="480.011" y="-25.5" font-family="Helvetica,sans-Serif" font-size="10.00">MP_ParserThread</text>
</a>
</g>
</g>
<!-- Node2&#45;&gt;Node3 -->
<g id="edge2" class="edge"><title>Node2&#45;&gt;Node3</title>
<path fill="none" stroke="midnightblue" d="M405.368,-28.5C414.003,-28.5 422.788,-28.5 431.141,-28.5"/>
<polygon fill="midnightblue" stroke="midnightblue" points="405.335,-25.0001 395.335,-28.5 405.335,-32.0001 405.335,-25.0001"/>
</g>
<!-- Node4 -->
<g id="node4" class="node"><title>Node4</title>
<g id="a_node4"><a xlink:href="message_parser_8h.html#a0a5ee1ec225573ebc80059d6bce9e0d6" target="_top" xlink:title="Parser thread initializer. ">
<polygon fill="white" stroke="black" points="564.86,-19.5 564.86,-37.5 643.658,-37.5 643.658,-19.5 564.86,-19.5"/>
<text text-anchor="middle" x="604.259" y="-25.5" font-family="Helvetica,sans-Serif" font-size="10.00">MP_initParser</text>
</a>
</g>
</g>
<!-- Node3&#45;&gt;Node4 -->
<g id="edge3" class="edge"><title>Node3&#45;&gt;Node4</title>
<path fill="none" stroke="midnightblue" d="M539.03,-28.5C547.662,-28.5 556.378,-28.5 564.485,-28.5"/>
<polygon fill="midnightblue" stroke="midnightblue" points="538.976,-25.0001 528.976,-28.5 538.976,-32.0001 538.976,-25.0001"/>
</g>
<!-- Node5 -->
<g id="node5" class="node"><title>Node5</title>
<g id="a_node5"><a xlink:href="main_8c.html#ac0f2228420376f4db7e1274f2b41667c" target="_top" xlink:title="main">
<polygon fill="white" stroke="black" points="679.658,-19.5 679.658,-37.5 717.333,-37.5 717.333,-19.5 679.658,-19.5"/>
<text text-anchor="middle" x="698.496" y="-25.5" font-family="Helvetica,sans-Serif" font-size="10.00">main</text>
</a>
</g>
</g>
<!-- Node4&#45;&gt;Node5 -->
<g id="edge4" class="edge"><title>Node4&#45;&gt;Node5</title>
<path fill="none" stroke="midnightblue" d="M653.974,-28.5C662.964,-28.5 671.822,-28.5 679.176,-28.5"/>
<polygon fill="midnightblue" stroke="midnightblue" points="653.841,-25.0001 643.841,-28.5 653.841,-32.0001 653.841,-25.0001"/>
</g>
<!-- Node6&#45;&gt;Node2 -->
<g id="edge6" class="edge"><title>Node6&#45;&gt;Node2</title>
<path fill="none" stroke="midnightblue" d="M267.249,-18.2519C275.838,-19.4127 284.539,-20.5884 292.834,-21.7093"/>
<polygon fill="midnightblue" stroke="midnightblue" points="267.625,-14.7711 257.247,-16.9003 266.688,-21.708 267.625,-14.7711"/>
</g>
</g>
</svg>
