<?xml version="1.0" encoding="UTF-8" standalone="no"?>
<!DOCTYPE svg PUBLIC "-//W3C//DTD SVG 1.1//EN"
 "http://www.w3.org/Graphics/SVG/1.1/DTD/svg11.dtd">
<!-- Generated by graphviz version 2.38.0 (20140413.2041)
 -->
<!-- Title: SA_treatListMessage Pages: 1 -->
<svg width="579pt" height="27pt"
 viewBox="0.00 0.00 579.37 27.00" xmlns="http://www.w3.org/2000/svg" xmlns:xlink="http://www.w3.org/1999/xlink">
<g id="graph0" class="graph" transform="scale(1 1) rotate(0) translate(4 23)">
<title>SA_treatListMessage</title>
<polygon fill="white" stroke="none" points="-4,4 -4,-23 575.373,-23 575.373,4 -4,4"/>
<!-- Node1 -->
<g id="node1" class="node"><title>Node1</title>
<polygon fill="#bfbfbf" stroke="black" points="0,-0.5 0,-18.5 111.049,-18.5 111.049,-0.5 0,-0.5"/>
<text text-anchor="middle" x="55.5244" y="-6.5" font-family="Helvetica,sans-Serif" font-size="10.00">SA_treatListMessage</text>
</g>
<!-- Node2 -->
<g id="node2" class="node"><title>Node2</title>
<g id="a_node2"><a xlink:href="message_parser_8h.html#a37ec21f46c51967253a4e2da9ab6f063" target="_top" xlink:title="Message parser main function. ">
<polygon fill="white" stroke="black" points="147.049,-0.5 147.049,-18.5 249.201,-18.5 249.201,-0.5 147.049,-0.5"/>
<text text-anchor="middle" x="198.125" y="-6.5" font-family="Helvetica,sans-Serif" font-size="10.00">MP_parseMessage</text>
</a>
</g>
</g>
<!-- Node1&#45;&gt;Node2 -->
<g id="edge1" class="edge"><title>Node1&#45;&gt;Node2</title>
<path fill="none" stroke="midnightblue" d="M121.289,-9.5C129.878,-9.5 138.579,-9.5 146.874,-9.5"/>
<polygon fill="midnightblue" stroke="midnightblue" points="121.287,-6.0001 111.287,-9.5 121.287,-13.0001 121.287,-6.0001"/>
</g>
<!-- Node3 -->
<g id="node3" class="node"><title>Node3</title>
<g id="a_node3"><a xlink:href="message_parser_8h.html#a995d4c39c3939fa306e45d06589bf8c0" target="_top" xlink:title="Thread function for the parser thread. ">
<polygon fill="white" stroke="black" points="285.201,-0.5 285.201,-18.5 382.9,-18.5 382.9,-0.5 285.201,-0.5"/>
<text text-anchor="middle" x="334.051" y="-6.5" font-family="Helvetica,sans-Serif" font-size="10.00">MP_ParserThread</text>
</a>
</g>
</g>
<!-- Node2&#45;&gt;Node3 -->
<g id="edge2" class="edge"><title>Node2&#45;&gt;Node3</title>
<path fill="none" stroke="midnightblue" d="M259.408,-9.5C268.043,-9.5 276.828,-9.5 285.181,-9.5"/>
<polygon fill="midnightblue" stroke="midnightblue" points="259.375,-6.0001 249.375,-9.5 259.375,-13.0001 259.375,-6.0001"/>
</g>
<!-- Node4 -->
<g id="node4" class="node"><title>Node4</title>
<g id="a_node4"><a xlink:href="message_parser_8h.html#a0a5ee1ec225573ebc80059d6bce9e0d6" target="_top" xlink:title="Parser thread initializer. ">
<polygon fill="white" stroke="black" points="418.9,-0.5 418.9,-18.5 497.698,-18.5 497.698,-0.5 418.9,-0.5"/>
<text text-anchor="middle" x="458.299" y="-6.5" font-family="Helvetica,sans-Serif" font-size="10.00">MP_initParser</text>
</a>
</g>
</g>
<!-- Node3&#45;&gt;Node4 -->
<g id="edge3" class="edge"><title>Node3&#45;&gt;Node4</title>
<path fill="none" stroke="midnightblue" d="M393.07,-9.5C401.702,-9.5 410.418,-9.5 418.525,-9.5"/>
<polygon fill="midnightblue" stroke="midnightblue" points="393.016,-6.0001 383.016,-9.5 393.016,-13.0001 393.016,-6.0001"/>
</g>
<!-- Node5 -->
<g id="node5" class="node"><title>Node5</title>
<g id="a_node5"><a xlink:href="main_8c.html#ac0f2228420376f4db7e1274f2b41667c" target="_top" xlink:title="main">
<polygon fill="white" stroke="black" points="533.698,-0.5 533.698,-18.5 571.373,-18.5 571.373,-0.5 533.698,-0.5"/>
<text text-anchor="middle" x="552.536" y="-6.5" font-family="Helvetica,sans-Serif" font-size="10.00">main</text>
</a>
</g>
</g>
<!-- Node4&#45;&gt;Node5 -->
<g id="edge4" class="edge"><title>Node4&#45;&gt;Node5</title>
<path fill="none" stroke="midnightblue" d="M508.014,-9.5C517.004,-9.5 525.862,-9.5 533.216,-9.5"/>
<polygon fill="midnightblue" stroke="midnightblue" points="507.881,-6.0001 497.881,-9.5 507.881,-13.0001 507.881,-6.0001"/>
</g>
</g>
</svg>
