<?xml version="1.0" encoding="UTF-8" standalone="no"?>
<!DOCTYPE svg PUBLIC "-//W3C//DTD SVG 1.1//EN"
 "http://www.w3.org/Graphics/SVG/1.1/DTD/svg11.dtd">
<!-- Generated by graphviz version 2.38.0 (20140413.2041)
 -->
<!-- Title: SA_treatIDAssign Pages: 1 -->
<svg width="278pt" height="64pt"
 viewBox="0.00 0.00 278.33 64.00" xmlns="http://www.w3.org/2000/svg" xmlns:xlink="http://www.w3.org/1999/xlink">
<g id="graph0" class="graph" transform="scale(1 1) rotate(0) translate(4 60)">
<title>SA_treatIDAssign</title>
<polygon fill="white" stroke="none" points="-4,4 -4,-60 274.334,-60 274.334,4 -4,4"/>
<!-- Node1 -->
<g id="node1" class="node"><title>Node1</title>
<polygon fill="#bfbfbf" stroke="black" points="0,-18.5 0,-36.5 94.9258,-36.5 94.9258,-18.5 0,-18.5"/>
<text text-anchor="middle" x="47.4629" y="-24.5" font-family="Helvetica,sans-Serif" font-size="10.00">SA_treatIDAssign</text>
</g>
<!-- Node2 -->
<g id="node2" class="node"><title>Node2</title>
<g id="a_node2"><a xlink:href="station_actions_8c.html#ad32eaec7f38945a0256977ee21f1318d" target="_top" xlink:title="Search a vehicle by socket number. ">
<polygon fill="white" stroke="black" points="130.926,-37.5 130.926,-55.5 270.334,-55.5 270.334,-37.5 130.926,-37.5"/>
<text text-anchor="middle" x="200.63" y="-43.5" font-family="Helvetica,sans-Serif" font-size="10.00">SA_searchVehicleBySocket</text>
</a>
</g>
</g>
<!-- Node1&#45;&gt;Node2 -->
<g id="edge1" class="edge"><title>Node1&#45;&gt;Node2</title>
<path fill="none" stroke="midnightblue" d="M95.0514,-33.3557C103.245,-34.3855 111.975,-35.4828 120.764,-36.5875"/>
<polygon fill="midnightblue" stroke="midnightblue" points="120.329,-40.0602 130.687,-37.8347 121.202,-33.1148 120.329,-40.0602"/>
</g>
<!-- Node3 -->
<g id="node3" class="node"><title>Node3</title>
<g id="a_node3"><a xlink:href="msg_buffers_8c.html#a94d8920e20c5150892cf23b81eb1dfd6" target="_top" xlink:title="Put a message into the buffer. ">
<polygon fill="white" stroke="black" points="155.11,-0.5 155.11,-18.5 246.149,-18.5 246.149,-0.5 155.11,-0.5"/>
<text text-anchor="middle" x="200.63" y="-6.5" font-family="Helvetica,sans-Serif" font-size="10.00">MB_putMessage</text>
</a>
</g>
</g>
<!-- Node1&#45;&gt;Node3 -->
<g id="edge2" class="edge"><title>Node1&#45;&gt;Node3</title>
<path fill="none" stroke="midnightblue" d="M95.0514,-21.9525C110.856,-20.0706 128.655,-17.9512 145.027,-16.0017"/>
<polygon fill="midnightblue" stroke="midnightblue" points="145.49,-19.4714 155.006,-14.8135 144.663,-12.5205 145.49,-19.4714"/>
</g>
</g>
</svg>
