<?xml version="1.0" encoding="UTF-8" standalone="no"?>
<!DOCTYPE svg PUBLIC "-//W3C//DTD SVG 1.1//EN"
 "http://www.w3.org/Graphics/SVG/1.1/DTD/svg11.dtd">
<!-- Generated by graphviz version 2.38.0 (20140413.2041)
 -->
<!-- Title: SA_treatListMessage Pages: 1 -->
<svg width="908pt" height="82pt"
 viewBox="0.00 0.00 908.28 82.00" xmlns="http://www.w3.org/2000/svg" xmlns:xlink="http://www.w3.org/1999/xlink">
<g id="graph0" class="graph" transform="scale(1 1) rotate(0) translate(4 78)">
<title>SA_treatListMessage</title>
<polygon fill="white" stroke="none" points="-4,4 -4,-78 904.282,-78 904.282,4 -4,4"/>
<!-- Node1 -->
<g id="node1" class="node"><title>Node1</title>
<polygon fill="#bfbfbf" stroke="black" points="0,-37.5 0,-55.5 111.049,-55.5 111.049,-37.5 0,-37.5"/>
<text text-anchor="middle" x="55.5244" y="-43.5" font-family="Helvetica,sans-Serif" font-size="10.00">SA_treatListMessage</text>
</g>
<!-- Node2 -->
<g id="node2" class="node"><title>Node2</title>
<g id="a_node2"><a xlink:href="station_actions_8c.html#adef80b5aef5924633f2ef4b37eecc820" target="_top" xlink:title="Add a new vehicle to the vehicle list. ">
<polygon fill="white" stroke="black" points="147.049,-37.5 147.049,-55.5 257.009,-55.5 257.009,-37.5 147.049,-37.5"/>
<text text-anchor="middle" x="202.029" y="-43.5" font-family="Helvetica,sans-Serif" font-size="10.00">SA_addVehicleToList</text>
</a>
</g>
</g>
<!-- Node1&#45;&gt;Node2 -->
<g id="edge1" class="edge"><title>Node1&#45;&gt;Node2</title>
<path fill="none" stroke="midnightblue" d="M111.155,-46.5C119.451,-46.5 128.077,-46.5 136.558,-46.5"/>
<polygon fill="midnightblue" stroke="midnightblue" points="136.8,-50.0001 146.8,-46.5 136.8,-43.0001 136.8,-50.0001"/>
</g>
<!-- Node3 -->
<g id="node3" class="node"><title>Node3</title>
<g id="a_node3"><a xlink:href="station_actions_8c.html#ac5974717372c28efe7b4e33f68ef895b" target="_top" xlink:title="Function to initialize a new vehicle structure. ">
<polygon fill="white" stroke="black" points="293.009,-18.5 293.009,-36.5 372.944,-36.5 372.944,-18.5 293.009,-18.5"/>
<text text-anchor="middle" x="332.977" y="-24.5" font-family="Helvetica,sans-Serif" font-size="10.00">SA_initVehicle</text>
</a>
</g>
</g>
<!-- Node2&#45;&gt;Node3 -->
<g id="edge2" class="edge"><title>Node2&#45;&gt;Node3</title>
<path fill="none" stroke="midnightblue" d="M257.341,-38.4974C265.855,-37.2428 274.612,-35.9525 282.997,-34.717"/>
<polygon fill="midnightblue" stroke="midnightblue" points="283.617,-38.1635 293,-33.2431 282.596,-31.2383 283.617,-38.1635"/>
</g>
<!-- Node4 -->
<g id="node4" class="node"><title>Node4</title>
<g id="a_node4"><a xlink:href="msg_buffers_8c.html#a15ca8d0fea842defceb1611616a64560" target="_top" xlink:title="Create a new buffer or mailbox and initialize it for n values. ">
<polygon fill="white" stroke="black" points="457.404,-55.5 457.404,-73.5 533.252,-73.5 533.252,-55.5 457.404,-55.5"/>
<text text-anchor="middle" x="495.328" y="-61.5" font-family="Helvetica,sans-Serif" font-size="10.00">MB_initBuffer</text>
</a>
</g>
</g>
<!-- Node2&#45;&gt;Node4 -->
<g id="edge8" class="edge"><title>Node2&#45;&gt;Node4</title>
<path fill="none" stroke="midnightblue" d="M257.137,-49.8435C311.628,-53.2106 394.867,-58.3541 446.864,-61.5671"/>
<polygon fill="midnightblue" stroke="midnightblue" points="446.949,-65.0789 457.146,-62.2024 447.381,-58.0923 446.949,-65.0789"/>
</g>
<!-- Node3&#45;&gt;Node4 -->
<g id="edge3" class="edge"><title>Node3&#45;&gt;Node4</title>
<path fill="none" stroke="midnightblue" d="M368.617,-36.5904C381.279,-39.8309 395.734,-43.4349 408.944,-46.5 421.404,-49.391 434.932,-52.3329 447.469,-54.9777"/>
<polygon fill="midnightblue" stroke="midnightblue" points="446.767,-58.4065 457.272,-57.0285 448.2,-51.5548 446.767,-58.4065"/>
</g>
<!-- Node5 -->
<g id="node5" class="node"><title>Node5</title>
<g id="a_node5"><a xlink:href="tcp_vehicle_socket_comm_8c.html#a8a9cd2f1bfdc3aada6f66fbddee2aa39" target="_top" xlink:title="Thread to send the messages to the vehicle. ">
<polygon fill="white" stroke="black" points="408.944,-18.5 408.944,-36.5 581.712,-36.5 581.712,-18.5 408.944,-18.5"/>
<text text-anchor="middle" x="495.328" y="-24.5" font-family="Helvetica,sans-Serif" font-size="10.00">VSC_outboundHandlerThreadFunc</text>
</a>
</g>
</g>
<!-- Node3&#45;&gt;Node5 -->
<g id="edge4" class="edge"><title>Node3&#45;&gt;Node5</title>
<path fill="none" stroke="midnightblue" d="M373.203,-27.5C381.085,-27.5 389.688,-27.5 398.557,-27.5"/>
<polygon fill="midnightblue" stroke="midnightblue" points="398.657,-31.0001 408.657,-27.5 398.657,-24.0001 398.657,-31.0001"/>
</g>
<!-- Node6 -->
<g id="node6" class="node"><title>Node6</title>
<g id="a_node6"><a xlink:href="msg_buffers_8c.html#a2bc61492dcc33dc1712d77d383b1e33d" target="_top" xlink:title="Get a message from the buffer. ">
<polygon fill="white" stroke="black" points="646.625,-37.5 646.625,-55.5 737.665,-55.5 737.665,-37.5 646.625,-37.5"/>
<text text-anchor="middle" x="692.145" y="-43.5" font-family="Helvetica,sans-Serif" font-size="10.00">MB_getMessage</text>
</a>
</g>
</g>
<!-- Node5&#45;&gt;Node6 -->
<g id="edge5" class="edge"><title>Node5&#45;&gt;Node6</title>
<path fill="none" stroke="midnightblue" d="M581.778,-35.8337C600.234,-37.6337 619.273,-39.4905 636.188,-41.1402"/>
<polygon fill="midnightblue" stroke="midnightblue" points="636.129,-44.6509 646.421,-42.1382 636.808,-37.684 636.129,-44.6509"/>
</g>
<!-- Node7 -->
<g id="node7" class="node"><title>Node7</title>
<g id="a_node7"><a xlink:href="tcp_vehicle_socket_comm_8c.html#a1c76ab448a30a8498f76e22546c81047" target="_top" xlink:title="Send a message to a vehicle. ">
<polygon fill="white" stroke="black" points="617.712,-0.5 617.712,-18.5 766.578,-18.5 766.578,-0.5 617.712,-0.5"/>
<text text-anchor="middle" x="692.145" y="-6.5" font-family="Helvetica,sans-Serif" font-size="10.00">VSC_SendMessageToVehicle</text>
</a>
</g>
</g>
<!-- Node5&#45;&gt;Node7 -->
<g id="edge6" class="edge"><title>Node5&#45;&gt;Node7</title>
<path fill="none" stroke="midnightblue" d="M581.778,-19.6049C590.375,-18.8106 599.099,-18.0046 607.675,-17.2122"/>
<polygon fill="midnightblue" stroke="midnightblue" points="608.023,-20.695 617.659,-16.2897 607.379,-13.7247 608.023,-20.695"/>
</g>
<!-- Node8 -->
<g id="node8" class="node"><title>Node8</title>
<g id="a_node8"><a xlink:href="message_parser_8c.html#a1e487e587ff3244c0808f4602ec6f1f7" target="_top" xlink:title="Message wiping function. ">
<polygon fill="white" stroke="black" points="802.578,-0.5 802.578,-18.5 900.282,-18.5 900.282,-0.5 802.578,-0.5"/>
<text text-anchor="middle" x="851.43" y="-6.5" font-family="Helvetica,sans-Serif" font-size="10.00">MP_wipeMessage</text>
</a>
</g>
</g>
<!-- Node7&#45;&gt;Node8 -->
<g id="edge7" class="edge"><title>Node7&#45;&gt;Node8</title>
<path fill="none" stroke="midnightblue" d="M766.722,-9.5C775.362,-9.5 784.083,-9.5 792.467,-9.5"/>
<polygon fill="midnightblue" stroke="midnightblue" points="792.499,-13.0001 802.499,-9.5 792.499,-6.0001 792.499,-13.0001"/>
</g>
</g>
</svg>
