<?xml version="1.0" encoding="UTF-8" standalone="no"?>
<!DOCTYPE svg PUBLIC "-//W3C//DTD SVG 1.1//EN"
 "http://www.w3.org/Graphics/SVG/1.1/DTD/svg11.dtd">
<!-- Generated by graphviz version 2.38.0 (20140413.2041)
 -->
<!-- Title: rasPi&#45;EmergencyStation/stationActions.c Pages: 1 -->
<svg width="1357pt" height="422pt"
 viewBox="0.00 0.00 1357.00 422.00" xmlns="http://www.w3.org/2000/svg" xmlns:xlink="http://www.w3.org/1999/xlink">
<g id="graph0" class="graph" transform="scale(1 1) rotate(0) translate(4 418)">
<title>rasPi&#45;EmergencyStation/stationActions.c</title>
<polygon fill="white" stroke="none" points="-4,4 -4,-418 1353,-418 1353,4 -4,4"/>
<!-- Node1 -->
<g id="node1" class="node"><title>Node1</title>
<polygon fill="#bfbfbf" stroke="black" points="630.089,-385.5 630.089,-413.5 753.911,-413.5 753.911,-385.5 630.089,-385.5"/>
<text text-anchor="start" x="638.089" y="-401.5" font-family="Helvetica,sans-Serif" font-size="10.00">rasPi&#45;EmergencyStation</text>
<text text-anchor="middle" x="692" y="-391.5" font-family="Helvetica,sans-Serif" font-size="10.00">/stationActions.c</text>
</g>
<!-- Node2 -->
<g id="node2" class="node"><title>Node2</title>
<g id="a_node2"><a xlink:href="station_actions_8h.html" target="_top" xlink:title="FIle containing all the station action headers. ">
<polygon fill="white" stroke="black" points="648.702,-330.5 648.702,-348.5 735.298,-348.5 735.298,-330.5 648.702,-330.5"/>
<text text-anchor="middle" x="692" y="-336.5" font-family="Helvetica,sans-Serif" font-size="10.00">stationActions.h</text>
</a>
</g>
</g>
<!-- Node1&#45;&gt;Node2 -->
<g id="edge1" class="edge"><title>Node1&#45;&gt;Node2</title>
<path fill="none" stroke="midnightblue" d="M692,-385.339C692,-377.531 692,-367.512 692,-358.927"/>
<polygon fill="midnightblue" stroke="midnightblue" points="695.5,-358.771 692,-348.771 688.5,-358.772 695.5,-358.771"/>
</g>
<!-- Node3 -->
<g id="node3" class="node"><title>Node3</title>
<polygon fill="white" stroke="#bfbfbf" points="91.2686,-0.5 91.2686,-18.5 136.731,-18.5 136.731,-0.5 91.2686,-0.5"/>
<text text-anchor="middle" x="114" y="-6.5" font-family="Helvetica,sans-Serif" font-size="10.00">stdio.h</text>
</g>
<!-- Node2&#45;&gt;Node3 -->
<g id="edge2" class="edge"><title>Node2&#45;&gt;Node3</title>
<path fill="none" stroke="midnightblue" d="M648.45,-336.323C496.644,-328.162 0,-296.426 0,-230.5 0,-230.5 0,-230.5 0,-118.5 0,-71.9745 50.6593,-39.4854 84.4371,-22.994"/>
<polygon fill="midnightblue" stroke="midnightblue" points="86.3042,-25.9848 93.8815,-18.5797 83.3402,-19.6433 86.3042,-25.9848"/>
</g>
<!-- Node4 -->
<g id="node4" class="node"><title>Node4</title>
<polygon fill="white" stroke="#bfbfbf" points="1047.16,-110.5 1047.16,-128.5 1094.84,-128.5 1094.84,-110.5 1047.16,-110.5"/>
<text text-anchor="middle" x="1071" y="-116.5" font-family="Helvetica,sans-Serif" font-size="10.00">stdlib.h</text>
</g>
<!-- Node2&#45;&gt;Node4 -->
<g id="edge3" class="edge"><title>Node2&#45;&gt;Node4</title>
<path fill="none" stroke="midnightblue" d="M732.369,-330.461C792.559,-317.359 908.152,-287.845 996,-239 1030.89,-219.603 1048.31,-219.27 1067,-184 1074.28,-170.261 1074.76,-152.432 1073.72,-139.164"/>
<polygon fill="midnightblue" stroke="midnightblue" points="1077.16,-138.435 1072.55,-128.897 1070.21,-139.23 1077.16,-138.435"/>
</g>
<!-- Node5 -->
<g id="node5" class="node"><title>Node5</title>
<polygon fill="white" stroke="#bfbfbf" points="1043.87,-0.5 1043.87,-18.5 1102.13,-18.5 1102.13,-0.5 1043.87,-0.5"/>
<text text-anchor="middle" x="1073" y="-6.5" font-family="Helvetica,sans-Serif" font-size="10.00">pthread.h</text>
</g>
<!-- Node2&#45;&gt;Node5 -->
<g id="edge4" class="edge"><title>Node2&#45;&gt;Node5</title>
<path fill="none" stroke="midnightblue" d="M735.362,-335.97C881.814,-326.854 1349,-292.884 1349,-230.5 1349,-230.5 1349,-230.5 1349,-118.5 1349,-68.3126 1188.74,-31.9006 1112.46,-17.4118"/>
<polygon fill="midnightblue" stroke="midnightblue" points="1112.75,-13.9058 1102.28,-15.5137 1111.46,-20.7873 1112.75,-13.9058"/>
</g>
<!-- Node6 -->
<g id="node6" class="node"><title>Node6</title>
<polygon fill="white" stroke="#bfbfbf" points="1193.49,-110.5 1193.49,-128.5 1244.51,-128.5 1244.51,-110.5 1193.49,-110.5"/>
<text text-anchor="middle" x="1219" y="-116.5" font-family="Helvetica,sans-Serif" font-size="10.00">unistd.h</text>
</g>
<!-- Node2&#45;&gt;Node6 -->
<g id="edge5" class="edge"><title>Node2&#45;&gt;Node6</title>
<path fill="none" stroke="midnightblue" d="M735.41,-331.218C779.298,-323.469 848.897,-310.114 908,-294 1053.91,-254.219 1142.03,-307.013 1230,-184 1239.54,-170.656 1234.55,-151.767 1228.53,-138.062"/>
<polygon fill="midnightblue" stroke="midnightblue" points="1231.52,-136.198 1223.96,-128.77 1225.24,-139.288 1231.52,-136.198"/>
</g>
<!-- Node7 -->
<g id="node7" class="node"><title>Node7</title>
<g id="a_node7"><a xlink:href="structures_8h.html" target="_top" xlink:title="File containing all the structure definitions used in the other modules. ">
<polygon fill="white" stroke="black" points="414.879,-55.5 414.879,-73.5 483.121,-73.5 483.121,-55.5 414.879,-55.5"/>
<text text-anchor="middle" x="449" y="-61.5" font-family="Helvetica,sans-Serif" font-size="10.00">structures.h</text>
</a>
</g>
</g>
<!-- Node2&#45;&gt;Node7 -->
<g id="edge6" class="edge"><title>Node2&#45;&gt;Node7</title>
<path fill="none" stroke="midnightblue" d="M648.426,-338.099C595.973,-336.03 506.411,-327.349 438,-294 405.187,-278.004 398.108,-268.782 377,-239 341.802,-189.339 296.376,-160.062 331,-110 339.952,-97.0573 376.056,-84.6187 405.998,-76.1989"/>
<polygon fill="midnightblue" stroke="midnightblue" points="407.143,-79.5143 415.867,-73.5027 405.298,-72.7618 407.143,-79.5143"/>
</g>
<!-- Node9 -->
<g id="node9" class="node"><title>Node9</title>
<g id="a_node9"><a xlink:href="message_parser_8h.html" target="_top" xlink:title="Message parser function headers. ">
<polygon fill="white" stroke="black" points="595.089,-220.5 595.089,-238.5 688.911,-238.5 688.911,-220.5 595.089,-220.5"/>
<text text-anchor="middle" x="642" y="-226.5" font-family="Helvetica,sans-Serif" font-size="10.00">messageParser.h</text>
</a>
</g>
</g>
<!-- Node2&#45;&gt;Node9 -->
<g id="edge10" class="edge"><title>Node2&#45;&gt;Node9</title>
<path fill="none" stroke="midnightblue" d="M681.203,-330.35C674.33,-321.466 666.985,-306.804 661,-294 653.898,-278.804 646.239,-261.356 642.178,-248.6"/>
<polygon fill="midnightblue" stroke="midnightblue" points="645.529,-247.579 639.639,-238.772 638.751,-249.33 645.529,-247.579"/>
</g>
<!-- Node14 -->
<g id="node14" class="node"><title>Node14</title>
<g id="a_node14"><a xlink:href="msg_buffers_8h.html" target="_top" xlink:title="File containing the headers of all functions related to the message mailboxes. ">
<polygon fill="white" stroke="black" points="339.632,-110.5 339.632,-128.5 414.368,-128.5 414.368,-110.5 339.632,-110.5"/>
<text text-anchor="middle" x="377" y="-116.5" font-family="Helvetica,sans-Serif" font-size="10.00">msgBuffers.h</text>
</a>
</g>
</g>
<!-- Node2&#45;&gt;Node14 -->
<g id="edge41" class="edge"><title>Node2&#45;&gt;Node14</title>
<path fill="none" stroke="midnightblue" d="M648.566,-336.008C584.06,-329.982 463.038,-309.387 393,-239 366.597,-212.465 369.45,-164.52 373.445,-138.49"/>
<polygon fill="midnightblue" stroke="midnightblue" points="376.915,-138.97 375.203,-128.514 370.021,-137.755 376.915,-138.97"/>
</g>
<!-- Node16 -->
<g id="node16" class="node"><title>Node16</title>
<g id="a_node16"><a xlink:href="tcp_vehicle_socket_comm_8h.html" target="_top" xlink:title="Vehicle connection server&#39;s headers. ">
<polygon fill="white" stroke="black" points="811.027,-165.5 811.027,-183.5 940.973,-183.5 940.973,-165.5 811.027,-165.5"/>
<text text-anchor="middle" x="876" y="-171.5" font-family="Helvetica,sans-Serif" font-size="10.00">tcpVehicleSocketComm.h</text>
</a>
</g>
</g>
<!-- Node2&#45;&gt;Node16 -->
<g id="edge54" class="edge"><title>Node2&#45;&gt;Node16</title>
<path fill="none" stroke="midnightblue" d="M730.814,-330.485C755.021,-324.153 785.397,-313.075 807,-294 838.297,-266.366 855.336,-218.547 865.815,-192.917"/>
<polygon fill="midnightblue" stroke="midnightblue" points="869.044,-194.266 869.792,-183.697 862.617,-191.493 869.044,-194.266"/>
</g>
<!-- Node18 -->
<g id="node18" class="node"><title>Node18</title>
<g id="a_node18"><a xlink:href="tcp_server_socket_comm_8h.html" target="_top" xlink:title="Server connection related function definitions. ">
<polygon fill="white" stroke="black" points="679.426,-275.5 679.426,-293.5 806.574,-293.5 806.574,-275.5 679.426,-275.5"/>
<text text-anchor="middle" x="743" y="-281.5" font-family="Helvetica,sans-Serif" font-size="10.00">tcpServerSocketComm.h</text>
</a>
</g>
</g>
<!-- Node2&#45;&gt;Node18 -->
<g id="edge42" class="edge"><title>Node2&#45;&gt;Node18</title>
<path fill="none" stroke="midnightblue" d="M699.969,-330.219C707.498,-322.394 718.979,-310.463 728.189,-300.892"/>
<polygon fill="midnightblue" stroke="midnightblue" points="730.842,-303.182 735.254,-293.55 725.798,-298.328 730.842,-303.182"/>
</g>
<!-- Node19 -->
<g id="node19" class="node"><title>Node19</title>
<g id="a_node19"><a xlink:href="mcast_messaging_8h.html" target="_top" xlink:title="FIle containing all the headers of the functions related to multicast communication. ">
<polygon fill="white" stroke="black" points="127.315,-165.5 127.315,-183.5 226.685,-183.5 226.685,-165.5 127.315,-165.5"/>
<text text-anchor="middle" x="177" y="-171.5" font-family="Helvetica,sans-Serif" font-size="10.00">mcastMessaging.h</text>
</a>
</g>
</g>
<!-- Node2&#45;&gt;Node19 -->
<g id="edge55" class="edge"><title>Node2&#45;&gt;Node19</title>
<path fill="none" stroke="midnightblue" d="M648.356,-339.278C548.515,-340.263 307.001,-337.903 241,-294 205.568,-270.431 188.168,-220.481 181.07,-193.572"/>
<polygon fill="midnightblue" stroke="midnightblue" points="184.406,-192.48 178.635,-183.595 177.605,-194.14 184.406,-192.48"/>
</g>
<!-- Node7&#45;&gt;Node3 -->
<g id="edge7" class="edge"><title>Node7&#45;&gt;Node3</title>
<path fill="none" stroke="midnightblue" d="M414.758,-56.5904C411.799,-56.036 408.848,-55.4983 406,-55 312.236,-38.5961 200.924,-22.5844 146.81,-15.0208"/>
<polygon fill="midnightblue" stroke="midnightblue" points="147.16,-11.5358 136.772,-13.6231 146.194,-18.4689 147.16,-11.5358"/>
</g>
<!-- Node7&#45;&gt;Node5 -->
<g id="edge8" class="edge"><title>Node7&#45;&gt;Node5</title>
<path fill="none" stroke="midnightblue" d="M483.438,-60.575C590.967,-51.4419 920.072,-23.4891 1033.83,-13.827"/>
<polygon fill="midnightblue" stroke="midnightblue" points="1034.17,-17.3105 1043.84,-12.9767 1033.58,-10.3356 1034.17,-17.3105"/>
</g>
<!-- Node8 -->
<g id="node8" class="node"><title>Node8</title>
<polygon fill="white" stroke="#bfbfbf" points="868.537,-0.5 868.537,-18.5 933.463,-18.5 933.463,-0.5 868.537,-0.5"/>
<text text-anchor="middle" x="901" y="-6.5" font-family="Helvetica,sans-Serif" font-size="10.00">netinet/in.h</text>
</g>
<!-- Node7&#45;&gt;Node8 -->
<g id="edge9" class="edge"><title>Node7&#45;&gt;Node8</title>
<path fill="none" stroke="midnightblue" d="M483.344,-59.4729C564.694,-49.9342 768.981,-25.9801 858.196,-15.5191"/>
<polygon fill="midnightblue" stroke="midnightblue" points="858.713,-18.9825 868.237,-14.3417 857.898,-12.0302 858.713,-18.9825"/>
</g>
<!-- Node9&#45;&gt;Node2 -->
<g id="edge40" class="edge"><title>Node9&#45;&gt;Node2</title>
<path fill="none" stroke="midnightblue" d="M651.382,-238.772C659.705,-250.941 669.817,-274.353 679,-294 683.161,-302.903 687.98,-312.704 691.25,-320.836"/>
<polygon fill="midnightblue" stroke="midnightblue" points="687.949,-322.001 694.471,-330.35 694.58,-319.756 687.949,-322.001"/>
</g>
<!-- Node9&#45;&gt;Node3 -->
<g id="edge11" class="edge"><title>Node9&#45;&gt;Node3</title>
<path fill="none" stroke="midnightblue" d="M594.946,-227.937C472.479,-225.999 151.014,-217.72 118,-184 77.1077,-142.233 95.8968,-64.1287 107.395,-28.749"/>
<polygon fill="midnightblue" stroke="midnightblue" points="110.852,-29.4582 110.788,-18.8635 104.231,-27.1861 110.852,-29.4582"/>
</g>
<!-- Node9&#45;&gt;Node4 -->
<g id="edge13" class="edge"><title>Node9&#45;&gt;Node4</title>
<path fill="none" stroke="midnightblue" d="M689.082,-227.426C777.644,-224.687 965.142,-215.269 1021,-184 1039.7,-173.531 1053.89,-152.947 1062.29,-138.047"/>
<polygon fill="midnightblue" stroke="midnightblue" points="1065.58,-139.309 1067.16,-128.833 1059.39,-136.035 1065.58,-139.309"/>
</g>
<!-- Node9&#45;&gt;Node5 -->
<g id="edge14" class="edge"><title>Node9&#45;&gt;Node5</title>
<path fill="none" stroke="midnightblue" d="M689.252,-227.055C781.849,-223.615 983.587,-212.948 1046,-184 1078.23,-169.053 1089.97,-161.638 1104,-129 1118.92,-94.2978 1098.21,-50.7029 1084.13,-27.2621"/>
<polygon fill="midnightblue" stroke="midnightblue" points="1086.92,-25.126 1078.63,-18.5347 1081,-28.8601 1086.92,-25.126"/>
</g>
<!-- Node9&#45;&gt;Node6 -->
<g id="edge19" class="edge"><title>Node9&#45;&gt;Node6</title>
<path fill="none" stroke="midnightblue" d="M688.972,-227.006C764.945,-223.773 919.09,-213.815 1046,-184 1099.07,-171.533 1158.12,-147.535 1191.69,-132.876"/>
<polygon fill="midnightblue" stroke="midnightblue" points="1193.53,-135.892 1201.26,-128.649 1190.7,-129.489 1193.53,-135.892"/>
</g>
<!-- Node9&#45;&gt;Node7 -->
<g id="edge20" class="edge"><title>Node9&#45;&gt;Node7</title>
<path fill="none" stroke="midnightblue" d="M639.52,-220.431C635.331,-207.699 625.924,-182.59 612,-165 577.579,-121.516 518.548,-92.377 481.763,-77.4016"/>
<polygon fill="midnightblue" stroke="midnightblue" points="482.604,-73.9705 472.017,-73.5532 480.033,-80.4814 482.604,-73.9705"/>
</g>
<!-- Node9&#45;&gt;Node8 -->
<g id="edge15" class="edge"><title>Node9&#45;&gt;Node8</title>
<path fill="none" stroke="midnightblue" d="M688.912,-226.275C764.053,-221.967 907.292,-210.47 950,-184 981.425,-164.523 1001,-144.612 988,-110 974.458,-73.9386 941.266,-42.3861 920.018,-24.9357"/>
<polygon fill="midnightblue" stroke="midnightblue" points="922.002,-22.0413 911.998,-18.551 917.642,-27.5177 922.002,-22.0413"/>
</g>
<!-- Node10 -->
<g id="node10" class="node"><title>Node10</title>
<polygon fill="white" stroke="#bfbfbf" points="748.604,-110.5 748.604,-128.5 797.396,-128.5 797.396,-110.5 748.604,-110.5"/>
<text text-anchor="middle" x="773" y="-116.5" font-family="Helvetica,sans-Serif" font-size="10.00">string.h</text>
</g>
<!-- Node9&#45;&gt;Node10 -->
<g id="edge12" class="edge"><title>Node9&#45;&gt;Node10</title>
<path fill="none" stroke="midnightblue" d="M651.846,-220.382C673.848,-202.244 727.256,-158.212 755.236,-135.145"/>
<polygon fill="midnightblue" stroke="midnightblue" points="757.55,-137.774 763.039,-128.712 753.097,-132.372 757.55,-137.774"/>
</g>
<!-- Node11 -->
<g id="node11" class="node"><title>Node11</title>
<polygon fill="white" stroke="#bfbfbf" points="470.372,-110.5 470.372,-128.5 533.628,-128.5 533.628,-110.5 470.372,-110.5"/>
<text text-anchor="middle" x="502" y="-116.5" font-family="Helvetica,sans-Serif" font-size="10.00">arpa/inet.h</text>
</g>
<!-- Node9&#45;&gt;Node11 -->
<g id="edge16" class="edge"><title>Node9&#45;&gt;Node11</title>
<path fill="none" stroke="midnightblue" d="M594.83,-221.899C569.429,-216.005 539.412,-204.895 520,-184 508.667,-171.801 504.4,-152.991 502.829,-139.006"/>
<polygon fill="midnightblue" stroke="midnightblue" points="506.29,-138.353 502.048,-128.644 499.31,-138.879 506.29,-138.353"/>
</g>
<!-- Node12 -->
<g id="node12" class="node"><title>Node12</title>
<polygon fill="white" stroke="#bfbfbf" points="659.49,-110.5 659.49,-128.5 730.51,-128.5 730.51,-110.5 659.49,-110.5"/>
<text text-anchor="middle" x="695" y="-116.5" font-family="Helvetica,sans-Serif" font-size="10.00">sys/socket.h</text>
</g>
<!-- Node9&#45;&gt;Node12 -->
<g id="edge17" class="edge"><title>Node9&#45;&gt;Node12</title>
<path fill="none" stroke="midnightblue" d="M645.984,-220.382C654.54,-202.948 674.836,-161.59 686.45,-137.922"/>
<polygon fill="midnightblue" stroke="midnightblue" points="689.707,-139.231 690.97,-128.712 683.423,-136.147 689.707,-139.231"/>
</g>
<!-- Node13 -->
<g id="node13" class="node"><title>Node13</title>
<polygon fill="white" stroke="#bfbfbf" points="528.815,-165.5 528.815,-183.5 603.185,-183.5 603.185,-165.5 528.815,-165.5"/>
<text text-anchor="middle" x="566" y="-171.5" font-family="Helvetica,sans-Serif" font-size="10.00">semaphore.h</text>
</g>
<!-- Node9&#45;&gt;Node13 -->
<g id="edge18" class="edge"><title>Node9&#45;&gt;Node13</title>
<path fill="none" stroke="midnightblue" d="M630.457,-220.45C618.739,-212.279 600.358,-199.46 586.218,-189.6"/>
<polygon fill="midnightblue" stroke="midnightblue" points="587.856,-186.475 577.651,-183.625 583.852,-192.216 587.856,-186.475"/>
</g>
<!-- Node9&#45;&gt;Node14 -->
<g id="edge21" class="edge"><title>Node9&#45;&gt;Node14</title>
<path fill="none" stroke="midnightblue" d="M606.566,-220.439C576.637,-212.288 533.352,-198.808 497,-184 459.78,-168.839 418.354,-147.632 394.971,-133.98"/>
<polygon fill="midnightblue" stroke="midnightblue" points="396.489,-130.808 386.12,-128.632 392.869,-136.799 396.489,-130.808"/>
</g>
<!-- Node9&#45;&gt;Node16 -->
<g id="edge27" class="edge"><title>Node9&#45;&gt;Node16</title>
<path fill="none" stroke="midnightblue" d="M672.53,-220.45C711.461,-211.143 779.025,-195.807 825.608,-185.679"/>
<polygon fill="midnightblue" stroke="midnightblue" points="826.47,-189.074 835.503,-183.538 824.989,-182.232 826.47,-189.074"/>
</g>
<!-- Node14&#45;&gt;Node3 -->
<g id="edge22" class="edge"><title>Node14&#45;&gt;Node3</title>
<path fill="none" stroke="midnightblue" d="M357.232,-110.382C311.236,-91.4942 196.863,-44.5275 142.968,-22.3956"/>
<polygon fill="midnightblue" stroke="midnightblue" points="144.218,-19.1255 133.638,-18.5644 141.559,-25.6008 144.218,-19.1255"/>
</g>
<!-- Node14&#45;&gt;Node5 -->
<g id="edge23" class="edge"><title>Node14&#45;&gt;Node5</title>
<path fill="none" stroke="midnightblue" d="M414.42,-112.693C534.727,-94.0252 910.891,-35.6549 1033.75,-16.5904"/>
<polygon fill="midnightblue" stroke="midnightblue" points="1034.49,-20.0176 1043.84,-15.0256 1033.42,-13.1004 1034.49,-20.0176"/>
</g>
<!-- Node14&#45;&gt;Node7 -->
<g id="edge25" class="edge"><title>Node14&#45;&gt;Node7</title>
<path fill="none" stroke="midnightblue" d="M387.935,-110.45C399.036,-102.279 416.45,-89.4604 429.846,-79.5996"/>
<polygon fill="midnightblue" stroke="midnightblue" points="431.983,-82.3722 437.962,-73.6253 427.834,-76.7348 431.983,-82.3722"/>
</g>
<!-- Node14&#45;&gt;Node9 -->
<g id="edge26" class="edge"><title>Node14&#45;&gt;Node9</title>
<path fill="none" stroke="midnightblue" d="M397.437,-128.632C424.432,-141.449 472.463,-166.673 515,-184 547.092,-197.073 584.587,-209.11 610.615,-217.36"/>
<polygon fill="midnightblue" stroke="midnightblue" points="609.744,-220.756 620.334,-220.439 611.858,-214.083 609.744,-220.756"/>
</g>
<!-- Node15 -->
<g id="node15" class="node"><title>Node15</title>
<polygon fill="white" stroke="#bfbfbf" points="345.214,-55.5 345.214,-73.5 396.786,-73.5 396.786,-55.5 345.214,-55.5"/>
<text text-anchor="middle" x="371" y="-61.5" font-family="Helvetica,sans-Serif" font-size="10.00">assert.h</text>
</g>
<!-- Node14&#45;&gt;Node15 -->
<g id="edge24" class="edge"><title>Node14&#45;&gt;Node15</title>
<path fill="none" stroke="midnightblue" d="M376.062,-110.219C375.256,-103.099 374.065,-92.5775 373.041,-83.5289"/>
<polygon fill="midnightblue" stroke="midnightblue" points="376.514,-83.0923 371.911,-73.5496 369.558,-83.8798 376.514,-83.0923"/>
</g>
<!-- Node16&#45;&gt;Node2 -->
<g id="edge39" class="edge"><title>Node16&#45;&gt;Node2</title>
<path fill="none" stroke="midnightblue" d="M878.413,-183.697C877.761,-204.987 860.609,-262.559 825,-294 803.032,-313.397 771.991,-324.525 745.334,-330.802"/>
<polygon fill="midnightblue" stroke="midnightblue" points="744.385,-327.427 735.36,-332.978 745.876,-334.266 744.385,-327.427"/>
</g>
<!-- Node16&#45;&gt;Node3 -->
<g id="edge28" class="edge"><title>Node16&#45;&gt;Node3</title>
<path fill="none" stroke="midnightblue" d="M873.231,-165.293C868.087,-151.409 855.66,-123.484 835,-110 718.941,-34.2545 272.408,-15.2617 146.954,-11.3765"/>
<polygon fill="midnightblue" stroke="midnightblue" points="146.919,-7.87397 136.819,-11.0742 146.71,-14.8709 146.919,-7.87397"/>
</g>
<!-- Node16&#45;&gt;Node4 -->
<g id="edge29" class="edge"><title>Node16&#45;&gt;Node4</title>
<path fill="none" stroke="midnightblue" d="M905.616,-165.45C940.968,-155.842 999.957,-139.809 1037.1,-129.714"/>
<polygon fill="midnightblue" stroke="midnightblue" points="1038.23,-133.034 1046.96,-127.034 1036.39,-126.28 1038.23,-133.034"/>
</g>
<!-- Node16&#45;&gt;Node6 -->
<g id="edge30" class="edge"><title>Node16&#45;&gt;Node6</title>
<path fill="none" stroke="midnightblue" d="M928.094,-165.45C998.604,-154.555 1122.57,-135.4 1183.36,-126.007"/>
<polygon fill="midnightblue" stroke="midnightblue" points="1183.9,-129.465 1193.25,-124.479 1182.83,-122.547 1183.9,-129.465"/>
</g>
<!-- Node16&#45;&gt;Node7 -->
<g id="edge36" class="edge"><title>Node16&#45;&gt;Node7</title>
<path fill="none" stroke="midnightblue" d="M869.741,-165.163C858.645,-151.083 834.034,-122.87 806,-110 751.225,-84.8539 576.138,-72.331 493.274,-67.6901"/>
<polygon fill="midnightblue" stroke="midnightblue" points="493.341,-64.1886 483.165,-67.1375 492.959,-71.1782 493.341,-64.1886"/>
</g>
<!-- Node16&#45;&gt;Node8 -->
<g id="edge32" class="edge"><title>Node16&#45;&gt;Node8</title>
<path fill="none" stroke="midnightblue" d="M877.274,-165.193C881.136,-140.013 892.777,-64.1144 898.184,-28.8621"/>
<polygon fill="midnightblue" stroke="midnightblue" points="901.702,-29.0122 899.758,-18.5971 894.782,-27.9509 901.702,-29.0122"/>
</g>
<!-- Node16&#45;&gt;Node9 -->
<g id="edge38" class="edge"><title>Node16&#45;&gt;Node9</title>
<path fill="none" stroke="midnightblue" d="M845.517,-183.538C806.609,-192.841 739.049,-208.177 692.449,-218.309"/>
<polygon fill="midnightblue" stroke="midnightblue" points="691.583,-214.915 682.549,-220.45 693.063,-221.757 691.583,-214.915"/>
</g>
<!-- Node16&#45;&gt;Node10 -->
<g id="edge31" class="edge"><title>Node16&#45;&gt;Node10</title>
<path fill="none" stroke="midnightblue" d="M860.357,-165.45C843.72,-156.89 817.172,-143.229 797.704,-133.212"/>
<polygon fill="midnightblue" stroke="midnightblue" points="799.284,-130.089 788.791,-128.625 796.081,-136.313 799.284,-130.089"/>
</g>
<!-- Node16&#45;&gt;Node11 -->
<g id="edge33" class="edge"><title>Node16&#45;&gt;Node11</title>
<path fill="none" stroke="midnightblue" d="M819.197,-165.45C743.549,-154.73 611.469,-136.013 544.109,-126.467"/>
<polygon fill="midnightblue" stroke="midnightblue" points="544.264,-122.954 533.872,-125.017 543.282,-129.885 544.264,-122.954"/>
</g>
<!-- Node16&#45;&gt;Node12 -->
<g id="edge34" class="edge"><title>Node16&#45;&gt;Node12</title>
<path fill="none" stroke="midnightblue" d="M848.51,-165.45C817.457,-156.357 766.754,-141.511 732.183,-131.388"/>
<polygon fill="midnightblue" stroke="midnightblue" points="733.032,-127.99 722.452,-128.538 731.065,-134.708 733.032,-127.99"/>
</g>
<!-- Node16&#45;&gt;Node14 -->
<g id="edge37" class="edge"><title>Node16&#45;&gt;Node14</title>
<path fill="none" stroke="midnightblue" d="M811.02,-166.598C709.21,-155.785 514.464,-135.1 424.598,-125.556"/>
<polygon fill="midnightblue" stroke="midnightblue" points="424.743,-122.051 414.429,-124.475 424.003,-129.012 424.743,-122.051"/>
</g>
<!-- Node17 -->
<g id="node17" class="node"><title>Node17</title>
<polygon fill="white" stroke="#bfbfbf" points="929.318,-110.5 929.318,-128.5 978.682,-128.5 978.682,-110.5 929.318,-110.5"/>
<text text-anchor="middle" x="954" y="-116.5" font-family="Helvetica,sans-Serif" font-size="10.00">netdb.h</text>
</g>
<!-- Node16&#45;&gt;Node17 -->
<g id="edge35" class="edge"><title>Node16&#45;&gt;Node17</title>
<path fill="none" stroke="midnightblue" d="M887.847,-165.45C899.987,-157.201 919.097,-144.216 933.663,-134.319"/>
<polygon fill="midnightblue" stroke="midnightblue" points="935.738,-137.14 942.042,-128.625 931.804,-131.351 935.738,-137.14"/>
</g>
<!-- Node18&#45;&gt;Node3 -->
<g id="edge43" class="edge"><title>Node18&#45;&gt;Node3</title>
<path fill="none" stroke="midnightblue" d="M679.193,-280.391C505.65,-271.092 38,-240.043 38,-175.5 38,-175.5 38,-175.5 38,-118.5 38,-79.0599 72.317,-43.8584 94.8312,-25.0079"/>
<polygon fill="midnightblue" stroke="midnightblue" points="97.1877,-27.6042 102.786,-18.6091 92.8002,-22.1498 97.1877,-27.6042"/>
</g>
<!-- Node18&#45;&gt;Node4 -->
<g id="edge44" class="edge"><title>Node18&#45;&gt;Node4</title>
<path fill="none" stroke="midnightblue" d="M806.739,-279.446C875.045,-271.704 982.226,-249.221 1046,-184 1058.16,-171.567 1064.59,-152.519 1067.87,-138.527"/>
<polygon fill="midnightblue" stroke="midnightblue" points="1071.32,-139.107 1069.87,-128.613 1064.46,-137.723 1071.32,-139.107"/>
</g>
<!-- Node18&#45;&gt;Node6 -->
<g id="edge45" class="edge"><title>Node18&#45;&gt;Node6</title>
<path fill="none" stroke="midnightblue" d="M806.684,-279.13C921.991,-269.802 1158.32,-243.724 1211,-184 1221.79,-171.77 1222.84,-152.692 1221.77,-138.638"/>
<polygon fill="midnightblue" stroke="midnightblue" points="1225.24,-138.196 1220.6,-128.67 1218.29,-139.009 1225.24,-138.196"/>
</g>
<!-- Node18&#45;&gt;Node7 -->
<g id="edge51" class="edge"><title>Node18&#45;&gt;Node7</title>
<path fill="none" stroke="midnightblue" d="M678.998,-280.721C636.517,-276.309 581.05,-265.422 539,-239 488.254,-207.114 483.049,-184.729 461,-129 455.19,-114.315 452.141,-96.5798 450.574,-83.5893"/>
<polygon fill="midnightblue" stroke="midnightblue" points="454.05,-83.1801 449.545,-73.5906 447.087,-83.8962 454.05,-83.1801"/>
</g>
<!-- Node18&#45;&gt;Node8 -->
<g id="edge47" class="edge"><title>Node18&#45;&gt;Node8</title>
<path fill="none" stroke="midnightblue" d="M806.617,-279.181C900.499,-272.3 1071.37,-257.696 1130,-239 1200.19,-216.62 1238.95,-201.117 1254,-129 1255.73,-120.734 1259.1,-116.733 1254,-110 1216.32,-60.2323 1029.28,-28.3314 943.782,-16.1231"/>
<polygon fill="midnightblue" stroke="midnightblue" points="944.021,-12.6224 933.631,-14.6984 943.048,-19.5545 944.021,-12.6224"/>
</g>
<!-- Node18&#45;&gt;Node9 -->
<g id="edge53" class="edge"><title>Node18&#45;&gt;Node9</title>
<path fill="none" stroke="midnightblue" d="M727.66,-275.45C711.421,-266.929 685.55,-253.353 666.485,-243.349"/>
<polygon fill="midnightblue" stroke="midnightblue" points="667.965,-240.173 657.484,-238.625 664.713,-246.371 667.965,-240.173"/>
</g>
<!-- Node18&#45;&gt;Node10 -->
<g id="edge46" class="edge"><title>Node18&#45;&gt;Node10</title>
<path fill="none" stroke="midnightblue" d="M744.529,-275.193C749.163,-250.013 763.132,-174.114 769.62,-138.862"/>
<polygon fill="midnightblue" stroke="midnightblue" points="773.142,-139.065 771.51,-128.597 766.257,-137.798 773.142,-139.065"/>
</g>
<!-- Node18&#45;&gt;Node11 -->
<g id="edge48" class="edge"><title>Node18&#45;&gt;Node11</title>
<path fill="none" stroke="midnightblue" d="M700.681,-275.436C668.297,-268.343 623.052,-256.409 586,-239 546.948,-220.651 527.278,-221.536 506,-184 498.248,-170.324 497.878,-152.23 499.079,-138.856"/>
<polygon fill="midnightblue" stroke="midnightblue" points="502.601,-138.91 500.393,-128.548 495.657,-138.025 502.601,-138.91"/>
</g>
<!-- Node18&#45;&gt;Node12 -->
<g id="edge49" class="edge"><title>Node18&#45;&gt;Node12</title>
<path fill="none" stroke="midnightblue" d="M740.554,-275.193C733.107,-249.903 710.594,-173.453 700.273,-138.405"/>
<polygon fill="midnightblue" stroke="midnightblue" points="703.567,-137.201 697.384,-128.597 696.852,-139.179 703.567,-137.201"/>
</g>
<!-- Node18&#45;&gt;Node14 -->
<g id="edge52" class="edge"><title>Node18&#45;&gt;Node14</title>
<path fill="none" stroke="midnightblue" d="M679.152,-283.021C594.158,-281.057 450.008,-272.685 411,-239 381.791,-213.776 376.861,-165.295 376.499,-138.834"/>
<polygon fill="midnightblue" stroke="midnightblue" points="380,-138.705 376.575,-128.68 373,-138.653 380,-138.705"/>
</g>
<!-- Node18&#45;&gt;Node17 -->
<g id="edge50" class="edge"><title>Node18&#45;&gt;Node17</title>
<path fill="none" stroke="midnightblue" d="M788.939,-275.405C837.876,-264.127 913.242,-238.565 950,-184 958.872,-170.831 959.041,-152.429 957.484,-138.824"/>
<polygon fill="midnightblue" stroke="midnightblue" points="960.912,-138.09 955.923,-128.743 953.995,-139.161 960.912,-138.09"/>
</g>
<!-- Node19&#45;&gt;Node3 -->
<g id="edge56" class="edge"><title>Node19&#45;&gt;Node3</title>
<path fill="none" stroke="midnightblue" d="M165.613,-165.354C155.328,-157.334 140.666,-144.116 133,-129 116.559,-96.5824 113.702,-53.3177 113.551,-29.0438"/>
<polygon fill="midnightblue" stroke="midnightblue" points="117.053,-28.8159 113.646,-18.7838 110.053,-28.7508 117.053,-28.8159"/>
</g>
<!-- Node19&#45;&gt;Node7 -->
<g id="edge61" class="edge"><title>Node19&#45;&gt;Node7</title>
<path fill="none" stroke="midnightblue" d="M190.372,-165.359C212.247,-152.303 257.322,-126.48 298,-110 333.046,-95.801 374.318,-83.9515 404.848,-76.0595"/>
<polygon fill="midnightblue" stroke="midnightblue" points="405.937,-79.3941 414.765,-73.5371 404.211,-72.6101 405.937,-79.3941"/>
</g>
<!-- Node19&#45;&gt;Node8 -->
<g id="edge59" class="edge"><title>Node19&#45;&gt;Node8</title>
<path fill="none" stroke="midnightblue" d="M184.238,-165.374C205.069,-142.661 268.04,-78.6359 336,-55 432.429,-21.4629 743.795,-13.0563 858.264,-11.075"/>
<polygon fill="midnightblue" stroke="midnightblue" points="858.455,-14.5724 868.396,-10.9077 858.34,-7.57339 858.455,-14.5724"/>
</g>
<!-- Node19&#45;&gt;Node11 -->
<g id="edge60" class="edge"><title>Node19&#45;&gt;Node11</title>
<path fill="none" stroke="midnightblue" d="M226.361,-165.45C290.148,-155.048 400.11,-137.116 460.056,-127.34"/>
<polygon fill="midnightblue" stroke="midnightblue" points="460.633,-130.792 469.939,-125.728 459.506,-123.884 460.633,-130.792"/>
</g>
<!-- Node19&#45;&gt;Node12 -->
<g id="edge58" class="edge"><title>Node19&#45;&gt;Node12</title>
<path fill="none" stroke="midnightblue" d="M227.139,-168.37C327.701,-158.081 552.653,-135.064 649.369,-125.169"/>
<polygon fill="midnightblue" stroke="midnightblue" points="649.826,-128.64 659.418,-124.141 649.113,-121.677 649.826,-128.64"/>
</g>
<!-- Node19&#45;&gt;Node14 -->
<g id="edge62" class="edge"><title>Node19&#45;&gt;Node14</title>
<path fill="none" stroke="midnightblue" d="M207.376,-165.45C241.983,-156.279 298.677,-141.256 336.893,-131.128"/>
<polygon fill="midnightblue" stroke="midnightblue" points="337.897,-134.483 346.667,-128.538 336.104,-127.717 337.897,-134.483"/>
</g>
<!-- Node20 -->
<g id="node20" class="node"><title>Node20</title>
<polygon fill="white" stroke="#bfbfbf" points="141.99,-110.5 141.99,-128.5 208.01,-128.5 208.01,-110.5 141.99,-110.5"/>
<text text-anchor="middle" x="175" y="-116.5" font-family="Helvetica,sans-Serif" font-size="10.00">sys/types.h</text>
</g>
<!-- Node19&#45;&gt;Node20 -->
<g id="edge57" class="edge"><title>Node19&#45;&gt;Node20</title>
<path fill="none" stroke="midnightblue" d="M176.688,-165.219C176.422,-158.177 176.031,-147.808 175.692,-138.828"/>
<polygon fill="midnightblue" stroke="midnightblue" points="179.178,-138.41 175.304,-128.55 172.183,-138.674 179.178,-138.41"/>
</g>
</g>
</svg>
