<?xml version="1.0" encoding="UTF-8" standalone="no"?>
<!DOCTYPE svg PUBLIC "-//W3C//DTD SVG 1.1//EN"
 "http://www.w3.org/Graphics/SVG/1.1/DTD/svg11.dtd">
<!-- Generated by graphviz version 2.38.0 (20140413.2041)
 -->
<!-- Title: SA_countVehiclesInList Pages: 1 -->
<svg width="556pt" height="27pt"
 viewBox="0.00 0.00 555.78 27.00" xmlns="http://www.w3.org/2000/svg" xmlns:xlink="http://www.w3.org/1999/xlink">
<g id="graph0" class="graph" transform="scale(1 1) rotate(0) translate(4 23)">
<title>SA_countVehiclesInList</title>
<polygon fill="white" stroke="none" points="-4,4 -4,-23 551.781,-23 551.781,4 -4,4"/>
<!-- Node1 -->
<g id="node1" class="node"><title>Node1</title>
<polygon fill="#bfbfbf" stroke="black" points="0,-0.5 0,-18.5 120.517,-18.5 120.517,-0.5 0,-0.5"/>
<text text-anchor="middle" x="60.2583" y="-6.5" font-family="Helvetica,sans-Serif" font-size="10.00">SA_countVehiclesInList</text>
</g>
<!-- Node2 -->
<g id="node2" class="node"><title>Node2</title>
<g id="a_node2"><a xlink:href="tcp_vehicle_socket_comm_8h.html#ad670ed989fdade07d91fd3f1bc38ae03" target="_top" xlink:title="Shutdown the vehicle comunication server. ">
<polygon fill="white" stroke="black" points="156.517,-0.5 156.517,-18.5 303.151,-18.5 303.151,-0.5 156.517,-0.5"/>
<text text-anchor="middle" x="229.834" y="-6.5" font-family="Helvetica,sans-Serif" font-size="10.00">VSC_shutdownVehicleServer</text>
</a>
</g>
</g>
<!-- Node1&#45;&gt;Node2 -->
<g id="edge1" class="edge"><title>Node1&#45;&gt;Node2</title>
<path fill="none" stroke="midnightblue" d="M130.907,-9.5C139.282,-9.5 147.851,-9.5 156.266,-9.5"/>
<polygon fill="midnightblue" stroke="midnightblue" points="130.811,-6.0001 120.811,-9.5 130.811,-13.0001 130.811,-6.0001"/>
</g>
<!-- Node3 -->
<g id="node3" class="node"><title>Node3</title>
<g id="a_node3"><a xlink:href="main_8c.html#ae346112f7679ae0199c3158f6624fd8b" target="_top" xlink:title="Thread for controlling the vehicle server initialization and shutdown. ">
<polygon fill="white" stroke="black" points="339.151,-0.5 339.151,-18.5 474.106,-18.5 474.106,-0.5 339.151,-0.5"/>
<text text-anchor="middle" x="406.629" y="-6.5" font-family="Helvetica,sans-Serif" font-size="10.00">vehicleConnControlThread</text>
</a>
</g>
</g>
<!-- Node2&#45;&gt;Node3 -->
<g id="edge2" class="edge"><title>Node2&#45;&gt;Node3</title>
<path fill="none" stroke="midnightblue" d="M313.246,-9.5C321.854,-9.5 330.526,-9.5 338.928,-9.5"/>
<polygon fill="midnightblue" stroke="midnightblue" points="313.192,-6.0001 303.192,-9.5 313.191,-13.0001 313.192,-6.0001"/>
</g>
<!-- Node4 -->
<g id="node4" class="node"><title>Node4</title>
<g id="a_node4"><a xlink:href="main_8c.html#ac0f2228420376f4db7e1274f2b41667c" target="_top" xlink:title="main">
<polygon fill="white" stroke="black" points="510.106,-0.5 510.106,-18.5 547.781,-18.5 547.781,-0.5 510.106,-0.5"/>
<text text-anchor="middle" x="528.944" y="-6.5" font-family="Helvetica,sans-Serif" font-size="10.00">main</text>
</a>
</g>
</g>
<!-- Node3&#45;&gt;Node4 -->
<g id="edge3" class="edge"><title>Node3&#45;&gt;Node4</title>
<path fill="none" stroke="midnightblue" d="M484.249,-9.5C493.803,-9.5 502.757,-9.5 510.041,-9.5"/>
<polygon fill="midnightblue" stroke="midnightblue" points="484.121,-6.0001 474.121,-9.5 484.121,-13.0001 484.121,-6.0001"/>
</g>
</g>
</svg>
