<?xml version="1.0" encoding="UTF-8" standalone="no"?>
<!DOCTYPE svg PUBLIC "-//W3C//DTD SVG 1.1//EN"
 "http://www.w3.org/Graphics/SVG/1.1/DTD/svg11.dtd">
<!-- Generated by graphviz version 2.38.0 (20140413.2041)
 -->
<!-- Title: rasPi&#45;EmergencyStation/stationActions.h Pages: 1 -->
<svg width="706pt" height="362pt"
 viewBox="0.00 0.00 705.99 362.00" xmlns="http://www.w3.org/2000/svg" xmlns:xlink="http://www.w3.org/1999/xlink">
<g id="graph0" class="graph" transform="scale(1 1) rotate(0) translate(4 358)">
<title>rasPi&#45;EmergencyStation/stationActions.h</title>
<polygon fill="white" stroke="none" points="-4,4 -4,-358 701.992,-358 701.992,4 -4,4"/>
<!-- Node1 -->
<g id="node1" class="node"><title>Node1</title>
<polygon fill="#bfbfbf" stroke="black" points="382.17,-325.5 382.17,-353.5 505.992,-353.5 505.992,-325.5 382.17,-325.5"/>
<text text-anchor="start" x="390.17" y="-341.5" font-family="Helvetica,sans-Serif" font-size="10.00">rasPi&#45;EmergencyStation</text>
<text text-anchor="middle" x="444.081" y="-331.5" font-family="Helvetica,sans-Serif" font-size="10.00">/stationActions.h</text>
</g>
<!-- Node2 -->
<g id="node2" class="node"><title>Node2</title>
<g id="a_node2"><a xlink:href="message_parser_8h.html" target="_top" xlink:title="Message parser function headers. ">
<polygon fill="white" stroke="black" points="292.17,-260.5 292.17,-288.5 415.992,-288.5 415.992,-260.5 292.17,-260.5"/>
<text text-anchor="start" x="300.17" y="-276.5" font-family="Helvetica,sans-Serif" font-size="10.00">rasPi&#45;EmergencyStation</text>
<text text-anchor="middle" x="354.081" y="-266.5" font-family="Helvetica,sans-Serif" font-size="10.00">/messageParser.h</text>
</a>
</g>
</g>
<!-- Node1&#45;&gt;Node2 -->
<g id="edge1" class="edge"><title>Node1&#45;&gt;Node2</title>
<path fill="none" stroke="midnightblue" d="M411.143,-319.803C395.898,-309.738 378.73,-297.572 367.115,-288.537"/>
<polygon fill="midnightblue" stroke="midnightblue" points="409.546,-322.939 419.84,-325.446 413.357,-317.067 409.546,-322.939"/>
</g>
<!-- Node14 -->
<g id="node14" class="node"><title>Node14</title>
<g id="a_node14"><a xlink:href="station_actions_8c.html" target="_top" xlink:title="FIle containing all the station action definitions. ">
<polygon fill="white" stroke="black" points="574.17,-260.5 574.17,-288.5 697.992,-288.5 697.992,-260.5 574.17,-260.5"/>
<text text-anchor="start" x="582.17" y="-276.5" font-family="Helvetica,sans-Serif" font-size="10.00">rasPi&#45;EmergencyStation</text>
<text text-anchor="middle" x="636.081" y="-266.5" font-family="Helvetica,sans-Serif" font-size="10.00">/stationActions.c</text>
</a>
</g>
</g>
<!-- Node1&#45;&gt;Node14 -->
<g id="edge22" class="edge"><title>Node1&#45;&gt;Node14</title>
<path fill="none" stroke="midnightblue" d="M493.469,-322.295C525.432,-311.807 566.5,-298.331 596.349,-288.537"/>
<polygon fill="midnightblue" stroke="midnightblue" points="492.274,-319.003 483.864,-325.446 494.456,-325.654 492.274,-319.003"/>
</g>
<!-- Node2&#45;&gt;Node1 -->
<g id="edge20" class="edge"><title>Node2&#45;&gt;Node1</title>
<path fill="none" stroke="midnightblue" d="M386.991,-294.179C402.234,-304.241 419.404,-316.408 431.026,-325.446"/>
<polygon fill="midnightblue" stroke="midnightblue" points="388.59,-291.044 378.296,-288.537 384.78,-296.916 388.59,-291.044"/>
</g>
<!-- Node3 -->
<g id="node3" class="node"><title>Node3</title>
<g id="a_node3"><a xlink:href="main_8h.html" target="_top" xlink:title="Main file&#39;s headers of the emergency station application. ">
<polygon fill="white" stroke="black" points="150.17,-65.5 150.17,-93.5 273.992,-93.5 273.992,-65.5 150.17,-65.5"/>
<text text-anchor="start" x="158.17" y="-81.5" font-family="Helvetica,sans-Serif" font-size="10.00">rasPi&#45;EmergencyStation</text>
<text text-anchor="middle" x="212.081" y="-71.5" font-family="Helvetica,sans-Serif" font-size="10.00">/main.h</text>
</a>
</g>
</g>
<!-- Node2&#45;&gt;Node3 -->
<g id="edge2" class="edge"><title>Node2&#45;&gt;Node3</title>
<path fill="none" stroke="midnightblue" d="M281.805,-267.45C253.106,-261.084 222.772,-248.519 205.081,-224 176.33,-184.152 195.974,-120.655 206.556,-93.5034"/>
<polygon fill="midnightblue" stroke="midnightblue" points="281.373,-270.933 291.864,-269.453 282.74,-264.067 281.373,-270.933"/>
</g>
<!-- Node5 -->
<g id="node5" class="node"><title>Node5</title>
<g id="a_node5"><a xlink:href="msg_buffers_8h.html" target="_top" xlink:title="File containing the headers of all functions related to the message mailboxes. ">
<polygon fill="white" stroke="black" points="356.17,-195.5 356.17,-223.5 479.992,-223.5 479.992,-195.5 356.17,-195.5"/>
<text text-anchor="start" x="364.17" y="-211.5" font-family="Helvetica,sans-Serif" font-size="10.00">rasPi&#45;EmergencyStation</text>
<text text-anchor="middle" x="418.081" y="-201.5" font-family="Helvetica,sans-Serif" font-size="10.00">/msgBuffers.h</text>
</a>
</g>
</g>
<!-- Node2&#45;&gt;Node5 -->
<g id="edge4" class="edge"><title>Node2&#45;&gt;Node5</title>
<path fill="none" stroke="midnightblue" d="M368.724,-252.802C377.841,-243.159 389.462,-231.98 399.247,-223.537"/>
<polygon fill="midnightblue" stroke="midnightblue" points="365.903,-250.7 361.749,-260.446 371.075,-255.418 365.903,-250.7"/>
</g>
<!-- Node13 -->
<g id="node13" class="node"><title>Node13</title>
<g id="a_node13"><a xlink:href="message_parser_8c.html" target="_top" xlink:title="Message parser functions definition. ">
<polygon fill="white" stroke="black" points="214.17,-195.5 214.17,-223.5 337.992,-223.5 337.992,-195.5 214.17,-195.5"/>
<text text-anchor="start" x="222.17" y="-211.5" font-family="Helvetica,sans-Serif" font-size="10.00">rasPi&#45;EmergencyStation</text>
<text text-anchor="middle" x="276.081" y="-201.5" font-family="Helvetica,sans-Serif" font-size="10.00">/messageParser.c</text>
</a>
</g>
</g>
<!-- Node2&#45;&gt;Node13 -->
<g id="edge21" class="edge"><title>Node2&#45;&gt;Node13</title>
<path fill="none" stroke="midnightblue" d="M329.878,-253.951C317.629,-244.058 303.094,-232.318 292.222,-223.537"/>
<polygon fill="midnightblue" stroke="midnightblue" points="327.941,-256.886 337.919,-260.446 332.339,-251.44 327.941,-256.886"/>
</g>
<!-- Node4 -->
<g id="node4" class="node"><title>Node4</title>
<g id="a_node4"><a xlink:href="main_8c.html" target="_top" xlink:title="Main file and functions of the emergency station application. ">
<polygon fill="white" stroke="black" points="150.17,-0.5 150.17,-28.5 273.992,-28.5 273.992,-0.5 150.17,-0.5"/>
<text text-anchor="start" x="158.17" y="-16.5" font-family="Helvetica,sans-Serif" font-size="10.00">rasPi&#45;EmergencyStation</text>
<text text-anchor="middle" x="212.081" y="-6.5" font-family="Helvetica,sans-Serif" font-size="10.00">/main.c</text>
</a>
</g>
</g>
<!-- Node3&#45;&gt;Node4 -->
<g id="edge3" class="edge"><title>Node3&#45;&gt;Node4</title>
<path fill="none" stroke="midnightblue" d="M212.081,-55.1641C212.081,-46.1693 212.081,-36.2205 212.081,-28.5369"/>
<polygon fill="midnightblue" stroke="midnightblue" points="208.581,-55.4463 212.081,-65.4464 215.581,-55.4464 208.581,-55.4463"/>
</g>
<!-- Node5&#45;&gt;Node1 -->
<g id="edge11" class="edge"><title>Node5&#45;&gt;Node1</title>
<path fill="none" stroke="midnightblue" d="M422.834,-233.899C428.281,-260.714 437.018,-303.726 441.397,-325.284"/>
<polygon fill="midnightblue" stroke="midnightblue" points="426.211,-232.939 420.79,-223.836 419.351,-234.333 426.211,-232.939"/>
</g>
<!-- Node5&#45;&gt;Node2 -->
<g id="edge5" class="edge"><title>Node5&#45;&gt;Node2</title>
<path fill="none" stroke="midnightblue" d="M403.457,-231.179C394.342,-240.82 382.722,-251.999 372.935,-260.446"/>
<polygon fill="midnightblue" stroke="midnightblue" points="406.274,-233.284 410.428,-223.537 401.102,-228.566 406.274,-233.284"/>
</g>
<!-- Node6 -->
<g id="node6" class="node"><title>Node6</title>
<g id="a_node6"><a xlink:href="tcp_vehicle_socket_comm_8h.html" target="_top" xlink:title="Vehicle connection server&#39;s headers. ">
<polygon fill="white" stroke="black" points="25.7192,-130.5 25.7192,-158.5 158.443,-158.5 158.443,-130.5 25.7192,-130.5"/>
<text text-anchor="start" x="33.7192" y="-146.5" font-family="Helvetica,sans-Serif" font-size="10.00">rasPi&#45;EmergencyStation</text>
<text text-anchor="middle" x="92.0811" y="-136.5" font-family="Helvetica,sans-Serif" font-size="10.00">/tcpVehicleSocketComm.h</text>
</a>
</g>
</g>
<!-- Node5&#45;&gt;Node6 -->
<g id="edge6" class="edge"><title>Node5&#45;&gt;Node6</title>
<path fill="none" stroke="midnightblue" d="M346.159,-194.601C290.231,-183.793 213.236,-168.913 158.701,-158.374"/>
<polygon fill="midnightblue" stroke="midnightblue" points="345.513,-198.041 355.996,-196.502 346.841,-191.168 345.513,-198.041"/>
</g>
<!-- Node8 -->
<g id="node8" class="node"><title>Node8</title>
<g id="a_node8"><a xlink:href="tcp_server_socket_comm_8h.html" target="_top" xlink:title="Server connection related function definitions. ">
<polygon fill="white" stroke="black" points="356.118,-130.5 356.118,-158.5 486.044,-158.5 486.044,-130.5 356.118,-130.5"/>
<text text-anchor="start" x="364.118" y="-146.5" font-family="Helvetica,sans-Serif" font-size="10.00">rasPi&#45;EmergencyStation</text>
<text text-anchor="middle" x="421.081" y="-136.5" font-family="Helvetica,sans-Serif" font-size="10.00">/tcpServerSocketComm.h</text>
</a>
</g>
</g>
<!-- Node5&#45;&gt;Node8 -->
<g id="edge12" class="edge"><title>Node5&#45;&gt;Node8</title>
<path fill="none" stroke="midnightblue" d="M419.192,-185.164C419.621,-176.169 420.094,-166.221 420.46,-158.537"/>
<polygon fill="midnightblue" stroke="midnightblue" points="415.682,-185.291 418.703,-195.446 422.674,-185.624 415.682,-185.291"/>
</g>
<!-- Node10 -->
<g id="node10" class="node"><title>Node10</title>
<g id="a_node10"><a xlink:href="mcast_messaging_8h.html" target="_top" xlink:title="FIle containing all the headers of the functions related to multicast communication. ">
<polygon fill="white" stroke="black" points="504.17,-130.5 504.17,-158.5 627.992,-158.5 627.992,-130.5 504.17,-130.5"/>
<text text-anchor="start" x="512.17" y="-146.5" font-family="Helvetica,sans-Serif" font-size="10.00">rasPi&#45;EmergencyStation</text>
<text text-anchor="middle" x="566.081" y="-136.5" font-family="Helvetica,sans-Serif" font-size="10.00">/mcastMessaging.h</text>
</a>
</g>
</g>
<!-- Node5&#45;&gt;Node10 -->
<g id="edge16" class="edge"><title>Node5&#45;&gt;Node10</title>
<path fill="none" stroke="midnightblue" d="M458.076,-191.475C482.421,-181.112 513.04,-168.078 535.455,-158.537"/>
<polygon fill="midnightblue" stroke="midnightblue" points="456.577,-188.309 448.747,-195.446 459.319,-194.75 456.577,-188.309"/>
</g>
<!-- Node12 -->
<g id="node12" class="node"><title>Node12</title>
<g id="a_node12"><a xlink:href="msg_buffers_8c.html" target="_top" xlink:title="File containing the definitions of all functions related to the message mailboxes. ">
<polygon fill="white" stroke="black" points="214.17,-130.5 214.17,-158.5 337.992,-158.5 337.992,-130.5 214.17,-130.5"/>
<text text-anchor="start" x="222.17" y="-146.5" font-family="Helvetica,sans-Serif" font-size="10.00">rasPi&#45;EmergencyStation</text>
<text text-anchor="middle" x="276.081" y="-136.5" font-family="Helvetica,sans-Serif" font-size="10.00">/msgBuffers.c</text>
</a>
</g>
</g>
<!-- Node5&#45;&gt;Node12 -->
<g id="edge19" class="edge"><title>Node5&#45;&gt;Node12</title>
<path fill="none" stroke="midnightblue" d="M379.397,-191.337C356.09,-180.997 326.876,-168.036 305.466,-158.537"/>
<polygon fill="midnightblue" stroke="midnightblue" points="378.098,-194.59 388.659,-195.446 380.937,-188.192 378.098,-194.59"/>
</g>
<!-- Node6&#45;&gt;Node1 -->
<g id="edge8" class="edge"><title>Node6&#45;&gt;Node1</title>
<path fill="none" stroke="midnightblue" d="M99.0031,-168.45C105.227,-185.688 115.907,-208.841 132.081,-224 202.176,-289.696 313.071,-318.37 382.044,-330.39"/>
<polygon fill="midnightblue" stroke="midnightblue" points="102.198,-166.97 95.6947,-158.606 95.5627,-169.2 102.198,-166.97"/>
</g>
<!-- Node6&#45;&gt;Node2 -->
<g id="edge7" class="edge"><title>Node6&#45;&gt;Node2</title>
<path fill="none" stroke="midnightblue" d="M108.479,-166.819C123.263,-184.615 146.551,-209.357 172.081,-224 209.007,-245.179 255.363,-257.613 292.05,-264.722"/>
<polygon fill="midnightblue" stroke="midnightblue" points="110.939,-164.294 101.932,-158.715 105.494,-168.693 110.939,-164.294"/>
</g>
<!-- Node6&#45;&gt;Node3 -->
<g id="edge9" class="edge"><title>Node6&#45;&gt;Node3</title>
<path fill="none" stroke="midnightblue" d="M125.827,-125.783C145.344,-115.537 169.477,-102.867 187.249,-93.5369"/>
<polygon fill="midnightblue" stroke="midnightblue" points="124.172,-122.699 116.945,-130.446 127.426,-128.897 124.172,-122.699"/>
</g>
<!-- Node7 -->
<g id="node7" class="node"><title>Node7</title>
<g id="a_node7"><a xlink:href="tcp_vehicle_socket_comm_8c.html" target="_top" xlink:title="Vehicle connection server related function definitions. ">
<polygon fill="white" stroke="black" points="0,-65.5 0,-93.5 132.162,-93.5 132.162,-65.5 0,-65.5"/>
<text text-anchor="start" x="8" y="-81.5" font-family="Helvetica,sans-Serif" font-size="10.00">rasPi&#45;EmergencyStation</text>
<text text-anchor="middle" x="66.0811" y="-71.5" font-family="Helvetica,sans-Serif" font-size="10.00">/tcpVehicleSocketComm.c</text>
</a>
</g>
</g>
<!-- Node6&#45;&gt;Node7 -->
<g id="edge10" class="edge"><title>Node6&#45;&gt;Node7</title>
<path fill="none" stroke="midnightblue" d="M82.8162,-121.051C79.01,-111.828 74.7369,-101.474 71.4614,-93.5369"/>
<polygon fill="midnightblue" stroke="midnightblue" points="79.6436,-122.538 86.6938,-130.446 86.1142,-119.867 79.6436,-122.538"/>
</g>
<!-- Node8&#45;&gt;Node1 -->
<g id="edge13" class="edge"><title>Node8&#45;&gt;Node1</title>
<path fill="none" stroke="midnightblue" d="M458.759,-163.796C470.685,-171.632 482.472,-182.015 489.081,-195 512.056,-240.142 474.367,-299.275 454.764,-325.269"/>
<polygon fill="midnightblue" stroke="midnightblue" points="460.485,-160.749 450.124,-158.539 456.846,-166.728 460.485,-160.749"/>
</g>
<!-- Node8&#45;&gt;Node3 -->
<g id="edge14" class="edge"><title>Node8&#45;&gt;Node3</title>
<path fill="none" stroke="midnightblue" d="M367.77,-127.43C332.912,-116.923 287.963,-103.374 255.331,-93.5369"/>
<polygon fill="midnightblue" stroke="midnightblue" points="367.191,-130.911 377.776,-130.446 369.212,-124.209 367.191,-130.911"/>
</g>
<!-- Node9 -->
<g id="node9" class="node"><title>Node9</title>
<g id="a_node9"><a xlink:href="tcp_server_socket_comm_8c.html" target="_top" xlink:title="Server connection related function headers. ">
<polygon fill="white" stroke="black" points="356.399,-65.5 356.399,-93.5 485.763,-93.5 485.763,-65.5 356.399,-65.5"/>
<text text-anchor="start" x="364.399" y="-81.5" font-family="Helvetica,sans-Serif" font-size="10.00">rasPi&#45;EmergencyStation</text>
<text text-anchor="middle" x="421.081" y="-71.5" font-family="Helvetica,sans-Serif" font-size="10.00">/tcpServerSocketComm.c</text>
</a>
</g>
</g>
<!-- Node8&#45;&gt;Node9 -->
<g id="edge15" class="edge"><title>Node8&#45;&gt;Node9</title>
<path fill="none" stroke="midnightblue" d="M421.081,-120.164C421.081,-111.169 421.081,-101.221 421.081,-93.5369"/>
<polygon fill="midnightblue" stroke="midnightblue" points="417.581,-120.446 421.081,-130.446 424.581,-120.446 417.581,-120.446"/>
</g>
<!-- Node10&#45;&gt;Node1 -->
<g id="edge17" class="edge"><title>Node10&#45;&gt;Node1</title>
<path fill="none" stroke="midnightblue" d="M558.567,-168.571C548.194,-198.274 527.498,-250.625 499.081,-289 488.684,-303.041 473.811,-316.133 462.153,-325.323"/>
<polygon fill="midnightblue" stroke="midnightblue" points="562.011,-169.315 561.916,-158.721 555.383,-167.062 562.011,-169.315"/>
</g>
<!-- Node11 -->
<g id="node11" class="node"><title>Node11</title>
<g id="a_node11"><a xlink:href="mcast_messaging_8c.html" target="_top" xlink:title="FIle containing all the definition of the functions related to multicast communication. ">
<polygon fill="white" stroke="black" points="504.17,-65.5 504.17,-93.5 627.992,-93.5 627.992,-65.5 504.17,-65.5"/>
<text text-anchor="start" x="512.17" y="-81.5" font-family="Helvetica,sans-Serif" font-size="10.00">rasPi&#45;EmergencyStation</text>
<text text-anchor="middle" x="566.081" y="-71.5" font-family="Helvetica,sans-Serif" font-size="10.00">/mcastMessaging.c</text>
</a>
</g>
</g>
<!-- Node10&#45;&gt;Node11 -->
<g id="edge18" class="edge"><title>Node10&#45;&gt;Node11</title>
<path fill="none" stroke="midnightblue" d="M566.081,-120.164C566.081,-111.169 566.081,-101.221 566.081,-93.5369"/>
<polygon fill="midnightblue" stroke="midnightblue" points="562.581,-120.446 566.081,-130.446 569.581,-120.446 562.581,-120.446"/>
</g>
</g>
</svg>
