<?xml version="1.0" encoding="UTF-8" standalone="no"?>
<!DOCTYPE svg PUBLIC "-//W3C//DTD SVG 1.1//EN"
 "http://www.w3.org/Graphics/SVG/1.1/DTD/svg11.dtd">
<!-- Generated by graphviz version 2.38.0 (20140413.2041)
 -->
<!-- Title: SA_treatIDAssign Pages: 1 -->
<svg width="563pt" height="27pt"
 viewBox="0.00 0.00 563.25 27.00" xmlns="http://www.w3.org/2000/svg" xmlns:xlink="http://www.w3.org/1999/xlink">
<g id="graph0" class="graph" transform="scale(1 1) rotate(0) translate(4 23)">
<title>SA_treatIDAssign</title>
<polygon fill="white" stroke="none" points="-4,4 -4,-23 559.25,-23 559.25,4 -4,4"/>
<!-- Node1 -->
<g id="node1" class="node"><title>Node1</title>
<polygon fill="#bfbfbf" stroke="black" points="0,-0.5 0,-18.5 94.9258,-18.5 94.9258,-0.5 0,-0.5"/>
<text text-anchor="middle" x="47.4629" y="-6.5" font-family="Helvetica,sans-Serif" font-size="10.00">SA_treatIDAssign</text>
</g>
<!-- Node2 -->
<g id="node2" class="node"><title>Node2</title>
<g id="a_node2"><a xlink:href="message_parser_8h.html#a37ec21f46c51967253a4e2da9ab6f063" target="_top" xlink:title="Message parser main function. ">
<polygon fill="white" stroke="black" points="130.926,-0.5 130.926,-18.5 233.078,-18.5 233.078,-0.5 130.926,-0.5"/>
<text text-anchor="middle" x="182.002" y="-6.5" font-family="Helvetica,sans-Serif" font-size="10.00">MP_parseMessage</text>
</a>
</g>
</g>
<!-- Node1&#45;&gt;Node2 -->
<g id="edge1" class="edge"><title>Node1&#45;&gt;Node2</title>
<path fill="none" stroke="midnightblue" d="M105.322,-9.5C113.742,-9.5 122.37,-9.5 130.645,-9.5"/>
<polygon fill="midnightblue" stroke="midnightblue" points="105.191,-6.0001 95.1912,-9.5 105.191,-13.0001 105.191,-6.0001"/>
</g>
<!-- Node3 -->
<g id="node3" class="node"><title>Node3</title>
<g id="a_node3"><a xlink:href="message_parser_8h.html#a995d4c39c3939fa306e45d06589bf8c0" target="_top" xlink:title="Thread function for the parser thread. ">
<polygon fill="white" stroke="black" points="269.078,-0.5 269.078,-18.5 366.777,-18.5 366.777,-0.5 269.078,-0.5"/>
<text text-anchor="middle" x="317.928" y="-6.5" font-family="Helvetica,sans-Serif" font-size="10.00">MP_ParserThread</text>
</a>
</g>
</g>
<!-- Node2&#45;&gt;Node3 -->
<g id="edge2" class="edge"><title>Node2&#45;&gt;Node3</title>
<path fill="none" stroke="midnightblue" d="M243.285,-9.5C251.92,-9.5 260.705,-9.5 269.058,-9.5"/>
<polygon fill="midnightblue" stroke="midnightblue" points="243.252,-6.0001 233.252,-9.5 243.252,-13.0001 243.252,-6.0001"/>
</g>
<!-- Node4 -->
<g id="node4" class="node"><title>Node4</title>
<g id="a_node4"><a xlink:href="message_parser_8h.html#a0a5ee1ec225573ebc80059d6bce9e0d6" target="_top" xlink:title="Parser thread initializer. ">
<polygon fill="white" stroke="black" points="402.777,-0.5 402.777,-18.5 481.575,-18.5 481.575,-0.5 402.777,-0.5"/>
<text text-anchor="middle" x="442.176" y="-6.5" font-family="Helvetica,sans-Serif" font-size="10.00">MP_initParser</text>
</a>
</g>
</g>
<!-- Node3&#45;&gt;Node4 -->
<g id="edge3" class="edge"><title>Node3&#45;&gt;Node4</title>
<path fill="none" stroke="midnightblue" d="M376.947,-9.5C385.579,-9.5 394.295,-9.5 402.402,-9.5"/>
<polygon fill="midnightblue" stroke="midnightblue" points="376.893,-6.0001 366.893,-9.5 376.893,-13.0001 376.893,-6.0001"/>
</g>
<!-- Node5 -->
<g id="node5" class="node"><title>Node5</title>
<g id="a_node5"><a xlink:href="main_8c.html#ac0f2228420376f4db7e1274f2b41667c" target="_top" xlink:title="main">
<polygon fill="white" stroke="black" points="517.575,-0.5 517.575,-18.5 555.25,-18.5 555.25,-0.5 517.575,-0.5"/>
<text text-anchor="middle" x="536.413" y="-6.5" font-family="Helvetica,sans-Serif" font-size="10.00">main</text>
</a>
</g>
</g>
<!-- Node4&#45;&gt;Node5 -->
<g id="edge4" class="edge"><title>Node4&#45;&gt;Node5</title>
<path fill="none" stroke="midnightblue" d="M491.891,-9.5C500.881,-9.5 509.739,-9.5 517.093,-9.5"/>
<polygon fill="midnightblue" stroke="midnightblue" points="491.758,-6.0001 481.758,-9.5 491.758,-13.0001 491.758,-6.0001"/>
</g>
</g>
</svg>
