<?xml version="1.0" encoding="UTF-8" standalone="no"?>
<!DOCTYPE svg PUBLIC "-//W3C//DTD SVG 1.1//EN"
 "http://www.w3.org/Graphics/SVG/1.1/DTD/svg11.dtd">
<!-- Generated by graphviz version 2.38.0 (20140413.2041)
 -->
<!-- Title: SA_searchVehicleBySocket Pages: 1 -->
<svg width="739pt" height="27pt"
 viewBox="0.00 0.00 738.66 27.00" xmlns="http://www.w3.org/2000/svg" xmlns:xlink="http://www.w3.org/1999/xlink">
<g id="graph0" class="graph" transform="scale(1 1) rotate(0) translate(4 23)">
<title>SA_searchVehicleBySocket</title>
<polygon fill="white" stroke="none" points="-4,4 -4,-23 734.658,-23 734.658,4 -4,4"/>
<!-- Node1 -->
<g id="node1" class="node"><title>Node1</title>
<polygon fill="#bfbfbf" stroke="black" points="0,-0.5 0,-18.5 139.408,-18.5 139.408,-0.5 0,-0.5"/>
<text text-anchor="middle" x="69.7041" y="-6.5" font-family="Helvetica,sans-Serif" font-size="10.00">SA_searchVehicleBySocket</text>
</g>
<!-- Node2 -->
<g id="node2" class="node"><title>Node2</title>
<g id="a_node2"><a xlink:href="station_actions_8h.html#a2194e68556b58027350c53533996f78a" target="_top" xlink:title="Function to treat the ID Assign messages. ">
<polygon fill="white" stroke="black" points="175.408,-0.5 175.408,-18.5 270.334,-18.5 270.334,-0.5 175.408,-0.5"/>
<text text-anchor="middle" x="222.871" y="-6.5" font-family="Helvetica,sans-Serif" font-size="10.00">SA_treatIDAssign</text>
</a>
</g>
</g>
<!-- Node1&#45;&gt;Node2 -->
<g id="edge1" class="edge"><title>Node1&#45;&gt;Node2</title>
<path fill="none" stroke="midnightblue" d="M149.796,-9.5C158.437,-9.5 167.016,-9.5 175.081,-9.5"/>
<polygon fill="midnightblue" stroke="midnightblue" points="149.652,-6.0001 139.652,-9.5 149.652,-13.0001 149.652,-6.0001"/>
</g>
<!-- Node3 -->
<g id="node3" class="node"><title>Node3</title>
<g id="a_node3"><a xlink:href="message_parser_8h.html#a37ec21f46c51967253a4e2da9ab6f063" target="_top" xlink:title="Message parser main function. ">
<polygon fill="white" stroke="black" points="306.334,-0.5 306.334,-18.5 408.486,-18.5 408.486,-0.5 306.334,-0.5"/>
<text text-anchor="middle" x="357.41" y="-6.5" font-family="Helvetica,sans-Serif" font-size="10.00">MP_parseMessage</text>
</a>
</g>
</g>
<!-- Node2&#45;&gt;Node3 -->
<g id="edge2" class="edge"><title>Node2&#45;&gt;Node3</title>
<path fill="none" stroke="midnightblue" d="M280.73,-9.5C289.151,-9.5 297.778,-9.5 306.053,-9.5"/>
<polygon fill="midnightblue" stroke="midnightblue" points="280.599,-6.0001 270.599,-9.5 280.599,-13.0001 280.599,-6.0001"/>
</g>
<!-- Node4 -->
<g id="node4" class="node"><title>Node4</title>
<g id="a_node4"><a xlink:href="message_parser_8h.html#a995d4c39c3939fa306e45d06589bf8c0" target="_top" xlink:title="Thread function for the parser thread. ">
<polygon fill="white" stroke="black" points="444.486,-0.5 444.486,-18.5 542.186,-18.5 542.186,-0.5 444.486,-0.5"/>
<text text-anchor="middle" x="493.336" y="-6.5" font-family="Helvetica,sans-Serif" font-size="10.00">MP_ParserThread</text>
</a>
</g>
</g>
<!-- Node3&#45;&gt;Node4 -->
<g id="edge3" class="edge"><title>Node3&#45;&gt;Node4</title>
<path fill="none" stroke="midnightblue" d="M418.694,-9.5C427.329,-9.5 436.113,-9.5 444.466,-9.5"/>
<polygon fill="midnightblue" stroke="midnightblue" points="418.66,-6.0001 408.66,-9.5 418.66,-13.0001 418.66,-6.0001"/>
</g>
<!-- Node5 -->
<g id="node5" class="node"><title>Node5</title>
<g id="a_node5"><a xlink:href="message_parser_8h.html#a0a5ee1ec225573ebc80059d6bce9e0d6" target="_top" xlink:title="Parser thread initializer. ">
<polygon fill="white" stroke="black" points="578.186,-0.5 578.186,-18.5 656.983,-18.5 656.983,-0.5 578.186,-0.5"/>
<text text-anchor="middle" x="617.584" y="-6.5" font-family="Helvetica,sans-Serif" font-size="10.00">MP_initParser</text>
</a>
</g>
</g>
<!-- Node4&#45;&gt;Node5 -->
<g id="edge4" class="edge"><title>Node4&#45;&gt;Node5</title>
<path fill="none" stroke="midnightblue" d="M552.355,-9.5C560.988,-9.5 569.703,-9.5 577.81,-9.5"/>
<polygon fill="midnightblue" stroke="midnightblue" points="552.301,-6.0001 542.301,-9.5 552.301,-13.0001 552.301,-6.0001"/>
</g>
<!-- Node6 -->
<g id="node6" class="node"><title>Node6</title>
<g id="a_node6"><a xlink:href="main_8c.html#ac0f2228420376f4db7e1274f2b41667c" target="_top" xlink:title="main">
<polygon fill="white" stroke="black" points="692.983,-0.5 692.983,-18.5 730.658,-18.5 730.658,-0.5 692.983,-0.5"/>
<text text-anchor="middle" x="711.821" y="-6.5" font-family="Helvetica,sans-Serif" font-size="10.00">main</text>
</a>
</g>
</g>
<!-- Node5&#45;&gt;Node6 -->
<g id="edge5" class="edge"><title>Node5&#45;&gt;Node6</title>
<path fill="none" stroke="midnightblue" d="M667.3,-9.5C676.29,-9.5 685.148,-9.5 692.501,-9.5"/>
<polygon fill="midnightblue" stroke="midnightblue" points="667.167,-6.0001 657.167,-9.5 667.167,-13.0001 667.167,-6.0001"/>
</g>
</g>
</svg>
