<?xml version="1.0" encoding="UTF-8" standalone="no"?>
<!DOCTYPE svg PUBLIC "-//W3C//DTD SVG 1.1//EN"
 "http://www.w3.org/Graphics/SVG/1.1/DTD/svg11.dtd">
<!-- Generated by graphviz version 2.38.0 (20140413.2041)
 -->
<!-- Title: SA_searchVehicleByInboxThread Pages: 1 -->
<svg width="936pt" height="27pt"
 viewBox="0.00 0.00 936.05 27.00" xmlns="http://www.w3.org/2000/svg" xmlns:xlink="http://www.w3.org/1999/xlink">
<g id="graph0" class="graph" transform="scale(1 1) rotate(0) translate(4 23)">
<title>SA_searchVehicleByInboxThread</title>
<polygon fill="white" stroke="none" points="-4,4 -4,-23 932.051,-23 932.051,4 -4,4"/>
<!-- Node1 -->
<g id="node1" class="node"><title>Node1</title>
<polygon fill="#bfbfbf" stroke="black" points="0,-0.5 0,-18.5 164.984,-18.5 164.984,-0.5 0,-0.5"/>
<text text-anchor="middle" x="82.4922" y="-6.5" font-family="Helvetica,sans-Serif" font-size="10.00">SA_searchVehicleByInboxThread</text>
</g>
<!-- Node2 -->
<g id="node2" class="node"><title>Node2</title>
<g id="a_node2"><a xlink:href="tcp_vehicle_socket_comm_8h.html#a919ad3564e41afca64d17244390cfba7" target="_top" xlink:title="Thread to handle the inbound messages from the vehicles. ">
<polygon fill="white" stroke="black" points="200.984,-0.5 200.984,-18.5 367.634,-18.5 367.634,-0.5 200.984,-0.5"/>
<text text-anchor="middle" x="284.309" y="-6.5" font-family="Helvetica,sans-Serif" font-size="10.00">VSC_inboundHandlerThreadFunc</text>
</a>
</g>
</g>
<!-- Node1&#45;&gt;Node2 -->
<g id="edge1" class="edge"><title>Node1&#45;&gt;Node2</title>
<path fill="none" stroke="midnightblue" d="M175.325,-9.5C183.792,-9.5 192.336,-9.5 200.713,-9.5"/>
<polygon fill="midnightblue" stroke="midnightblue" points="175.054,-6.0001 165.054,-9.5 175.054,-13.0001 175.054,-6.0001"/>
</g>
<!-- Node3 -->
<g id="node3" class="node"><title>Node3</title>
<g id="a_node3"><a xlink:href="tcp_vehicle_socket_comm_8h.html#a3ec3f2c1297ab45cb0ad39f925a4bce5" target="_top" xlink:title="Accept the new connections from vehicles. ">
<polygon fill="white" stroke="black" points="403.634,-0.5 403.634,-18.5 530.811,-18.5 530.811,-0.5 403.634,-0.5"/>
<text text-anchor="middle" x="467.222" y="-6.5" font-family="Helvetica,sans-Serif" font-size="10.00">VSC_acceptConnections</text>
</a>
</g>
</g>
<!-- Node2&#45;&gt;Node3 -->
<g id="edge2" class="edge"><title>Node2&#45;&gt;Node3</title>
<path fill="none" stroke="midnightblue" d="M377.993,-9.5C386.661,-9.5 395.302,-9.5 403.597,-9.5"/>
<polygon fill="midnightblue" stroke="midnightblue" points="377.824,-6.0001 367.824,-9.5 377.824,-13.0001 377.824,-6.0001"/>
</g>
<!-- Node4 -->
<g id="node4" class="node"><title>Node4</title>
<g id="a_node4"><a xlink:href="tcp_vehicle_socket_comm_8h.html#a49fe9e8bc1bd13ac909ae2b7d2391886" target="_top" xlink:title="Initialize the vehicle comunication server. ">
<polygon fill="white" stroke="black" points="566.811,-0.5 566.811,-18.5 683.421,-18.5 683.421,-0.5 566.811,-0.5"/>
<text text-anchor="middle" x="625.116" y="-6.5" font-family="Helvetica,sans-Serif" font-size="10.00">VSC_initVehicleServer</text>
</a>
</g>
</g>
<!-- Node3&#45;&gt;Node4 -->
<g id="edge3" class="edge"><title>Node3&#45;&gt;Node4</title>
<path fill="none" stroke="midnightblue" d="M541.384,-9.5C549.8,-9.5 558.291,-9.5 566.463,-9.5"/>
<polygon fill="midnightblue" stroke="midnightblue" points="541.181,-6.0001 531.181,-9.5 541.181,-13.0001 541.181,-6.0001"/>
</g>
<!-- Node5 -->
<g id="node5" class="node"><title>Node5</title>
<g id="a_node5"><a xlink:href="main_8c.html#ae346112f7679ae0199c3158f6624fd8b" target="_top" xlink:title="Thread for controlling the vehicle server initialization and shutdown. ">
<polygon fill="white" stroke="black" points="719.421,-0.5 719.421,-18.5 854.376,-18.5 854.376,-0.5 719.421,-0.5"/>
<text text-anchor="middle" x="786.898" y="-6.5" font-family="Helvetica,sans-Serif" font-size="10.00">vehicleConnControlThread</text>
</a>
</g>
</g>
<!-- Node4&#45;&gt;Node5 -->
<g id="edge4" class="edge"><title>Node4&#45;&gt;Node5</title>
<path fill="none" stroke="midnightblue" d="M693.943,-9.5C702.353,-9.5 710.946,-9.5 719.337,-9.5"/>
<polygon fill="midnightblue" stroke="midnightblue" points="693.801,-6.0001 683.801,-9.5 693.801,-13.0001 693.801,-6.0001"/>
</g>
<!-- Node6 -->
<g id="node6" class="node"><title>Node6</title>
<g id="a_node6"><a xlink:href="main_8c.html#ac0f2228420376f4db7e1274f2b41667c" target="_top" xlink:title="main">
<polygon fill="white" stroke="black" points="890.376,-0.5 890.376,-18.5 928.051,-18.5 928.051,-0.5 890.376,-0.5"/>
<text text-anchor="middle" x="909.213" y="-6.5" font-family="Helvetica,sans-Serif" font-size="10.00">main</text>
</a>
</g>
</g>
<!-- Node5&#45;&gt;Node6 -->
<g id="edge5" class="edge"><title>Node5&#45;&gt;Node6</title>
<path fill="none" stroke="midnightblue" d="M864.519,-9.5C874.073,-9.5 883.027,-9.5 890.311,-9.5"/>
<polygon fill="midnightblue" stroke="midnightblue" points="864.39,-6.0001 854.39,-9.5 864.39,-13.0001 864.39,-6.0001"/>
</g>
</g>
</svg>
