<?xml version="1.0" encoding="UTF-8" standalone="no"?>
<!DOCTYPE svg PUBLIC "-//W3C//DTD SVG 1.1//EN"
 "http://www.w3.org/Graphics/SVG/1.1/DTD/svg11.dtd">
<!-- Generated by graphviz version 2.38.0 (20140413.2041)
 -->
<!-- Title: SA_sendJoinMessage Pages: 1 -->
<svg width="277pt" height="101pt"
 viewBox="0.00 0.00 276.68 101.00" xmlns="http://www.w3.org/2000/svg" xmlns:xlink="http://www.w3.org/1999/xlink">
<g id="graph0" class="graph" transform="scale(1 1) rotate(0) translate(4 97)">
<title>SA_sendJoinMessage</title>
<polygon fill="white" stroke="none" points="-4,4 -4,-97 272.684,-97 272.684,4 -4,4"/>
<!-- Node1 -->
<g id="node1" class="node"><title>Node1</title>
<polygon fill="#bfbfbf" stroke="black" points="0,-37.5 0,-55.5 115.507,-55.5 115.507,-37.5 0,-37.5"/>
<text text-anchor="middle" x="57.7534" y="-43.5" font-family="Helvetica,sans-Serif" font-size="10.00">SA_sendJoinMessage</text>
</g>
<!-- Node2 -->
<g id="node2" class="node"><title>Node2</title>
<g id="a_node2"><a xlink:href="station_actions_8c.html#a78fa797ba2873bacdac3f25506fdca3b" target="_top" xlink:title="Search a vehicle by ID. ">
<polygon fill="white" stroke="black" points="151.507,-74.5 151.507,-92.5 268.684,-92.5 268.684,-74.5 151.507,-74.5"/>
<text text-anchor="middle" x="210.095" y="-80.5" font-family="Helvetica,sans-Serif" font-size="10.00">SA_searchVehicleById</text>
</a>
</g>
</g>
<!-- Node1&#45;&gt;Node2 -->
<g id="edge1" class="edge"><title>Node1&#45;&gt;Node2</title>
<path fill="none" stroke="midnightblue" d="M95.5312,-55.5512C115.718,-60.5194 140.955,-66.7304 162.509,-72.0348"/>
<polygon fill="midnightblue" stroke="midnightblue" points="161.89,-75.4869 172.437,-74.4782 163.563,-68.6898 161.89,-75.4869"/>
</g>
<!-- Node3 -->
<g id="node3" class="node"><title>Node3</title>
<g id="a_node3"><a xlink:href="message_parser_8c.html#a0026bd717404e4c2f9df87d137721377" target="_top" xlink:title="Message structure initializer. ">
<polygon fill="white" stroke="black" points="164.307,-37.5 164.307,-55.5 255.883,-55.5 255.883,-37.5 164.307,-37.5"/>
<text text-anchor="middle" x="210.095" y="-43.5" font-family="Helvetica,sans-Serif" font-size="10.00">MP_initMsgStruc</text>
</a>
</g>
</g>
<!-- Node1&#45;&gt;Node3 -->
<g id="edge2" class="edge"><title>Node1&#45;&gt;Node3</title>
<path fill="none" stroke="midnightblue" d="M115.591,-46.5C128.064,-46.5 141.254,-46.5 153.671,-46.5"/>
<polygon fill="midnightblue" stroke="midnightblue" points="153.886,-50.0001 163.886,-46.5 153.886,-43.0001 153.886,-50.0001"/>
</g>
<!-- Node4 -->
<g id="node4" class="node"><title>Node4</title>
<g id="a_node4"><a xlink:href="msg_buffers_8c.html#a94d8920e20c5150892cf23b81eb1dfd6" target="_top" xlink:title="Put a message into the buffer. ">
<polygon fill="white" stroke="black" points="164.576,-0.5 164.576,-18.5 255.615,-18.5 255.615,-0.5 164.576,-0.5"/>
<text text-anchor="middle" x="210.095" y="-6.5" font-family="Helvetica,sans-Serif" font-size="10.00">MB_putMessage</text>
</a>
</g>
</g>
<!-- Node1&#45;&gt;Node4 -->
<g id="edge3" class="edge"><title>Node1&#45;&gt;Node4</title>
<path fill="none" stroke="midnightblue" d="M95.5312,-37.4488C115.718,-32.4806 140.955,-26.2696 162.509,-20.9652"/>
<polygon fill="midnightblue" stroke="midnightblue" points="163.563,-24.3102 172.437,-18.5218 161.89,-17.5131 163.563,-24.3102"/>
</g>
</g>
</svg>
