<?xml version="1.0" encoding="UTF-8" standalone="no"?>
<!DOCTYPE svg PUBLIC "-//W3C//DTD SVG 1.1//EN"
 "http://www.w3.org/Graphics/SVG/1.1/DTD/svg11.dtd">
<!-- Generated by graphviz version 2.38.0 (20140413.2041)
 -->
<!-- Title: SA_sendDisconnectedMsg Pages: 1 -->
<svg width="272pt" height="64pt"
 viewBox="0.00 0.00 271.64 64.00" xmlns="http://www.w3.org/2000/svg" xmlns:xlink="http://www.w3.org/1999/xlink">
<g id="graph0" class="graph" transform="scale(1 1) rotate(0) translate(4 60)">
<title>SA_sendDisconnectedMsg</title>
<polygon fill="white" stroke="none" points="-4,4 -4,-60 267.645,-60 267.645,4 -4,4"/>
<!-- Node1 -->
<g id="node1" class="node"><title>Node1</title>
<polygon fill="#bfbfbf" stroke="black" points="0,-18.5 0,-36.5 136.068,-36.5 136.068,-18.5 0,-18.5"/>
<text text-anchor="middle" x="68.0342" y="-24.5" font-family="Helvetica,sans-Serif" font-size="10.00">SA_sendDisconnectedMsg</text>
</g>
<!-- Node2 -->
<g id="node2" class="node"><title>Node2</title>
<g id="a_node2"><a xlink:href="message_parser_8c.html#a0026bd717404e4c2f9df87d137721377" target="_top" xlink:title="Message structure initializer. ">
<polygon fill="white" stroke="black" points="172.068,-37.5 172.068,-55.5 263.645,-55.5 263.645,-37.5 172.068,-37.5"/>
<text text-anchor="middle" x="217.856" y="-43.5" font-family="Helvetica,sans-Serif" font-size="10.00">MP_initMsgStruc</text>
</a>
</g>
</g>
<!-- Node1&#45;&gt;Node2 -->
<g id="edge1" class="edge"><title>Node1&#45;&gt;Node2</title>
<path fill="none" stroke="midnightblue" d="M136.457,-36.166C145.01,-37.2654 153.68,-38.3798 162.004,-39.4497"/>
<polygon fill="midnightblue" stroke="midnightblue" points="161.59,-42.9252 171.955,-40.7286 162.482,-35.9823 161.59,-42.9252"/>
</g>
<!-- Node3 -->
<g id="node3" class="node"><title>Node3</title>
<g id="a_node3"><a xlink:href="msg_buffers_8c.html#a94d8920e20c5150892cf23b81eb1dfd6" target="_top" xlink:title="Put a message into the buffer. ">
<polygon fill="white" stroke="black" points="172.337,-0.5 172.337,-18.5 263.376,-18.5 263.376,-0.5 172.337,-0.5"/>
<text text-anchor="middle" x="217.856" y="-6.5" font-family="Helvetica,sans-Serif" font-size="10.00">MB_putMessage</text>
</a>
</g>
</g>
<!-- Node1&#45;&gt;Node3 -->
<g id="edge2" class="edge"><title>Node1&#45;&gt;Node3</title>
<path fill="none" stroke="midnightblue" d="M136.457,-19.2901C145.01,-18.2486 153.68,-17.1929 162.004,-16.1793"/>
<polygon fill="midnightblue" stroke="midnightblue" points="162.451,-19.6508 171.955,-14.9676 161.605,-12.7021 162.451,-19.6508"/>
</g>
</g>
</svg>
