<?xml version="1.0" encoding="UTF-8" standalone="no"?>
<!DOCTYPE svg PUBLIC "-//W3C//DTD SVG 1.1//EN"
 "http://www.w3.org/Graphics/SVG/1.1/DTD/svg11.dtd">
<!-- Generated by graphviz version 2.38.0 (20140413.2041)
 -->
<!-- Title: SA_initVehicle Pages: 1 -->
<svg width="841pt" height="46pt"
 viewBox="0.00 0.00 841.27 46.00" xmlns="http://www.w3.org/2000/svg" xmlns:xlink="http://www.w3.org/1999/xlink">
<g id="graph0" class="graph" transform="scale(1 1) rotate(0) translate(4 42)">
<title>SA_initVehicle</title>
<polygon fill="white" stroke="none" points="-4,4 -4,-42 837.269,-42 837.269,4 -4,4"/>
<!-- Node1 -->
<g id="node1" class="node"><title>Node1</title>
<polygon fill="#bfbfbf" stroke="black" points="0,-19.5 0,-37.5 79.9355,-37.5 79.9355,-19.5 0,-19.5"/>
<text text-anchor="middle" x="39.9678" y="-25.5" font-family="Helvetica,sans-Serif" font-size="10.00">SA_initVehicle</text>
</g>
<!-- Node2 -->
<g id="node2" class="node"><title>Node2</title>
<g id="a_node2"><a xlink:href="station_actions_8h.html#adef80b5aef5924633f2ef4b37eecc820" target="_top" xlink:title="Add a new vehicle to the vehicle list. ">
<polygon fill="white" stroke="black" points="115.936,-19.5 115.936,-37.5 225.896,-37.5 225.896,-19.5 115.936,-19.5"/>
<text text-anchor="middle" x="170.916" y="-25.5" font-family="Helvetica,sans-Serif" font-size="10.00">SA_addVehicleToList</text>
</a>
</g>
</g>
<!-- Node1&#45;&gt;Node2 -->
<g id="edge1" class="edge"><title>Node1&#45;&gt;Node2</title>
<path fill="none" stroke="midnightblue" d="M90.0448,-28.5C98.4598,-28.5 107.246,-28.5 115.785,-28.5"/>
<polygon fill="midnightblue" stroke="midnightblue" points="90.0063,-25.0001 80.0063,-28.5 90.0062,-32.0001 90.0063,-25.0001"/>
</g>
<!-- Node3 -->
<g id="node3" class="node"><title>Node3</title>
<g id="a_node3"><a xlink:href="message_parser_8h.html#a37ec21f46c51967253a4e2da9ab6f063" target="_top" xlink:title="Message parser main function. ">
<polygon fill="white" stroke="black" points="408.944,-19.5 408.944,-37.5 511.097,-37.5 511.097,-19.5 408.944,-19.5"/>
<text text-anchor="middle" x="460.021" y="-25.5" font-family="Helvetica,sans-Serif" font-size="10.00">MP_parseMessage</text>
</a>
</g>
</g>
<!-- Node2&#45;&gt;Node3 -->
<g id="edge2" class="edge"><title>Node2&#45;&gt;Node3</title>
<path fill="none" stroke="midnightblue" d="M236.053,-28.5C288.156,-28.5 360.624,-28.5 408.628,-28.5"/>
<polygon fill="midnightblue" stroke="midnightblue" points="235.918,-25.0001 225.918,-28.5 235.918,-32.0001 235.918,-25.0001"/>
</g>
<!-- Node7 -->
<g id="node7" class="node"><title>Node7</title>
<g id="a_node7"><a xlink:href="station_actions_8h.html#a1e710f6898a01da9a953e7fed354c358" target="_top" xlink:title="Function to treat the initial vehicle list message. ">
<polygon fill="white" stroke="black" points="261.896,-0.5 261.896,-18.5 372.944,-18.5 372.944,-0.5 261.896,-0.5"/>
<text text-anchor="middle" x="317.42" y="-6.5" font-family="Helvetica,sans-Serif" font-size="10.00">SA_treatListMessage</text>
</a>
</g>
</g>
<!-- Node2&#45;&gt;Node7 -->
<g id="edge6" class="edge"><title>Node2&#45;&gt;Node7</title>
<path fill="none" stroke="midnightblue" d="M236.269,-20.0386C244.66,-18.9352 253.196,-17.8129 261.415,-16.7322"/>
<polygon fill="midnightblue" stroke="midnightblue" points="235.593,-16.5972 226.135,-21.371 236.506,-23.5375 235.593,-16.5972"/>
</g>
<!-- Node4 -->
<g id="node4" class="node"><title>Node4</title>
<g id="a_node4"><a xlink:href="message_parser_8h.html#a995d4c39c3939fa306e45d06589bf8c0" target="_top" xlink:title="Thread function for the parser thread. ">
<polygon fill="white" stroke="black" points="547.097,-19.5 547.097,-37.5 644.796,-37.5 644.796,-19.5 547.097,-19.5"/>
<text text-anchor="middle" x="595.946" y="-25.5" font-family="Helvetica,sans-Serif" font-size="10.00">MP_ParserThread</text>
</a>
</g>
</g>
<!-- Node3&#45;&gt;Node4 -->
<g id="edge3" class="edge"><title>Node3&#45;&gt;Node4</title>
<path fill="none" stroke="midnightblue" d="M521.304,-28.5C529.939,-28.5 538.724,-28.5 547.076,-28.5"/>
<polygon fill="midnightblue" stroke="midnightblue" points="521.271,-25.0001 511.271,-28.5 521.271,-32.0001 521.271,-25.0001"/>
</g>
<!-- Node5 -->
<g id="node5" class="node"><title>Node5</title>
<g id="a_node5"><a xlink:href="message_parser_8h.html#a0a5ee1ec225573ebc80059d6bce9e0d6" target="_top" xlink:title="Parser thread initializer. ">
<polygon fill="white" stroke="black" points="680.796,-19.5 680.796,-37.5 759.594,-37.5 759.594,-19.5 680.796,-19.5"/>
<text text-anchor="middle" x="720.195" y="-25.5" font-family="Helvetica,sans-Serif" font-size="10.00">MP_initParser</text>
</a>
</g>
</g>
<!-- Node4&#45;&gt;Node5 -->
<g id="edge4" class="edge"><title>Node4&#45;&gt;Node5</title>
<path fill="none" stroke="midnightblue" d="M654.966,-28.5C663.598,-28.5 672.313,-28.5 680.42,-28.5"/>
<polygon fill="midnightblue" stroke="midnightblue" points="654.911,-25.0001 644.911,-28.5 654.911,-32.0001 654.911,-25.0001"/>
</g>
<!-- Node6 -->
<g id="node6" class="node"><title>Node6</title>
<g id="a_node6"><a xlink:href="main_8c.html#ac0f2228420376f4db7e1274f2b41667c" target="_top" xlink:title="main">
<polygon fill="white" stroke="black" points="795.594,-19.5 795.594,-37.5 833.269,-37.5 833.269,-19.5 795.594,-19.5"/>
<text text-anchor="middle" x="814.431" y="-25.5" font-family="Helvetica,sans-Serif" font-size="10.00">main</text>
</a>
</g>
</g>
<!-- Node5&#45;&gt;Node6 -->
<g id="edge5" class="edge"><title>Node5&#45;&gt;Node6</title>
<path fill="none" stroke="midnightblue" d="M769.91,-28.5C778.9,-28.5 787.758,-28.5 795.112,-28.5"/>
<polygon fill="midnightblue" stroke="midnightblue" points="769.777,-25.0001 759.777,-28.5 769.777,-32.0001 769.777,-25.0001"/>
</g>
<!-- Node7&#45;&gt;Node3 -->
<g id="edge7" class="edge"><title>Node7&#45;&gt;Node3</title>
<path fill="none" stroke="midnightblue" d="M383.184,-18.2519C391.774,-19.4127 400.475,-20.5884 408.769,-21.7093"/>
<polygon fill="midnightblue" stroke="midnightblue" points="383.561,-14.7711 373.182,-16.9003 382.624,-21.708 383.561,-14.7711"/>
</g>
</g>
</svg>
