<?xml version="1.0" encoding="UTF-8" standalone="no"?>
<!DOCTYPE svg PUBLIC "-//W3C//DTD SVG 1.1//EN"
 "http://www.w3.org/Graphics/SVG/1.1/DTD/svg11.dtd">
<!-- Generated by graphviz version 2.38.0 (20140413.2041)
 -->
<!-- Title: SA_treatIDMessage Pages: 1 -->
<svg width="574pt" height="27pt"
 viewBox="0.00 0.00 573.81 27.00" xmlns="http://www.w3.org/2000/svg" xmlns:xlink="http://www.w3.org/1999/xlink">
<g id="graph0" class="graph" transform="scale(1 1) rotate(0) translate(4 23)">
<title>SA_treatIDMessage</title>
<polygon fill="white" stroke="none" points="-4,4 -4,-23 569.812,-23 569.812,4 -4,4"/>
<!-- Node1 -->
<g id="node1" class="node"><title>Node1</title>
<polygon fill="#bfbfbf" stroke="black" points="0,-0.5 0,-18.5 105.487,-18.5 105.487,-0.5 0,-0.5"/>
<text text-anchor="middle" x="52.7437" y="-6.5" font-family="Helvetica,sans-Serif" font-size="10.00">SA_treatIDMessage</text>
</g>
<!-- Node2 -->
<g id="node2" class="node"><title>Node2</title>
<g id="a_node2"><a xlink:href="message_parser_8h.html#a37ec21f46c51967253a4e2da9ab6f063" target="_top" xlink:title="Message parser main function. ">
<polygon fill="white" stroke="black" points="141.487,-0.5 141.487,-18.5 243.64,-18.5 243.64,-0.5 141.487,-0.5"/>
<text text-anchor="middle" x="192.563" y="-6.5" font-family="Helvetica,sans-Serif" font-size="10.00">MP_parseMessage</text>
</a>
</g>
</g>
<!-- Node1&#45;&gt;Node2 -->
<g id="edge1" class="edge"><title>Node1&#45;&gt;Node2</title>
<path fill="none" stroke="midnightblue" d="M116.03,-9.5C124.46,-9.5 133.024,-9.5 141.21,-9.5"/>
<polygon fill="midnightblue" stroke="midnightblue" points="115.847,-6.0001 105.847,-9.5 115.847,-13.0001 115.847,-6.0001"/>
</g>
<!-- Node3 -->
<g id="node3" class="node"><title>Node3</title>
<g id="a_node3"><a xlink:href="message_parser_8h.html#a995d4c39c3939fa306e45d06589bf8c0" target="_top" xlink:title="Thread function for the parser thread. ">
<polygon fill="white" stroke="black" points="279.64,-0.5 279.64,-18.5 377.339,-18.5 377.339,-0.5 279.64,-0.5"/>
<text text-anchor="middle" x="328.489" y="-6.5" font-family="Helvetica,sans-Serif" font-size="10.00">MP_ParserThread</text>
</a>
</g>
</g>
<!-- Node2&#45;&gt;Node3 -->
<g id="edge2" class="edge"><title>Node2&#45;&gt;Node3</title>
<path fill="none" stroke="midnightblue" d="M253.847,-9.5C262.482,-9.5 271.267,-9.5 279.619,-9.5"/>
<polygon fill="midnightblue" stroke="midnightblue" points="253.814,-6.0001 243.814,-9.5 253.813,-13.0001 253.814,-6.0001"/>
</g>
<!-- Node4 -->
<g id="node4" class="node"><title>Node4</title>
<g id="a_node4"><a xlink:href="message_parser_8h.html#a0a5ee1ec225573ebc80059d6bce9e0d6" target="_top" xlink:title="Parser thread initializer. ">
<polygon fill="white" stroke="black" points="413.339,-0.5 413.339,-18.5 492.137,-18.5 492.137,-0.5 413.339,-0.5"/>
<text text-anchor="middle" x="452.738" y="-6.5" font-family="Helvetica,sans-Serif" font-size="10.00">MP_initParser</text>
</a>
</g>
</g>
<!-- Node3&#45;&gt;Node4 -->
<g id="edge3" class="edge"><title>Node3&#45;&gt;Node4</title>
<path fill="none" stroke="midnightblue" d="M387.509,-9.5C396.141,-9.5 404.856,-9.5 412.963,-9.5"/>
<polygon fill="midnightblue" stroke="midnightblue" points="387.454,-6.0001 377.454,-9.5 387.454,-13.0001 387.454,-6.0001"/>
</g>
<!-- Node5 -->
<g id="node5" class="node"><title>Node5</title>
<g id="a_node5"><a xlink:href="main_8c.html#ac0f2228420376f4db7e1274f2b41667c" target="_top" xlink:title="main">
<polygon fill="white" stroke="black" points="528.137,-0.5 528.137,-18.5 565.812,-18.5 565.812,-0.5 528.137,-0.5"/>
<text text-anchor="middle" x="546.974" y="-6.5" font-family="Helvetica,sans-Serif" font-size="10.00">main</text>
</a>
</g>
</g>
<!-- Node4&#45;&gt;Node5 -->
<g id="edge4" class="edge"><title>Node4&#45;&gt;Node5</title>
<path fill="none" stroke="midnightblue" d="M502.453,-9.5C511.443,-9.5 520.301,-9.5 527.655,-9.5"/>
<polygon fill="midnightblue" stroke="midnightblue" points="502.32,-6.0001 492.32,-9.5 502.32,-13.0001 502.32,-6.0001"/>
</g>
</g>
</svg>
