<?xml version="1.0" encoding="UTF-8" standalone="no"?>
<!DOCTYPE svg PUBLIC "-//W3C//DTD SVG 1.1//EN"
 "http://www.w3.org/Graphics/SVG/1.1/DTD/svg11.dtd">
<!-- Generated by graphviz version 2.38.0 (20140413.2041)
 -->
<!-- Title: SA_addVehicleToList Pages: 1 -->
<svg width="761pt" height="82pt"
 viewBox="0.00 0.00 761.23 82.00" xmlns="http://www.w3.org/2000/svg" xmlns:xlink="http://www.w3.org/1999/xlink">
<g id="graph0" class="graph" transform="scale(1 1) rotate(0) translate(4 78)">
<title>SA_addVehicleToList</title>
<polygon fill="white" stroke="none" points="-4,4 -4,-78 757.233,-78 757.233,4 -4,4"/>
<!-- Node1 -->
<g id="node1" class="node"><title>Node1</title>
<polygon fill="#bfbfbf" stroke="black" points="0,-37.5 0,-55.5 109.96,-55.5 109.96,-37.5 0,-37.5"/>
<text text-anchor="middle" x="54.98" y="-43.5" font-family="Helvetica,sans-Serif" font-size="10.00">SA_addVehicleToList</text>
</g>
<!-- Node2 -->
<g id="node2" class="node"><title>Node2</title>
<g id="a_node2"><a xlink:href="station_actions_8c.html#ac5974717372c28efe7b4e33f68ef895b" target="_top" xlink:title="Function to initialize a new vehicle structure. ">
<polygon fill="white" stroke="black" points="145.96,-18.5 145.96,-36.5 225.896,-36.5 225.896,-18.5 145.96,-18.5"/>
<text text-anchor="middle" x="185.928" y="-24.5" font-family="Helvetica,sans-Serif" font-size="10.00">SA_initVehicle</text>
</a>
</g>
</g>
<!-- Node1&#45;&gt;Node2 -->
<g id="edge1" class="edge"><title>Node1&#45;&gt;Node2</title>
<path fill="none" stroke="midnightblue" d="M110.292,-38.4974C118.806,-37.2428 127.563,-35.9525 135.948,-34.717"/>
<polygon fill="midnightblue" stroke="midnightblue" points="136.568,-38.1635 145.951,-33.2431 135.547,-31.2383 136.568,-38.1635"/>
</g>
<!-- Node3 -->
<g id="node3" class="node"><title>Node3</title>
<g id="a_node3"><a xlink:href="msg_buffers_8c.html#a15ca8d0fea842defceb1611616a64560" target="_top" xlink:title="Create a new buffer or mailbox and initialize it for n values. ">
<polygon fill="white" stroke="black" points="310.355,-55.5 310.355,-73.5 386.204,-73.5 386.204,-55.5 310.355,-55.5"/>
<text text-anchor="middle" x="348.279" y="-61.5" font-family="Helvetica,sans-Serif" font-size="10.00">MB_initBuffer</text>
</a>
</g>
</g>
<!-- Node1&#45;&gt;Node3 -->
<g id="edge7" class="edge"><title>Node1&#45;&gt;Node3</title>
<path fill="none" stroke="midnightblue" d="M110.088,-49.8435C164.58,-53.2106 247.818,-58.3541 299.815,-61.5671"/>
<polygon fill="midnightblue" stroke="midnightblue" points="299.9,-65.0789 310.097,-62.2024 300.332,-58.0923 299.9,-65.0789"/>
</g>
<!-- Node2&#45;&gt;Node3 -->
<g id="edge2" class="edge"><title>Node2&#45;&gt;Node3</title>
<path fill="none" stroke="midnightblue" d="M221.568,-36.5904C234.23,-39.8309 248.685,-43.4349 261.896,-46.5 274.355,-49.391 287.883,-52.3329 300.42,-54.9777"/>
<polygon fill="midnightblue" stroke="midnightblue" points="299.718,-58.4065 310.223,-57.0285 301.152,-51.5548 299.718,-58.4065"/>
</g>
<!-- Node4 -->
<g id="node4" class="node"><title>Node4</title>
<g id="a_node4"><a xlink:href="tcp_vehicle_socket_comm_8c.html#a8a9cd2f1bfdc3aada6f66fbddee2aa39" target="_top" xlink:title="Thread to send the messages to the vehicle. ">
<polygon fill="white" stroke="black" points="261.896,-18.5 261.896,-36.5 434.663,-36.5 434.663,-18.5 261.896,-18.5"/>
<text text-anchor="middle" x="348.279" y="-24.5" font-family="Helvetica,sans-Serif" font-size="10.00">VSC_outboundHandlerThreadFunc</text>
</a>
</g>
</g>
<!-- Node2&#45;&gt;Node4 -->
<g id="edge3" class="edge"><title>Node2&#45;&gt;Node4</title>
<path fill="none" stroke="midnightblue" d="M226.154,-27.5C234.036,-27.5 242.639,-27.5 251.508,-27.5"/>
<polygon fill="midnightblue" stroke="midnightblue" points="251.609,-31.0001 261.609,-27.5 251.609,-24.0001 251.609,-31.0001"/>
</g>
<!-- Node5 -->
<g id="node5" class="node"><title>Node5</title>
<g id="a_node5"><a xlink:href="msg_buffers_8c.html#a2bc61492dcc33dc1712d77d383b1e33d" target="_top" xlink:title="Get a message from the buffer. ">
<polygon fill="white" stroke="black" points="499.577,-37.5 499.577,-55.5 590.616,-55.5 590.616,-37.5 499.577,-37.5"/>
<text text-anchor="middle" x="545.096" y="-43.5" font-family="Helvetica,sans-Serif" font-size="10.00">MB_getMessage</text>
</a>
</g>
</g>
<!-- Node4&#45;&gt;Node5 -->
<g id="edge4" class="edge"><title>Node4&#45;&gt;Node5</title>
<path fill="none" stroke="midnightblue" d="M434.729,-35.8337C453.186,-37.6337 472.224,-39.4905 489.139,-41.1402"/>
<polygon fill="midnightblue" stroke="midnightblue" points="489.08,-44.6509 499.373,-42.1382 489.76,-37.684 489.08,-44.6509"/>
</g>
<!-- Node6 -->
<g id="node6" class="node"><title>Node6</title>
<g id="a_node6"><a xlink:href="tcp_vehicle_socket_comm_8c.html#a1c76ab448a30a8498f76e22546c81047" target="_top" xlink:title="Send a message to a vehicle. ">
<polygon fill="white" stroke="black" points="470.663,-0.5 470.663,-18.5 619.529,-18.5 619.529,-0.5 470.663,-0.5"/>
<text text-anchor="middle" x="545.096" y="-6.5" font-family="Helvetica,sans-Serif" font-size="10.00">VSC_SendMessageToVehicle</text>
</a>
</g>
</g>
<!-- Node4&#45;&gt;Node6 -->
<g id="edge5" class="edge"><title>Node4&#45;&gt;Node6</title>
<path fill="none" stroke="midnightblue" d="M434.729,-19.6049C443.326,-18.8106 452.05,-18.0046 460.626,-17.2122"/>
<polygon fill="midnightblue" stroke="midnightblue" points="460.975,-20.695 470.61,-16.2897 460.331,-13.7247 460.975,-20.695"/>
</g>
<!-- Node7 -->
<g id="node7" class="node"><title>Node7</title>
<g id="a_node7"><a xlink:href="message_parser_8c.html#a1e487e587ff3244c0808f4602ec6f1f7" target="_top" xlink:title="Message wiping function. ">
<polygon fill="white" stroke="black" points="655.529,-0.5 655.529,-18.5 753.233,-18.5 753.233,-0.5 655.529,-0.5"/>
<text text-anchor="middle" x="704.381" y="-6.5" font-family="Helvetica,sans-Serif" font-size="10.00">MP_wipeMessage</text>
</a>
</g>
</g>
<!-- Node6&#45;&gt;Node7 -->
<g id="edge6" class="edge"><title>Node6&#45;&gt;Node7</title>
<path fill="none" stroke="midnightblue" d="M619.673,-9.5C628.313,-9.5 637.035,-9.5 645.419,-9.5"/>
<polygon fill="midnightblue" stroke="midnightblue" points="645.45,-13.0001 655.45,-9.5 645.45,-6.0001 645.45,-13.0001"/>
</g>
</g>
</svg>
