<?xml version="1.0" encoding="UTF-8" standalone="no"?>
<!DOCTYPE svg PUBLIC "-//W3C//DTD SVG 1.1//EN"
 "http://www.w3.org/Graphics/SVG/1.1/DTD/svg11.dtd">
<!-- Generated by graphviz version 2.38.0 (20140413.2041)
 -->
<!-- Title: SA_getVehicleByIndex Pages: 1 -->
<svg width="552pt" height="27pt"
 viewBox="0.00 0.00 552.45 27.00" xmlns="http://www.w3.org/2000/svg" xmlns:xlink="http://www.w3.org/1999/xlink">
<g id="graph0" class="graph" transform="scale(1 1) rotate(0) translate(4 23)">
<title>SA_getVehicleByIndex</title>
<polygon fill="white" stroke="none" points="-4,4 -4,-23 548.451,-23 548.451,4 -4,4"/>
<!-- Node1 -->
<g id="node1" class="node"><title>Node1</title>
<polygon fill="#bfbfbf" stroke="black" points="0,-0.5 0,-18.5 117.187,-18.5 117.187,-0.5 0,-0.5"/>
<text text-anchor="middle" x="58.5933" y="-6.5" font-family="Helvetica,sans-Serif" font-size="10.00">SA_getVehicleByIndex</text>
</g>
<!-- Node2 -->
<g id="node2" class="node"><title>Node2</title>
<g id="a_node2"><a xlink:href="tcp_vehicle_socket_comm_8h.html#ad670ed989fdade07d91fd3f1bc38ae03" target="_top" xlink:title="Shutdown the vehicle comunication server. ">
<polygon fill="white" stroke="black" points="153.187,-0.5 153.187,-18.5 299.821,-18.5 299.821,-0.5 153.187,-0.5"/>
<text text-anchor="middle" x="226.504" y="-6.5" font-family="Helvetica,sans-Serif" font-size="10.00">VSC_shutdownVehicleServer</text>
</a>
</g>
</g>
<!-- Node1&#45;&gt;Node2 -->
<g id="edge1" class="edge"><title>Node1&#45;&gt;Node2</title>
<path fill="none" stroke="midnightblue" d="M127.657,-9.5C135.988,-9.5 144.527,-9.5 152.922,-9.5"/>
<polygon fill="midnightblue" stroke="midnightblue" points="127.621,-6.0001 117.621,-9.5 127.621,-13.0001 127.621,-6.0001"/>
</g>
<!-- Node3 -->
<g id="node3" class="node"><title>Node3</title>
<g id="a_node3"><a xlink:href="main_8c.html#ae346112f7679ae0199c3158f6624fd8b" target="_top" xlink:title="Thread for controlling the vehicle server initialization and shutdown. ">
<polygon fill="white" stroke="black" points="335.821,-0.5 335.821,-18.5 470.776,-18.5 470.776,-0.5 335.821,-0.5"/>
<text text-anchor="middle" x="403.299" y="-6.5" font-family="Helvetica,sans-Serif" font-size="10.00">vehicleConnControlThread</text>
</a>
</g>
</g>
<!-- Node2&#45;&gt;Node3 -->
<g id="edge2" class="edge"><title>Node2&#45;&gt;Node3</title>
<path fill="none" stroke="midnightblue" d="M309.916,-9.5C318.524,-9.5 327.196,-9.5 335.598,-9.5"/>
<polygon fill="midnightblue" stroke="midnightblue" points="309.861,-6.0001 299.861,-9.5 309.861,-13.0001 309.861,-6.0001"/>
</g>
<!-- Node4 -->
<g id="node4" class="node"><title>Node4</title>
<g id="a_node4"><a xlink:href="main_8c.html#ac0f2228420376f4db7e1274f2b41667c" target="_top" xlink:title="main">
<polygon fill="white" stroke="black" points="506.776,-0.5 506.776,-18.5 544.451,-18.5 544.451,-0.5 506.776,-0.5"/>
<text text-anchor="middle" x="525.614" y="-6.5" font-family="Helvetica,sans-Serif" font-size="10.00">main</text>
</a>
</g>
</g>
<!-- Node3&#45;&gt;Node4 -->
<g id="edge3" class="edge"><title>Node3&#45;&gt;Node4</title>
<path fill="none" stroke="midnightblue" d="M480.919,-9.5C490.473,-9.5 499.427,-9.5 506.711,-9.5"/>
<polygon fill="midnightblue" stroke="midnightblue" points="480.791,-6.0001 470.791,-9.5 480.791,-13.0001 480.791,-6.0001"/>
</g>
</g>
</svg>
