<?xml version="1.0" encoding="UTF-8" standalone="no"?>
<!DOCTYPE svg PUBLIC "-//W3C//DTD SVG 1.1//EN"
 "http://www.w3.org/Graphics/SVG/1.1/DTD/svg11.dtd">
<!-- Generated by graphviz version 2.38.0 (20140413.2041)
 -->
<!-- Title: SA_initVehicle Pages: 1 -->
<svg width="615pt" height="82pt"
 viewBox="0.00 0.00 615.27 82.00" xmlns="http://www.w3.org/2000/svg" xmlns:xlink="http://www.w3.org/1999/xlink">
<g id="graph0" class="graph" transform="scale(1 1) rotate(0) translate(4 78)">
<title>SA_initVehicle</title>
<polygon fill="white" stroke="none" points="-4,4 -4,-78 611.273,-78 611.273,4 -4,4"/>
<!-- Node1 -->
<g id="node1" class="node"><title>Node1</title>
<polygon fill="#bfbfbf" stroke="black" points="0,-36.5 0,-54.5 79.9355,-54.5 79.9355,-36.5 0,-36.5"/>
<text text-anchor="middle" x="39.9678" y="-42.5" font-family="Helvetica,sans-Serif" font-size="10.00">SA_initVehicle</text>
</g>
<!-- Node2 -->
<g id="node2" class="node"><title>Node2</title>
<g id="a_node2"><a xlink:href="msg_buffers_8c.html#a15ca8d0fea842defceb1611616a64560" target="_top" xlink:title="Create a new buffer or mailbox and initialize it for n values. ">
<polygon fill="white" stroke="black" points="164.395,-55.5 164.395,-73.5 240.244,-73.5 240.244,-55.5 164.395,-55.5"/>
<text text-anchor="middle" x="202.319" y="-61.5" font-family="Helvetica,sans-Serif" font-size="10.00">MB_initBuffer</text>
</a>
</g>
</g>
<!-- Node1&#45;&gt;Node2 -->
<g id="edge1" class="edge"><title>Node1&#45;&gt;Node2</title>
<path fill="none" stroke="midnightblue" d="M80.1942,-50.1479C102.486,-52.7892 130.55,-56.1146 154.051,-58.8992"/>
<polygon fill="midnightblue" stroke="midnightblue" points="153.808,-62.3948 164.15,-60.0959 154.632,-55.4434 153.808,-62.3948"/>
</g>
<!-- Node3 -->
<g id="node3" class="node"><title>Node3</title>
<g id="a_node3"><a xlink:href="tcp_vehicle_socket_comm_8c.html#a8a9cd2f1bfdc3aada6f66fbddee2aa39" target="_top" xlink:title="Thread to send the messages to the vehicle. ">
<polygon fill="white" stroke="black" points="115.936,-18.5 115.936,-36.5 288.703,-36.5 288.703,-18.5 115.936,-18.5"/>
<text text-anchor="middle" x="202.319" y="-24.5" font-family="Helvetica,sans-Serif" font-size="10.00">VSC_outboundHandlerThreadFunc</text>
</a>
</g>
</g>
<!-- Node1&#45;&gt;Node3 -->
<g id="edge2" class="edge"><title>Node1&#45;&gt;Node3</title>
<path fill="none" stroke="midnightblue" d="M80.1942,-41.0967C89.7065,-40.0289 100.27,-38.8431 111.082,-37.6295"/>
<polygon fill="midnightblue" stroke="midnightblue" points="111.51,-41.1035 121.057,-36.5097 110.729,-34.1471 111.51,-41.1035"/>
</g>
<!-- Node4 -->
<g id="node4" class="node"><title>Node4</title>
<g id="a_node4"><a xlink:href="msg_buffers_8c.html#a2bc61492dcc33dc1712d77d383b1e33d" target="_top" xlink:title="Get a message from the buffer. ">
<polygon fill="white" stroke="black" points="353.617,-37.5 353.617,-55.5 444.656,-55.5 444.656,-37.5 353.617,-37.5"/>
<text text-anchor="middle" x="399.136" y="-43.5" font-family="Helvetica,sans-Serif" font-size="10.00">MB_getMessage</text>
</a>
</g>
</g>
<!-- Node3&#45;&gt;Node4 -->
<g id="edge3" class="edge"><title>Node3&#45;&gt;Node4</title>
<path fill="none" stroke="midnightblue" d="M288.769,-35.8337C307.226,-37.6337 326.264,-39.4905 343.179,-41.1402"/>
<polygon fill="midnightblue" stroke="midnightblue" points="343.12,-44.6509 353.413,-42.1382 343.8,-37.684 343.12,-44.6509"/>
</g>
<!-- Node5 -->
<g id="node5" class="node"><title>Node5</title>
<g id="a_node5"><a xlink:href="tcp_vehicle_socket_comm_8c.html#a1c76ab448a30a8498f76e22546c81047" target="_top" xlink:title="Send a message to a vehicle. ">
<polygon fill="white" stroke="black" points="324.703,-0.5 324.703,-18.5 473.569,-18.5 473.569,-0.5 324.703,-0.5"/>
<text text-anchor="middle" x="399.136" y="-6.5" font-family="Helvetica,sans-Serif" font-size="10.00">VSC_SendMessageToVehicle</text>
</a>
</g>
</g>
<!-- Node3&#45;&gt;Node5 -->
<g id="edge4" class="edge"><title>Node3&#45;&gt;Node5</title>
<path fill="none" stroke="midnightblue" d="M288.769,-19.6049C297.366,-18.8106 306.09,-18.0046 314.666,-17.2122"/>
<polygon fill="midnightblue" stroke="midnightblue" points="315.015,-20.695 324.65,-16.2897 314.371,-13.7247 315.015,-20.695"/>
</g>
<!-- Node6 -->
<g id="node6" class="node"><title>Node6</title>
<g id="a_node6"><a xlink:href="message_parser_8c.html#a1e487e587ff3244c0808f4602ec6f1f7" target="_top" xlink:title="Message wiping function. ">
<polygon fill="white" stroke="black" points="509.569,-0.5 509.569,-18.5 607.273,-18.5 607.273,-0.5 509.569,-0.5"/>
<text text-anchor="middle" x="558.421" y="-6.5" font-family="Helvetica,sans-Serif" font-size="10.00">MP_wipeMessage</text>
</a>
</g>
</g>
<!-- Node5&#45;&gt;Node6 -->
<g id="edge5" class="edge"><title>Node5&#45;&gt;Node6</title>
<path fill="none" stroke="midnightblue" d="M473.713,-9.5C482.353,-9.5 491.075,-9.5 499.459,-9.5"/>
<polygon fill="midnightblue" stroke="midnightblue" points="499.49,-13.0001 509.49,-9.5 499.49,-6.0001 499.49,-13.0001"/>
</g>
</g>
</svg>
