<?xml version="1.0" encoding="UTF-8" standalone="no"?>
<!DOCTYPE svg PUBLIC "-//W3C//DTD SVG 1.1//EN"
 "http://www.w3.org/Graphics/SVG/1.1/DTD/svg11.dtd">
<!-- Generated by graphviz version 2.38.0 (20140413.2041)
 -->
<!-- Title: SA_sendDisconnectedMsg Pages: 1 -->
<svg width="907pt" height="27pt"
 viewBox="0.00 0.00 907.13 27.00" xmlns="http://www.w3.org/2000/svg" xmlns:xlink="http://www.w3.org/1999/xlink">
<g id="graph0" class="graph" transform="scale(1 1) rotate(0) translate(4 23)">
<title>SA_sendDisconnectedMsg</title>
<polygon fill="white" stroke="none" points="-4,4 -4,-23 903.135,-23 903.135,4 -4,4"/>
<!-- Node1 -->
<g id="node1" class="node"><title>Node1</title>
<polygon fill="#bfbfbf" stroke="black" points="0,-0.5 0,-18.5 136.068,-18.5 136.068,-0.5 0,-0.5"/>
<text text-anchor="middle" x="68.0342" y="-6.5" font-family="Helvetica,sans-Serif" font-size="10.00">SA_sendDisconnectedMsg</text>
</g>
<!-- Node2 -->
<g id="node2" class="node"><title>Node2</title>
<g id="a_node2"><a xlink:href="tcp_vehicle_socket_comm_8h.html#a919ad3564e41afca64d17244390cfba7" target="_top" xlink:title="Thread to handle the inbound messages from the vehicles. ">
<polygon fill="white" stroke="black" points="172.068,-0.5 172.068,-18.5 338.718,-18.5 338.718,-0.5 172.068,-0.5"/>
<text text-anchor="middle" x="255.393" y="-6.5" font-family="Helvetica,sans-Serif" font-size="10.00">VSC_inboundHandlerThreadFunc</text>
</a>
</g>
</g>
<!-- Node1&#45;&gt;Node2 -->
<g id="edge1" class="edge"><title>Node1&#45;&gt;Node2</title>
<path fill="none" stroke="midnightblue" d="M146.403,-9.5C154.843,-9.5 163.456,-9.5 171.953,-9.5"/>
<polygon fill="midnightblue" stroke="midnightblue" points="146.215,-6.0001 136.215,-9.5 146.215,-13.0001 146.215,-6.0001"/>
</g>
<!-- Node3 -->
<g id="node3" class="node"><title>Node3</title>
<g id="a_node3"><a xlink:href="tcp_vehicle_socket_comm_8h.html#a3ec3f2c1297ab45cb0ad39f925a4bce5" target="_top" xlink:title="Accept the new connections from vehicles. ">
<polygon fill="white" stroke="black" points="374.718,-0.5 374.718,-18.5 501.895,-18.5 501.895,-0.5 374.718,-0.5"/>
<text text-anchor="middle" x="438.306" y="-6.5" font-family="Helvetica,sans-Serif" font-size="10.00">VSC_acceptConnections</text>
</a>
</g>
</g>
<!-- Node2&#45;&gt;Node3 -->
<g id="edge2" class="edge"><title>Node2&#45;&gt;Node3</title>
<path fill="none" stroke="midnightblue" d="M349.077,-9.5C357.745,-9.5 366.386,-9.5 374.681,-9.5"/>
<polygon fill="midnightblue" stroke="midnightblue" points="348.908,-6.0001 338.908,-9.5 348.908,-13.0001 348.908,-6.0001"/>
</g>
<!-- Node4 -->
<g id="node4" class="node"><title>Node4</title>
<g id="a_node4"><a xlink:href="tcp_vehicle_socket_comm_8h.html#a49fe9e8bc1bd13ac909ae2b7d2391886" target="_top" xlink:title="Initialize the vehicle comunication server. ">
<polygon fill="white" stroke="black" points="537.895,-0.5 537.895,-18.5 654.505,-18.5 654.505,-0.5 537.895,-0.5"/>
<text text-anchor="middle" x="596.2" y="-6.5" font-family="Helvetica,sans-Serif" font-size="10.00">VSC_initVehicleServer</text>
</a>
</g>
</g>
<!-- Node3&#45;&gt;Node4 -->
<g id="edge3" class="edge"><title>Node3&#45;&gt;Node4</title>
<path fill="none" stroke="midnightblue" d="M512.468,-9.5C520.884,-9.5 529.375,-9.5 537.547,-9.5"/>
<polygon fill="midnightblue" stroke="midnightblue" points="512.265,-6.0001 502.265,-9.5 512.265,-13.0001 512.265,-6.0001"/>
</g>
<!-- Node5 -->
<g id="node5" class="node"><title>Node5</title>
<g id="a_node5"><a xlink:href="main_8c.html#ae346112f7679ae0199c3158f6624fd8b" target="_top" xlink:title="Thread for controlling the vehicle server initialization and shutdown. ">
<polygon fill="white" stroke="black" points="690.505,-0.5 690.505,-18.5 825.46,-18.5 825.46,-0.5 690.505,-0.5"/>
<text text-anchor="middle" x="757.982" y="-6.5" font-family="Helvetica,sans-Serif" font-size="10.00">vehicleConnControlThread</text>
</a>
</g>
</g>
<!-- Node4&#45;&gt;Node5 -->
<g id="edge4" class="edge"><title>Node4&#45;&gt;Node5</title>
<path fill="none" stroke="midnightblue" d="M665.027,-9.5C673.437,-9.5 682.03,-9.5 690.421,-9.5"/>
<polygon fill="midnightblue" stroke="midnightblue" points="664.885,-6.0001 654.885,-9.5 664.885,-13.0001 664.885,-6.0001"/>
</g>
<!-- Node6 -->
<g id="node6" class="node"><title>Node6</title>
<g id="a_node6"><a xlink:href="main_8c.html#ac0f2228420376f4db7e1274f2b41667c" target="_top" xlink:title="main">
<polygon fill="white" stroke="black" points="861.46,-0.5 861.46,-18.5 899.135,-18.5 899.135,-0.5 861.46,-0.5"/>
<text text-anchor="middle" x="880.297" y="-6.5" font-family="Helvetica,sans-Serif" font-size="10.00">main</text>
</a>
</g>
</g>
<!-- Node5&#45;&gt;Node6 -->
<g id="edge5" class="edge"><title>Node5&#45;&gt;Node6</title>
<path fill="none" stroke="midnightblue" d="M835.603,-9.5C845.157,-9.5 854.111,-9.5 861.395,-9.5"/>
<polygon fill="midnightblue" stroke="midnightblue" points="835.474,-6.0001 825.474,-9.5 835.474,-13.0001 835.474,-6.0001"/>
</g>
</g>
</svg>
