<?xml version="1.0" encoding="UTF-8" standalone="no"?>
<!DOCTYPE svg PUBLIC "-//W3C//DTD SVG 1.1//EN"
 "http://www.w3.org/Graphics/SVG/1.1/DTD/svg11.dtd">
<!-- Generated by graphviz version 2.38.0 (20140413.2041)
 -->
<!-- Title: rasPi&#45;EmergencyStation/stationActions.c Pages: 1 -->
<svg width="1068pt" height="367pt"
 viewBox="0.00 0.00 1067.73 367.00" xmlns="http://www.w3.org/2000/svg" xmlns:xlink="http://www.w3.org/1999/xlink">
<g id="graph0" class="graph" transform="scale(1 1) rotate(0) translate(4 363)">
<title>rasPi&#45;EmergencyStation/stationActions.c</title>
<polygon fill="white" stroke="none" points="-4,4 -4,-363 1063.73,-363 1063.73,4 -4,4"/>
<!-- Node1 -->
<g id="node1" class="node"><title>Node1</title>
<polygon fill="#bfbfbf" stroke="black" points="409.089,-330.5 409.089,-358.5 532.911,-358.5 532.911,-330.5 409.089,-330.5"/>
<text text-anchor="start" x="417.089" y="-346.5" font-family="Helvetica,sans-Serif" font-size="10.00">rasPi&#45;EmergencyStation</text>
<text text-anchor="middle" x="471" y="-336.5" font-family="Helvetica,sans-Serif" font-size="10.00">/stationActions.c</text>
</g>
<!-- Node2 -->
<g id="node2" class="node"><title>Node2</title>
<g id="a_node2"><a xlink:href="station_actions_8h.html" target="_top" xlink:title="FIle containing all the station action headers. ">
<polygon fill="white" stroke="black" points="427.702,-275.5 427.702,-293.5 514.298,-293.5 514.298,-275.5 427.702,-275.5"/>
<text text-anchor="middle" x="471" y="-281.5" font-family="Helvetica,sans-Serif" font-size="10.00">stationActions.h</text>
</a>
</g>
</g>
<!-- Node1&#45;&gt;Node2 -->
<g id="edge1" class="edge"><title>Node1&#45;&gt;Node2</title>
<path fill="none" stroke="midnightblue" d="M471,-330.339C471,-322.531 471,-312.512 471,-303.927"/>
<polygon fill="midnightblue" stroke="midnightblue" points="474.5,-303.771 471,-293.771 467.5,-303.772 474.5,-303.771"/>
</g>
<!-- Node3 -->
<g id="node3" class="node"><title>Node3</title>
<polygon fill="white" stroke="#bfbfbf" points="479.269,-0.5 479.269,-18.5 524.731,-18.5 524.731,-0.5 479.269,-0.5"/>
<text text-anchor="middle" x="502" y="-6.5" font-family="Helvetica,sans-Serif" font-size="10.00">stdio.h</text>
</g>
<!-- Node2&#45;&gt;Node3 -->
<g id="edge2" class="edge"><title>Node2&#45;&gt;Node3</title>
<path fill="none" stroke="midnightblue" d="M427.5,-281.863C317.697,-276.553 38,-255.204 38,-175.5 38,-175.5 38,-175.5 38,-118.5 38,-29.9413 362.68,-13.9702 468.847,-11.115"/>
<polygon fill="midnightblue" stroke="midnightblue" points="469.08,-14.6105 478.99,-10.8649 468.907,-7.6126 469.08,-14.6105"/>
</g>
<!-- Node4 -->
<g id="node4" class="node"><title>Node4</title>
<polygon fill="white" stroke="#bfbfbf" points="212.158,-110.5 212.158,-128.5 259.842,-128.5 259.842,-110.5 212.158,-110.5"/>
<text text-anchor="middle" x="236" y="-116.5" font-family="Helvetica,sans-Serif" font-size="10.00">stdlib.h</text>
</g>
<!-- Node2&#45;&gt;Node4 -->
<g id="edge3" class="edge"><title>Node2&#45;&gt;Node4</title>
<path fill="none" stroke="midnightblue" d="M435.041,-275.452C388.571,-263.286 307.954,-235.915 260,-184 248.264,-171.294 242.096,-152.286 238.969,-138.378"/>
<polygon fill="midnightblue" stroke="midnightblue" points="242.401,-137.688 237.066,-128.535 235.528,-139.018 242.401,-137.688"/>
</g>
<!-- Node5 -->
<g id="node5" class="node"><title>Node5</title>
<polygon fill="white" stroke="#bfbfbf" points="151.872,-0.5 151.872,-18.5 210.128,-18.5 210.128,-0.5 151.872,-0.5"/>
<text text-anchor="middle" x="181" y="-6.5" font-family="Helvetica,sans-Serif" font-size="10.00">pthread.h</text>
</g>
<!-- Node2&#45;&gt;Node5 -->
<g id="edge4" class="edge"><title>Node2&#45;&gt;Node5</title>
<path fill="none" stroke="midnightblue" d="M427.534,-281.943C337.728,-278.195 134.854,-266.836 72,-239 32.9874,-221.722 0,-218.167 0,-175.5 0,-175.5 0,-175.5 0,-118.5 0,-53.1482 88.0909,-26.4169 141.363,-16.2263"/>
<polygon fill="midnightblue" stroke="midnightblue" points="142.293,-19.6153 151.516,-14.4022 141.055,-12.7256 142.293,-19.6153"/>
</g>
<!-- Node6 -->
<g id="node6" class="node"><title>Node6</title>
<polygon fill="white" stroke="#bfbfbf" points="66.4878,-110.5 66.4878,-128.5 117.512,-128.5 117.512,-110.5 66.4878,-110.5"/>
<text text-anchor="middle" x="92" y="-116.5" font-family="Helvetica,sans-Serif" font-size="10.00">unistd.h</text>
</g>
<!-- Node2&#45;&gt;Node6 -->
<g id="edge5" class="edge"><title>Node2&#45;&gt;Node6</title>
<path fill="none" stroke="midnightblue" d="M427.629,-280.83C358.36,-274.535 221.467,-253.548 132,-184 116.604,-172.031 105.538,-152.352 99.0011,-138.069"/>
<polygon fill="midnightblue" stroke="midnightblue" points="102.193,-136.631 95.0449,-128.811 95.7557,-139.382 102.193,-136.631"/>
</g>
<!-- Node7 -->
<g id="node7" class="node"><title>Node7</title>
<g id="a_node7"><a xlink:href="structures_8h.html" target="_top" xlink:title="File containing all the structure definitions used in the other modules. ">
<polygon fill="white" stroke="black" points="644.879,-55.5 644.879,-73.5 713.121,-73.5 713.121,-55.5 644.879,-55.5"/>
<text text-anchor="middle" x="679" y="-61.5" font-family="Helvetica,sans-Serif" font-size="10.00">structures.h</text>
</a>
</g>
</g>
<!-- Node2&#45;&gt;Node7 -->
<g id="edge6" class="edge"><title>Node2&#45;&gt;Node7</title>
<path fill="none" stroke="midnightblue" d="M514.356,-282.323C581.958,-279.543 716.029,-270.217 825,-239 881.012,-222.955 891.539,-209.35 944,-184 992.857,-160.392 1024.56,-175.21 1053,-129 1057.43,-121.809 1058.61,-116.314 1053,-110 1050.28,-106.934 821.98,-81.3273 723.453,-70.4051"/>
<polygon fill="midnightblue" stroke="midnightblue" points="723.542,-66.8936 713.217,-69.2715 722.771,-73.8511 723.542,-66.8936"/>
</g>
<!-- Node9 -->
<g id="node9" class="node"><title>Node9</title>
<g id="a_node9"><a xlink:href="message_parser_8h.html" target="_top" xlink:title="Message parser function headers. ">
<polygon fill="white" stroke="black" points="424.089,-220.5 424.089,-238.5 517.911,-238.5 517.911,-220.5 424.089,-220.5"/>
<text text-anchor="middle" x="471" y="-226.5" font-family="Helvetica,sans-Serif" font-size="10.00">messageParser.h</text>
</a>
</g>
</g>
<!-- Node2&#45;&gt;Node9 -->
<g id="edge10" class="edge"><title>Node2&#45;&gt;Node9</title>
<path fill="none" stroke="midnightblue" d="M465.938,-275.219C464.325,-268.099 463.868,-257.577 464.566,-248.529"/>
<polygon fill="midnightblue" stroke="midnightblue" points="468.043,-248.944 465.991,-238.55 461.113,-247.955 468.043,-248.944"/>
</g>
<!-- Node11 -->
<g id="node11" class="node"><title>Node11</title>
<g id="a_node11"><a xlink:href="msg_buffers_8h.html" target="_top" xlink:title="File containing the headers of all functions related to the message mailboxes. ">
<polygon fill="white" stroke="black" points="771.632,-110.5 771.632,-128.5 846.368,-128.5 846.368,-110.5 771.632,-110.5"/>
<text text-anchor="middle" x="809" y="-116.5" font-family="Helvetica,sans-Serif" font-size="10.00">msgBuffers.h</text>
</a>
</g>
</g>
<!-- Node2&#45;&gt;Node11 -->
<g id="edge31" class="edge"><title>Node2&#45;&gt;Node11</title>
<path fill="none" stroke="midnightblue" d="M497.004,-275.407C543.339,-260.491 642.579,-226.289 720,-184 746.243,-169.666 773.891,-148.926 791.277,-135.093"/>
<polygon fill="midnightblue" stroke="midnightblue" points="793.788,-137.564 799.371,-128.559 789.391,-132.117 793.788,-137.564"/>
</g>
<!-- Node13 -->
<g id="node13" class="node"><title>Node13</title>
<g id="a_node13"><a xlink:href="tcp_vehicle_socket_comm_8h.html" target="_top" xlink:title="Vehicle connection server&#39;s headers. ">
<polygon fill="white" stroke="black" points="534.027,-165.5 534.027,-183.5 663.973,-183.5 663.973,-165.5 534.027,-165.5"/>
<text text-anchor="middle" x="599" y="-171.5" font-family="Helvetica,sans-Serif" font-size="10.00">tcpVehicleSocketComm.h</text>
</a>
</g>
</g>
<!-- Node2&#45;&gt;Node13 -->
<g id="edge43" class="edge"><title>Node2&#45;&gt;Node13</title>
<path fill="none" stroke="midnightblue" d="M481.449,-275.455C492.795,-266.66 511.386,-252.075 527,-239 546.228,-222.9 567.727,-203.788 582.184,-190.768"/>
<polygon fill="midnightblue" stroke="midnightblue" points="584.74,-193.176 589.812,-183.874 580.046,-187.982 584.74,-193.176"/>
</g>
<!-- Node17 -->
<g id="node17" class="node"><title>Node17</title>
<g id="a_node17"><a xlink:href="tcp_server_socket_comm_8h.html" target="_top" xlink:title="Server connection related function definitions. ">
<polygon fill="white" stroke="black" points="332.426,-165.5 332.426,-183.5 459.574,-183.5 459.574,-165.5 332.426,-165.5"/>
<text text-anchor="middle" x="396" y="-171.5" font-family="Helvetica,sans-Serif" font-size="10.00">tcpServerSocketComm.h</text>
</a>
</g>
</g>
<!-- Node2&#45;&gt;Node17 -->
<g id="edge32" class="edge"><title>Node2&#45;&gt;Node17</title>
<path fill="none" stroke="midnightblue" d="M456.519,-275.479C443.807,-267.724 425.72,-254.837 415,-239 405.728,-225.301 400.878,-206.965 398.407,-193.518"/>
<polygon fill="midnightblue" stroke="midnightblue" points="401.856,-192.918 396.847,-183.582 394.941,-194.004 401.856,-192.918"/>
</g>
<!-- Node18 -->
<g id="node18" class="node"><title>Node18</title>
<g id="a_node18"><a xlink:href="mcast_messaging_8h.html" target="_top" xlink:title="FIle containing all the headers of the functions related to multicast communication. ">
<polygon fill="white" stroke="black" points="835.315,-165.5 835.315,-183.5 934.685,-183.5 934.685,-165.5 835.315,-165.5"/>
<text text-anchor="middle" x="885" y="-171.5" font-family="Helvetica,sans-Serif" font-size="10.00">mcastMessaging.h</text>
</a>
</g>
</g>
<!-- Node2&#45;&gt;Node18 -->
<g id="edge44" class="edge"><title>Node2&#45;&gt;Node18</title>
<path fill="none" stroke="midnightblue" d="M514.518,-283.789C577.927,-282.832 698.451,-275.751 793,-239 822.225,-227.64 851.205,-205.327 868.609,-190.411"/>
<polygon fill="midnightblue" stroke="midnightblue" points="870.972,-192.993 876.173,-183.763 866.351,-187.735 870.972,-192.993"/>
</g>
<!-- Node7&#45;&gt;Node3 -->
<g id="edge7" class="edge"><title>Node7&#45;&gt;Node3</title>
<path fill="none" stroke="midnightblue" d="M652.118,-55.4504C620.654,-46.0291 568.562,-30.431 534.762,-20.3102"/>
<polygon fill="midnightblue" stroke="midnightblue" points="535.487,-16.8736 524.903,-17.358 533.479,-23.5795 535.487,-16.8736"/>
</g>
<!-- Node7&#45;&gt;Node5 -->
<g id="edge8" class="edge"><title>Node7&#45;&gt;Node5</title>
<path fill="none" stroke="midnightblue" d="M644.77,-59.8571C555.386,-50.3443 315.323,-24.7954 220.403,-14.6935"/>
<polygon fill="midnightblue" stroke="midnightblue" points="220.67,-11.2023 210.356,-13.6242 219.929,-18.163 220.67,-11.2023"/>
</g>
<!-- Node8 -->
<g id="node8" class="node"><title>Node8</title>
<polygon fill="white" stroke="#bfbfbf" points="750.537,-0.5 750.537,-18.5 815.463,-18.5 815.463,-0.5 750.537,-0.5"/>
<text text-anchor="middle" x="783" y="-6.5" font-family="Helvetica,sans-Serif" font-size="10.00">netinet/in.h</text>
</g>
<!-- Node7&#45;&gt;Node8 -->
<g id="edge9" class="edge"><title>Node7&#45;&gt;Node8</title>
<path fill="none" stroke="midnightblue" d="M694.795,-55.4504C711.594,-46.8897 738.4,-33.2291 758.056,-23.2119"/>
<polygon fill="midnightblue" stroke="midnightblue" points="759.735,-26.2843 767.056,-18.6253 756.557,-20.0475 759.735,-26.2843"/>
</g>
<!-- Node9&#45;&gt;Node2 -->
<g id="edge30" class="edge"><title>Node9&#45;&gt;Node2</title>
<path fill="none" stroke="midnightblue" d="M476.009,-238.55C477.647,-245.595 478.129,-256.094 477.456,-265.175"/>
<polygon fill="midnightblue" stroke="midnightblue" points="473.97,-264.833 476.062,-275.219 480.904,-265.795 473.97,-264.833"/>
</g>
<!-- Node9&#45;&gt;Node3 -->
<g id="edge11" class="edge"><title>Node9&#45;&gt;Node3</title>
<path fill="none" stroke="midnightblue" d="M424.041,-228.204C390,-225.209 346.054,-215.005 323,-184 317.961,-177.224 322.504,-173.43 323,-165 325.894,-115.856 303.789,-92.2287 336,-55 353.269,-35.0409 425.947,-21.4159 469.204,-14.9024"/>
<polygon fill="midnightblue" stroke="midnightblue" points="469.866,-18.343 479.257,-13.4367 468.856,-11.4162 469.866,-18.343"/>
</g>
<!-- Node9&#45;&gt;Node4 -->
<g id="edge13" class="edge"><title>Node9&#45;&gt;Node4</title>
<path fill="none" stroke="midnightblue" d="M423.723,-226.089C383.669,-222.086 326.19,-211.556 284,-184 266.326,-172.457 252.654,-152.081 244.501,-137.523"/>
<polygon fill="midnightblue" stroke="midnightblue" points="247.526,-135.757 239.757,-128.554 241.339,-139.03 247.526,-135.757"/>
</g>
<!-- Node9&#45;&gt;Node5 -->
<g id="edge14" class="edge"><title>Node9&#45;&gt;Node5</title>
<path fill="none" stroke="midnightblue" d="M424.028,-227.157C354.777,-224.16 230.104,-214.558 199,-184 156.896,-142.635 168.47,-63.6859 176.392,-28.3599"/>
<polygon fill="midnightblue" stroke="midnightblue" points="179.822,-29.0681 178.764,-18.5262 173.017,-27.4272 179.822,-29.0681"/>
</g>
<!-- Node9&#45;&gt;Node7 -->
<g id="edge15" class="edge"><title>Node9&#45;&gt;Node7</title>
<path fill="none" stroke="midnightblue" d="M423.746,-224.287C330.102,-214.248 135.598,-183.997 203,-110 231.759,-78.4265 521.969,-68.8577 634.625,-66.3196"/>
<polygon fill="midnightblue" stroke="midnightblue" points="634.722,-69.8184 644.644,-66.102 634.57,-62.8201 634.722,-69.8184"/>
</g>
<!-- Node10 -->
<g id="node10" class="node"><title>Node10</title>
<polygon fill="white" stroke="#bfbfbf" points="429.604,-110.5 429.604,-128.5 478.396,-128.5 478.396,-110.5 429.604,-110.5"/>
<text text-anchor="middle" x="454" y="-116.5" font-family="Helvetica,sans-Serif" font-size="10.00">string.h</text>
</g>
<!-- Node9&#45;&gt;Node10 -->
<g id="edge12" class="edge"><title>Node9&#45;&gt;Node10</title>
<path fill="none" stroke="midnightblue" d="M471.507,-220.199C472.079,-207.995 472.521,-184.539 469,-165 467.351,-155.851 464.195,-146.023 461.202,-137.936"/>
<polygon fill="midnightblue" stroke="midnightblue" points="464.414,-136.541 457.501,-128.512 457.898,-139.1 464.414,-136.541"/>
</g>
<!-- Node9&#45;&gt;Node11 -->
<g id="edge16" class="edge"><title>Node9&#45;&gt;Node11</title>
<path fill="none" stroke="midnightblue" d="M514.787,-220.459C554.42,-213.187 613.836,-201.005 664,-184 705.24,-170.02 750.591,-147.234 779.616,-133.095"/>
<polygon fill="midnightblue" stroke="midnightblue" points="781.321,-136.158 788.803,-128.657 778.277,-129.855 781.321,-136.158"/>
</g>
<!-- Node9&#45;&gt;Node13 -->
<g id="edge22" class="edge"><title>Node9&#45;&gt;Node13</title>
<path fill="none" stroke="midnightblue" d="M490.44,-220.45C511.585,-211.695 545.613,-197.606 569.935,-187.535"/>
<polygon fill="midnightblue" stroke="midnightblue" points="571.476,-190.685 579.377,-183.625 568.798,-184.217 571.476,-190.685"/>
</g>
<!-- Node11&#45;&gt;Node3 -->
<g id="edge17" class="edge"><title>Node11&#45;&gt;Node3</title>
<path fill="none" stroke="midnightblue" d="M800.655,-110.44C786.01,-96.7767 754.17,-69.1755 722,-55 659.408,-27.4195 579.222,-16.7399 534.995,-12.7511"/>
<polygon fill="midnightblue" stroke="midnightblue" points="535.077,-9.24572 524.818,-11.8952 534.49,-16.2211 535.077,-9.24572"/>
</g>
<!-- Node11&#45;&gt;Node5 -->
<g id="edge18" class="edge"><title>Node11&#45;&gt;Node5</title>
<path fill="none" stroke="midnightblue" d="M771.596,-112.068C660.593,-92.9778 333.735,-36.7666 220.306,-17.2597"/>
<polygon fill="midnightblue" stroke="midnightblue" points="220.769,-13.7879 210.32,-15.5423 219.582,-20.6866 220.769,-13.7879"/>
</g>
<!-- Node11&#45;&gt;Node7 -->
<g id="edge20" class="edge"><title>Node11&#45;&gt;Node7</title>
<path fill="none" stroke="midnightblue" d="M789.256,-110.45C767.685,-101.656 732.914,-87.4802 708.19,-77.4006"/>
<polygon fill="midnightblue" stroke="midnightblue" points="709.511,-74.1596 698.93,-73.6253 706.869,-80.6416 709.511,-74.1596"/>
</g>
<!-- Node11&#45;&gt;Node9 -->
<g id="edge21" class="edge"><title>Node11&#45;&gt;Node9</title>
<path fill="none" stroke="midnightblue" d="M799.9,-128.657C778.896,-141.969 727.902,-168.44 682,-184 631.309,-201.184 571.169,-213.443 527.991,-220.687"/>
<polygon fill="midnightblue" stroke="midnightblue" points="527.25,-217.261 517.947,-222.332 528.381,-224.169 527.25,-217.261"/>
</g>
<!-- Node12 -->
<g id="node12" class="node"><title>Node12</title>
<polygon fill="white" stroke="#bfbfbf" points="769.214,-55.5 769.214,-73.5 820.786,-73.5 820.786,-55.5 769.214,-55.5"/>
<text text-anchor="middle" x="795" y="-61.5" font-family="Helvetica,sans-Serif" font-size="10.00">assert.h</text>
</g>
<!-- Node11&#45;&gt;Node12 -->
<g id="edge19" class="edge"><title>Node11&#45;&gt;Node12</title>
<path fill="none" stroke="midnightblue" d="M806.812,-110.219C804.911,-103.02 802.091,-92.3458 799.684,-83.2311"/>
<polygon fill="midnightblue" stroke="midnightblue" points="803.064,-82.324 797.126,-73.5496 796.296,-84.1118 803.064,-82.324"/>
</g>
<!-- Node13&#45;&gt;Node7 -->
<g id="edge28" class="edge"><title>Node13&#45;&gt;Node7</title>
<path fill="none" stroke="midnightblue" d="M664.115,-166.074C687.208,-159.946 710.933,-148.887 725,-129 737.05,-111.965 718.179,-92.5643 701.095,-79.7381"/>
<polygon fill="midnightblue" stroke="midnightblue" points="702.687,-76.5783 692.497,-73.6774 698.654,-82.2997 702.687,-76.5783"/>
</g>
<!-- Node13&#45;&gt;Node8 -->
<g id="edge24" class="edge"><title>Node13&#45;&gt;Node8</title>
<path fill="none" stroke="midnightblue" d="M664.272,-171.408C731.922,-167.703 831.079,-157.437 855,-129 883.772,-94.7956 832.934,-47.8719 802.83,-24.6717"/>
<polygon fill="midnightblue" stroke="midnightblue" points="804.722,-21.7163 794.618,-18.5298 800.53,-27.3219 804.722,-21.7163"/>
</g>
<!-- Node13&#45;&gt;Node10 -->
<g id="edge23" class="edge"><title>Node13&#45;&gt;Node10</title>
<path fill="none" stroke="midnightblue" d="M576.978,-165.45C552.705,-156.578 513.447,-142.229 485.829,-132.134"/>
<polygon fill="midnightblue" stroke="midnightblue" points="486.823,-128.771 476.23,-128.625 484.42,-135.346 486.823,-128.771"/>
</g>
<!-- Node13&#45;&gt;Node11 -->
<g id="edge29" class="edge"><title>Node13&#45;&gt;Node11</title>
<path fill="none" stroke="midnightblue" d="M630.894,-165.45C667.387,-156.24 727.268,-141.128 767.399,-130.999"/>
<polygon fill="midnightblue" stroke="midnightblue" points="768.311,-134.379 777.15,-128.538 766.598,-127.592 768.311,-134.379"/>
</g>
<!-- Node14 -->
<g id="node14" class="node"><title>Node14</title>
<polygon fill="white" stroke="#bfbfbf" points="652.372,-110.5 652.372,-128.5 715.628,-128.5 715.628,-110.5 652.372,-110.5"/>
<text text-anchor="middle" x="684" y="-116.5" font-family="Helvetica,sans-Serif" font-size="10.00">arpa/inet.h</text>
</g>
<!-- Node13&#45;&gt;Node14 -->
<g id="edge25" class="edge"><title>Node13&#45;&gt;Node14</title>
<path fill="none" stroke="midnightblue" d="M611.91,-165.45C625.265,-157.123 646.359,-143.97 662.286,-134.039"/>
<polygon fill="midnightblue" stroke="midnightblue" points="664.335,-136.886 670.969,-128.625 660.631,-130.946 664.335,-136.886"/>
</g>
<!-- Node15 -->
<g id="node15" class="node"><title>Node15</title>
<polygon fill="white" stroke="#bfbfbf" points="563.49,-110.5 563.49,-128.5 634.51,-128.5 634.51,-110.5 563.49,-110.5"/>
<text text-anchor="middle" x="599" y="-116.5" font-family="Helvetica,sans-Serif" font-size="10.00">sys/socket.h</text>
</g>
<!-- Node13&#45;&gt;Node15 -->
<g id="edge26" class="edge"><title>Node13&#45;&gt;Node15</title>
<path fill="none" stroke="midnightblue" d="M599,-165.219C599,-158.177 599,-147.808 599,-138.828"/>
<polygon fill="midnightblue" stroke="midnightblue" points="602.5,-138.55 599,-128.55 595.5,-138.55 602.5,-138.55"/>
</g>
<!-- Node16 -->
<g id="node16" class="node"><title>Node16</title>
<polygon fill="white" stroke="#bfbfbf" points="496.318,-110.5 496.318,-128.5 545.682,-128.5 545.682,-110.5 496.318,-110.5"/>
<text text-anchor="middle" x="521" y="-116.5" font-family="Helvetica,sans-Serif" font-size="10.00">netdb.h</text>
</g>
<!-- Node13&#45;&gt;Node16 -->
<g id="edge27" class="edge"><title>Node13&#45;&gt;Node16</title>
<path fill="none" stroke="midnightblue" d="M587.153,-165.45C575.013,-157.201 555.903,-144.216 541.337,-134.319"/>
<polygon fill="midnightblue" stroke="midnightblue" points="543.196,-131.351 532.958,-128.625 539.262,-137.14 543.196,-131.351"/>
</g>
<!-- Node17&#45;&gt;Node3 -->
<g id="edge33" class="edge"><title>Node17&#45;&gt;Node3</title>
<path fill="none" stroke="midnightblue" d="M383.092,-165.439C371.969,-157.658 356.679,-144.754 350,-129 337.163,-98.72 330.28,-81.3211 350,-55 364.295,-35.9206 428.965,-22.271 469.207,-15.4494"/>
<polygon fill="midnightblue" stroke="midnightblue" points="469.81,-18.8973 479.111,-13.8241 468.676,-11.9897 469.81,-18.8973"/>
</g>
<!-- Node17&#45;&gt;Node4 -->
<g id="edge34" class="edge"><title>Node17&#45;&gt;Node4</title>
<path fill="none" stroke="midnightblue" d="M371.699,-165.45C344.524,-156.449 300.325,-141.808 269.792,-131.693"/>
<polygon fill="midnightblue" stroke="midnightblue" points="270.598,-128.274 260.005,-128.452 268.397,-134.919 270.598,-128.274"/>
</g>
<!-- Node17&#45;&gt;Node6 -->
<g id="edge35" class="edge"><title>Node17&#45;&gt;Node6</title>
<path fill="none" stroke="midnightblue" d="M349.829,-165.45C288.972,-154.841 183.184,-136.397 127.934,-126.765"/>
<polygon fill="midnightblue" stroke="midnightblue" points="128.359,-123.286 117.907,-125.017 127.157,-130.182 128.359,-123.286"/>
</g>
<!-- Node17&#45;&gt;Node7 -->
<g id="edge41" class="edge"><title>Node17&#45;&gt;Node7</title>
<path fill="none" stroke="midnightblue" d="M396.698,-165.416C398.341,-151.717 403.726,-124.062 421,-110 452.972,-83.9727 569.178,-72.4872 634.189,-68.0036"/>
<polygon fill="midnightblue" stroke="midnightblue" points="634.8,-71.4709 644.547,-67.3185 634.338,-64.4862 634.8,-71.4709"/>
</g>
<!-- Node17&#45;&gt;Node8 -->
<g id="edge37" class="edge"><title>Node17&#45;&gt;Node8</title>
<path fill="none" stroke="midnightblue" d="M394.26,-165.355C391.932,-152.06 389.518,-125.614 403,-110 447.158,-58.8589 650.628,-27.2741 740.326,-15.6114"/>
<polygon fill="midnightblue" stroke="midnightblue" points="740.953,-19.0599 750.428,-14.3198 740.065,-12.1164 740.953,-19.0599"/>
</g>
<!-- Node17&#45;&gt;Node10 -->
<g id="edge36" class="edge"><title>Node17&#45;&gt;Node10</title>
<path fill="none" stroke="midnightblue" d="M405.062,-165.219C413.796,-157.238 427.206,-144.984 437.781,-135.321"/>
<polygon fill="midnightblue" stroke="midnightblue" points="440.17,-137.879 445.191,-128.55 435.448,-132.712 440.17,-137.879"/>
</g>
<!-- Node17&#45;&gt;Node11 -->
<g id="edge42" class="edge"><title>Node17&#45;&gt;Node11</title>
<path fill="none" stroke="midnightblue" d="M458.726,-165.45C541.916,-154.775 686.908,-136.168 761.571,-126.586"/>
<polygon fill="midnightblue" stroke="midnightblue" points="762.153,-130.041 771.626,-125.296 761.262,-123.098 762.153,-130.041"/>
</g>
<!-- Node17&#45;&gt;Node14 -->
<g id="edge38" class="edge"><title>Node17&#45;&gt;Node14</title>
<path fill="none" stroke="midnightblue" d="M443.165,-165.497C490.973,-157.282 567.329,-143.88 642.085,-129.332"/>
<polygon fill="midnightblue" stroke="midnightblue" points="642.999,-132.719 652.142,-127.365 641.656,-125.849 642.999,-132.719"/>
</g>
<!-- Node17&#45;&gt;Node15 -->
<g id="edge39" class="edge"><title>Node17&#45;&gt;Node15</title>
<path fill="none" stroke="midnightblue" d="M426.831,-165.45C461.958,-156.279 519.502,-141.256 558.292,-131.128"/>
<polygon fill="midnightblue" stroke="midnightblue" points="559.42,-134.451 568.212,-128.538 557.652,-127.678 559.42,-134.451"/>
</g>
<!-- Node17&#45;&gt;Node16 -->
<g id="edge40" class="edge"><title>Node17&#45;&gt;Node16</title>
<path fill="none" stroke="midnightblue" d="M414.985,-165.45C435.634,-156.695 468.864,-142.606 492.616,-132.535"/>
<polygon fill="midnightblue" stroke="midnightblue" points="493.996,-135.751 501.837,-128.625 491.264,-129.307 493.996,-135.751"/>
</g>
<!-- Node18&#45;&gt;Node3 -->
<g id="edge45" class="edge"><title>Node18&#45;&gt;Node3</title>
<path fill="none" stroke="midnightblue" d="M885.431,-165.286C885.77,-152.788 885.176,-128.496 877,-110 864,-80.5913 858.229,-70.3945 830,-55 779.612,-27.5216 608.168,-15.832 535.254,-12.0214"/>
<polygon fill="midnightblue" stroke="midnightblue" points="534.998,-8.50409 524.834,-11.4958 534.645,-15.4952 534.998,-8.50409"/>
</g>
<!-- Node18&#45;&gt;Node7 -->
<g id="edge50" class="edge"><title>Node18&#45;&gt;Node7</title>
<path fill="none" stroke="midnightblue" d="M883.425,-165.085C880.413,-151.402 872.512,-124.41 855,-110 835.033,-93.5693 768.353,-79.9192 723.047,-72.2356"/>
<polygon fill="midnightblue" stroke="midnightblue" points="723.602,-68.7798 713.164,-70.596 722.457,-75.6855 723.602,-68.7798"/>
</g>
<!-- Node18&#45;&gt;Node8 -->
<g id="edge48" class="edge"><title>Node18&#45;&gt;Node8</title>
<path fill="none" stroke="midnightblue" d="M934.702,-171.861C994.756,-167.923 1084.12,-154.633 1053,-110 1001.41,-36.0096 888.285,-16.8939 826.087,-12.0531"/>
<polygon fill="midnightblue" stroke="midnightblue" points="826.042,-8.54184 815.826,-11.3484 825.562,-15.5254 826.042,-8.54184"/>
</g>
<!-- Node18&#45;&gt;Node11 -->
<g id="edge51" class="edge"><title>Node18&#45;&gt;Node11</title>
<path fill="none" stroke="midnightblue" d="M873.457,-165.45C861.739,-157.279 843.358,-144.46 829.218,-134.6"/>
<polygon fill="midnightblue" stroke="midnightblue" points="830.856,-131.475 820.651,-128.625 826.852,-137.216 830.856,-131.475"/>
</g>
<!-- Node18&#45;&gt;Node14 -->
<g id="edge49" class="edge"><title>Node18&#45;&gt;Node14</title>
<path fill="none" stroke="midnightblue" d="M854.472,-165.45C819.692,-156.279 762.714,-141.256 724.307,-131.128"/>
<polygon fill="midnightblue" stroke="midnightblue" points="725.047,-127.704 714.485,-128.538 723.262,-134.472 725.047,-127.704"/>
</g>
<!-- Node18&#45;&gt;Node15 -->
<g id="edge47" class="edge"><title>Node18&#45;&gt;Node15</title>
<path fill="none" stroke="midnightblue" d="M840.818,-165.499C794.372,-157.06 718.892,-143.268 644.541,-129.278"/>
<polygon fill="midnightblue" stroke="midnightblue" points="645.011,-125.805 634.536,-127.393 643.715,-132.684 645.011,-125.805"/>
</g>
<!-- Node19 -->
<g id="node19" class="node"><title>Node19</title>
<polygon fill="white" stroke="#bfbfbf" points="977.99,-110.5 977.99,-128.5 1044.01,-128.5 1044.01,-110.5 977.99,-110.5"/>
<text text-anchor="middle" x="1011" y="-116.5" font-family="Helvetica,sans-Serif" font-size="10.00">sys/types.h</text>
</g>
<!-- Node18&#45;&gt;Node19 -->
<g id="edge46" class="edge"><title>Node18&#45;&gt;Node19</title>
<path fill="none" stroke="midnightblue" d="M904.137,-165.45C924.951,-156.695 958.447,-142.606 982.389,-132.535"/>
<polygon fill="midnightblue" stroke="midnightblue" points="983.823,-135.729 991.683,-128.625 981.108,-129.276 983.823,-135.729"/>
</g>
</g>
</svg>
