<?xml version="1.0" encoding="UTF-8" standalone="no"?>
<!DOCTYPE svg PUBLIC "-//W3C//DTD SVG 1.1//EN"
 "http://www.w3.org/Graphics/SVG/1.1/DTD/svg11.dtd">
<!-- Generated by graphviz version 2.38.0 (20140413.2041)
 -->
<!-- Title: SA_treatRouteMessage Pages: 1 -->
<svg width="283pt" height="101pt"
 viewBox="0.00 0.00 283.35 101.00" xmlns="http://www.w3.org/2000/svg" xmlns:xlink="http://www.w3.org/1999/xlink">
<g id="graph0" class="graph" transform="scale(1 1) rotate(0) translate(4 97)">
<title>SA_treatRouteMessage</title>
<polygon fill="white" stroke="none" points="-4,4 -4,-97 279.349,-97 279.349,4 -4,4"/>
<!-- Node1 -->
<g id="node1" class="node"><title>Node1</title>
<polygon fill="#bfbfbf" stroke="black" points="0,-37.5 0,-55.5 122.172,-55.5 122.172,-37.5 0,-37.5"/>
<text text-anchor="middle" x="61.0859" y="-43.5" font-family="Helvetica,sans-Serif" font-size="10.00">SA_treatRouteMessage</text>
</g>
<!-- Node2 -->
<g id="node2" class="node"><title>Node2</title>
<g id="a_node2"><a xlink:href="station_actions_8c.html#a78fa797ba2873bacdac3f25506fdca3b" target="_top" xlink:title="Search a vehicle by ID. ">
<polygon fill="white" stroke="black" points="158.172,-74.5 158.172,-92.5 275.349,-92.5 275.349,-74.5 158.172,-74.5"/>
<text text-anchor="middle" x="216.76" y="-80.5" font-family="Helvetica,sans-Serif" font-size="10.00">SA_searchVehicleById</text>
</a>
</g>
</g>
<!-- Node1&#45;&gt;Node2 -->
<g id="edge1" class="edge"><title>Node1&#45;&gt;Node2</title>
<path fill="none" stroke="midnightblue" d="M99.6789,-55.5512C120.407,-60.5419 146.344,-66.7866 168.44,-72.1067"/>
<polygon fill="midnightblue" stroke="midnightblue" points="167.748,-75.5401 178.289,-74.4782 169.387,-68.7345 167.748,-75.5401"/>
</g>
<!-- Node3 -->
<g id="node3" class="node"><title>Node3</title>
<g id="a_node3"><a xlink:href="message_parser_8c.html#a0026bd717404e4c2f9df87d137721377" target="_top" xlink:title="Message structure initializer. ">
<polygon fill="white" stroke="black" points="170.972,-37.5 170.972,-55.5 262.548,-55.5 262.548,-37.5 170.972,-37.5"/>
<text text-anchor="middle" x="216.76" y="-43.5" font-family="Helvetica,sans-Serif" font-size="10.00">MP_initMsgStruc</text>
</a>
</g>
</g>
<!-- Node1&#45;&gt;Node3 -->
<g id="edge2" class="edge"><title>Node1&#45;&gt;Node3</title>
<path fill="none" stroke="midnightblue" d="M122.381,-46.5C134.994,-46.5 148.232,-46.5 160.645,-46.5"/>
<polygon fill="midnightblue" stroke="midnightblue" points="160.846,-50.0001 170.846,-46.5 160.846,-43.0001 160.846,-50.0001"/>
</g>
<!-- Node4 -->
<g id="node4" class="node"><title>Node4</title>
<g id="a_node4"><a xlink:href="msg_buffers_8c.html#a94d8920e20c5150892cf23b81eb1dfd6" target="_top" xlink:title="Put a message into the buffer. ">
<polygon fill="white" stroke="black" points="171.241,-0.5 171.241,-18.5 262.28,-18.5 262.28,-0.5 171.241,-0.5"/>
<text text-anchor="middle" x="216.76" y="-6.5" font-family="Helvetica,sans-Serif" font-size="10.00">MB_putMessage</text>
</a>
</g>
</g>
<!-- Node1&#45;&gt;Node4 -->
<g id="edge3" class="edge"><title>Node1&#45;&gt;Node4</title>
<path fill="none" stroke="midnightblue" d="M99.6789,-37.4488C120.407,-32.4581 146.344,-26.2134 168.44,-20.8933"/>
<polygon fill="midnightblue" stroke="midnightblue" points="169.387,-24.2655 178.289,-18.5218 167.748,-17.4599 169.387,-24.2655"/>
</g>
</g>
</svg>
