<?xml version="1.0" encoding="UTF-8" standalone="no"?>
<!DOCTYPE svg PUBLIC "-//W3C//DTD SVG 1.1//EN"
 "http://www.w3.org/Graphics/SVG/1.1/DTD/svg11.dtd">
<!-- Generated by graphviz version 2.38.0 (20140413.2041)
 -->
<!-- Title: SA_treatRouteMessage Pages: 1 -->
<svg width="590pt" height="27pt"
 viewBox="0.00 0.00 590.50 27.00" xmlns="http://www.w3.org/2000/svg" xmlns:xlink="http://www.w3.org/1999/xlink">
<g id="graph0" class="graph" transform="scale(1 1) rotate(0) translate(4 23)">
<title>SA_treatRouteMessage</title>
<polygon fill="white" stroke="none" points="-4,4 -4,-23 586.496,-23 586.496,4 -4,4"/>
<!-- Node1 -->
<g id="node1" class="node"><title>Node1</title>
<polygon fill="#bfbfbf" stroke="black" points="0,-0.5 0,-18.5 122.172,-18.5 122.172,-0.5 0,-0.5"/>
<text text-anchor="middle" x="61.0859" y="-6.5" font-family="Helvetica,sans-Serif" font-size="10.00">SA_treatRouteMessage</text>
</g>
<!-- Node2 -->
<g id="node2" class="node"><title>Node2</title>
<g id="a_node2"><a xlink:href="message_parser_8h.html#a37ec21f46c51967253a4e2da9ab6f063" target="_top" xlink:title="Message parser main function. ">
<polygon fill="white" stroke="black" points="158.172,-0.5 158.172,-18.5 260.324,-18.5 260.324,-0.5 158.172,-0.5"/>
<text text-anchor="middle" x="209.248" y="-6.5" font-family="Helvetica,sans-Serif" font-size="10.00">MP_parseMessage</text>
</a>
</g>
</g>
<!-- Node1&#45;&gt;Node2 -->
<g id="edge1" class="edge"><title>Node1&#45;&gt;Node2</title>
<path fill="none" stroke="midnightblue" d="M132.412,-9.5C141.003,-9.5 149.644,-9.5 157.861,-9.5"/>
<polygon fill="midnightblue" stroke="midnightblue" points="132.38,-6.0001 122.38,-9.5 132.379,-13.0001 132.38,-6.0001"/>
</g>
<!-- Node3 -->
<g id="node3" class="node"><title>Node3</title>
<g id="a_node3"><a xlink:href="message_parser_8h.html#a995d4c39c3939fa306e45d06589bf8c0" target="_top" xlink:title="Thread function for the parser thread. ">
<polygon fill="white" stroke="black" points="296.324,-0.5 296.324,-18.5 394.023,-18.5 394.023,-0.5 296.324,-0.5"/>
<text text-anchor="middle" x="345.174" y="-6.5" font-family="Helvetica,sans-Serif" font-size="10.00">MP_ParserThread</text>
</a>
</g>
</g>
<!-- Node2&#45;&gt;Node3 -->
<g id="edge2" class="edge"><title>Node2&#45;&gt;Node3</title>
<path fill="none" stroke="midnightblue" d="M270.531,-9.5C279.167,-9.5 287.951,-9.5 296.304,-9.5"/>
<polygon fill="midnightblue" stroke="midnightblue" points="270.498,-6.0001 260.498,-9.5 270.498,-13.0001 270.498,-6.0001"/>
</g>
<!-- Node4 -->
<g id="node4" class="node"><title>Node4</title>
<g id="a_node4"><a xlink:href="message_parser_8h.html#a0a5ee1ec225573ebc80059d6bce9e0d6" target="_top" xlink:title="Parser thread initializer. ">
<polygon fill="white" stroke="black" points="430.023,-0.5 430.023,-18.5 508.821,-18.5 508.821,-0.5 430.023,-0.5"/>
<text text-anchor="middle" x="469.422" y="-6.5" font-family="Helvetica,sans-Serif" font-size="10.00">MP_initParser</text>
</a>
</g>
</g>
<!-- Node3&#45;&gt;Node4 -->
<g id="edge3" class="edge"><title>Node3&#45;&gt;Node4</title>
<path fill="none" stroke="midnightblue" d="M404.193,-9.5C412.826,-9.5 421.541,-9.5 429.648,-9.5"/>
<polygon fill="midnightblue" stroke="midnightblue" points="404.139,-6.0001 394.139,-9.5 404.139,-13.0001 404.139,-6.0001"/>
</g>
<!-- Node5 -->
<g id="node5" class="node"><title>Node5</title>
<g id="a_node5"><a xlink:href="main_8c.html#ac0f2228420376f4db7e1274f2b41667c" target="_top" xlink:title="main">
<polygon fill="white" stroke="black" points="544.821,-0.5 544.821,-18.5 582.496,-18.5 582.496,-0.5 544.821,-0.5"/>
<text text-anchor="middle" x="563.659" y="-6.5" font-family="Helvetica,sans-Serif" font-size="10.00">main</text>
</a>
</g>
</g>
<!-- Node4&#45;&gt;Node5 -->
<g id="edge4" class="edge"><title>Node4&#45;&gt;Node5</title>
<path fill="none" stroke="midnightblue" d="M519.137,-9.5C528.127,-9.5 536.986,-9.5 544.339,-9.5"/>
<polygon fill="midnightblue" stroke="midnightblue" points="519.004,-6.0001 509.004,-9.5 519.004,-13.0001 519.004,-6.0001"/>
</g>
</g>
</svg>
