<?xml version="1.0" encoding="UTF-8" standalone="no"?>
<!DOCTYPE svg PUBLIC "-//W3C//DTD SVG 1.1//EN"
 "http://www.w3.org/Graphics/SVG/1.1/DTD/svg11.dtd">
<!-- Generated by graphviz version 2.38.0 (20140413.2041)
 -->
<!-- Title: SA_searchVehicleById Pages: 1 -->
<svg width="744pt" height="78pt"
 viewBox="0.00 0.00 743.67 77.80" xmlns="http://www.w3.org/2000/svg" xmlns:xlink="http://www.w3.org/1999/xlink">
<g id="graph0" class="graph" transform="scale(1 1) rotate(0) translate(4 73.8005)">
<title>SA_searchVehicleById</title>
<polygon fill="white" stroke="none" points="-4,4 -4,-73.8005 739.673,-73.8005 739.673,4 -4,4"/>
<!-- Node1 -->
<g id="node1" class="node"><title>Node1</title>
<polygon fill="#bfbfbf" stroke="black" points="0,-37.5 0,-55.5 117.177,-55.5 117.177,-37.5 0,-37.5"/>
<text text-anchor="middle" x="58.5884" y="-43.5" font-family="Helvetica,sans-Serif" font-size="10.00">SA_searchVehicleById</text>
</g>
<!-- Node2 -->
<g id="node2" class="node"><title>Node2</title>
<g id="a_node2"><a xlink:href="message_parser_8h.html#a37ec21f46c51967253a4e2da9ab6f063" target="_top" xlink:title="Message parser main function. ">
<polygon fill="white" stroke="black" points="311.349,-37.5 311.349,-55.5 413.501,-55.5 413.501,-37.5 311.349,-37.5"/>
<text text-anchor="middle" x="362.425" y="-43.5" font-family="Helvetica,sans-Serif" font-size="10.00">MP_parseMessage</text>
</a>
</g>
</g>
<!-- Node1&#45;&gt;Node2 -->
<g id="edge1" class="edge"><title>Node1&#45;&gt;Node2</title>
<path fill="none" stroke="midnightblue" d="M105.453,-57.7176C120.555,-60.8988 137.495,-63.9242 153.177,-65.5 207.203,-70.9288 221.37,-71.3866 275.349,-65.5 293.148,-63.5589 312.657,-59.4234 328.595,-55.5048"/>
<polygon fill="midnightblue" stroke="midnightblue" points="105.846,-54.2211 95.3293,-55.5063 104.352,-61.0598 105.846,-54.2211"/>
</g>
<!-- Node6 -->
<g id="node6" class="node"><title>Node6</title>
<g id="a_node6"><a xlink:href="station_actions_8h.html#a5e1c0855b4fc05bdfb48c63ee97d728e" target="_top" xlink:title="Function to treat the route messages sent by the server. ">
<polygon fill="white" stroke="black" points="153.177,-37.5 153.177,-55.5 275.349,-55.5 275.349,-37.5 153.177,-37.5"/>
<text text-anchor="middle" x="214.263" y="-43.5" font-family="Helvetica,sans-Serif" font-size="10.00">SA_treatRouteMessage</text>
</a>
</g>
</g>
<!-- Node1&#45;&gt;Node6 -->
<g id="edge5" class="edge"><title>Node1&#45;&gt;Node6</title>
<path fill="none" stroke="midnightblue" d="M127.496,-46.5C135.981,-46.5 144.613,-46.5 152.97,-46.5"/>
<polygon fill="midnightblue" stroke="midnightblue" points="127.248,-43.0001 117.248,-46.5 127.248,-50.0001 127.248,-43.0001"/>
</g>
<!-- Node7 -->
<g id="node7" class="node"><title>Node7</title>
<g id="a_node7"><a xlink:href="station_actions_8h.html#afbf777498692d2ce2582ab9228b11063" target="_top" xlink:title="Send the Join multicast group message to the vehicle. ">
<polygon fill="white" stroke="black" points="156.509,-0.5 156.509,-18.5 272.016,-18.5 272.016,-0.5 156.509,-0.5"/>
<text text-anchor="middle" x="214.263" y="-6.5" font-family="Helvetica,sans-Serif" font-size="10.00">SA_sendJoinMessage</text>
</a>
</g>
</g>
<!-- Node1&#45;&gt;Node7 -->
<g id="edge7" class="edge"><title>Node1&#45;&gt;Node7</title>
<path fill="none" stroke="midnightblue" d="M107.039,-35.0753C129.15,-29.7516 155.084,-23.5076 175.792,-18.5218"/>
<polygon fill="midnightblue" stroke="midnightblue" points="106.084,-31.7051 97.1813,-37.4488 107.723,-38.5107 106.084,-31.7051"/>
</g>
<!-- Node3 -->
<g id="node3" class="node"><title>Node3</title>
<g id="a_node3"><a xlink:href="message_parser_8h.html#a995d4c39c3939fa306e45d06589bf8c0" target="_top" xlink:title="Thread function for the parser thread. ">
<polygon fill="white" stroke="black" points="449.501,-37.5 449.501,-55.5 547.2,-55.5 547.2,-37.5 449.501,-37.5"/>
<text text-anchor="middle" x="498.351" y="-43.5" font-family="Helvetica,sans-Serif" font-size="10.00">MP_ParserThread</text>
</a>
</g>
</g>
<!-- Node2&#45;&gt;Node3 -->
<g id="edge2" class="edge"><title>Node2&#45;&gt;Node3</title>
<path fill="none" stroke="midnightblue" d="M423.708,-46.5C432.343,-46.5 441.128,-46.5 449.48,-46.5"/>
<polygon fill="midnightblue" stroke="midnightblue" points="423.675,-43.0001 413.675,-46.5 423.675,-50.0001 423.675,-43.0001"/>
</g>
<!-- Node4 -->
<g id="node4" class="node"><title>Node4</title>
<g id="a_node4"><a xlink:href="message_parser_8h.html#a0a5ee1ec225573ebc80059d6bce9e0d6" target="_top" xlink:title="Parser thread initializer. ">
<polygon fill="white" stroke="black" points="583.2,-37.5 583.2,-55.5 661.998,-55.5 661.998,-37.5 583.2,-37.5"/>
<text text-anchor="middle" x="622.599" y="-43.5" font-family="Helvetica,sans-Serif" font-size="10.00">MP_initParser</text>
</a>
</g>
</g>
<!-- Node3&#45;&gt;Node4 -->
<g id="edge3" class="edge"><title>Node3&#45;&gt;Node4</title>
<path fill="none" stroke="midnightblue" d="M557.37,-46.5C566.002,-46.5 574.718,-46.5 582.824,-46.5"/>
<polygon fill="midnightblue" stroke="midnightblue" points="557.316,-43.0001 547.316,-46.5 557.316,-50.0001 557.316,-43.0001"/>
</g>
<!-- Node5 -->
<g id="node5" class="node"><title>Node5</title>
<g id="a_node5"><a xlink:href="main_8c.html#ac0f2228420376f4db7e1274f2b41667c" target="_top" xlink:title="main">
<polygon fill="white" stroke="black" points="697.998,-37.5 697.998,-55.5 735.673,-55.5 735.673,-37.5 697.998,-37.5"/>
<text text-anchor="middle" x="716.835" y="-43.5" font-family="Helvetica,sans-Serif" font-size="10.00">main</text>
</a>
</g>
</g>
<!-- Node4&#45;&gt;Node5 -->
<g id="edge4" class="edge"><title>Node4&#45;&gt;Node5</title>
<path fill="none" stroke="midnightblue" d="M672.314,-46.5C681.304,-46.5 690.162,-46.5 697.516,-46.5"/>
<polygon fill="midnightblue" stroke="midnightblue" points="672.181,-43.0001 662.181,-46.5 672.181,-50.0001 672.181,-43.0001"/>
</g>
<!-- Node6&#45;&gt;Node2 -->
<g id="edge6" class="edge"><title>Node6&#45;&gt;Node2</title>
<path fill="none" stroke="midnightblue" d="M285.589,-46.5C294.18,-46.5 302.821,-46.5 311.038,-46.5"/>
<polygon fill="midnightblue" stroke="midnightblue" points="285.556,-43.0001 275.556,-46.5 285.556,-50.0001 285.556,-43.0001"/>
</g>
<!-- Node7&#45;&gt;Node2 -->
<g id="edge8" class="edge"><title>Node7&#45;&gt;Node2</title>
<path fill="none" stroke="midnightblue" d="M260.963,-21.0688C281.868,-26.3608 306.268,-32.5373 325.786,-37.4782"/>
<polygon fill="midnightblue" stroke="midnightblue" points="261.571,-17.6123 251.018,-18.5512 259.853,-24.3983 261.571,-17.6123"/>
</g>
</g>
</svg>
