<?xml version="1.0" encoding="UTF-8" standalone="no"?>
<!DOCTYPE svg PUBLIC "-//W3C//DTD SVG 1.1//EN"
 "http://www.w3.org/Graphics/SVG/1.1/DTD/svg11.dtd">
<!-- Generated by graphviz version 2.38.0 (20140413.2041)
 -->
<!-- Title: SA_treatStatusMessage Pages: 1 -->
<svg width="592pt" height="27pt"
 viewBox="0.00 0.00 592.16 27.00" xmlns="http://www.w3.org/2000/svg" xmlns:xlink="http://www.w3.org/1999/xlink">
<g id="graph0" class="graph" transform="scale(1 1) rotate(0) translate(4 23)">
<title>SA_treatStatusMessage</title>
<polygon fill="white" stroke="none" points="-4,4 -4,-23 588.161,-23 588.161,4 -4,4"/>
<!-- Node1 -->
<g id="node1" class="node"><title>Node1</title>
<polygon fill="#bfbfbf" stroke="black" points="0,-0.5 0,-18.5 123.837,-18.5 123.837,-0.5 0,-0.5"/>
<text text-anchor="middle" x="61.9185" y="-6.5" font-family="Helvetica,sans-Serif" font-size="10.00">SA_treatStatusMessage</text>
</g>
<!-- Node2 -->
<g id="node2" class="node"><title>Node2</title>
<g id="a_node2"><a xlink:href="message_parser_8h.html#a37ec21f46c51967253a4e2da9ab6f063" target="_top" xlink:title="Message parser main function. ">
<polygon fill="white" stroke="black" points="159.837,-0.5 159.837,-18.5 261.989,-18.5 261.989,-0.5 159.837,-0.5"/>
<text text-anchor="middle" x="210.913" y="-6.5" font-family="Helvetica,sans-Serif" font-size="10.00">MP_parseMessage</text>
</a>
</g>
</g>
<!-- Node1&#45;&gt;Node2 -->
<g id="edge1" class="edge"><title>Node1&#45;&gt;Node2</title>
<path fill="none" stroke="midnightblue" d="M134.04,-9.5C142.651,-9.5 151.306,-9.5 159.53,-9.5"/>
<polygon fill="midnightblue" stroke="midnightblue" points="133.98,-6.0001 123.98,-9.5 133.98,-13.0001 133.98,-6.0001"/>
</g>
<!-- Node3 -->
<g id="node3" class="node"><title>Node3</title>
<g id="a_node3"><a xlink:href="message_parser_8h.html#a995d4c39c3939fa306e45d06589bf8c0" target="_top" xlink:title="Thread function for the parser thread. ">
<polygon fill="white" stroke="black" points="297.989,-0.5 297.989,-18.5 395.688,-18.5 395.688,-0.5 297.989,-0.5"/>
<text text-anchor="middle" x="346.839" y="-6.5" font-family="Helvetica,sans-Serif" font-size="10.00">MP_ParserThread</text>
</a>
</g>
</g>
<!-- Node2&#45;&gt;Node3 -->
<g id="edge2" class="edge"><title>Node2&#45;&gt;Node3</title>
<path fill="none" stroke="midnightblue" d="M272.196,-9.5C280.832,-9.5 289.616,-9.5 297.969,-9.5"/>
<polygon fill="midnightblue" stroke="midnightblue" points="272.163,-6.0001 262.163,-9.5 272.163,-13.0001 272.163,-6.0001"/>
</g>
<!-- Node4 -->
<g id="node4" class="node"><title>Node4</title>
<g id="a_node4"><a xlink:href="message_parser_8h.html#a0a5ee1ec225573ebc80059d6bce9e0d6" target="_top" xlink:title="Parser thread initializer. ">
<polygon fill="white" stroke="black" points="431.688,-0.5 431.688,-18.5 510.486,-18.5 510.486,-0.5 431.688,-0.5"/>
<text text-anchor="middle" x="471.087" y="-6.5" font-family="Helvetica,sans-Serif" font-size="10.00">MP_initParser</text>
</a>
</g>
</g>
<!-- Node3&#45;&gt;Node4 -->
<g id="edge3" class="edge"><title>Node3&#45;&gt;Node4</title>
<path fill="none" stroke="midnightblue" d="M405.858,-9.5C414.491,-9.5 423.206,-9.5 431.313,-9.5"/>
<polygon fill="midnightblue" stroke="midnightblue" points="405.804,-6.0001 395.804,-9.5 405.804,-13.0001 405.804,-6.0001"/>
</g>
<!-- Node5 -->
<g id="node5" class="node"><title>Node5</title>
<g id="a_node5"><a xlink:href="main_8c.html#ac0f2228420376f4db7e1274f2b41667c" target="_top" xlink:title="main">
<polygon fill="white" stroke="black" points="546.486,-0.5 546.486,-18.5 584.161,-18.5 584.161,-0.5 546.486,-0.5"/>
<text text-anchor="middle" x="565.324" y="-6.5" font-family="Helvetica,sans-Serif" font-size="10.00">main</text>
</a>
</g>
</g>
<!-- Node4&#45;&gt;Node5 -->
<g id="edge4" class="edge"><title>Node4&#45;&gt;Node5</title>
<path fill="none" stroke="midnightblue" d="M520.802,-9.5C529.793,-9.5 538.651,-9.5 546.004,-9.5"/>
<polygon fill="midnightblue" stroke="midnightblue" points="520.67,-6.0001 510.669,-9.5 520.669,-13.0001 520.67,-6.0001"/>
</g>
</g>
</svg>
