<?xml version="1.0" encoding="UTF-8" standalone="no"?>
<!DOCTYPE svg PUBLIC "-//W3C//DTD SVG 1.1//EN"
 "http://www.w3.org/Graphics/SVG/1.1/DTD/svg11.dtd">
<!-- Generated by graphviz version 2.38.0 (20140413.2041)
 -->
<!-- Title: rasPi&#45;EmergencyStation/stationActions.h Pages: 1 -->
<svg width="642pt" height="427pt"
 viewBox="0.00 0.00 641.91 427.00" xmlns="http://www.w3.org/2000/svg" xmlns:xlink="http://www.w3.org/1999/xlink">
<g id="graph0" class="graph" transform="scale(1 1) rotate(0) translate(4 423)">
<title>rasPi&#45;EmergencyStation/stationActions.h</title>
<polygon fill="white" stroke="none" points="-4,4 -4,-423 637.911,-423 637.911,4 -4,4"/>
<!-- Node1 -->
<g id="node1" class="node"><title>Node1</title>
<polygon fill="#bfbfbf" stroke="black" points="201.089,-390.5 201.089,-418.5 324.911,-418.5 324.911,-390.5 201.089,-390.5"/>
<text text-anchor="start" x="209.089" y="-406.5" font-family="Helvetica,sans-Serif" font-size="10.00">rasPi&#45;EmergencyStation</text>
<text text-anchor="middle" x="263" y="-396.5" font-family="Helvetica,sans-Serif" font-size="10.00">/stationActions.h</text>
</g>
<!-- Node2 -->
<g id="node2" class="node"><title>Node2</title>
<g id="a_node2"><a xlink:href="tcp_vehicle_socket_comm_8h.html" target="_top" xlink:title="Vehicle connection server&#39;s headers. ">
<polygon fill="white" stroke="black" points="196.638,-325.5 196.638,-353.5 329.362,-353.5 329.362,-325.5 196.638,-325.5"/>
<text text-anchor="start" x="204.638" y="-341.5" font-family="Helvetica,sans-Serif" font-size="10.00">rasPi&#45;EmergencyStation</text>
<text text-anchor="middle" x="263" y="-331.5" font-family="Helvetica,sans-Serif" font-size="10.00">/tcpVehicleSocketComm.h</text>
</a>
</g>
</g>
<!-- Node1&#45;&gt;Node2 -->
<g id="edge1" class="edge"><title>Node1&#45;&gt;Node2</title>
<path fill="none" stroke="midnightblue" d="M256.471,-380.46C255.986,-371.388 256.299,-361.305 257.41,-353.537"/>
<polygon fill="midnightblue" stroke="midnightblue" points="252.989,-380.817 257.407,-390.446 259.959,-380.163 252.989,-380.817"/>
</g>
<!-- Node3 -->
<g id="node3" class="node"><title>Node3</title>
<g id="a_node3"><a xlink:href="message_parser_8h.html" target="_top" xlink:title="Message parser function headers. ">
<polygon fill="white" stroke="black" points="66.0889,-260.5 66.0889,-288.5 189.911,-288.5 189.911,-260.5 66.0889,-260.5"/>
<text text-anchor="start" x="74.0889" y="-276.5" font-family="Helvetica,sans-Serif" font-size="10.00">rasPi&#45;EmergencyStation</text>
<text text-anchor="middle" x="128" y="-266.5" font-family="Helvetica,sans-Serif" font-size="10.00">/messageParser.h</text>
</a>
</g>
</g>
<!-- Node1&#45;&gt;Node3 -->
<g id="edge25" class="edge"><title>Node1&#45;&gt;Node3</title>
<path fill="none" stroke="midnightblue" d="M222.306,-385.402C207.67,-376.845 191.753,-365.899 179,-354 157.303,-333.755 137.53,-305.023 129.767,-288.52"/>
<polygon fill="midnightblue" stroke="midnightblue" points="220.781,-388.56 231.214,-390.408 224.211,-382.458 220.781,-388.56"/>
</g>
<!-- Node4 -->
<g id="node4" class="node"><title>Node4</title>
<g id="a_node4"><a xlink:href="main_8h.html" target="_top" xlink:title="Main file&#39;s headers of the emergency station application. ">
<polygon fill="white" stroke="black" points="14.0889,-65.5 14.0889,-93.5 137.911,-93.5 137.911,-65.5 14.0889,-65.5"/>
<text text-anchor="start" x="22.0889" y="-81.5" font-family="Helvetica,sans-Serif" font-size="10.00">rasPi&#45;EmergencyStation</text>
<text text-anchor="middle" x="76" y="-71.5" font-family="Helvetica,sans-Serif" font-size="10.00">/main.h</text>
</a>
</g>
</g>
<!-- Node1&#45;&gt;Node4 -->
<g id="edge26" class="edge"><title>Node1&#45;&gt;Node4</title>
<path fill="none" stroke="midnightblue" d="M190.744,-398.718C112.887,-389.181 0,-360.669 0,-275.5 0,-275.5 0,-275.5 0,-208.5 0,-160.688 39.6896,-115.134 61.705,-93.5429"/>
<polygon fill="midnightblue" stroke="midnightblue" points="190.673,-402.232 201.006,-399.891 191.468,-395.278 190.673,-402.232"/>
</g>
<!-- Node14 -->
<g id="node14" class="node"><title>Node14</title>
<g id="a_node14"><a xlink:href="station_actions_8c.html" target="_top" xlink:title="FIle containing all the station action definitions. ">
<polygon fill="white" stroke="black" points="510.089,-325.5 510.089,-353.5 633.911,-353.5 633.911,-325.5 510.089,-325.5"/>
<text text-anchor="start" x="518.089" y="-341.5" font-family="Helvetica,sans-Serif" font-size="10.00">rasPi&#45;EmergencyStation</text>
<text text-anchor="middle" x="572" y="-331.5" font-family="Helvetica,sans-Serif" font-size="10.00">/stationActions.c</text>
</a>
</g>
</g>
<!-- Node1&#45;&gt;Node14 -->
<g id="edge27" class="edge"><title>Node1&#45;&gt;Node14</title>
<path fill="none" stroke="midnightblue" d="M335.171,-388.785C388.186,-377.977 459.47,-363.443 509.94,-353.153"/>
<polygon fill="midnightblue" stroke="midnightblue" points="334.258,-385.4 325.159,-390.827 335.657,-392.258 334.258,-385.4"/>
</g>
<!-- Node2&#45;&gt;Node1 -->
<g id="edge22" class="edge"><title>Node2&#45;&gt;Node1</title>
<path fill="none" stroke="midnightblue" d="M269.528,-363.52C270.014,-372.591 269.702,-382.675 268.593,-390.446"/>
<polygon fill="midnightblue" stroke="midnightblue" points="273.01,-363.166 268.59,-353.537 266.041,-363.82 273.01,-363.166"/>
</g>
<!-- Node2&#45;&gt;Node3 -->
<g id="edge2" class="edge"><title>Node2&#45;&gt;Node3</title>
<path fill="none" stroke="midnightblue" d="M220.137,-321.337C196.951,-310.997 169.343,-298.036 150.346,-288.537"/>
<polygon fill="midnightblue" stroke="midnightblue" points="218.874,-324.605 229.435,-325.446 221.703,-318.203 218.874,-324.605"/>
</g>
<!-- Node2&#45;&gt;Node4 -->
<g id="edge23" class="edge"><title>Node2&#45;&gt;Node4</title>
<path fill="none" stroke="midnightblue" d="M186.226,-329.964C134.603,-322.46 73.1425,-309.481 57,-289 10.3127,-229.765 51.7926,-129.574 69.1854,-93.7369"/>
<polygon fill="midnightblue" stroke="midnightblue" points="186.014,-333.468 196.404,-331.392 186.987,-326.536 186.014,-333.468"/>
</g>
<!-- Node13 -->
<g id="node13" class="node"><title>Node13</title>
<g id="a_node13"><a xlink:href="tcp_vehicle_socket_comm_8c.html" target="_top" xlink:title="Vehicle connection server related function definitions. ">
<polygon fill="white" stroke="black" points="207.919,-260.5 207.919,-288.5 340.081,-288.5 340.081,-260.5 207.919,-260.5"/>
<text text-anchor="start" x="215.919" y="-276.5" font-family="Helvetica,sans-Serif" font-size="10.00">rasPi&#45;EmergencyStation</text>
<text text-anchor="middle" x="274" y="-266.5" font-family="Helvetica,sans-Serif" font-size="10.00">/tcpVehicleSocketComm.c</text>
</a>
</g>
</g>
<!-- Node2&#45;&gt;Node13 -->
<g id="edge24" class="edge"><title>Node2&#45;&gt;Node13</title>
<path fill="none" stroke="midnightblue" d="M267.023,-315.46C268.607,-306.388 270.367,-296.305 271.724,-288.537"/>
<polygon fill="midnightblue" stroke="midnightblue" points="263.551,-314.993 265.279,-325.446 270.447,-316.197 263.551,-314.993"/>
</g>
<!-- Node3&#45;&gt;Node1 -->
<g id="edge19" class="edge"><title>Node3&#45;&gt;Node1</title>
<path fill="none" stroke="midnightblue" d="M148.554,-296.61C161.442,-313.366 178.523,-336.76 197,-354 212.399,-368.368 232.414,-381.348 246.574,-390.408"/>
<polygon fill="midnightblue" stroke="midnightblue" points="151.136,-294.23 142.212,-288.52 145.627,-298.549 151.136,-294.23"/>
</g>
<!-- Node3&#45;&gt;Node2 -->
<g id="edge18" class="edge"><title>Node3&#45;&gt;Node2</title>
<path fill="none" stroke="midnightblue" d="M170.822,-292.644C194.003,-302.982 221.614,-315.943 240.621,-325.446"/>
<polygon fill="midnightblue" stroke="midnightblue" points="172.088,-289.377 161.527,-288.537 169.259,-295.78 172.088,-289.377"/>
</g>
<!-- Node3&#45;&gt;Node4 -->
<g id="edge3" class="edge"><title>Node3&#45;&gt;Node4</title>
<path fill="none" stroke="midnightblue" d="M110.642,-252.12C104.751,-243.803 98.7248,-233.901 95,-224 77.8336,-178.369 75.7737,-119.488 75.7828,-93.6444"/>
<polygon fill="midnightblue" stroke="midnightblue" points="107.844,-254.224 116.628,-260.148 113.456,-250.039 107.844,-254.224"/>
</g>
<!-- Node6 -->
<g id="node6" class="node"><title>Node6</title>
<g id="a_node6"><a xlink:href="msg_buffers_8h.html" target="_top" xlink:title="File containing the headers of all functions related to the message mailboxes. ">
<polygon fill="white" stroke="black" points="286.089,-195.5 286.089,-223.5 409.911,-223.5 409.911,-195.5 286.089,-195.5"/>
<text text-anchor="start" x="294.089" y="-211.5" font-family="Helvetica,sans-Serif" font-size="10.00">rasPi&#45;EmergencyStation</text>
<text text-anchor="middle" x="348" y="-201.5" font-family="Helvetica,sans-Serif" font-size="10.00">/msgBuffers.h</text>
</a>
</g>
</g>
<!-- Node3&#45;&gt;Node6 -->
<g id="edge5" class="edge"><title>Node3&#45;&gt;Node6</title>
<path fill="none" stroke="midnightblue" d="M177.688,-257.565C213.278,-247.039 260.973,-233.416 296.884,-223.537"/>
<polygon fill="midnightblue" stroke="midnightblue" points="176.58,-254.243 167.991,-260.446 178.574,-260.953 176.58,-254.243"/>
</g>
<!-- Node7 -->
<g id="node7" class="node"><title>Node7</title>
<g id="a_node7"><a xlink:href="tcp_server_socket_comm_8h.html" target="_top" xlink:title="Server connection related function definitions. ">
<polygon fill="white" stroke="black" points="284.037,-130.5 284.037,-158.5 413.963,-158.5 413.963,-130.5 284.037,-130.5"/>
<text text-anchor="start" x="292.037" y="-146.5" font-family="Helvetica,sans-Serif" font-size="10.00">rasPi&#45;EmergencyStation</text>
<text text-anchor="middle" x="349" y="-136.5" font-family="Helvetica,sans-Serif" font-size="10.00">/tcpServerSocketComm.h</text>
</a>
</g>
</g>
<!-- Node3&#45;&gt;Node7 -->
<g id="edge20" class="edge"><title>Node3&#45;&gt;Node7</title>
<path fill="none" stroke="midnightblue" d="M170.704,-256.472C191.235,-247.695 215.907,-236.268 237,-224 255.981,-212.96 259.062,-207.665 277,-195 294.72,-182.488 315.109,-168.509 329.657,-158.606"/>
<polygon fill="midnightblue" stroke="midnightblue" points="169.149,-253.328 161.291,-260.435 171.866,-259.78 169.149,-253.328"/>
</g>
<!-- Node12 -->
<g id="node12" class="node"><title>Node12</title>
<g id="a_node12"><a xlink:href="message_parser_8c.html" target="_top" xlink:title="Message parser functions definition. ">
<polygon fill="white" stroke="black" points="104.089,-195.5 104.089,-223.5 227.911,-223.5 227.911,-195.5 104.089,-195.5"/>
<text text-anchor="start" x="112.089" y="-211.5" font-family="Helvetica,sans-Serif" font-size="10.00">rasPi&#45;EmergencyStation</text>
<text text-anchor="middle" x="166" y="-201.5" font-family="Helvetica,sans-Serif" font-size="10.00">/messageParser.c</text>
</a>
</g>
</g>
<!-- Node3&#45;&gt;Node12 -->
<g id="edge21" class="edge"><title>Node3&#45;&gt;Node12</title>
<path fill="none" stroke="midnightblue" d="M141.187,-251.638C146.837,-242.269 153.247,-231.643 158.136,-223.537"/>
<polygon fill="midnightblue" stroke="midnightblue" points="138.042,-250.076 135.874,-260.446 144.036,-253.691 138.042,-250.076"/>
</g>
<!-- Node5 -->
<g id="node5" class="node"><title>Node5</title>
<g id="a_node5"><a xlink:href="main_8c.html" target="_top" xlink:title="Main file and functions of the emergency station application. ">
<polygon fill="white" stroke="black" points="14.0889,-0.5 14.0889,-28.5 137.911,-28.5 137.911,-0.5 14.0889,-0.5"/>
<text text-anchor="start" x="22.0889" y="-16.5" font-family="Helvetica,sans-Serif" font-size="10.00">rasPi&#45;EmergencyStation</text>
<text text-anchor="middle" x="76" y="-6.5" font-family="Helvetica,sans-Serif" font-size="10.00">/main.c</text>
</a>
</g>
</g>
<!-- Node4&#45;&gt;Node5 -->
<g id="edge4" class="edge"><title>Node4&#45;&gt;Node5</title>
<path fill="none" stroke="midnightblue" d="M76,-55.1641C76,-46.1693 76,-36.2205 76,-28.5369"/>
<polygon fill="midnightblue" stroke="midnightblue" points="72.5001,-55.4463 76,-65.4464 79.5001,-55.4464 72.5001,-55.4463"/>
</g>
<!-- Node6&#45;&gt;Node1 -->
<g id="edge8" class="edge"><title>Node6&#45;&gt;Node1</title>
<path fill="none" stroke="midnightblue" d="M358.603,-232.923C361.994,-241.234 365.307,-250.863 367,-260 374.967,-302.989 366.284,-320.66 338,-354 324.98,-369.347 306.038,-381.796 290.448,-390.371"/>
<polygon fill="midnightblue" stroke="midnightblue" points="361.729,-231.334 354.531,-223.56 355.309,-234.126 361.729,-231.334"/>
</g>
<!-- Node6&#45;&gt;Node2 -->
<g id="edge7" class="edge"><title>Node6&#45;&gt;Node2</title>
<path fill="none" stroke="midnightblue" d="M354.242,-233.686C357.338,-250.21 358.626,-272.352 349,-289 339.169,-306.001 321.04,-317.677 303.952,-325.398"/>
<polygon fill="midnightblue" stroke="midnightblue" points="357.622,-232.761 352.043,-223.754 350.787,-234.274 357.622,-232.761"/>
</g>
<!-- Node6&#45;&gt;Node3 -->
<g id="edge6" class="edge"><title>Node6&#45;&gt;Node3</title>
<path fill="none" stroke="midnightblue" d="M298.372,-226.417C262.796,-236.939 215.101,-250.563 179.177,-260.446"/>
<polygon fill="midnightblue" stroke="midnightblue" points="299.476,-229.74 308.065,-223.537 297.482,-223.03 299.476,-229.74"/>
</g>
<!-- Node6&#45;&gt;Node4 -->
<g id="edge16" class="edge"><title>Node6&#45;&gt;Node4</title>
<path fill="none" stroke="midnightblue" d="M275.779,-197.454C222.833,-188.331 156.295,-174.413 133,-159 108.138,-142.55 90.4074,-111.321 81.8315,-93.6133"/>
<polygon fill="midnightblue" stroke="midnightblue" points="275.388,-200.938 285.832,-199.158 276.557,-194.036 275.388,-200.938"/>
</g>
<!-- Node6&#45;&gt;Node7 -->
<g id="edge9" class="edge"><title>Node6&#45;&gt;Node7</title>
<path fill="none" stroke="midnightblue" d="M348.37,-185.164C348.513,-176.169 348.671,-166.221 348.793,-158.537"/>
<polygon fill="midnightblue" stroke="midnightblue" points="344.866,-185.392 348.207,-195.446 351.866,-185.503 344.866,-185.392"/>
</g>
<!-- Node9 -->
<g id="node9" class="node"><title>Node9</title>
<g id="a_node9"><a xlink:href="mcast_messaging_8h.html" target="_top" xlink:title="FIle containing all the headers of the functions related to multicast communication. ">
<polygon fill="white" stroke="black" points="432.089,-130.5 432.089,-158.5 555.911,-158.5 555.911,-130.5 432.089,-130.5"/>
<text text-anchor="start" x="440.089" y="-146.5" font-family="Helvetica,sans-Serif" font-size="10.00">rasPi&#45;EmergencyStation</text>
<text text-anchor="middle" x="494" y="-136.5" font-family="Helvetica,sans-Serif" font-size="10.00">/mcastMessaging.h</text>
</a>
</g>
</g>
<!-- Node6&#45;&gt;Node9 -->
<g id="edge13" class="edge"><title>Node6&#45;&gt;Node9</title>
<path fill="none" stroke="midnightblue" d="M387.455,-191.475C411.47,-181.112 441.676,-168.078 463.787,-158.537"/>
<polygon fill="midnightblue" stroke="midnightblue" points="386.046,-188.271 378.251,-195.446 388.82,-194.698 386.046,-188.271"/>
</g>
<!-- Node11 -->
<g id="node11" class="node"><title>Node11</title>
<g id="a_node11"><a xlink:href="msg_buffers_8c.html" target="_top" xlink:title="File containing the definitions of all functions related to the message mailboxes. ">
<polygon fill="white" stroke="black" points="142.089,-130.5 142.089,-158.5 265.911,-158.5 265.911,-130.5 142.089,-130.5"/>
<text text-anchor="start" x="150.089" y="-146.5" font-family="Helvetica,sans-Serif" font-size="10.00">rasPi&#45;EmergencyStation</text>
<text text-anchor="middle" x="204" y="-136.5" font-family="Helvetica,sans-Serif" font-size="10.00">/msgBuffers.c</text>
</a>
</g>
</g>
<!-- Node6&#45;&gt;Node11 -->
<g id="edge17" class="edge"><title>Node6&#45;&gt;Node11</title>
<path fill="none" stroke="midnightblue" d="M308.771,-191.337C285.136,-180.997 255.511,-168.036 233.799,-158.537"/>
<polygon fill="midnightblue" stroke="midnightblue" points="307.599,-194.645 318.163,-195.446 310.404,-188.232 307.599,-194.645"/>
</g>
<!-- Node7&#45;&gt;Node1 -->
<g id="edge10" class="edge"><title>Node7&#45;&gt;Node1</title>
<path fill="none" stroke="midnightblue" d="M388.057,-163.757C400.229,-171.551 412.228,-181.917 419,-195 424.925,-206.446 421.603,-211.377 419,-224 406.294,-285.614 406.293,-308.355 363,-354 347.27,-370.585 324.794,-382.398 305.134,-390.314"/>
<polygon fill="midnightblue" stroke="midnightblue" points="389.623,-160.617 379.235,-158.534 386.057,-166.641 389.623,-160.617"/>
</g>
<!-- Node7&#45;&gt;Node4 -->
<g id="edge11" class="edge"><title>Node7&#45;&gt;Node4</title>
<path fill="none" stroke="midnightblue" d="M282.566,-128.169C236.613,-117.565 176.125,-103.606 132.493,-93.5369"/>
<polygon fill="midnightblue" stroke="midnightblue" points="281.903,-131.608 292.434,-130.446 283.477,-124.787 281.903,-131.608"/>
</g>
<!-- Node8 -->
<g id="node8" class="node"><title>Node8</title>
<g id="a_node8"><a xlink:href="tcp_server_socket_comm_8c.html" target="_top" xlink:title="Server connection related function headers. ">
<polygon fill="white" stroke="black" points="284.318,-65.5 284.318,-93.5 413.682,-93.5 413.682,-65.5 284.318,-65.5"/>
<text text-anchor="start" x="292.318" y="-81.5" font-family="Helvetica,sans-Serif" font-size="10.00">rasPi&#45;EmergencyStation</text>
<text text-anchor="middle" x="349" y="-71.5" font-family="Helvetica,sans-Serif" font-size="10.00">/tcpServerSocketComm.c</text>
</a>
</g>
</g>
<!-- Node7&#45;&gt;Node8 -->
<g id="edge12" class="edge"><title>Node7&#45;&gt;Node8</title>
<path fill="none" stroke="midnightblue" d="M349,-120.164C349,-111.169 349,-101.221 349,-93.5369"/>
<polygon fill="midnightblue" stroke="midnightblue" points="345.5,-120.446 349,-130.446 352.5,-120.446 345.5,-120.446"/>
</g>
<!-- Node9&#45;&gt;Node1 -->
<g id="edge14" class="edge"><title>Node9&#45;&gt;Node1</title>
<path fill="none" stroke="midnightblue" d="M488.415,-168.461C476.953,-210.913 446.844,-302.068 389,-354 369.763,-371.271 343.794,-382.839 320.43,-390.416"/>
<polygon fill="midnightblue" stroke="midnightblue" points="491.866,-169.099 490.991,-158.54 485.09,-167.34 491.866,-169.099"/>
</g>
<!-- Node10 -->
<g id="node10" class="node"><title>Node10</title>
<g id="a_node10"><a xlink:href="mcast_messaging_8c.html" target="_top" xlink:title="FIle containing all the definition of the functions related to multicast communication. ">
<polygon fill="white" stroke="black" points="432.089,-65.5 432.089,-93.5 555.911,-93.5 555.911,-65.5 432.089,-65.5"/>
<text text-anchor="start" x="440.089" y="-81.5" font-family="Helvetica,sans-Serif" font-size="10.00">rasPi&#45;EmergencyStation</text>
<text text-anchor="middle" x="494" y="-71.5" font-family="Helvetica,sans-Serif" font-size="10.00">/mcastMessaging.c</text>
</a>
</g>
</g>
<!-- Node9&#45;&gt;Node10 -->
<g id="edge15" class="edge"><title>Node9&#45;&gt;Node10</title>
<path fill="none" stroke="midnightblue" d="M494,-120.164C494,-111.169 494,-101.221 494,-93.5369"/>
<polygon fill="midnightblue" stroke="midnightblue" points="490.5,-120.446 494,-130.446 497.5,-120.446 490.5,-120.446"/>
</g>
</g>
</svg>
