<?xml version="1.0" encoding="UTF-8" standalone="no"?>
<!DOCTYPE svg PUBLIC "-//W3C//DTD SVG 1.1//EN"
 "http://www.w3.org/Graphics/SVG/1.1/DTD/svg11.dtd">
<!-- Generated by graphviz version 2.38.0 (20140413.2041)
 -->
<!-- Title: MCM_serverStats Pages: 1 -->
<svg width="133pt" height="232pt"
 viewBox="0.00 0.00 132.86 232.00" xmlns="http://www.w3.org/2000/svg" xmlns:xlink="http://www.w3.org/1999/xlink">
<g id="graph0" class="graph" transform="scale(1 1) rotate(0) translate(4 228)">
<title>MCM_serverStats</title>
<polygon fill="white" stroke="none" points="-4,4 -4,-228 128.857,-228 128.857,4 -4,4"/>
<!-- Node1 -->
<g id="node1" class="node"><title>Node1</title>
<polygon fill="#bfbfbf" stroke="black" points="0,-0.5 0,-18.5 96.0146,-18.5 96.0146,-0.5 0,-0.5"/>
<text text-anchor="middle" x="48.0073" y="-6.5" font-family="Helvetica,sans-Serif" font-size="10.00">MCM_serverStats</text>
</g>
<!-- Node2 -->
<g id="node2" class="node"><title>Node2</title>
<g id="a_node2"><a xlink:href="struct_m_s_g_b_u_f_f.html" target="_top" xlink:title="Message mailbox/buffer main structure. ">
<polygon fill="white" stroke="black" points="15.564,-75.5 15.564,-93.5 80.4507,-93.5 80.4507,-75.5 15.564,-75.5"/>
<text text-anchor="middle" x="48.0073" y="-81.5" font-family="Helvetica,sans-Serif" font-size="10.00">MSGBUFF</text>
</a>
</g>
</g>
<!-- Node2&#45;&gt;Node1 -->
<g id="edge1" class="edge"><title>Node2&#45;&gt;Node1</title>
<path fill="none" stroke="#9a32cd" stroke-dasharray="5,2" d="M48.0073,-65.3494C48.0073,-50.479 48.0073,-30.1165 48.0073,-18.8518"/>
<polygon fill="#9a32cd" stroke="#9a32cd" points="44.5074,-65.4088 48.0073,-75.4088 51.5074,-65.4088 44.5074,-65.4088"/>
<text text-anchor="middle" x="78.8594" y="-49" font-family="Helvetica,sans-Serif" font-size="10.00"> generalInbox</text>
<text text-anchor="middle" x="78.8594" y="-39" font-family="Helvetica,sans-Serif" font-size="10.00">stationOutbox</text>
</g>
<!-- Node3 -->
<g id="node3" class="node"><title>Node3</title>
<g id="a_node3"><a xlink:href="struct_m_s_g_q_u_e_u_e.html" target="_top" xlink:title="Node element structure of the message mailbox/buffer. ">
<polygon fill="white" stroke="black" points="10.8374,-140.5 10.8374,-158.5 85.1772,-158.5 85.1772,-140.5 10.8374,-140.5"/>
<text text-anchor="middle" x="48.0073" y="-146.5" font-family="Helvetica,sans-Serif" font-size="10.00">MSGQUEUE</text>
</a>
</g>
</g>
<!-- Node3&#45;&gt;Node2 -->
<g id="edge2" class="edge"><title>Node3&#45;&gt;Node2</title>
<path fill="none" stroke="#9a32cd" stroke-dasharray="5,2" d="M48.0073,-129.907C48.0073,-117.815 48.0073,-102.653 48.0073,-93.539"/>
<polygon fill="#9a32cd" stroke="#9a32cd" points="44.5074,-130.264 48.0073,-140.264 51.5074,-130.264 44.5074,-130.264"/>
<text text-anchor="middle" x="60.5195" y="-114" font-family="Helvetica,sans-Serif" font-size="10.00"> head</text>
</g>
<!-- Node3&#45;&gt;Node3 -->
<g id="edge3" class="edge"><title>Node3&#45;&gt;Node3</title>
<path fill="none" stroke="#9a32cd" stroke-dasharray="5,2" d="M95.4601,-154.397C100.176,-153.418 103.177,-151.785 103.177,-149.5 103.177,-145.844 95.4947,-143.859 85.3964,-143.544"/>
<polygon fill="#9a32cd" stroke="#9a32cd" points="94.9755,-150.929 85.3964,-155.456 95.7077,-157.89 94.9755,-150.929"/>
<text text-anchor="middle" x="114.017" y="-146.5" font-family="Helvetica,sans-Serif" font-size="10.00"> next</text>
</g>
<!-- Node4 -->
<g id="node4" class="node"><title>Node4</title>
<g id="a_node4"><a xlink:href="struct_m_e_s_s_a_g_e.html" target="_top" xlink:title="Structure where the messages are stored. ">
<polygon fill="white" stroke="black" points="15.2783,-205.5 15.2783,-223.5 80.7363,-223.5 80.7363,-205.5 15.2783,-205.5"/>
<text text-anchor="middle" x="48.0073" y="-211.5" font-family="Helvetica,sans-Serif" font-size="10.00">MESSAGE</text>
</a>
</g>
</g>
<!-- Node4&#45;&gt;Node3 -->
<g id="edge4" class="edge"><title>Node4&#45;&gt;Node3</title>
<path fill="none" stroke="#9a32cd" stroke-dasharray="5,2" d="M48.0073,-194.907C48.0073,-182.815 48.0073,-167.653 48.0073,-158.539"/>
<polygon fill="#9a32cd" stroke="#9a32cd" points="44.5074,-195.264 48.0073,-205.264 51.5074,-195.264 44.5074,-195.264"/>
<text text-anchor="middle" x="58.8423" y="-179" font-family="Helvetica,sans-Serif" font-size="10.00"> msg</text>
</g>
</g>
</svg>
