<?xml version="1.0" encoding="UTF-8" standalone="no"?>
<!DOCTYPE svg PUBLIC "-//W3C//DTD SVG 1.1//EN"
 "http://www.w3.org/Graphics/SVG/1.1/DTD/svg11.dtd">
<!-- Generated by graphviz version 2.38.0 (20140413.2041)
 -->
<!-- Title: SA_VEHICLE_DATA Pages: 1 -->
<svg width="139pt" height="222pt"
 viewBox="0.00 0.00 139.08 222.00" xmlns="http://www.w3.org/2000/svg" xmlns:xlink="http://www.w3.org/1999/xlink">
<g id="graph0" class="graph" transform="scale(1 1) rotate(0) translate(4 218)">
<title>SA_VEHICLE_DATA</title>
<polygon fill="white" stroke="none" points="-4,4 -4,-218 135.075,-218 135.075,4 -4,4"/>
<!-- Node1 -->
<g id="node1" class="node"><title>Node1</title>
<polygon fill="#bfbfbf" stroke="black" points="0,-0.5 0,-18.5 108.451,-18.5 108.451,-0.5 0,-0.5"/>
<text text-anchor="middle" x="54.2256" y="-6.5" font-family="Helvetica,sans-Serif" font-size="10.00">SA_VEHICLE_DATA</text>
</g>
<!-- Node2 -->
<g id="node2" class="node"><title>Node2</title>
<g id="a_node2"><a xlink:href="struct_m_s_g_b_u_f_f.html" target="_top" xlink:title="Message mailbox/buffer main structure. ">
<polygon fill="white" stroke="black" points="21.7822,-65.5 21.7822,-83.5 86.6689,-83.5 86.6689,-65.5 21.7822,-65.5"/>
<text text-anchor="middle" x="54.2256" y="-71.5" font-family="Helvetica,sans-Serif" font-size="10.00">MSGBUFF</text>
</a>
</g>
</g>
<!-- Node2&#45;&gt;Node1 -->
<g id="edge1" class="edge"><title>Node2&#45;&gt;Node1</title>
<path fill="none" stroke="#9a32cd" stroke-dasharray="5,2" d="M54.2256,-54.9075C54.2256,-42.8146 54.2256,-27.6529 54.2256,-18.539"/>
<polygon fill="#9a32cd" stroke="#9a32cd" points="50.7257,-55.2638 54.2256,-65.2639 57.7257,-55.2639 50.7257,-55.2638"/>
<text text-anchor="middle" x="70.627" y="-39" font-family="Helvetica,sans-Serif" font-size="10.00"> outbox</text>
</g>
<!-- Node3 -->
<g id="node3" class="node"><title>Node3</title>
<g id="a_node3"><a xlink:href="struct_m_s_g_q_u_e_u_e.html" target="_top" xlink:title="Node element structure of the message mailbox/buffer. ">
<polygon fill="white" stroke="black" points="17.0557,-130.5 17.0557,-148.5 91.3955,-148.5 91.3955,-130.5 17.0557,-130.5"/>
<text text-anchor="middle" x="54.2256" y="-136.5" font-family="Helvetica,sans-Serif" font-size="10.00">MSGQUEUE</text>
</a>
</g>
</g>
<!-- Node3&#45;&gt;Node2 -->
<g id="edge2" class="edge"><title>Node3&#45;&gt;Node2</title>
<path fill="none" stroke="#9a32cd" stroke-dasharray="5,2" d="M54.2256,-119.907C54.2256,-107.815 54.2256,-92.6529 54.2256,-83.539"/>
<polygon fill="#9a32cd" stroke="#9a32cd" points="50.7257,-120.264 54.2256,-130.264 57.7257,-120.264 50.7257,-120.264"/>
<text text-anchor="middle" x="66.7378" y="-104" font-family="Helvetica,sans-Serif" font-size="10.00"> head</text>
</g>
<!-- Node3&#45;&gt;Node3 -->
<g id="edge3" class="edge"><title>Node3&#45;&gt;Node3</title>
<path fill="none" stroke="#9a32cd" stroke-dasharray="5,2" d="M101.678,-144.397C106.395,-143.418 109.396,-141.785 109.396,-139.5 109.396,-135.844 101.713,-133.859 91.6147,-133.544"/>
<polygon fill="#9a32cd" stroke="#9a32cd" points="101.194,-140.929 91.6147,-145.456 101.926,-147.89 101.194,-140.929"/>
<text text-anchor="middle" x="120.235" y="-136.5" font-family="Helvetica,sans-Serif" font-size="10.00"> next</text>
</g>
<!-- Node4 -->
<g id="node4" class="node"><title>Node4</title>
<g id="a_node4"><a xlink:href="struct_m_e_s_s_a_g_e.html" target="_top" xlink:title="Structure where the messages are stored. ">
<polygon fill="white" stroke="black" points="21.4966,-195.5 21.4966,-213.5 86.9546,-213.5 86.9546,-195.5 21.4966,-195.5"/>
<text text-anchor="middle" x="54.2256" y="-201.5" font-family="Helvetica,sans-Serif" font-size="10.00">MESSAGE</text>
</a>
</g>
</g>
<!-- Node4&#45;&gt;Node3 -->
<g id="edge4" class="edge"><title>Node4&#45;&gt;Node3</title>
<path fill="none" stroke="#9a32cd" stroke-dasharray="5,2" d="M54.2256,-184.907C54.2256,-172.815 54.2256,-157.653 54.2256,-148.539"/>
<polygon fill="#9a32cd" stroke="#9a32cd" points="50.7257,-185.264 54.2256,-195.264 57.7257,-185.264 50.7257,-185.264"/>
<text text-anchor="middle" x="65.0605" y="-169" font-family="Helvetica,sans-Serif" font-size="10.00"> msg</text>
</g>
</g>
</svg>
