<?xml version="1.0" encoding="UTF-8" standalone="no"?>
<!DOCTYPE svg PUBLIC "-//W3C//DTD SVG 1.1//EN"
 "http://www.w3.org/Graphics/SVG/1.1/DTD/svg11.dtd">
<!-- Generated by graphviz version 2.38.0 (20140413.2041)
 -->
<!-- Title: structures.h Pages: 1 -->
<svg width="624pt" height="417pt"
 viewBox="0.00 0.00 624.50 417.00" xmlns="http://www.w3.org/2000/svg" xmlns:xlink="http://www.w3.org/1999/xlink">
<g id="graph0" class="graph" transform="scale(1 1) rotate(0) translate(4 413)">
<title>structures.h</title>
<polygon fill="white" stroke="none" points="-4,4 -4,-413 620.495,-413 620.495,4 -4,4"/>
<!-- Node1 -->
<g id="node1" class="node"><title>Node1</title>
<polygon fill="#bfbfbf" stroke="black" points="243.879,-390.5 243.879,-408.5 312.121,-408.5 312.121,-390.5 243.879,-390.5"/>
<text text-anchor="middle" x="278" y="-396.5" font-family="Helvetica,sans-Serif" font-size="10.00">structures.h</text>
</g>
<!-- Node2 -->
<g id="node2" class="node"><title>Node2</title>
<g id="a_node2"><a xlink:href="main_8h.html" target="_top" xlink:title="Main file&#39;s headers of the emergency station application. ">
<polygon fill="white" stroke="red" points="245.089,-0.5 245.089,-28.5 368.911,-28.5 368.911,-0.5 245.089,-0.5"/>
<text text-anchor="start" x="253.089" y="-16.5" font-family="Helvetica,sans-Serif" font-size="10.00">rasPi&#45;EmergencyStation</text>
<text text-anchor="middle" x="307" y="-6.5" font-family="Helvetica,sans-Serif" font-size="10.00">/main.h</text>
</a>
</g>
</g>
<!-- Node1&#45;&gt;Node2 -->
<g id="edge1" class="edge"><title>Node1&#45;&gt;Node2</title>
<path fill="none" stroke="midnightblue" d="M233.54,-398.242C155.021,-395.191 0,-376.392 0,-275.5 0,-275.5 0,-275.5 0,-143.5 0,-38.4028 155.168,-18.0454 244.874,-15.0578"/>
<polygon fill="midnightblue" stroke="midnightblue" points="233.526,-401.743 243.633,-398.564 233.75,-394.747 233.526,-401.743"/>
</g>
<!-- Node3 -->
<g id="node3" class="node"><title>Node3</title>
<g id="a_node3"><a xlink:href="message_parser_8h.html" target="_top" xlink:title="Message parser function headers. ">
<polygon fill="white" stroke="red" points="117.089,-325.5 117.089,-353.5 240.911,-353.5 240.911,-325.5 117.089,-325.5"/>
<text text-anchor="start" x="125.089" y="-341.5" font-family="Helvetica,sans-Serif" font-size="10.00">rasPi&#45;EmergencyStation</text>
<text text-anchor="middle" x="179" y="-331.5" font-family="Helvetica,sans-Serif" font-size="10.00">/messageParser.h</text>
</a>
</g>
</g>
<!-- Node1&#45;&gt;Node3 -->
<g id="edge2" class="edge"><title>Node1&#45;&gt;Node3</title>
<path fill="none" stroke="midnightblue" d="M255.427,-385.276C239.243,-375.794 217.539,-363.078 201.395,-353.62"/>
<polygon fill="midnightblue" stroke="midnightblue" points="253.837,-388.4 264.234,-390.435 257.375,-382.36 253.837,-388.4"/>
</g>
<!-- Node4 -->
<g id="node4" class="node"><title>Node4</title>
<g id="a_node4"><a xlink:href="msg_buffers_8h.html" target="_top" xlink:title="File containing the headers of all functions related to the message mailboxes. ">
<polygon fill="white" stroke="red" points="306.089,-260.5 306.089,-288.5 429.911,-288.5 429.911,-260.5 306.089,-260.5"/>
<text text-anchor="start" x="314.089" y="-276.5" font-family="Helvetica,sans-Serif" font-size="10.00">rasPi&#45;EmergencyStation</text>
<text text-anchor="middle" x="368" y="-266.5" font-family="Helvetica,sans-Serif" font-size="10.00">/msgBuffers.h</text>
</a>
</g>
</g>
<!-- Node1&#45;&gt;Node4 -->
<g id="edge23" class="edge"><title>Node1&#45;&gt;Node4</title>
<path fill="none" stroke="midnightblue" d="M289.967,-382.145C307.968,-357.543 341.669,-311.486 358.261,-288.809"/>
<polygon fill="midnightblue" stroke="midnightblue" points="286.986,-380.293 283.905,-390.43 292.635,-384.426 286.986,-380.293"/>
</g>
<!-- Node5 -->
<g id="node5" class="node"><title>Node5</title>
<g id="a_node5"><a xlink:href="tcp_vehicle_socket_comm_8h.html" target="_top" xlink:title="Vehicle connection server&#39;s headers. ">
<polygon fill="white" stroke="red" points="193.638,-65.5 193.638,-93.5 326.362,-93.5 326.362,-65.5 193.638,-65.5"/>
<text text-anchor="start" x="201.638" y="-81.5" font-family="Helvetica,sans-Serif" font-size="10.00">rasPi&#45;EmergencyStation</text>
<text text-anchor="middle" x="260" y="-71.5" font-family="Helvetica,sans-Serif" font-size="10.00">/tcpVehicleSocketComm.h</text>
</a>
</g>
</g>
<!-- Node1&#45;&gt;Node5 -->
<g id="edge24" class="edge"><title>Node1&#45;&gt;Node5</title>
<path fill="none" stroke="midnightblue" d="M233.692,-397.556C196.075,-394.494 142.806,-384.519 108,-354 79.6715,-329.161 76,-313.176 76,-275.5 76,-275.5 76,-275.5 76,-208.5 76,-144.876 151.054,-110.31 205.292,-93.6378"/>
<polygon fill="midnightblue" stroke="midnightblue" points="233.644,-401.06 243.859,-398.247 234.119,-394.076 233.644,-401.06"/>
</g>
<!-- Node6 -->
<g id="node6" class="node"><title>Node6</title>
<g id="a_node6"><a xlink:href="station_actions_8h.html" target="_top" xlink:title="FIle containing all the station action headers. ">
<polygon fill="white" stroke="red" points="292.089,-130.5 292.089,-158.5 415.911,-158.5 415.911,-130.5 292.089,-130.5"/>
<text text-anchor="start" x="300.089" y="-146.5" font-family="Helvetica,sans-Serif" font-size="10.00">rasPi&#45;EmergencyStation</text>
<text text-anchor="middle" x="354" y="-136.5" font-family="Helvetica,sans-Serif" font-size="10.00">/stationActions.h</text>
</a>
</g>
</g>
<!-- Node1&#45;&gt;Node6 -->
<g id="edge25" class="edge"><title>Node1&#45;&gt;Node6</title>
<path fill="none" stroke="midnightblue" d="M322.373,-391.259C398.788,-376.056 552.631,-332.754 611,-224 617.095,-212.643 619.207,-204.938 611,-195 586.733,-165.613 483.918,-153.485 415.915,-148.615"/>
<polygon fill="midnightblue" stroke="midnightblue" points="321.286,-387.904 312.123,-393.222 322.603,-394.779 321.286,-387.904"/>
</g>
<!-- Node7 -->
<g id="node7" class="node"><title>Node7</title>
<g id="a_node7"><a xlink:href="tcp_server_socket_comm_8h.html" target="_top" xlink:title="Server connection related function definitions. ">
<polygon fill="white" stroke="red" points="472.037,-195.5 472.037,-223.5 601.963,-223.5 601.963,-195.5 472.037,-195.5"/>
<text text-anchor="start" x="480.037" y="-211.5" font-family="Helvetica,sans-Serif" font-size="10.00">rasPi&#45;EmergencyStation</text>
<text text-anchor="middle" x="537" y="-201.5" font-family="Helvetica,sans-Serif" font-size="10.00">/tcpServerSocketComm.h</text>
</a>
</g>
</g>
<!-- Node1&#45;&gt;Node7 -->
<g id="edge26" class="edge"><title>Node1&#45;&gt;Node7</title>
<path fill="none" stroke="midnightblue" d="M307.69,-386.447C348.337,-369.006 422.268,-333.85 475,-289 497.886,-269.535 518.154,-240.529 528.891,-223.766"/>
<polygon fill="midnightblue" stroke="midnightblue" points="306.194,-383.279 298.345,-390.395 308.919,-389.727 306.194,-383.279"/>
</g>
<!-- Node8 -->
<g id="node8" class="node"><title>Node8</title>
<g id="a_node8"><a xlink:href="mcast_messaging_8h.html" target="_top" xlink:title="FIle containing all the headers of the functions related to multicast communication. ">
<polygon fill="white" stroke="red" points="216.089,-195.5 216.089,-223.5 339.911,-223.5 339.911,-195.5 216.089,-195.5"/>
<text text-anchor="start" x="224.089" y="-211.5" font-family="Helvetica,sans-Serif" font-size="10.00">rasPi&#45;EmergencyStation</text>
<text text-anchor="middle" x="278" y="-201.5" font-family="Helvetica,sans-Serif" font-size="10.00">/mcastMessaging.h</text>
</a>
</g>
</g>
<!-- Node1&#45;&gt;Node8 -->
<g id="edge27" class="edge"><title>Node1&#45;&gt;Node8</title>
<path fill="none" stroke="midnightblue" d="M278,-380.403C278,-342.759 278,-256.781 278,-223.757"/>
<polygon fill="midnightblue" stroke="midnightblue" points="274.5,-380.422 278,-390.422 281.5,-380.422 274.5,-380.422"/>
</g>
<!-- Node3&#45;&gt;Node2 -->
<g id="edge3" class="edge"><title>Node3&#45;&gt;Node2</title>
<path fill="none" stroke="midnightblue" d="M136.106,-321.149C94.6245,-301.196 38,-264.136 38,-210.5 38,-210.5 38,-210.5 38,-143.5 38,-52.3454 165.506,-26.0344 244.948,-18.4877"/>
<polygon fill="midnightblue" stroke="midnightblue" points="134.683,-324.347 145.227,-325.383 137.63,-317.998 134.683,-324.347"/>
</g>
<!-- Node3&#45;&gt;Node4 -->
<g id="edge4" class="edge"><title>Node3&#45;&gt;Node4</title>
<path fill="none" stroke="midnightblue" d="M222.022,-322.159C252.307,-311.691 292.648,-298.289 323.299,-288.537"/>
<polygon fill="midnightblue" stroke="midnightblue" points="220.864,-318.856 212.568,-325.446 223.163,-325.468 220.864,-318.856"/>
</g>
<!-- Node3&#45;&gt;Node5 -->
<g id="edge20" class="edge"><title>Node3&#45;&gt;Node5</title>
<path fill="none" stroke="midnightblue" d="M167.142,-315.346C165.548,-307.055 164.521,-297.627 164,-289 161.458,-246.901 161.138,-234.079 177,-195 193.201,-155.086 223.768,-114.053 243.32,-93.6654"/>
<polygon fill="midnightblue" stroke="midnightblue" points="163.742,-316.179 169.467,-325.094 170.551,-314.555 163.742,-316.179"/>
</g>
<!-- Node3&#45;&gt;Node6 -->
<g id="edge21" class="edge"><title>Node3&#45;&gt;Node6</title>
<path fill="none" stroke="midnightblue" d="M170.812,-315.181C166.363,-283.969 168.527,-228.648 198,-195 221.244,-168.463 259.192,-156.123 291.915,-150.4"/>
<polygon fill="midnightblue" stroke="midnightblue" points="167.391,-315.931 172.627,-325.141 174.277,-314.675 167.391,-315.931"/>
</g>
<!-- Node3&#45;&gt;Node7 -->
<g id="edge22" class="edge"><title>Node3&#45;&gt;Node7</title>
<path fill="none" stroke="midnightblue" d="M251.069,-334.183C304.912,-328.765 379.21,-316.547 439,-289 474.044,-272.854 507.477,-241.508 524.774,-223.7"/>
<polygon fill="midnightblue" stroke="midnightblue" points="250.547,-330.717 240.923,-335.148 251.21,-337.685 250.547,-330.717"/>
</g>
<!-- Node4&#45;&gt;Node2 -->
<g id="edge19" class="edge"><title>Node4&#45;&gt;Node2</title>
<path fill="none" stroke="midnightblue" d="M387.035,-252.423C409.966,-224.343 443.268,-173.181 425,-130 405.425,-83.7305 356.992,-46.9625 328.633,-28.5009"/>
<polygon fill="midnightblue" stroke="midnightblue" points="384.105,-250.467 380.32,-260.362 389.45,-254.988 384.105,-250.467"/>
</g>
<!-- Node4&#45;&gt;Node3 -->
<g id="edge5" class="edge"><title>Node4&#45;&gt;Node3</title>
<path fill="none" stroke="midnightblue" d="M325.03,-291.823C294.757,-302.288 254.416,-315.69 223.754,-325.446"/>
<polygon fill="midnightblue" stroke="midnightblue" points="326.184,-295.127 334.48,-288.537 323.885,-288.516 326.184,-295.127"/>
</g>
<!-- Node4&#45;&gt;Node5 -->
<g id="edge6" class="edge"><title>Node4&#45;&gt;Node5</title>
<path fill="none" stroke="midnightblue" d="M367.288,-250.322C365.687,-233.454 361.183,-210.879 349,-195 328.66,-168.491 303.964,-185.018 283,-159 267.496,-139.758 262.442,-110.408 260.796,-93.5801"/>
<polygon fill="midnightblue" stroke="midnightblue" points="363.806,-250.714 367.972,-260.455 370.79,-250.242 363.806,-250.714"/>
</g>
<!-- Node4&#45;&gt;Node6 -->
<g id="edge13" class="edge"><title>Node4&#45;&gt;Node6</title>
<path fill="none" stroke="midnightblue" d="M377.21,-250.832C382.374,-235.039 386.885,-213.559 382,-195 378.481,-181.633 370.437,-168.082 363.87,-158.546"/>
<polygon fill="midnightblue" stroke="midnightblue" points="373.895,-249.708 373.815,-260.303 380.485,-252.07 373.895,-249.708"/>
</g>
<!-- Node4&#45;&gt;Node7 -->
<g id="edge14" class="edge"><title>Node4&#45;&gt;Node7</title>
<path fill="none" stroke="midnightblue" d="M412.567,-256.886C440.539,-246.459 476.094,-233.205 502.028,-223.537"/>
<polygon fill="midnightblue" stroke="midnightblue" points="411.164,-253.674 403.017,-260.446 413.61,-260.233 411.164,-253.674"/>
</g>
<!-- Node4&#45;&gt;Node8 -->
<g id="edge17" class="edge"><title>Node4&#45;&gt;Node8</title>
<path fill="none" stroke="midnightblue" d="M340.886,-254.52C326.587,-244.511 309.41,-232.487 296.624,-223.537"/>
<polygon fill="midnightblue" stroke="midnightblue" points="339.152,-257.579 349.352,-260.446 343.167,-251.844 339.152,-257.579"/>
</g>
<!-- Node5&#45;&gt;Node2 -->
<g id="edge12" class="edge"><title>Node5&#45;&gt;Node2</title>
<path fill="none" stroke="midnightblue" d="M275.874,-57.2215C282.968,-47.7133 291.101,-36.8116 297.274,-28.5369"/>
<polygon fill="midnightblue" stroke="midnightblue" points="272.913,-55.3382 269.738,-65.4464 278.523,-59.524 272.913,-55.3382"/>
</g>
<!-- Node5&#45;&gt;Node3 -->
<g id="edge7" class="edge"><title>Node5&#45;&gt;Node3</title>
<path fill="none" stroke="midnightblue" d="M249.188,-102.236C234.351,-124.293 209.176,-160.075 195,-195 179.138,-234.079 179.458,-246.901 182,-289 182.741,-301.27 184.506,-315.158 184.395,-325.094"/>
<polygon fill="midnightblue" stroke="midnightblue" points="252.259,-103.938 254.852,-93.6654 246.419,-100.079 252.259,-103.938"/>
</g>
<!-- Node5&#45;&gt;Node6 -->
<g id="edge8" class="edge"><title>Node5&#45;&gt;Node6</title>
<path fill="none" stroke="midnightblue" d="M293.651,-98.8971C309.642,-109.013 327.806,-121.323 340.116,-130.446"/>
<polygon fill="midnightblue" stroke="midnightblue" points="295.381,-95.8513 285.042,-93.5369 291.681,-101.794 295.381,-95.8513"/>
</g>
<!-- Node6&#45;&gt;Node2 -->
<g id="edge11" class="edge"><title>Node6&#45;&gt;Node2</title>
<path fill="none" stroke="midnightblue" d="M350.15,-120.355C347.083,-104.442 342.114,-83.0139 335,-65 329.923,-52.1436 322.025,-38.5448 315.91,-28.8606"/>
<polygon fill="midnightblue" stroke="midnightblue" points="346.74,-121.169 351.972,-130.381 353.627,-119.917 346.74,-121.169"/>
</g>
<!-- Node6&#45;&gt;Node3 -->
<g id="edge10" class="edge"><title>Node6&#45;&gt;Node3</title>
<path fill="none" stroke="midnightblue" d="M282.179,-156.495C258.089,-163.672 233.076,-175.505 216,-195 183.052,-232.615 184.232,-297.316 182.425,-325.141"/>
<polygon fill="midnightblue" stroke="midnightblue" points="283.341,-159.805 292.06,-153.786 281.491,-153.055 283.341,-159.805"/>
</g>
<!-- Node6&#45;&gt;Node5 -->
<g id="edge9" class="edge"><title>Node6&#45;&gt;Node5</title>
<path fill="none" stroke="midnightblue" d="M320.319,-125.084C304.326,-114.965 286.164,-102.656 273.862,-93.5369"/>
<polygon fill="midnightblue" stroke="midnightblue" points="318.592,-128.131 328.93,-130.446 322.292,-122.189 318.592,-128.131"/>
</g>
<!-- Node7&#45;&gt;Node2 -->
<g id="edge16" class="edge"><title>Node7&#45;&gt;Node2</title>
<path fill="none" stroke="midnightblue" d="M530.302,-185.592C519.913,-153.994 496.948,-97.287 458,-65 432.832,-44.136 398.609,-31.9813 369.108,-24.9434"/>
<polygon fill="midnightblue" stroke="midnightblue" points="527.008,-186.785 533.348,-195.274 533.685,-184.684 527.008,-186.785"/>
</g>
<!-- Node7&#45;&gt;Node6 -->
<g id="edge15" class="edge"><title>Node7&#45;&gt;Node6</title>
<path fill="none" stroke="midnightblue" d="M489.533,-192.159C459.125,-181.691 420.197,-168.289 391.869,-158.537"/>
<polygon fill="midnightblue" stroke="midnightblue" points="488.488,-195.501 499.082,-195.446 490.766,-188.882 488.488,-195.501"/>
</g>
<!-- Node8&#45;&gt;Node6 -->
<g id="edge18" class="edge"><title>Node8&#45;&gt;Node6</title>
<path fill="none" stroke="midnightblue" d="M301.583,-188.951C313.517,-179.058 327.68,-167.318 338.273,-158.537"/>
<polygon fill="midnightblue" stroke="midnightblue" points="299.212,-186.37 293.747,-195.446 303.68,-191.759 299.212,-186.37"/>
</g>
</g>
</svg>
