<?xml version="1.0" encoding="UTF-8" standalone="no"?>
<!DOCTYPE svg PUBLIC "-//W3C//DTD SVG 1.1//EN"
 "http://www.w3.org/Graphics/SVG/1.1/DTD/svg11.dtd">
<!-- Generated by graphviz version 2.38.0 (20140413.2041)
 -->
<!-- Title: structures.h Pages: 1 -->
<svg width="791pt" height="352pt"
 viewBox="0.00 0.00 790.99 352.00" xmlns="http://www.w3.org/2000/svg" xmlns:xlink="http://www.w3.org/1999/xlink">
<g id="graph0" class="graph" transform="scale(1 1) rotate(0) translate(4 348)">
<title>structures.h</title>
<polygon fill="white" stroke="none" points="-4,4 -4,-348 786.992,-348 786.992,4 -4,4"/>
<!-- Node1 -->
<g id="node1" class="node"><title>Node1</title>
<polygon fill="#bfbfbf" stroke="black" points="445.96,-325.5 445.96,-343.5 514.202,-343.5 514.202,-325.5 445.96,-325.5"/>
<text text-anchor="middle" x="480.081" y="-331.5" font-family="Helvetica,sans-Serif" font-size="10.00">structures.h</text>
</g>
<!-- Node2 -->
<g id="node2" class="node"><title>Node2</title>
<g id="a_node2"><a xlink:href="message_parser_8h.html" target="_top" xlink:title="Message parser function headers. ">
<polygon fill="white" stroke="black" points="209.17,-260.5 209.17,-288.5 332.992,-288.5 332.992,-260.5 209.17,-260.5"/>
<text text-anchor="start" x="217.17" y="-276.5" font-family="Helvetica,sans-Serif" font-size="10.00">rasPi&#45;EmergencyStation</text>
<text text-anchor="middle" x="271.081" y="-266.5" font-family="Helvetica,sans-Serif" font-size="10.00">/messageParser.h</text>
</a>
</g>
</g>
<!-- Node1&#45;&gt;Node2 -->
<g id="edge1" class="edge"><title>Node1&#45;&gt;Node2</title>
<path fill="none" stroke="midnightblue" d="M441.202,-322.711C406.332,-313.034 355.088,-298.813 317.96,-288.51"/>
<polygon fill="midnightblue" stroke="midnightblue" points="440.449,-326.134 451.021,-325.435 442.321,-319.389 440.449,-326.134"/>
</g>
<!-- Node5 -->
<g id="node5" class="node"><title>Node5</title>
<g id="a_node5"><a xlink:href="msg_buffers_8h.html" target="_top" xlink:title="File containing the headers of all functions related to the message mailboxes. ">
<polygon fill="white" stroke="black" points="345.17,-195.5 345.17,-223.5 468.992,-223.5 468.992,-195.5 345.17,-195.5"/>
<text text-anchor="start" x="353.17" y="-211.5" font-family="Helvetica,sans-Serif" font-size="10.00">rasPi&#45;EmergencyStation</text>
<text text-anchor="middle" x="407.081" y="-201.5" font-family="Helvetica,sans-Serif" font-size="10.00">/msgBuffers.h</text>
</a>
</g>
</g>
<!-- Node1&#45;&gt;Node5 -->
<g id="edge24" class="edge"><title>Node1&#45;&gt;Node5</title>
<path fill="none" stroke="midnightblue" d="M470.181,-316.818C455.533,-292.138 428.38,-246.386 414.98,-223.809"/>
<polygon fill="midnightblue" stroke="midnightblue" points="467.178,-318.616 475.291,-325.43 473.197,-315.044 467.178,-318.616"/>
</g>
<!-- Node6 -->
<g id="node6" class="node"><title>Node6</title>
<g id="a_node6"><a xlink:href="tcp_vehicle_socket_comm_8h.html" target="_top" xlink:title="Vehicle connection server&#39;s headers. ">
<polygon fill="white" stroke="black" points="86.7192,-130.5 86.7192,-158.5 219.443,-158.5 219.443,-130.5 86.7192,-130.5"/>
<text text-anchor="start" x="94.7192" y="-146.5" font-family="Helvetica,sans-Serif" font-size="10.00">rasPi&#45;EmergencyStation</text>
<text text-anchor="middle" x="153.081" y="-136.5" font-family="Helvetica,sans-Serif" font-size="10.00">/tcpVehicleSocketComm.h</text>
</a>
</g>
</g>
<!-- Node1&#45;&gt;Node6 -->
<g id="edge25" class="edge"><title>Node1&#45;&gt;Node6</title>
<path fill="none" stroke="midnightblue" d="M435.657,-329.258C336.609,-318.713 103.217,-287.467 63.0811,-224 56.1921,-213.107 56.5211,-206.095 63.0811,-195 73.2461,-177.808 91.7433,-166.184 109.336,-158.548"/>
<polygon fill="midnightblue" stroke="midnightblue" points="435.345,-332.744 445.654,-330.3 436.071,-325.782 435.345,-332.744"/>
</g>
<!-- Node7 -->
<g id="node7" class="node"><title>Node7</title>
<g id="a_node7"><a xlink:href="station_actions_8h.html" target="_top" xlink:title="FIle containing all the station action headers. ">
<polygon fill="white" stroke="black" points="350.17,-65.5 350.17,-93.5 473.992,-93.5 473.992,-65.5 350.17,-65.5"/>
<text text-anchor="start" x="358.17" y="-81.5" font-family="Helvetica,sans-Serif" font-size="10.00">rasPi&#45;EmergencyStation</text>
<text text-anchor="middle" x="412.081" y="-71.5" font-family="Helvetica,sans-Serif" font-size="10.00">/stationActions.h</text>
</a>
</g>
</g>
<!-- Node1&#45;&gt;Node7 -->
<g id="edge26" class="edge"><title>Node1&#45;&gt;Node7</title>
<path fill="none" stroke="midnightblue" d="M501.236,-319.772C550.51,-286.135 664.859,-197.433 612.081,-130 607.644,-124.331 529.683,-106.214 472.433,-93.5488"/>
<polygon fill="midnightblue" stroke="midnightblue" points="499.206,-316.919 492.848,-325.394 503.103,-322.734 499.206,-316.919"/>
</g>
<!-- Node10 -->
<g id="node10" class="node"><title>Node10</title>
<g id="a_node10"><a xlink:href="tcp_server_socket_comm_8h.html" target="_top" xlink:title="Server connection related function definitions. ">
<polygon fill="white" stroke="black" points="473.118,-130.5 473.118,-158.5 603.044,-158.5 603.044,-130.5 473.118,-130.5"/>
<text text-anchor="start" x="481.118" y="-146.5" font-family="Helvetica,sans-Serif" font-size="10.00">rasPi&#45;EmergencyStation</text>
<text text-anchor="middle" x="538.081" y="-136.5" font-family="Helvetica,sans-Serif" font-size="10.00">/tcpServerSocketComm.h</text>
</a>
</g>
</g>
<!-- Node1&#45;&gt;Node10 -->
<g id="edge27" class="edge"><title>Node1&#45;&gt;Node10</title>
<path fill="none" stroke="midnightblue" d="M485.664,-315.403C497.278,-277.759 523.803,-191.781 533.991,-158.757"/>
<polygon fill="midnightblue" stroke="midnightblue" points="482.177,-314.834 482.573,-325.422 488.866,-316.898 482.177,-314.834"/>
</g>
<!-- Node12 -->
<g id="node12" class="node"><title>Node12</title>
<g id="a_node12"><a xlink:href="mcast_messaging_8h.html" target="_top" xlink:title="FIle containing all the headers of the functions related to multicast communication. ">
<polygon fill="white" stroke="black" points="659.17,-130.5 659.17,-158.5 782.992,-158.5 782.992,-130.5 659.17,-130.5"/>
<text text-anchor="start" x="667.17" y="-146.5" font-family="Helvetica,sans-Serif" font-size="10.00">rasPi&#45;EmergencyStation</text>
<text text-anchor="middle" x="721.081" y="-136.5" font-family="Helvetica,sans-Serif" font-size="10.00">/mcastMessaging.h</text>
</a>
</g>
</g>
<!-- Node1&#45;&gt;Node12 -->
<g id="edge28" class="edge"><title>Node1&#45;&gt;Node12</title>
<path fill="none" stroke="midnightblue" d="M524.489,-331.114C560.43,-327.1 610.573,-316.541 645.081,-289 688.709,-254.181 710.314,-187.38 717.864,-158.898"/>
<polygon fill="midnightblue" stroke="midnightblue" points="523.897,-327.655 514.29,-332.121 524.585,-334.621 523.897,-327.655"/>
</g>
<!-- Node3 -->
<g id="node3" class="node"><title>Node3</title>
<g id="a_node3"><a xlink:href="main_8h.html" target="_top" xlink:title="Main file&#39;s headers of the emergency station application. ">
<polygon fill="white" stroke="black" points="150.17,-65.5 150.17,-93.5 273.992,-93.5 273.992,-65.5 150.17,-65.5"/>
<text text-anchor="start" x="158.17" y="-81.5" font-family="Helvetica,sans-Serif" font-size="10.00">rasPi&#45;EmergencyStation</text>
<text text-anchor="middle" x="212.081" y="-71.5" font-family="Helvetica,sans-Serif" font-size="10.00">/main.h</text>
</a>
</g>
</g>
<!-- Node2&#45;&gt;Node3 -->
<g id="edge2" class="edge"><title>Node2&#45;&gt;Node3</title>
<path fill="none" stroke="midnightblue" d="M199.037,-265.832C145.877,-258.515 79.9688,-245.378 63.0811,-224 47.8899,-204.769 66.0353,-143.682 78.0811,-130 89.6345,-116.877 129.111,-103.193 162.247,-93.5478"/>
<polygon fill="midnightblue" stroke="midnightblue" points="198.765,-269.327 209.139,-267.175 199.688,-262.388 198.765,-269.327"/>
</g>
<!-- Node2&#45;&gt;Node5 -->
<g id="edge4" class="edge"><title>Node2&#45;&gt;Node5</title>
<path fill="none" stroke="midnightblue" d="M302.9,-255.922C324.089,-245.652 351.775,-232.909 373.348,-223.537"/>
<polygon fill="midnightblue" stroke="midnightblue" points="301.107,-252.903 293.668,-260.446 304.188,-259.189 301.107,-252.903"/>
</g>
<!-- Node2&#45;&gt;Node7 -->
<g id="edge22" class="edge"><title>Node2&#45;&gt;Node7</title>
<path fill="none" stroke="midnightblue" d="M260.285,-250.633C252.38,-219.935 248.541,-165.198 275.081,-130 292.581,-106.791 322.472,-94.4607 349.943,-87.9118"/>
<polygon fill="midnightblue" stroke="midnightblue" points="256.992,-251.837 263.208,-260.417 263.699,-249.834 256.992,-251.837"/>
</g>
<!-- Node15 -->
<g id="node15" class="node"><title>Node15</title>
<g id="a_node15"><a xlink:href="message_parser_8c.html" target="_top" xlink:title="Message parser functions definition. ">
<polygon fill="white" stroke="black" points="72.1699,-195.5 72.1699,-223.5 195.992,-223.5 195.992,-195.5 72.1699,-195.5"/>
<text text-anchor="start" x="80.1699" y="-211.5" font-family="Helvetica,sans-Serif" font-size="10.00">rasPi&#45;EmergencyStation</text>
<text text-anchor="middle" x="134.081" y="-201.5" font-family="Helvetica,sans-Serif" font-size="10.00">/messageParser.c</text>
</a>
</g>
</g>
<!-- Node2&#45;&gt;Node15 -->
<g id="edge23" class="edge"><title>Node2&#45;&gt;Node15</title>
<path fill="none" stroke="midnightblue" d="M233.459,-256.199C211.022,-245.882 182.996,-232.994 162.431,-223.537"/>
<polygon fill="midnightblue" stroke="midnightblue" points="232.147,-259.448 242.695,-260.446 235.071,-253.088 232.147,-259.448"/>
</g>
<!-- Node4 -->
<g id="node4" class="node"><title>Node4</title>
<g id="a_node4"><a xlink:href="main_8c.html" target="_top" xlink:title="Main file and functions of the emergency station application. ">
<polygon fill="white" stroke="black" points="150.17,-0.5 150.17,-28.5 273.992,-28.5 273.992,-0.5 150.17,-0.5"/>
<text text-anchor="start" x="158.17" y="-16.5" font-family="Helvetica,sans-Serif" font-size="10.00">rasPi&#45;EmergencyStation</text>
<text text-anchor="middle" x="212.081" y="-6.5" font-family="Helvetica,sans-Serif" font-size="10.00">/main.c</text>
</a>
</g>
</g>
<!-- Node3&#45;&gt;Node4 -->
<g id="edge3" class="edge"><title>Node3&#45;&gt;Node4</title>
<path fill="none" stroke="midnightblue" d="M212.081,-55.1641C212.081,-46.1693 212.081,-36.2205 212.081,-28.5369"/>
<polygon fill="midnightblue" stroke="midnightblue" points="208.581,-55.4463 212.081,-65.4464 215.581,-55.4464 208.581,-55.4463"/>
</g>
<!-- Node5&#45;&gt;Node2 -->
<g id="edge5" class="edge"><title>Node5&#45;&gt;Node2</title>
<path fill="none" stroke="midnightblue" d="M375.3,-228.059C354.119,-238.327 326.433,-251.07 304.853,-260.446"/>
<polygon fill="midnightblue" stroke="midnightblue" points="377.089,-231.08 384.528,-223.537 374.008,-224.794 377.089,-231.08"/>
</g>
<!-- Node5&#45;&gt;Node6 -->
<g id="edge6" class="edge"><title>Node5&#45;&gt;Node6</title>
<path fill="none" stroke="midnightblue" d="M344.732,-193.036C302.044,-182.448 246.068,-168.564 205.643,-158.537"/>
<polygon fill="midnightblue" stroke="midnightblue" points="343.904,-196.436 354.452,-195.446 345.589,-189.642 343.904,-196.436"/>
</g>
<!-- Node5&#45;&gt;Node7 -->
<g id="edge13" class="edge"><title>Node5&#45;&gt;Node7</title>
<path fill="none" stroke="midnightblue" d="M417.684,-186.077C421.075,-177.766 424.388,-168.137 426.081,-159 430.344,-135.996 422.877,-109.154 417.31,-93.5662"/>
<polygon fill="midnightblue" stroke="midnightblue" points="414.39,-184.874 413.612,-195.44 420.81,-187.666 414.39,-184.874"/>
</g>
<!-- Node5&#45;&gt;Node10 -->
<g id="edge14" class="edge"><title>Node5&#45;&gt;Node10</title>
<path fill="none" stroke="midnightblue" d="M443.343,-191.061C464.749,-180.767 491.396,-167.951 510.973,-158.537"/>
<polygon fill="midnightblue" stroke="midnightblue" points="441.719,-187.958 434.224,-195.446 444.753,-194.266 441.719,-187.958"/>
</g>
<!-- Node5&#45;&gt;Node12 -->
<g id="edge18" class="edge"><title>Node5&#45;&gt;Node12</title>
<path fill="none" stroke="midnightblue" d="M479.024,-194.066C533.346,-183.167 607.127,-168.363 658.906,-157.975"/>
<polygon fill="midnightblue" stroke="midnightblue" points="478.233,-190.654 469.117,-196.053 479.61,-197.518 478.233,-190.654"/>
</g>
<!-- Node14 -->
<g id="node14" class="node"><title>Node14</title>
<g id="a_node14"><a xlink:href="msg_buffers_8c.html" target="_top" xlink:title="File containing the definitions of all functions related to the message mailboxes. ">
<polygon fill="white" stroke="black" points="293.17,-130.5 293.17,-158.5 416.992,-158.5 416.992,-130.5 293.17,-130.5"/>
<text text-anchor="start" x="301.17" y="-146.5" font-family="Helvetica,sans-Serif" font-size="10.00">rasPi&#45;EmergencyStation</text>
<text text-anchor="middle" x="355.081" y="-136.5" font-family="Helvetica,sans-Serif" font-size="10.00">/msgBuffers.c</text>
</a>
</g>
</g>
<!-- Node5&#45;&gt;Node14 -->
<g id="edge21" class="edge"><title>Node5&#45;&gt;Node14</title>
<path fill="none" stroke="midnightblue" d="M389.758,-187.512C381.854,-177.936 372.741,-166.896 365.842,-158.537"/>
<polygon fill="midnightblue" stroke="midnightblue" points="387.242,-189.962 396.307,-195.446 392.64,-185.506 387.242,-189.962"/>
</g>
<!-- Node6&#45;&gt;Node2 -->
<g id="edge7" class="edge"><title>Node6&#45;&gt;Node2</title>
<path fill="none" stroke="midnightblue" d="M175.125,-165.465C184.582,-174.287 195.61,-184.926 205.081,-195 225.814,-217.053 248.116,-244.434 260.76,-260.341"/>
<polygon fill="midnightblue" stroke="midnightblue" points="177.341,-162.747 167.62,-158.534 172.592,-167.89 177.341,-162.747"/>
</g>
<!-- Node6&#45;&gt;Node3 -->
<g id="edge11" class="edge"><title>Node6&#45;&gt;Node3</title>
<path fill="none" stroke="midnightblue" d="M172.195,-123.091C181.286,-113.383 191.885,-102.065 199.872,-93.5369"/>
<polygon fill="midnightblue" stroke="midnightblue" points="169.587,-120.755 165.306,-130.446 174.696,-125.54 169.587,-120.755"/>
</g>
<!-- Node6&#45;&gt;Node7 -->
<g id="edge8" class="edge"><title>Node6&#45;&gt;Node7</title>
<path fill="none" stroke="midnightblue" d="M216.657,-128.036C260.185,-117.448 317.264,-103.564 358.485,-93.5369"/>
<polygon fill="midnightblue" stroke="midnightblue" points="215.635,-124.682 206.746,-130.446 217.29,-131.484 215.635,-124.682"/>
</g>
<!-- Node9 -->
<g id="node9" class="node"><title>Node9</title>
<g id="a_node9"><a xlink:href="tcp_vehicle_socket_comm_8c.html" target="_top" xlink:title="Vehicle connection server related function definitions. ">
<polygon fill="white" stroke="black" points="0,-65.5 0,-93.5 132.162,-93.5 132.162,-65.5 0,-65.5"/>
<text text-anchor="start" x="8" y="-81.5" font-family="Helvetica,sans-Serif" font-size="10.00">rasPi&#45;EmergencyStation</text>
<text text-anchor="middle" x="66.0811" y="-71.5" font-family="Helvetica,sans-Serif" font-size="10.00">/tcpVehicleSocketComm.c</text>
</a>
</g>
</g>
<!-- Node6&#45;&gt;Node9 -->
<g id="edge12" class="edge"><title>Node6&#45;&gt;Node9</title>
<path fill="none" stroke="midnightblue" d="M126.871,-124.52C113.048,-114.511 96.4442,-102.487 84.0844,-93.5369"/>
<polygon fill="midnightblue" stroke="midnightblue" points="124.902,-127.416 135.055,-130.446 129.008,-121.746 124.902,-127.416"/>
</g>
<!-- Node7&#45;&gt;Node2 -->
<g id="edge9" class="edge"><title>Node7&#45;&gt;Node2</title>
<path fill="none" stroke="midnightblue" d="M340.466,-96.2369C322.459,-103.559 304.93,-114.286 293.081,-130 263.412,-169.348 271.707,-233.115 273.005,-260.417"/>
<polygon fill="midnightblue" stroke="midnightblue" points="341.758,-99.4905 349.899,-92.7099 339.306,-92.9339 341.758,-99.4905"/>
</g>
<!-- Node8 -->
<g id="node8" class="node"><title>Node8</title>
<g id="a_node8"><a xlink:href="station_actions_8c.html" target="_top" xlink:title="FIle containing all the station action definitions. ">
<polygon fill="white" stroke="black" points="350.17,-0.5 350.17,-28.5 473.992,-28.5 473.992,-0.5 350.17,-0.5"/>
<text text-anchor="start" x="358.17" y="-16.5" font-family="Helvetica,sans-Serif" font-size="10.00">rasPi&#45;EmergencyStation</text>
<text text-anchor="middle" x="412.081" y="-6.5" font-family="Helvetica,sans-Serif" font-size="10.00">/stationActions.c</text>
</a>
</g>
</g>
<!-- Node7&#45;&gt;Node8 -->
<g id="edge10" class="edge"><title>Node7&#45;&gt;Node8</title>
<path fill="none" stroke="midnightblue" d="M412.081,-55.1641C412.081,-46.1693 412.081,-36.2205 412.081,-28.5369"/>
<polygon fill="midnightblue" stroke="midnightblue" points="408.581,-55.4463 412.081,-65.4464 415.581,-55.4464 408.581,-55.4463"/>
</g>
<!-- Node10&#45;&gt;Node3 -->
<g id="edge16" class="edge"><title>Node10&#45;&gt;Node3</title>
<path fill="none" stroke="midnightblue" d="M462.817,-128.955C405.586,-117.895 327.799,-102.863 274.116,-92.4884"/>
<polygon fill="midnightblue" stroke="midnightblue" points="462.411,-132.441 472.894,-130.902 463.739,-125.569 462.411,-132.441"/>
</g>
<!-- Node10&#45;&gt;Node7 -->
<g id="edge15" class="edge"><title>Node10&#45;&gt;Node7</title>
<path fill="none" stroke="midnightblue" d="M502.926,-125.922C482.385,-115.652 456.9,-102.909 438.155,-93.5369"/>
<polygon fill="midnightblue" stroke="midnightblue" points="501.464,-129.105 511.974,-130.446 504.595,-122.844 501.464,-129.105"/>
</g>
<!-- Node11 -->
<g id="node11" class="node"><title>Node11</title>
<g id="a_node11"><a xlink:href="tcp_server_socket_comm_8c.html" target="_top" xlink:title="Server connection related function headers. ">
<polygon fill="white" stroke="black" points="492.399,-65.5 492.399,-93.5 621.763,-93.5 621.763,-65.5 492.399,-65.5"/>
<text text-anchor="start" x="500.399" y="-81.5" font-family="Helvetica,sans-Serif" font-size="10.00">rasPi&#45;EmergencyStation</text>
<text text-anchor="middle" x="557.081" y="-71.5" font-family="Helvetica,sans-Serif" font-size="10.00">/tcpServerSocketComm.c</text>
</a>
</g>
</g>
<!-- Node10&#45;&gt;Node11 -->
<g id="edge17" class="edge"><title>Node10&#45;&gt;Node11</title>
<path fill="none" stroke="midnightblue" d="M544.94,-120.756C547.699,-111.608 550.781,-101.389 553.149,-93.5369"/>
<polygon fill="midnightblue" stroke="midnightblue" points="541.554,-119.862 542.018,-130.446 548.256,-121.883 541.554,-119.862"/>
</g>
<!-- Node12&#45;&gt;Node7 -->
<g id="edge19" class="edge"><title>Node12&#45;&gt;Node7</title>
<path fill="none" stroke="midnightblue" d="M648.91,-128.785C595.895,-117.977 524.611,-103.443 474.141,-93.153"/>
<polygon fill="midnightblue" stroke="midnightblue" points="648.424,-132.258 658.922,-130.827 649.823,-125.4 648.424,-132.258"/>
</g>
<!-- Node13 -->
<g id="node13" class="node"><title>Node13</title>
<g id="a_node13"><a xlink:href="mcast_messaging_8c.html" target="_top" xlink:title="FIle containing all the definition of the functions related to multicast communication. ">
<polygon fill="white" stroke="black" points="659.17,-65.5 659.17,-93.5 782.992,-93.5 782.992,-65.5 659.17,-65.5"/>
<text text-anchor="start" x="667.17" y="-81.5" font-family="Helvetica,sans-Serif" font-size="10.00">rasPi&#45;EmergencyStation</text>
<text text-anchor="middle" x="721.081" y="-71.5" font-family="Helvetica,sans-Serif" font-size="10.00">/mcastMessaging.c</text>
</a>
</g>
</g>
<!-- Node12&#45;&gt;Node13 -->
<g id="edge20" class="edge"><title>Node12&#45;&gt;Node13</title>
<path fill="none" stroke="midnightblue" d="M721.081,-120.164C721.081,-111.169 721.081,-101.221 721.081,-93.5369"/>
<polygon fill="midnightblue" stroke="midnightblue" points="717.581,-120.446 721.081,-130.446 724.581,-120.446 717.581,-120.446"/>
</g>
</g>
</svg>
