<?xml version="1.0" encoding="UTF-8" standalone="no"?>
<!DOCTYPE svg PUBLIC "-//W3C//DTD SVG 1.1//EN"
 "http://www.w3.org/Graphics/SVG/1.1/DTD/svg11.dtd">
<!-- Generated by graphviz version 2.38.0 (20140413.2041)
 -->
<!-- Title: structures.h Pages: 1 -->
<svg width="213pt" height="82pt"
 viewBox="0.00 0.00 213.19 82.00" xmlns="http://www.w3.org/2000/svg" xmlns:xlink="http://www.w3.org/1999/xlink">
<g id="graph0" class="graph" transform="scale(1 1) rotate(0) translate(4 78)">
<title>structures.h</title>
<polygon fill="white" stroke="none" points="-4,4 -4,-78 209.194,-78 209.194,4 -4,4"/>
<!-- Node1 -->
<g id="node1" class="node"><title>Node1</title>
<polygon fill="#bfbfbf" stroke="black" points="58.6108,-55.5 58.6108,-73.5 126.852,-73.5 126.852,-55.5 58.6108,-55.5"/>
<text text-anchor="middle" x="92.7314" y="-61.5" font-family="Helvetica,sans-Serif" font-size="10.00">structures.h</text>
</g>
<!-- Node2 -->
<g id="node2" class="node"><title>Node2</title>
<polygon fill="white" stroke="#bfbfbf" points="0,-0.5 0,-18.5 45.4629,-18.5 45.4629,-0.5 0,-0.5"/>
<text text-anchor="middle" x="22.7314" y="-6.5" font-family="Helvetica,sans-Serif" font-size="10.00">stdio.h</text>
</g>
<!-- Node1&#45;&gt;Node2 -->
<g id="edge1" class="edge"><title>Node1&#45;&gt;Node2</title>
<path fill="none" stroke="midnightblue" d="M82.1,-55.4504C71.41,-47.3566 54.6992,-34.7042 41.7267,-24.8822"/>
<polygon fill="midnightblue" stroke="midnightblue" points="43.5483,-21.8713 33.463,-18.6253 39.3228,-27.4521 43.5483,-21.8713"/>
</g>
<!-- Node3 -->
<g id="node3" class="node"><title>Node3</title>
<polygon fill="white" stroke="#bfbfbf" points="63.6035,-0.5 63.6035,-18.5 121.859,-18.5 121.859,-0.5 63.6035,-0.5"/>
<text text-anchor="middle" x="92.7314" y="-6.5" font-family="Helvetica,sans-Serif" font-size="10.00">pthread.h</text>
</g>
<!-- Node1&#45;&gt;Node3 -->
<g id="edge2" class="edge"><title>Node1&#45;&gt;Node3</title>
<path fill="none" stroke="midnightblue" d="M92.7314,-55.2188C92.7314,-48.1769 92.7314,-37.8083 92.7314,-28.8277"/>
<polygon fill="midnightblue" stroke="midnightblue" points="96.2315,-28.5495 92.7314,-18.5496 89.2315,-28.5496 96.2315,-28.5495"/>
</g>
<!-- Node4 -->
<g id="node4" class="node"><title>Node4</title>
<polygon fill="white" stroke="#bfbfbf" points="140.269,-0.5 140.269,-18.5 205.194,-18.5 205.194,-0.5 140.269,-0.5"/>
<text text-anchor="middle" x="172.731" y="-6.5" font-family="Helvetica,sans-Serif" font-size="10.00">netinet/in.h</text>
</g>
<!-- Node1&#45;&gt;Node4 -->
<g id="edge3" class="edge"><title>Node1&#45;&gt;Node4</title>
<path fill="none" stroke="midnightblue" d="M104.882,-55.4504C117.334,-47.201 136.934,-34.2158 151.873,-24.3187"/>
<polygon fill="midnightblue" stroke="midnightblue" points="154.063,-27.0661 160.467,-18.6253 150.197,-21.2305 154.063,-27.0661"/>
</g>
</g>
</svg>
