<?xml version="1.0" encoding="UTF-8" standalone="no"?>
<!DOCTYPE svg PUBLIC "-//W3C//DTD SVG 1.1//EN"
 "http://www.w3.org/Graphics/SVG/1.1/DTD/svg11.dtd">
<!-- Generated by graphviz version 2.38.0 (20140413.2041)
 -->
<!-- Title: MSGQUEUE Pages: 1 -->
<svg width="122pt" height="92pt"
 viewBox="0.00 0.00 122.02 92.00" xmlns="http://www.w3.org/2000/svg" xmlns:xlink="http://www.w3.org/1999/xlink">
<g id="graph0" class="graph" transform="scale(1 1) rotate(0) translate(4 88)">
<title>MSGQUEUE</title>
<polygon fill="white" stroke="none" points="-4,4 -4,-88 118.02,-88 118.02,4 -4,4"/>
<!-- Node1 -->
<g id="node1" class="node"><title>Node1</title>
<polygon fill="#bfbfbf" stroke="black" points="0,-0.5 0,-18.5 74.3398,-18.5 74.3398,-0.5 0,-0.5"/>
<text text-anchor="middle" x="37.1699" y="-6.5" font-family="Helvetica,sans-Serif" font-size="10.00">MSGQUEUE</text>
</g>
<!-- Node1&#45;&gt;Node1 -->
<g id="edge1" class="edge"><title>Node1&#45;&gt;Node1</title>
<path fill="none" stroke="#9a32cd" stroke-dasharray="5,2" d="M84.6227,-14.3972C89.3389,-13.4176 92.3398,-11.7852 92.3398,-9.5 92.3398,-5.84375 84.6573,-3.85852 74.559,-3.54431"/>
<polygon fill="#9a32cd" stroke="#9a32cd" points="84.1381,-10.9288 74.559,-15.4557 84.8703,-17.8904 84.1381,-10.9288"/>
<text text-anchor="middle" x="103.18" y="-6.5" font-family="Helvetica,sans-Serif" font-size="10.00"> next</text>
</g>
<!-- Node2 -->
<g id="node2" class="node"><title>Node2</title>
<g id="a_node2"><a xlink:href="struct_m_e_s_s_a_g_e.html" target="_top" xlink:title="Structure where the messages are stored. ">
<polygon fill="white" stroke="black" points="4.44092,-65.5 4.44092,-83.5 69.8989,-83.5 69.8989,-65.5 4.44092,-65.5"/>
<text text-anchor="middle" x="37.1699" y="-71.5" font-family="Helvetica,sans-Serif" font-size="10.00">MESSAGE</text>
</a>
</g>
</g>
<!-- Node2&#45;&gt;Node1 -->
<g id="edge2" class="edge"><title>Node2&#45;&gt;Node1</title>
<path fill="none" stroke="#9a32cd" stroke-dasharray="5,2" d="M37.1699,-54.9075C37.1699,-42.8146 37.1699,-27.6529 37.1699,-18.539"/>
<polygon fill="#9a32cd" stroke="#9a32cd" points="33.67,-55.2638 37.1699,-65.2639 40.67,-55.2639 33.67,-55.2638"/>
<text text-anchor="middle" x="48.0049" y="-39" font-family="Helvetica,sans-Serif" font-size="10.00"> msg</text>
</g>
</g>
</svg>
