<?xml version="1.0" encoding="UTF-8" standalone="no"?>
<!DOCTYPE svg PUBLIC "-//W3C//DTD SVG 1.1//EN"
 "http://www.w3.org/Graphics/SVG/1.1/DTD/svg11.dtd">
<!-- Generated by graphviz version 2.38.0 (20140413.2041)
 -->
<!-- Title: SA_VEHICLE_ELEM Pages: 1 -->
<svg width="158pt" height="287pt"
 viewBox="0.00 0.00 158.17 287.00" xmlns="http://www.w3.org/2000/svg" xmlns:xlink="http://www.w3.org/1999/xlink">
<g id="graph0" class="graph" transform="scale(1 1) rotate(0) translate(4 283)">
<title>SA_VEHICLE_ELEM</title>
<polygon fill="white" stroke="none" points="-4,4 -4,-283 154.167,-283 154.167,4 -4,4"/>
<!-- Node1 -->
<g id="node1" class="node"><title>Node1</title>
<polygon fill="#bfbfbf" stroke="black" points="0,-0.5 0,-18.5 110.487,-18.5 110.487,-0.5 0,-0.5"/>
<text text-anchor="middle" x="55.2437" y="-6.5" font-family="Helvetica,sans-Serif" font-size="10.00">SA_VEHICLE_ELEM</text>
</g>
<!-- Node1&#45;&gt;Node1 -->
<g id="edge1" class="edge"><title>Node1&#45;&gt;Node1</title>
<path fill="none" stroke="#9a32cd" stroke-dasharray="5,2" d="M120.462,-14.0029C125.43,-13.0029 128.487,-11.502 128.487,-9.5 128.487,-6.375 121.037,-4.4707 110.501,-3.78711"/>
<polygon fill="#9a32cd" stroke="#9a32cd" points="120.006,-10.5325 110.501,-15.2129 120.85,-17.4814 120.006,-10.5325"/>
<text text-anchor="middle" x="139.327" y="-6.5" font-family="Helvetica,sans-Serif" font-size="10.00"> next</text>
</g>
<!-- Node2 -->
<g id="node2" class="node"><title>Node2</title>
<g id="a_node2"><a xlink:href="struct_s_a___v_e_h_i_c_l_e___d_a_t_a.html" target="_top" xlink:title="Structure to store the vehicles connected to the station. ">
<polygon fill="white" stroke="black" points="1.01807,-65.5 1.01807,-83.5 109.469,-83.5 109.469,-65.5 1.01807,-65.5"/>
<text text-anchor="middle" x="55.2437" y="-71.5" font-family="Helvetica,sans-Serif" font-size="10.00">SA_VEHICLE_DATA</text>
</a>
</g>
</g>
<!-- Node2&#45;&gt;Node1 -->
<g id="edge2" class="edge"><title>Node2&#45;&gt;Node1</title>
<path fill="none" stroke="#9a32cd" stroke-dasharray="5,2" d="M55.2437,-54.9075C55.2437,-42.8146 55.2437,-27.6529 55.2437,-18.539"/>
<polygon fill="#9a32cd" stroke="#9a32cd" points="51.7437,-55.2638 55.2437,-65.2639 58.7437,-55.2639 51.7437,-55.2638"/>
<text text-anchor="middle" x="72.1968" y="-39" font-family="Helvetica,sans-Serif" font-size="10.00"> vehicle</text>
</g>
<!-- Node3 -->
<g id="node3" class="node"><title>Node3</title>
<g id="a_node3"><a xlink:href="struct_m_s_g_b_u_f_f.html" target="_top" xlink:title="Message mailbox/buffer main structure. ">
<polygon fill="white" stroke="black" points="22.8003,-130.5 22.8003,-148.5 87.687,-148.5 87.687,-130.5 22.8003,-130.5"/>
<text text-anchor="middle" x="55.2437" y="-136.5" font-family="Helvetica,sans-Serif" font-size="10.00">MSGBUFF</text>
</a>
</g>
</g>
<!-- Node3&#45;&gt;Node2 -->
<g id="edge3" class="edge"><title>Node3&#45;&gt;Node2</title>
<path fill="none" stroke="#9a32cd" stroke-dasharray="5,2" d="M55.2437,-119.907C55.2437,-107.815 55.2437,-92.6529 55.2437,-83.539"/>
<polygon fill="#9a32cd" stroke="#9a32cd" points="51.7437,-120.264 55.2437,-130.264 58.7437,-120.264 51.7437,-120.264"/>
<text text-anchor="middle" x="71.645" y="-104" font-family="Helvetica,sans-Serif" font-size="10.00"> outbox</text>
</g>
<!-- Node4 -->
<g id="node4" class="node"><title>Node4</title>
<g id="a_node4"><a xlink:href="struct_m_s_g_q_u_e_u_e.html" target="_top" xlink:title="Node element structure of the message mailbox/buffer. ">
<polygon fill="white" stroke="black" points="18.0737,-195.5 18.0737,-213.5 92.4136,-213.5 92.4136,-195.5 18.0737,-195.5"/>
<text text-anchor="middle" x="55.2437" y="-201.5" font-family="Helvetica,sans-Serif" font-size="10.00">MSGQUEUE</text>
</a>
</g>
</g>
<!-- Node4&#45;&gt;Node3 -->
<g id="edge4" class="edge"><title>Node4&#45;&gt;Node3</title>
<path fill="none" stroke="#9a32cd" stroke-dasharray="5,2" d="M55.2437,-184.907C55.2437,-172.815 55.2437,-157.653 55.2437,-148.539"/>
<polygon fill="#9a32cd" stroke="#9a32cd" points="51.7437,-185.264 55.2437,-195.264 58.7437,-185.264 51.7437,-185.264"/>
<text text-anchor="middle" x="67.7559" y="-169" font-family="Helvetica,sans-Serif" font-size="10.00"> head</text>
</g>
<!-- Node4&#45;&gt;Node4 -->
<g id="edge5" class="edge"><title>Node4&#45;&gt;Node4</title>
<path fill="none" stroke="#9a32cd" stroke-dasharray="5,2" d="M102.696,-209.397C107.413,-208.418 110.414,-206.785 110.414,-204.5 110.414,-200.844 102.731,-198.859 92.6328,-198.544"/>
<polygon fill="#9a32cd" stroke="#9a32cd" points="102.212,-205.929 92.6328,-210.456 102.944,-212.89 102.212,-205.929"/>
<text text-anchor="middle" x="121.253" y="-201.5" font-family="Helvetica,sans-Serif" font-size="10.00"> next</text>
</g>
<!-- Node5 -->
<g id="node5" class="node"><title>Node5</title>
<g id="a_node5"><a xlink:href="struct_m_e_s_s_a_g_e.html" target="_top" xlink:title="Structure where the messages are stored. ">
<polygon fill="white" stroke="black" points="22.5146,-260.5 22.5146,-278.5 87.9727,-278.5 87.9727,-260.5 22.5146,-260.5"/>
<text text-anchor="middle" x="55.2437" y="-266.5" font-family="Helvetica,sans-Serif" font-size="10.00">MESSAGE</text>
</a>
</g>
</g>
<!-- Node5&#45;&gt;Node4 -->
<g id="edge6" class="edge"><title>Node5&#45;&gt;Node4</title>
<path fill="none" stroke="#9a32cd" stroke-dasharray="5,2" d="M55.2437,-249.907C55.2437,-237.815 55.2437,-222.653 55.2437,-213.539"/>
<polygon fill="#9a32cd" stroke="#9a32cd" points="51.7437,-250.264 55.2437,-260.264 58.7437,-250.264 51.7437,-250.264"/>
<text text-anchor="middle" x="66.0786" y="-234" font-family="Helvetica,sans-Serif" font-size="10.00"> msg</text>
</g>
</g>
</svg>
