<?xml version="1.0" encoding="UTF-8" standalone="no"?>
<!DOCTYPE svg PUBLIC "-//W3C//DTD SVG 1.1//EN"
 "http://www.w3.org/Graphics/SVG/1.1/DTD/svg11.dtd">
<!-- Generated by graphviz version 2.38.0 (20140413.2041)
 -->
<!-- Title: MCM_threadStruct Pages: 1 -->
<svg width="135pt" height="222pt"
 viewBox="0.00 0.00 134.81 222.00" xmlns="http://www.w3.org/2000/svg" xmlns:xlink="http://www.w3.org/1999/xlink">
<g id="graph0" class="graph" transform="scale(1 1) rotate(0) translate(4 218)">
<title>MCM_threadStruct</title>
<polygon fill="white" stroke="none" points="-4,4 -4,-218 130.808,-218 130.808,4 -4,4"/>
<!-- Node1 -->
<g id="node1" class="node"><title>Node1</title>
<polygon fill="#bfbfbf" stroke="black" points="0,-0.5 0,-18.5 99.916,-18.5 99.916,-0.5 0,-0.5"/>
<text text-anchor="middle" x="49.958" y="-6.5" font-family="Helvetica,sans-Serif" font-size="10.00">MCM_threadStruct</text>
</g>
<!-- Node2 -->
<g id="node2" class="node"><title>Node2</title>
<g id="a_node2"><a xlink:href="struct_m_s_g_b_u_f_f.html" target="_top" xlink:title="Message mailbox/buffer main structure. ">
<polygon fill="white" stroke="black" points="17.5146,-65.5 17.5146,-83.5 82.4014,-83.5 82.4014,-65.5 17.5146,-65.5"/>
<text text-anchor="middle" x="49.958" y="-71.5" font-family="Helvetica,sans-Serif" font-size="10.00">MSGBUFF</text>
</a>
</g>
</g>
<!-- Node2&#45;&gt;Node1 -->
<g id="edge1" class="edge"><title>Node2&#45;&gt;Node1</title>
<path fill="none" stroke="#9a32cd" stroke-dasharray="5,2" d="M49.958,-54.9075C49.958,-42.8146 49.958,-27.6529 49.958,-18.539"/>
<polygon fill="#9a32cd" stroke="#9a32cd" points="46.4581,-55.2638 49.958,-65.2639 53.4581,-55.2639 46.4581,-55.2638"/>
<text text-anchor="middle" x="64.0449" y="-39" font-family="Helvetica,sans-Serif" font-size="10.00"> buffer</text>
</g>
<!-- Node3 -->
<g id="node3" class="node"><title>Node3</title>
<g id="a_node3"><a xlink:href="struct_m_s_g_q_u_e_u_e.html" target="_top" xlink:title="Node element structure of the message mailbox/buffer. ">
<polygon fill="white" stroke="black" points="12.7881,-130.5 12.7881,-148.5 87.1279,-148.5 87.1279,-130.5 12.7881,-130.5"/>
<text text-anchor="middle" x="49.958" y="-136.5" font-family="Helvetica,sans-Serif" font-size="10.00">MSGQUEUE</text>
</a>
</g>
</g>
<!-- Node3&#45;&gt;Node2 -->
<g id="edge2" class="edge"><title>Node3&#45;&gt;Node2</title>
<path fill="none" stroke="#9a32cd" stroke-dasharray="5,2" d="M49.958,-119.907C49.958,-107.815 49.958,-92.6529 49.958,-83.539"/>
<polygon fill="#9a32cd" stroke="#9a32cd" points="46.4581,-120.264 49.958,-130.264 53.4581,-120.264 46.4581,-120.264"/>
<text text-anchor="middle" x="62.4702" y="-104" font-family="Helvetica,sans-Serif" font-size="10.00"> head</text>
</g>
<!-- Node3&#45;&gt;Node3 -->
<g id="edge3" class="edge"><title>Node3&#45;&gt;Node3</title>
<path fill="none" stroke="#9a32cd" stroke-dasharray="5,2" d="M97.4108,-144.397C102.127,-143.418 105.128,-141.785 105.128,-139.5 105.128,-135.844 97.4454,-133.859 87.3471,-133.544"/>
<polygon fill="#9a32cd" stroke="#9a32cd" points="96.9262,-140.929 87.3471,-145.456 97.6584,-147.89 96.9262,-140.929"/>
<text text-anchor="middle" x="115.968" y="-136.5" font-family="Helvetica,sans-Serif" font-size="10.00"> next</text>
</g>
<!-- Node4 -->
<g id="node4" class="node"><title>Node4</title>
<g id="a_node4"><a xlink:href="struct_m_e_s_s_a_g_e.html" target="_top" xlink:title="Structure where the messages are stored. ">
<polygon fill="white" stroke="black" points="17.229,-195.5 17.229,-213.5 82.687,-213.5 82.687,-195.5 17.229,-195.5"/>
<text text-anchor="middle" x="49.958" y="-201.5" font-family="Helvetica,sans-Serif" font-size="10.00">MESSAGE</text>
</a>
</g>
</g>
<!-- Node4&#45;&gt;Node3 -->
<g id="edge4" class="edge"><title>Node4&#45;&gt;Node3</title>
<path fill="none" stroke="#9a32cd" stroke-dasharray="5,2" d="M49.958,-184.907C49.958,-172.815 49.958,-157.653 49.958,-148.539"/>
<polygon fill="#9a32cd" stroke="#9a32cd" points="46.4581,-185.264 49.958,-195.264 53.4581,-185.264 46.4581,-185.264"/>
<text text-anchor="middle" x="60.793" y="-169" font-family="Helvetica,sans-Serif" font-size="10.00"> msg</text>
</g>
</g>
</svg>
