<?xml version="1.0" encoding="UTF-8" standalone="no"?>
<!DOCTYPE svg PUBLIC "-//W3C//DTD SVG 1.1//EN"
 "http://www.w3.org/Graphics/SVG/1.1/DTD/svg11.dtd">
<!-- Generated by graphviz version 2.38.0 (20140413.2041)
 -->
<!-- Title: MSGBUFF Pages: 1 -->
<svg width="122pt" height="157pt"
 viewBox="0.00 0.00 122.02 157.00" xmlns="http://www.w3.org/2000/svg" xmlns:xlink="http://www.w3.org/1999/xlink">
<g id="graph0" class="graph" transform="scale(1 1) rotate(0) translate(4 153)">
<title>MSGBUFF</title>
<polygon fill="white" stroke="none" points="-4,4 -4,-153 118.02,-153 118.02,4 -4,4"/>
<!-- Node1 -->
<g id="node1" class="node"><title>Node1</title>
<polygon fill="#bfbfbf" stroke="black" points="4.72656,-0.5 4.72656,-18.5 69.6133,-18.5 69.6133,-0.5 4.72656,-0.5"/>
<text text-anchor="middle" x="37.1699" y="-6.5" font-family="Helvetica,sans-Serif" font-size="10.00">MSGBUFF</text>
</g>
<!-- Node2 -->
<g id="node2" class="node"><title>Node2</title>
<g id="a_node2"><a xlink:href="struct_m_s_g_q_u_e_u_e.html" target="_top" xlink:title="Node element structure of the message mailbox/buffer. ">
<polygon fill="white" stroke="black" points="0,-65.5 0,-83.5 74.3398,-83.5 74.3398,-65.5 0,-65.5"/>
<text text-anchor="middle" x="37.1699" y="-71.5" font-family="Helvetica,sans-Serif" font-size="10.00">MSGQUEUE</text>
</a>
</g>
</g>
<!-- Node2&#45;&gt;Node1 -->
<g id="edge1" class="edge"><title>Node2&#45;&gt;Node1</title>
<path fill="none" stroke="#9a32cd" stroke-dasharray="5,2" d="M37.1699,-54.9075C37.1699,-42.8146 37.1699,-27.6529 37.1699,-18.539"/>
<polygon fill="#9a32cd" stroke="#9a32cd" points="33.67,-55.2638 37.1699,-65.2639 40.67,-55.2639 33.67,-55.2638"/>
<text text-anchor="middle" x="49.6821" y="-39" font-family="Helvetica,sans-Serif" font-size="10.00"> head</text>
</g>
<!-- Node2&#45;&gt;Node2 -->
<g id="edge2" class="edge"><title>Node2&#45;&gt;Node2</title>
<path fill="none" stroke="#9a32cd" stroke-dasharray="5,2" d="M84.6227,-79.3972C89.3389,-78.4176 92.3398,-76.7852 92.3398,-74.5 92.3398,-70.8438 84.6573,-68.8585 74.559,-68.5443"/>
<polygon fill="#9a32cd" stroke="#9a32cd" points="84.1381,-75.9288 74.559,-80.4557 84.8703,-82.8904 84.1381,-75.9288"/>
<text text-anchor="middle" x="103.18" y="-71.5" font-family="Helvetica,sans-Serif" font-size="10.00"> next</text>
</g>
<!-- Node3 -->
<g id="node3" class="node"><title>Node3</title>
<g id="a_node3"><a xlink:href="struct_m_e_s_s_a_g_e.html" target="_top" xlink:title="Structure where the messages are stored. ">
<polygon fill="white" stroke="black" points="4.44092,-130.5 4.44092,-148.5 69.8989,-148.5 69.8989,-130.5 4.44092,-130.5"/>
<text text-anchor="middle" x="37.1699" y="-136.5" font-family="Helvetica,sans-Serif" font-size="10.00">MESSAGE</text>
</a>
</g>
</g>
<!-- Node3&#45;&gt;Node2 -->
<g id="edge3" class="edge"><title>Node3&#45;&gt;Node2</title>
<path fill="none" stroke="#9a32cd" stroke-dasharray="5,2" d="M37.1699,-119.907C37.1699,-107.815 37.1699,-92.6529 37.1699,-83.539"/>
<polygon fill="#9a32cd" stroke="#9a32cd" points="33.67,-120.264 37.1699,-130.264 40.67,-120.264 33.67,-120.264"/>
<text text-anchor="middle" x="48.0049" y="-104" font-family="Helvetica,sans-Serif" font-size="10.00"> msg</text>
</g>
</g>
</svg>
