<?xml version="1.0" encoding="UTF-8" standalone="no"?>
<!DOCTYPE svg PUBLIC "-//W3C//DTD SVG 1.1//EN"
 "http://www.w3.org/Graphics/SVG/1.1/DTD/svg11.dtd">
<!-- Generated by graphviz version 2.38.0 (20140413.2041)
 -->
<!-- Title: SA_VEHICLE_QUEUE Pages: 1 -->
<svg width="162pt" height="352pt"
 viewBox="0.00 0.00 162.33 352.00" xmlns="http://www.w3.org/2000/svg" xmlns:xlink="http://www.w3.org/1999/xlink">
<g id="graph0" class="graph" transform="scale(1 1) rotate(0) translate(4 348)">
<title>SA_VEHICLE_QUEUE</title>
<polygon fill="white" stroke="none" points="-4,4 -4,-348 158.332,-348 158.332,4 -4,4"/>
<!-- Node1 -->
<g id="node1" class="node"><title>Node1</title>
<polygon fill="#bfbfbf" stroke="black" points="0,-0.5 0,-18.5 118.817,-18.5 118.817,-0.5 0,-0.5"/>
<text text-anchor="middle" x="59.4087" y="-6.5" font-family="Helvetica,sans-Serif" font-size="10.00">SA_VEHICLE_QUEUE</text>
</g>
<!-- Node2 -->
<g id="node2" class="node"><title>Node2</title>
<g id="a_node2"><a xlink:href="struct_s_a___v_e_h_i_c_l_e___e_l_e_m.html" target="_top" xlink:title="Node element structure of the vehicle list. ">
<polygon fill="white" stroke="black" points="4.16504,-65.5 4.16504,-83.5 114.652,-83.5 114.652,-65.5 4.16504,-65.5"/>
<text text-anchor="middle" x="59.4087" y="-71.5" font-family="Helvetica,sans-Serif" font-size="10.00">SA_VEHICLE_ELEM</text>
</a>
</g>
</g>
<!-- Node2&#45;&gt;Node1 -->
<g id="edge1" class="edge"><title>Node2&#45;&gt;Node1</title>
<path fill="none" stroke="#9a32cd" stroke-dasharray="5,2" d="M59.4087,-54.9075C59.4087,-42.8146 59.4087,-27.6529 59.4087,-18.539"/>
<polygon fill="#9a32cd" stroke="#9a32cd" points="55.9088,-55.2638 59.4087,-65.2639 62.9088,-55.2639 55.9088,-55.2638"/>
<text text-anchor="middle" x="71.9209" y="-39" font-family="Helvetica,sans-Serif" font-size="10.00"> head</text>
</g>
<!-- Node2&#45;&gt;Node2 -->
<g id="edge2" class="edge"><title>Node2&#45;&gt;Node2</title>
<path fill="none" stroke="#9a32cd" stroke-dasharray="5,2" d="M124.627,-79.0029C129.595,-78.0029 132.652,-76.502 132.652,-74.5 132.652,-71.375 125.202,-69.4707 114.666,-68.7871"/>
<polygon fill="#9a32cd" stroke="#9a32cd" points="124.171,-75.5325 114.666,-80.2129 125.015,-82.4814 124.171,-75.5325"/>
<text text-anchor="middle" x="143.492" y="-71.5" font-family="Helvetica,sans-Serif" font-size="10.00"> next</text>
</g>
<!-- Node3 -->
<g id="node3" class="node"><title>Node3</title>
<g id="a_node3"><a xlink:href="struct_s_a___v_e_h_i_c_l_e___d_a_t_a.html" target="_top" xlink:title="Structure to store the vehicles connected to the station. ">
<polygon fill="white" stroke="black" points="5.18311,-130.5 5.18311,-148.5 113.634,-148.5 113.634,-130.5 5.18311,-130.5"/>
<text text-anchor="middle" x="59.4087" y="-136.5" font-family="Helvetica,sans-Serif" font-size="10.00">SA_VEHICLE_DATA</text>
</a>
</g>
</g>
<!-- Node3&#45;&gt;Node2 -->
<g id="edge3" class="edge"><title>Node3&#45;&gt;Node2</title>
<path fill="none" stroke="#9a32cd" stroke-dasharray="5,2" d="M59.4087,-119.907C59.4087,-107.815 59.4087,-92.6529 59.4087,-83.539"/>
<polygon fill="#9a32cd" stroke="#9a32cd" points="55.9088,-120.264 59.4087,-130.264 62.9088,-120.264 55.9088,-120.264"/>
<text text-anchor="middle" x="76.3618" y="-104" font-family="Helvetica,sans-Serif" font-size="10.00"> vehicle</text>
</g>
<!-- Node4 -->
<g id="node4" class="node"><title>Node4</title>
<g id="a_node4"><a xlink:href="struct_m_s_g_b_u_f_f.html" target="_top" xlink:title="Message mailbox/buffer main structure. ">
<polygon fill="white" stroke="black" points="26.9653,-195.5 26.9653,-213.5 91.8521,-213.5 91.8521,-195.5 26.9653,-195.5"/>
<text text-anchor="middle" x="59.4087" y="-201.5" font-family="Helvetica,sans-Serif" font-size="10.00">MSGBUFF</text>
</a>
</g>
</g>
<!-- Node4&#45;&gt;Node3 -->
<g id="edge4" class="edge"><title>Node4&#45;&gt;Node3</title>
<path fill="none" stroke="#9a32cd" stroke-dasharray="5,2" d="M59.4087,-184.907C59.4087,-172.815 59.4087,-157.653 59.4087,-148.539"/>
<polygon fill="#9a32cd" stroke="#9a32cd" points="55.9088,-185.264 59.4087,-195.264 62.9088,-185.264 55.9088,-185.264"/>
<text text-anchor="middle" x="75.8101" y="-169" font-family="Helvetica,sans-Serif" font-size="10.00"> outbox</text>
</g>
<!-- Node5 -->
<g id="node5" class="node"><title>Node5</title>
<g id="a_node5"><a xlink:href="struct_m_s_g_q_u_e_u_e.html" target="_top" xlink:title="Node element structure of the message mailbox/buffer. ">
<polygon fill="white" stroke="black" points="22.2388,-260.5 22.2388,-278.5 96.5786,-278.5 96.5786,-260.5 22.2388,-260.5"/>
<text text-anchor="middle" x="59.4087" y="-266.5" font-family="Helvetica,sans-Serif" font-size="10.00">MSGQUEUE</text>
</a>
</g>
</g>
<!-- Node5&#45;&gt;Node4 -->
<g id="edge5" class="edge"><title>Node5&#45;&gt;Node4</title>
<path fill="none" stroke="#9a32cd" stroke-dasharray="5,2" d="M59.4087,-249.907C59.4087,-237.815 59.4087,-222.653 59.4087,-213.539"/>
<polygon fill="#9a32cd" stroke="#9a32cd" points="55.9088,-250.264 59.4087,-260.264 62.9088,-250.264 55.9088,-250.264"/>
<text text-anchor="middle" x="71.9209" y="-234" font-family="Helvetica,sans-Serif" font-size="10.00"> head</text>
</g>
<!-- Node5&#45;&gt;Node5 -->
<g id="edge6" class="edge"><title>Node5&#45;&gt;Node5</title>
<path fill="none" stroke="#9a32cd" stroke-dasharray="5,2" d="M106.861,-274.397C111.578,-273.418 114.579,-271.785 114.579,-269.5 114.579,-265.844 106.896,-263.859 96.7978,-263.544"/>
<polygon fill="#9a32cd" stroke="#9a32cd" points="106.377,-270.929 96.7978,-275.456 107.109,-277.89 106.377,-270.929"/>
<text text-anchor="middle" x="125.418" y="-266.5" font-family="Helvetica,sans-Serif" font-size="10.00"> next</text>
</g>
<!-- Node6 -->
<g id="node6" class="node"><title>Node6</title>
<g id="a_node6"><a xlink:href="struct_m_e_s_s_a_g_e.html" target="_top" xlink:title="Structure where the messages are stored. ">
<polygon fill="white" stroke="black" points="26.6797,-325.5 26.6797,-343.5 92.1377,-343.5 92.1377,-325.5 26.6797,-325.5"/>
<text text-anchor="middle" x="59.4087" y="-331.5" font-family="Helvetica,sans-Serif" font-size="10.00">MESSAGE</text>
</a>
</g>
</g>
<!-- Node6&#45;&gt;Node5 -->
<g id="edge7" class="edge"><title>Node6&#45;&gt;Node5</title>
<path fill="none" stroke="#9a32cd" stroke-dasharray="5,2" d="M59.4087,-314.907C59.4087,-302.815 59.4087,-287.653 59.4087,-278.539"/>
<polygon fill="#9a32cd" stroke="#9a32cd" points="55.9088,-315.264 59.4087,-325.264 62.9088,-315.264 55.9088,-315.264"/>
<text text-anchor="middle" x="70.2437" y="-299" font-family="Helvetica,sans-Serif" font-size="10.00"> msg</text>
</g>
</g>
</svg>
