<?xml version="1.0" encoding="UTF-8" standalone="no"?>
<!DOCTYPE svg PUBLIC "-//W3C//DTD SVG 1.1//EN"
 "http://www.w3.org/Graphics/SVG/1.1/DTD/svg11.dtd">
<!-- Generated by graphviz version 2.38.0 (20140413.2041)
 -->
<!-- Title: VSC_shutdownVehicleServer Pages: 1 -->
<svg width="399pt" height="27pt"
 viewBox="0.00 0.00 399.26 27.00" xmlns="http://www.w3.org/2000/svg" xmlns:xlink="http://www.w3.org/1999/xlink">
<g id="graph0" class="graph" transform="scale(1 1) rotate(0) translate(4 23)">
<title>VSC_shutdownVehicleServer</title>
<polygon fill="white" stroke="none" points="-4,4 -4,-23 395.265,-23 395.265,4 -4,4"/>
<!-- Node1 -->
<g id="node1" class="node"><title>Node1</title>
<polygon fill="#bfbfbf" stroke="black" points="0,-0.5 0,-18.5 146.635,-18.5 146.635,-0.5 0,-0.5"/>
<text text-anchor="middle" x="73.3174" y="-6.5" font-family="Helvetica,sans-Serif" font-size="10.00">VSC_shutdownVehicleServer</text>
</g>
<!-- Node2 -->
<g id="node2" class="node"><title>Node2</title>
<g id="a_node2"><a xlink:href="main_8c.html#ae346112f7679ae0199c3158f6624fd8b" target="_top" xlink:title="Thread for controlling the vehicle server initialization and shutdown. ">
<polygon fill="white" stroke="black" points="182.635,-0.5 182.635,-18.5 317.59,-18.5 317.59,-0.5 182.635,-0.5"/>
<text text-anchor="middle" x="250.112" y="-6.5" font-family="Helvetica,sans-Serif" font-size="10.00">vehicleConnControlThread</text>
</a>
</g>
</g>
<!-- Node1&#45;&gt;Node2 -->
<g id="edge1" class="edge"><title>Node1&#45;&gt;Node2</title>
<path fill="none" stroke="midnightblue" d="M156.73,-9.5C165.337,-9.5 174.01,-9.5 182.411,-9.5"/>
<polygon fill="midnightblue" stroke="midnightblue" points="156.675,-6.0001 146.675,-9.5 156.675,-13.0001 156.675,-6.0001"/>
</g>
<!-- Node3 -->
<g id="node3" class="node"><title>Node3</title>
<g id="a_node3"><a xlink:href="main_8c.html#ac0f2228420376f4db7e1274f2b41667c" target="_top" xlink:title="main">
<polygon fill="white" stroke="black" points="353.59,-0.5 353.59,-18.5 391.265,-18.5 391.265,-0.5 353.59,-0.5"/>
<text text-anchor="middle" x="372.427" y="-6.5" font-family="Helvetica,sans-Serif" font-size="10.00">main</text>
</a>
</g>
</g>
<!-- Node2&#45;&gt;Node3 -->
<g id="edge2" class="edge"><title>Node2&#45;&gt;Node3</title>
<path fill="none" stroke="midnightblue" d="M327.733,-9.5C337.287,-9.5 346.24,-9.5 353.525,-9.5"/>
<polygon fill="midnightblue" stroke="midnightblue" points="327.604,-6.0001 317.604,-9.5 327.604,-13.0001 327.604,-6.0001"/>
</g>
</g>
</svg>
