<?xml version="1.0" encoding="UTF-8" standalone="no"?>
<!DOCTYPE svg PUBLIC "-//W3C//DTD SVG 1.1//EN"
 "http://www.w3.org/Graphics/SVG/1.1/DTD/svg11.dtd">
<!-- Generated by graphviz version 2.38.0 (20140413.2041)
 -->
<!-- Title: VSC_inboundHandlerThreadFunc Pages: 1 -->
<svg width="503pt" height="118pt"
 viewBox="0.00 0.00 503.21 117.85" xmlns="http://www.w3.org/2000/svg" xmlns:xlink="http://www.w3.org/1999/xlink">
<g id="graph0" class="graph" transform="scale(1 1) rotate(0) translate(4 113.849)">
<title>VSC_inboundHandlerThreadFunc</title>
<polygon fill="white" stroke="none" points="-4,4 -4,-113.849 499.21,-113.849 499.21,4 -4,4"/>
<!-- Node1 -->
<g id="node1" class="node"><title>Node1</title>
<polygon fill="#bfbfbf" stroke="black" points="0,-35.3493 0,-53.3493 166.649,-53.3493 166.649,-35.3493 0,-35.3493"/>
<text text-anchor="middle" x="83.3247" y="-41.3493" font-family="Helvetica,sans-Serif" font-size="10.00">VSC_inboundHandlerThreadFunc</text>
</g>
<!-- Node2 -->
<g id="node2" class="node"><title>Node2</title>
<g id="a_node2"><a xlink:href="message_parser_8c.html#a1e095af9fe3f1bd7c5a708d797e52bb9" target="_top" xlink:title="Message decoupler and receiver function. ">
<polygon fill="white" stroke="black" points="226.844,-91.3493 226.844,-109.349 343.439,-109.349 343.439,-91.3493 226.844,-91.3493"/>
<text text-anchor="middle" x="285.142" y="-97.3493" font-family="Helvetica,sans-Serif" font-size="10.00">MP_messageReceiver</text>
</a>
</g>
</g>
<!-- Node1&#45;&gt;Node2 -->
<g id="edge1" class="edge"><title>Node1&#45;&gt;Node2</title>
<path fill="none" stroke="midnightblue" d="M109.97,-53.3507C133.799,-61.5312 170.366,-73.6205 202.649,-82.3493 211.287,-84.6849 220.5,-86.9411 229.508,-89.0204"/>
<polygon fill="midnightblue" stroke="midnightblue" points="229.024,-92.4991 239.549,-91.2875 230.566,-85.671 229.024,-92.4991"/>
</g>
<!-- Node4 -->
<g id="node4" class="node"><title>Node4</title>
<g id="a_node4"><a xlink:href="msg_buffers_8c.html#a94d8920e20c5150892cf23b81eb1dfd6" target="_top" xlink:title="Put a message into the buffer. ">
<polygon fill="white" stroke="black" points="403.902,-16.3493 403.902,-34.3493 494.941,-34.3493 494.941,-16.3493 403.902,-16.3493"/>
<text text-anchor="middle" x="449.422" y="-22.3493" font-family="Helvetica,sans-Serif" font-size="10.00">MB_putMessage</text>
</a>
</g>
</g>
<!-- Node1&#45;&gt;Node4 -->
<g id="edge3" class="edge"><title>Node1&#45;&gt;Node4</title>
<path fill="none" stroke="midnightblue" d="M106.095,-35.3449C129.481,-26.1973 167.968,-12.6453 202.649,-7.34932 275.136,3.71957 294.747,0.672058 367.634,-7.34932 380.132,-8.72476 393.524,-11.2628 405.74,-14.008"/>
<polygon fill="midnightblue" stroke="midnightblue" points="405.143,-17.4631 415.678,-16.3418 406.743,-10.6484 405.143,-17.4631"/>
</g>
<!-- Node5 -->
<g id="node5" class="node"><title>Node5</title>
<g id="a_node5"><a xlink:href="station_actions_8c.html#aeca7876f4e4aa4da84f9d5598995916c" target="_top" xlink:title="Search a vehicle by it&#39;s inbox handling thread. ">
<polygon fill="white" stroke="black" points="202.649,-17.3493 202.649,-35.3493 367.634,-35.3493 367.634,-17.3493 202.649,-17.3493"/>
<text text-anchor="middle" x="285.142" y="-23.3493" font-family="Helvetica,sans-Serif" font-size="10.00">SA_searchVehicleByInboxThread</text>
</a>
</g>
</g>
<!-- Node1&#45;&gt;Node5 -->
<g id="edge4" class="edge"><title>Node1&#45;&gt;Node5</title>
<path fill="none" stroke="midnightblue" d="M166.752,-36.9241C175.251,-36.1585 183.925,-35.3771 192.516,-34.6032"/>
<polygon fill="midnightblue" stroke="midnightblue" points="192.903,-38.0826 202.549,-33.6994 192.275,-31.1108 192.903,-38.0826"/>
</g>
<!-- Node6 -->
<g id="node6" class="node"><title>Node6</title>
<g id="a_node6"><a xlink:href="station_actions_8c.html#a62de0824fbc9e952d2f17577d16d38d1" target="_top" xlink:title="Send the vehicle disconnected message to the server. ">
<polygon fill="white" stroke="black" points="217.107,-54.3493 217.107,-72.3493 353.176,-72.3493 353.176,-54.3493 217.107,-54.3493"/>
<text text-anchor="middle" x="285.142" y="-60.3493" font-family="Helvetica,sans-Serif" font-size="10.00">SA_sendDisconnectedMsg</text>
</a>
</g>
</g>
<!-- Node1&#45;&gt;Node6 -->
<g id="edge5" class="edge"><title>Node1&#45;&gt;Node6</title>
<path fill="none" stroke="midnightblue" d="M166.752,-52.187C179.9,-53.4373 193.465,-54.7271 206.497,-55.9664"/>
<polygon fill="midnightblue" stroke="midnightblue" points="206.531,-59.4852 216.817,-56.9476 207.193,-52.5166 206.531,-59.4852"/>
</g>
<!-- Node3 -->
<g id="node3" class="node"><title>Node3</title>
<g id="a_node3"><a xlink:href="message_parser_8c.html#a0026bd717404e4c2f9df87d137721377" target="_top" xlink:title="Message structure initializer. ">
<polygon fill="white" stroke="black" points="403.634,-72.3493 403.634,-90.3493 495.21,-90.3493 495.21,-72.3493 403.634,-72.3493"/>
<text text-anchor="middle" x="449.422" y="-78.3493" font-family="Helvetica,sans-Serif" font-size="10.00">MP_initMsgStruc</text>
</a>
</g>
</g>
<!-- Node2&#45;&gt;Node3 -->
<g id="edge2" class="edge"><title>Node2&#45;&gt;Node3</title>
<path fill="none" stroke="midnightblue" d="M343.812,-93.5971C359.88,-91.7159 377.291,-89.6775 393.213,-87.8133"/>
<polygon fill="midnightblue" stroke="midnightblue" points="393.906,-91.2561 403.432,-86.6168 393.092,-84.3035 393.906,-91.2561"/>
</g>
<!-- Node6&#45;&gt;Node3 -->
<g id="edge6" class="edge"><title>Node6&#45;&gt;Node3</title>
<path fill="none" stroke="midnightblue" d="M353.553,-70.8266C366.746,-72.2899 380.438,-73.8086 393.178,-75.2217"/>
<polygon fill="midnightblue" stroke="midnightblue" points="392.839,-78.7055 403.164,-76.3293 393.611,-71.7482 392.839,-78.7055"/>
</g>
<!-- Node6&#45;&gt;Node4 -->
<g id="edge7" class="edge"><title>Node6&#45;&gt;Node4</title>
<path fill="none" stroke="midnightblue" d="M328.064,-54.3023C340.788,-51.4991 354.796,-48.3557 367.634,-45.3493 379.059,-42.6738 391.365,-39.683 402.844,-36.8464"/>
<polygon fill="midnightblue" stroke="midnightblue" points="403.814,-40.2119 412.676,-34.405 402.127,-33.4183 403.814,-40.2119"/>
</g>
</g>
</svg>
