<?xml version="1.0" encoding="UTF-8" standalone="no"?>
<!DOCTYPE svg PUBLIC "-//W3C//DTD SVG 1.1//EN"
 "http://www.w3.org/Graphics/SVG/1.1/DTD/svg11.dtd">
<!-- Generated by graphviz version 2.38.0 (20140413.2041)
 -->
<!-- Title: rasPi&#45;EmergencyStation/tcpServerSocketComm.c Pages: 1 -->
<svg width="1186pt" height="422pt"
 viewBox="0.00 0.00 1186.00 422.00" xmlns="http://www.w3.org/2000/svg" xmlns:xlink="http://www.w3.org/1999/xlink">
<g id="graph0" class="graph" transform="scale(1 1) rotate(0) translate(4 418)">
<title>rasPi&#45;EmergencyStation/tcpServerSocketComm.c</title>
<polygon fill="white" stroke="none" points="-4,4 -4,-418 1182,-418 1182,4 -4,4"/>
<!-- Node1 -->
<g id="node1" class="node"><title>Node1</title>
<polygon fill="#bfbfbf" stroke="black" points="596.318,-385.5 596.318,-413.5 725.682,-413.5 725.682,-385.5 596.318,-385.5"/>
<text text-anchor="start" x="604.318" y="-401.5" font-family="Helvetica,sans-Serif" font-size="10.00">rasPi&#45;EmergencyStation</text>
<text text-anchor="middle" x="661" y="-391.5" font-family="Helvetica,sans-Serif" font-size="10.00">/tcpServerSocketComm.c</text>
</g>
<!-- Node2 -->
<g id="node2" class="node"><title>Node2</title>
<g id="a_node2"><a xlink:href="tcp_server_socket_comm_8h.html" target="_top" xlink:title="Server connection related function definitions. ">
<polygon fill="white" stroke="black" points="597.426,-330.5 597.426,-348.5 724.574,-348.5 724.574,-330.5 597.426,-330.5"/>
<text text-anchor="middle" x="661" y="-336.5" font-family="Helvetica,sans-Serif" font-size="10.00">tcpServerSocketComm.h</text>
</a>
</g>
</g>
<!-- Node1&#45;&gt;Node2 -->
<g id="edge1" class="edge"><title>Node1&#45;&gt;Node2</title>
<path fill="none" stroke="midnightblue" d="M661,-385.339C661,-377.531 661,-367.512 661,-358.927"/>
<polygon fill="midnightblue" stroke="midnightblue" points="664.5,-358.771 661,-348.771 657.5,-358.772 664.5,-358.771"/>
</g>
<!-- Node3 -->
<g id="node3" class="node"><title>Node3</title>
<polygon fill="white" stroke="#bfbfbf" points="440.269,-0.5 440.269,-18.5 485.731,-18.5 485.731,-0.5 440.269,-0.5"/>
<text text-anchor="middle" x="463" y="-6.5" font-family="Helvetica,sans-Serif" font-size="10.00">stdio.h</text>
</g>
<!-- Node2&#45;&gt;Node3 -->
<g id="edge2" class="edge"><title>Node2&#45;&gt;Node3</title>
<path fill="none" stroke="midnightblue" d="M596.992,-336.348C474.288,-331.706 210.381,-319.084 123,-294 63.8664,-277.025 0,-292.022 0,-230.5 0,-230.5 0,-230.5 0,-118.5 0,-82.579 18.5726,-72.3964 50,-55 115.121,-18.9529 343.745,-12.105 429.856,-10.8046"/>
<polygon fill="midnightblue" stroke="midnightblue" points="430.148,-14.3011 440.099,-10.6664 430.053,-7.30177 430.148,-14.3011"/>
</g>
<!-- Node4 -->
<g id="node4" class="node"><title>Node4</title>
<polygon fill="white" stroke="#bfbfbf" points="689.158,-55.5 689.158,-73.5 736.842,-73.5 736.842,-55.5 689.158,-55.5"/>
<text text-anchor="middle" x="713" y="-61.5" font-family="Helvetica,sans-Serif" font-size="10.00">stdlib.h</text>
</g>
<!-- Node2&#45;&gt;Node4 -->
<g id="edge3" class="edge"><title>Node2&#45;&gt;Node4</title>
<path fill="none" stroke="midnightblue" d="M724.722,-336.376C759.052,-331.905 799.65,-320.726 826,-294 843.709,-276.038 836.637,-263.999 840,-239 844.385,-206.402 855.455,-194.545 841,-165 829.58,-141.659 768.047,-100.227 734.63,-78.9426"/>
<polygon fill="midnightblue" stroke="midnightblue" points="736.34,-75.883 726.016,-73.5053 732.604,-81.8025 736.34,-75.883"/>
</g>
<!-- Node5 -->
<g id="node5" class="node"><title>Node5</title>
<polygon fill="white" stroke="#bfbfbf" points="383.488,-55.5 383.488,-73.5 434.512,-73.5 434.512,-55.5 383.488,-55.5"/>
<text text-anchor="middle" x="409" y="-61.5" font-family="Helvetica,sans-Serif" font-size="10.00">unistd.h</text>
</g>
<!-- Node2&#45;&gt;Node5 -->
<g id="edge4" class="edge"><title>Node2&#45;&gt;Node5</title>
<path fill="none" stroke="midnightblue" d="M597.109,-335.788C476.663,-328.924 228,-305.652 228,-230.5 228,-230.5 228,-230.5 228,-173.5 228,-139.209 325.014,-97.241 376.992,-77.2164"/>
<polygon fill="midnightblue" stroke="midnightblue" points="378.337,-80.4494 386.442,-73.626 375.851,-73.9057 378.337,-80.4494"/>
</g>
<!-- Node6 -->
<g id="node6" class="node"><title>Node6</title>
<polygon fill="white" stroke="#bfbfbf" points="133.604,-55.5 133.604,-73.5 182.396,-73.5 182.396,-55.5 133.604,-55.5"/>
<text text-anchor="middle" x="158" y="-61.5" font-family="Helvetica,sans-Serif" font-size="10.00">string.h</text>
</g>
<!-- Node2&#45;&gt;Node6 -->
<g id="edge5" class="edge"><title>Node2&#45;&gt;Node6</title>
<path fill="none" stroke="midnightblue" d="M597.182,-339.16C452.889,-338.935 114,-328.025 114,-230.5 114,-230.5 114,-230.5 114,-173.5 114,-139.068 133.418,-102.721 146.455,-82.1988"/>
<polygon fill="midnightblue" stroke="midnightblue" points="149.472,-83.982 152.066,-73.7097 143.632,-80.1221 149.472,-83.982"/>
</g>
<!-- Node7 -->
<g id="node7" class="node"><title>Node7</title>
<polygon fill="white" stroke="#bfbfbf" points="818.537,-0.5 818.537,-18.5 883.463,-18.5 883.463,-0.5 818.537,-0.5"/>
<text text-anchor="middle" x="851" y="-6.5" font-family="Helvetica,sans-Serif" font-size="10.00">netinet/in.h</text>
</g>
<!-- Node2&#45;&gt;Node7 -->
<g id="edge6" class="edge"><title>Node2&#45;&gt;Node7</title>
<path fill="none" stroke="midnightblue" d="M724.653,-338.417C862.843,-336.516 1178,-322.137 1178,-230.5 1178,-230.5 1178,-230.5 1178,-173.5 1178,-92.6572 1112.06,-91.6399 1040,-55 993.245,-31.228 933.506,-19.914 893.837,-14.696"/>
<polygon fill="midnightblue" stroke="midnightblue" points="894.062,-11.1971 883.707,-13.4386 893.2,-18.1438 894.062,-11.1971"/>
</g>
<!-- Node8 -->
<g id="node8" class="node"><title>Node8</title>
<polygon fill="white" stroke="#bfbfbf" points="599.372,-55.5 599.372,-73.5 662.628,-73.5 662.628,-55.5 599.372,-55.5"/>
<text text-anchor="middle" x="631" y="-61.5" font-family="Helvetica,sans-Serif" font-size="10.00">arpa/inet.h</text>
</g>
<!-- Node2&#45;&gt;Node8 -->
<g id="edge7" class="edge"><title>Node2&#45;&gt;Node8</title>
<path fill="none" stroke="midnightblue" d="M663.406,-330.456C668.519,-312.631 680,-268.386 680,-230.5 680,-230.5 680,-230.5 680,-173.5 680,-138.326 658.179,-102.002 643.661,-81.7265"/>
<polygon fill="midnightblue" stroke="midnightblue" points="646.389,-79.5306 637.608,-73.602 640.776,-83.7124 646.389,-79.5306"/>
</g>
<!-- Node9 -->
<g id="node9" class="node"><title>Node9</title>
<polygon fill="white" stroke="#bfbfbf" points="294.49,-55.5 294.49,-73.5 365.51,-73.5 365.51,-55.5 294.49,-55.5"/>
<text text-anchor="middle" x="330" y="-61.5" font-family="Helvetica,sans-Serif" font-size="10.00">sys/socket.h</text>
</g>
<!-- Node2&#45;&gt;Node9 -->
<g id="edge8" class="edge"><title>Node2&#45;&gt;Node9</title>
<path fill="none" stroke="midnightblue" d="M597.131,-337.726C499.087,-335.491 317.045,-326.893 262,-294 209.488,-262.62 190.849,-221.624 214,-165 230.779,-123.959 275.081,-94.101 303.824,-78.3139"/>
<polygon fill="midnightblue" stroke="midnightblue" points="305.712,-81.2749 312.913,-73.5036 302.437,-75.088 305.712,-81.2749"/>
</g>
<!-- Node10 -->
<g id="node10" class="node"><title>Node10</title>
<polygon fill="white" stroke="#bfbfbf" points="66.3179,-55.5 66.3179,-73.5 115.682,-73.5 115.682,-55.5 66.3179,-55.5"/>
<text text-anchor="middle" x="91" y="-61.5" font-family="Helvetica,sans-Serif" font-size="10.00">netdb.h</text>
</g>
<!-- Node2&#45;&gt;Node10 -->
<g id="edge9" class="edge"><title>Node2&#45;&gt;Node10</title>
<path fill="none" stroke="midnightblue" d="M597.391,-336.002C468.616,-330.511 186.02,-316.091 148,-294 75.3251,-251.773 82.6141,-130.012 88.3047,-83.6866"/>
<polygon fill="midnightblue" stroke="midnightblue" points="91.7931,-84.0079 89.6674,-73.6285 84.8564,-83.068 91.7931,-84.0079"/>
</g>
<!-- Node11 -->
<g id="node11" class="node"><title>Node11</title>
<g id="a_node11"><a xlink:href="structures_8h.html" target="_top" xlink:title="File containing all the structure definitions used in the other modules. ">
<polygon fill="white" stroke="black" points="962.879,-55.5 962.879,-73.5 1031.12,-73.5 1031.12,-55.5 962.879,-55.5"/>
<text text-anchor="middle" x="997" y="-61.5" font-family="Helvetica,sans-Serif" font-size="10.00">structures.h</text>
</a>
</g>
</g>
<!-- Node2&#45;&gt;Node11 -->
<g id="edge10" class="edge"><title>Node2&#45;&gt;Node11</title>
<path fill="none" stroke="midnightblue" d="M724.857,-334.595C838.492,-325.883 1064,-299.856 1064,-230.5 1064,-230.5 1064,-230.5 1064,-173.5 1064,-135.684 1033.97,-100.096 1014.12,-80.7022"/>
<polygon fill="midnightblue" stroke="midnightblue" points="1016.29,-77.9358 1006.6,-73.6449 1011.5,-83.0402 1016.29,-77.9358"/>
</g>
<!-- Node13 -->
<g id="node13" class="node"><title>Node13</title>
<g id="a_node13"><a xlink:href="msg_buffers_8h.html" target="_top" xlink:title="File containing the headers of all functions related to the message mailboxes. ">
<polygon fill="white" stroke="black" points="720.632,-275.5 720.632,-293.5 795.368,-293.5 795.368,-275.5 720.632,-275.5"/>
<text text-anchor="middle" x="758" y="-281.5" font-family="Helvetica,sans-Serif" font-size="10.00">msgBuffers.h</text>
</a>
</g>
</g>
<!-- Node2&#45;&gt;Node13 -->
<g id="edge14" class="edge"><title>Node2&#45;&gt;Node13</title>
<path fill="none" stroke="midnightblue" d="M675.732,-330.45C691.258,-321.968 715.948,-308.477 734.233,-298.486"/>
<polygon fill="midnightblue" stroke="midnightblue" points="736.032,-301.492 743.129,-293.625 732.675,-295.349 736.032,-301.492"/>
</g>
<!-- Node15 -->
<g id="node15" class="node"><title>Node15</title>
<g id="a_node15"><a xlink:href="message_parser_8h.html" target="_top" xlink:title="Message parser function headers. ">
<polygon fill="white" stroke="black" points="557.089,-220.5 557.089,-238.5 650.911,-238.5 650.911,-220.5 557.089,-220.5"/>
<text text-anchor="middle" x="604" y="-226.5" font-family="Helvetica,sans-Serif" font-size="10.00">messageParser.h</text>
</a>
</g>
</g>
<!-- Node2&#45;&gt;Node15 -->
<g id="edge62" class="edge"><title>Node2&#45;&gt;Node15</title>
<path fill="none" stroke="midnightblue" d="M656.716,-330.382C647.473,-312.869 625.49,-271.218 613.027,-247.605"/>
<polygon fill="midnightblue" stroke="midnightblue" points="616.097,-245.922 608.334,-238.712 609.906,-249.189 616.097,-245.922"/>
</g>
<!-- Node11&#45;&gt;Node3 -->
<g id="edge11" class="edge"><title>Node11&#45;&gt;Node3</title>
<path fill="none" stroke="midnightblue" d="M962.788,-56.4014C959.822,-55.888 956.862,-55.4115 954,-55 782.661,-30.3701 575.608,-16.8832 496.199,-12.3047"/>
<polygon fill="midnightblue" stroke="midnightblue" points="496.041,-8.79016 485.858,-11.7175 495.644,-15.7789 496.041,-8.79016"/>
</g>
<!-- Node11&#45;&gt;Node7 -->
<g id="edge13" class="edge"><title>Node11&#45;&gt;Node7</title>
<path fill="none" stroke="midnightblue" d="M974.826,-55.4504C950.386,-46.5784 910.857,-32.2288 883.048,-22.134"/>
<polygon fill="midnightblue" stroke="midnightblue" points="883.977,-18.7477 873.383,-18.6253 881.588,-25.3276 883.977,-18.7477"/>
</g>
<!-- Node12 -->
<g id="node12" class="node"><title>Node12</title>
<polygon fill="white" stroke="#bfbfbf" points="1091.87,-0.5 1091.87,-18.5 1150.13,-18.5 1150.13,-0.5 1091.87,-0.5"/>
<text text-anchor="middle" x="1121" y="-6.5" font-family="Helvetica,sans-Serif" font-size="10.00">pthread.h</text>
</g>
<!-- Node11&#45;&gt;Node12 -->
<g id="edge12" class="edge"><title>Node11&#45;&gt;Node12</title>
<path fill="none" stroke="midnightblue" d="M1015.83,-55.4504C1036.23,-46.734 1068.99,-32.7306 1092.53,-22.6691"/>
<polygon fill="midnightblue" stroke="midnightblue" points="1094.17,-25.774 1101.99,-18.6253 1091.42,-19.3373 1094.17,-25.774"/>
</g>
<!-- Node13&#45;&gt;Node3 -->
<g id="edge15" class="edge"><title>Node13&#45;&gt;Node3</title>
<path fill="none" stroke="midnightblue" d="M720.574,-281.663C631.303,-276.204 400.12,-255.68 223,-184 140.958,-150.798 98.8708,-151.975 57,-74 53.0051,-66.5603 51.3635,-61.288 57,-55 81.7837,-27.3514 337.803,-15.1566 430.077,-11.6362"/>
<polygon fill="midnightblue" stroke="midnightblue" points="430.38,-15.1275 440.243,-11.2584 430.12,-8.13228 430.38,-15.1275"/>
</g>
<!-- Node13&#45;&gt;Node11 -->
<g id="edge18" class="edge"><title>Node13&#45;&gt;Node11</title>
<path fill="none" stroke="midnightblue" d="M779.397,-275.388C824.777,-256.986 930.632,-207.485 981,-129 989.738,-115.383 993.706,-97.2823 995.506,-83.8907"/>
<polygon fill="midnightblue" stroke="midnightblue" points="999.027,-83.8778 996.596,-73.5656 992.066,-83.143 999.027,-83.8778"/>
</g>
<!-- Node13&#45;&gt;Node12 -->
<g id="edge16" class="edge"><title>Node13&#45;&gt;Node12</title>
<path fill="none" stroke="midnightblue" d="M788.872,-275.443C815.074,-267.948 853.209,-255.461 884,-239 987.448,-183.695 1020.2,-168.277 1090,-74 1100.48,-59.8406 1108.96,-41.5844 1114.38,-28.2836"/>
<polygon fill="midnightblue" stroke="midnightblue" points="1117.69,-29.4404 1118.06,-18.852 1111.17,-26.8995 1117.69,-29.4404"/>
</g>
<!-- Node14 -->
<g id="node14" class="node"><title>Node14</title>
<polygon fill="white" stroke="#bfbfbf" points="746.214,-220.5 746.214,-238.5 797.786,-238.5 797.786,-220.5 746.214,-220.5"/>
<text text-anchor="middle" x="772" y="-226.5" font-family="Helvetica,sans-Serif" font-size="10.00">assert.h</text>
</g>
<!-- Node13&#45;&gt;Node14 -->
<g id="edge17" class="edge"><title>Node13&#45;&gt;Node14</title>
<path fill="none" stroke="midnightblue" d="M760.188,-275.219C762.089,-268.02 764.909,-257.346 767.316,-248.231"/>
<polygon fill="midnightblue" stroke="midnightblue" points="770.704,-249.112 769.874,-238.55 763.936,-247.324 770.704,-249.112"/>
</g>
<!-- Node13&#45;&gt;Node15 -->
<g id="edge19" class="edge"><title>Node13&#45;&gt;Node15</title>
<path fill="none" stroke="midnightblue" d="M729.601,-275.45C701.76,-266.578 659.835,-252.229 632.105,-242.134"/>
<polygon fill="midnightblue" stroke="midnightblue" points="633.176,-238.799 622.583,-238.625 630.756,-245.367 633.176,-238.799"/>
</g>
<!-- Node15&#45;&gt;Node3 -->
<g id="edge20" class="edge"><title>Node15&#45;&gt;Node3</title>
<path fill="none" stroke="midnightblue" d="M557.072,-227.641C483.312,-225.294 345.026,-216.55 310,-184 267.22,-144.245 249.06,-101.031 285,-55 302.641,-32.4058 383.458,-19.5859 429.901,-13.9645"/>
<polygon fill="midnightblue" stroke="midnightblue" points="430.553,-17.4123 440.081,-12.7807 429.744,-10.4592 430.553,-17.4123"/>
</g>
<!-- Node15&#45;&gt;Node4 -->
<g id="edge22" class="edge"><title>Node15&#45;&gt;Node4</title>
<path fill="none" stroke="midnightblue" d="M609.555,-220.193C626.686,-194.575 678.923,-116.459 701.926,-82.0602"/>
<polygon fill="midnightblue" stroke="midnightblue" points="704.936,-83.8554 707.585,-73.5971 699.117,-79.9642 704.936,-83.8554"/>
</g>
<!-- Node15&#45;&gt;Node5 -->
<g id="edge28" class="edge"><title>Node15&#45;&gt;Node5</title>
<path fill="none" stroke="midnightblue" d="M580.031,-220.389C521.29,-200.28 373.988,-148.352 361,-129 349.087,-111.25 369.097,-91.7657 386.8,-79.1241"/>
<polygon fill="midnightblue" stroke="midnightblue" points="388.81,-81.9901 395.155,-73.5055 384.904,-76.1814 388.81,-81.9901"/>
</g>
<!-- Node15&#45;&gt;Node6 -->
<g id="edge21" class="edge"><title>Node15&#45;&gt;Node6</title>
<path fill="none" stroke="midnightblue" d="M557.03,-226.92C473.524,-223.404 303.187,-212.832 252,-184 209.987,-160.336 179.882,-109.651 166.217,-82.8845"/>
<polygon fill="midnightblue" stroke="midnightblue" points="169.209,-81.0375 161.656,-73.6086 162.928,-84.1268 169.209,-81.0375"/>
</g>
<!-- Node15&#45;&gt;Node7 -->
<g id="edge24" class="edge"><title>Node15&#45;&gt;Node7</title>
<path fill="none" stroke="midnightblue" d="M599.813,-220.395C586.452,-193.281 548.096,-104.653 590,-55 617.437,-22.4889 741.645,-13.7275 808.342,-11.3681"/>
<polygon fill="midnightblue" stroke="midnightblue" points="808.646,-14.8603 818.529,-11.0418 808.422,-7.86385 808.646,-14.8603"/>
</g>
<!-- Node15&#45;&gt;Node8 -->
<g id="edge25" class="edge"><title>Node15&#45;&gt;Node8</title>
<path fill="none" stroke="midnightblue" d="M605.376,-220.193C609.547,-195.013 622.119,-119.114 627.958,-83.8621"/>
<polygon fill="midnightblue" stroke="midnightblue" points="631.477,-84.0347 629.659,-73.5971 624.572,-82.8907 631.477,-84.0347"/>
</g>
<!-- Node15&#45;&gt;Node9 -->
<g id="edge26" class="edge"><title>Node15&#45;&gt;Node9</title>
<path fill="none" stroke="midnightblue" d="M556.824,-228.12C484.766,-226.425 352.512,-218.553 323,-184 298.874,-155.753 312.193,-108.536 322.187,-83.0665"/>
<polygon fill="midnightblue" stroke="midnightblue" points="325.516,-84.1771 326.148,-73.6011 319.059,-81.4749 325.516,-84.1771"/>
</g>
<!-- Node15&#45;&gt;Node11 -->
<g id="edge29" class="edge"><title>Node15&#45;&gt;Node11</title>
<path fill="none" stroke="midnightblue" d="M651.175,-227.913C725.481,-224.498 870.327,-207.416 958,-129 972.293,-116.216 983.109,-96.9492 989.682,-82.9916"/>
<polygon fill="midnightblue" stroke="midnightblue" points="993.016,-84.1088 993.87,-73.5485 986.617,-81.2712 993.016,-84.1088"/>
</g>
<!-- Node15&#45;&gt;Node12 -->
<g id="edge23" class="edge"><title>Node15&#45;&gt;Node12</title>
<path fill="none" stroke="midnightblue" d="M651.047,-223.87C723.044,-216.381 856.954,-200.75 902,-184 984.61,-153.283 1001.92,-133.436 1067,-74 1082.8,-59.5685 1098.37,-40.6217 1108.69,-27.1912"/>
<polygon fill="midnightblue" stroke="midnightblue" points="1111.72,-28.9897 1114.95,-18.8978 1106.13,-24.7756 1111.72,-28.9897"/>
</g>
<!-- Node15&#45;&gt;Node13 -->
<g id="edge30" class="edge"><title>Node15&#45;&gt;Node13</title>
<path fill="none" stroke="midnightblue" d="M632.363,-238.538C660.273,-247.432 702.361,-261.838 730.102,-271.941"/>
<polygon fill="midnightblue" stroke="midnightblue" points="729.027,-275.275 739.62,-275.45 731.448,-268.707 729.027,-275.275"/>
</g>
<!-- Node16 -->
<g id="node16" class="node"><title>Node16</title>
<polygon fill="white" stroke="#bfbfbf" points="331.815,-165.5 331.815,-183.5 406.185,-183.5 406.185,-165.5 331.815,-165.5"/>
<text text-anchor="middle" x="369" y="-171.5" font-family="Helvetica,sans-Serif" font-size="10.00">semaphore.h</text>
</g>
<!-- Node15&#45;&gt;Node16 -->
<g id="edge27" class="edge"><title>Node15&#45;&gt;Node16</title>
<path fill="none" stroke="midnightblue" d="M568.309,-220.45C527.125,-211.162 459.324,-195.871 414.416,-185.743"/>
<polygon fill="midnightblue" stroke="midnightblue" points="415.167,-182.324 404.642,-183.538 413.626,-189.153 415.167,-182.324"/>
</g>
<!-- Node17 -->
<g id="node17" class="node"><title>Node17</title>
<g id="a_node17"><a xlink:href="tcp_vehicle_socket_comm_8h.html" target="_top" xlink:title="Vehicle connection server&#39;s headers. ">
<polygon fill="white" stroke="black" points="370.027,-110.5 370.027,-128.5 499.973,-128.5 499.973,-110.5 370.027,-110.5"/>
<text text-anchor="middle" x="435" y="-116.5" font-family="Helvetica,sans-Serif" font-size="10.00">tcpVehicleSocketComm.h</text>
</a>
</g>
</g>
<!-- Node15&#45;&gt;Node17 -->
<g id="edge31" class="edge"><title>Node15&#45;&gt;Node17</title>
<path fill="none" stroke="midnightblue" d="M587.524,-220.382C555.274,-202.088 485.11,-157.451 452.269,-134.554"/>
<polygon fill="midnightblue" stroke="midnightblue" points="454.235,-131.657 444.058,-128.712 450.177,-137.361 454.235,-131.657"/>
</g>
<!-- Node18 -->
<g id="node18" class="node"><title>Node18</title>
<g id="a_node18"><a xlink:href="station_actions_8h.html" target="_top" xlink:title="FIle containing all the station action headers. ">
<polygon fill="white" stroke="black" points="745.702,-165.5 745.702,-183.5 832.298,-183.5 832.298,-165.5 745.702,-165.5"/>
<text text-anchor="middle" x="789" y="-171.5" font-family="Helvetica,sans-Serif" font-size="10.00">stationActions.h</text>
</a>
</g>
</g>
<!-- Node15&#45;&gt;Node18 -->
<g id="edge61" class="edge"><title>Node15&#45;&gt;Node18</title>
<path fill="none" stroke="midnightblue" d="M627.088,-220.45C656.842,-211.318 708.792,-196.383 745.895,-186.258"/>
<polygon fill="midnightblue" stroke="midnightblue" points="747.198,-189.531 755.935,-183.538 745.368,-182.775 747.198,-189.531"/>
</g>
<!-- Node17&#45;&gt;Node3 -->
<g id="edge32" class="edge"><title>Node17&#45;&gt;Node3</title>
<path fill="none" stroke="midnightblue" d="M437.105,-110.382C441.584,-93.104 452.155,-52.3294 458.317,-28.5629"/>
<polygon fill="midnightblue" stroke="midnightblue" points="461.749,-29.2701 460.871,-18.7118 454.973,-27.5133 461.749,-29.2701"/>
</g>
<!-- Node17&#45;&gt;Node4 -->
<g id="edge33" class="edge"><title>Node17&#45;&gt;Node4</title>
<path fill="none" stroke="midnightblue" d="M479.165,-110.464C526.8,-101.737 604.848,-87.2639 672,-74 674.202,-73.5651 676.469,-73.1114 678.754,-72.6499"/>
<polygon fill="midnightblue" stroke="midnightblue" points="679.638,-76.0417 688.734,-70.6095 678.235,-69.1835 679.638,-76.0417"/>
</g>
<!-- Node17&#45;&gt;Node5 -->
<g id="edge34" class="edge"><title>Node17&#45;&gt;Node5</title>
<path fill="none" stroke="midnightblue" d="M430.938,-110.219C427.329,-102.864 421.941,-91.8801 417.408,-82.639"/>
<polygon fill="midnightblue" stroke="midnightblue" points="420.495,-80.986 412.949,-73.5496 414.211,-84.069 420.495,-80.986"/>
</g>
<!-- Node17&#45;&gt;Node6 -->
<g id="edge35" class="edge"><title>Node17&#45;&gt;Node6</title>
<path fill="none" stroke="midnightblue" d="M392.93,-110.45C338.133,-99.9659 243.358,-81.832 192.546,-72.1099"/>
<polygon fill="midnightblue" stroke="midnightblue" points="193.178,-68.6673 182.698,-70.2256 191.862,-75.5426 193.178,-68.6673"/>
</g>
<!-- Node17&#45;&gt;Node7 -->
<g id="edge36" class="edge"><title>Node17&#45;&gt;Node7</title>
<path fill="none" stroke="midnightblue" d="M446.657,-110.354C467.009,-96.5616 510.791,-68.7706 552,-55 640.044,-25.5791 749.163,-15.5702 808.202,-12.1936"/>
<polygon fill="midnightblue" stroke="midnightblue" points="808.481,-15.6838 818.28,-11.6544 808.107,-8.69383 808.481,-15.6838"/>
</g>
<!-- Node17&#45;&gt;Node8 -->
<g id="edge37" class="edge"><title>Node17&#45;&gt;Node8</title>
<path fill="none" stroke="midnightblue" d="M464.768,-110.45C498.539,-101.318 553.771,-86.3833 591.216,-76.2578"/>
<polygon fill="midnightblue" stroke="midnightblue" points="592.534,-79.5274 601.273,-73.5383 590.706,-72.7701 592.534,-79.5274"/>
</g>
<!-- Node17&#45;&gt;Node9 -->
<g id="edge38" class="edge"><title>Node17&#45;&gt;Node9</title>
<path fill="none" stroke="midnightblue" d="M419.053,-110.45C402.093,-101.89 375.029,-88.2291 355.184,-78.2119"/>
<polygon fill="midnightblue" stroke="midnightblue" points="356.602,-75.007 346.097,-73.6253 353.447,-81.256 356.602,-75.007"/>
</g>
<!-- Node17&#45;&gt;Node10 -->
<g id="edge39" class="edge"><title>Node17&#45;&gt;Node10</title>
<path fill="none" stroke="midnightblue" d="M369.957,-111.13C309.217,-103.801 215.877,-91.4007 125.664,-73.9442"/>
<polygon fill="midnightblue" stroke="midnightblue" points="126.303,-70.503 115.817,-72.0159 124.958,-77.3725 126.303,-70.503"/>
</g>
<!-- Node17&#45;&gt;Node11 -->
<g id="edge40" class="edge"><title>Node17&#45;&gt;Node11</title>
<path fill="none" stroke="midnightblue" d="M499.987,-115.221C596.601,-109.839 783.974,-97.4567 952.728,-74.0271"/>
<polygon fill="midnightblue" stroke="midnightblue" points="953.374,-77.4708 962.79,-72.6137 952.4,-70.5389 953.374,-77.4708"/>
</g>
<!-- Node17&#45;&gt;Node13 -->
<g id="edge41" class="edge"><title>Node17&#45;&gt;Node13</title>
<path fill="none" stroke="midnightblue" d="M456.716,-128.578C497.596,-144.115 588.317,-180.168 660,-220 687.996,-235.557 718.76,-256.095 738.214,-269.543"/>
<polygon fill="midnightblue" stroke="midnightblue" points="736.344,-272.506 746.549,-275.35 740.345,-266.762 736.344,-272.506"/>
</g>
<!-- Node17&#45;&gt;Node15 -->
<g id="edge42" class="edge"><title>Node17&#45;&gt;Node15</title>
<path fill="none" stroke="midnightblue" d="M451.382,-128.564C483.638,-146.853 554.067,-191.659 586.877,-214.548"/>
<polygon fill="midnightblue" stroke="midnightblue" points="584.895,-217.433 595.071,-220.382 588.955,-211.731 584.895,-217.433"/>
</g>
<!-- Node17&#45;&gt;Node18 -->
<g id="edge43" class="edge"><title>Node17&#45;&gt;Node18</title>
<path fill="none" stroke="midnightblue" d="M493.503,-128.51C560.886,-138.258 670.491,-154.659 735.633,-164.736"/>
<polygon fill="midnightblue" stroke="midnightblue" points="735.274,-168.222 745.692,-166.297 736.347,-161.305 735.274,-168.222"/>
</g>
<!-- Node18&#45;&gt;Node2 -->
<g id="edge51" class="edge"><title>Node18&#45;&gt;Node2</title>
<path fill="none" stroke="midnightblue" d="M797.969,-183.674C806.28,-191.908 818.077,-205.448 823,-220 833.881,-252.165 828.379,-270.364 804,-294 785.295,-312.135 759.326,-322.891 734.644,-329.266"/>
<polygon fill="midnightblue" stroke="midnightblue" points="733.823,-325.864 724.903,-331.58 735.441,-332.674 733.823,-325.864"/>
</g>
<!-- Node18&#45;&gt;Node3 -->
<g id="edge44" class="edge"><title>Node18&#45;&gt;Node3</title>
<path fill="none" stroke="midnightblue" d="M788.719,-165.305C787.497,-143.508 780.959,-83.8138 746,-55 708.372,-23.9863 562.355,-14.3752 496.066,-11.5752"/>
<polygon fill="midnightblue" stroke="midnightblue" points="495.9,-8.066 485.769,-11.1684 495.623,-15.0605 495.9,-8.066"/>
</g>
<!-- Node18&#45;&gt;Node4 -->
<g id="edge45" class="edge"><title>Node18&#45;&gt;Node4</title>
<path fill="none" stroke="midnightblue" d="M778.149,-165.279C767.808,-157.01 752.324,-143.444 742,-129 731.879,-114.84 723.987,-96.5841 719.009,-83.2834"/>
<polygon fill="midnightblue" stroke="midnightblue" points="722.303,-82.1003 715.653,-73.8519 715.708,-84.4466 722.303,-82.1003"/>
</g>
<!-- Node18&#45;&gt;Node5 -->
<g id="edge47" class="edge"><title>Node18&#45;&gt;Node5</title>
<path fill="none" stroke="midnightblue" d="M760.749,-165.471C692.738,-146.141 519.989,-97.0443 444.836,-75.685"/>
<polygon fill="midnightblue" stroke="midnightblue" points="445.476,-72.2285 434.901,-72.8612 443.563,-78.9618 445.476,-72.2285"/>
</g>
<!-- Node18&#45;&gt;Node11 -->
<g id="edge48" class="edge"><title>Node18&#45;&gt;Node11</title>
<path fill="none" stroke="midnightblue" d="M832.146,-165.436C861.46,-158.685 900.327,-147.174 931,-129 952.071,-116.515 971.679,-96.0658 983.957,-81.7558"/>
<polygon fill="midnightblue" stroke="midnightblue" points="986.899,-83.692 990.602,-73.7653 981.517,-79.2163 986.899,-83.692"/>
</g>
<!-- Node18&#45;&gt;Node12 -->
<g id="edge46" class="edge"><title>Node18&#45;&gt;Node12</title>
<path fill="none" stroke="midnightblue" d="M832.36,-166.22C867.323,-159.384 917.213,-147.417 958,-129 997.995,-110.94 1004.49,-99.777 1040,-74 1062.21,-57.8819 1086.92,-38.252 1103.14,-25.1231"/>
<polygon fill="midnightblue" stroke="midnightblue" points="1105.66,-27.5866 1111.21,-18.5616 1101.24,-22.1558 1105.66,-27.5866"/>
</g>
<!-- Node18&#45;&gt;Node13 -->
<g id="edge50" class="edge"><title>Node18&#45;&gt;Node13</title>
<path fill="none" stroke="midnightblue" d="M794.759,-183.57C802.783,-195.88 815.442,-219.93 807,-239 801.476,-251.478 790.534,-261.955 780.388,-269.602"/>
<polygon fill="midnightblue" stroke="midnightblue" points="778.374,-266.74 772.189,-275.343 782.389,-272.474 778.374,-266.74"/>
</g>
<!-- Node18&#45;&gt;Node15 -->
<g id="edge49" class="edge"><title>Node18&#45;&gt;Node15</title>
<path fill="none" stroke="midnightblue" d="M765.948,-183.538C736.213,-192.666 684.266,-207.6 647.151,-217.73"/>
<polygon fill="midnightblue" stroke="midnightblue" points="645.844,-214.458 637.107,-220.45 647.674,-221.214 645.844,-214.458"/>
</g>
<!-- Node18&#45;&gt;Node17 -->
<g id="edge52" class="edge"><title>Node18&#45;&gt;Node17</title>
<path fill="none" stroke="midnightblue" d="M745.686,-167.676C682.406,-158.616 564.774,-141.051 493.764,-130.097"/>
<polygon fill="midnightblue" stroke="midnightblue" points="494.055,-126.601 483.637,-128.531 492.985,-133.519 494.055,-126.601"/>
</g>
<!-- Node19 -->
<g id="node19" class="node"><title>Node19</title>
<g id="a_node19"><a xlink:href="mcast_messaging_8h.html" target="_top" xlink:title="FIle containing all the headers of the functions related to multicast communication. ">
<polygon fill="white" stroke="black" points="822.315,-110.5 822.315,-128.5 921.685,-128.5 921.685,-110.5 822.315,-110.5"/>
<text text-anchor="middle" x="872" y="-116.5" font-family="Helvetica,sans-Serif" font-size="10.00">mcastMessaging.h</text>
</a>
</g>
</g>
<!-- Node18&#45;&gt;Node19 -->
<g id="edge53" class="edge"><title>Node18&#45;&gt;Node19</title>
<path fill="none" stroke="midnightblue" d="M801.606,-165.45C814.647,-157.123 835.244,-143.97 850.797,-134.039"/>
<polygon fill="midnightblue" stroke="midnightblue" points="852.731,-136.957 859.275,-128.625 848.964,-131.057 852.731,-136.957"/>
</g>
<!-- Node19&#45;&gt;Node3 -->
<g id="edge54" class="edge"><title>Node19&#45;&gt;Node3</title>
<path fill="none" stroke="midnightblue" d="M864.208,-110.213C850.492,-96.2083 820.491,-68.1056 789,-55 736.455,-33.1324 568.186,-18.3454 496.19,-12.8657"/>
<polygon fill="midnightblue" stroke="midnightblue" points="496.125,-9.35116 485.892,-12.0957 495.603,-16.3317 496.125,-9.35116"/>
</g>
<!-- Node19&#45;&gt;Node7 -->
<g id="edge57" class="edge"><title>Node19&#45;&gt;Node7</title>
<path fill="none" stroke="midnightblue" d="M870.422,-110.382C867.062,-93.104 859.134,-52.3294 854.512,-28.5629"/>
<polygon fill="midnightblue" stroke="midnightblue" points="857.941,-27.8598 852.597,-18.7118 851.07,-29.196 857.941,-27.8598"/>
</g>
<!-- Node19&#45;&gt;Node8 -->
<g id="edge58" class="edge"><title>Node19&#45;&gt;Node8</title>
<path fill="none" stroke="midnightblue" d="M835.397,-110.45C791.694,-100.839 718.76,-84.8 672.858,-74.7052"/>
<polygon fill="midnightblue" stroke="midnightblue" points="673.449,-71.2518 662.931,-72.5222 671.946,-78.0884 673.449,-71.2518"/>
</g>
<!-- Node19&#45;&gt;Node9 -->
<g id="edge56" class="edge"><title>Node19&#45;&gt;Node9</title>
<path fill="none" stroke="midnightblue" d="M821.975,-115.719C733.771,-110.447 544.671,-97.4989 376.022,-74.1643"/>
<polygon fill="midnightblue" stroke="midnightblue" points="376.357,-70.6772 365.968,-72.7574 375.387,-77.6096 376.357,-70.6772"/>
</g>
<!-- Node19&#45;&gt;Node11 -->
<g id="edge59" class="edge"><title>Node19&#45;&gt;Node11</title>
<path fill="none" stroke="midnightblue" d="M890.985,-110.45C911.634,-101.695 944.864,-87.6055 968.616,-77.5346"/>
<polygon fill="midnightblue" stroke="midnightblue" points="969.996,-80.7513 977.837,-73.6253 967.264,-74.3067 969.996,-80.7513"/>
</g>
<!-- Node19&#45;&gt;Node13 -->
<g id="edge60" class="edge"><title>Node19&#45;&gt;Node13</title>
<path fill="none" stroke="midnightblue" d="M870.363,-128.514C865.873,-148.887 851.742,-203.55 823,-239 812.465,-251.993 797.159,-262.729 784.046,-270.398"/>
<polygon fill="midnightblue" stroke="midnightblue" points="782.029,-267.515 774.985,-275.429 785.426,-273.635 782.029,-267.515"/>
</g>
<!-- Node20 -->
<g id="node20" class="node"><title>Node20</title>
<polygon fill="white" stroke="#bfbfbf" points="878.99,-55.5 878.99,-73.5 945.01,-73.5 945.01,-55.5 878.99,-55.5"/>
<text text-anchor="middle" x="912" y="-61.5" font-family="Helvetica,sans-Serif" font-size="10.00">sys/types.h</text>
</g>
<!-- Node19&#45;&gt;Node20 -->
<g id="edge55" class="edge"><title>Node19&#45;&gt;Node20</title>
<path fill="none" stroke="midnightblue" d="M878.25,-110.219C883.978,-102.629 892.622,-91.1753 899.729,-81.7597"/>
<polygon fill="midnightblue" stroke="midnightblue" points="902.694,-83.6399 905.925,-73.5496 897.107,-79.423 902.694,-83.6399"/>
</g>
</g>
</svg>
