<?xml version="1.0" encoding="UTF-8" standalone="no"?>
<!DOCTYPE svg PUBLIC "-//W3C//DTD SVG 1.1//EN"
 "http://www.w3.org/Graphics/SVG/1.1/DTD/svg11.dtd">
<!-- Generated by graphviz version 2.38.0 (20140413.2041)
 -->
<!-- Title: VSC_acceptConnections Pages: 1 -->
<svg width="532pt" height="27pt"
 viewBox="0.00 0.00 532.42 27.00" xmlns="http://www.w3.org/2000/svg" xmlns:xlink="http://www.w3.org/1999/xlink">
<g id="graph0" class="graph" transform="scale(1 1) rotate(0) translate(4 23)">
<title>VSC_acceptConnections</title>
<polygon fill="white" stroke="none" points="-4,4 -4,-23 528.417,-23 528.417,4 -4,4"/>
<!-- Node1 -->
<g id="node1" class="node"><title>Node1</title>
<polygon fill="#bfbfbf" stroke="black" points="0,-0.5 0,-18.5 127.177,-18.5 127.177,-0.5 0,-0.5"/>
<text text-anchor="middle" x="63.5884" y="-6.5" font-family="Helvetica,sans-Serif" font-size="10.00">VSC_acceptConnections</text>
</g>
<!-- Node2 -->
<g id="node2" class="node"><title>Node2</title>
<g id="a_node2"><a xlink:href="tcp_vehicle_socket_comm_8h.html#a49fe9e8bc1bd13ac909ae2b7d2391886" target="_top" xlink:title="Initialize the vehicle comunication server. ">
<polygon fill="white" stroke="black" points="163.177,-0.5 163.177,-18.5 279.787,-18.5 279.787,-0.5 163.177,-0.5"/>
<text text-anchor="middle" x="221.482" y="-6.5" font-family="Helvetica,sans-Serif" font-size="10.00">VSC_initVehicleServer</text>
</a>
</g>
</g>
<!-- Node1&#45;&gt;Node2 -->
<g id="edge1" class="edge"><title>Node1&#45;&gt;Node2</title>
<path fill="none" stroke="midnightblue" d="M137.75,-9.5C146.166,-9.5 154.658,-9.5 162.829,-9.5"/>
<polygon fill="midnightblue" stroke="midnightblue" points="137.547,-6.0001 127.547,-9.5 137.547,-13.0001 137.547,-6.0001"/>
</g>
<!-- Node3 -->
<g id="node3" class="node"><title>Node3</title>
<g id="a_node3"><a xlink:href="main_8c.html#ae346112f7679ae0199c3158f6624fd8b" target="_top" xlink:title="Thread for controlling the vehicle server initialization and shutdown. ">
<polygon fill="white" stroke="black" points="315.787,-0.5 315.787,-18.5 450.742,-18.5 450.742,-0.5 315.787,-0.5"/>
<text text-anchor="middle" x="383.265" y="-6.5" font-family="Helvetica,sans-Serif" font-size="10.00">vehicleConnControlThread</text>
</a>
</g>
</g>
<!-- Node2&#45;&gt;Node3 -->
<g id="edge2" class="edge"><title>Node2&#45;&gt;Node3</title>
<path fill="none" stroke="midnightblue" d="M290.309,-9.5C298.719,-9.5 307.312,-9.5 315.703,-9.5"/>
<polygon fill="midnightblue" stroke="midnightblue" points="290.167,-6.0001 280.167,-9.5 290.167,-13.0001 290.167,-6.0001"/>
</g>
<!-- Node4 -->
<g id="node4" class="node"><title>Node4</title>
<g id="a_node4"><a xlink:href="main_8c.html#ac0f2228420376f4db7e1274f2b41667c" target="_top" xlink:title="main">
<polygon fill="white" stroke="black" points="486.742,-0.5 486.742,-18.5 524.417,-18.5 524.417,-0.5 486.742,-0.5"/>
<text text-anchor="middle" x="505.58" y="-6.5" font-family="Helvetica,sans-Serif" font-size="10.00">main</text>
</a>
</g>
</g>
<!-- Node3&#45;&gt;Node4 -->
<g id="edge3" class="edge"><title>Node3&#45;&gt;Node4</title>
<path fill="none" stroke="midnightblue" d="M460.885,-9.5C470.439,-9.5 479.393,-9.5 486.677,-9.5"/>
<polygon fill="midnightblue" stroke="midnightblue" points="460.756,-6.0001 450.756,-9.5 460.756,-13.0001 460.756,-6.0001"/>
</g>
</g>
</svg>
