<?xml version="1.0" encoding="UTF-8" standalone="no"?>
<!DOCTYPE svg PUBLIC "-//W3C//DTD SVG 1.1//EN"
 "http://www.w3.org/Graphics/SVG/1.1/DTD/svg11.dtd">
<!-- Generated by graphviz version 2.38.0 (20140413.2041)
 -->
<!-- Title: VSC_shutdownVehicleServer Pages: 1 -->
<svg width="311pt" height="64pt"
 viewBox="0.00 0.00 311.15 64.00" xmlns="http://www.w3.org/2000/svg" xmlns:xlink="http://www.w3.org/1999/xlink">
<g id="graph0" class="graph" transform="scale(1 1) rotate(0) translate(4 60)">
<title>VSC_shutdownVehicleServer</title>
<polygon fill="white" stroke="none" points="-4,4 -4,-60 307.151,-60 307.151,4 -4,4"/>
<!-- Node1 -->
<g id="node1" class="node"><title>Node1</title>
<polygon fill="#bfbfbf" stroke="black" points="0,-18.5 0,-36.5 146.635,-36.5 146.635,-18.5 0,-18.5"/>
<text text-anchor="middle" x="73.3174" y="-24.5" font-family="Helvetica,sans-Serif" font-size="10.00">VSC_shutdownVehicleServer</text>
</g>
<!-- Node2 -->
<g id="node2" class="node"><title>Node2</title>
<g id="a_node2"><a xlink:href="station_actions_8c.html#a37799774c2d1bb58759b36bb9d82817e" target="_top" xlink:title="Count the vehicles on the vehicle list. ">
<polygon fill="white" stroke="black" points="182.635,-37.5 182.635,-55.5 303.151,-55.5 303.151,-37.5 182.635,-37.5"/>
<text text-anchor="middle" x="242.893" y="-43.5" font-family="Helvetica,sans-Serif" font-size="10.00">SA_countVehiclesInList</text>
</a>
</g>
</g>
<!-- Node1&#45;&gt;Node2 -->
<g id="edge1" class="edge"><title>Node1&#45;&gt;Node2</title>
<path fill="none" stroke="midnightblue" d="M146.844,-35.7232C155.334,-36.6857 163.98,-37.6661 172.427,-38.6238"/>
<polygon fill="midnightblue" stroke="midnightblue" points="172.276,-42.1291 182.607,-39.778 173.065,-35.1736 172.276,-42.1291"/>
</g>
<!-- Node3 -->
<g id="node3" class="node"><title>Node3</title>
<g id="a_node3"><a xlink:href="station_actions_8c.html#ace989dc2c9246744d4361436398b4075" target="_top" xlink:title="Get the vehicle that is on the n&#45;th position in the list. ">
<polygon fill="white" stroke="black" points="184.3,-0.5 184.3,-18.5 301.486,-18.5 301.486,-0.5 184.3,-0.5"/>
<text text-anchor="middle" x="242.893" y="-6.5" font-family="Helvetica,sans-Serif" font-size="10.00">SA_getVehicleByIndex</text>
</a>
</g>
</g>
<!-- Node1&#45;&gt;Node3 -->
<g id="edge2" class="edge"><title>Node1&#45;&gt;Node3</title>
<path fill="none" stroke="midnightblue" d="M146.844,-19.7096C155.906,-18.7363 165.147,-17.7437 174.132,-16.7785"/>
<polygon fill="midnightblue" stroke="midnightblue" points="174.576,-20.251 184.145,-15.7029 173.828,-13.291 174.576,-20.251"/>
</g>
</g>
</svg>
