<?xml version="1.0" encoding="UTF-8" standalone="no"?>
<!DOCTYPE svg PUBLIC "-//W3C//DTD SVG 1.1//EN"
 "http://www.w3.org/Graphics/SVG/1.1/DTD/svg11.dtd">
<!-- Generated by graphviz version 2.38.0 (20140413.2041)
 -->
<!-- Title: rasPi&#45;EmergencyStation/tcpVehicleSocketComm.c Pages: 1 -->
<svg width="1222pt" height="422pt"
 viewBox="0.00 0.00 1222.00 422.00" xmlns="http://www.w3.org/2000/svg" xmlns:xlink="http://www.w3.org/1999/xlink">
<g id="graph0" class="graph" transform="scale(1 1) rotate(0) translate(4 418)">
<title>rasPi&#45;EmergencyStation/tcpVehicleSocketComm.c</title>
<polygon fill="white" stroke="none" points="-4,4 -4,-418 1218,-418 1218,4 -4,4"/>
<!-- Node1 -->
<g id="node1" class="node"><title>Node1</title>
<polygon fill="#bfbfbf" stroke="black" points="542.919,-385.5 542.919,-413.5 675.081,-413.5 675.081,-385.5 542.919,-385.5"/>
<text text-anchor="start" x="550.919" y="-401.5" font-family="Helvetica,sans-Serif" font-size="10.00">rasPi&#45;EmergencyStation</text>
<text text-anchor="middle" x="609" y="-391.5" font-family="Helvetica,sans-Serif" font-size="10.00">/tcpVehicleSocketComm.c</text>
</g>
<!-- Node2 -->
<g id="node2" class="node"><title>Node2</title>
<g id="a_node2"><a xlink:href="tcp_vehicle_socket_comm_8h.html" target="_top" xlink:title="Vehicle connection server&#39;s headers. ">
<polygon fill="white" stroke="black" points="544.027,-330.5 544.027,-348.5 673.973,-348.5 673.973,-330.5 544.027,-330.5"/>
<text text-anchor="middle" x="609" y="-336.5" font-family="Helvetica,sans-Serif" font-size="10.00">tcpVehicleSocketComm.h</text>
</a>
</g>
</g>
<!-- Node1&#45;&gt;Node2 -->
<g id="edge1" class="edge"><title>Node1&#45;&gt;Node2</title>
<path fill="none" stroke="midnightblue" d="M609,-385.339C609,-377.531 609,-367.512 609,-358.927"/>
<polygon fill="midnightblue" stroke="midnightblue" points="612.5,-358.771 609,-348.771 605.5,-358.772 612.5,-358.771"/>
</g>
<!-- Node3 -->
<g id="node3" class="node"><title>Node3</title>
<polygon fill="white" stroke="#bfbfbf" points="229.269,-0.5 229.269,-18.5 274.731,-18.5 274.731,-0.5 229.269,-0.5"/>
<text text-anchor="middle" x="252" y="-6.5" font-family="Helvetica,sans-Serif" font-size="10.00">stdio.h</text>
</g>
<!-- Node2&#45;&gt;Node3 -->
<g id="edge2" class="edge"><title>Node2&#45;&gt;Node3</title>
<path fill="none" stroke="midnightblue" d="M544.005,-336.232C427.601,-331.589 188.307,-319.241 109,-294 55.575,-276.996 0,-286.566 0,-230.5 0,-230.5 0,-230.5 0,-118.5 0,-24.2966 150.614,-11.2006 218.964,-10.1076"/>
<polygon fill="midnightblue" stroke="midnightblue" points="219.221,-13.6057 229.192,-10.0246 219.164,-6.60595 219.221,-13.6057"/>
</g>
<!-- Node4 -->
<g id="node4" class="node"><title>Node4</title>
<polygon fill="white" stroke="#bfbfbf" points="318.158,-55.5 318.158,-73.5 365.842,-73.5 365.842,-55.5 318.158,-55.5"/>
<text text-anchor="middle" x="342" y="-61.5" font-family="Helvetica,sans-Serif" font-size="10.00">stdlib.h</text>
</g>
<!-- Node2&#45;&gt;Node4 -->
<g id="edge3" class="edge"><title>Node2&#45;&gt;Node4</title>
<path fill="none" stroke="midnightblue" d="M543.91,-338.813C401.724,-337.741 76,-324.974 76,-230.5 76,-230.5 76,-230.5 76,-173.5 76,-123.976 236.293,-86.2591 308.015,-71.8618"/>
<polygon fill="midnightblue" stroke="midnightblue" points="308.791,-75.2763 317.925,-69.9082 307.437,-68.4085 308.791,-75.2763"/>
</g>
<!-- Node5 -->
<g id="node5" class="node"><title>Node5</title>
<polygon fill="white" stroke="#bfbfbf" points="915.488,-55.5 915.488,-73.5 966.512,-73.5 966.512,-55.5 915.488,-55.5"/>
<text text-anchor="middle" x="941" y="-61.5" font-family="Helvetica,sans-Serif" font-size="10.00">unistd.h</text>
</g>
<!-- Node2&#45;&gt;Node5 -->
<g id="edge4" class="edge"><title>Node2&#45;&gt;Node5</title>
<path fill="none" stroke="midnightblue" d="M674.386,-336.431C799.836,-330.675 1062,-309.228 1062,-230.5 1062,-230.5 1062,-230.5 1062,-173.5 1062,-125.628 1008.63,-93.7071 972.781,-77.665"/>
<polygon fill="midnightblue" stroke="midnightblue" points="973.764,-74.2784 963.193,-73.5613 971.009,-80.7138 973.764,-74.2784"/>
</g>
<!-- Node6 -->
<g id="node6" class="node"><title>Node6</title>
<polygon fill="white" stroke="#bfbfbf" points="1051.6,-55.5 1051.6,-73.5 1100.4,-73.5 1100.4,-55.5 1051.6,-55.5"/>
<text text-anchor="middle" x="1076" y="-61.5" font-family="Helvetica,sans-Serif" font-size="10.00">string.h</text>
</g>
<!-- Node2&#45;&gt;Node6 -->
<g id="edge5" class="edge"><title>Node2&#45;&gt;Node6</title>
<path fill="none" stroke="midnightblue" d="M674.187,-335.373C781.712,-329.668 991.385,-316.081 1062,-294 1117.35,-276.691 1176,-288.497 1176,-230.5 1176,-230.5 1176,-230.5 1176,-173.5 1176,-129.69 1131.15,-96.1209 1101.52,-78.725"/>
<polygon fill="midnightblue" stroke="midnightblue" points="1102.94,-75.5093 1092.51,-73.6528 1099.51,-81.6089 1102.94,-75.5093"/>
</g>
<!-- Node7 -->
<g id="node7" class="node"><title>Node7</title>
<polygon fill="white" stroke="#bfbfbf" points="765.537,-0.5 765.537,-18.5 830.463,-18.5 830.463,-0.5 765.537,-0.5"/>
<text text-anchor="middle" x="798" y="-6.5" font-family="Helvetica,sans-Serif" font-size="10.00">netinet/in.h</text>
</g>
<!-- Node2&#45;&gt;Node7 -->
<g id="edge6" class="edge"><title>Node2&#45;&gt;Node7</title>
<path fill="none" stroke="midnightblue" d="M674.381,-336.779C792.768,-333.004 1037.81,-321.988 1118,-294 1166.3,-277.143 1214,-281.656 1214,-230.5 1214,-230.5 1214,-230.5 1214,-118.5 1214,-41.9555 946.802,-18.7336 840.692,-12.5296"/>
<polygon fill="midnightblue" stroke="midnightblue" points="840.823,-9.03157 830.643,-11.9651 840.431,-16.0206 840.823,-9.03157"/>
</g>
<!-- Node8 -->
<g id="node8" class="node"><title>Node8</title>
<polygon fill="white" stroke="#bfbfbf" points="668.372,-55.5 668.372,-73.5 731.628,-73.5 731.628,-55.5 668.372,-55.5"/>
<text text-anchor="middle" x="700" y="-61.5" font-family="Helvetica,sans-Serif" font-size="10.00">arpa/inet.h</text>
</g>
<!-- Node2&#45;&gt;Node8 -->
<g id="edge7" class="edge"><title>Node2&#45;&gt;Node8</title>
<path fill="none" stroke="midnightblue" d="M619.879,-330.282C646.494,-309.402 714.496,-251.183 739,-184 741.894,-176.067 742.001,-172.893 739,-165 731.392,-144.99 715.694,-148.562 707,-129 700.659,-114.733 699.175,-96.9566 699.124,-83.8437"/>
<polygon fill="midnightblue" stroke="midnightblue" points="702.626,-83.8057 699.362,-73.7263 695.628,-83.6413 702.626,-83.8057"/>
</g>
<!-- Node9 -->
<g id="node9" class="node"><title>Node9</title>
<polygon fill="white" stroke="#bfbfbf" points="826.49,-55.5 826.49,-73.5 897.51,-73.5 897.51,-55.5 826.49,-55.5"/>
<text text-anchor="middle" x="862" y="-61.5" font-family="Helvetica,sans-Serif" font-size="10.00">sys/socket.h</text>
</g>
<!-- Node2&#45;&gt;Node9 -->
<g id="edge8" class="edge"><title>Node2&#45;&gt;Node9</title>
<path fill="none" stroke="midnightblue" d="M628.688,-330.497C680.771,-308.067 821.558,-238.952 871,-129 877.493,-114.561 873.997,-96.5721 869.605,-83.4311"/>
<polygon fill="midnightblue" stroke="midnightblue" points="872.735,-81.8162 865.905,-73.7172 866.194,-84.3081 872.735,-81.8162"/>
</g>
<!-- Node10 -->
<g id="node10" class="node"><title>Node10</title>
<polygon fill="white" stroke="#bfbfbf" points="984.318,-55.5 984.318,-73.5 1033.68,-73.5 1033.68,-55.5 984.318,-55.5"/>
<text text-anchor="middle" x="1009" y="-61.5" font-family="Helvetica,sans-Serif" font-size="10.00">netdb.h</text>
</g>
<!-- Node2&#45;&gt;Node10 -->
<g id="edge9" class="edge"><title>Node2&#45;&gt;Node10</title>
<path fill="none" stroke="midnightblue" d="M674.201,-337.661C807.763,-334.172 1100,-316.69 1100,-230.5 1100,-230.5 1100,-230.5 1100,-173.5 1100,-131.206 1058.68,-96.8727 1031.73,-78.9755"/>
<polygon fill="midnightblue" stroke="midnightblue" points="1033.53,-75.9746 1023.22,-73.5483 1029.77,-81.8765 1033.53,-75.9746"/>
</g>
<!-- Node11 -->
<g id="node11" class="node"><title>Node11</title>
<g id="a_node11"><a xlink:href="structures_8h.html" target="_top" xlink:title="File containing all the structure definitions used in the other modules. ">
<polygon fill="white" stroke="black" points="383.879,-55.5 383.879,-73.5 452.121,-73.5 452.121,-55.5 383.879,-55.5"/>
<text text-anchor="middle" x="418" y="-61.5" font-family="Helvetica,sans-Serif" font-size="10.00">structures.h</text>
</a>
</g>
</g>
<!-- Node2&#45;&gt;Node11 -->
<g id="edge10" class="edge"><title>Node2&#45;&gt;Node11</title>
<path fill="none" stroke="midnightblue" d="M543.915,-330.906C463.308,-317.457 330.467,-280.98 280,-184 268.711,-162.306 290.242,-118.065 298,-110 309.348,-98.2024 347.386,-85.2437 377.631,-76.3687"/>
<polygon fill="midnightblue" stroke="midnightblue" points="378.894,-79.6475 387.539,-73.5231 376.961,-72.9195 378.894,-79.6475"/>
</g>
<!-- Node13 -->
<g id="node13" class="node"><title>Node13</title>
<g id="a_node13"><a xlink:href="msg_buffers_8h.html" target="_top" xlink:title="File containing the headers of all functions related to the message mailboxes. ">
<polygon fill="white" stroke="black" points="477.632,-275.5 477.632,-293.5 552.368,-293.5 552.368,-275.5 477.632,-275.5"/>
<text text-anchor="middle" x="515" y="-281.5" font-family="Helvetica,sans-Serif" font-size="10.00">msgBuffers.h</text>
</a>
</g>
</g>
<!-- Node2&#45;&gt;Node13 -->
<g id="edge14" class="edge"><title>Node2&#45;&gt;Node13</title>
<path fill="none" stroke="midnightblue" d="M594.723,-330.45C579.816,-322.045 556.19,-308.724 538.521,-298.762"/>
<polygon fill="midnightblue" stroke="midnightblue" points="539.841,-295.488 529.411,-293.625 536.403,-301.586 539.841,-295.488"/>
</g>
<!-- Node15 -->
<g id="node15" class="node"><title>Node15</title>
<g id="a_node15"><a xlink:href="message_parser_8h.html" target="_top" xlink:title="Message parser function headers. ">
<polygon fill="white" stroke="black" points="562.089,-220.5 562.089,-238.5 655.911,-238.5 655.911,-220.5 562.089,-220.5"/>
<text text-anchor="middle" x="609" y="-226.5" font-family="Helvetica,sans-Serif" font-size="10.00">messageParser.h</text>
</a>
</g>
</g>
<!-- Node2&#45;&gt;Node15 -->
<g id="edge61" class="edge"><title>Node2&#45;&gt;Node15</title>
<path fill="none" stroke="midnightblue" d="M605.227,-330.382C601.821,-313.182 601.338,-272.698 603.776,-248.887"/>
<polygon fill="midnightblue" stroke="midnightblue" points="607.28,-249.102 605.208,-238.712 600.349,-248.126 607.28,-249.102"/>
</g>
<!-- Node17 -->
<g id="node17" class="node"><title>Node17</title>
<g id="a_node17"><a xlink:href="station_actions_8h.html" target="_top" xlink:title="FIle containing all the station action headers. ">
<polygon fill="white" stroke="black" points="298.702,-165.5 298.702,-183.5 385.298,-183.5 385.298,-165.5 298.702,-165.5"/>
<text text-anchor="middle" x="342" y="-171.5" font-family="Helvetica,sans-Serif" font-size="10.00">stationActions.h</text>
</a>
</g>
</g>
<!-- Node2&#45;&gt;Node17 -->
<g id="edge62" class="edge"><title>Node2&#45;&gt;Node17</title>
<path fill="none" stroke="midnightblue" d="M561.383,-330.456C530.84,-323.543 491.377,-311.828 460,-294 412.107,-266.788 367.901,-218.077 349.774,-192.403"/>
<polygon fill="midnightblue" stroke="midnightblue" points="352.546,-190.246 344.15,-183.783 346.683,-194.071 352.546,-190.246"/>
</g>
<!-- Node11&#45;&gt;Node3 -->
<g id="edge11" class="edge"><title>Node11&#45;&gt;Node3</title>
<path fill="none" stroke="midnightblue" d="M392.788,-55.4504C363.816,-46.2003 316.195,-30.996 284.472,-20.8674"/>
<polygon fill="midnightblue" stroke="midnightblue" points="285.365,-17.4787 274.774,-17.7713 283.236,-24.147 285.365,-17.4787"/>
</g>
<!-- Node11&#45;&gt;Node7 -->
<g id="edge13" class="edge"><title>Node11&#45;&gt;Node7</title>
<path fill="none" stroke="midnightblue" d="M452.393,-58.7031C521.927,-49.005 679.059,-27.0892 755.133,-16.4788"/>
<polygon fill="midnightblue" stroke="midnightblue" points="755.891,-19.907 765.312,-15.0591 754.924,-12.9741 755.891,-19.907"/>
</g>
<!-- Node12 -->
<g id="node12" class="node"><title>Node12</title>
<polygon fill="white" stroke="#bfbfbf" points="340.872,-0.5 340.872,-18.5 399.128,-18.5 399.128,-0.5 340.872,-0.5"/>
<text text-anchor="middle" x="370" y="-6.5" font-family="Helvetica,sans-Serif" font-size="10.00">pthread.h</text>
</g>
<!-- Node11&#45;&gt;Node12 -->
<g id="edge12" class="edge"><title>Node11&#45;&gt;Node12</title>
<path fill="none" stroke="midnightblue" d="M410.5,-55.2188C403.485,-47.4727 392.824,-35.7013 384.201,-26.1799"/>
<polygon fill="midnightblue" stroke="midnightblue" points="386.597,-23.6121 377.29,-18.5496 381.409,-28.3111 386.597,-23.6121"/>
</g>
<!-- Node13&#45;&gt;Node3 -->
<g id="edge15" class="edge"><title>Node13&#45;&gt;Node3</title>
<path fill="none" stroke="midnightblue" d="M477.225,-280.102C421.724,-274.423 321.716,-261.368 294,-239 263.105,-214.066 245.526,-78.6894 245,-74 243.296,-58.8104 245.455,-41.5726 247.812,-28.8937"/>
<polygon fill="midnightblue" stroke="midnightblue" points="251.318,-29.2242 249.927,-18.7211 244.465,-27.7992 251.318,-29.2242"/>
</g>
<!-- Node13&#45;&gt;Node11 -->
<g id="edge18" class="edge"><title>Node13&#45;&gt;Node11</title>
<path fill="none" stroke="midnightblue" d="M477.3,-279.428C424.655,-271.473 330.979,-248.544 290,-184 260.223,-137.099 338.854,-96.5646 385.812,-77.3568"/>
<polygon fill="midnightblue" stroke="midnightblue" points="387.3,-80.5318 395.302,-73.5871 384.716,-74.0263 387.3,-80.5318"/>
</g>
<!-- Node13&#45;&gt;Node12 -->
<g id="edge16" class="edge"><title>Node13&#45;&gt;Node12</title>
<path fill="none" stroke="midnightblue" d="M477.367,-282.46C435.95,-279.685 368.904,-270.238 321,-239 295.461,-222.346 289.599,-212.938 280,-184 267.602,-146.624 255.222,-121.561 300,-55 309.47,-40.9233 325.049,-30.3783 339.108,-23.0957"/>
<polygon fill="midnightblue" stroke="midnightblue" points="341.013,-26.0632 348.505,-18.5718 337.977,-19.756 341.013,-26.0632"/>
</g>
<!-- Node14 -->
<g id="node14" class="node"><title>Node14</title>
<polygon fill="white" stroke="#bfbfbf" points="416.214,-220.5 416.214,-238.5 467.786,-238.5 467.786,-220.5 416.214,-220.5"/>
<text text-anchor="middle" x="442" y="-226.5" font-family="Helvetica,sans-Serif" font-size="10.00">assert.h</text>
</g>
<!-- Node13&#45;&gt;Node14 -->
<g id="edge17" class="edge"><title>Node13&#45;&gt;Node14</title>
<path fill="none" stroke="midnightblue" d="M503.913,-275.45C492.658,-267.279 475.002,-254.46 461.42,-244.6"/>
<polygon fill="midnightblue" stroke="midnightblue" points="463.34,-241.668 453.191,-238.625 459.227,-247.333 463.34,-241.668"/>
</g>
<!-- Node13&#45;&gt;Node15 -->
<g id="edge19" class="edge"><title>Node13&#45;&gt;Node15</title>
<path fill="none" stroke="midnightblue" d="M524.267,-275.45C537.461,-266.89 561.405,-253.229 580.593,-243.212"/>
<polygon fill="midnightblue" stroke="midnightblue" points="582.252,-246.294 589.562,-238.625 579.065,-240.062 582.252,-246.294"/>
</g>
<!-- Node15&#45;&gt;Node2 -->
<g id="edge31" class="edge"><title>Node15&#45;&gt;Node2</title>
<path fill="none" stroke="midnightblue" d="M612.792,-238.712C616.187,-255.997 616.66,-296.493 614.21,-320.243"/>
<polygon fill="midnightblue" stroke="midnightblue" points="610.711,-319.99 612.773,-330.382 617.642,-320.973 610.711,-319.99"/>
</g>
<!-- Node15&#45;&gt;Node3 -->
<g id="edge20" class="edge"><title>Node15&#45;&gt;Node3</title>
<path fill="none" stroke="midnightblue" d="M561.88,-224.871C477.999,-217.985 309.69,-202.086 290,-184 245.93,-143.52 246.838,-64.7104 249.858,-28.9452"/>
<polygon fill="midnightblue" stroke="midnightblue" points="253.381,-28.8841 250.901,-18.5838 246.417,-28.183 253.381,-28.8841"/>
</g>
<!-- Node15&#45;&gt;Node4 -->
<g id="edge22" class="edge"><title>Node15&#45;&gt;Node4</title>
<path fill="none" stroke="midnightblue" d="M590.267,-220.4C571.384,-212.015 541.595,-198.176 517,-184 457.976,-149.98 392.514,-102.973 361.002,-79.7134"/>
<polygon fill="midnightblue" stroke="midnightblue" points="362.817,-76.7025 352.701,-73.5549 358.646,-82.3242 362.817,-76.7025"/>
</g>
<!-- Node15&#45;&gt;Node5 -->
<g id="edge28" class="edge"><title>Node15&#45;&gt;Node5</title>
<path fill="none" stroke="midnightblue" d="M656.263,-225.362C700.743,-220.877 768.22,-210.045 821,-184 869.853,-159.893 911.083,-108.231 929.964,-81.8025"/>
<polygon fill="midnightblue" stroke="midnightblue" points="932.839,-83.7985 935.686,-73.5934 927.096,-79.7956 932.839,-83.7985"/>
</g>
<!-- Node15&#45;&gt;Node6 -->
<g id="edge21" class="edge"><title>Node15&#45;&gt;Node6</title>
<path fill="none" stroke="midnightblue" d="M656.014,-224.116C705.575,-218.52 785.403,-206.711 851,-184 930.612,-156.437 1016.56,-104.121 1055.16,-79.2705"/>
<polygon fill="midnightblue" stroke="midnightblue" points="1057.44,-81.9605 1063.92,-73.5761 1053.63,-76.0914 1057.44,-81.9605"/>
</g>
<!-- Node15&#45;&gt;Node7 -->
<g id="edge24" class="edge"><title>Node15&#45;&gt;Node7</title>
<path fill="none" stroke="midnightblue" d="M656.045,-225.281C712.478,-220.455 809.428,-209.077 889,-184 942.272,-167.212 952.048,-153.991 1002,-129 1049.82,-105.076 1081.14,-119.641 1109,-74 1113.4,-66.7921 1114.53,-61.38 1109,-55 1074.79,-15.544 917.743,-10.2165 840.771,-10.0369"/>
<polygon fill="midnightblue" stroke="midnightblue" points="840.461,-6.53695 830.463,-10.0427 840.465,-13.5369 840.461,-6.53695"/>
</g>
<!-- Node15&#45;&gt;Node8 -->
<g id="edge25" class="edge"><title>Node15&#45;&gt;Node8</title>
<path fill="none" stroke="midnightblue" d="M613.339,-220.412C623.677,-201.181 650.645,-151.245 674,-110 679.197,-100.822 685.12,-90.6616 690,-82.3691"/>
<polygon fill="midnightblue" stroke="midnightblue" points="693.069,-84.0537 695.141,-73.6634 687.042,-80.4938 693.069,-84.0537"/>
</g>
<!-- Node15&#45;&gt;Node9 -->
<g id="edge26" class="edge"><title>Node15&#45;&gt;Node9</title>
<path fill="none" stroke="midnightblue" d="M656.056,-224.661C713.83,-217.126 809.491,-194.837 853,-129 861.825,-115.647 863.577,-97.2677 863.416,-83.7175"/>
<polygon fill="midnightblue" stroke="midnightblue" points="866.911,-83.5121 862.945,-73.6874 859.918,-83.8406 866.911,-83.5121"/>
</g>
<!-- Node15&#45;&gt;Node11 -->
<g id="edge29" class="edge"><title>Node15&#45;&gt;Node11</title>
<path fill="none" stroke="midnightblue" d="M596.539,-220.481C572.079,-204.48 516.55,-166.862 475,-129 458.652,-114.103 441.986,-94.9845 430.932,-81.635"/>
<polygon fill="midnightblue" stroke="midnightblue" points="433.573,-79.3342 424.539,-73.7979 428.148,-83.7591 433.573,-79.3342"/>
</g>
<!-- Node15&#45;&gt;Node12 -->
<g id="edge23" class="edge"><title>Node15&#45;&gt;Node12</title>
<path fill="none" stroke="midnightblue" d="M610.729,-220.184C615.976,-192.4 628.696,-101.905 583,-55 559.349,-30.7231 464.208,-18.6162 409.415,-13.5458"/>
<polygon fill="midnightblue" stroke="midnightblue" points="409.624,-10.0507 399.353,-12.6518 409.004,-17.0232 409.624,-10.0507"/>
</g>
<!-- Node15&#45;&gt;Node13 -->
<g id="edge30" class="edge"><title>Node15&#45;&gt;Node13</title>
<path fill="none" stroke="midnightblue" d="M599.616,-238.625C586.359,-247.216 562.397,-260.881 543.238,-270.877"/>
<polygon fill="midnightblue" stroke="midnightblue" points="541.598,-267.784 534.286,-275.45 544.783,-274.017 541.598,-267.784"/>
</g>
<!-- Node16 -->
<g id="node16" class="node"><title>Node16</title>
<polygon fill="white" stroke="#bfbfbf" points="655.815,-165.5 655.815,-183.5 730.185,-183.5 730.185,-165.5 655.815,-165.5"/>
<text text-anchor="middle" x="693" y="-171.5" font-family="Helvetica,sans-Serif" font-size="10.00">semaphore.h</text>
</g>
<!-- Node15&#45;&gt;Node16 -->
<g id="edge27" class="edge"><title>Node15&#45;&gt;Node16</title>
<path fill="none" stroke="midnightblue" d="M621.758,-220.45C634.956,-212.123 655.802,-198.97 671.541,-189.039"/>
<polygon fill="midnightblue" stroke="midnightblue" points="673.533,-191.922 680.122,-183.625 669.797,-186.001 673.533,-191.922"/>
</g>
<!-- Node15&#45;&gt;Node17 -->
<g id="edge32" class="edge"><title>Node15&#45;&gt;Node17</title>
<path fill="none" stroke="midnightblue" d="M563.439,-220.45C514.284,-211.123 436.656,-195.742 387.52,-185.615"/>
<polygon fill="midnightblue" stroke="midnightblue" points="387.99,-182.139 377.488,-183.538 386.571,-188.993 387.99,-182.139"/>
</g>
<!-- Node17&#45;&gt;Node2 -->
<g id="edge52" class="edge"><title>Node17&#45;&gt;Node2</title>
<path fill="none" stroke="midnightblue" d="M352.771,-183.783C374.666,-205.281 423.988,-263.311 478,-294 505.822,-309.808 540.003,-320.81 566.565,-327.92"/>
<polygon fill="midnightblue" stroke="midnightblue" points="565.785,-331.333 576.344,-330.456 567.543,-324.558 565.785,-331.333"/>
</g>
<!-- Node17&#45;&gt;Node3 -->
<g id="edge33" class="edge"><title>Node17&#45;&gt;Node3</title>
<path fill="none" stroke="midnightblue" d="M333.62,-165.229C325.321,-156.711 312.636,-142.771 304,-129 282.987,-95.4942 266.284,-52.0345 257.9,-28.1543"/>
<polygon fill="midnightblue" stroke="midnightblue" points="261.201,-26.9909 254.648,-18.6661 254.58,-29.2607 261.201,-26.9909"/>
</g>
<!-- Node17&#45;&gt;Node4 -->
<g id="edge34" class="edge"><title>Node17&#45;&gt;Node4</title>
<path fill="none" stroke="midnightblue" d="M342,-165.382C342,-148.182 342,-107.698 342,-83.8866"/>
<polygon fill="midnightblue" stroke="midnightblue" points="345.5,-83.7117 342,-73.7118 338.5,-83.7118 345.5,-83.7117"/>
</g>
<!-- Node17&#45;&gt;Node5 -->
<g id="edge36" class="edge"><title>Node17&#45;&gt;Node5</title>
<path fill="none" stroke="midnightblue" d="M385.358,-172.674C492.579,-170.164 767.654,-160.732 853,-129 881.271,-118.489 908.598,-96.2905 925.105,-81.1333"/>
<polygon fill="midnightblue" stroke="midnightblue" points="927.841,-83.3634 932.699,-73.9481 923.029,-78.2788 927.841,-83.3634"/>
</g>
<!-- Node17&#45;&gt;Node11 -->
<g id="edge37" class="edge"><title>Node17&#45;&gt;Node11</title>
<path fill="none" stroke="midnightblue" d="M347.712,-165.382C360.146,-147.713 389.871,-105.472 406.406,-81.9764"/>
<polygon fill="midnightblue" stroke="midnightblue" points="409.329,-83.9041 412.221,-73.7118 403.604,-79.8756 409.329,-83.9041"/>
</g>
<!-- Node17&#45;&gt;Node12 -->
<g id="edge35" class="edge"><title>Node17&#45;&gt;Node12</title>
<path fill="none" stroke="midnightblue" d="M335.816,-165.335C321.617,-145.515 289.356,-93.6461 309,-55 315.979,-41.271 329.399,-30.771 341.879,-23.4277"/>
<polygon fill="midnightblue" stroke="midnightblue" points="343.579,-26.4873 350.695,-18.6375 340.237,-20.3366 343.579,-26.4873"/>
</g>
<!-- Node17&#45;&gt;Node13 -->
<g id="edge39" class="edge"><title>Node17&#45;&gt;Node13</title>
<path fill="none" stroke="midnightblue" d="M385.595,-181.777C414.066,-187.697 450.701,-198.951 477,-220 491.867,-231.899 502.257,-251.306 508.37,-265.538"/>
<polygon fill="midnightblue" stroke="midnightblue" points="505.266,-267.205 512.215,-275.203 511.771,-264.617 505.266,-267.205"/>
</g>
<!-- Node17&#45;&gt;Node15 -->
<g id="edge38" class="edge"><title>Node17&#45;&gt;Node15</title>
<path fill="none" stroke="midnightblue" d="M385.684,-183.194C434.764,-192.49 513.853,-208.155 563.611,-218.412"/>
<polygon fill="midnightblue" stroke="midnightblue" points="562.956,-221.85 573.458,-220.45 564.375,-214.995 562.956,-221.85"/>
</g>
<!-- Node18 -->
<g id="node18" class="node"><title>Node18</title>
<g id="a_node18"><a xlink:href="tcp_server_socket_comm_8h.html" target="_top" xlink:title="Server connection related function definitions. ">
<polygon fill="white" stroke="black" points="716.426,-110.5 716.426,-128.5 843.574,-128.5 843.574,-110.5 716.426,-110.5"/>
<text text-anchor="middle" x="780" y="-116.5" font-family="Helvetica,sans-Serif" font-size="10.00">tcpServerSocketComm.h</text>
</a>
</g>
</g>
<!-- Node17&#45;&gt;Node18 -->
<g id="edge40" class="edge"><title>Node17&#45;&gt;Node18</title>
<path fill="none" stroke="midnightblue" d="M385.598,-168.224C460.472,-159.164 614.286,-140.552 706.14,-129.437"/>
<polygon fill="midnightblue" stroke="midnightblue" points="706.694,-132.896 716.201,-128.22 705.853,-125.947 706.694,-132.896"/>
</g>
<!-- Node19 -->
<g id="node19" class="node"><title>Node19</title>
<g id="a_node19"><a xlink:href="mcast_messaging_8h.html" target="_top" xlink:title="FIle containing all the headers of the functions related to multicast communication. ">
<polygon fill="white" stroke="black" points="484.315,-110.5 484.315,-128.5 583.685,-128.5 583.685,-110.5 484.315,-110.5"/>
<text text-anchor="middle" x="534" y="-116.5" font-family="Helvetica,sans-Serif" font-size="10.00">mcastMessaging.h</text>
</a>
</g>
</g>
<!-- Node17&#45;&gt;Node19 -->
<g id="edge53" class="edge"><title>Node17&#45;&gt;Node19</title>
<path fill="none" stroke="midnightblue" d="M371.161,-165.45C404.243,-156.318 458.347,-141.383 495.028,-131.258"/>
<polygon fill="midnightblue" stroke="midnightblue" points="496.172,-134.573 504.88,-128.538 494.309,-127.825 496.172,-134.573"/>
</g>
<!-- Node18&#45;&gt;Node3 -->
<g id="edge41" class="edge"><title>Node18&#45;&gt;Node3</title>
<path fill="none" stroke="midnightblue" d="M777.585,-110.147C773.022,-96.0428 761.686,-67.794 741,-55 663.402,-7.00634 422.813,-27.8204 332,-19 316.451,-17.4898 299.217,-15.6766 284.739,-14.1135"/>
<polygon fill="midnightblue" stroke="midnightblue" points="285.068,-10.6286 274.748,-13.0274 284.311,-17.5876 285.068,-10.6286"/>
</g>
<!-- Node18&#45;&gt;Node4 -->
<g id="edge42" class="edge"><title>Node18&#45;&gt;Node4</title>
<path fill="none" stroke="midnightblue" d="M716.109,-114.31C638.067,-108.562 501.925,-96.4996 376.249,-73.974"/>
<polygon fill="midnightblue" stroke="midnightblue" points="376.528,-70.4674 366.063,-72.1208 375.275,-77.3543 376.528,-70.4674"/>
</g>
<!-- Node18&#45;&gt;Node5 -->
<g id="edge43" class="edge"><title>Node18&#45;&gt;Node5</title>
<path fill="none" stroke="midnightblue" d="M804.452,-110.45C831.719,-101.475 876.016,-86.8922 906.731,-76.7813"/>
<polygon fill="midnightblue" stroke="midnightblue" points="908.178,-79.9897 916.582,-73.5383 905.989,-73.3407 908.178,-79.9897"/>
</g>
<!-- Node18&#45;&gt;Node6 -->
<g id="edge44" class="edge"><title>Node18&#45;&gt;Node6</title>
<path fill="none" stroke="midnightblue" d="M835.672,-110.477C886.892,-102.781 965.147,-90.2283 1041.73,-74.129"/>
<polygon fill="midnightblue" stroke="midnightblue" points="1042.49,-77.5456 1051.55,-72.044 1041.04,-70.6984 1042.49,-77.5456"/>
</g>
<!-- Node18&#45;&gt;Node7 -->
<g id="edge45" class="edge"><title>Node18&#45;&gt;Node7</title>
<path fill="none" stroke="midnightblue" d="M781.353,-110.382C784.22,-93.1822 790.967,-52.698 794.936,-28.8866"/>
<polygon fill="midnightblue" stroke="midnightblue" points="798.44,-29.1511 796.631,-18.7118 791.535,-28.0003 798.44,-29.1511"/>
</g>
<!-- Node18&#45;&gt;Node8 -->
<g id="edge46" class="edge"><title>Node18&#45;&gt;Node8</title>
<path fill="none" stroke="midnightblue" d="M767.85,-110.45C755.398,-102.201 735.797,-89.2158 720.858,-79.3187"/>
<polygon fill="midnightblue" stroke="midnightblue" points="722.534,-76.2305 712.265,-73.6253 718.668,-82.0661 722.534,-76.2305"/>
</g>
<!-- Node18&#45;&gt;Node9 -->
<g id="edge47" class="edge"><title>Node18&#45;&gt;Node9</title>
<path fill="none" stroke="midnightblue" d="M792.454,-110.45C805.217,-102.201 825.308,-89.2158 840.62,-79.3187"/>
<polygon fill="midnightblue" stroke="midnightblue" points="842.93,-81.9931 849.429,-73.6253 839.13,-76.1142 842.93,-81.9931"/>
</g>
<!-- Node18&#45;&gt;Node10 -->
<g id="edge48" class="edge"><title>Node18&#45;&gt;Node10</title>
<path fill="none" stroke="midnightblue" d="M816.921,-110.45C854.296,-102.228 914.005,-88.892 974.114,-74.4104"/>
<polygon fill="midnightblue" stroke="midnightblue" points="975.256,-77.7351 984.153,-71.9818 973.61,-70.9313 975.256,-77.7351"/>
</g>
<!-- Node18&#45;&gt;Node11 -->
<g id="edge49" class="edge"><title>Node18&#45;&gt;Node11</title>
<path fill="none" stroke="midnightblue" d="M725.02,-110.45C653.113,-99.9227 528.528,-81.6822 462.328,-71.99"/>
<polygon fill="midnightblue" stroke="midnightblue" points="462.623,-68.496 452.222,-70.5104 461.609,-75.4222 462.623,-68.496"/>
</g>
<!-- Node18&#45;&gt;Node13 -->
<g id="edge50" class="edge"><title>Node18&#45;&gt;Node13</title>
<path fill="none" stroke="midnightblue" d="M779.619,-128.808C778.623,-141.868 775.02,-167.417 762,-184 713.22,-246.131 619.522,-269.649 562.597,-278.42"/>
<polygon fill="midnightblue" stroke="midnightblue" points="561.811,-274.998 552.415,-279.893 562.813,-281.926 561.811,-274.998"/>
</g>
<!-- Node18&#45;&gt;Node15 -->
<g id="edge51" class="edge"><title>Node18&#45;&gt;Node15</title>
<path fill="none" stroke="midnightblue" d="M776.793,-128.774C771.159,-142.257 758.228,-168.965 739,-184 717.776,-200.596 689.977,-211.21 665.535,-217.889"/>
<polygon fill="midnightblue" stroke="midnightblue" points="664.463,-214.551 655.65,-220.432 666.206,-221.331 664.463,-214.551"/>
</g>
<!-- Node19&#45;&gt;Node3 -->
<g id="edge54" class="edge"><title>Node19&#45;&gt;Node3</title>
<path fill="none" stroke="midnightblue" d="M527.265,-110.424C515.381,-96.7367 489.257,-69.1001 461,-55 430.474,-39.7677 335.936,-23.4538 285.118,-15.4744"/>
<polygon fill="midnightblue" stroke="midnightblue" points="285.395,-11.9755 274.977,-13.9016 284.322,-18.8928 285.395,-11.9755"/>
</g>
<!-- Node19&#45;&gt;Node7 -->
<g id="edge57" class="edge"><title>Node19&#45;&gt;Node7</title>
<path fill="none" stroke="midnightblue" d="M548.271,-110.297C571.123,-97.3806 617.574,-72.0248 659,-55 691.771,-41.5321 730.212,-29.5006 758.352,-21.3543"/>
<polygon fill="midnightblue" stroke="midnightblue" points="759.57,-24.6463 768.223,-18.5334 757.647,-17.9157 759.57,-24.6463"/>
</g>
<!-- Node19&#45;&gt;Node8 -->
<g id="edge58" class="edge"><title>Node19&#45;&gt;Node8</title>
<path fill="none" stroke="midnightblue" d="M559.212,-110.45C587.447,-101.436 633.396,-86.7653 665.079,-76.6496"/>
<polygon fill="midnightblue" stroke="midnightblue" points="666.362,-79.9141 674.823,-73.5383 664.233,-73.2457 666.362,-79.9141"/>
</g>
<!-- Node19&#45;&gt;Node9 -->
<g id="edge56" class="edge"><title>Node19&#45;&gt;Node9</title>
<path fill="none" stroke="midnightblue" d="M583.816,-110.45C647.007,-100.24 755.097,-82.774 816.275,-72.8885"/>
<polygon fill="midnightblue" stroke="midnightblue" points="817.09,-76.3023 826.403,-71.2519 815.973,-69.3919 817.09,-76.3023"/>
</g>
<!-- Node19&#45;&gt;Node11 -->
<g id="edge59" class="edge"><title>Node19&#45;&gt;Node11</title>
<path fill="none" stroke="midnightblue" d="M516.382,-110.45C497.39,-101.773 466.929,-87.8556 444.93,-77.8041"/>
<polygon fill="midnightblue" stroke="midnightblue" points="446.334,-74.5977 435.784,-73.6253 443.425,-80.9646 446.334,-74.5977"/>
</g>
<!-- Node19&#45;&gt;Node13 -->
<g id="edge60" class="edge"><title>Node19&#45;&gt;Node13</title>
<path fill="none" stroke="midnightblue" d="M533.056,-128.597C530.154,-153.492 521.311,-229.362 517.175,-264.841"/>
<polygon fill="midnightblue" stroke="midnightblue" points="513.65,-264.855 515.968,-275.193 520.603,-265.665 513.65,-264.855"/>
</g>
<!-- Node20 -->
<g id="node20" class="node"><title>Node20</title>
<polygon fill="white" stroke="#bfbfbf" points="507.99,-55.5 507.99,-73.5 574.01,-73.5 574.01,-55.5 507.99,-55.5"/>
<text text-anchor="middle" x="541" y="-61.5" font-family="Helvetica,sans-Serif" font-size="10.00">sys/types.h</text>
</g>
<!-- Node19&#45;&gt;Node20 -->
<g id="edge55" class="edge"><title>Node19&#45;&gt;Node20</title>
<path fill="none" stroke="midnightblue" d="M535.094,-110.219C536.034,-103.099 537.424,-92.5775 538.619,-83.5289"/>
<polygon fill="midnightblue" stroke="midnightblue" points="542.097,-83.9218 539.937,-73.5496 535.158,-83.0052 542.097,-83.9218"/>
</g>
</g>
</svg>
