<?xml version="1.0" encoding="UTF-8" standalone="no"?>
<!DOCTYPE svg PUBLIC "-//W3C//DTD SVG 1.1//EN"
 "http://www.w3.org/Graphics/SVG/1.1/DTD/svg11.dtd">
<!-- Generated by graphviz version 2.38.0 (20140413.2041)
 -->
<!-- Title: SSC_listenToServerMsg Pages: 1 -->
<svg width="413pt" height="64pt"
 viewBox="0.00 0.00 412.55 64.00" xmlns="http://www.w3.org/2000/svg" xmlns:xlink="http://www.w3.org/1999/xlink">
<g id="graph0" class="graph" transform="scale(1 1) rotate(0) translate(4 60)">
<title>SSC_listenToServerMsg</title>
<polygon fill="white" stroke="none" points="-4,4 -4,-60 408.546,-60 408.546,4 -4,4"/>
<!-- Node1 -->
<g id="node1" class="node"><title>Node1</title>
<polygon fill="#bfbfbf" stroke="black" points="0,-18.5 0,-36.5 124.374,-36.5 124.374,-18.5 0,-18.5"/>
<text text-anchor="middle" x="62.187" y="-24.5" font-family="Helvetica,sans-Serif" font-size="10.00">SSC_listenToServerMsg</text>
</g>
<!-- Node2 -->
<g id="node2" class="node"><title>Node2</title>
<g id="a_node2"><a xlink:href="message_parser_8c.html#a1e095af9fe3f1bd7c5a708d797e52bb9" target="_top" xlink:title="Message decoupler and receiver function. ">
<polygon fill="white" stroke="black" points="160.374,-37.5 160.374,-55.5 276.97,-55.5 276.97,-37.5 160.374,-37.5"/>
<text text-anchor="middle" x="218.672" y="-43.5" font-family="Helvetica,sans-Serif" font-size="10.00">MP_messageReceiver</text>
</a>
</g>
</g>
<!-- Node1&#45;&gt;Node2 -->
<g id="edge1" class="edge"><title>Node1&#45;&gt;Node2</title>
<path fill="none" stroke="midnightblue" d="M124.687,-35.0639C132.943,-36.0792 141.448,-37.1253 149.805,-38.1531"/>
<polygon fill="midnightblue" stroke="midnightblue" points="149.546,-41.6475 159.899,-39.3945 150.401,-34.6999 149.546,-41.6475"/>
</g>
<!-- Node4 -->
<g id="node4" class="node"><title>Node4</title>
<g id="a_node4"><a xlink:href="msg_buffers_8c.html#a94d8920e20c5150892cf23b81eb1dfd6" target="_top" xlink:title="Put a message into the buffer. ">
<polygon fill="white" stroke="black" points="173.152,-0.5 173.152,-18.5 264.191,-18.5 264.191,-0.5 173.152,-0.5"/>
<text text-anchor="middle" x="218.672" y="-6.5" font-family="Helvetica,sans-Serif" font-size="10.00">MB_putMessage</text>
</a>
</g>
</g>
<!-- Node1&#45;&gt;Node4 -->
<g id="edge3" class="edge"><title>Node1&#45;&gt;Node4</title>
<path fill="none" stroke="midnightblue" d="M124.687,-20.3342C137.309,-18.8636 150.516,-17.3248 162.882,-15.8839"/>
<polygon fill="midnightblue" stroke="midnightblue" points="163.513,-19.3342 173.04,-14.7003 162.702,-12.3812 163.513,-19.3342"/>
</g>
<!-- Node3 -->
<g id="node3" class="node"><title>Node3</title>
<g id="a_node3"><a xlink:href="message_parser_8c.html#a0026bd717404e4c2f9df87d137721377" target="_top" xlink:title="Message structure initializer. ">
<polygon fill="white" stroke="black" points="312.97,-37.5 312.97,-55.5 404.546,-55.5 404.546,-37.5 312.97,-37.5"/>
<text text-anchor="middle" x="358.758" y="-43.5" font-family="Helvetica,sans-Serif" font-size="10.00">MP_initMsgStruc</text>
</a>
</g>
</g>
<!-- Node2&#45;&gt;Node3 -->
<g id="edge2" class="edge"><title>Node2&#45;&gt;Node3</title>
<path fill="none" stroke="midnightblue" d="M277.033,-46.5C285.462,-46.5 294.13,-46.5 302.515,-46.5"/>
<polygon fill="midnightblue" stroke="midnightblue" points="302.567,-50.0001 312.567,-46.5 302.567,-43.0001 302.567,-50.0001"/>
</g>
</g>
</svg>
