<?xml version="1.0" encoding="UTF-8" standalone="no"?>
<!DOCTYPE svg PUBLIC "-//W3C//DTD SVG 1.1//EN"
 "http://www.w3.org/Graphics/SVG/1.1/DTD/svg11.dtd">
<!-- Generated by graphviz version 2.38.0 (20140413.2041)
 -->
<!-- Title: VSC_initVehicleServer Pages: 1 -->
<svg width="369pt" height="27pt"
 viewBox="0.00 0.00 369.24 27.00" xmlns="http://www.w3.org/2000/svg" xmlns:xlink="http://www.w3.org/1999/xlink">
<g id="graph0" class="graph" transform="scale(1 1) rotate(0) translate(4 23)">
<title>VSC_initVehicleServer</title>
<polygon fill="white" stroke="none" points="-4,4 -4,-23 365.24,-23 365.24,4 -4,4"/>
<!-- Node1 -->
<g id="node1" class="node"><title>Node1</title>
<polygon fill="#bfbfbf" stroke="black" points="0,-0.5 0,-18.5 116.61,-18.5 116.61,-0.5 0,-0.5"/>
<text text-anchor="middle" x="58.3052" y="-6.5" font-family="Helvetica,sans-Serif" font-size="10.00">VSC_initVehicleServer</text>
</g>
<!-- Node2 -->
<g id="node2" class="node"><title>Node2</title>
<g id="a_node2"><a xlink:href="main_8c.html#ae346112f7679ae0199c3158f6624fd8b" target="_top" xlink:title="Thread for controlling the vehicle server initialization and shutdown. ">
<polygon fill="white" stroke="black" points="152.61,-0.5 152.61,-18.5 287.565,-18.5 287.565,-0.5 152.61,-0.5"/>
<text text-anchor="middle" x="220.088" y="-6.5" font-family="Helvetica,sans-Serif" font-size="10.00">vehicleConnControlThread</text>
</a>
</g>
</g>
<!-- Node1&#45;&gt;Node2 -->
<g id="edge1" class="edge"><title>Node1&#45;&gt;Node2</title>
<path fill="none" stroke="midnightblue" d="M127.132,-9.5C135.543,-9.5 144.135,-9.5 152.526,-9.5"/>
<polygon fill="midnightblue" stroke="midnightblue" points="126.99,-6.0001 116.99,-9.5 126.99,-13.0001 126.99,-6.0001"/>
</g>
<!-- Node3 -->
<g id="node3" class="node"><title>Node3</title>
<g id="a_node3"><a xlink:href="main_8c.html#ac0f2228420376f4db7e1274f2b41667c" target="_top" xlink:title="main">
<polygon fill="white" stroke="black" points="323.565,-0.5 323.565,-18.5 361.24,-18.5 361.24,-0.5 323.565,-0.5"/>
<text text-anchor="middle" x="342.403" y="-6.5" font-family="Helvetica,sans-Serif" font-size="10.00">main</text>
</a>
</g>
</g>
<!-- Node2&#45;&gt;Node3 -->
<g id="edge2" class="edge"><title>Node2&#45;&gt;Node3</title>
<path fill="none" stroke="midnightblue" d="M297.708,-9.5C307.262,-9.5 316.216,-9.5 323.5,-9.5"/>
<polygon fill="midnightblue" stroke="midnightblue" points="297.58,-6.0001 287.58,-9.5 297.58,-13.0001 297.58,-6.0001"/>
</g>
</g>
</svg>
