<?xml version="1.0" encoding="UTF-8" standalone="no"?>
<!DOCTYPE svg PUBLIC "-//W3C//DTD SVG 1.1//EN"
 "http://www.w3.org/Graphics/SVG/1.1/DTD/svg11.dtd">
<!-- Generated by graphviz version 2.38.0 (20140413.2041)
 -->
<!-- Title: rasPi&#45;EmergencyStation/tcpVehicleSocketComm.h Pages: 1 -->
<svg width="658pt" height="427pt"
 viewBox="0.00 0.00 658.38 427.00" xmlns="http://www.w3.org/2000/svg" xmlns:xlink="http://www.w3.org/1999/xlink">
<g id="graph0" class="graph" transform="scale(1 1) rotate(0) translate(4 423)">
<title>rasPi&#45;EmergencyStation/tcpVehicleSocketComm.h</title>
<polygon fill="white" stroke="none" points="-4,4 -4,-423 654.385,-423 654.385,4 -4,4"/>
<!-- Node1 -->
<g id="node1" class="node"><title>Node1</title>
<polygon fill="#bfbfbf" stroke="black" points="333.638,-390.5 333.638,-418.5 466.362,-418.5 466.362,-390.5 333.638,-390.5"/>
<text text-anchor="start" x="341.638" y="-406.5" font-family="Helvetica,sans-Serif" font-size="10.00">rasPi&#45;EmergencyStation</text>
<text text-anchor="middle" x="400" y="-396.5" font-family="Helvetica,sans-Serif" font-size="10.00">/tcpVehicleSocketComm.h</text>
</g>
<!-- Node2 -->
<g id="node2" class="node"><title>Node2</title>
<g id="a_node2"><a xlink:href="message_parser_8h.html" target="_top" xlink:title="Message parser function headers. ">
<polygon fill="white" stroke="black" points="338.089,-325.5 338.089,-353.5 461.911,-353.5 461.911,-325.5 338.089,-325.5"/>
<text text-anchor="start" x="346.089" y="-341.5" font-family="Helvetica,sans-Serif" font-size="10.00">rasPi&#45;EmergencyStation</text>
<text text-anchor="middle" x="400" y="-331.5" font-family="Helvetica,sans-Serif" font-size="10.00">/messageParser.h</text>
</a>
</g>
</g>
<!-- Node1&#45;&gt;Node2 -->
<g id="edge1" class="edge"><title>Node1&#45;&gt;Node2</title>
<path fill="none" stroke="midnightblue" d="M393.471,-380.46C392.986,-371.388 393.299,-361.305 394.41,-353.537"/>
<polygon fill="midnightblue" stroke="midnightblue" points="389.989,-380.817 394.407,-390.446 396.959,-380.163 389.989,-380.817"/>
</g>
<!-- Node3 -->
<g id="node3" class="node"><title>Node3</title>
<g id="a_node3"><a xlink:href="main_8h.html" target="_top" xlink:title="Main file&#39;s headers of the emergency station application. ">
<polygon fill="white" stroke="black" points="14.0889,-65.5 14.0889,-93.5 137.911,-93.5 137.911,-65.5 14.0889,-65.5"/>
<text text-anchor="start" x="22.0889" y="-81.5" font-family="Helvetica,sans-Serif" font-size="10.00">rasPi&#45;EmergencyStation</text>
<text text-anchor="middle" x="76" y="-71.5" font-family="Helvetica,sans-Serif" font-size="10.00">/main.h</text>
</a>
</g>
</g>
<!-- Node1&#45;&gt;Node3 -->
<g id="edge26" class="edge"><title>Node1&#45;&gt;Node3</title>
<path fill="none" stroke="midnightblue" d="M323.238,-394.787C207.07,-379.434 0,-342.65 0,-275.5 0,-275.5 0,-275.5 0,-208.5 0,-160.688 39.6896,-115.134 61.705,-93.5429"/>
<polygon fill="midnightblue" stroke="midnightblue" points="323.132,-398.302 333.499,-396.118 324.033,-391.36 323.132,-398.302"/>
</g>
<!-- Node6 -->
<g id="node6" class="node"><title>Node6</title>
<g id="a_node6"><a xlink:href="station_actions_8h.html" target="_top" xlink:title="FIle containing all the station action headers. ">
<polygon fill="white" stroke="black" points="507.089,-130.5 507.089,-158.5 630.911,-158.5 630.911,-130.5 507.089,-130.5"/>
<text text-anchor="start" x="515.089" y="-146.5" font-family="Helvetica,sans-Serif" font-size="10.00">rasPi&#45;EmergencyStation</text>
<text text-anchor="middle" x="569" y="-136.5" font-family="Helvetica,sans-Serif" font-size="10.00">/stationActions.h</text>
</a>
</g>
</g>
<!-- Node1&#45;&gt;Node6 -->
<g id="edge25" class="edge"><title>Node1&#45;&gt;Node6</title>
<path fill="none" stroke="midnightblue" d="M476.637,-395.486C530.117,-388.313 594.77,-375.516 612,-354 630.27,-331.186 653.257,-343.987 595,-195 589.711,-181.473 579.953,-168.146 573.492,-158.733"/>
<polygon fill="midnightblue" stroke="midnightblue" points="475.92,-392.05 466.452,-396.804 476.818,-398.992 475.92,-392.05"/>
</g>
<!-- Node14 -->
<g id="node14" class="node"><title>Node14</title>
<g id="a_node14"><a xlink:href="tcp_vehicle_socket_comm_8c.html" target="_top" xlink:title="Vehicle connection server related function definitions. ">
<polygon fill="white" stroke="black" points="479.919,-325.5 479.919,-353.5 612.081,-353.5 612.081,-325.5 479.919,-325.5"/>
<text text-anchor="start" x="487.919" y="-341.5" font-family="Helvetica,sans-Serif" font-size="10.00">rasPi&#45;EmergencyStation</text>
<text text-anchor="middle" x="546" y="-331.5" font-family="Helvetica,sans-Serif" font-size="10.00">/tcpVehicleSocketComm.c</text>
</a>
</g>
</g>
<!-- Node1&#45;&gt;Node14 -->
<g id="edge27" class="edge"><title>Node1&#45;&gt;Node14</title>
<path fill="none" stroke="midnightblue" d="M439.455,-386.475C463.47,-376.112 493.676,-363.078 515.787,-353.537"/>
<polygon fill="midnightblue" stroke="midnightblue" points="438.046,-383.271 430.251,-390.446 440.82,-389.698 438.046,-383.271"/>
</g>
<!-- Node2&#45;&gt;Node1 -->
<g id="edge21" class="edge"><title>Node2&#45;&gt;Node1</title>
<path fill="none" stroke="midnightblue" d="M406.528,-363.52C407.014,-372.591 406.702,-382.675 405.593,-390.446"/>
<polygon fill="midnightblue" stroke="midnightblue" points="410.01,-363.166 405.59,-353.537 403.041,-363.82 410.01,-363.166"/>
</g>
<!-- Node2&#45;&gt;Node3 -->
<g id="edge2" class="edge"><title>Node2&#45;&gt;Node3</title>
<path fill="none" stroke="midnightblue" d="M327.715,-333.106C256.057,-323.554 149.35,-297.118 95,-224 65.4657,-184.267 70.1351,-120.708 73.8562,-93.5217"/>
<polygon fill="midnightblue" stroke="midnightblue" points="327.666,-336.627 338.023,-334.396 328.535,-329.681 327.666,-336.627"/>
</g>
<!-- Node5 -->
<g id="node5" class="node"><title>Node5</title>
<g id="a_node5"><a xlink:href="msg_buffers_8h.html" target="_top" xlink:title="File containing the headers of all functions related to the message mailboxes. ">
<polygon fill="white" stroke="black" points="248.089,-260.5 248.089,-288.5 371.911,-288.5 371.911,-260.5 248.089,-260.5"/>
<text text-anchor="start" x="256.089" y="-276.5" font-family="Helvetica,sans-Serif" font-size="10.00">rasPi&#45;EmergencyStation</text>
<text text-anchor="middle" x="310" y="-266.5" font-family="Helvetica,sans-Serif" font-size="10.00">/msgBuffers.h</text>
</a>
</g>
</g>
<!-- Node2&#45;&gt;Node5 -->
<g id="edge4" class="edge"><title>Node2&#45;&gt;Node5</title>
<path fill="none" stroke="midnightblue" d="M367.062,-319.803C351.816,-309.738 334.649,-297.572 323.034,-288.537"/>
<polygon fill="midnightblue" stroke="midnightblue" points="365.465,-322.939 375.759,-325.446 369.276,-317.067 365.465,-322.939"/>
</g>
<!-- Node2&#45;&gt;Node6 -->
<g id="edge22" class="edge"><title>Node2&#45;&gt;Node6</title>
<path fill="none" stroke="midnightblue" d="M471.468,-322.966C505.595,-314.406 541.255,-302.728 552,-289 582.297,-250.292 570.702,-186.18 567.85,-158.685"/>
<polygon fill="midnightblue" stroke="midnightblue" points="470.321,-319.643 461.432,-325.408 471.976,-326.444 470.321,-319.643"/>
</g>
<!-- Node8 -->
<g id="node8" class="node"><title>Node8</title>
<g id="a_node8"><a xlink:href="tcp_server_socket_comm_8h.html" target="_top" xlink:title="Server connection related function definitions. ">
<polygon fill="white" stroke="black" points="388.037,-195.5 388.037,-223.5 517.963,-223.5 517.963,-195.5 388.037,-195.5"/>
<text text-anchor="start" x="396.037" y="-211.5" font-family="Helvetica,sans-Serif" font-size="10.00">rasPi&#45;EmergencyStation</text>
<text text-anchor="middle" x="453" y="-201.5" font-family="Helvetica,sans-Serif" font-size="10.00">/tcpServerSocketComm.h</text>
</a>
</g>
</g>
<!-- Node2&#45;&gt;Node8 -->
<g id="edge23" class="edge"><title>Node2&#45;&gt;Node8</title>
<path fill="none" stroke="midnightblue" d="M403.356,-315.147C406.202,-299.141 411.108,-277.687 419,-260 424.947,-246.671 434.558,-233.116 442.047,-223.569"/>
<polygon fill="midnightblue" stroke="midnightblue" points="399.864,-314.811 401.704,-325.245 406.772,-315.942 399.864,-314.811"/>
</g>
<!-- Node13 -->
<g id="node13" class="node"><title>Node13</title>
<g id="a_node13"><a xlink:href="message_parser_8c.html" target="_top" xlink:title="Message parser functions definition. ">
<polygon fill="white" stroke="black" points="428.089,-260.5 428.089,-288.5 551.911,-288.5 551.911,-260.5 428.089,-260.5"/>
<text text-anchor="start" x="436.089" y="-276.5" font-family="Helvetica,sans-Serif" font-size="10.00">rasPi&#45;EmergencyStation</text>
<text text-anchor="middle" x="490" y="-266.5" font-family="Helvetica,sans-Serif" font-size="10.00">/messageParser.c</text>
</a>
</g>
</g>
<!-- Node2&#45;&gt;Node13 -->
<g id="edge24" class="edge"><title>Node2&#45;&gt;Node13</title>
<path fill="none" stroke="midnightblue" d="M427.114,-319.52C441.413,-309.511 458.59,-297.487 471.376,-288.537"/>
<polygon fill="midnightblue" stroke="midnightblue" points="424.833,-316.844 418.648,-325.446 428.848,-322.579 424.833,-316.844"/>
</g>
<!-- Node4 -->
<g id="node4" class="node"><title>Node4</title>
<g id="a_node4"><a xlink:href="main_8c.html" target="_top" xlink:title="Main file and functions of the emergency station application. ">
<polygon fill="white" stroke="black" points="14.0889,-0.5 14.0889,-28.5 137.911,-28.5 137.911,-0.5 14.0889,-0.5"/>
<text text-anchor="start" x="22.0889" y="-16.5" font-family="Helvetica,sans-Serif" font-size="10.00">rasPi&#45;EmergencyStation</text>
<text text-anchor="middle" x="76" y="-6.5" font-family="Helvetica,sans-Serif" font-size="10.00">/main.c</text>
</a>
</g>
</g>
<!-- Node3&#45;&gt;Node4 -->
<g id="edge3" class="edge"><title>Node3&#45;&gt;Node4</title>
<path fill="none" stroke="midnightblue" d="M76,-55.1641C76,-46.1693 76,-36.2205 76,-28.5369"/>
<polygon fill="midnightblue" stroke="midnightblue" points="72.5001,-55.4463 76,-65.4464 79.5001,-55.4464 72.5001,-55.4463"/>
</g>
<!-- Node5&#45;&gt;Node1 -->
<g id="edge6" class="edge"><title>Node5&#45;&gt;Node1</title>
<path fill="none" stroke="midnightblue" d="M311.265,-298.588C313.151,-315.235 317.769,-337.573 329,-354 339.771,-369.753 357.329,-382.059 372.289,-390.46"/>
<polygon fill="midnightblue" stroke="midnightblue" points="314.748,-298.241 310.379,-288.59 307.776,-298.86 314.748,-298.241"/>
</g>
<!-- Node5&#45;&gt;Node2 -->
<g id="edge5" class="edge"><title>Node5&#45;&gt;Node2</title>
<path fill="none" stroke="midnightblue" d="M342.91,-294.179C358.153,-304.241 375.323,-316.408 386.945,-325.446"/>
<polygon fill="midnightblue" stroke="midnightblue" points="344.509,-291.044 334.215,-288.537 340.699,-296.916 344.509,-291.044"/>
</g>
<!-- Node5&#45;&gt;Node3 -->
<g id="edge19" class="edge"><title>Node5&#45;&gt;Node3</title>
<path fill="none" stroke="midnightblue" d="M237.974,-265.74C183.204,-258.285 114.107,-245.007 95,-224 61.5192,-187.19 68.4631,-121.478 73.3282,-93.5917"/>
<polygon fill="midnightblue" stroke="midnightblue" points="237.647,-269.227 248.019,-267.065 238.563,-262.287 237.647,-269.227"/>
</g>
<!-- Node5&#45;&gt;Node6 -->
<g id="edge7" class="edge"><title>Node5&#45;&gt;Node6</title>
<path fill="none" stroke="midnightblue" d="M381.877,-263.649C435.917,-255.057 504.372,-241.27 527,-224 548.748,-207.402 560.5,-176.23 565.683,-158.571"/>
<polygon fill="midnightblue" stroke="midnightblue" points="381.31,-260.195 371.968,-265.193 382.388,-267.112 381.31,-260.195"/>
</g>
<!-- Node5&#45;&gt;Node8 -->
<g id="edge12" class="edge"><title>Node5&#45;&gt;Node8</title>
<path fill="none" stroke="midnightblue" d="M348.956,-256.337C372.428,-245.997 401.847,-233.036 423.408,-223.537"/>
<polygon fill="midnightblue" stroke="midnightblue" points="347.37,-253.212 339.63,-260.446 350.192,-259.618 347.37,-253.212"/>
</g>
<!-- Node10 -->
<g id="node10" class="node"><title>Node10</title>
<g id="a_node10"><a xlink:href="mcast_messaging_8h.html" target="_top" xlink:title="FIle containing all the headers of the functions related to multicast communication. ">
<polygon fill="white" stroke="black" points="246.089,-195.5 246.089,-223.5 369.911,-223.5 369.911,-195.5 246.089,-195.5"/>
<text text-anchor="start" x="254.089" y="-211.5" font-family="Helvetica,sans-Serif" font-size="10.00">rasPi&#45;EmergencyStation</text>
<text text-anchor="middle" x="308" y="-201.5" font-family="Helvetica,sans-Serif" font-size="10.00">/mcastMessaging.h</text>
</a>
</g>
</g>
<!-- Node5&#45;&gt;Node10 -->
<g id="edge16" class="edge"><title>Node5&#45;&gt;Node10</title>
<path fill="none" stroke="midnightblue" d="M309.259,-250.164C308.974,-241.169 308.658,-231.221 308.414,-223.537"/>
<polygon fill="midnightblue" stroke="midnightblue" points="305.77,-250.562 309.586,-260.446 312.766,-250.34 305.77,-250.562"/>
</g>
<!-- Node12 -->
<g id="node12" class="node"><title>Node12</title>
<g id="a_node12"><a xlink:href="msg_buffers_8c.html" target="_top" xlink:title="File containing the definitions of all functions related to the message mailboxes. ">
<polygon fill="white" stroke="black" points="104.089,-195.5 104.089,-223.5 227.911,-223.5 227.911,-195.5 104.089,-195.5"/>
<text text-anchor="start" x="112.089" y="-211.5" font-family="Helvetica,sans-Serif" font-size="10.00">rasPi&#45;EmergencyStation</text>
<text text-anchor="middle" x="166" y="-201.5" font-family="Helvetica,sans-Serif" font-size="10.00">/msgBuffers.c</text>
</a>
</g>
</g>
<!-- Node5&#45;&gt;Node12 -->
<g id="edge20" class="edge"><title>Node5&#45;&gt;Node12</title>
<path fill="none" stroke="midnightblue" d="M270.771,-256.337C247.136,-245.997 217.511,-233.036 195.799,-223.537"/>
<polygon fill="midnightblue" stroke="midnightblue" points="269.599,-259.645 280.163,-260.446 272.404,-253.232 269.599,-259.645"/>
</g>
<!-- Node6&#45;&gt;Node1 -->
<g id="edge8" class="edge"><title>Node6&#45;&gt;Node1</title>
<path fill="none" stroke="midnightblue" d="M595.429,-166.208C602.417,-174.613 608.992,-184.749 613,-195 671.257,-343.987 648.27,-331.186 630,-354 610.123,-378.821 527.137,-392.038 466.456,-398.405"/>
<polygon fill="midnightblue" stroke="midnightblue" points="597.975,-163.805 588.672,-158.733 592.782,-168.499 597.975,-163.805"/>
</g>
<!-- Node6&#45;&gt;Node2 -->
<g id="edge9" class="edge"><title>Node6&#45;&gt;Node2</title>
<path fill="none" stroke="midnightblue" d="M580.988,-168.131C590.625,-198.941 597.22,-254.223 570,-289 556.662,-306.04 504.936,-319.922 461.926,-328.602"/>
<polygon fill="midnightblue" stroke="midnightblue" points="584.282,-166.946 577.648,-158.685 577.682,-169.28 584.282,-166.946"/>
</g>
<!-- Node6&#45;&gt;Node3 -->
<g id="edge10" class="edge"><title>Node6&#45;&gt;Node3</title>
<path fill="none" stroke="midnightblue" d="M496.652,-132.349C491.02,-131.535 485.419,-130.743 480,-130 359.06,-113.422 217.376,-96.6774 138.015,-87.5401"/>
<polygon fill="midnightblue" stroke="midnightblue" points="496.388,-135.847 506.79,-133.832 497.401,-128.921 496.388,-135.847"/>
</g>
<!-- Node7 -->
<g id="node7" class="node"><title>Node7</title>
<g id="a_node7"><a xlink:href="station_actions_8c.html" target="_top" xlink:title="FIle containing all the station action definitions. ">
<polygon fill="white" stroke="black" points="507.089,-65.5 507.089,-93.5 630.911,-93.5 630.911,-65.5 507.089,-65.5"/>
<text text-anchor="start" x="515.089" y="-81.5" font-family="Helvetica,sans-Serif" font-size="10.00">rasPi&#45;EmergencyStation</text>
<text text-anchor="middle" x="569" y="-71.5" font-family="Helvetica,sans-Serif" font-size="10.00">/stationActions.c</text>
</a>
</g>
</g>
<!-- Node6&#45;&gt;Node7 -->
<g id="edge11" class="edge"><title>Node6&#45;&gt;Node7</title>
<path fill="none" stroke="midnightblue" d="M569,-120.164C569,-111.169 569,-101.221 569,-93.5369"/>
<polygon fill="midnightblue" stroke="midnightblue" points="565.5,-120.446 569,-130.446 572.5,-120.446 565.5,-120.446"/>
</g>
<!-- Node8&#45;&gt;Node3 -->
<g id="edge14" class="edge"><title>Node8&#45;&gt;Node3</title>
<path fill="none" stroke="midnightblue" d="M458.234,-185.418C460.731,-167.915 460.684,-144.478 447,-130 405.991,-86.6125 232.714,-80.0075 138.173,-79.7351"/>
<polygon fill="midnightblue" stroke="midnightblue" points="454.761,-184.956 456.449,-195.415 461.652,-186.186 454.761,-184.956"/>
</g>
<!-- Node8&#45;&gt;Node6 -->
<g id="edge13" class="edge"><title>Node8&#45;&gt;Node6</title>
<path fill="none" stroke="midnightblue" d="M485.877,-190.644C504.698,-180.422 527.894,-167.825 544.996,-158.537"/>
<polygon fill="midnightblue" stroke="midnightblue" points="484.152,-187.598 477.035,-195.446 487.493,-193.749 484.152,-187.598"/>
</g>
<!-- Node9 -->
<g id="node9" class="node"><title>Node9</title>
<g id="a_node9"><a xlink:href="tcp_server_socket_comm_8c.html" target="_top" xlink:title="Server connection related function headers. ">
<polygon fill="white" stroke="black" points="308.318,-130.5 308.318,-158.5 437.682,-158.5 437.682,-130.5 308.318,-130.5"/>
<text text-anchor="start" x="316.318" y="-146.5" font-family="Helvetica,sans-Serif" font-size="10.00">rasPi&#45;EmergencyStation</text>
<text text-anchor="middle" x="373" y="-136.5" font-family="Helvetica,sans-Serif" font-size="10.00">/tcpServerSocketComm.c</text>
</a>
</g>
</g>
<!-- Node8&#45;&gt;Node9 -->
<g id="edge15" class="edge"><title>Node8&#45;&gt;Node9</title>
<path fill="none" stroke="midnightblue" d="M428.538,-189.236C415.9,-179.284 400.813,-167.403 389.555,-158.537"/>
<polygon fill="midnightblue" stroke="midnightblue" points="426.402,-192.009 436.424,-195.446 430.733,-186.51 426.402,-192.009"/>
</g>
<!-- Node10&#45;&gt;Node6 -->
<g id="edge17" class="edge"><title>Node10&#45;&gt;Node6</title>
<path fill="none" stroke="midnightblue" d="M372.067,-193.036C415.931,-182.448 473.451,-168.564 514.99,-158.537"/>
<polygon fill="midnightblue" stroke="midnightblue" points="370.979,-189.698 362.079,-195.446 372.621,-196.502 370.979,-189.698"/>
</g>
<!-- Node11 -->
<g id="node11" class="node"><title>Node11</title>
<g id="a_node11"><a xlink:href="mcast_messaging_8c.html" target="_top" xlink:title="FIle containing all the definition of the functions related to multicast communication. ">
<polygon fill="white" stroke="black" points="166.089,-130.5 166.089,-158.5 289.911,-158.5 289.911,-130.5 166.089,-130.5"/>
<text text-anchor="start" x="174.089" y="-146.5" font-family="Helvetica,sans-Serif" font-size="10.00">rasPi&#45;EmergencyStation</text>
<text text-anchor="middle" x="228" y="-136.5" font-family="Helvetica,sans-Serif" font-size="10.00">/mcastMessaging.c</text>
</a>
</g>
</g>
<!-- Node10&#45;&gt;Node11 -->
<g id="edge18" class="edge"><title>Node10&#45;&gt;Node11</title>
<path fill="none" stroke="midnightblue" d="M283.538,-189.236C270.9,-179.284 255.813,-167.403 244.555,-158.537"/>
<polygon fill="midnightblue" stroke="midnightblue" points="281.402,-192.009 291.424,-195.446 285.733,-186.51 281.402,-192.009"/>
</g>
</g>
</svg>
