<?xml version="1.0" encoding="UTF-8" standalone="no"?>
<!DOCTYPE svg PUBLIC "-//W3C//DTD SVG 1.1//EN"
 "http://www.w3.org/Graphics/SVG/1.1/DTD/svg11.dtd">
<!-- Generated by graphviz version 2.38.0 (20140413.2041)
 -->
<!-- Title: SSC_msgSenderThreadFunc Pages: 1 -->
<svg width="748pt" height="27pt"
 viewBox="0.00 0.00 748.36 27.00" xmlns="http://www.w3.org/2000/svg" xmlns:xlink="http://www.w3.org/1999/xlink">
<g id="graph0" class="graph" transform="scale(1 1) rotate(0) translate(4 23)">
<title>SSC_msgSenderThreadFunc</title>
<polygon fill="white" stroke="none" points="-4,4 -4,-23 744.362,-23 744.362,4 -4,4"/>
<!-- Node1 -->
<g id="node1" class="node"><title>Node1</title>
<polygon fill="#bfbfbf" stroke="black" points="0,-0.5 0,-18.5 147.177,-18.5 147.177,-0.5 0,-0.5"/>
<text text-anchor="middle" x="73.5884" y="-6.5" font-family="Helvetica,sans-Serif" font-size="10.00">SSC_msgSenderThreadFunc</text>
</g>
<!-- Node2 -->
<g id="node2" class="node"><title>Node2</title>
<g id="a_node2"><a xlink:href="tcp_server_socket_comm_8h.html#aefcfff31ea3a9b0d92a83ab83c9874f9" target="_top" xlink:title="Start the threads for listening and sending messages to the server. ">
<polygon fill="white" stroke="black" points="183.177,-0.5 183.177,-18.5 328.127,-18.5 328.127,-0.5 183.177,-0.5"/>
<text text-anchor="middle" x="255.652" y="-6.5" font-family="Helvetica,sans-Serif" font-size="10.00">SSC_initServerConnThreads</text>
</a>
</g>
</g>
<!-- Node1&#45;&gt;Node2 -->
<g id="edge1" class="edge"><title>Node1&#45;&gt;Node2</title>
<path fill="none" stroke="midnightblue" d="M157.352,-9.5C165.959,-9.5 174.655,-9.5 183.123,-9.5"/>
<polygon fill="midnightblue" stroke="midnightblue" points="157.308,-6.0001 147.308,-9.5 157.308,-13.0001 157.308,-6.0001"/>
</g>
<!-- Node3 -->
<g id="node3" class="node"><title>Node3</title>
<g id="a_node3"><a xlink:href="tcp_server_socket_comm_8h.html#a64aaa41ac5e2fbe7f8ba88c053b49ff9" target="_top" xlink:title="Initialize the connection to the server. ">
<polygon fill="white" stroke="black" points="364.127,-0.5 364.127,-18.5 499.077,-18.5 499.077,-0.5 364.127,-0.5"/>
<text text-anchor="middle" x="431.602" y="-6.5" font-family="Helvetica,sans-Serif" font-size="10.00">SSC_initServerConnection</text>
</a>
</g>
</g>
<!-- Node2&#45;&gt;Node3 -->
<g id="edge2" class="edge"><title>Node2&#45;&gt;Node3</title>
<path fill="none" stroke="midnightblue" d="M338.272,-9.5C346.935,-9.5 355.668,-9.5 364.127,-9.5"/>
<polygon fill="midnightblue" stroke="midnightblue" points="338.157,-6.0001 328.157,-9.5 338.157,-13.0001 338.157,-6.0001"/>
</g>
<!-- Node4 -->
<g id="node4" class="node"><title>Node4</title>
<g id="a_node4"><a xlink:href="main_8c.html#aea1c0564829983a4a1da026f1640f762" target="_top" xlink:title="Thread for controlling the server client initialization and shutdown. ">
<polygon fill="white" stroke="black" points="535.077,-0.5 535.077,-18.5 666.688,-18.5 666.688,-0.5 535.077,-0.5"/>
<text text-anchor="middle" x="600.882" y="-6.5" font-family="Helvetica,sans-Serif" font-size="10.00">serverConnControlThread</text>
</a>
</g>
</g>
<!-- Node3&#45;&gt;Node4 -->
<g id="edge3" class="edge"><title>Node3&#45;&gt;Node4</title>
<path fill="none" stroke="midnightblue" d="M509.203,-9.5C517.784,-9.5 526.465,-9.5 534.881,-9.5"/>
<polygon fill="midnightblue" stroke="midnightblue" points="509.196,-6.0001 499.196,-9.5 509.196,-13.0001 509.196,-6.0001"/>
</g>
<!-- Node5 -->
<g id="node5" class="node"><title>Node5</title>
<g id="a_node5"><a xlink:href="main_8c.html#ac0f2228420376f4db7e1274f2b41667c" target="_top" xlink:title="main">
<polygon fill="white" stroke="black" points="702.688,-0.5 702.688,-18.5 740.362,-18.5 740.362,-0.5 702.688,-0.5"/>
<text text-anchor="middle" x="721.525" y="-6.5" font-family="Helvetica,sans-Serif" font-size="10.00">main</text>
</a>
</g>
</g>
<!-- Node4&#45;&gt;Node5 -->
<g id="edge4" class="edge"><title>Node4&#45;&gt;Node5</title>
<path fill="none" stroke="midnightblue" d="M676.848,-9.5C686.373,-9.5 695.318,-9.5 702.602,-9.5"/>
<polygon fill="midnightblue" stroke="midnightblue" points="676.758,-6.0001 666.758,-9.5 676.758,-13.0001 676.758,-6.0001"/>
</g>
</g>
</svg>
