<?xml version="1.0" encoding="UTF-8" standalone="no"?>
<!DOCTYPE svg PUBLIC "-//W3C//DTD SVG 1.1//EN"
 "http://www.w3.org/Graphics/SVG/1.1/DTD/svg11.dtd">
<!-- Generated by graphviz version 2.38.0 (20140413.2041)
 -->
<!-- Title: SSC_initServerConnection Pages: 1 -->
<svg width="384pt" height="27pt"
 viewBox="0.00 0.00 384.24 27.00" xmlns="http://www.w3.org/2000/svg" xmlns:xlink="http://www.w3.org/1999/xlink">
<g id="graph0" class="graph" transform="scale(1 1) rotate(0) translate(4 23)">
<title>SSC_initServerConnection</title>
<polygon fill="white" stroke="none" points="-4,4 -4,-23 380.235,-23 380.235,4 -4,4"/>
<!-- Node1 -->
<g id="node1" class="node"><title>Node1</title>
<polygon fill="#bfbfbf" stroke="black" points="0,-0.5 0,-18.5 134.95,-18.5 134.95,-0.5 0,-0.5"/>
<text text-anchor="middle" x="67.4751" y="-6.5" font-family="Helvetica,sans-Serif" font-size="10.00">SSC_initServerConnection</text>
</g>
<!-- Node2 -->
<g id="node2" class="node"><title>Node2</title>
<g id="a_node2"><a xlink:href="main_8c.html#aea1c0564829983a4a1da026f1640f762" target="_top" xlink:title="Thread for controlling the server client initialization and shutdown. ">
<polygon fill="white" stroke="black" points="170.95,-0.5 170.95,-18.5 302.561,-18.5 302.561,-0.5 170.95,-0.5"/>
<text text-anchor="middle" x="236.755" y="-6.5" font-family="Helvetica,sans-Serif" font-size="10.00">serverConnControlThread</text>
</a>
</g>
</g>
<!-- Node1&#45;&gt;Node2 -->
<g id="edge1" class="edge"><title>Node1&#45;&gt;Node2</title>
<path fill="none" stroke="midnightblue" d="M145.076,-9.5C153.657,-9.5 162.338,-9.5 170.754,-9.5"/>
<polygon fill="midnightblue" stroke="midnightblue" points="145.069,-6.0001 135.069,-9.5 145.069,-13.0001 145.069,-6.0001"/>
</g>
<!-- Node3 -->
<g id="node3" class="node"><title>Node3</title>
<g id="a_node3"><a xlink:href="main_8c.html#ac0f2228420376f4db7e1274f2b41667c" target="_top" xlink:title="main">
<polygon fill="white" stroke="black" points="338.561,-0.5 338.561,-18.5 376.235,-18.5 376.235,-0.5 338.561,-0.5"/>
<text text-anchor="middle" x="357.398" y="-6.5" font-family="Helvetica,sans-Serif" font-size="10.00">main</text>
</a>
</g>
</g>
<!-- Node2&#45;&gt;Node3 -->
<g id="edge2" class="edge"><title>Node2&#45;&gt;Node3</title>
<path fill="none" stroke="midnightblue" d="M312.721,-9.5C322.246,-9.5 331.191,-9.5 338.475,-9.5"/>
<polygon fill="midnightblue" stroke="midnightblue" points="312.631,-6.0001 302.631,-9.5 312.631,-13.0001 312.631,-6.0001"/>
</g>
</g>
</svg>
