<?xml version="1.0" encoding="UTF-8" standalone="no"?>
<!DOCTYPE svg PUBLIC "-//W3C//DTD SVG 1.1//EN"
 "http://www.w3.org/Graphics/SVG/1.1/DTD/svg11.dtd">
<!-- Generated by graphviz version 2.38.0 (20140413.2041)
 -->
<!-- Title: rasPi&#45;EmergencyStation/tcpVehicleSocketComm.h Pages: 1 -->
<svg width="1057pt" height="367pt"
 viewBox="0.00 0.00 1057.00 367.00" xmlns="http://www.w3.org/2000/svg" xmlns:xlink="http://www.w3.org/1999/xlink">
<g id="graph0" class="graph" transform="scale(1 1) rotate(0) translate(4 363)">
<title>rasPi&#45;EmergencyStation/tcpVehicleSocketComm.h</title>
<polygon fill="white" stroke="none" points="-4,4 -4,-363 1053,-363 1053,4 -4,4"/>
<!-- Node1 -->
<g id="node1" class="node"><title>Node1</title>
<polygon fill="#bfbfbf" stroke="black" points="516.638,-330.5 516.638,-358.5 649.362,-358.5 649.362,-330.5 516.638,-330.5"/>
<text text-anchor="start" x="524.638" y="-346.5" font-family="Helvetica,sans-Serif" font-size="10.00">rasPi&#45;EmergencyStation</text>
<text text-anchor="middle" x="583" y="-336.5" font-family="Helvetica,sans-Serif" font-size="10.00">/tcpVehicleSocketComm.h</text>
</g>
<!-- Node2 -->
<g id="node2" class="node"><title>Node2</title>
<polygon fill="white" stroke="#bfbfbf" points="113.604,-55.5 113.604,-73.5 162.396,-73.5 162.396,-55.5 113.604,-55.5"/>
<text text-anchor="middle" x="138" y="-61.5" font-family="Helvetica,sans-Serif" font-size="10.00">string.h</text>
</g>
<!-- Node1&#45;&gt;Node2 -->
<g id="edge1" class="edge"><title>Node1&#45;&gt;Node2</title>
<path fill="none" stroke="midnightblue" d="M516.39,-337.302C462.597,-330.787 385.649,-318.012 322,-294 277.07,-277.05 268.537,-266.254 229,-239 196.711,-216.743 182.892,-215.843 160,-184 144.817,-162.881 144.916,-154.542 140,-129 137.127,-114.074 136.768,-96.8155 137.048,-84.062"/>
<polygon fill="midnightblue" stroke="midnightblue" points="140.555,-83.9359 137.432,-73.8119 133.56,-83.674 140.555,-83.9359"/>
</g>
<!-- Node3 -->
<g id="node3" class="node"><title>Node3</title>
<polygon fill="white" stroke="#bfbfbf" points="778.537,-0.5 778.537,-18.5 843.463,-18.5 843.463,-0.5 778.537,-0.5"/>
<text text-anchor="middle" x="811" y="-6.5" font-family="Helvetica,sans-Serif" font-size="10.00">netinet/in.h</text>
</g>
<!-- Node1&#45;&gt;Node3 -->
<g id="edge2" class="edge"><title>Node1&#45;&gt;Node3</title>
<path fill="none" stroke="midnightblue" d="M649.766,-341.135C778.62,-334.745 1049,-311.666 1049,-230.5 1049,-230.5 1049,-230.5 1049,-118.5 1049,-33.6924 922.135,-15.1519 853.654,-11.3216"/>
<polygon fill="midnightblue" stroke="midnightblue" points="853.749,-7.82228 843.594,-10.841 853.415,-14.8143 853.749,-7.82228"/>
</g>
<!-- Node4 -->
<g id="node4" class="node"><title>Node4</title>
<polygon fill="white" stroke="#bfbfbf" points="640.372,-55.5 640.372,-73.5 703.628,-73.5 703.628,-55.5 640.372,-55.5"/>
<text text-anchor="middle" x="672" y="-61.5" font-family="Helvetica,sans-Serif" font-size="10.00">arpa/inet.h</text>
</g>
<!-- Node1&#45;&gt;Node4 -->
<g id="edge3" class="edge"><title>Node1&#45;&gt;Node4</title>
<path fill="none" stroke="midnightblue" d="M620.048,-330.37C659.402,-313.77 716,-281.099 716,-230.5 716,-230.5 716,-230.5 716,-173.5 716,-139.068 696.582,-102.721 683.545,-82.1988"/>
<polygon fill="midnightblue" stroke="midnightblue" points="686.368,-80.1221 677.934,-73.7097 680.528,-83.982 686.368,-80.1221"/>
</g>
<!-- Node5 -->
<g id="node5" class="node"><title>Node5</title>
<polygon fill="white" stroke="#bfbfbf" points="721.49,-55.5 721.49,-73.5 792.51,-73.5 792.51,-55.5 721.49,-55.5"/>
<text text-anchor="middle" x="757" y="-61.5" font-family="Helvetica,sans-Serif" font-size="10.00">sys/socket.h</text>
</g>
<!-- Node1&#45;&gt;Node5 -->
<g id="edge4" class="edge"><title>Node1&#45;&gt;Node5</title>
<path fill="none" stroke="midnightblue" d="M649.665,-331.256C735.014,-313.641 872,-277.975 872,-230.5 872,-230.5 872,-230.5 872,-173.5 872,-144.042 872.285,-132.268 853,-110 839.277,-94.1543 818.714,-83.5933 800.135,-76.754"/>
<polygon fill="midnightblue" stroke="midnightblue" points="801.242,-73.4336 790.648,-73.5085 798.977,-80.0568 801.242,-73.4336"/>
</g>
<!-- Node6 -->
<g id="node6" class="node"><title>Node6</title>
<polygon fill="white" stroke="#bfbfbf" points="933.318,-55.5 933.318,-73.5 982.682,-73.5 982.682,-55.5 933.318,-55.5"/>
<text text-anchor="middle" x="958" y="-61.5" font-family="Helvetica,sans-Serif" font-size="10.00">netdb.h</text>
</g>
<!-- Node1&#45;&gt;Node6 -->
<g id="edge5" class="edge"><title>Node1&#45;&gt;Node6</title>
<path fill="none" stroke="midnightblue" d="M649.433,-335.855C751.192,-322.27 934,-289.636 934,-230.5 934,-230.5 934,-230.5 934,-173.5 934,-141.115 944.411,-104.539 951.519,-83.3421"/>
<polygon fill="midnightblue" stroke="midnightblue" points="954.872,-84.3575 954.862,-73.7627 948.263,-82.0509 954.872,-84.3575"/>
</g>
<!-- Node7 -->
<g id="node7" class="node"><title>Node7</title>
<g id="a_node7"><a xlink:href="structures_8h.html" target="_top" xlink:title="File containing all the structure definitions used in the other modules. ">
<polygon fill="white" stroke="black" points="477.879,-55.5 477.879,-73.5 546.121,-73.5 546.121,-55.5 477.879,-55.5"/>
<text text-anchor="middle" x="512" y="-61.5" font-family="Helvetica,sans-Serif" font-size="10.00">structures.h</text>
</a>
</g>
</g>
<!-- Node1&#45;&gt;Node7 -->
<g id="edge6" class="edge"><title>Node1&#45;&gt;Node7</title>
<path fill="none" stroke="midnightblue" d="M579.671,-330.464C568.126,-285.26 529.796,-135.179 516.55,-83.3145"/>
<polygon fill="midnightblue" stroke="midnightblue" points="519.925,-82.3873 514.06,-73.5644 513.143,-84.1195 519.925,-82.3873"/>
</g>
<!-- Node10 -->
<g id="node10" class="node"><title>Node10</title>
<g id="a_node10"><a xlink:href="msg_buffers_8h.html" target="_top" xlink:title="File containing the headers of all functions related to the message mailboxes. ">
<polygon fill="white" stroke="black" points="361.632,-275.5 361.632,-293.5 436.368,-293.5 436.368,-275.5 361.632,-275.5"/>
<text text-anchor="middle" x="399" y="-281.5" font-family="Helvetica,sans-Serif" font-size="10.00">msgBuffers.h</text>
</a>
</g>
</g>
<!-- Node1&#45;&gt;Node10 -->
<g id="edge10" class="edge"><title>Node1&#45;&gt;Node10</title>
<path fill="none" stroke="midnightblue" d="M541.707,-330.484C509.436,-320.311 465.06,-306.323 434.4,-296.659"/>
<polygon fill="midnightblue" stroke="midnightblue" points="435.155,-293.227 424.566,-293.559 433.051,-299.903 435.155,-293.227"/>
</g>
<!-- Node7&#45;&gt;Node3 -->
<g id="edge9" class="edge"><title>Node7&#45;&gt;Node3</title>
<path fill="none" stroke="midnightblue" d="M546.299,-57.4202C601.256,-47.6787 708.912,-28.5958 768.605,-18.0148"/>
<polygon fill="midnightblue" stroke="midnightblue" points="769.228,-21.459 778.464,-16.2673 768.006,-14.5665 769.228,-21.459"/>
</g>
<!-- Node8 -->
<g id="node8" class="node"><title>Node8</title>
<polygon fill="white" stroke="#bfbfbf" points="423.269,-0.5 423.269,-18.5 468.731,-18.5 468.731,-0.5 423.269,-0.5"/>
<text text-anchor="middle" x="446" y="-6.5" font-family="Helvetica,sans-Serif" font-size="10.00">stdio.h</text>
</g>
<!-- Node7&#45;&gt;Node8 -->
<g id="edge7" class="edge"><title>Node7&#45;&gt;Node8</title>
<path fill="none" stroke="midnightblue" d="M501.976,-55.4504C491.994,-47.4345 476.443,-34.9471 464.264,-25.1663"/>
<polygon fill="midnightblue" stroke="midnightblue" points="466.107,-22.1577 456.118,-18.6253 461.724,-27.6157 466.107,-22.1577"/>
</g>
<!-- Node9 -->
<g id="node9" class="node"><title>Node9</title>
<polygon fill="white" stroke="#bfbfbf" points="127.872,-0.5 127.872,-18.5 186.128,-18.5 186.128,-0.5 127.872,-0.5"/>
<text text-anchor="middle" x="157" y="-6.5" font-family="Helvetica,sans-Serif" font-size="10.00">pthread.h</text>
</g>
<!-- Node7&#45;&gt;Node9 -->
<g id="edge8" class="edge"><title>Node7&#45;&gt;Node9</title>
<path fill="none" stroke="midnightblue" d="M477.763,-56.5607C474.803,-56.0128 471.851,-55.4847 469,-55 371.3,-38.3884 255.667,-23.0069 196.384,-15.4303"/>
<polygon fill="midnightblue" stroke="midnightblue" points="196.693,-11.9415 186.331,-14.1514 195.81,-18.8856 196.693,-11.9415"/>
</g>
<!-- Node10&#45;&gt;Node7 -->
<g id="edge14" class="edge"><title>Node10&#45;&gt;Node7</title>
<path fill="none" stroke="midnightblue" d="M411.54,-275.368C422.996,-267.358 439.675,-254.147 450,-239 484.326,-188.64 501.901,-117.133 508.645,-83.8549"/>
<polygon fill="midnightblue" stroke="midnightblue" points="512.131,-84.2574 510.588,-73.7756 505.258,-82.9321 512.131,-84.2574"/>
</g>
<!-- Node10&#45;&gt;Node8 -->
<g id="edge11" class="edge"><title>Node10&#45;&gt;Node8</title>
<path fill="none" stroke="midnightblue" d="M361.632,-279.041C276.609,-267.856 76,-235.145 76,-175.5 76,-175.5 76,-175.5 76,-118.5 76,-87.4739 80.0416,-73.4309 105,-55 153.294,-19.3368 336.155,-12.2436 412.352,-10.8415"/>
<polygon fill="midnightblue" stroke="midnightblue" points="412.849,-14.334 422.791,-10.6732 412.736,-7.33491 412.849,-14.334"/>
</g>
<!-- Node10&#45;&gt;Node9 -->
<g id="edge12" class="edge"><title>Node10&#45;&gt;Node9</title>
<path fill="none" stroke="midnightblue" d="M361.463,-281.357C262.138,-274.666 0,-249.955 0,-175.5 0,-175.5 0,-175.5 0,-118.5 0,-61.3257 71.5491,-32.1268 118.045,-19.1882"/>
<polygon fill="midnightblue" stroke="midnightblue" points="119.065,-22.5389 127.837,-16.5981 117.275,-15.7717 119.065,-22.5389"/>
</g>
<!-- Node11 -->
<g id="node11" class="node"><title>Node11</title>
<polygon fill="white" stroke="#bfbfbf" points="389.214,-220.5 389.214,-238.5 440.786,-238.5 440.786,-220.5 389.214,-220.5"/>
<text text-anchor="middle" x="415" y="-226.5" font-family="Helvetica,sans-Serif" font-size="10.00">assert.h</text>
</g>
<!-- Node10&#45;&gt;Node11 -->
<g id="edge13" class="edge"><title>Node10&#45;&gt;Node11</title>
<path fill="none" stroke="midnightblue" d="M401.5,-275.219C403.673,-268.02 406.896,-257.346 409.647,-248.231"/>
<polygon fill="midnightblue" stroke="midnightblue" points="413.03,-249.134 412.57,-238.55 406.329,-247.111 413.03,-249.134"/>
</g>
<!-- Node12 -->
<g id="node12" class="node"><title>Node12</title>
<g id="a_node12"><a xlink:href="message_parser_8h.html" target="_top" xlink:title="Message parser function headers. ">
<polygon fill="white" stroke="black" points="238.089,-220.5 238.089,-238.5 331.911,-238.5 331.911,-220.5 238.089,-220.5"/>
<text text-anchor="middle" x="285" y="-226.5" font-family="Helvetica,sans-Serif" font-size="10.00">messageParser.h</text>
</a>
</g>
</g>
<!-- Node10&#45;&gt;Node12 -->
<g id="edge15" class="edge"><title>Node10&#45;&gt;Node12</title>
<path fill="none" stroke="midnightblue" d="M376.677,-275.45C356.273,-266.89 326.606,-253.229 306.481,-243.212"/>
<polygon fill="midnightblue" stroke="midnightblue" points="307.951,-240.033 297.45,-238.625 304.781,-246.274 307.951,-240.033"/>
</g>
<!-- Node12&#45;&gt;Node1 -->
<g id="edge22" class="edge"><title>Node12&#45;&gt;Node1</title>
<path fill="none" stroke="midnightblue" d="M291.148,-238.584C302.03,-252.282 326.087,-279.934 353,-294 400.636,-318.896 460.073,-331.277 506.591,-337.43"/>
<polygon fill="midnightblue" stroke="midnightblue" points="506.255,-340.915 516.613,-338.687 507.126,-333.97 506.255,-340.915"/>
</g>
<!-- Node12&#45;&gt;Node2 -->
<g id="edge17" class="edge"><title>Node12&#45;&gt;Node2</title>
<path fill="none" stroke="midnightblue" d="M243.025,-220.426C220.384,-214.064 193.563,-202.976 176,-184 149.784,-155.675 141.652,-109.178 139.131,-83.6634"/>
<polygon fill="midnightblue" stroke="midnightblue" points="142.609,-83.2466 138.323,-73.5575 135.631,-83.8047 142.609,-83.2466"/>
</g>
<!-- Node12&#45;&gt;Node7 -->
<g id="edge20" class="edge"><title>Node12&#45;&gt;Node7</title>
<path fill="none" stroke="midnightblue" d="M288.981,-220.158C295.57,-207.052 309.837,-181.44 328,-165 374.167,-123.213 441.037,-92.7647 480.164,-77.2131"/>
<polygon fill="midnightblue" stroke="midnightblue" points="481.437,-80.4735 489.485,-73.5824 478.896,-73.9509 481.437,-80.4735"/>
</g>
<!-- Node12&#45;&gt;Node8 -->
<g id="edge16" class="edge"><title>Node12&#45;&gt;Node8</title>
<path fill="none" stroke="midnightblue" d="M273.773,-220.405C263.704,-212.422 249.537,-199.228 243,-184 230.015,-153.753 227.404,-140.41 240,-110 267.954,-42.5133 362.067,-20.6394 412.85,-13.6719"/>
<polygon fill="midnightblue" stroke="midnightblue" points="413.502,-17.1175 422.989,-12.4003 412.631,-10.1719 413.502,-17.1175"/>
</g>
<!-- Node12&#45;&gt;Node9 -->
<g id="edge19" class="edge"><title>Node12&#45;&gt;Node9</title>
<path fill="none" stroke="midnightblue" d="M237.848,-220.612C212.354,-214.319 181.733,-203.238 160,-184 113.331,-142.688 78.9338,-111.614 105,-55 110.823,-42.3517 122.212,-31.9584 132.85,-24.406"/>
<polygon fill="midnightblue" stroke="midnightblue" points="135.035,-27.1587 141.471,-18.7431 131.191,-21.308 135.035,-27.1587"/>
</g>
<!-- Node12&#45;&gt;Node10 -->
<g id="edge21" class="edge"><title>Node12&#45;&gt;Node10</title>
<path fill="none" stroke="midnightblue" d="M307.504,-238.625C327.962,-247.216 357.628,-260.881 377.697,-270.877"/>
<polygon fill="midnightblue" stroke="midnightblue" points="376.195,-274.039 386.695,-275.45 379.367,-267.799 376.195,-274.039"/>
</g>
<!-- Node13 -->
<g id="node13" class="node"><title>Node13</title>
<polygon fill="white" stroke="#bfbfbf" points="304.158,-55.5 304.158,-73.5 351.842,-73.5 351.842,-55.5 304.158,-55.5"/>
<text text-anchor="middle" x="328" y="-61.5" font-family="Helvetica,sans-Serif" font-size="10.00">stdlib.h</text>
</g>
<!-- Node12&#45;&gt;Node13 -->
<g id="edge18" class="edge"><title>Node12&#45;&gt;Node13</title>
<path fill="none" stroke="midnightblue" d="M276.29,-220.273C268.22,-211.999 256.767,-198.43 252,-184 241.684,-152.771 235.643,-138.533 252,-110 261.194,-93.9621 278.656,-83.1473 294.525,-76.1992"/>
<polygon fill="midnightblue" stroke="midnightblue" points="296.13,-79.327 304.112,-72.3606 293.528,-72.8285 296.13,-79.327"/>
</g>
<!-- Node14 -->
<g id="node14" class="node"><title>Node14</title>
<g id="a_node14"><a xlink:href="station_actions_8h.html" target="_top" xlink:title="FIle containing all the station action headers. ">
<polygon fill="white" stroke="black" points="336.702,-165.5 336.702,-183.5 423.298,-183.5 423.298,-165.5 336.702,-165.5"/>
<text text-anchor="middle" x="380" y="-171.5" font-family="Helvetica,sans-Serif" font-size="10.00">stationActions.h</text>
</a>
</g>
</g>
<!-- Node12&#45;&gt;Node14 -->
<g id="edge23" class="edge"><title>Node12&#45;&gt;Node14</title>
<path fill="none" stroke="midnightblue" d="M294.419,-220.45C307.774,-211.89 331.976,-198.229 351.353,-188.212"/>
<polygon fill="midnightblue" stroke="midnightblue" points="353.069,-191.266 360.409,-183.625 349.906,-185.021 353.069,-191.266"/>
</g>
<!-- Node14&#45;&gt;Node1 -->
<g id="edge42" class="edge"><title>Node14&#45;&gt;Node1</title>
<path fill="none" stroke="midnightblue" d="M394.453,-183.641C408.976,-192.059 431.76,-205.922 450,-220 492.951,-253.15 538.293,-297.578 563.378,-323.115"/>
<polygon fill="midnightblue" stroke="midnightblue" points="560.999,-325.688 570.488,-330.401 566.009,-320.799 560.999,-325.688"/>
</g>
<!-- Node14&#45;&gt;Node7 -->
<g id="edge28" class="edge"><title>Node14&#45;&gt;Node7</title>
<path fill="none" stroke="midnightblue" d="M389.921,-165.382C412.091,-147.244 465.907,-103.212 494.1,-80.1455"/>
<polygon fill="midnightblue" stroke="midnightblue" points="496.44,-82.753 501.963,-73.7118 492.007,-77.3353 496.44,-82.753"/>
</g>
<!-- Node14&#45;&gt;Node8 -->
<g id="edge24" class="edge"><title>Node14&#45;&gt;Node8</title>
<path fill="none" stroke="midnightblue" d="M379.577,-165.471C378.872,-145.518 379.152,-92.5861 399,-55 405.25,-43.1647 415.858,-32.7094 425.417,-24.912"/>
<polygon fill="midnightblue" stroke="midnightblue" points="427.609,-27.6416 433.41,-18.7761 423.347,-22.0889 427.609,-27.6416"/>
</g>
<!-- Node14&#45;&gt;Node9 -->
<g id="edge26" class="edge"><title>Node14&#45;&gt;Node9</title>
<path fill="none" stroke="midnightblue" d="M368.941,-165.417C333.348,-139.4 221.452,-57.6104 176.237,-24.561"/>
<polygon fill="midnightblue" stroke="midnightblue" points="178.264,-21.7075 168.125,-18.632 174.133,-27.3587 178.264,-21.7075"/>
</g>
<!-- Node14&#45;&gt;Node10 -->
<g id="edge30" class="edge"><title>Node14&#45;&gt;Node10</title>
<path fill="none" stroke="midnightblue" d="M378.949,-183.826C377.639,-196.063 376.023,-219.559 380,-239 381.918,-248.375 385.89,-258.217 389.71,-266.254"/>
<polygon fill="midnightblue" stroke="midnightblue" points="386.653,-267.966 394.299,-275.3 392.895,-264.798 386.653,-267.966"/>
</g>
<!-- Node14&#45;&gt;Node12 -->
<g id="edge29" class="edge"><title>Node14&#45;&gt;Node12</title>
<path fill="none" stroke="midnightblue" d="M370.463,-183.625C357.044,-192.216 332.824,-205.881 313.476,-215.877"/>
<polygon fill="midnightblue" stroke="midnightblue" points="311.78,-212.812 304.438,-220.45 314.941,-219.058 311.78,-212.812"/>
</g>
<!-- Node14&#45;&gt;Node13 -->
<g id="edge25" class="edge"><title>Node14&#45;&gt;Node13</title>
<path fill="none" stroke="midnightblue" d="M376.092,-165.382C367.697,-147.948 347.784,-106.59 336.388,-82.9219"/>
<polygon fill="midnightblue" stroke="midnightblue" points="339.446,-81.2034 331.954,-73.7118 333.139,-84.2402 339.446,-81.2034"/>
</g>
<!-- Node15 -->
<g id="node15" class="node"><title>Node15</title>
<polygon fill="white" stroke="#bfbfbf" points="408.488,-55.5 408.488,-73.5 459.512,-73.5 459.512,-55.5 408.488,-55.5"/>
<text text-anchor="middle" x="434" y="-61.5" font-family="Helvetica,sans-Serif" font-size="10.00">unistd.h</text>
</g>
<!-- Node14&#45;&gt;Node15 -->
<g id="edge27" class="edge"><title>Node14&#45;&gt;Node15</title>
<path fill="none" stroke="midnightblue" d="M384.059,-165.382C392.776,-147.948 413.455,-106.59 425.289,-82.9219"/>
<polygon fill="midnightblue" stroke="midnightblue" points="428.552,-84.2213 429.894,-73.7118 422.291,-81.0908 428.552,-84.2213"/>
</g>
<!-- Node16 -->
<g id="node16" class="node"><title>Node16</title>
<g id="a_node16"><a xlink:href="tcp_server_socket_comm_8h.html" target="_top" xlink:title="Server connection related function definitions. ">
<polygon fill="white" stroke="black" points="560.426,-110.5 560.426,-128.5 687.574,-128.5 687.574,-110.5 560.426,-110.5"/>
<text text-anchor="middle" x="624" y="-116.5" font-family="Helvetica,sans-Serif" font-size="10.00">tcpServerSocketComm.h</text>
</a>
</g>
</g>
<!-- Node14&#45;&gt;Node16 -->
<g id="edge31" class="edge"><title>Node14&#45;&gt;Node16</title>
<path fill="none" stroke="midnightblue" d="M417.058,-165.45C459.909,-156.143 530.513,-140.807 577.138,-130.679"/>
<polygon fill="midnightblue" stroke="midnightblue" points="577.964,-134.081 586.993,-128.538 576.478,-127.241 577.964,-134.081"/>
</g>
<!-- Node17 -->
<g id="node17" class="node"><title>Node17</title>
<g id="a_node17"><a xlink:href="mcast_messaging_8h.html" target="_top" xlink:title="FIle containing all the headers of the functions related to multicast communication. ">
<polygon fill="white" stroke="black" points="744.315,-110.5 744.315,-128.5 843.685,-128.5 843.685,-110.5 744.315,-110.5"/>
<text text-anchor="middle" x="794" y="-116.5" font-family="Helvetica,sans-Serif" font-size="10.00">mcastMessaging.h</text>
</a>
</g>
</g>
<!-- Node14&#45;&gt;Node17 -->
<g id="edge43" class="edge"><title>Node14&#45;&gt;Node17</title>
<path fill="none" stroke="midnightblue" d="M423.523,-167.928C497.934,-158.402 649.725,-138.97 734.087,-128.17"/>
<polygon fill="midnightblue" stroke="midnightblue" points="734.557,-131.639 744.031,-126.897 733.668,-124.695 734.557,-131.639"/>
</g>
<!-- Node16&#45;&gt;Node2 -->
<g id="edge35" class="edge"><title>Node16&#45;&gt;Node2</title>
<path fill="none" stroke="midnightblue" d="M560.214,-111.544C456.208,-100.202 253.577,-78.104 172.625,-69.276"/>
<polygon fill="midnightblue" stroke="midnightblue" points="172.798,-65.7742 162.478,-68.1694 172.039,-72.7329 172.798,-65.7742"/>
</g>
<!-- Node16&#45;&gt;Node3 -->
<g id="edge36" class="edge"><title>Node16&#45;&gt;Node3</title>
<path fill="none" stroke="midnightblue" d="M622.236,-110.335C619.873,-97.0095 617.411,-70.5214 631,-55 648.829,-34.6356 720.903,-21.8238 768.265,-15.4293"/>
<polygon fill="midnightblue" stroke="midnightblue" points="768.797,-18.8897 778.26,-14.1249 767.891,-11.9485 768.797,-18.8897"/>
</g>
<!-- Node16&#45;&gt;Node4 -->
<g id="edge37" class="edge"><title>Node16&#45;&gt;Node4</title>
<path fill="none" stroke="midnightblue" d="M631.5,-110.219C638.515,-102.473 649.176,-90.7013 657.799,-81.1799"/>
<polygon fill="midnightblue" stroke="midnightblue" points="660.591,-83.3111 664.71,-73.5496 655.403,-78.6121 660.591,-83.3111"/>
</g>
<!-- Node16&#45;&gt;Node5 -->
<g id="edge38" class="edge"><title>Node16&#45;&gt;Node5</title>
<path fill="none" stroke="midnightblue" d="M644.2,-110.45C666.268,-101.656 701.842,-87.4802 727.136,-77.4006"/>
<polygon fill="midnightblue" stroke="midnightblue" points="728.616,-80.5786 736.61,-73.6253 726.025,-74.0759 728.616,-80.5786"/>
</g>
<!-- Node16&#45;&gt;Node6 -->
<g id="edge39" class="edge"><title>Node16&#45;&gt;Node6</title>
<path fill="none" stroke="midnightblue" d="M687.81,-110.872C746.494,-103.441 836.096,-91.0457 923.131,-73.9945"/>
<polygon fill="midnightblue" stroke="midnightblue" points="924.052,-77.3801 933.181,-72.0023 922.691,-70.5137 924.052,-77.3801"/>
</g>
<!-- Node16&#45;&gt;Node7 -->
<g id="edge40" class="edge"><title>Node16&#45;&gt;Node7</title>
<path fill="none" stroke="midnightblue" d="M606.99,-110.45C588.734,-101.812 559.506,-87.9803 538.287,-77.9396"/>
<polygon fill="midnightblue" stroke="midnightblue" points="539.707,-74.7391 529.17,-73.6253 536.712,-81.0664 539.707,-74.7391"/>
</g>
<!-- Node16&#45;&gt;Node8 -->
<g id="edge32" class="edge"><title>Node16&#45;&gt;Node8</title>
<path fill="none" stroke="midnightblue" d="M617.078,-110.494C605.404,-97.3982 580.562,-71.2321 555,-55 531.059,-39.7973 501.05,-28.0019 478.584,-20.3863"/>
<polygon fill="midnightblue" stroke="midnightblue" points="479.434,-16.9816 468.841,-17.1841 477.248,-23.6316 479.434,-16.9816"/>
</g>
<!-- Node16&#45;&gt;Node10 -->
<g id="edge41" class="edge"><title>Node16&#45;&gt;Node10</title>
<path fill="none" stroke="midnightblue" d="M615.606,-128.669C594.512,-148.941 537.093,-202.543 483,-239 464.81,-251.259 442.865,-262.784 425.968,-271.033"/>
<polygon fill="midnightblue" stroke="midnightblue" points="424.172,-268.012 416.668,-275.491 427.199,-274.324 424.172,-268.012"/>
</g>
<!-- Node16&#45;&gt;Node13 -->
<g id="edge33" class="edge"><title>Node16&#45;&gt;Node13</title>
<path fill="none" stroke="midnightblue" d="M579.044,-110.45C519.457,-99.7812 415.63,-81.1905 362.089,-71.6038"/>
<polygon fill="midnightblue" stroke="midnightblue" points="362.54,-68.129 352.08,-69.8116 361.306,-75.0194 362.54,-68.129"/>
</g>
<!-- Node16&#45;&gt;Node15 -->
<g id="edge34" class="edge"><title>Node16&#45;&gt;Node15</title>
<path fill="none" stroke="midnightblue" d="M595.143,-110.45C561.457,-101.054 505.743,-85.5126 469.454,-75.3897"/>
<polygon fill="midnightblue" stroke="midnightblue" points="470.341,-72.0035 459.768,-72.6879 468.46,-78.7461 470.341,-72.0035"/>
</g>
<!-- Node17&#45;&gt;Node3 -->
<g id="edge47" class="edge"><title>Node17&#45;&gt;Node3</title>
<path fill="none" stroke="midnightblue" d="M843.909,-114.283C896.368,-108.693 973.784,-96.7639 992,-74 1030.43,-25.9709 919.168,-14.1923 854.225,-11.3567"/>
<polygon fill="midnightblue" stroke="midnightblue" points="853.97,-7.84455 843.844,-10.9616 853.703,-14.8395 853.97,-7.84455"/>
</g>
<!-- Node17&#45;&gt;Node4 -->
<g id="edge48" class="edge"><title>Node17&#45;&gt;Node4</title>
<path fill="none" stroke="midnightblue" d="M775.471,-110.45C755.407,-101.734 723.172,-87.7306 700.012,-77.6691"/>
<polygon fill="midnightblue" stroke="midnightblue" points="701.27,-74.3997 690.704,-73.6253 698.481,-80.8201 701.27,-74.3997"/>
</g>
<!-- Node17&#45;&gt;Node5 -->
<g id="edge46" class="edge"><title>Node17&#45;&gt;Node5</title>
<path fill="none" stroke="midnightblue" d="M788.219,-110.219C782.92,-102.629 774.924,-91.1753 768.351,-81.7597"/>
<polygon fill="midnightblue" stroke="midnightblue" points="771.214,-79.7457 762.62,-73.5496 765.474,-83.7527 771.214,-79.7457"/>
</g>
<!-- Node17&#45;&gt;Node7 -->
<g id="edge49" class="edge"><title>Node17&#45;&gt;Node7</title>
<path fill="none" stroke="midnightblue" d="M751.17,-110.45C698.481,-100.548 609.484,-83.8215 556.182,-73.8038"/>
<polygon fill="midnightblue" stroke="midnightblue" points="556.815,-70.3615 546.341,-71.9541 555.522,-77.2411 556.815,-70.3615"/>
</g>
<!-- Node17&#45;&gt;Node8 -->
<g id="edge44" class="edge"><title>Node17&#45;&gt;Node8</title>
<path fill="none" stroke="midnightblue" d="M798.535,-110.328C805.257,-96.9944 815.678,-70.4938 802,-55 780.752,-30.9309 562.806,-16.7666 478.784,-12.1653"/>
<polygon fill="midnightblue" stroke="midnightblue" points="478.938,-8.66856 468.764,-11.6273 478.562,-15.6585 478.938,-8.66856"/>
</g>
<!-- Node17&#45;&gt;Node10 -->
<g id="edge50" class="edge"><title>Node17&#45;&gt;Node10</title>
<path fill="none" stroke="midnightblue" d="M775.172,-128.524C729.817,-147.824 610.87,-198.254 511,-239 483.324,-250.291 451.659,-262.838 429.075,-271.723"/>
<polygon fill="midnightblue" stroke="midnightblue" points="427.716,-268.497 419.688,-275.411 430.275,-275.012 427.716,-268.497"/>
</g>
<!-- Node18 -->
<g id="node18" class="node"><title>Node18</title>
<polygon fill="white" stroke="#bfbfbf" points="848.99,-55.5 848.99,-73.5 915.01,-73.5 915.01,-55.5 848.99,-55.5"/>
<text text-anchor="middle" x="882" y="-61.5" font-family="Helvetica,sans-Serif" font-size="10.00">sys/types.h</text>
</g>
<!-- Node17&#45;&gt;Node18 -->
<g id="edge45" class="edge"><title>Node17&#45;&gt;Node18</title>
<path fill="none" stroke="midnightblue" d="M807.365,-110.45C821.192,-102.123 843.03,-88.9704 859.519,-79.0394"/>
<polygon fill="midnightblue" stroke="midnightblue" points="861.748,-81.7828 868.509,-73.6253 858.137,-75.7864 861.748,-81.7828"/>
</g>
</g>
</svg>
