<?xml version="1.0" encoding="UTF-8" standalone="no"?>
<!DOCTYPE svg PUBLIC "-//W3C//DTD SVG 1.1//EN"
 "http://www.w3.org/Graphics/SVG/1.1/DTD/svg11.dtd">
<!-- Generated by graphviz version 2.38.0 (20140413.2041)
 -->
<!-- Title: SSC_stopServerConn Pages: 1 -->
<svg width="364pt" height="27pt"
 viewBox="0.00 0.00 363.67 27.00" xmlns="http://www.w3.org/2000/svg" xmlns:xlink="http://www.w3.org/1999/xlink">
<g id="graph0" class="graph" transform="scale(1 1) rotate(0) translate(4 23)">
<title>SSC_stopServerConn</title>
<polygon fill="white" stroke="none" points="-4,4 -4,-23 359.669,-23 359.669,4 -4,4"/>
<!-- Node1 -->
<g id="node1" class="node"><title>Node1</title>
<polygon fill="#bfbfbf" stroke="black" points="0,-0.5 0,-18.5 114.384,-18.5 114.384,-0.5 0,-0.5"/>
<text text-anchor="middle" x="57.1919" y="-6.5" font-family="Helvetica,sans-Serif" font-size="10.00">SSC_stopServerConn</text>
</g>
<!-- Node2 -->
<g id="node2" class="node"><title>Node2</title>
<g id="a_node2"><a xlink:href="main_8c.html#aea1c0564829983a4a1da026f1640f762" target="_top" xlink:title="Thread for controlling the server client initialization and shutdown. ">
<polygon fill="white" stroke="black" points="150.384,-0.5 150.384,-18.5 281.994,-18.5 281.994,-0.5 150.384,-0.5"/>
<text text-anchor="middle" x="216.189" y="-6.5" font-family="Helvetica,sans-Serif" font-size="10.00">serverConnControlThread</text>
</a>
</g>
</g>
<!-- Node1&#45;&gt;Node2 -->
<g id="edge1" class="edge"><title>Node1&#45;&gt;Node2</title>
<path fill="none" stroke="midnightblue" d="M124.65,-9.5C133.13,-9.5 141.803,-9.5 150.259,-9.5"/>
<polygon fill="midnightblue" stroke="midnightblue" points="124.428,-6.0001 114.428,-9.5 124.428,-13.0001 124.428,-6.0001"/>
</g>
<!-- Node3 -->
<g id="node3" class="node"><title>Node3</title>
<g id="a_node3"><a xlink:href="main_8c.html#ac0f2228420376f4db7e1274f2b41667c" target="_top" xlink:title="main">
<polygon fill="white" stroke="black" points="317.994,-0.5 317.994,-18.5 355.669,-18.5 355.669,-0.5 317.994,-0.5"/>
<text text-anchor="middle" x="336.832" y="-6.5" font-family="Helvetica,sans-Serif" font-size="10.00">main</text>
</a>
</g>
</g>
<!-- Node2&#45;&gt;Node3 -->
<g id="edge2" class="edge"><title>Node2&#45;&gt;Node3</title>
<path fill="none" stroke="midnightblue" d="M292.155,-9.5C301.679,-9.5 310.625,-9.5 317.909,-9.5"/>
<polygon fill="midnightblue" stroke="midnightblue" points="292.064,-6.0001 282.064,-9.5 292.064,-13.0001 292.064,-6.0001"/>
</g>
</g>
</svg>
