<?xml version="1.0" encoding="UTF-8" standalone="no"?>
<!DOCTYPE svg PUBLIC "-//W3C//DTD SVG 1.1//EN"
 "http://www.w3.org/Graphics/SVG/1.1/DTD/svg11.dtd">
<!-- Generated by graphviz version 2.38.0 (20140413.2041)
 -->
<!-- Title: rasPi&#45;EmergencyStation/tcpServerSocketComm.c Pages: 1 -->
<svg width="1018pt" height="422pt"
 viewBox="0.00 0.00 1018.00 422.00" xmlns="http://www.w3.org/2000/svg" xmlns:xlink="http://www.w3.org/1999/xlink">
<g id="graph0" class="graph" transform="scale(1 1) rotate(0) translate(4 418)">
<title>rasPi&#45;EmergencyStation/tcpServerSocketComm.c</title>
<polygon fill="white" stroke="none" points="-4,4 -4,-418 1014,-418 1014,4 -4,4"/>
<!-- Node1 -->
<g id="node1" class="node"><title>Node1</title>
<polygon fill="#bfbfbf" stroke="black" points="141.318,-385.5 141.318,-413.5 270.682,-413.5 270.682,-385.5 141.318,-385.5"/>
<text text-anchor="start" x="149.318" y="-401.5" font-family="Helvetica,sans-Serif" font-size="10.00">rasPi&#45;EmergencyStation</text>
<text text-anchor="middle" x="206" y="-391.5" font-family="Helvetica,sans-Serif" font-size="10.00">/tcpServerSocketComm.c</text>
</g>
<!-- Node2 -->
<g id="node2" class="node"><title>Node2</title>
<g id="a_node2"><a xlink:href="tcp_server_socket_comm_8h.html" target="_top" xlink:title="Server connection related function definitions. ">
<polygon fill="white" stroke="black" points="142.426,-330.5 142.426,-348.5 269.574,-348.5 269.574,-330.5 142.426,-330.5"/>
<text text-anchor="middle" x="206" y="-336.5" font-family="Helvetica,sans-Serif" font-size="10.00">tcpServerSocketComm.h</text>
</a>
</g>
</g>
<!-- Node1&#45;&gt;Node2 -->
<g id="edge1" class="edge"><title>Node1&#45;&gt;Node2</title>
<path fill="none" stroke="midnightblue" d="M206,-385.339C206,-377.531 206,-367.512 206,-358.927"/>
<polygon fill="midnightblue" stroke="midnightblue" points="209.5,-358.771 206,-348.771 202.5,-358.772 209.5,-358.771"/>
</g>
<!-- Node3 -->
<g id="node3" class="node"><title>Node3</title>
<polygon fill="white" stroke="#bfbfbf" points="821.269,-0.5 821.269,-18.5 866.731,-18.5 866.731,-0.5 821.269,-0.5"/>
<text text-anchor="middle" x="844" y="-6.5" font-family="Helvetica,sans-Serif" font-size="10.00">stdio.h</text>
</g>
<!-- Node2&#45;&gt;Node3 -->
<g id="edge2" class="edge"><title>Node2&#45;&gt;Node3</title>
<path fill="none" stroke="midnightblue" d="M269.761,-336.618C459.924,-330.165 1010,-305.056 1010,-230.5 1010,-230.5 1010,-230.5 1010,-118.5 1010,-55.5577 925.111,-27.4076 876.743,-16.4766"/>
<polygon fill="midnightblue" stroke="midnightblue" points="877.244,-13.0048 866.734,-14.3416 875.783,-19.8508 877.244,-13.0048"/>
</g>
<!-- Node4 -->
<g id="node4" class="node"><title>Node4</title>
<polygon fill="white" stroke="#bfbfbf" points="782.158,-110.5 782.158,-128.5 829.842,-128.5 829.842,-110.5 782.158,-110.5"/>
<text text-anchor="middle" x="806" y="-116.5" font-family="Helvetica,sans-Serif" font-size="10.00">stdlib.h</text>
</g>
<!-- Node2&#45;&gt;Node4 -->
<g id="edge3" class="edge"><title>Node2&#45;&gt;Node4</title>
<path fill="none" stroke="midnightblue" d="M269.6,-335.928C396.832,-330.344 673.746,-315.835 711,-294 769.265,-259.851 794.074,-175.783 802.445,-138.642"/>
<polygon fill="midnightblue" stroke="midnightblue" points="805.896,-139.236 804.534,-128.73 799.047,-137.793 805.896,-139.236"/>
</g>
<!-- Node5 -->
<g id="node5" class="node"><title>Node5</title>
<polygon fill="white" stroke="#bfbfbf" points="180.488,-110.5 180.488,-128.5 231.512,-128.5 231.512,-110.5 180.488,-110.5"/>
<text text-anchor="middle" x="206" y="-116.5" font-family="Helvetica,sans-Serif" font-size="10.00">unistd.h</text>
</g>
<!-- Node2&#45;&gt;Node5 -->
<g id="edge4" class="edge"><title>Node2&#45;&gt;Node5</title>
<path fill="none" stroke="midnightblue" d="M206,-330.483C206,-299.107 206,-184.159 206,-138.944"/>
<polygon fill="midnightblue" stroke="midnightblue" points="209.5,-138.823 206,-128.823 202.5,-138.823 209.5,-138.823"/>
</g>
<!-- Node6 -->
<g id="node6" class="node"><title>Node6</title>
<polygon fill="white" stroke="#bfbfbf" points="68.6035,-55.5 68.6035,-73.5 117.396,-73.5 117.396,-55.5 68.6035,-55.5"/>
<text text-anchor="middle" x="93" y="-61.5" font-family="Helvetica,sans-Serif" font-size="10.00">string.h</text>
</g>
<!-- Node2&#45;&gt;Node6 -->
<g id="edge5" class="edge"><title>Node2&#45;&gt;Node6</title>
<path fill="none" stroke="midnightblue" d="M163.172,-330.404C113.398,-318.226 38,-289.965 38,-230.5 38,-230.5 38,-230.5 38,-173.5 38,-137.575 62.4638,-101.531 78.7601,-81.506"/>
<polygon fill="midnightblue" stroke="midnightblue" points="81.5614,-83.614 85.3525,-73.7206 76.2193,-79.0905 81.5614,-83.614"/>
</g>
<!-- Node7 -->
<g id="node7" class="node"><title>Node7</title>
<polygon fill="white" stroke="#bfbfbf" points="369.537,-0.5 369.537,-18.5 434.463,-18.5 434.463,-0.5 369.537,-0.5"/>
<text text-anchor="middle" x="402" y="-6.5" font-family="Helvetica,sans-Serif" font-size="10.00">netinet/in.h</text>
</g>
<!-- Node2&#45;&gt;Node7 -->
<g id="edge6" class="edge"><title>Node2&#45;&gt;Node7</title>
<path fill="none" stroke="midnightblue" d="M142.231,-331.827C81.731,-321.549 0,-295.614 0,-230.5 0,-230.5 0,-230.5 0,-118.5 0,-79.6721 25.4098,-72.6386 60,-55 111.432,-28.7735 279.443,-16.808 359.214,-12.5003"/>
<polygon fill="midnightblue" stroke="midnightblue" points="359.603,-15.9847 369.406,-11.9658 359.236,-8.99435 359.603,-15.9847"/>
</g>
<!-- Node8 -->
<g id="node8" class="node"><title>Node8</title>
<polygon fill="white" stroke="#bfbfbf" points="202.372,-55.5 202.372,-73.5 265.628,-73.5 265.628,-55.5 202.372,-55.5"/>
<text text-anchor="middle" x="234" y="-61.5" font-family="Helvetica,sans-Serif" font-size="10.00">arpa/inet.h</text>
</g>
<!-- Node2&#45;&gt;Node8 -->
<g id="edge7" class="edge"><title>Node2&#45;&gt;Node8</title>
<path fill="none" stroke="midnightblue" d="M187.493,-330.419C172.316,-322.946 151.247,-310.504 138,-294 119.115,-270.471 114,-260.671 114,-230.5 114,-230.5 114,-230.5 114,-173.5 114,-143.329 117.456,-132.095 138,-110 152.594,-94.305 173.823,-83.6732 192.61,-76.7495"/>
<polygon fill="midnightblue" stroke="midnightblue" points="193.848,-80.0249 202.163,-73.4596 191.569,-73.4064 193.848,-80.0249"/>
</g>
<!-- Node9 -->
<g id="node9" class="node"><title>Node9</title>
<polygon fill="white" stroke="#bfbfbf" points="283.49,-55.5 283.49,-73.5 354.51,-73.5 354.51,-55.5 283.49,-55.5"/>
<text text-anchor="middle" x="319" y="-61.5" font-family="Helvetica,sans-Serif" font-size="10.00">sys/socket.h</text>
</g>
<!-- Node2&#45;&gt;Node9 -->
<g id="edge8" class="edge"><title>Node2&#45;&gt;Node9</title>
<path fill="none" stroke="midnightblue" d="M198.492,-330.254C183.654,-313.067 152,-271.588 152,-230.5 152,-230.5 152,-230.5 152,-173.5 152,-144.042 150.184,-130.844 171,-110 178.663,-102.327 235.673,-86.5976 276.646,-76.0478"/>
<polygon fill="midnightblue" stroke="midnightblue" points="277.595,-79.4179 286.417,-73.5513 275.862,-72.6357 277.595,-79.4179"/>
</g>
<!-- Node10 -->
<g id="node10" class="node"><title>Node10</title>
<polygon fill="white" stroke="#bfbfbf" points="135.318,-55.5 135.318,-73.5 184.682,-73.5 184.682,-55.5 135.318,-55.5"/>
<text text-anchor="middle" x="160" y="-61.5" font-family="Helvetica,sans-Serif" font-size="10.00">netdb.h</text>
</g>
<!-- Node2&#45;&gt;Node10 -->
<g id="edge9" class="edge"><title>Node2&#45;&gt;Node10</title>
<path fill="none" stroke="midnightblue" d="M180.935,-330.488C143.158,-316.662 76,-284.489 76,-230.5 76,-230.5 76,-230.5 76,-173.5 76,-132.67 113.871,-97.9793 138.756,-79.5915"/>
<polygon fill="midnightblue" stroke="midnightblue" points="141.11,-82.2131 147.242,-73.5735 137.06,-76.5031 141.11,-82.2131"/>
</g>
<!-- Node11 -->
<g id="node11" class="node"><title>Node11</title>
<g id="a_node11"><a xlink:href="structures_8h.html" target="_top" xlink:title="File containing all the structure definitions used in the other modules. ">
<polygon fill="white" stroke="black" points="570.879,-55.5 570.879,-73.5 639.121,-73.5 639.121,-55.5 570.879,-55.5"/>
<text text-anchor="middle" x="605" y="-61.5" font-family="Helvetica,sans-Serif" font-size="10.00">structures.h</text>
</a>
</g>
</g>
<!-- Node2&#45;&gt;Node11 -->
<g id="edge10" class="edge"><title>Node2&#45;&gt;Node11</title>
<path fill="none" stroke="midnightblue" d="M222.165,-330.452C272.683,-304.91 431.018,-221.861 545,-129 562.748,-114.54 580.426,-95.0572 591.946,-81.5008"/>
<polygon fill="midnightblue" stroke="midnightblue" points="594.85,-83.4825 598.566,-73.5605 589.474,-78.9999 594.85,-83.4825"/>
</g>
<!-- Node13 -->
<g id="node13" class="node"><title>Node13</title>
<g id="a_node13"><a xlink:href="msg_buffers_8h.html" target="_top" xlink:title="File containing the headers of all functions related to the message mailboxes. ">
<polygon fill="white" stroke="black" points="602.632,-275.5 602.632,-293.5 677.368,-293.5 677.368,-275.5 602.632,-275.5"/>
<text text-anchor="middle" x="640" y="-281.5" font-family="Helvetica,sans-Serif" font-size="10.00">msgBuffers.h</text>
</a>
</g>
</g>
<!-- Node2&#45;&gt;Node13 -->
<g id="edge14" class="edge"><title>Node2&#45;&gt;Node13</title>
<path fill="none" stroke="midnightblue" d="M270.038,-330.68C357.932,-319.946 513.946,-300.894 592.3,-291.325"/>
<polygon fill="midnightblue" stroke="midnightblue" points="592.869,-294.782 602.371,-290.095 592.021,-287.833 592.869,-294.782"/>
</g>
<!-- Node11&#45;&gt;Node3 -->
<g id="edge11" class="edge"><title>Node11&#45;&gt;Node3</title>
<path fill="none" stroke="midnightblue" d="M639.243,-55.9064C685.106,-45.736 765.927,-27.8132 811.097,-17.7965"/>
<polygon fill="midnightblue" stroke="midnightblue" points="811.965,-21.1891 820.97,-15.607 810.45,-14.3551 811.965,-21.1891"/>
</g>
<!-- Node11&#45;&gt;Node7 -->
<g id="edge13" class="edge"><title>Node11&#45;&gt;Node7</title>
<path fill="none" stroke="midnightblue" d="M574.169,-55.4504C539.042,-46.2794 481.498,-31.2555 442.708,-21.1283"/>
<polygon fill="midnightblue" stroke="midnightblue" points="443.348,-17.6781 432.788,-18.5383 441.58,-24.451 443.348,-17.6781"/>
</g>
<!-- Node12 -->
<g id="node12" class="node"><title>Node12</title>
<polygon fill="white" stroke="#bfbfbf" points="663.872,-0.5 663.872,-18.5 722.128,-18.5 722.128,-0.5 663.872,-0.5"/>
<text text-anchor="middle" x="693" y="-6.5" font-family="Helvetica,sans-Serif" font-size="10.00">pthread.h</text>
</g>
<!-- Node11&#45;&gt;Node12 -->
<g id="edge12" class="edge"><title>Node11&#45;&gt;Node12</title>
<path fill="none" stroke="midnightblue" d="M618.365,-55.4504C632.192,-47.1232 654.03,-33.9704 670.519,-24.0394"/>
<polygon fill="midnightblue" stroke="midnightblue" points="672.748,-26.7828 679.509,-18.6253 669.137,-20.7864 672.748,-26.7828"/>
</g>
<!-- Node13&#45;&gt;Node3 -->
<g id="edge15" class="edge"><title>Node13&#45;&gt;Node3</title>
<path fill="none" stroke="midnightblue" d="M677.383,-284.227C741.7,-283.103 870.221,-269.767 910,-184 936.276,-127.346 884.955,-57.0486 858.457,-26.2245"/>
<polygon fill="midnightblue" stroke="midnightblue" points="860.976,-23.7891 851.726,-18.6214 855.734,-28.429 860.976,-23.7891"/>
</g>
<!-- Node13&#45;&gt;Node11 -->
<g id="edge18" class="edge"><title>Node13&#45;&gt;Node11</title>
<path fill="none" stroke="midnightblue" d="M664.305,-275.401C729.61,-252.408 899.938,-183.619 839,-110 815.444,-81.5427 710.793,-71.1317 649.713,-67.4385"/>
<polygon fill="midnightblue" stroke="midnightblue" points="649.757,-63.9355 639.574,-66.8628 649.36,-70.9242 649.757,-63.9355"/>
</g>
<!-- Node13&#45;&gt;Node12 -->
<g id="edge16" class="edge"><title>Node13&#45;&gt;Node12</title>
<path fill="none" stroke="midnightblue" d="M677.499,-275.858C748.605,-260.284 896,-222.351 896,-175.5 896,-175.5 896,-175.5 896,-118.5 896,-45.2528 791.718,-21.5227 732.638,-13.9562"/>
<polygon fill="midnightblue" stroke="midnightblue" points="732.859,-10.458 722.518,-12.7608 732.038,-17.4097 732.859,-10.458"/>
</g>
<!-- Node14 -->
<g id="node14" class="node"><title>Node14</title>
<polygon fill="white" stroke="#bfbfbf" points="523.214,-220.5 523.214,-238.5 574.786,-238.5 574.786,-220.5 523.214,-220.5"/>
<text text-anchor="middle" x="549" y="-226.5" font-family="Helvetica,sans-Serif" font-size="10.00">assert.h</text>
</g>
<!-- Node13&#45;&gt;Node14 -->
<g id="edge17" class="edge"><title>Node13&#45;&gt;Node14</title>
<path fill="none" stroke="midnightblue" d="M626.179,-275.45C611.748,-267.045 588.875,-253.724 571.77,-243.762"/>
<polygon fill="midnightblue" stroke="midnightblue" points="573.354,-240.634 562.951,-238.625 569.831,-246.683 573.354,-240.634"/>
</g>
<!-- Node15 -->
<g id="node15" class="node"><title>Node15</title>
<g id="a_node15"><a xlink:href="message_parser_8h.html" target="_top" xlink:title="Message parser function headers. ">
<polygon fill="white" stroke="black" points="593.089,-220.5 593.089,-238.5 686.911,-238.5 686.911,-220.5 593.089,-220.5"/>
<text text-anchor="middle" x="640" y="-226.5" font-family="Helvetica,sans-Serif" font-size="10.00">messageParser.h</text>
</a>
</g>
</g>
<!-- Node13&#45;&gt;Node15 -->
<g id="edge19" class="edge"><title>Node13&#45;&gt;Node15</title>
<path fill="none" stroke="midnightblue" d="M634.938,-275.219C633.325,-268.099 632.868,-257.577 633.566,-248.529"/>
<polygon fill="midnightblue" stroke="midnightblue" points="637.043,-248.944 634.991,-238.55 630.113,-247.955 637.043,-248.944"/>
</g>
<!-- Node15&#45;&gt;Node3 -->
<g id="edge20" class="edge"><title>Node15&#45;&gt;Node3</title>
<path fill="none" stroke="midnightblue" d="M687.136,-222.11C737.582,-212.282 813.763,-187.945 839,-129 853.138,-95.9773 850.329,-52.9322 847.105,-28.8596"/>
<polygon fill="midnightblue" stroke="midnightblue" points="850.523,-28.0544 845.561,-18.6932 843.602,-29.1054 850.523,-28.0544"/>
</g>
<!-- Node15&#45;&gt;Node4 -->
<g id="edge22" class="edge"><title>Node15&#45;&gt;Node4</title>
<path fill="none" stroke="midnightblue" d="M681.104,-220.474C706.654,-213.921 739.076,-202.62 763,-184 778.726,-171.761 790.762,-152.127 798.047,-137.929"/>
<polygon fill="midnightblue" stroke="midnightblue" points="801.291,-139.261 802.497,-128.735 794.99,-136.212 801.291,-139.261"/>
</g>
<!-- Node15&#45;&gt;Node6 -->
<g id="edge21" class="edge"><title>Node15&#45;&gt;Node6</title>
<path fill="none" stroke="midnightblue" d="M601.539,-220.492C534.687,-206.004 393.264,-172.833 279,-129 261.37,-122.237 258.55,-116.966 241,-110 220.314,-101.789 164.283,-85.5313 127.405,-75.1049"/>
<polygon fill="midnightblue" stroke="midnightblue" points="128.132,-71.6733 117.557,-72.3303 126.233,-78.411 128.132,-71.6733"/>
</g>
<!-- Node15&#45;&gt;Node11 -->
<g id="edge24" class="edge"><title>Node15&#45;&gt;Node11</title>
<path fill="none" stroke="midnightblue" d="M637.099,-220.388C634.016,-211.536 629.159,-196.901 626,-184 617.414,-148.931 610.851,-107.212 607.492,-83.7998"/>
<polygon fill="midnightblue" stroke="midnightblue" points="610.92,-83.0407 606.069,-73.6214 603.987,-84.0096 610.92,-83.0407"/>
</g>
<!-- Node15&#45;&gt;Node12 -->
<g id="edge23" class="edge"><title>Node15&#45;&gt;Node12</title>
<path fill="none" stroke="midnightblue" d="M641.949,-220.483C649.593,-189.041 677.642,-73.6703 688.586,-28.6573"/>
<polygon fill="midnightblue" stroke="midnightblue" points="692.015,-29.3669 690.977,-18.8231 685.213,-27.7132 692.015,-29.3669"/>
</g>
<!-- Node15&#45;&gt;Node13 -->
<g id="edge25" class="edge"><title>Node15&#45;&gt;Node13</title>
<path fill="none" stroke="midnightblue" d="M645.009,-238.55C646.647,-245.595 647.129,-256.094 646.456,-265.175"/>
<polygon fill="midnightblue" stroke="midnightblue" points="642.97,-264.833 645.062,-275.219 649.904,-265.795 642.97,-264.833"/>
</g>
<!-- Node16 -->
<g id="node16" class="node"><title>Node16</title>
<g id="a_node16"><a xlink:href="tcp_vehicle_socket_comm_8h.html" target="_top" xlink:title="Vehicle connection server&#39;s headers. ">
<polygon fill="white" stroke="black" points="288.027,-110.5 288.027,-128.5 417.973,-128.5 417.973,-110.5 288.027,-110.5"/>
<text text-anchor="middle" x="353" y="-116.5" font-family="Helvetica,sans-Serif" font-size="10.00">tcpVehicleSocketComm.h</text>
</a>
</g>
</g>
<!-- Node15&#45;&gt;Node16 -->
<g id="edge26" class="edge"><title>Node15&#45;&gt;Node16</title>
<path fill="none" stroke="midnightblue" d="M629.725,-220.42C612.139,-206.976 574.704,-180.013 539,-165 499.832,-148.53 453.346,-137.407 416.644,-130.4"/>
<polygon fill="midnightblue" stroke="midnightblue" points="417.036,-126.913 406.566,-128.532 415.761,-133.796 417.036,-126.913"/>
</g>
<!-- Node17 -->
<g id="node17" class="node"><title>Node17</title>
<g id="a_node17"><a xlink:href="station_actions_8h.html" target="_top" xlink:title="FIle containing all the station action headers. ">
<polygon fill="white" stroke="black" points="667.702,-165.5 667.702,-183.5 754.298,-183.5 754.298,-165.5 667.702,-165.5"/>
<text text-anchor="middle" x="711" y="-171.5" font-family="Helvetica,sans-Serif" font-size="10.00">stationActions.h</text>
</a>
</g>
</g>
<!-- Node15&#45;&gt;Node17 -->
<g id="edge34" class="edge"><title>Node15&#45;&gt;Node17</title>
<path fill="none" stroke="midnightblue" d="M646.031,-220.219C655.264,-211.925 672.246,-199.017 686.658,-189.196"/>
<polygon fill="midnightblue" stroke="midnightblue" points="688.792,-191.981 695.207,-183.55 684.934,-186.14 688.792,-191.981"/>
</g>
<!-- Node16&#45;&gt;Node6 -->
<g id="edge27" class="edge"><title>Node16&#45;&gt;Node6</title>
<path fill="none" stroke="midnightblue" d="M308.043,-110.489C264.281,-102.512 195.671,-89.5335 127.519,-74.2448"/>
<polygon fill="midnightblue" stroke="midnightblue" points="127.995,-70.7643 117.47,-71.9727 126.451,-77.592 127.995,-70.7643"/>
</g>
<!-- Node16&#45;&gt;Node7 -->
<g id="edge28" class="edge"><title>Node16&#45;&gt;Node7</title>
<path fill="none" stroke="midnightblue" d="M356.683,-110.382C364.593,-92.9477 383.358,-51.5895 394.096,-27.9219"/>
<polygon fill="midnightblue" stroke="midnightblue" points="397.33,-29.2644 398.274,-18.7118 390.955,-26.3722 397.33,-29.2644"/>
</g>
<!-- Node16&#45;&gt;Node8 -->
<g id="edge29" class="edge"><title>Node16&#45;&gt;Node8</title>
<path fill="none" stroke="midnightblue" d="M334.926,-110.45C315.443,-101.773 284.195,-87.8556 261.626,-77.8041"/>
<polygon fill="midnightblue" stroke="midnightblue" points="262.803,-74.4966 252.244,-73.6253 259.955,-80.8911 262.803,-74.4966"/>
</g>
<!-- Node16&#45;&gt;Node9 -->
<g id="edge30" class="edge"><title>Node16&#45;&gt;Node9</title>
<path fill="none" stroke="midnightblue" d="M347.688,-110.219C342.869,-102.707 335.622,-91.411 329.618,-82.0515"/>
<polygon fill="midnightblue" stroke="midnightblue" points="332.509,-80.0767 324.164,-73.5496 326.618,-83.8564 332.509,-80.0767"/>
</g>
<!-- Node16&#45;&gt;Node10 -->
<g id="edge31" class="edge"><title>Node16&#45;&gt;Node10</title>
<path fill="none" stroke="midnightblue" d="M323.687,-110.45C289.084,-100.948 231.598,-85.1616 194.775,-75.0496"/>
<polygon fill="midnightblue" stroke="midnightblue" points="195.543,-71.6311 184.973,-72.358 193.69,-78.3812 195.543,-71.6311"/>
</g>
<!-- Node16&#45;&gt;Node11 -->
<g id="edge32" class="edge"><title>Node16&#45;&gt;Node11</title>
<path fill="none" stroke="midnightblue" d="M391.273,-110.45C436.907,-100.853 513.017,-84.8456 561.027,-74.7484"/>
<polygon fill="midnightblue" stroke="midnightblue" points="561.758,-78.1712 570.824,-72.6879 560.317,-71.321 561.758,-78.1712"/>
</g>
<!-- Node16&#45;&gt;Node13 -->
<g id="edge33" class="edge"><title>Node16&#45;&gt;Node13</title>
<path fill="none" stroke="midnightblue" d="M360.756,-128.648C381.33,-149.819 439.783,-207.128 499,-239 528.391,-254.819 564.303,-266.049 592.528,-273.27"/>
<polygon fill="midnightblue" stroke="midnightblue" points="592.004,-276.746 602.552,-275.751 593.685,-269.951 592.004,-276.746"/>
</g>
<!-- Node17&#45;&gt;Node2 -->
<g id="edge42" class="edge"><title>Node17&#45;&gt;Node2</title>
<path fill="none" stroke="midnightblue" d="M711.958,-183.687C712.949,-192.603 714.43,-207.292 715,-220 716.583,-255.289 715.372,-274.376 686,-294 653.088,-315.989 406.688,-329.781 280.304,-335.482"/>
<polygon fill="midnightblue" stroke="midnightblue" points="279.772,-332.002 269.938,-335.943 280.083,-338.995 279.772,-332.002"/>
</g>
<!-- Node17&#45;&gt;Node3 -->
<g id="edge35" class="edge"><title>Node17&#45;&gt;Node3</title>
<path fill="none" stroke="midnightblue" d="M717.778,-165.193C738.77,-139.466 802.965,-60.7905 830.846,-26.6216"/>
<polygon fill="midnightblue" stroke="midnightblue" points="833.783,-28.5579 837.393,-18.5971 828.359,-24.1325 833.783,-28.5579"/>
</g>
<!-- Node17&#45;&gt;Node4 -->
<g id="edge36" class="edge"><title>Node17&#45;&gt;Node4</title>
<path fill="none" stroke="midnightblue" d="M725.428,-165.45C740.494,-157.045 764.372,-143.724 782.229,-133.762"/>
<polygon fill="midnightblue" stroke="midnightblue" points="784.408,-136.554 791.436,-128.625 780.998,-130.441 784.408,-136.554"/>
</g>
<!-- Node17&#45;&gt;Node5 -->
<g id="edge38" class="edge"><title>Node17&#45;&gt;Node5</title>
<path fill="none" stroke="midnightblue" d="M667.444,-169.206C589.499,-161.479 421.025,-144.583 279,-129 266.836,-127.665 253.541,-126.138 241.669,-124.749"/>
<polygon fill="midnightblue" stroke="midnightblue" points="242.007,-121.265 231.666,-123.573 241.189,-128.217 242.007,-121.265"/>
</g>
<!-- Node17&#45;&gt;Node11 -->
<g id="edge39" class="edge"><title>Node17&#45;&gt;Node11</title>
<path fill="none" stroke="midnightblue" d="M703.033,-165.382C685.46,-147.479 643.127,-104.347 620.263,-81.0507"/>
<polygon fill="midnightblue" stroke="midnightblue" points="622.562,-78.397 613.06,-73.7118 617.566,-83.3003 622.562,-78.397"/>
</g>
<!-- Node17&#45;&gt;Node12 -->
<g id="edge37" class="edge"><title>Node17&#45;&gt;Node12</title>
<path fill="none" stroke="midnightblue" d="M710.083,-165.193C707.302,-140.013 698.921,-64.1144 695.028,-28.8621"/>
<polygon fill="midnightblue" stroke="midnightblue" points="698.471,-28.1525 693.894,-18.5971 691.513,-28.9209 698.471,-28.1525"/>
</g>
<!-- Node17&#45;&gt;Node13 -->
<g id="edge41" class="edge"><title>Node17&#45;&gt;Node13</title>
<path fill="none" stroke="midnightblue" d="M710.759,-183.568C710.033,-196.298 707.171,-221.404 696,-239 688.017,-251.574 675.223,-262.134 663.877,-269.807"/>
<polygon fill="midnightblue" stroke="midnightblue" points="661.765,-267.002 655.208,-275.324 665.524,-272.907 661.765,-267.002"/>
</g>
<!-- Node17&#45;&gt;Node15 -->
<g id="edge40" class="edge"><title>Node17&#45;&gt;Node15</title>
<path fill="none" stroke="midnightblue" d="M705.142,-183.625C695.96,-191.904 678.882,-204.894 664.389,-214.772"/>
<polygon fill="midnightblue" stroke="midnightblue" points="662.207,-212.018 655.793,-220.45 666.066,-217.859 662.207,-212.018"/>
</g>
<!-- Node17&#45;&gt;Node16 -->
<g id="edge43" class="edge"><title>Node17&#45;&gt;Node16</title>
<path fill="none" stroke="midnightblue" d="M667.46,-167.054C604.992,-157.806 489.517,-140.711 417.228,-130.009"/>
<polygon fill="midnightblue" stroke="midnightblue" points="417.729,-126.545 407.325,-128.542 416.704,-133.469 417.729,-126.545"/>
</g>
<!-- Node18 -->
<g id="node18" class="node"><title>Node18</title>
<g id="a_node18"><a xlink:href="mcast_messaging_8h.html" target="_top" xlink:title="FIle containing all the headers of the functions related to multicast communication. ">
<polygon fill="white" stroke="black" points="436.315,-110.5 436.315,-128.5 535.685,-128.5 535.685,-110.5 436.315,-110.5"/>
<text text-anchor="middle" x="486" y="-116.5" font-family="Helvetica,sans-Serif" font-size="10.00">mcastMessaging.h</text>
</a>
</g>
</g>
<!-- Node17&#45;&gt;Node18 -->
<g id="edge44" class="edge"><title>Node17&#45;&gt;Node18</title>
<path fill="none" stroke="midnightblue" d="M676.827,-165.45C637.562,-156.201 573.026,-140.999 530.027,-130.871"/>
<polygon fill="midnightblue" stroke="midnightblue" points="530.661,-127.424 520.125,-128.538 529.056,-134.238 530.661,-127.424"/>
</g>
<!-- Node18&#45;&gt;Node3 -->
<g id="edge45" class="edge"><title>Node18&#45;&gt;Node3</title>
<path fill="none" stroke="midnightblue" d="M493.008,-110.268C505.377,-96.3464 532.568,-68.3655 562,-55 606.031,-35.0046 746.787,-19.6365 811.227,-13.4593"/>
<polygon fill="midnightblue" stroke="midnightblue" points="811.622,-16.9376 821.249,-12.5138 810.965,-9.96851 811.622,-16.9376"/>
</g>
<!-- Node18&#45;&gt;Node7 -->
<g id="edge48" class="edge"><title>Node18&#45;&gt;Node7</title>
<path fill="none" stroke="midnightblue" d="M476.106,-110.296C466.255,-101.829 451.049,-87.9282 440,-74 428.42,-59.4022 417.765,-40.964 410.703,-27.7219"/>
<polygon fill="midnightblue" stroke="midnightblue" points="413.763,-26.0194 406.047,-18.7582 407.55,-29.2459 413.763,-26.0194"/>
</g>
<!-- Node18&#45;&gt;Node8 -->
<g id="edge49" class="edge"><title>Node18&#45;&gt;Node8</title>
<path fill="none" stroke="midnightblue" d="M447.696,-110.49C407.306,-102.036 341.533,-88.2521 275.968,-74.4121"/>
<polygon fill="midnightblue" stroke="midnightblue" points="276.383,-70.9226 265.875,-72.2809 274.936,-77.7716 276.383,-70.9226"/>
</g>
<!-- Node18&#45;&gt;Node9 -->
<g id="edge47" class="edge"><title>Node18&#45;&gt;Node9</title>
<path fill="none" stroke="midnightblue" d="M460.636,-110.45C432.231,-101.436 386.006,-86.7653 354.132,-76.6496"/>
<polygon fill="midnightblue" stroke="midnightblue" points="354.919,-73.2273 344.328,-73.5383 352.801,-79.8994 354.919,-73.2273"/>
</g>
<!-- Node18&#45;&gt;Node11 -->
<g id="edge50" class="edge"><title>Node18&#45;&gt;Node11</title>
<path fill="none" stroke="midnightblue" d="M504.074,-110.45C523.557,-101.773 554.805,-87.8556 577.374,-77.8041"/>
<polygon fill="midnightblue" stroke="midnightblue" points="579.045,-80.8911 586.756,-73.6253 576.197,-74.4966 579.045,-80.8911"/>
</g>
<!-- Node18&#45;&gt;Node13 -->
<g id="edge51" class="edge"><title>Node18&#45;&gt;Node13</title>
<path fill="none" stroke="midnightblue" d="M485.458,-128.587C484.504,-149.612 484.906,-206.598 514,-239 533.997,-261.271 565.841,-272.396 592.512,-277.954"/>
<polygon fill="midnightblue" stroke="midnightblue" points="591.97,-281.413 602.445,-279.823 593.264,-274.534 591.97,-281.413"/>
</g>
<!-- Node19 -->
<g id="node19" class="node"><title>Node19</title>
<polygon fill="white" stroke="#bfbfbf" points="448.99,-55.5 448.99,-73.5 515.01,-73.5 515.01,-55.5 448.99,-55.5"/>
<text text-anchor="middle" x="482" y="-61.5" font-family="Helvetica,sans-Serif" font-size="10.00">sys/types.h</text>
</g>
<!-- Node18&#45;&gt;Node19 -->
<g id="edge46" class="edge"><title>Node18&#45;&gt;Node19</title>
<path fill="none" stroke="midnightblue" d="M485.375,-110.219C484.838,-103.099 484.044,-92.5775 483.361,-83.5289"/>
<polygon fill="midnightblue" stroke="midnightblue" points="486.85,-83.2578 482.608,-73.5496 479.87,-83.7846 486.85,-83.2578"/>
</g>
</g>
</svg>
