<?xml version="1.0" encoding="UTF-8" standalone="no"?>
<!DOCTYPE svg PUBLIC "-//W3C//DTD SVG 1.1//EN"
 "http://www.w3.org/Graphics/SVG/1.1/DTD/svg11.dtd">
<!-- Generated by graphviz version 2.38.0 (20140413.2041)
 -->
<!-- Title: rasPi&#45;EmergencyStation/tcpServerSocketComm.h Pages: 1 -->
<svg width="612pt" height="427pt"
 viewBox="0.00 0.00 611.91 427.00" xmlns="http://www.w3.org/2000/svg" xmlns:xlink="http://www.w3.org/1999/xlink">
<g id="graph0" class="graph" transform="scale(1 1) rotate(0) translate(4 423)">
<title>rasPi&#45;EmergencyStation/tcpServerSocketComm.h</title>
<polygon fill="white" stroke="none" points="-4,4 -4,-423 607.911,-423 607.911,4 -4,4"/>
<!-- Node1 -->
<g id="node1" class="node"><title>Node1</title>
<polygon fill="#bfbfbf" stroke="black" points="407.948,-390.5 407.948,-418.5 537.874,-418.5 537.874,-390.5 407.948,-390.5"/>
<text text-anchor="start" x="415.948" y="-406.5" font-family="Helvetica,sans-Serif" font-size="10.00">rasPi&#45;EmergencyStation</text>
<text text-anchor="middle" x="472.911" y="-396.5" font-family="Helvetica,sans-Serif" font-size="10.00">/tcpServerSocketComm.h</text>
</g>
<!-- Node2 -->
<g id="node2" class="node"><title>Node2</title>
<g id="a_node2"><a xlink:href="station_actions_8h.html" target="_top" xlink:title="FIle containing all the station action headers. ">
<polygon fill="white" stroke="black" points="266,-325.5 266,-353.5 389.822,-353.5 389.822,-325.5 266,-325.5"/>
<text text-anchor="start" x="274" y="-341.5" font-family="Helvetica,sans-Serif" font-size="10.00">rasPi&#45;EmergencyStation</text>
<text text-anchor="middle" x="327.911" y="-331.5" font-family="Helvetica,sans-Serif" font-size="10.00">/stationActions.h</text>
</a>
</g>
</g>
<!-- Node1&#45;&gt;Node2 -->
<g id="edge1" class="edge"><title>Node1&#45;&gt;Node2</title>
<path fill="none" stroke="midnightblue" d="M433.41,-386.337C409.61,-375.997 379.779,-363.036 357.917,-353.537"/>
<polygon fill="midnightblue" stroke="midnightblue" points="432.301,-389.671 442.867,-390.446 435.09,-383.251 432.301,-389.671"/>
</g>
<!-- Node5 -->
<g id="node5" class="node"><title>Node5</title>
<g id="a_node5"><a xlink:href="main_8h.html" target="_top" xlink:title="Main file&#39;s headers of the emergency station application. ">
<polygon fill="white" stroke="black" points="428,-65.5 428,-93.5 551.822,-93.5 551.822,-65.5 428,-65.5"/>
<text text-anchor="start" x="436" y="-81.5" font-family="Helvetica,sans-Serif" font-size="10.00">rasPi&#45;EmergencyStation</text>
<text text-anchor="middle" x="489.911" y="-71.5" font-family="Helvetica,sans-Serif" font-size="10.00">/main.h</text>
</a>
</g>
</g>
<!-- Node1&#45;&gt;Node5 -->
<g id="edge26" class="edge"><title>Node1&#45;&gt;Node5</title>
<path fill="none" stroke="midnightblue" d="M516.473,-386.002C532.49,-378.009 549.878,-367.317 562.911,-354 590.442,-325.87 603.911,-314.861 603.911,-275.5 603.911,-275.5 603.911,-275.5 603.911,-208.5 603.911,-155.084 547.864,-113.646 514.367,-93.6495"/>
<polygon fill="midnightblue" stroke="midnightblue" points="514.77,-382.936 507.245,-390.394 517.778,-389.257 514.77,-382.936"/>
</g>
<!-- Node14 -->
<g id="node14" class="node"><title>Node14</title>
<g id="a_node14"><a xlink:href="tcp_server_socket_comm_8c.html" target="_top" xlink:title="Server connection related function headers. ">
<polygon fill="white" stroke="black" points="408.229,-325.5 408.229,-353.5 537.593,-353.5 537.593,-325.5 408.229,-325.5"/>
<text text-anchor="start" x="416.229" y="-341.5" font-family="Helvetica,sans-Serif" font-size="10.00">rasPi&#45;EmergencyStation</text>
<text text-anchor="middle" x="472.911" y="-331.5" font-family="Helvetica,sans-Serif" font-size="10.00">/tcpServerSocketComm.c</text>
</a>
</g>
</g>
<!-- Node1&#45;&gt;Node14 -->
<g id="edge27" class="edge"><title>Node1&#45;&gt;Node14</title>
<path fill="none" stroke="midnightblue" d="M472.911,-380.164C472.911,-371.169 472.911,-361.221 472.911,-353.537"/>
<polygon fill="midnightblue" stroke="midnightblue" points="469.411,-380.446 472.911,-390.446 476.411,-380.446 469.411,-380.446"/>
</g>
<!-- Node3 -->
<g id="node3" class="node"><title>Node3</title>
<g id="a_node3"><a xlink:href="tcp_vehicle_socket_comm_8h.html" target="_top" xlink:title="Vehicle connection server&#39;s headers. ">
<polygon fill="white" stroke="black" points="169.549,-260.5 169.549,-288.5 302.273,-288.5 302.273,-260.5 169.549,-260.5"/>
<text text-anchor="start" x="177.549" y="-276.5" font-family="Helvetica,sans-Serif" font-size="10.00">rasPi&#45;EmergencyStation</text>
<text text-anchor="middle" x="235.911" y="-266.5" font-family="Helvetica,sans-Serif" font-size="10.00">/tcpVehicleSocketComm.h</text>
</a>
</g>
</g>
<!-- Node2&#45;&gt;Node3 -->
<g id="edge2" class="edge"><title>Node2&#45;&gt;Node3</title>
<path fill="none" stroke="midnightblue" d="M294.379,-319.803C278.814,-309.738 261.26,-297.572 249.359,-288.537"/>
<polygon fill="midnightblue" stroke="midnightblue" points="292.939,-323.035 303.256,-325.446 296.695,-317.127 292.939,-323.035"/>
</g>
<!-- Node4 -->
<g id="node4" class="node"><title>Node4</title>
<g id="a_node4"><a xlink:href="message_parser_8h.html" target="_top" xlink:title="Message parser function headers. ">
<polygon fill="white" stroke="black" points="338,-195.5 338,-223.5 461.822,-223.5 461.822,-195.5 338,-195.5"/>
<text text-anchor="start" x="346" y="-211.5" font-family="Helvetica,sans-Serif" font-size="10.00">rasPi&#45;EmergencyStation</text>
<text text-anchor="middle" x="399.911" y="-201.5" font-family="Helvetica,sans-Serif" font-size="10.00">/messageParser.h</text>
</a>
</g>
</g>
<!-- Node2&#45;&gt;Node4 -->
<g id="edge23" class="edge"><title>Node2&#45;&gt;Node4</title>
<path fill="none" stroke="midnightblue" d="M330.647,-315.925C336.661,-300.019 347.283,-278.368 357.911,-260 365.256,-247.306 374.606,-233.464 383.013,-223.654"/>
<polygon fill="midnightblue" stroke="midnightblue" points="327.312,-314.862 327.407,-325.456 333.94,-317.115 327.312,-314.862"/>
</g>
<!-- Node2&#45;&gt;Node5 -->
<g id="edge24" class="edge"><title>Node2&#45;&gt;Node5</title>
<path fill="none" stroke="midnightblue" d="M400.012,-323.135C447.405,-312.306 501.922,-298.157 508.911,-289 554.671,-229.046 513.767,-129.301 496.626,-93.6594"/>
<polygon fill="midnightblue" stroke="midnightblue" points="399.008,-319.773 390.026,-325.392 400.552,-326.601 399.008,-319.773"/>
</g>
<!-- Node13 -->
<g id="node13" class="node"><title>Node13</title>
<g id="a_node13"><a xlink:href="station_actions_8c.html" target="_top" xlink:title="FIle containing all the station action definitions. ">
<polygon fill="white" stroke="black" points="376,-260.5 376,-288.5 499.822,-288.5 499.822,-260.5 376,-260.5"/>
<text text-anchor="start" x="384" y="-276.5" font-family="Helvetica,sans-Serif" font-size="10.00">rasPi&#45;EmergencyStation</text>
<text text-anchor="middle" x="437.911" y="-266.5" font-family="Helvetica,sans-Serif" font-size="10.00">/stationActions.c</text>
</a>
</g>
</g>
<!-- Node2&#45;&gt;Node13 -->
<g id="edge25" class="edge"><title>Node2&#45;&gt;Node13</title>
<path fill="none" stroke="midnightblue" d="M359.576,-320.365C377.335,-310.194 399.079,-297.74 415.148,-288.537"/>
<polygon fill="midnightblue" stroke="midnightblue" points="357.641,-317.439 350.703,-325.446 361.12,-323.514 357.641,-317.439"/>
</g>
<!-- Node3&#45;&gt;Node2 -->
<g id="edge20" class="edge"><title>Node3&#45;&gt;Node2</title>
<path fill="none" stroke="midnightblue" d="M269.414,-294.179C284.977,-304.241 302.533,-316.408 314.441,-325.446"/>
<polygon fill="midnightblue" stroke="midnightblue" points="270.856,-290.948 260.54,-288.537 267.101,-296.856 270.856,-290.948"/>
</g>
<!-- Node3&#45;&gt;Node4 -->
<g id="edge3" class="edge"><title>Node3&#45;&gt;Node4</title>
<path fill="none" stroke="midnightblue" d="M273.814,-256.613C299.79,-246.228 334.066,-233.12 360.383,-223.537"/>
<polygon fill="midnightblue" stroke="midnightblue" points="272.267,-253.463 264.299,-260.446 274.883,-259.955 272.267,-253.463"/>
</g>
<!-- Node3&#45;&gt;Node5 -->
<g id="edge21" class="edge"><title>Node3&#45;&gt;Node5</title>
<path fill="none" stroke="midnightblue" d="M250.562,-251.727C256.32,-243.116 262.964,-233.117 268.911,-224 295.992,-182.49 289.469,-160.014 328.911,-130 357.534,-108.218 395.819,-95.9405 427.874,-89.0621"/>
<polygon fill="midnightblue" stroke="midnightblue" points="247.608,-249.847 244.948,-260.102 253.423,-253.744 247.608,-249.847"/>
</g>
<!-- Node12 -->
<g id="node12" class="node"><title>Node12</title>
<g id="a_node12"><a xlink:href="tcp_vehicle_socket_comm_8c.html" target="_top" xlink:title="Vehicle connection server related function definitions. ">
<polygon fill="white" stroke="black" points="111.83,-195.5 111.83,-223.5 243.992,-223.5 243.992,-195.5 111.83,-195.5"/>
<text text-anchor="start" x="119.83" y="-211.5" font-family="Helvetica,sans-Serif" font-size="10.00">rasPi&#45;EmergencyStation</text>
<text text-anchor="middle" x="177.911" y="-201.5" font-family="Helvetica,sans-Serif" font-size="10.00">/tcpVehicleSocketComm.c</text>
</a>
</g>
</g>
<!-- Node3&#45;&gt;Node12 -->
<g id="edge22" class="edge"><title>Node3&#45;&gt;Node12</title>
<path fill="none" stroke="midnightblue" d="M216.856,-252.802C207.978,-243.159 197.687,-231.98 189.913,-223.537"/>
<polygon fill="midnightblue" stroke="midnightblue" points="214.545,-255.46 223.893,-260.446 219.695,-250.719 214.545,-255.46"/>
</g>
<!-- Node4&#45;&gt;Node1 -->
<g id="edge18" class="edge"><title>Node4&#45;&gt;Node1</title>
<path fill="none" stroke="midnightblue" d="M453.573,-227.218C472.578,-235.009 493.136,-245.768 508.911,-260 533.757,-282.416 538.162,-292.7 546.911,-325 550.281,-337.441 552.984,-342.631 546.911,-354 538.099,-370.496 521.085,-382.457 505.592,-390.484"/>
<polygon fill="midnightblue" stroke="midnightblue" points="454.692,-223.898 444.104,-223.522 452.146,-230.419 454.692,-223.898"/>
</g>
<!-- Node4&#45;&gt;Node2 -->
<g id="edge17" class="edge"><title>Node4&#45;&gt;Node2</title>
<path fill="none" stroke="midnightblue" d="M392.787,-232.5C387.643,-240.948 381.248,-250.777 375.911,-260 362.955,-282.392 350.008,-309.661 340.136,-325.456"/>
<polygon fill="midnightblue" stroke="midnightblue" points="395.931,-234.056 397.941,-223.654 389.883,-230.532 395.931,-234.056"/>
</g>
<!-- Node4&#45;&gt;Node3 -->
<g id="edge16" class="edge"><title>Node4&#45;&gt;Node3</title>
<path fill="none" stroke="midnightblue" d="M362.053,-227.369C336.088,-237.751 301.812,-250.859 275.485,-260.446"/>
<polygon fill="midnightblue" stroke="midnightblue" points="363.597,-230.521 371.564,-223.537 360.981,-224.028 363.597,-230.521"/>
</g>
<!-- Node4&#45;&gt;Node5 -->
<g id="edge4" class="edge"><title>Node4&#45;&gt;Node5</title>
<path fill="none" stroke="midnightblue" d="M436.249,-190.326C448.928,-182.323 462.16,-171.8 470.911,-159 484.603,-138.975 488.466,-110.166 489.532,-93.5896"/>
<polygon fill="midnightblue" stroke="midnightblue" points="434.425,-187.338 427.622,-195.46 438.006,-193.354 434.425,-187.338"/>
</g>
<!-- Node7 -->
<g id="node7" class="node"><title>Node7</title>
<g id="a_node7"><a xlink:href="msg_buffers_8h.html" target="_top" xlink:title="File containing the headers of all functions related to the message mailboxes. ">
<polygon fill="white" stroke="black" points="158,-130.5 158,-158.5 281.822,-158.5 281.822,-130.5 158,-130.5"/>
<text text-anchor="start" x="166" y="-146.5" font-family="Helvetica,sans-Serif" font-size="10.00">rasPi&#45;EmergencyStation</text>
<text text-anchor="middle" x="219.911" y="-136.5" font-family="Helvetica,sans-Serif" font-size="10.00">/msgBuffers.h</text>
</a>
</g>
</g>
<!-- Node4&#45;&gt;Node7 -->
<g id="edge6" class="edge"><title>Node4&#45;&gt;Node7</title>
<path fill="none" stroke="midnightblue" d="M347.222,-192.159C316.191,-181.691 278.038,-168.289 251.569,-158.537"/>
<polygon fill="midnightblue" stroke="midnightblue" points="346.428,-195.584 357.022,-195.446 348.654,-188.948 346.428,-195.584"/>
</g>
<!-- Node11 -->
<g id="node11" class="node"><title>Node11</title>
<g id="a_node11"><a xlink:href="message_parser_8c.html" target="_top" xlink:title="Message parser functions definition. ">
<polygon fill="white" stroke="black" points="338,-130.5 338,-158.5 461.822,-158.5 461.822,-130.5 338,-130.5"/>
<text text-anchor="start" x="346" y="-146.5" font-family="Helvetica,sans-Serif" font-size="10.00">rasPi&#45;EmergencyStation</text>
<text text-anchor="middle" x="399.911" y="-136.5" font-family="Helvetica,sans-Serif" font-size="10.00">/messageParser.c</text>
</a>
</g>
</g>
<!-- Node4&#45;&gt;Node11 -->
<g id="edge19" class="edge"><title>Node4&#45;&gt;Node11</title>
<path fill="none" stroke="midnightblue" d="M399.911,-185.164C399.911,-176.169 399.911,-166.221 399.911,-158.537"/>
<polygon fill="midnightblue" stroke="midnightblue" points="396.411,-185.446 399.911,-195.446 403.411,-185.446 396.411,-185.446"/>
</g>
<!-- Node6 -->
<g id="node6" class="node"><title>Node6</title>
<g id="a_node6"><a xlink:href="main_8c.html" target="_top" xlink:title="Main file and functions of the emergency station application. ">
<polygon fill="white" stroke="black" points="428,-0.5 428,-28.5 551.822,-28.5 551.822,-0.5 428,-0.5"/>
<text text-anchor="start" x="436" y="-16.5" font-family="Helvetica,sans-Serif" font-size="10.00">rasPi&#45;EmergencyStation</text>
<text text-anchor="middle" x="489.911" y="-6.5" font-family="Helvetica,sans-Serif" font-size="10.00">/main.c</text>
</a>
</g>
</g>
<!-- Node5&#45;&gt;Node6 -->
<g id="edge5" class="edge"><title>Node5&#45;&gt;Node6</title>
<path fill="none" stroke="midnightblue" d="M489.911,-55.1641C489.911,-46.1693 489.911,-36.2205 489.911,-28.5369"/>
<polygon fill="midnightblue" stroke="midnightblue" points="486.411,-55.4463 489.911,-65.4464 493.411,-55.4464 486.411,-55.4463"/>
</g>
<!-- Node7&#45;&gt;Node1 -->
<g id="edge10" class="edge"><title>Node7&#45;&gt;Node1</title>
<path fill="none" stroke="midnightblue" d="M147.973,-158.056C127.414,-165.335 107.256,-176.834 94.9111,-195 70.2627,-231.271 94.2943,-257.603 124.911,-289 200.621,-366.639 329.848,-391.65 407.722,-399.696"/>
<polygon fill="midnightblue" stroke="midnightblue" points="149.299,-161.306 157.742,-154.905 147.151,-154.644 149.299,-161.306"/>
</g>
<!-- Node7&#45;&gt;Node2 -->
<g id="edge9" class="edge"><title>Node7&#45;&gt;Node2</title>
<path fill="none" stroke="midnightblue" d="M148.558,-160.644C130.696,-167.988 113.598,-178.875 102.911,-195 95.7909,-205.744 98.3192,-211.957 102.911,-224 127.7,-289.014 208.268,-317.426 265.903,-329.63"/>
<polygon fill="midnightblue" stroke="midnightblue" points="149.81,-163.913 157.938,-157.117 147.346,-157.36 149.81,-163.913"/>
</g>
<!-- Node7&#45;&gt;Node3 -->
<g id="edge8" class="edge"><title>Node7&#45;&gt;Node3</title>
<path fill="none" stroke="midnightblue" d="M237.981,-166.638C243.951,-174.929 249.846,-184.875 252.911,-195 259.74,-217.555 250.144,-244.541 242.833,-260.278"/>
<polygon fill="midnightblue" stroke="midnightblue" points="240.718,-164.456 231.849,-158.66 235.168,-168.722 240.718,-164.456"/>
</g>
<!-- Node7&#45;&gt;Node4 -->
<g id="edge7" class="edge"><title>Node7&#45;&gt;Node4</title>
<path fill="none" stroke="midnightblue" d="M272.548,-161.823C303.57,-172.288 341.725,-185.69 368.208,-195.446"/>
<polygon fill="midnightblue" stroke="midnightblue" points="273.344,-158.399 262.75,-158.537 271.118,-165.035 273.344,-158.399"/>
</g>
<!-- Node7&#45;&gt;Node5 -->
<g id="edge14" class="edge"><title>Node7&#45;&gt;Node5</title>
<path fill="none" stroke="midnightblue" d="M285.615,-128.169C331.063,-117.565 390.886,-103.606 434.039,-93.5369"/>
<polygon fill="midnightblue" stroke="midnightblue" points="284.798,-124.766 275.855,-130.446 286.389,-131.582 284.798,-124.766"/>
</g>
<!-- Node8 -->
<g id="node8" class="node"><title>Node8</title>
<g id="a_node8"><a xlink:href="mcast_messaging_8h.html" target="_top" xlink:title="FIle containing all the headers of the functions related to multicast communication. ">
<polygon fill="white" stroke="black" points="0,-65.5 0,-93.5 123.822,-93.5 123.822,-65.5 0,-65.5"/>
<text text-anchor="start" x="8" y="-81.5" font-family="Helvetica,sans-Serif" font-size="10.00">rasPi&#45;EmergencyStation</text>
<text text-anchor="middle" x="61.9111" y="-71.5" font-family="Helvetica,sans-Serif" font-size="10.00">/mcastMessaging.h</text>
</a>
</g>
</g>
<!-- Node7&#45;&gt;Node8 -->
<g id="edge11" class="edge"><title>Node7&#45;&gt;Node8</title>
<path fill="none" stroke="midnightblue" d="M177.558,-126.613C151.513,-116.228 118.642,-103.12 94.6069,-93.5369"/>
<polygon fill="midnightblue" stroke="midnightblue" points="176.588,-129.994 187.173,-130.446 179.181,-123.491 176.588,-129.994"/>
</g>
<!-- Node10 -->
<g id="node10" class="node"><title>Node10</title>
<g id="a_node10"><a xlink:href="msg_buffers_8c.html" target="_top" xlink:title="File containing the definitions of all functions related to the message mailboxes. ">
<polygon fill="white" stroke="black" points="158,-65.5 158,-93.5 281.822,-93.5 281.822,-65.5 158,-65.5"/>
<text text-anchor="start" x="166" y="-81.5" font-family="Helvetica,sans-Serif" font-size="10.00">rasPi&#45;EmergencyStation</text>
<text text-anchor="middle" x="219.911" y="-71.5" font-family="Helvetica,sans-Serif" font-size="10.00">/msgBuffers.c</text>
</a>
</g>
</g>
<!-- Node7&#45;&gt;Node10 -->
<g id="edge15" class="edge"><title>Node7&#45;&gt;Node10</title>
<path fill="none" stroke="midnightblue" d="M219.911,-120.164C219.911,-111.169 219.911,-101.221 219.911,-93.5369"/>
<polygon fill="midnightblue" stroke="midnightblue" points="216.411,-120.446 219.911,-130.446 223.411,-120.446 216.411,-120.446"/>
</g>
<!-- Node8&#45;&gt;Node2 -->
<g id="edge12" class="edge"><title>Node8&#45;&gt;Node2</title>
<path fill="none" stroke="midnightblue" d="M61.2433,-103.928C61.3928,-147.935 68.6486,-242.68 124.911,-289 146.3,-306.61 214.438,-320.828 265.921,-329.433"/>
<polygon fill="midnightblue" stroke="midnightblue" points="64.7456,-103.686 61.3381,-93.6544 57.7459,-103.622 64.7456,-103.686"/>
</g>
<!-- Node9 -->
<g id="node9" class="node"><title>Node9</title>
<g id="a_node9"><a xlink:href="mcast_messaging_8c.html" target="_top" xlink:title="FIle containing all the definition of the functions related to multicast communication. ">
<polygon fill="white" stroke="black" points="0,-0.5 0,-28.5 123.822,-28.5 123.822,-0.5 0,-0.5"/>
<text text-anchor="start" x="8" y="-16.5" font-family="Helvetica,sans-Serif" font-size="10.00">rasPi&#45;EmergencyStation</text>
<text text-anchor="middle" x="61.9111" y="-6.5" font-family="Helvetica,sans-Serif" font-size="10.00">/mcastMessaging.c</text>
</a>
</g>
</g>
<!-- Node8&#45;&gt;Node9 -->
<g id="edge13" class="edge"><title>Node8&#45;&gt;Node9</title>
<path fill="none" stroke="midnightblue" d="M61.9111,-55.1641C61.9111,-46.1693 61.9111,-36.2205 61.9111,-28.5369"/>
<polygon fill="midnightblue" stroke="midnightblue" points="58.4112,-55.4463 61.9111,-65.4464 65.4112,-55.4464 58.4112,-55.4463"/>
</g>
</g>
</svg>
