<?xml version="1.0" encoding="UTF-8" standalone="no"?>
<!DOCTYPE svg PUBLIC "-//W3C//DTD SVG 1.1//EN"
 "http://www.w3.org/Graphics/SVG/1.1/DTD/svg11.dtd">
<!-- Generated by graphviz version 2.38.0 (20140413.2041)
 -->
<!-- Title: SSC_sendMessageToServer Pages: 1 -->
<svg width="929pt" height="27pt"
 viewBox="0.00 0.00 928.76 27.00" xmlns="http://www.w3.org/2000/svg" xmlns:xlink="http://www.w3.org/1999/xlink">
<g id="graph0" class="graph" transform="scale(1 1) rotate(0) translate(4 23)">
<title>SSC_sendMessageToServer</title>
<polygon fill="white" stroke="none" points="-4,4 -4,-23 924.761,-23 924.761,4 -4,4"/>
<!-- Node1 -->
<g id="node1" class="node"><title>Node1</title>
<polygon fill="#bfbfbf" stroke="black" points="0,-0.5 0,-18.5 144.398,-18.5 144.398,-0.5 0,-0.5"/>
<text text-anchor="middle" x="72.1992" y="-6.5" font-family="Helvetica,sans-Serif" font-size="10.00">SSC_sendMessageToServer</text>
</g>
<!-- Node2 -->
<g id="node2" class="node"><title>Node2</title>
<g id="a_node2"><a xlink:href="tcp_server_socket_comm_8h.html#ab46f3e041cae487562197067e220af3b" target="_top" xlink:title="Thread to send the messages stored in the outbox to the server. ">
<polygon fill="white" stroke="black" points="180.398,-0.5 180.398,-18.5 327.575,-18.5 327.575,-0.5 180.398,-0.5"/>
<text text-anchor="middle" x="253.987" y="-6.5" font-family="Helvetica,sans-Serif" font-size="10.00">SSC_msgSenderThreadFunc</text>
</a>
</g>
</g>
<!-- Node1&#45;&gt;Node2 -->
<g id="edge1" class="edge"><title>Node1&#45;&gt;Node2</title>
<path fill="none" stroke="midnightblue" d="M154.527,-9.5C163.114,-9.5 171.806,-9.5 180.285,-9.5"/>
<polygon fill="midnightblue" stroke="midnightblue" points="154.514,-6.0001 144.514,-9.5 154.514,-13.0001 154.514,-6.0001"/>
</g>
<!-- Node3 -->
<g id="node3" class="node"><title>Node3</title>
<g id="a_node3"><a xlink:href="tcp_server_socket_comm_8h.html#aefcfff31ea3a9b0d92a83ab83c9874f9" target="_top" xlink:title="Start the threads for listening and sending messages to the server. ">
<polygon fill="white" stroke="black" points="363.575,-0.5 363.575,-18.5 508.525,-18.5 508.525,-0.5 363.575,-0.5"/>
<text text-anchor="middle" x="436.05" y="-6.5" font-family="Helvetica,sans-Serif" font-size="10.00">SSC_initServerConnThreads</text>
</a>
</g>
</g>
<!-- Node2&#45;&gt;Node3 -->
<g id="edge2" class="edge"><title>Node2&#45;&gt;Node3</title>
<path fill="none" stroke="midnightblue" d="M337.75,-9.5C346.358,-9.5 355.054,-9.5 363.522,-9.5"/>
<polygon fill="midnightblue" stroke="midnightblue" points="337.707,-6.0001 327.706,-9.5 337.706,-13.0001 337.707,-6.0001"/>
</g>
<!-- Node4 -->
<g id="node4" class="node"><title>Node4</title>
<g id="a_node4"><a xlink:href="tcp_server_socket_comm_8h.html#a64aaa41ac5e2fbe7f8ba88c053b49ff9" target="_top" xlink:title="Initialize the connection to the server. ">
<polygon fill="white" stroke="black" points="544.525,-0.5 544.525,-18.5 679.476,-18.5 679.476,-0.5 544.525,-0.5"/>
<text text-anchor="middle" x="612" y="-6.5" font-family="Helvetica,sans-Serif" font-size="10.00">SSC_initServerConnection</text>
</a>
</g>
</g>
<!-- Node3&#45;&gt;Node4 -->
<g id="edge3" class="edge"><title>Node3&#45;&gt;Node4</title>
<path fill="none" stroke="midnightblue" d="M518.671,-9.5C527.333,-9.5 536.066,-9.5 544.525,-9.5"/>
<polygon fill="midnightblue" stroke="midnightblue" points="518.556,-6.0001 508.556,-9.5 518.555,-13.0001 518.556,-6.0001"/>
</g>
<!-- Node5 -->
<g id="node5" class="node"><title>Node5</title>
<g id="a_node5"><a xlink:href="main_8c.html#aea1c0564829983a4a1da026f1640f762" target="_top" xlink:title="Thread for controlling the server client initialization and shutdown. ">
<polygon fill="white" stroke="black" points="715.476,-0.5 715.476,-18.5 847.086,-18.5 847.086,-0.5 715.476,-0.5"/>
<text text-anchor="middle" x="781.281" y="-6.5" font-family="Helvetica,sans-Serif" font-size="10.00">serverConnControlThread</text>
</a>
</g>
</g>
<!-- Node4&#45;&gt;Node5 -->
<g id="edge4" class="edge"><title>Node4&#45;&gt;Node5</title>
<path fill="none" stroke="midnightblue" d="M689.601,-9.5C698.183,-9.5 706.864,-9.5 715.279,-9.5"/>
<polygon fill="midnightblue" stroke="midnightblue" points="689.595,-6.0001 679.595,-9.5 689.595,-13.0001 689.595,-6.0001"/>
</g>
<!-- Node6 -->
<g id="node6" class="node"><title>Node6</title>
<g id="a_node6"><a xlink:href="main_8c.html#ac0f2228420376f4db7e1274f2b41667c" target="_top" xlink:title="main">
<polygon fill="white" stroke="black" points="883.086,-0.5 883.086,-18.5 920.761,-18.5 920.761,-0.5 883.086,-0.5"/>
<text text-anchor="middle" x="901.923" y="-6.5" font-family="Helvetica,sans-Serif" font-size="10.00">main</text>
</a>
</g>
</g>
<!-- Node5&#45;&gt;Node6 -->
<g id="edge5" class="edge"><title>Node5&#45;&gt;Node6</title>
<path fill="none" stroke="midnightblue" d="M857.246,-9.5C866.771,-9.5 875.716,-9.5 883.001,-9.5"/>
<polygon fill="midnightblue" stroke="midnightblue" points="857.156,-6.0001 847.156,-9.5 857.156,-13.0001 857.156,-6.0001"/>
</g>
</g>
</svg>
