<?xml version="1.0" encoding="UTF-8" standalone="no"?>
<!DOCTYPE svg PUBLIC "-//W3C//DTD SVG 1.1//EN"
 "http://www.w3.org/Graphics/SVG/1.1/DTD/svg11.dtd">
<!-- Generated by graphviz version 2.38.0 (20140413.2041)
 -->
<!-- Title: VSC_outboundHandlerThreadFunc Pages: 1 -->
<svg width="499pt" height="64pt"
 viewBox="0.00 0.00 499.34 64.00" xmlns="http://www.w3.org/2000/svg" xmlns:xlink="http://www.w3.org/1999/xlink">
<g id="graph0" class="graph" transform="scale(1 1) rotate(0) translate(4 60)">
<title>VSC_outboundHandlerThreadFunc</title>
<polygon fill="white" stroke="none" points="-4,4 -4,-60 495.338,-60 495.338,4 -4,4"/>
<!-- Node1 -->
<g id="node1" class="node"><title>Node1</title>
<polygon fill="#bfbfbf" stroke="black" points="0,-18.5 0,-36.5 172.768,-36.5 172.768,-18.5 0,-18.5"/>
<text text-anchor="middle" x="86.3838" y="-24.5" font-family="Helvetica,sans-Serif" font-size="10.00">VSC_outboundHandlerThreadFunc</text>
</g>
<!-- Node2 -->
<g id="node2" class="node"><title>Node2</title>
<g id="a_node2"><a xlink:href="msg_buffers_8c.html#a2bc61492dcc33dc1712d77d383b1e33d" target="_top" xlink:title="Get a message from the buffer. ">
<polygon fill="white" stroke="black" points="237.681,-37.5 237.681,-55.5 328.72,-55.5 328.72,-37.5 237.681,-37.5"/>
<text text-anchor="middle" x="283.201" y="-43.5" font-family="Helvetica,sans-Serif" font-size="10.00">MB_getMessage</text>
</a>
</g>
</g>
<!-- Node1&#45;&gt;Node2 -->
<g id="edge1" class="edge"><title>Node1&#45;&gt;Node2</title>
<path fill="none" stroke="midnightblue" d="M172.833,-35.8337C191.29,-37.6337 210.328,-39.4905 227.244,-41.1402"/>
<polygon fill="midnightblue" stroke="midnightblue" points="227.185,-44.6509 237.477,-42.1382 227.864,-37.684 227.185,-44.6509"/>
</g>
<!-- Node3 -->
<g id="node3" class="node"><title>Node3</title>
<g id="a_node3"><a xlink:href="tcp_vehicle_socket_comm_8c.html#a1c76ab448a30a8498f76e22546c81047" target="_top" xlink:title="Send a message to a vehicle. ">
<polygon fill="white" stroke="black" points="208.768,-0.5 208.768,-18.5 357.634,-18.5 357.634,-0.5 208.768,-0.5"/>
<text text-anchor="middle" x="283.201" y="-6.5" font-family="Helvetica,sans-Serif" font-size="10.00">VSC_SendMessageToVehicle</text>
</a>
</g>
</g>
<!-- Node1&#45;&gt;Node3 -->
<g id="edge2" class="edge"><title>Node1&#45;&gt;Node3</title>
<path fill="none" stroke="midnightblue" d="M172.833,-19.6049C181.431,-18.8106 190.154,-18.0046 198.731,-17.2122"/>
<polygon fill="midnightblue" stroke="midnightblue" points="199.079,-20.695 208.715,-16.2897 198.435,-13.7247 199.079,-20.695"/>
</g>
<!-- Node4 -->
<g id="node4" class="node"><title>Node4</title>
<g id="a_node4"><a xlink:href="message_parser_8c.html#a1e487e587ff3244c0808f4602ec6f1f7" target="_top" xlink:title="Message wiping function. ">
<polygon fill="white" stroke="black" points="393.634,-0.5 393.634,-18.5 491.338,-18.5 491.338,-0.5 393.634,-0.5"/>
<text text-anchor="middle" x="442.486" y="-6.5" font-family="Helvetica,sans-Serif" font-size="10.00">MP_wipeMessage</text>
</a>
</g>
</g>
<!-- Node3&#45;&gt;Node4 -->
<g id="edge3" class="edge"><title>Node3&#45;&gt;Node4</title>
<path fill="none" stroke="midnightblue" d="M357.778,-9.5C366.417,-9.5 375.139,-9.5 383.523,-9.5"/>
<polygon fill="midnightblue" stroke="midnightblue" points="383.554,-13.0001 393.554,-9.5 383.554,-6.0001 383.554,-13.0001"/>
</g>
</g>
</svg>
