<?xml version="1.0" encoding="UTF-8" standalone="no"?>
<!DOCTYPE svg PUBLIC "-//W3C//DTD SVG 1.1//EN"
 "http://www.w3.org/Graphics/SVG/1.1/DTD/svg11.dtd">
<!-- Generated by graphviz version 2.38.0 (20140413.2041)
 -->
<!-- Title: VSC_initVehicleServer Pages: 1 -->
<svg width="819pt" height="118pt"
 viewBox="0.00 0.00 819.00 117.85" xmlns="http://www.w3.org/2000/svg" xmlns:xlink="http://www.w3.org/1999/xlink">
<g id="graph0" class="graph" transform="scale(1 1) rotate(0) translate(4 113.849)">
<title>VSC_initVehicleServer</title>
<polygon fill="white" stroke="none" points="-4,4 -4,-113.849 814.997,-113.849 814.997,4 -4,4"/>
<!-- Node1 -->
<g id="node1" class="node"><title>Node1</title>
<polygon fill="#bfbfbf" stroke="black" points="0,-35.3493 0,-53.3493 116.61,-53.3493 116.61,-35.3493 0,-35.3493"/>
<text text-anchor="middle" x="58.3052" y="-41.3493" font-family="Helvetica,sans-Serif" font-size="10.00">VSC_initVehicleServer</text>
</g>
<!-- Node2 -->
<g id="node2" class="node"><title>Node2</title>
<g id="a_node2"><a xlink:href="tcp_vehicle_socket_comm_8c.html#a3ec3f2c1297ab45cb0ad39f925a4bce5" target="_top" xlink:title="Accept the new connections from vehicles. ">
<polygon fill="white" stroke="black" points="152.61,-35.3493 152.61,-53.3493 279.787,-53.3493 279.787,-35.3493 152.61,-35.3493"/>
<text text-anchor="middle" x="216.199" y="-41.3493" font-family="Helvetica,sans-Serif" font-size="10.00">VSC_acceptConnections</text>
</a>
</g>
</g>
<!-- Node1&#45;&gt;Node2 -->
<g id="edge1" class="edge"><title>Node1&#45;&gt;Node2</title>
<path fill="none" stroke="midnightblue" d="M116.911,-44.3493C125.265,-44.3493 133.954,-44.3493 142.556,-44.3493"/>
<polygon fill="midnightblue" stroke="midnightblue" points="142.589,-47.8494 152.589,-44.3493 142.589,-40.8494 142.589,-47.8494"/>
</g>
<!-- Node3 -->
<g id="node3" class="node"><title>Node3</title>
<g id="a_node3"><a xlink:href="tcp_vehicle_socket_comm_8c.html#a919ad3564e41afca64d17244390cfba7" target="_top" xlink:title="Thread to handle the inbound messages from the vehicles. ">
<polygon fill="white" stroke="black" points="315.787,-35.3493 315.787,-53.3493 482.437,-53.3493 482.437,-35.3493 315.787,-35.3493"/>
<text text-anchor="middle" x="399.112" y="-41.3493" font-family="Helvetica,sans-Serif" font-size="10.00">VSC_inboundHandlerThreadFunc</text>
</a>
</g>
</g>
<!-- Node2&#45;&gt;Node3 -->
<g id="edge2" class="edge"><title>Node2&#45;&gt;Node3</title>
<path fill="none" stroke="midnightblue" d="M279.966,-44.3493C288.254,-44.3493 296.886,-44.3493 305.544,-44.3493"/>
<polygon fill="midnightblue" stroke="midnightblue" points="305.701,-47.8494 315.701,-44.3493 305.701,-40.8494 305.701,-47.8494"/>
</g>
<!-- Node4 -->
<g id="node4" class="node"><title>Node4</title>
<g id="a_node4"><a xlink:href="message_parser_8c.html#a1e095af9fe3f1bd7c5a708d797e52bb9" target="_top" xlink:title="Message decoupler and receiver function. ">
<polygon fill="white" stroke="black" points="542.631,-91.3493 542.631,-109.349 659.227,-109.349 659.227,-91.3493 542.631,-91.3493"/>
<text text-anchor="middle" x="600.929" y="-97.3493" font-family="Helvetica,sans-Serif" font-size="10.00">MP_messageReceiver</text>
</a>
</g>
</g>
<!-- Node3&#45;&gt;Node4 -->
<g id="edge3" class="edge"><title>Node3&#45;&gt;Node4</title>
<path fill="none" stroke="midnightblue" d="M425.757,-53.3507C449.586,-61.5312 486.153,-73.6205 518.437,-82.3493 527.074,-84.6849 536.287,-86.9411 545.295,-89.0204"/>
<polygon fill="midnightblue" stroke="midnightblue" points="544.811,-92.4991 555.336,-91.2875 546.353,-85.671 544.811,-92.4991"/>
</g>
<!-- Node6 -->
<g id="node6" class="node"><title>Node6</title>
<g id="a_node6"><a xlink:href="msg_buffers_8c.html#a94d8920e20c5150892cf23b81eb1dfd6" target="_top" xlink:title="Put a message into the buffer. ">
<polygon fill="white" stroke="black" points="719.689,-16.3493 719.689,-34.3493 810.729,-34.3493 810.729,-16.3493 719.689,-16.3493"/>
<text text-anchor="middle" x="765.209" y="-22.3493" font-family="Helvetica,sans-Serif" font-size="10.00">MB_putMessage</text>
</a>
</g>
</g>
<!-- Node3&#45;&gt;Node6 -->
<g id="edge5" class="edge"><title>Node3&#45;&gt;Node6</title>
<path fill="none" stroke="midnightblue" d="M421.882,-35.3449C445.268,-26.1973 483.755,-12.6453 518.437,-7.34932 590.923,3.71957 610.535,0.672058 683.421,-7.34932 695.919,-8.72476 709.311,-11.2628 721.527,-14.008"/>
<polygon fill="midnightblue" stroke="midnightblue" points="720.93,-17.4631 731.466,-16.3418 722.53,-10.6484 720.93,-17.4631"/>
</g>
<!-- Node7 -->
<g id="node7" class="node"><title>Node7</title>
<g id="a_node7"><a xlink:href="station_actions_8c.html#aeca7876f4e4aa4da84f9d5598995916c" target="_top" xlink:title="Search a vehicle by it&#39;s inbox handling thread. ">
<polygon fill="white" stroke="black" points="518.437,-17.3493 518.437,-35.3493 683.421,-35.3493 683.421,-17.3493 518.437,-17.3493"/>
<text text-anchor="middle" x="600.929" y="-23.3493" font-family="Helvetica,sans-Serif" font-size="10.00">SA_searchVehicleByInboxThread</text>
</a>
</g>
</g>
<!-- Node3&#45;&gt;Node7 -->
<g id="edge6" class="edge"><title>Node3&#45;&gt;Node7</title>
<path fill="none" stroke="midnightblue" d="M482.539,-36.9241C491.038,-36.1585 499.712,-35.3771 508.303,-34.6032"/>
<polygon fill="midnightblue" stroke="midnightblue" points="508.69,-38.0826 518.336,-33.6994 508.062,-31.1108 508.69,-38.0826"/>
</g>
<!-- Node8 -->
<g id="node8" class="node"><title>Node8</title>
<g id="a_node8"><a xlink:href="station_actions_8c.html#a62de0824fbc9e952d2f17577d16d38d1" target="_top" xlink:title="Send the vehicle disconnected message to the server. ">
<polygon fill="white" stroke="black" points="532.895,-54.3493 532.895,-72.3493 668.963,-72.3493 668.963,-54.3493 532.895,-54.3493"/>
<text text-anchor="middle" x="600.929" y="-60.3493" font-family="Helvetica,sans-Serif" font-size="10.00">SA_sendDisconnectedMsg</text>
</a>
</g>
</g>
<!-- Node3&#45;&gt;Node8 -->
<g id="edge7" class="edge"><title>Node3&#45;&gt;Node8</title>
<path fill="none" stroke="midnightblue" d="M482.539,-52.187C495.687,-53.4373 509.252,-54.7271 522.285,-55.9664"/>
<polygon fill="midnightblue" stroke="midnightblue" points="522.318,-59.4852 532.604,-56.9476 522.98,-52.5166 522.318,-59.4852"/>
</g>
<!-- Node5 -->
<g id="node5" class="node"><title>Node5</title>
<g id="a_node5"><a xlink:href="message_parser_8c.html#a0026bd717404e4c2f9df87d137721377" target="_top" xlink:title="Message structure initializer. ">
<polygon fill="white" stroke="black" points="719.421,-72.3493 719.421,-90.3493 810.997,-90.3493 810.997,-72.3493 719.421,-72.3493"/>
<text text-anchor="middle" x="765.209" y="-78.3493" font-family="Helvetica,sans-Serif" font-size="10.00">MP_initMsgStruc</text>
</a>
</g>
</g>
<!-- Node4&#45;&gt;Node5 -->
<g id="edge4" class="edge"><title>Node4&#45;&gt;Node5</title>
<path fill="none" stroke="midnightblue" d="M659.6,-93.5971C675.667,-91.7159 693.078,-89.6775 709,-87.8133"/>
<polygon fill="midnightblue" stroke="midnightblue" points="709.694,-91.2561 719.219,-86.6168 708.88,-84.3035 709.694,-91.2561"/>
</g>
<!-- Node8&#45;&gt;Node5 -->
<g id="edge8" class="edge"><title>Node8&#45;&gt;Node5</title>
<path fill="none" stroke="midnightblue" d="M669.34,-70.8266C682.533,-72.2899 696.225,-73.8086 708.965,-75.2217"/>
<polygon fill="midnightblue" stroke="midnightblue" points="708.626,-78.7055 718.951,-76.3293 709.398,-71.7482 708.626,-78.7055"/>
</g>
<!-- Node8&#45;&gt;Node6 -->
<g id="edge9" class="edge"><title>Node8&#45;&gt;Node6</title>
<path fill="none" stroke="midnightblue" d="M643.851,-54.3023C656.575,-51.4991 670.583,-48.3557 683.421,-45.3493 694.846,-42.6738 707.153,-39.683 718.631,-36.8464"/>
<polygon fill="midnightblue" stroke="midnightblue" points="719.601,-40.2119 728.463,-34.405 717.914,-33.4183 719.601,-40.2119"/>
</g>
</g>
</svg>
