<?xml version="1.0" encoding="UTF-8" standalone="no"?>
<!DOCTYPE svg PUBLIC "-//W3C//DTD SVG 1.1//EN"
 "http://www.w3.org/Graphics/SVG/1.1/DTD/svg11.dtd">
<!-- Generated by graphviz version 2.38.0 (20140413.2041)
 -->
<!-- Title: VSC_inboundHandlerThreadFunc Pages: 1 -->
<svg width="503pt" height="140pt"
 viewBox="0.00 0.00 502.67 140.00" xmlns="http://www.w3.org/2000/svg" xmlns:xlink="http://www.w3.org/1999/xlink">
<g id="graph0" class="graph" transform="scale(1 1) rotate(0) translate(4 136)">
<title>VSC_inboundHandlerThreadFunc</title>
<polygon fill="white" stroke="none" points="-4,4 -4,-136 498.673,-136 498.673,4 -4,4"/>
<!-- Node1 -->
<g id="node1" class="node"><title>Node1</title>
<polygon fill="#bfbfbf" stroke="black" points="0,-56.5 0,-74.5 166.649,-74.5 166.649,-56.5 0,-56.5"/>
<text text-anchor="middle" x="83.3247" y="-62.5" font-family="Helvetica,sans-Serif" font-size="10.00">VSC_inboundHandlerThreadFunc</text>
</g>
<!-- Node2 -->
<g id="node2" class="node"><title>Node2</title>
<g id="a_node2"><a xlink:href="message_parser_8c.html#a1e095af9fe3f1bd7c5a708d797e52bb9" target="_top" xlink:title="Message decoupler and receiver function. ">
<polygon fill="white" stroke="red" points="226.844,-113.5 226.844,-131.5 343.439,-131.5 343.439,-113.5 226.844,-113.5"/>
<text text-anchor="middle" x="285.142" y="-119.5" font-family="Helvetica,sans-Serif" font-size="10.00">MP_messageReceiver</text>
</a>
</g>
</g>
<!-- Node1&#45;&gt;Node2 -->
<g id="edge1" class="edge"><title>Node1&#45;&gt;Node2</title>
<path fill="none" stroke="midnightblue" d="M115.986,-74.5318C150.231,-84.3006 204.968,-99.9147 242.635,-110.66"/>
<polygon fill="midnightblue" stroke="midnightblue" points="241.721,-114.039 252.298,-113.416 243.642,-107.307 241.721,-114.039"/>
</g>
<!-- Node3 -->
<g id="node3" class="node"><title>Node3</title>
<g id="a_node3"><a xlink:href="msg_buffers_8c.html#a94d8920e20c5150892cf23b81eb1dfd6" target="_top" xlink:title="Put a message into the buffer. ">
<polygon fill="white" stroke="black" points="403.634,-37.5 403.634,-55.5 494.673,-55.5 494.673,-37.5 403.634,-37.5"/>
<text text-anchor="middle" x="449.153" y="-43.5" font-family="Helvetica,sans-Serif" font-size="10.00">MB_putMessage</text>
</a>
</g>
</g>
<!-- Node1&#45;&gt;Node3 -->
<g id="edge2" class="edge"><title>Node1&#45;&gt;Node3</title>
<path fill="none" stroke="midnightblue" d="M166.748,-70.5136C223.433,-72.736 300.335,-73.3326 367.634,-65.5 380.805,-63.9671 394.948,-61.0688 407.649,-57.9893"/>
<polygon fill="midnightblue" stroke="midnightblue" points="408.643,-61.3482 417.48,-55.5034 406.927,-54.5618 408.643,-61.3482"/>
</g>
<!-- Node4 -->
<g id="node4" class="node"><title>Node4</title>
<g id="a_node4"><a xlink:href="station_actions_8c.html#aeca7876f4e4aa4da84f9d5598995916c" target="_top" xlink:title="Search a vehicle by it&#39;s inbox handling thread. ">
<polygon fill="white" stroke="black" points="202.649,-37.5 202.649,-55.5 367.634,-55.5 367.634,-37.5 202.649,-37.5"/>
<text text-anchor="middle" x="285.142" y="-43.5" font-family="Helvetica,sans-Serif" font-size="10.00">SA_searchVehicleByInboxThread</text>
</a>
</g>
</g>
<!-- Node1&#45;&gt;Node4 -->
<g id="edge3" class="edge"><title>Node1&#45;&gt;Node4</title>
<path fill="none" stroke="midnightblue" d="M166.752,-57.6623C175.251,-56.8541 183.925,-56.0293 192.516,-55.2124"/>
<polygon fill="midnightblue" stroke="midnightblue" points="192.925,-58.6894 202.549,-54.2584 192.262,-51.7208 192.925,-58.6894"/>
</g>
<!-- Node5 -->
<g id="node5" class="node"><title>Node5</title>
<g id="a_node5"><a xlink:href="station_actions_8c.html#a62de0824fbc9e952d2f17577d16d38d1" target="_top" xlink:title="Send the vehicle disconnected message to the server. ">
<polygon fill="white" stroke="red" points="217.107,-0.5 217.107,-18.5 353.176,-18.5 353.176,-0.5 217.107,-0.5"/>
<text text-anchor="middle" x="285.142" y="-6.5" font-family="Helvetica,sans-Serif" font-size="10.00">SA_sendDisconnectedMsg</text>
</a>
</g>
</g>
<!-- Node1&#45;&gt;Node5 -->
<g id="edge4" class="edge"><title>Node1&#45;&gt;Node5</title>
<path fill="none" stroke="midnightblue" d="M111.415,-56.4012C135.289,-48.5331 171.085,-37.1021 202.649,-28.5 212.321,-25.8644 222.699,-23.2692 232.7,-20.8842"/>
<polygon fill="midnightblue" stroke="midnightblue" points="233.6,-24.2682 242.535,-18.5755 232,-17.4534 233.6,-24.2682"/>
</g>
<!-- Node5&#45;&gt;Node3 -->
<g id="edge5" class="edge"><title>Node5&#45;&gt;Node3</title>
<path fill="none" stroke="midnightblue" d="M325.774,-18.5512C347.824,-23.5869 375.464,-29.8992 398.894,-35.2503"/>
<polygon fill="midnightblue" stroke="midnightblue" points="398.121,-38.6638 408.65,-37.4782 399.68,-31.8395 398.121,-38.6638"/>
</g>
</g>
</svg>
