<?xml version="1.0" encoding="UTF-8" standalone="no"?>
<!DOCTYPE svg PUBLIC "-//W3C//DTD SVG 1.1//EN"
 "http://www.w3.org/Graphics/SVG/1.1/DTD/svg11.dtd">
<!-- Generated by graphviz version 2.38.0 (20140413.2041)
 -->
<!-- Title: SSC_initBuffers Pages: 1 -->
<svg width="507pt" height="27pt"
 viewBox="0.00 0.00 506.65 27.00" xmlns="http://www.w3.org/2000/svg" xmlns:xlink="http://www.w3.org/1999/xlink">
<g id="graph0" class="graph" transform="scale(1 1) rotate(0) translate(4 23)">
<title>SSC_initBuffers</title>
<polygon fill="white" stroke="none" points="-4,4 -4,-23 502.646,-23 502.646,4 -4,4"/>
<!-- Node1 -->
<g id="node1" class="node"><title>Node1</title>
<polygon fill="#bfbfbf" stroke="black" points="0,-0.5 0,-18.5 86.4102,-18.5 86.4102,-0.5 0,-0.5"/>
<text text-anchor="middle" x="43.2051" y="-6.5" font-family="Helvetica,sans-Serif" font-size="10.00">SSC_initBuffers</text>
</g>
<!-- Node2 -->
<g id="node2" class="node"><title>Node2</title>
<g id="a_node2"><a xlink:href="tcp_server_socket_comm_8h.html#a64aaa41ac5e2fbe7f8ba88c053b49ff9" target="_top" xlink:title="Initialize the connection to the server. ">
<polygon fill="white" stroke="black" points="122.41,-0.5 122.41,-18.5 257.36,-18.5 257.36,-0.5 122.41,-0.5"/>
<text text-anchor="middle" x="189.885" y="-6.5" font-family="Helvetica,sans-Serif" font-size="10.00">SSC_initServerConnection</text>
</a>
</g>
</g>
<!-- Node1&#45;&gt;Node2 -->
<g id="edge1" class="edge"><title>Node1&#45;&gt;Node2</title>
<path fill="none" stroke="midnightblue" d="M96.4689,-9.5C104.877,-9.5 113.678,-9.5 122.367,-9.5"/>
<polygon fill="midnightblue" stroke="midnightblue" points="96.4415,-6.0001 86.4415,-9.5 96.4415,-13.0001 96.4415,-6.0001"/>
</g>
<!-- Node3 -->
<g id="node3" class="node"><title>Node3</title>
<g id="a_node3"><a xlink:href="main_8c.html#aea1c0564829983a4a1da026f1640f762" target="_top" xlink:title="Thread for controlling the server client initialization and shutdown. ">
<polygon fill="white" stroke="black" points="293.36,-0.5 293.36,-18.5 424.971,-18.5 424.971,-0.5 293.36,-0.5"/>
<text text-anchor="middle" x="359.166" y="-6.5" font-family="Helvetica,sans-Serif" font-size="10.00">serverConnControlThread</text>
</a>
</g>
</g>
<!-- Node2&#45;&gt;Node3 -->
<g id="edge2" class="edge"><title>Node2&#45;&gt;Node3</title>
<path fill="none" stroke="midnightblue" d="M267.486,-9.5C276.067,-9.5 284.748,-9.5 293.164,-9.5"/>
<polygon fill="midnightblue" stroke="midnightblue" points="267.48,-6.0001 257.48,-9.5 267.479,-13.0001 267.48,-6.0001"/>
</g>
<!-- Node4 -->
<g id="node4" class="node"><title>Node4</title>
<g id="a_node4"><a xlink:href="main_8c.html#ac0f2228420376f4db7e1274f2b41667c" target="_top" xlink:title="main">
<polygon fill="white" stroke="black" points="460.971,-0.5 460.971,-18.5 498.646,-18.5 498.646,-0.5 460.971,-0.5"/>
<text text-anchor="middle" x="479.808" y="-6.5" font-family="Helvetica,sans-Serif" font-size="10.00">main</text>
</a>
</g>
</g>
<!-- Node3&#45;&gt;Node4 -->
<g id="edge3" class="edge"><title>Node3&#45;&gt;Node4</title>
<path fill="none" stroke="midnightblue" d="M435.131,-9.5C444.656,-9.5 453.601,-9.5 460.885,-9.5"/>
<polygon fill="midnightblue" stroke="midnightblue" points="435.041,-6.0001 425.041,-9.5 435.041,-13.0001 435.041,-6.0001"/>
</g>
</g>
</svg>
