<?xml version="1.0" encoding="UTF-8" standalone="no"?>
<!DOCTYPE svg PUBLIC "-//W3C//DTD SVG 1.1//EN"
 "http://www.w3.org/Graphics/SVG/1.1/DTD/svg11.dtd">
<!-- Generated by graphviz version 2.38.0 (20140413.2041)
 -->
<!-- Title: SSC_initServerConnection Pages: 1 -->
<svg width="973pt" height="213pt"
 viewBox="0.00 0.00 973.20 213.00" xmlns="http://www.w3.org/2000/svg" xmlns:xlink="http://www.w3.org/1999/xlink">
<g id="graph0" class="graph" transform="scale(1 1) rotate(0) translate(4 209)">
<title>SSC_initServerConnection</title>
<polygon fill="white" stroke="none" points="-4,4 -4,-209 969.199,-209 969.199,4 -4,4"/>
<!-- Node1 -->
<g id="node1" class="node"><title>Node1</title>
<polygon fill="#bfbfbf" stroke="black" points="0,-148.5 0,-166.5 134.95,-166.5 134.95,-148.5 0,-148.5"/>
<text text-anchor="middle" x="67.4751" y="-154.5" font-family="Helvetica,sans-Serif" font-size="10.00">SSC_initServerConnection</text>
</g>
<!-- Node2 -->
<g id="node2" class="node"><title>Node2</title>
<g id="a_node2"><a xlink:href="tcp_server_socket_comm_8c.html#ae12d709dd8d0c5c39e8949dfa433dff4" target="_top" xlink:title="Initialize the buffers involved in the server communication. ">
<polygon fill="white" stroke="black" points="200.22,-186.5 200.22,-204.5 286.63,-204.5 286.63,-186.5 200.22,-186.5"/>
<text text-anchor="middle" x="243.425" y="-192.5" font-family="Helvetica,sans-Serif" font-size="10.00">SSC_initBuffers</text>
</a>
</g>
</g>
<!-- Node1&#45;&gt;Node2 -->
<g id="edge1" class="edge"><title>Node1&#45;&gt;Node2</title>
<path fill="none" stroke="midnightblue" d="M109.699,-166.505C134.09,-171.834 165.191,-178.628 191.156,-184.3"/>
<polygon fill="midnightblue" stroke="midnightblue" points="190.68,-187.778 201.196,-186.493 192.174,-180.94 190.68,-187.778"/>
</g>
<!-- Node4 -->
<g id="node4" class="node"><title>Node4</title>
<g id="a_node4"><a xlink:href="tcp_server_socket_comm_8c.html#a71368ed7199c8c4f010605207359f972" target="_top" xlink:title="Create the connection to the server. ">
<polygon fill="white" stroke="black" points="538.407,-148.5 538.407,-166.5 685.027,-166.5 685.027,-148.5 538.407,-148.5"/>
<text text-anchor="middle" x="611.717" y="-154.5" font-family="Helvetica,sans-Serif" font-size="10.00">SSC_makeServerConnection</text>
</a>
</g>
</g>
<!-- Node1&#45;&gt;Node4 -->
<g id="edge3" class="edge"><title>Node1&#45;&gt;Node4</title>
<path fill="none" stroke="midnightblue" d="M134.965,-157.5C234.003,-157.5 420.136,-157.5 527.886,-157.5"/>
<polygon fill="midnightblue" stroke="midnightblue" points="528.063,-161 538.063,-157.5 528.063,-154 528.063,-161"/>
</g>
<!-- Node5 -->
<g id="node5" class="node"><title>Node5</title>
<g id="a_node5"><a xlink:href="tcp_server_socket_comm_8c.html#aefcfff31ea3a9b0d92a83ab83c9874f9" target="_top" xlink:title="Start the threads for listening and sending messages to the server. ">
<polygon fill="white" stroke="black" points="170.95,-110.5 170.95,-128.5 315.9,-128.5 315.9,-110.5 170.95,-110.5"/>
<text text-anchor="middle" x="243.425" y="-116.5" font-family="Helvetica,sans-Serif" font-size="10.00">SSC_initServerConnThreads</text>
</a>
</g>
</g>
<!-- Node1&#45;&gt;Node5 -->
<g id="edge4" class="edge"><title>Node1&#45;&gt;Node5</title>
<path fill="none" stroke="midnightblue" d="M109.699,-148.495C134.09,-143.166 165.191,-136.372 191.156,-130.7"/>
<polygon fill="midnightblue" stroke="midnightblue" points="192.174,-134.06 201.196,-128.507 190.68,-127.222 192.174,-134.06"/>
</g>
<!-- Node3 -->
<g id="node3" class="node"><title>Node3</title>
<g id="a_node3"><a xlink:href="msg_buffers_8c.html#a15ca8d0fea842defceb1611616a64560" target="_top" xlink:title="Create a new buffer or mailbox and initialize it for n values. ">
<polygon fill="white" stroke="black" points="389.229,-186.5 389.229,-204.5 465.078,-204.5 465.078,-186.5 389.229,-186.5"/>
<text text-anchor="middle" x="427.154" y="-192.5" font-family="Helvetica,sans-Serif" font-size="10.00">MB_initBuffer</text>
</a>
</g>
</g>
<!-- Node2&#45;&gt;Node3 -->
<g id="edge2" class="edge"><title>Node2&#45;&gt;Node3</title>
<path fill="none" stroke="midnightblue" d="M287.033,-195.5C314.596,-195.5 350.505,-195.5 378.936,-195.5"/>
<polygon fill="midnightblue" stroke="midnightblue" points="379.044,-199 389.044,-195.5 379.044,-192 379.044,-199"/>
</g>
<!-- Node6 -->
<g id="node6" class="node"><title>Node6</title>
<g id="a_node6"><a xlink:href="tcp_server_socket_comm_8c.html#ae54218394dd621113d0f73ec6ef8f873" target="_top" xlink:title="Thread to listen to messages coming from the server. ">
<polygon fill="white" stroke="black" points="351.9,-110.5 351.9,-128.5 502.407,-128.5 502.407,-110.5 351.9,-110.5"/>
<text text-anchor="middle" x="427.154" y="-116.5" font-family="Helvetica,sans-Serif" font-size="10.00">SSC_msgListenerThreadFunc</text>
</a>
</g>
</g>
<!-- Node5&#45;&gt;Node6 -->
<g id="edge5" class="edge"><title>Node5&#45;&gt;Node6</title>
<path fill="none" stroke="midnightblue" d="M315.988,-119.5C324.412,-119.5 333.068,-119.5 341.649,-119.5"/>
<polygon fill="midnightblue" stroke="midnightblue" points="341.667,-123 351.667,-119.5 341.667,-116 341.667,-123"/>
</g>
<!-- Node11 -->
<g id="node11" class="node"><title>Node11</title>
<g id="a_node11"><a xlink:href="tcp_server_socket_comm_8c.html#ab46f3e041cae487562197067e220af3b" target="_top" xlink:title="Thread to send the messages stored in the outbox to the server. ">
<polygon fill="white" stroke="black" points="353.565,-55.5 353.565,-73.5 500.742,-73.5 500.742,-55.5 353.565,-55.5"/>
<text text-anchor="middle" x="427.154" y="-61.5" font-family="Helvetica,sans-Serif" font-size="10.00">SSC_msgSenderThreadFunc</text>
</a>
</g>
</g>
<!-- Node5&#45;&gt;Node11 -->
<g id="edge11" class="edge"><title>Node5&#45;&gt;Node11</title>
<path fill="none" stroke="midnightblue" d="M274.434,-110.418C305.04,-101.155 352.694,-86.7325 386.418,-76.526"/>
<polygon fill="midnightblue" stroke="midnightblue" points="387.845,-79.751 396.403,-73.5042 385.817,-73.0511 387.845,-79.751"/>
</g>
<!-- Node6&#45;&gt;Node4 -->
<g id="edge10" class="edge"><title>Node6&#45;&gt;Node4</title>
<path fill="none" stroke="midnightblue" d="M471.419,-128.505C497.244,-133.881 530.237,-140.748 557.631,-146.45"/>
<polygon fill="midnightblue" stroke="midnightblue" points="556.943,-149.882 567.447,-148.493 558.37,-143.029 556.943,-149.882"/>
</g>
<!-- Node7 -->
<g id="node7" class="node"><title>Node7</title>
<g id="a_node7"><a xlink:href="tcp_server_socket_comm_8c.html#abe2574d5f7dd2457b0d09df7f29643a9" target="_top" xlink:title="Listen to the messages coming to the server. ">
<polygon fill="white" stroke="black" points="549.53,-111.5 549.53,-129.5 673.904,-129.5 673.904,-111.5 549.53,-111.5"/>
<text text-anchor="middle" x="611.717" y="-117.5" font-family="Helvetica,sans-Serif" font-size="10.00">SSC_listenToServerMsg</text>
</a>
</g>
</g>
<!-- Node6&#45;&gt;Node7 -->
<g id="edge6" class="edge"><title>Node6&#45;&gt;Node7</title>
<path fill="none" stroke="midnightblue" d="M502.409,-119.907C514.595,-119.973 527.2,-120.043 539.314,-120.109"/>
<polygon fill="midnightblue" stroke="midnightblue" points="539.336,-123.609 549.355,-120.164 539.374,-116.609 539.336,-123.609"/>
</g>
<!-- Node8 -->
<g id="node8" class="node"><title>Node8</title>
<g id="a_node8"><a xlink:href="message_parser_8c.html#a1e095af9fe3f1bd7c5a708d797e52bb9" target="_top" xlink:title="Message decoupler and receiver function. ">
<polygon fill="white" stroke="black" points="721.027,-130.5 721.027,-148.5 837.623,-148.5 837.623,-130.5 721.027,-130.5"/>
<text text-anchor="middle" x="779.325" y="-136.5" font-family="Helvetica,sans-Serif" font-size="10.00">MP_messageReceiver</text>
</a>
</g>
</g>
<!-- Node7&#45;&gt;Node8 -->
<g id="edge7" class="edge"><title>Node7&#45;&gt;Node8</title>
<path fill="none" stroke="midnightblue" d="M673.913,-127.521C685.934,-128.9 698.609,-130.354 710.823,-131.756"/>
<polygon fill="midnightblue" stroke="midnightblue" points="710.617,-135.255 720.951,-132.918 711.415,-128.3 710.617,-135.255"/>
</g>
<!-- Node10 -->
<g id="node10" class="node"><title>Node10</title>
<g id="a_node10"><a xlink:href="msg_buffers_8c.html#a94d8920e20c5150892cf23b81eb1dfd6" target="_top" xlink:title="Put a message into the buffer. ">
<polygon fill="white" stroke="black" points="733.806,-93.5 733.806,-111.5 824.845,-111.5 824.845,-93.5 733.806,-93.5"/>
<text text-anchor="middle" x="779.325" y="-99.5" font-family="Helvetica,sans-Serif" font-size="10.00">MB_putMessage</text>
</a>
</g>
</g>
<!-- Node7&#45;&gt;Node10 -->
<g id="edge9" class="edge"><title>Node7&#45;&gt;Node10</title>
<path fill="none" stroke="midnightblue" d="M673.913,-113.849C690.163,-112.082 707.608,-110.186 723.495,-108.46"/>
<polygon fill="midnightblue" stroke="midnightblue" points="724.119,-111.912 733.682,-107.352 723.363,-104.953 724.119,-111.912"/>
</g>
<!-- Node9 -->
<g id="node9" class="node"><title>Node9</title>
<g id="a_node9"><a xlink:href="message_parser_8c.html#a0026bd717404e4c2f9df87d137721377" target="_top" xlink:title="Message structure initializer. ">
<polygon fill="white" stroke="black" points="873.623,-130.5 873.623,-148.5 965.199,-148.5 965.199,-130.5 873.623,-130.5"/>
<text text-anchor="middle" x="919.411" y="-136.5" font-family="Helvetica,sans-Serif" font-size="10.00">MP_initMsgStruc</text>
</a>
</g>
</g>
<!-- Node8&#45;&gt;Node9 -->
<g id="edge8" class="edge"><title>Node8&#45;&gt;Node9</title>
<path fill="none" stroke="midnightblue" d="M837.686,-139.5C846.115,-139.5 854.783,-139.5 863.168,-139.5"/>
<polygon fill="midnightblue" stroke="midnightblue" points="863.221,-143 873.221,-139.5 863.22,-136 863.221,-143"/>
</g>
<!-- Node12 -->
<g id="node12" class="node"><title>Node12</title>
<g id="a_node12"><a xlink:href="msg_buffers_8c.html#a2bc61492dcc33dc1712d77d383b1e33d" target="_top" xlink:title="Get a message from the buffer. ">
<polygon fill="white" stroke="black" points="566.198,-74.5 566.198,-92.5 657.237,-92.5 657.237,-74.5 566.198,-74.5"/>
<text text-anchor="middle" x="611.717" y="-80.5" font-family="Helvetica,sans-Serif" font-size="10.00">MB_getMessage</text>
</a>
</g>
</g>
<!-- Node11&#45;&gt;Node12 -->
<g id="edge12" class="edge"><title>Node11&#45;&gt;Node12</title>
<path fill="none" stroke="midnightblue" d="M500.832,-72.0639C519.285,-73.9844 538.798,-76.0151 556.177,-77.8238"/>
<polygon fill="midnightblue" stroke="midnightblue" points="555.831,-81.3066 566.139,-78.8606 556.555,-74.3442 555.831,-81.3066"/>
</g>
<!-- Node13 -->
<g id="node13" class="node"><title>Node13</title>
<g id="a_node13"><a xlink:href="tcp_server_socket_comm_8c.html#a5cfbc3e4116f51d09d4416ce81a420a9" target="_top" xlink:title="Send a message to the server. ">
<polygon fill="white" stroke="black" points="539.518,-37.5 539.518,-55.5 683.917,-55.5 683.917,-37.5 539.518,-37.5"/>
<text text-anchor="middle" x="611.717" y="-43.5" font-family="Helvetica,sans-Serif" font-size="10.00">SSC_sendMessageToServer</text>
</a>
</g>
</g>
<!-- Node11&#45;&gt;Node13 -->
<g id="edge13" class="edge"><title>Node11&#45;&gt;Node13</title>
<path fill="none" stroke="midnightblue" d="M500.832,-57.3342C510.179,-56.4126 519.798,-55.4643 529.274,-54.53"/>
<polygon fill="midnightblue" stroke="midnightblue" points="529.872,-57.9881 539.48,-53.5237 529.185,-51.0219 529.872,-57.9881"/>
</g>
<!-- Node14 -->
<g id="node14" class="node"><title>Node14</title>
<g id="a_node14"><a xlink:href="message_parser_8c.html#a1e487e587ff3244c0808f4602ec6f1f7" target="_top" xlink:title="Message wiping function. ">
<polygon fill="white" stroke="black" points="562.865,-0.5 562.865,-18.5 660.569,-18.5 660.569,-0.5 562.865,-0.5"/>
<text text-anchor="middle" x="611.717" y="-6.5" font-family="Helvetica,sans-Serif" font-size="10.00">MP_wipeMessage</text>
</a>
</g>
</g>
<!-- Node11&#45;&gt;Node14 -->
<g id="edge14" class="edge"><title>Node11&#45;&gt;Node14</title>
<path fill="none" stroke="midnightblue" d="M453.371,-55.3979C475.602,-47.5277 508.946,-36.0954 538.407,-27.5 546.004,-25.2835 554.099,-23.0986 562.021,-21.0566"/>
<polygon fill="midnightblue" stroke="midnightblue" points="563.075,-24.4003 571.911,-18.5549 561.358,-17.614 563.075,-24.4003"/>
</g>
</g>
</svg>
