<?xml version="1.0" encoding="UTF-8" standalone="no"?>
<!DOCTYPE svg PUBLIC "-//W3C//DTD SVG 1.1//EN"
 "http://www.w3.org/Graphics/SVG/1.1/DTD/svg11.dtd">
<!-- Generated by graphviz version 2.38.0 (20140413.2041)
 -->
<!-- Title: SSC_msgListenerThreadFunc Pages: 1 -->
<svg width="621pt" height="82pt"
 viewBox="0.00 0.00 621.30 82.00" xmlns="http://www.w3.org/2000/svg" xmlns:xlink="http://www.w3.org/1999/xlink">
<g id="graph0" class="graph" transform="scale(1 1) rotate(0) translate(4 78)">
<title>SSC_msgListenerThreadFunc</title>
<polygon fill="white" stroke="none" points="-4,4 -4,-78 617.299,-78 617.299,4 -4,4"/>
<!-- Node1 -->
<g id="node1" class="node"><title>Node1</title>
<polygon fill="#bfbfbf" stroke="black" points="0,-18.5 0,-36.5 150.507,-36.5 150.507,-18.5 0,-18.5"/>
<text text-anchor="middle" x="75.2534" y="-24.5" font-family="Helvetica,sans-Serif" font-size="10.00">SSC_msgListenerThreadFunc</text>
</g>
<!-- Node2 -->
<g id="node2" class="node"><title>Node2</title>
<g id="a_node2"><a xlink:href="tcp_server_socket_comm_8c.html#abe2574d5f7dd2457b0d09df7f29643a9" target="_top" xlink:title="Listen to the messages coming to the server. ">
<polygon fill="white" stroke="black" points="197.63,-37.5 197.63,-55.5 322.004,-55.5 322.004,-37.5 197.63,-37.5"/>
<text text-anchor="middle" x="259.817" y="-43.5" font-family="Helvetica,sans-Serif" font-size="10.00">SSC_listenToServerMsg</text>
</a>
</g>
</g>
<!-- Node1&#45;&gt;Node2 -->
<g id="edge1" class="edge"><title>Node1&#45;&gt;Node2</title>
<path fill="none" stroke="midnightblue" d="M150.509,-35.228C162.694,-36.4962 175.3,-37.8081 187.414,-39.0689"/>
<polygon fill="midnightblue" stroke="midnightblue" points="187.146,-42.5598 197.454,-40.1138 187.871,-35.5974 187.146,-42.5598"/>
</g>
<!-- Node6 -->
<g id="node6" class="node"><title>Node6</title>
<g id="a_node6"><a xlink:href="tcp_server_socket_comm_8c.html#a71368ed7199c8c4f010605207359f972" target="_top" xlink:title="Create the connection to the server. ">
<polygon fill="white" stroke="black" points="186.507,-0.5 186.507,-18.5 333.127,-18.5 333.127,-0.5 186.507,-0.5"/>
<text text-anchor="middle" x="259.817" y="-6.5" font-family="Helvetica,sans-Serif" font-size="10.00">SSC_makeServerConnection</text>
</a>
</g>
</g>
<!-- Node1&#45;&gt;Node6 -->
<g id="edge5" class="edge"><title>Node1&#45;&gt;Node6</title>
<path fill="none" stroke="midnightblue" d="M150.509,-20.1787C159.023,-19.3392 167.743,-18.4795 176.356,-17.6303"/>
<polygon fill="midnightblue" stroke="midnightblue" points="176.792,-21.1043 186.401,-16.6399 176.106,-14.1381 176.792,-21.1043"/>
</g>
<!-- Node3 -->
<g id="node3" class="node"><title>Node3</title>
<g id="a_node3"><a xlink:href="message_parser_8c.html#a1e095af9fe3f1bd7c5a708d797e52bb9" target="_top" xlink:title="Message decoupler and receiver function. ">
<polygon fill="white" stroke="black" points="369.127,-55.5 369.127,-73.5 485.723,-73.5 485.723,-55.5 369.127,-55.5"/>
<text text-anchor="middle" x="427.425" y="-61.5" font-family="Helvetica,sans-Serif" font-size="10.00">MP_messageReceiver</text>
</a>
</g>
</g>
<!-- Node2&#45;&gt;Node3 -->
<g id="edge2" class="edge"><title>Node2&#45;&gt;Node3</title>
<path fill="none" stroke="midnightblue" d="M322.013,-53.1514C334.034,-54.458 346.709,-55.8356 358.923,-57.1632"/>
<polygon fill="midnightblue" stroke="midnightblue" points="358.731,-60.6628 369.05,-58.264 359.487,-53.7038 358.731,-60.6628"/>
</g>
<!-- Node5 -->
<g id="node5" class="node"><title>Node5</title>
<g id="a_node5"><a xlink:href="msg_buffers_8c.html#a94d8920e20c5150892cf23b81eb1dfd6" target="_top" xlink:title="Put a message into the buffer. ">
<polygon fill="white" stroke="black" points="381.905,-18.5 381.905,-36.5 472.944,-36.5 472.944,-18.5 381.905,-18.5"/>
<text text-anchor="middle" x="427.425" y="-24.5" font-family="Helvetica,sans-Serif" font-size="10.00">MB_putMessage</text>
</a>
</g>
</g>
<!-- Node2&#45;&gt;Node5 -->
<g id="edge4" class="edge"><title>Node2&#45;&gt;Node5</title>
<path fill="none" stroke="midnightblue" d="M322.013,-39.4791C338.263,-37.6147 355.707,-35.6133 371.595,-33.7906"/>
<polygon fill="midnightblue" stroke="midnightblue" points="372.246,-37.2389 381.782,-32.6218 371.448,-30.2845 372.246,-37.2389"/>
</g>
<!-- Node4 -->
<g id="node4" class="node"><title>Node4</title>
<g id="a_node4"><a xlink:href="message_parser_8c.html#a0026bd717404e4c2f9df87d137721377" target="_top" xlink:title="Message structure initializer. ">
<polygon fill="white" stroke="black" points="521.723,-55.5 521.723,-73.5 613.299,-73.5 613.299,-55.5 521.723,-55.5"/>
<text text-anchor="middle" x="567.511" y="-61.5" font-family="Helvetica,sans-Serif" font-size="10.00">MP_initMsgStruc</text>
</a>
</g>
</g>
<!-- Node3&#45;&gt;Node4 -->
<g id="edge3" class="edge"><title>Node3&#45;&gt;Node4</title>
<path fill="none" stroke="midnightblue" d="M485.786,-64.5C494.215,-64.5 502.883,-64.5 511.268,-64.5"/>
<polygon fill="midnightblue" stroke="midnightblue" points="511.32,-68.0001 521.32,-64.5 511.32,-61.0001 511.32,-68.0001"/>
</g>
</g>
</svg>
