<?xml version="1.0" encoding="UTF-8" standalone="no"?>
<!DOCTYPE svg PUBLIC "-//W3C//DTD SVG 1.1//EN"
 "http://www.w3.org/Graphics/SVG/1.1/DTD/svg11.dtd">
<!-- Generated by graphviz version 2.38.0 (20140413.2041)
 -->
<!-- Title: VSC_acceptConnections Pages: 1 -->
<svg width="666pt" height="118pt"
 viewBox="0.00 0.00 666.39 117.85" xmlns="http://www.w3.org/2000/svg" xmlns:xlink="http://www.w3.org/1999/xlink">
<g id="graph0" class="graph" transform="scale(1 1) rotate(0) translate(4 113.849)">
<title>VSC_acceptConnections</title>
<polygon fill="white" stroke="none" points="-4,4 -4,-113.849 662.387,-113.849 662.387,4 -4,4"/>
<!-- Node1 -->
<g id="node1" class="node"><title>Node1</title>
<polygon fill="#bfbfbf" stroke="black" points="0,-35.3493 0,-53.3493 127.177,-53.3493 127.177,-35.3493 0,-35.3493"/>
<text text-anchor="middle" x="63.5884" y="-41.3493" font-family="Helvetica,sans-Serif" font-size="10.00">VSC_acceptConnections</text>
</g>
<!-- Node2 -->
<g id="node2" class="node"><title>Node2</title>
<g id="a_node2"><a xlink:href="tcp_vehicle_socket_comm_8c.html#a919ad3564e41afca64d17244390cfba7" target="_top" xlink:title="Thread to handle the inbound messages from the vehicles. ">
<polygon fill="white" stroke="black" points="163.177,-35.3493 163.177,-53.3493 329.826,-53.3493 329.826,-35.3493 163.177,-35.3493"/>
<text text-anchor="middle" x="246.501" y="-41.3493" font-family="Helvetica,sans-Serif" font-size="10.00">VSC_inboundHandlerThreadFunc</text>
</a>
</g>
</g>
<!-- Node1&#45;&gt;Node2 -->
<g id="edge1" class="edge"><title>Node1&#45;&gt;Node2</title>
<path fill="none" stroke="midnightblue" d="M127.355,-44.3493C135.644,-44.3493 144.276,-44.3493 152.934,-44.3493"/>
<polygon fill="midnightblue" stroke="midnightblue" points="153.09,-47.8494 163.09,-44.3493 153.09,-40.8494 153.09,-47.8494"/>
</g>
<!-- Node3 -->
<g id="node3" class="node"><title>Node3</title>
<g id="a_node3"><a xlink:href="message_parser_8c.html#a1e095af9fe3f1bd7c5a708d797e52bb9" target="_top" xlink:title="Message decoupler and receiver function. ">
<polygon fill="white" stroke="black" points="390.021,-91.3493 390.021,-109.349 506.616,-109.349 506.616,-91.3493 390.021,-91.3493"/>
<text text-anchor="middle" x="448.318" y="-97.3493" font-family="Helvetica,sans-Serif" font-size="10.00">MP_messageReceiver</text>
</a>
</g>
</g>
<!-- Node2&#45;&gt;Node3 -->
<g id="edge2" class="edge"><title>Node2&#45;&gt;Node3</title>
<path fill="none" stroke="midnightblue" d="M273.147,-53.3507C296.976,-61.5312 333.543,-73.6205 365.826,-82.3493 374.464,-84.6849 383.677,-86.9411 392.685,-89.0204"/>
<polygon fill="midnightblue" stroke="midnightblue" points="392.201,-92.4991 402.726,-91.2875 393.742,-85.671 392.201,-92.4991"/>
</g>
<!-- Node5 -->
<g id="node5" class="node"><title>Node5</title>
<g id="a_node5"><a xlink:href="msg_buffers_8c.html#a94d8920e20c5150892cf23b81eb1dfd6" target="_top" xlink:title="Put a message into the buffer. ">
<polygon fill="white" stroke="black" points="567.079,-16.3493 567.079,-34.3493 658.118,-34.3493 658.118,-16.3493 567.079,-16.3493"/>
<text text-anchor="middle" x="612.599" y="-22.3493" font-family="Helvetica,sans-Serif" font-size="10.00">MB_putMessage</text>
</a>
</g>
</g>
<!-- Node2&#45;&gt;Node5 -->
<g id="edge4" class="edge"><title>Node2&#45;&gt;Node5</title>
<path fill="none" stroke="midnightblue" d="M269.272,-35.3449C292.658,-26.1973 331.145,-12.6453 365.826,-7.34932 438.312,3.71957 457.924,0.672058 530.811,-7.34932 543.309,-8.72476 556.701,-11.2628 568.916,-14.008"/>
<polygon fill="midnightblue" stroke="midnightblue" points="568.32,-17.4631 578.855,-16.3418 569.92,-10.6484 568.32,-17.4631"/>
</g>
<!-- Node6 -->
<g id="node6" class="node"><title>Node6</title>
<g id="a_node6"><a xlink:href="station_actions_8c.html#aeca7876f4e4aa4da84f9d5598995916c" target="_top" xlink:title="Search a vehicle by it&#39;s inbox handling thread. ">
<polygon fill="white" stroke="black" points="365.826,-17.3493 365.826,-35.3493 530.811,-35.3493 530.811,-17.3493 365.826,-17.3493"/>
<text text-anchor="middle" x="448.318" y="-23.3493" font-family="Helvetica,sans-Serif" font-size="10.00">SA_searchVehicleByInboxThread</text>
</a>
</g>
</g>
<!-- Node2&#45;&gt;Node6 -->
<g id="edge5" class="edge"><title>Node2&#45;&gt;Node6</title>
<path fill="none" stroke="midnightblue" d="M329.928,-36.9241C338.428,-36.1585 347.101,-35.3771 355.693,-34.6032"/>
<polygon fill="midnightblue" stroke="midnightblue" points="356.08,-38.0826 365.725,-33.6994 355.452,-31.1108 356.08,-38.0826"/>
</g>
<!-- Node7 -->
<g id="node7" class="node"><title>Node7</title>
<g id="a_node7"><a xlink:href="station_actions_8c.html#a62de0824fbc9e952d2f17577d16d38d1" target="_top" xlink:title="Send the vehicle disconnected message to the server. ">
<polygon fill="white" stroke="black" points="380.284,-54.3493 380.284,-72.3493 516.353,-72.3493 516.353,-54.3493 380.284,-54.3493"/>
<text text-anchor="middle" x="448.318" y="-60.3493" font-family="Helvetica,sans-Serif" font-size="10.00">SA_sendDisconnectedMsg</text>
</a>
</g>
</g>
<!-- Node2&#45;&gt;Node7 -->
<g id="edge6" class="edge"><title>Node2&#45;&gt;Node7</title>
<path fill="none" stroke="midnightblue" d="M329.928,-52.187C343.076,-53.4373 356.642,-54.7271 369.674,-55.9664"/>
<polygon fill="midnightblue" stroke="midnightblue" points="369.707,-59.4852 379.994,-56.9476 370.37,-52.5166 369.707,-59.4852"/>
</g>
<!-- Node4 -->
<g id="node4" class="node"><title>Node4</title>
<g id="a_node4"><a xlink:href="message_parser_8c.html#a0026bd717404e4c2f9df87d137721377" target="_top" xlink:title="Message structure initializer. ">
<polygon fill="white" stroke="black" points="566.811,-72.3493 566.811,-90.3493 658.387,-90.3493 658.387,-72.3493 566.811,-72.3493"/>
<text text-anchor="middle" x="612.599" y="-78.3493" font-family="Helvetica,sans-Serif" font-size="10.00">MP_initMsgStruc</text>
</a>
</g>
</g>
<!-- Node3&#45;&gt;Node4 -->
<g id="edge3" class="edge"><title>Node3&#45;&gt;Node4</title>
<path fill="none" stroke="midnightblue" d="M506.989,-93.5971C523.057,-91.7159 540.467,-89.6775 556.389,-87.8133"/>
<polygon fill="midnightblue" stroke="midnightblue" points="557.083,-91.2561 566.608,-86.6168 556.269,-84.3035 557.083,-91.2561"/>
</g>
<!-- Node7&#45;&gt;Node4 -->
<g id="edge7" class="edge"><title>Node7&#45;&gt;Node4</title>
<path fill="none" stroke="midnightblue" d="M516.73,-70.8266C529.923,-72.2899 543.615,-73.8086 556.355,-75.2217"/>
<polygon fill="midnightblue" stroke="midnightblue" points="556.016,-78.7055 566.341,-76.3293 556.787,-71.7482 556.016,-78.7055"/>
</g>
<!-- Node7&#45;&gt;Node5 -->
<g id="edge8" class="edge"><title>Node7&#45;&gt;Node5</title>
<path fill="none" stroke="midnightblue" d="M491.241,-54.3023C503.965,-51.4991 517.973,-48.3557 530.811,-45.3493 542.236,-42.6738 554.542,-39.683 566.021,-36.8464"/>
<polygon fill="midnightblue" stroke="midnightblue" points="566.991,-40.2119 575.852,-34.405 565.304,-33.4183 566.991,-40.2119"/>
</g>
</g>
</svg>
