<?xml version="1.0" encoding="UTF-8" standalone="no"?>
<!DOCTYPE svg PUBLIC "-//W3C//DTD SVG 1.1//EN"
 "http://www.w3.org/Graphics/SVG/1.1/DTD/svg11.dtd">
<!-- Generated by graphviz version 2.38.0 (20140413.2041)
 -->
<!-- Title: SSC_initServerConnThreads Pages: 1 -->
<svg width="802pt" height="193pt"
 viewBox="0.00 0.00 802.25 193.00" xmlns="http://www.w3.org/2000/svg" xmlns:xlink="http://www.w3.org/1999/xlink">
<g id="graph0" class="graph" transform="scale(1 1) rotate(0) translate(4 189)">
<title>SSC_initServerConnThreads</title>
<polygon fill="white" stroke="none" points="-4,4 -4,-189 798.249,-189 798.249,4 -4,4"/>
<!-- Node1 -->
<g id="node1" class="node"><title>Node1</title>
<polygon fill="#bfbfbf" stroke="black" points="0,-92.5 0,-110.5 144.95,-110.5 144.95,-92.5 0,-92.5"/>
<text text-anchor="middle" x="72.4751" y="-98.5" font-family="Helvetica,sans-Serif" font-size="10.00">SSC_initServerConnThreads</text>
</g>
<!-- Node2 -->
<g id="node2" class="node"><title>Node2</title>
<g id="a_node2"><a xlink:href="tcp_server_socket_comm_8c.html#ae54218394dd621113d0f73ec6ef8f873" target="_top" xlink:title="Thread to listen to messages coming from the server. ">
<polygon fill="white" stroke="black" points="180.95,-111.5 180.95,-129.5 331.457,-129.5 331.457,-111.5 180.95,-111.5"/>
<text text-anchor="middle" x="256.204" y="-117.5" font-family="Helvetica,sans-Serif" font-size="10.00">SSC_msgListenerThreadFunc</text>
</a>
</g>
</g>
<!-- Node1&#45;&gt;Node2 -->
<g id="edge1" class="edge"><title>Node1&#45;&gt;Node2</title>
<path fill="none" stroke="midnightblue" d="M145.038,-108.982C153.462,-109.863 162.118,-110.768 170.698,-111.665"/>
<polygon fill="midnightblue" stroke="midnightblue" points="170.407,-115.153 180.717,-112.712 171.135,-108.191 170.407,-115.153"/>
</g>
<!-- Node8 -->
<g id="node8" class="node"><title>Node8</title>
<g id="a_node8"><a xlink:href="tcp_server_socket_comm_8c.html#ab46f3e041cae487562197067e220af3b" target="_top" xlink:title="Thread to send the messages stored in the outbox to the server. ">
<polygon fill="white" stroke="black" points="182.615,-55.5 182.615,-73.5 329.792,-73.5 329.792,-55.5 182.615,-55.5"/>
<text text-anchor="middle" x="256.204" y="-61.5" font-family="Helvetica,sans-Serif" font-size="10.00">SSC_msgSenderThreadFunc</text>
</a>
</g>
</g>
<!-- Node1&#45;&gt;Node8 -->
<g id="edge7" class="edge"><title>Node1&#45;&gt;Node8</title>
<path fill="none" stroke="midnightblue" d="M117.931,-92.4488C142.995,-87.3457 174.499,-80.9314 201.003,-75.5353"/>
<polygon fill="midnightblue" stroke="midnightblue" points="201.792,-78.9466 210.892,-73.5218 200.395,-72.0873 201.792,-78.9466"/>
</g>
<!-- Node3 -->
<g id="node3" class="node"><title>Node3</title>
<g id="a_node3"><a xlink:href="tcp_server_socket_comm_8c.html#abe2574d5f7dd2457b0d09df7f29643a9" target="_top" xlink:title="Listen to the messages coming to the server. ">
<polygon fill="white" stroke="black" points="378.58,-148.5 378.58,-166.5 502.954,-166.5 502.954,-148.5 378.58,-148.5"/>
<text text-anchor="middle" x="440.767" y="-154.5" font-family="Helvetica,sans-Serif" font-size="10.00">SSC_listenToServerMsg</text>
</a>
</g>
</g>
<!-- Node2&#45;&gt;Node3 -->
<g id="edge2" class="edge"><title>Node2&#45;&gt;Node3</title>
<path fill="none" stroke="midnightblue" d="M301.864,-129.551C327.043,-134.654 358.692,-141.069 385.317,-146.465"/>
<polygon fill="midnightblue" stroke="midnightblue" points="384.756,-149.922 395.252,-148.478 386.147,-143.062 384.756,-149.922"/>
</g>
<!-- Node7 -->
<g id="node7" class="node"><title>Node7</title>
<g id="a_node7"><a xlink:href="tcp_server_socket_comm_8c.html#a71368ed7199c8c4f010605207359f972" target="_top" xlink:title="Create the connection to the server. ">
<polygon fill="white" stroke="black" points="367.457,-111.5 367.457,-129.5 514.077,-129.5 514.077,-111.5 367.457,-111.5"/>
<text text-anchor="middle" x="440.767" y="-117.5" font-family="Helvetica,sans-Serif" font-size="10.00">SSC_makeServerConnection</text>
</a>
</g>
</g>
<!-- Node2&#45;&gt;Node7 -->
<g id="edge6" class="edge"><title>Node2&#45;&gt;Node7</title>
<path fill="none" stroke="midnightblue" d="M331.459,-120.5C339.974,-120.5 348.693,-120.5 357.307,-120.5"/>
<polygon fill="midnightblue" stroke="midnightblue" points="357.351,-124 367.351,-120.5 357.351,-117 357.351,-124"/>
</g>
<!-- Node4 -->
<g id="node4" class="node"><title>Node4</title>
<g id="a_node4"><a xlink:href="message_parser_8c.html#a1e095af9fe3f1bd7c5a708d797e52bb9" target="_top" xlink:title="Message decoupler and receiver function. ">
<polygon fill="white" stroke="black" points="550.077,-166.5 550.077,-184.5 666.673,-184.5 666.673,-166.5 550.077,-166.5"/>
<text text-anchor="middle" x="608.375" y="-172.5" font-family="Helvetica,sans-Serif" font-size="10.00">MP_messageReceiver</text>
</a>
</g>
</g>
<!-- Node3&#45;&gt;Node4 -->
<g id="edge3" class="edge"><title>Node3&#45;&gt;Node4</title>
<path fill="none" stroke="midnightblue" d="M502.963,-164.151C514.984,-165.458 527.659,-166.836 539.873,-168.163"/>
<polygon fill="midnightblue" stroke="midnightblue" points="539.681,-171.663 550.001,-169.264 540.437,-164.704 539.681,-171.663"/>
</g>
<!-- Node6 -->
<g id="node6" class="node"><title>Node6</title>
<g id="a_node6"><a xlink:href="msg_buffers_8c.html#a94d8920e20c5150892cf23b81eb1dfd6" target="_top" xlink:title="Put a message into the buffer. ">
<polygon fill="white" stroke="black" points="562.855,-129.5 562.855,-147.5 653.895,-147.5 653.895,-129.5 562.855,-129.5"/>
<text text-anchor="middle" x="608.375" y="-135.5" font-family="Helvetica,sans-Serif" font-size="10.00">MB_putMessage</text>
</a>
</g>
</g>
<!-- Node3&#45;&gt;Node6 -->
<g id="edge5" class="edge"><title>Node3&#45;&gt;Node6</title>
<path fill="none" stroke="midnightblue" d="M502.963,-150.479C519.213,-148.615 536.658,-146.613 552.545,-144.791"/>
<polygon fill="midnightblue" stroke="midnightblue" points="553.196,-148.239 562.732,-143.622 552.398,-141.285 553.196,-148.239"/>
</g>
<!-- Node5 -->
<g id="node5" class="node"><title>Node5</title>
<g id="a_node5"><a xlink:href="message_parser_8c.html#a0026bd717404e4c2f9df87d137721377" target="_top" xlink:title="Message structure initializer. ">
<polygon fill="white" stroke="black" points="702.673,-166.5 702.673,-184.5 794.249,-184.5 794.249,-166.5 702.673,-166.5"/>
<text text-anchor="middle" x="748.461" y="-172.5" font-family="Helvetica,sans-Serif" font-size="10.00">MP_initMsgStruc</text>
</a>
</g>
</g>
<!-- Node4&#45;&gt;Node5 -->
<g id="edge4" class="edge"><title>Node4&#45;&gt;Node5</title>
<path fill="none" stroke="midnightblue" d="M666.736,-175.5C675.165,-175.5 683.833,-175.5 692.218,-175.5"/>
<polygon fill="midnightblue" stroke="midnightblue" points="692.27,-179 702.27,-175.5 692.27,-172 692.27,-179"/>
</g>
<!-- Node9 -->
<g id="node9" class="node"><title>Node9</title>
<g id="a_node9"><a xlink:href="msg_buffers_8c.html#a2bc61492dcc33dc1712d77d383b1e33d" target="_top" xlink:title="Get a message from the buffer. ">
<polygon fill="white" stroke="black" points="395.248,-74.5 395.248,-92.5 486.287,-92.5 486.287,-74.5 395.248,-74.5"/>
<text text-anchor="middle" x="440.767" y="-80.5" font-family="Helvetica,sans-Serif" font-size="10.00">MB_getMessage</text>
</a>
</g>
</g>
<!-- Node8&#45;&gt;Node9 -->
<g id="edge8" class="edge"><title>Node8&#45;&gt;Node9</title>
<path fill="none" stroke="midnightblue" d="M329.882,-72.0639C348.335,-73.9844 367.848,-76.0151 385.227,-77.8238"/>
<polygon fill="midnightblue" stroke="midnightblue" points="384.881,-81.3066 395.189,-78.8606 385.605,-74.3442 384.881,-81.3066"/>
</g>
<!-- Node10 -->
<g id="node10" class="node"><title>Node10</title>
<g id="a_node10"><a xlink:href="tcp_server_socket_comm_8c.html#a5cfbc3e4116f51d09d4416ce81a420a9" target="_top" xlink:title="Send a message to the server. ">
<polygon fill="white" stroke="black" points="368.568,-37.5 368.568,-55.5 512.966,-55.5 512.966,-37.5 368.568,-37.5"/>
<text text-anchor="middle" x="440.767" y="-43.5" font-family="Helvetica,sans-Serif" font-size="10.00">SSC_sendMessageToServer</text>
</a>
</g>
</g>
<!-- Node8&#45;&gt;Node10 -->
<g id="edge9" class="edge"><title>Node8&#45;&gt;Node10</title>
<path fill="none" stroke="midnightblue" d="M329.882,-57.3342C339.229,-56.4126 348.848,-55.4643 358.323,-54.53"/>
<polygon fill="midnightblue" stroke="midnightblue" points="358.921,-57.9881 368.53,-53.5237 358.235,-51.0219 358.921,-57.9881"/>
</g>
<!-- Node11 -->
<g id="node11" class="node"><title>Node11</title>
<g id="a_node11"><a xlink:href="message_parser_8c.html#a1e487e587ff3244c0808f4602ec6f1f7" target="_top" xlink:title="Message wiping function. ">
<polygon fill="white" stroke="black" points="391.915,-0.5 391.915,-18.5 489.619,-18.5 489.619,-0.5 391.915,-0.5"/>
<text text-anchor="middle" x="440.767" y="-6.5" font-family="Helvetica,sans-Serif" font-size="10.00">MP_wipeMessage</text>
</a>
</g>
</g>
<!-- Node8&#45;&gt;Node11 -->
<g id="edge10" class="edge"><title>Node8&#45;&gt;Node11</title>
<path fill="none" stroke="midnightblue" d="M282.421,-55.3979C304.651,-47.5277 337.996,-36.0954 367.457,-27.5 375.054,-25.2835 383.149,-23.0986 391.071,-21.0566"/>
<polygon fill="midnightblue" stroke="midnightblue" points="392.125,-24.4003 400.961,-18.5549 390.408,-17.614 392.125,-24.4003"/>
</g>
</g>
</svg>
