<?xml version="1.0" encoding="UTF-8" standalone="no"?>
<!DOCTYPE svg PUBLIC "-//W3C//DTD SVG 1.1//EN"
 "http://www.w3.org/Graphics/SVG/1.1/DTD/svg11.dtd">
<!-- Generated by graphviz version 2.38.0 (20140413.2041)
 -->
<!-- Title: SSC_msgSenderThreadFunc Pages: 1 -->
<svg width="336pt" height="101pt"
 viewBox="0.00 0.00 335.58 101.00" xmlns="http://www.w3.org/2000/svg" xmlns:xlink="http://www.w3.org/1999/xlink">
<g id="graph0" class="graph" transform="scale(1 1) rotate(0) translate(4 97)">
<title>SSC_msgSenderThreadFunc</title>
<polygon fill="white" stroke="none" points="-4,4 -4,-97 331.575,-97 331.575,4 -4,4"/>
<!-- Node1 -->
<g id="node1" class="node"><title>Node1</title>
<polygon fill="#bfbfbf" stroke="black" points="0,-37.5 0,-55.5 147.177,-55.5 147.177,-37.5 0,-37.5"/>
<text text-anchor="middle" x="73.5884" y="-43.5" font-family="Helvetica,sans-Serif" font-size="10.00">SSC_msgSenderThreadFunc</text>
</g>
<!-- Node2 -->
<g id="node2" class="node"><title>Node2</title>
<g id="a_node2"><a xlink:href="msg_buffers_8c.html#a2bc61492dcc33dc1712d77d383b1e33d" target="_top" xlink:title="Get a message from the buffer. ">
<polygon fill="white" stroke="black" points="209.856,-74.5 209.856,-92.5 300.896,-92.5 300.896,-74.5 209.856,-74.5"/>
<text text-anchor="middle" x="255.376" y="-80.5" font-family="Helvetica,sans-Serif" font-size="10.00">MB_getMessage</text>
</a>
</g>
</g>
<!-- Node1&#45;&gt;Node2 -->
<g id="edge1" class="edge"><title>Node1&#45;&gt;Node2</title>
<path fill="none" stroke="midnightblue" d="M118.569,-55.5512C143.257,-60.6318 174.259,-67.0121 200.407,-72.3934"/>
<polygon fill="midnightblue" stroke="midnightblue" points="200.038,-75.8905 210.538,-74.4782 201.449,-69.0342 200.038,-75.8905"/>
</g>
<!-- Node3 -->
<g id="node3" class="node"><title>Node3</title>
<g id="a_node3"><a xlink:href="tcp_server_socket_comm_8c.html#a5cfbc3e4116f51d09d4416ce81a420a9" target="_top" xlink:title="Send a message to the server. ">
<polygon fill="white" stroke="black" points="183.177,-37.5 183.177,-55.5 327.575,-55.5 327.575,-37.5 183.177,-37.5"/>
<text text-anchor="middle" x="255.376" y="-43.5" font-family="Helvetica,sans-Serif" font-size="10.00">SSC_sendMessageToServer</text>
</a>
</g>
</g>
<!-- Node1&#45;&gt;Node3 -->
<g id="edge2" class="edge"><title>Node1&#45;&gt;Node3</title>
<path fill="none" stroke="midnightblue" d="M147.197,-46.5C155.672,-46.5 164.361,-46.5 172.946,-46.5"/>
<polygon fill="midnightblue" stroke="midnightblue" points="172.957,-50.0001 182.957,-46.5 172.957,-43.0001 172.957,-50.0001"/>
</g>
<!-- Node4 -->
<g id="node4" class="node"><title>Node4</title>
<g id="a_node4"><a xlink:href="message_parser_8c.html#a1e487e587ff3244c0808f4602ec6f1f7" target="_top" xlink:title="Message wiping function. ">
<polygon fill="white" stroke="black" points="206.524,-0.5 206.524,-18.5 304.228,-18.5 304.228,-0.5 206.524,-0.5"/>
<text text-anchor="middle" x="255.376" y="-6.5" font-family="Helvetica,sans-Serif" font-size="10.00">MP_wipeMessage</text>
</a>
</g>
</g>
<!-- Node1&#45;&gt;Node4 -->
<g id="edge3" class="edge"><title>Node1&#45;&gt;Node4</title>
<path fill="none" stroke="midnightblue" d="M118.569,-37.4488C143.257,-32.3682 174.259,-25.9879 200.407,-20.6066"/>
<polygon fill="midnightblue" stroke="midnightblue" points="201.449,-23.9658 210.538,-18.5218 200.038,-17.1095 201.449,-23.9658"/>
</g>
</g>
</svg>
