<?xml version="1.0" encoding="UTF-8" standalone="no"?>
<!DOCTYPE svg PUBLIC "-//W3C//DTD SVG 1.1//EN"
 "http://www.w3.org/Graphics/SVG/1.1/DTD/svg11.dtd">
<!-- Generated by graphviz version 2.38.0 (20140413.2041)
 -->
<!-- Title: SSC_listenToServerMsg Pages: 1 -->
<svg width="912pt" height="27pt"
 viewBox="0.00 0.00 912.07 27.00" xmlns="http://www.w3.org/2000/svg" xmlns:xlink="http://www.w3.org/1999/xlink">
<g id="graph0" class="graph" transform="scale(1 1) rotate(0) translate(4 23)">
<title>SSC_listenToServerMsg</title>
<polygon fill="white" stroke="none" points="-4,4 -4,-23 908.066,-23 908.066,4 -4,4"/>
<!-- Node1 -->
<g id="node1" class="node"><title>Node1</title>
<polygon fill="#bfbfbf" stroke="black" points="0,-0.5 0,-18.5 124.374,-18.5 124.374,-0.5 0,-0.5"/>
<text text-anchor="middle" x="62.187" y="-6.5" font-family="Helvetica,sans-Serif" font-size="10.00">SSC_listenToServerMsg</text>
</g>
<!-- Node2 -->
<g id="node2" class="node"><title>Node2</title>
<g id="a_node2"><a xlink:href="tcp_server_socket_comm_8h.html#ae54218394dd621113d0f73ec6ef8f873" target="_top" xlink:title="Thread to listen to messages coming from the server. ">
<polygon fill="white" stroke="black" points="160.374,-0.5 160.374,-18.5 310.881,-18.5 310.881,-0.5 160.374,-0.5"/>
<text text-anchor="middle" x="235.627" y="-6.5" font-family="Helvetica,sans-Serif" font-size="10.00">SSC_msgListenerThreadFunc</text>
</a>
</g>
</g>
<!-- Node1&#45;&gt;Node2 -->
<g id="edge1" class="edge"><title>Node1&#45;&gt;Node2</title>
<path fill="none" stroke="midnightblue" d="M134.733,-9.5C143.137,-9.5 151.728,-9.5 160.171,-9.5"/>
<polygon fill="midnightblue" stroke="midnightblue" points="134.597,-6.0001 124.597,-9.5 134.597,-13.0001 134.597,-6.0001"/>
</g>
<!-- Node3 -->
<g id="node3" class="node"><title>Node3</title>
<g id="a_node3"><a xlink:href="tcp_server_socket_comm_8h.html#aefcfff31ea3a9b0d92a83ab83c9874f9" target="_top" xlink:title="Start the threads for listening and sending messages to the server. ">
<polygon fill="white" stroke="black" points="346.881,-0.5 346.881,-18.5 491.831,-18.5 491.831,-0.5 346.881,-0.5"/>
<text text-anchor="middle" x="419.356" y="-6.5" font-family="Helvetica,sans-Serif" font-size="10.00">SSC_initServerConnThreads</text>
</a>
</g>
</g>
<!-- Node2&#45;&gt;Node3 -->
<g id="edge2" class="edge"><title>Node2&#45;&gt;Node3</title>
<path fill="none" stroke="midnightblue" d="M321.343,-9.5C329.813,-9.5 338.354,-9.5 346.671,-9.5"/>
<polygon fill="midnightblue" stroke="midnightblue" points="321.068,-6.0001 311.068,-9.5 321.068,-13.0001 321.068,-6.0001"/>
</g>
<!-- Node4 -->
<g id="node4" class="node"><title>Node4</title>
<g id="a_node4"><a xlink:href="tcp_server_socket_comm_8h.html#a64aaa41ac5e2fbe7f8ba88c053b49ff9" target="_top" xlink:title="Initialize the connection to the server. ">
<polygon fill="white" stroke="black" points="527.831,-0.5 527.831,-18.5 662.781,-18.5 662.781,-0.5 527.831,-0.5"/>
<text text-anchor="middle" x="595.306" y="-6.5" font-family="Helvetica,sans-Serif" font-size="10.00">SSC_initServerConnection</text>
</a>
</g>
</g>
<!-- Node3&#45;&gt;Node4 -->
<g id="edge3" class="edge"><title>Node3&#45;&gt;Node4</title>
<path fill="none" stroke="midnightblue" d="M501.977,-9.5C510.639,-9.5 519.372,-9.5 527.831,-9.5"/>
<polygon fill="midnightblue" stroke="midnightblue" points="501.861,-6.0001 491.861,-9.5 501.861,-13.0001 501.861,-6.0001"/>
</g>
<!-- Node5 -->
<g id="node5" class="node"><title>Node5</title>
<g id="a_node5"><a xlink:href="main_8c.html#aea1c0564829983a4a1da026f1640f762" target="_top" xlink:title="Thread for controlling the server client initialization and shutdown. ">
<polygon fill="white" stroke="black" points="698.781,-0.5 698.781,-18.5 830.392,-18.5 830.392,-0.5 698.781,-0.5"/>
<text text-anchor="middle" x="764.586" y="-6.5" font-family="Helvetica,sans-Serif" font-size="10.00">serverConnControlThread</text>
</a>
</g>
</g>
<!-- Node4&#45;&gt;Node5 -->
<g id="edge4" class="edge"><title>Node4&#45;&gt;Node5</title>
<path fill="none" stroke="midnightblue" d="M672.907,-9.5C681.488,-9.5 690.169,-9.5 698.585,-9.5"/>
<polygon fill="midnightblue" stroke="midnightblue" points="672.9,-6.0001 662.9,-9.5 672.9,-13.0001 672.9,-6.0001"/>
</g>
<!-- Node6 -->
<g id="node6" class="node"><title>Node6</title>
<g id="a_node6"><a xlink:href="main_8c.html#ac0f2228420376f4db7e1274f2b41667c" target="_top" xlink:title="main">
<polygon fill="white" stroke="black" points="866.392,-0.5 866.392,-18.5 904.066,-18.5 904.066,-0.5 866.392,-0.5"/>
<text text-anchor="middle" x="885.229" y="-6.5" font-family="Helvetica,sans-Serif" font-size="10.00">main</text>
</a>
</g>
</g>
<!-- Node5&#45;&gt;Node6 -->
<g id="edge5" class="edge"><title>Node5&#45;&gt;Node6</title>
<path fill="none" stroke="midnightblue" d="M840.552,-9.5C850.077,-9.5 859.022,-9.5 866.306,-9.5"/>
<polygon fill="midnightblue" stroke="midnightblue" points="840.462,-6.0001 830.462,-9.5 840.462,-13.0001 840.462,-6.0001"/>
</g>
</g>
</svg>
