<?xml version="1.0" encoding="UTF-8" standalone="no"?>
<!DOCTYPE svg PUBLIC "-//W3C//DTD SVG 1.1//EN"
 "http://www.w3.org/Graphics/SVG/1.1/DTD/svg11.dtd">
<!-- Generated by graphviz version 2.38.0 (20140413.2041)
 -->
<!-- Title: rasPi&#45;EmergencyStation/tcpServerSocketComm.h Pages: 1 -->
<svg width="581pt" height="257pt"
 viewBox="0.00 0.00 580.56 257.00" xmlns="http://www.w3.org/2000/svg" xmlns:xlink="http://www.w3.org/1999/xlink">
<g id="graph0" class="graph" transform="scale(1 1) rotate(0) translate(4 253)">
<title>rasPi&#45;EmergencyStation/tcpServerSocketComm.h</title>
<polygon fill="white" stroke="none" points="-4,4 -4,-253 576.563,-253 576.563,4 -4,4"/>
<!-- Node1 -->
<g id="node1" class="node"><title>Node1</title>
<polygon fill="#bfbfbf" stroke="black" points="217.135,-220.5 217.135,-248.5 347.061,-248.5 347.061,-220.5 217.135,-220.5"/>
<text text-anchor="start" x="225.135" y="-236.5" font-family="Helvetica,sans-Serif" font-size="10.00">rasPi&#45;EmergencyStation</text>
<text text-anchor="middle" x="282.098" y="-226.5" font-family="Helvetica,sans-Serif" font-size="10.00">/tcpServerSocketComm.h</text>
</g>
<!-- Node2 -->
<g id="node2" class="node"><title>Node2</title>
<polygon fill="white" stroke="#bfbfbf" points="515.367,-0.5 515.367,-18.5 560.83,-18.5 560.83,-0.5 515.367,-0.5"/>
<text text-anchor="middle" x="538.098" y="-6.5" font-family="Helvetica,sans-Serif" font-size="10.00">stdio.h</text>
</g>
<!-- Node1&#45;&gt;Node2 -->
<g id="edge1" class="edge"><title>Node1&#45;&gt;Node2</title>
<path fill="none" stroke="midnightblue" d="M347.258,-226.688C408.086,-219.145 493.25,-205.179 519.098,-184 566.297,-145.326 583.009,-113.63 566.098,-55 563.157,-44.8046 557.114,-34.6924 551.391,-26.6902"/>
<polygon fill="midnightblue" stroke="midnightblue" points="554.105,-24.4771 545.25,-18.6601 548.545,-28.7296 554.105,-24.4771"/>
</g>
<!-- Node3 -->
<g id="node3" class="node"><title>Node3</title>
<polygon fill="white" stroke="#bfbfbf" points="25.2558,-55.5 25.2558,-73.5 72.9404,-73.5 72.9404,-55.5 25.2558,-55.5"/>
<text text-anchor="middle" x="49.0981" y="-61.5" font-family="Helvetica,sans-Serif" font-size="10.00">stdlib.h</text>
</g>
<!-- Node1&#45;&gt;Node3 -->
<g id="edge2" class="edge"><title>Node1&#45;&gt;Node3</title>
<path fill="none" stroke="midnightblue" d="M263.926,-220.489C250.005,-210.516 230.327,-196.404 213.098,-184 160.687,-146.266 98.9702,-101.612 68.3457,-79.4399"/>
<polygon fill="midnightblue" stroke="midnightblue" points="70.3767,-76.5893 60.2244,-73.5593 66.2713,-82.2591 70.3767,-76.5893"/>
</g>
<!-- Node4 -->
<g id="node4" class="node"><title>Node4</title>
<polygon fill="white" stroke="#bfbfbf" points="90.5859,-55.5 90.5859,-73.5 141.61,-73.5 141.61,-55.5 90.5859,-55.5"/>
<text text-anchor="middle" x="116.098" y="-61.5" font-family="Helvetica,sans-Serif" font-size="10.00">unistd.h</text>
</g>
<!-- Node1&#45;&gt;Node4 -->
<g id="edge3" class="edge"><title>Node1&#45;&gt;Node4</title>
<path fill="none" stroke="midnightblue" d="M269.072,-220.317C238.774,-189.654 163.694,-113.669 131.336,-80.9218"/>
<polygon fill="midnightblue" stroke="midnightblue" points="133.602,-78.235 124.084,-73.5817 128.623,-83.1551 133.602,-78.235"/>
</g>
<!-- Node5 -->
<g id="node5" class="node"><title>Node5</title>
<polygon fill="white" stroke="#bfbfbf" points="159.702,-55.5 159.702,-73.5 208.495,-73.5 208.495,-55.5 159.702,-55.5"/>
<text text-anchor="middle" x="184.098" y="-61.5" font-family="Helvetica,sans-Serif" font-size="10.00">string.h</text>
</g>
<!-- Node1&#45;&gt;Node5 -->
<g id="edge4" class="edge"><title>Node1&#45;&gt;Node5</title>
<path fill="none" stroke="midnightblue" d="M274.408,-220.317C256.825,-190.174 213.692,-116.232 194.087,-82.6238"/>
<polygon fill="midnightblue" stroke="midnightblue" points="196.874,-80.456 188.812,-73.5817 190.828,-83.9831 196.874,-80.456"/>
</g>
<!-- Node6 -->
<g id="node6" class="node"><title>Node6</title>
<polygon fill="white" stroke="#bfbfbf" points="374.635,-0.5 374.635,-18.5 439.561,-18.5 439.561,-0.5 374.635,-0.5"/>
<text text-anchor="middle" x="407.098" y="-6.5" font-family="Helvetica,sans-Serif" font-size="10.00">netinet/in.h</text>
</g>
<!-- Node1&#45;&gt;Node6 -->
<g id="edge5" class="edge"><title>Node1&#45;&gt;Node6</title>
<path fill="none" stroke="midnightblue" d="M226.823,-220.447C129.687,-195.078 -54.9172,-134.556 16.0981,-55 39.0068,-29.3362 267.895,-16.5098 364.469,-12.2065"/>
<polygon fill="midnightblue" stroke="midnightblue" points="364.644,-15.7023 374.482,-11.7699 364.339,-8.70895 364.644,-15.7023"/>
</g>
<!-- Node7 -->
<g id="node7" class="node"><title>Node7</title>
<polygon fill="white" stroke="#bfbfbf" points="226.47,-55.5 226.47,-73.5 289.726,-73.5 289.726,-55.5 226.47,-55.5"/>
<text text-anchor="middle" x="258.098" y="-61.5" font-family="Helvetica,sans-Serif" font-size="10.00">arpa/inet.h</text>
</g>
<!-- Node1&#45;&gt;Node7 -->
<g id="edge6" class="edge"><title>Node1&#45;&gt;Node7</title>
<path fill="none" stroke="midnightblue" d="M277.592,-220.217C274.427,-210.343 270.367,-196.477 268.098,-184 261.714,-148.899 259.392,-107.191 258.557,-83.7895"/>
<polygon fill="midnightblue" stroke="midnightblue" points="262.05,-83.5057 258.249,-73.6164 255.054,-83.7178 262.05,-83.5057"/>
</g>
<!-- Node8 -->
<g id="node8" class="node"><title>Node8</title>
<polygon fill="white" stroke="#bfbfbf" points="307.588,-55.5 307.588,-73.5 378.608,-73.5 378.608,-55.5 307.588,-55.5"/>
<text text-anchor="middle" x="343.098" y="-61.5" font-family="Helvetica,sans-Serif" font-size="10.00">sys/socket.h</text>
</g>
<!-- Node1&#45;&gt;Node8 -->
<g id="edge7" class="edge"><title>Node1&#45;&gt;Node8</title>
<path fill="none" stroke="midnightblue" d="M281.627,-220.491C281.3,-197.123 283,-147.031 301.098,-110 306.612,-98.7166 315.99,-88.3647 324.488,-80.4901"/>
<polygon fill="midnightblue" stroke="midnightblue" points="326.978,-82.9626 332.21,-73.7498 322.374,-77.6889 326.978,-82.9626"/>
</g>
<!-- Node9 -->
<g id="node9" class="node"><title>Node9</title>
<polygon fill="white" stroke="#bfbfbf" points="348.416,-165.5 348.416,-183.5 397.78,-183.5 397.78,-165.5 348.416,-165.5"/>
<text text-anchor="middle" x="373.098" y="-171.5" font-family="Helvetica,sans-Serif" font-size="10.00">netdb.h</text>
</g>
<!-- Node1&#45;&gt;Node9 -->
<g id="edge8" class="edge"><title>Node1&#45;&gt;Node9</title>
<path fill="none" stroke="midnightblue" d="M302.747,-220.339C317.425,-210.984 337.081,-198.456 351.884,-189.021"/>
<polygon fill="midnightblue" stroke="midnightblue" points="353.835,-191.928 360.387,-183.602 350.073,-186.025 353.835,-191.928"/>
</g>
<!-- Node10 -->
<g id="node10" class="node"><title>Node10</title>
<g id="a_node10"><a xlink:href="structures_8h.html" target="_top" xlink:title="File containing all the structure definitions used in the other modules. ">
<polygon fill="white" stroke="red" points="472.978,-55.5 472.978,-73.5 541.219,-73.5 541.219,-55.5 472.978,-55.5"/>
<text text-anchor="middle" x="507.098" y="-61.5" font-family="Helvetica,sans-Serif" font-size="10.00">structures.h</text>
</a>
</g>
</g>
<!-- Node1&#45;&gt;Node10 -->
<g id="edge9" class="edge"><title>Node1&#45;&gt;Node10</title>
<path fill="none" stroke="midnightblue" d="M347.148,-227.165C403.712,-220.199 479.584,-206.843 499.098,-184 523.131,-155.867 517.403,-108.95 511.827,-83.4055"/>
<polygon fill="midnightblue" stroke="midnightblue" points="515.209,-82.4983 509.459,-73.5994 508.405,-84.1416 515.209,-82.4983"/>
</g>
<!-- Node11 -->
<g id="node11" class="node"><title>Node11</title>
<g id="a_node11"><a xlink:href="msg_buffers_8h.html" target="_top" xlink:title="File containing the headers of all functions related to the message mailboxes. ">
<polygon fill="white" stroke="red" points="415.73,-165.5 415.73,-183.5 490.466,-183.5 490.466,-165.5 415.73,-165.5"/>
<text text-anchor="middle" x="453.098" y="-171.5" font-family="Helvetica,sans-Serif" font-size="10.00">msgBuffers.h</text>
</a>
</g>
</g>
<!-- Node1&#45;&gt;Node11 -->
<g id="edge12" class="edge"><title>Node1&#45;&gt;Node11</title>
<path fill="none" stroke="midnightblue" d="M320.474,-220.484C350.246,-210.385 391.105,-196.527 419.574,-186.871"/>
<polygon fill="midnightblue" stroke="midnightblue" points="420.743,-190.17 429.089,-183.643 418.495,-183.541 420.743,-190.17"/>
</g>
<!-- Node12 -->
<g id="node12" class="node"><title>Node12</title>
<g id="a_node12"><a xlink:href="message_parser_8h.html" target="_top" xlink:title="Message parser function headers. ">
<polygon fill="white" stroke="red" points="310.187,-110.5 310.187,-128.5 404.009,-128.5 404.009,-110.5 310.187,-110.5"/>
<text text-anchor="middle" x="357.098" y="-116.5" font-family="Helvetica,sans-Serif" font-size="10.00">messageParser.h</text>
</a>
</g>
</g>
<!-- Node1&#45;&gt;Node12 -->
<g id="edge25" class="edge"><title>Node1&#45;&gt;Node12</title>
<path fill="none" stroke="midnightblue" d="M290.996,-220.094C304.713,-199.427 330.999,-159.823 345.959,-137.282"/>
<polygon fill="midnightblue" stroke="midnightblue" points="348.994,-139.039 351.608,-128.772 343.162,-135.168 348.994,-139.039"/>
</g>
<!-- Node10&#45;&gt;Node2 -->
<g id="edge10" class="edge"><title>Node10&#45;&gt;Node2</title>
<path fill="none" stroke="midnightblue" d="M511.942,-55.2188C516.29,-47.7856 522.805,-36.646 528.246,-27.3446"/>
<polygon fill="midnightblue" stroke="midnightblue" points="531.362,-28.9486 533.39,-18.5496 525.32,-25.4143 531.362,-28.9486"/>
</g>
<!-- Node10&#45;&gt;Node6 -->
<g id="edge11" class="edge"><title>Node10&#45;&gt;Node6</title>
<path fill="none" stroke="midnightblue" d="M491.91,-55.4504C475.831,-46.9286 450.217,-33.3532 431.341,-23.3487"/>
<polygon fill="midnightblue" stroke="midnightblue" points="432.904,-20.2158 422.429,-18.6253 429.626,-26.4008 432.904,-20.2158"/>
</g>
<!-- Node11&#45;&gt;Node2 -->
<g id="edge13" class="edge"><title>Node11&#45;&gt;Node2</title>
<path fill="none" stroke="midnightblue" d="M466.022,-165.3C488.235,-150.341 532.918,-116.235 550.098,-74 556.169,-59.0754 551.652,-40.9125 546.516,-27.8411"/>
<polygon fill="midnightblue" stroke="midnightblue" points="549.686,-26.353 542.455,-18.6089 543.278,-29.1717 549.686,-26.353"/>
</g>
<!-- Node11&#45;&gt;Node10 -->
<g id="edge14" class="edge"><title>Node11&#45;&gt;Node10</title>
<path fill="none" stroke="midnightblue" d="M457.157,-165.382C465.874,-147.948 486.553,-106.59 498.387,-82.9219"/>
<polygon fill="midnightblue" stroke="midnightblue" points="501.651,-84.2213 502.992,-73.7118 495.39,-81.0908 501.651,-84.2213"/>
</g>
<!-- Node11&#45;&gt;Node12 -->
<g id="edge15" class="edge"><title>Node11&#45;&gt;Node12</title>
<path fill="none" stroke="midnightblue" d="M433.508,-165.45C416.49,-157.123 392.344,-143.97 375.648,-134.039"/>
<polygon fill="midnightblue" stroke="midnightblue" points="377.147,-130.853 366.789,-128.625 373.497,-136.826 377.147,-130.853"/>
</g>
<!-- Node12&#45;&gt;Node2 -->
<g id="edge16" class="edge"><title>Node12&#45;&gt;Node2</title>
<path fill="none" stroke="midnightblue" d="M370.703,-110.382C401.625,-91.9313 477.453,-46.6862 515.521,-23.9713"/>
<polygon fill="midnightblue" stroke="midnightblue" points="517.542,-26.8414 524.336,-18.7118 513.955,-20.8302 517.542,-26.8414"/>
</g>
<!-- Node12&#45;&gt;Node3 -->
<g id="edge18" class="edge"><title>Node12&#45;&gt;Node3</title>
<path fill="none" stroke="midnightblue" d="M309.952,-112.358C256.838,-105.116 167.769,-91.9971 82.9361,-74.2378"/>
<polygon fill="midnightblue" stroke="midnightblue" points="83.6573,-70.813 73.1489,-72.1639 82.2061,-77.6609 83.6573,-70.813"/>
</g>
<!-- Node12&#45;&gt;Node4 -->
<g id="edge22" class="edge"><title>Node12&#45;&gt;Node4</title>
<path fill="none" stroke="midnightblue" d="M318.306,-110.428C278.872,-102.154 215.769,-88.7271 151.585,-74.0634"/>
<polygon fill="midnightblue" stroke="midnightblue" points="152.224,-70.6192 141.695,-71.7959 150.659,-77.4422 152.224,-70.6192"/>
</g>
<!-- Node12&#45;&gt;Node5 -->
<g id="edge17" class="edge"><title>Node12&#45;&gt;Node5</title>
<path fill="none" stroke="midnightblue" d="M330.823,-110.45C300.756,-101.239 251.415,-86.1231 218.355,-75.9948"/>
<polygon fill="midnightblue" stroke="midnightblue" points="219.243,-72.6065 208.657,-73.0237 217.193,-79.2995 219.243,-72.6065"/>
</g>
<!-- Node12&#45;&gt;Node6 -->
<g id="edge19" class="edge"><title>Node12&#45;&gt;Node6</title>
<path fill="none" stroke="midnightblue" d="M363.886,-110.463C370.816,-101.908 381.469,-87.7373 388.098,-74 395.138,-59.4115 400.181,-41.6671 403.294,-28.6483"/>
<polygon fill="midnightblue" stroke="midnightblue" points="406.769,-29.1447 405.535,-18.622 399.938,-27.6178 406.769,-29.1447"/>
</g>
<!-- Node12&#45;&gt;Node7 -->
<g id="edge20" class="edge"><title>Node12&#45;&gt;Node7</title>
<path fill="none" stroke="midnightblue" d="M342.062,-110.45C326.144,-101.929 300.786,-88.3532 282.099,-78.3487"/>
<polygon fill="midnightblue" stroke="midnightblue" points="283.744,-75.2595 273.276,-73.6253 280.44,-81.4308 283.744,-75.2595"/>
</g>
<!-- Node12&#45;&gt;Node8 -->
<g id="edge21" class="edge"><title>Node12&#45;&gt;Node8</title>
<path fill="none" stroke="midnightblue" d="M354.911,-110.219C353.009,-103.02 350.189,-92.3458 347.782,-83.2311"/>
<polygon fill="midnightblue" stroke="midnightblue" points="351.162,-82.324 345.224,-73.5496 344.394,-84.1118 351.162,-82.324"/>
</g>
<!-- Node12&#45;&gt;Node10 -->
<g id="edge23" class="edge"><title>Node12&#45;&gt;Node10</title>
<path fill="none" stroke="midnightblue" d="M379.88,-110.45C405.1,-101.539 445.958,-87.1029 474.547,-77.0014"/>
<polygon fill="midnightblue" stroke="midnightblue" points="475.839,-80.2569 484.102,-73.6253 473.507,-73.6568 475.839,-80.2569"/>
</g>
<!-- Node12&#45;&gt;Node11 -->
<g id="edge24" class="edge"><title>Node12&#45;&gt;Node11</title>
<path fill="none" stroke="midnightblue" d="M376.843,-128.625C393.904,-136.982 418.048,-150.139 434.699,-160.051"/>
<polygon fill="midnightblue" stroke="midnightblue" points="433.17,-163.218 443.527,-165.45 436.823,-157.247 433.17,-163.218"/>
</g>
</g>
</svg>
