<?xml version="1.0" encoding="UTF-8" standalone="no"?>
<!DOCTYPE svg PUBLIC "-//W3C//DTD SVG 1.1//EN"
 "http://www.w3.org/Graphics/SVG/1.1/DTD/svg11.dtd">
<!-- Generated by graphviz version 2.38.0 (20140413.2041)
 -->
<!-- Title: VSC_outboundHandlerThreadFunc Pages: 1 -->
<svg width="1050pt" height="46pt"
 viewBox="0.00 0.00 1050.04 46.00" xmlns="http://www.w3.org/2000/svg" xmlns:xlink="http://www.w3.org/1999/xlink">
<g id="graph0" class="graph" transform="scale(1 1) rotate(0) translate(4 42)">
<title>VSC_outboundHandlerThreadFunc</title>
<polygon fill="white" stroke="none" points="-4,4 -4,-42 1046.04,-42 1046.04,4 -4,4"/>
<!-- Node1 -->
<g id="node1" class="node"><title>Node1</title>
<polygon fill="#bfbfbf" stroke="black" points="0,-19.5 0,-37.5 172.768,-37.5 172.768,-19.5 0,-19.5"/>
<text text-anchor="middle" x="86.3838" y="-25.5" font-family="Helvetica,sans-Serif" font-size="10.00">VSC_outboundHandlerThreadFunc</text>
</g>
<!-- Node2 -->
<g id="node2" class="node"><title>Node2</title>
<g id="a_node2"><a xlink:href="station_actions_8h.html#ac5974717372c28efe7b4e33f68ef895b" target="_top" xlink:title="Function to initialize a new vehicle structure. ">
<polygon fill="white" stroke="black" points="208.768,-19.5 208.768,-37.5 288.703,-37.5 288.703,-19.5 208.768,-19.5"/>
<text text-anchor="middle" x="248.735" y="-25.5" font-family="Helvetica,sans-Serif" font-size="10.00">SA_initVehicle</text>
</a>
</g>
</g>
<!-- Node1&#45;&gt;Node2 -->
<g id="edge1" class="edge"><title>Node1&#45;&gt;Node2</title>
<path fill="none" stroke="midnightblue" d="M183.268,-28.5C192.113,-28.5 200.693,-28.5 208.554,-28.5"/>
<polygon fill="midnightblue" stroke="midnightblue" points="183.193,-25.0001 173.193,-28.5 183.193,-32.0001 183.193,-25.0001"/>
</g>
<!-- Node3 -->
<g id="node3" class="node"><title>Node3</title>
<g id="a_node3"><a xlink:href="station_actions_8h.html#adef80b5aef5924633f2ef4b37eecc820" target="_top" xlink:title="Add a new vehicle to the vehicle list. ">
<polygon fill="white" stroke="black" points="324.703,-19.5 324.703,-37.5 434.663,-37.5 434.663,-19.5 324.703,-19.5"/>
<text text-anchor="middle" x="379.683" y="-25.5" font-family="Helvetica,sans-Serif" font-size="10.00">SA_addVehicleToList</text>
</a>
</g>
</g>
<!-- Node2&#45;&gt;Node3 -->
<g id="edge2" class="edge"><title>Node2&#45;&gt;Node3</title>
<path fill="none" stroke="midnightblue" d="M298.812,-28.5C307.227,-28.5 316.014,-28.5 324.552,-28.5"/>
<polygon fill="midnightblue" stroke="midnightblue" points="298.774,-25.0001 288.774,-28.5 298.774,-32.0001 298.774,-25.0001"/>
</g>
<!-- Node4 -->
<g id="node4" class="node"><title>Node4</title>
<g id="a_node4"><a xlink:href="message_parser_8h.html#a37ec21f46c51967253a4e2da9ab6f063" target="_top" xlink:title="Message parser main function. ">
<polygon fill="white" stroke="black" points="617.712,-19.5 617.712,-37.5 719.864,-37.5 719.864,-19.5 617.712,-19.5"/>
<text text-anchor="middle" x="668.788" y="-25.5" font-family="Helvetica,sans-Serif" font-size="10.00">MP_parseMessage</text>
</a>
</g>
</g>
<!-- Node3&#45;&gt;Node4 -->
<g id="edge3" class="edge"><title>Node3&#45;&gt;Node4</title>
<path fill="none" stroke="midnightblue" d="M444.821,-28.5C496.923,-28.5 569.392,-28.5 617.396,-28.5"/>
<polygon fill="midnightblue" stroke="midnightblue" points="444.685,-25.0001 434.685,-28.5 444.685,-32.0001 444.685,-25.0001"/>
</g>
<!-- Node8 -->
<g id="node8" class="node"><title>Node8</title>
<g id="a_node8"><a xlink:href="station_actions_8h.html#a1e710f6898a01da9a953e7fed354c358" target="_top" xlink:title="Function to treat the initial vehicle list message. ">
<polygon fill="white" stroke="black" points="470.663,-0.5 470.663,-18.5 581.712,-18.5 581.712,-0.5 470.663,-0.5"/>
<text text-anchor="middle" x="526.188" y="-6.5" font-family="Helvetica,sans-Serif" font-size="10.00">SA_treatListMessage</text>
</a>
</g>
</g>
<!-- Node3&#45;&gt;Node8 -->
<g id="edge7" class="edge"><title>Node3&#45;&gt;Node8</title>
<path fill="none" stroke="midnightblue" d="M445.036,-20.0386C453.428,-18.9352 461.964,-17.8129 470.183,-16.7322"/>
<polygon fill="midnightblue" stroke="midnightblue" points="444.361,-16.5972 434.902,-21.371 445.273,-23.5375 444.361,-16.5972"/>
</g>
<!-- Node5 -->
<g id="node5" class="node"><title>Node5</title>
<g id="a_node5"><a xlink:href="message_parser_8h.html#a995d4c39c3939fa306e45d06589bf8c0" target="_top" xlink:title="Thread function for the parser thread. ">
<polygon fill="white" stroke="black" points="755.864,-19.5 755.864,-37.5 853.563,-37.5 853.563,-19.5 755.864,-19.5"/>
<text text-anchor="middle" x="804.714" y="-25.5" font-family="Helvetica,sans-Serif" font-size="10.00">MP_ParserThread</text>
</a>
</g>
</g>
<!-- Node4&#45;&gt;Node5 -->
<g id="edge4" class="edge"><title>Node4&#45;&gt;Node5</title>
<path fill="none" stroke="midnightblue" d="M730.071,-28.5C738.707,-28.5 747.491,-28.5 755.844,-28.5"/>
<polygon fill="midnightblue" stroke="midnightblue" points="730.038,-25.0001 720.038,-28.5 730.038,-32.0001 730.038,-25.0001"/>
</g>
<!-- Node6 -->
<g id="node6" class="node"><title>Node6</title>
<g id="a_node6"><a xlink:href="message_parser_8h.html#a0a5ee1ec225573ebc80059d6bce9e0d6" target="_top" xlink:title="Parser thread initializer. ">
<polygon fill="white" stroke="black" points="889.563,-19.5 889.563,-37.5 968.361,-37.5 968.361,-19.5 889.563,-19.5"/>
<text text-anchor="middle" x="928.962" y="-25.5" font-family="Helvetica,sans-Serif" font-size="10.00">MP_initParser</text>
</a>
</g>
</g>
<!-- Node5&#45;&gt;Node6 -->
<g id="edge5" class="edge"><title>Node5&#45;&gt;Node6</title>
<path fill="none" stroke="midnightblue" d="M863.733,-28.5C872.366,-28.5 881.081,-28.5 889.188,-28.5"/>
<polygon fill="midnightblue" stroke="midnightblue" points="863.679,-25.0001 853.679,-28.5 863.679,-32.0001 863.679,-25.0001"/>
</g>
<!-- Node7 -->
<g id="node7" class="node"><title>Node7</title>
<g id="a_node7"><a xlink:href="main_8c.html#ac0f2228420376f4db7e1274f2b41667c" target="_top" xlink:title="main">
<polygon fill="white" stroke="black" points="1004.36,-19.5 1004.36,-37.5 1042.04,-37.5 1042.04,-19.5 1004.36,-19.5"/>
<text text-anchor="middle" x="1023.2" y="-25.5" font-family="Helvetica,sans-Serif" font-size="10.00">main</text>
</a>
</g>
</g>
<!-- Node6&#45;&gt;Node7 -->
<g id="edge6" class="edge"><title>Node6&#45;&gt;Node7</title>
<path fill="none" stroke="midnightblue" d="M978.677,-28.5C987.668,-28.5 996.526,-28.5 1003.88,-28.5"/>
<polygon fill="midnightblue" stroke="midnightblue" points="978.545,-25.0001 968.544,-28.5 978.544,-32.0001 978.545,-25.0001"/>
</g>
<!-- Node8&#45;&gt;Node4 -->
<g id="edge8" class="edge"><title>Node8&#45;&gt;Node4</title>
<path fill="none" stroke="midnightblue" d="M591.952,-18.2519C600.542,-19.4127 609.242,-20.5884 617.537,-21.7093"/>
<polygon fill="midnightblue" stroke="midnightblue" points="592.329,-14.7711 581.95,-16.9003 591.391,-21.708 592.329,-14.7711"/>
</g>
</g>
</svg>
