<?xml version="1.0" encoding="UTF-8" standalone="no"?>
<!DOCTYPE svg PUBLIC "-//W3C//DTD SVG 1.1//EN"
 "http://www.w3.org/Graphics/SVG/1.1/DTD/svg11.dtd">
<!-- Generated by graphviz version 2.38.0 (20140413.2041)
 -->
<!-- Title: VSC_inboundHandlerThreadFunc Pages: 1 -->
<svg width="735pt" height="27pt"
 viewBox="0.00 0.00 735.07 27.00" xmlns="http://www.w3.org/2000/svg" xmlns:xlink="http://www.w3.org/1999/xlink">
<g id="graph0" class="graph" transform="scale(1 1) rotate(0) translate(4 23)">
<title>VSC_inboundHandlerThreadFunc</title>
<polygon fill="white" stroke="none" points="-4,4 -4,-23 731.066,-23 731.066,4 -4,4"/>
<!-- Node1 -->
<g id="node1" class="node"><title>Node1</title>
<polygon fill="#bfbfbf" stroke="black" points="0,-0.5 0,-18.5 166.649,-18.5 166.649,-0.5 0,-0.5"/>
<text text-anchor="middle" x="83.3247" y="-6.5" font-family="Helvetica,sans-Serif" font-size="10.00">VSC_inboundHandlerThreadFunc</text>
</g>
<!-- Node2 -->
<g id="node2" class="node"><title>Node2</title>
<g id="a_node2"><a xlink:href="tcp_vehicle_socket_comm_8h.html#a3ec3f2c1297ab45cb0ad39f925a4bce5" target="_top" xlink:title="Accept the new connections from vehicles. ">
<polygon fill="white" stroke="black" points="202.649,-0.5 202.649,-18.5 329.826,-18.5 329.826,-0.5 202.649,-0.5"/>
<text text-anchor="middle" x="266.238" y="-6.5" font-family="Helvetica,sans-Serif" font-size="10.00">VSC_acceptConnections</text>
</a>
</g>
</g>
<!-- Node1&#45;&gt;Node2 -->
<g id="edge1" class="edge"><title>Node1&#45;&gt;Node2</title>
<path fill="none" stroke="midnightblue" d="M177.009,-9.5C185.677,-9.5 194.318,-9.5 202.613,-9.5"/>
<polygon fill="midnightblue" stroke="midnightblue" points="176.84,-6.0001 166.84,-9.5 176.84,-13.0001 176.84,-6.0001"/>
</g>
<!-- Node3 -->
<g id="node3" class="node"><title>Node3</title>
<g id="a_node3"><a xlink:href="tcp_vehicle_socket_comm_8h.html#a49fe9e8bc1bd13ac909ae2b7d2391886" target="_top" xlink:title="Initialize the vehicle comunication server. ">
<polygon fill="white" stroke="black" points="365.826,-0.5 365.826,-18.5 482.437,-18.5 482.437,-0.5 365.826,-0.5"/>
<text text-anchor="middle" x="424.131" y="-6.5" font-family="Helvetica,sans-Serif" font-size="10.00">VSC_initVehicleServer</text>
</a>
</g>
</g>
<!-- Node2&#45;&gt;Node3 -->
<g id="edge2" class="edge"><title>Node2&#45;&gt;Node3</title>
<path fill="none" stroke="midnightblue" d="M340.399,-9.5C348.816,-9.5 357.307,-9.5 365.479,-9.5"/>
<polygon fill="midnightblue" stroke="midnightblue" points="340.196,-6.0001 330.196,-9.5 340.196,-13.0001 340.196,-6.0001"/>
</g>
<!-- Node4 -->
<g id="node4" class="node"><title>Node4</title>
<g id="a_node4"><a xlink:href="main_8c.html#ae346112f7679ae0199c3158f6624fd8b" target="_top" xlink:title="Thread for controlling the vehicle server initialization and shutdown. ">
<polygon fill="white" stroke="black" points="518.437,-0.5 518.437,-18.5 653.392,-18.5 653.392,-0.5 518.437,-0.5"/>
<text text-anchor="middle" x="585.914" y="-6.5" font-family="Helvetica,sans-Serif" font-size="10.00">vehicleConnControlThread</text>
</a>
</g>
</g>
<!-- Node3&#45;&gt;Node4 -->
<g id="edge3" class="edge"><title>Node3&#45;&gt;Node4</title>
<path fill="none" stroke="midnightblue" d="M492.959,-9.5C501.369,-9.5 509.961,-9.5 518.352,-9.5"/>
<polygon fill="midnightblue" stroke="midnightblue" points="492.817,-6.0001 482.817,-9.5 492.817,-13.0001 492.817,-6.0001"/>
</g>
<!-- Node5 -->
<g id="node5" class="node"><title>Node5</title>
<g id="a_node5"><a xlink:href="main_8c.html#ac0f2228420376f4db7e1274f2b41667c" target="_top" xlink:title="main">
<polygon fill="white" stroke="black" points="689.392,-0.5 689.392,-18.5 727.066,-18.5 727.066,-0.5 689.392,-0.5"/>
<text text-anchor="middle" x="708.229" y="-6.5" font-family="Helvetica,sans-Serif" font-size="10.00">main</text>
</a>
</g>
</g>
<!-- Node4&#45;&gt;Node5 -->
<g id="edge4" class="edge"><title>Node4&#45;&gt;Node5</title>
<path fill="none" stroke="midnightblue" d="M663.534,-9.5C673.088,-9.5 682.042,-9.5 689.326,-9.5"/>
<polygon fill="midnightblue" stroke="midnightblue" points="663.406,-6.0001 653.406,-9.5 663.406,-13.0001 663.406,-6.0001"/>
</g>
</g>
</svg>
