<?xml version="1.0" encoding="UTF-8" standalone="no"?>
<!DOCTYPE svg PUBLIC "-//W3C//DTD SVG 1.1//EN"
 "http://www.w3.org/Graphics/SVG/1.1/DTD/svg11.dtd">
<!-- Generated by graphviz version 2.38.0 (20140413.2041)
 -->
<!-- Title: rasPi&#45;EmergencyStation/tcpServerSocketComm.h Pages: 1 -->
<svg width="746pt" height="427pt"
 viewBox="0.00 0.00 746.23 427.00" xmlns="http://www.w3.org/2000/svg" xmlns:xlink="http://www.w3.org/1999/xlink">
<g id="graph0" class="graph" transform="scale(1 1) rotate(0) translate(4 423)">
<title>rasPi&#45;EmergencyStation/tcpServerSocketComm.h</title>
<polygon fill="white" stroke="none" points="-4,4 -4,-423 742.23,-423 742.23,4 -4,4"/>
<!-- Node1 -->
<g id="node1" class="node"><title>Node1</title>
<polygon fill="#bfbfbf" stroke="black" points="387.585,-390.5 387.585,-418.5 517.51,-418.5 517.51,-390.5 387.585,-390.5"/>
<text text-anchor="start" x="395.585" y="-406.5" font-family="Helvetica,sans-Serif" font-size="10.00">rasPi&#45;EmergencyStation</text>
<text text-anchor="middle" x="452.548" y="-396.5" font-family="Helvetica,sans-Serif" font-size="10.00">/tcpServerSocketComm.h</text>
</g>
<!-- Node2 -->
<g id="node2" class="node"><title>Node2</title>
<g id="a_node2"><a xlink:href="station_actions_8h.html" target="_top" xlink:title="FIle containing all the station action headers. ">
<polygon fill="white" stroke="black" points="262.636,-325.5 262.636,-353.5 386.459,-353.5 386.459,-325.5 262.636,-325.5"/>
<text text-anchor="start" x="270.636" y="-341.5" font-family="Helvetica,sans-Serif" font-size="10.00">rasPi&#45;EmergencyStation</text>
<text text-anchor="middle" x="324.548" y="-331.5" font-family="Helvetica,sans-Serif" font-size="10.00">/stationActions.h</text>
</a>
</g>
</g>
<!-- Node1&#45;&gt;Node2 -->
<g id="edge1" class="edge"><title>Node1&#45;&gt;Node2</title>
<path fill="none" stroke="midnightblue" d="M416.834,-385.922C395.967,-375.652 370.078,-362.909 351.035,-353.537"/>
<polygon fill="midnightblue" stroke="midnightblue" points="415.508,-389.171 426.026,-390.446 418.599,-382.89 415.508,-389.171"/>
</g>
<!-- Node4 -->
<g id="node4" class="node"><title>Node4</title>
<g id="a_node4"><a xlink:href="main_8h.html" target="_top" xlink:title="Main file&#39;s headers of the emergency station application. ">
<polygon fill="white" stroke="black" points="489.636,-65.5 489.636,-93.5 613.459,-93.5 613.459,-65.5 489.636,-65.5"/>
<text text-anchor="start" x="497.636" y="-81.5" font-family="Helvetica,sans-Serif" font-size="10.00">rasPi&#45;EmergencyStation</text>
<text text-anchor="middle" x="551.548" y="-71.5" font-family="Helvetica,sans-Serif" font-size="10.00">/main.h</text>
</a>
</g>
</g>
<!-- Node1&#45;&gt;Node4 -->
<g id="edge21" class="edge"><title>Node1&#45;&gt;Node4</title>
<path fill="none" stroke="midnightblue" d="M490.833,-385.443C528.546,-364.691 580.548,-326.78 580.548,-275.5 580.548,-275.5 580.548,-275.5 580.548,-208.5 580.548,-165.663 564.908,-116.712 556.599,-93.7287"/>
<polygon fill="midnightblue" stroke="midnightblue" points="488.785,-382.567 481.593,-390.347 492.067,-388.75 488.785,-382.567"/>
</g>
<!-- Node14 -->
<g id="node14" class="node"><title>Node14</title>
<g id="a_node14"><a xlink:href="tcp_server_socket_comm_8c.html" target="_top" xlink:title="Server connection related function headers. ">
<polygon fill="white" stroke="black" points="608.865,-325.5 608.865,-353.5 738.23,-353.5 738.23,-325.5 608.865,-325.5"/>
<text text-anchor="start" x="616.865" y="-341.5" font-family="Helvetica,sans-Serif" font-size="10.00">rasPi&#45;EmergencyStation</text>
<text text-anchor="middle" x="673.548" y="-331.5" font-family="Helvetica,sans-Serif" font-size="10.00">/tcpServerSocketComm.c</text>
</a>
</g>
</g>
<!-- Node1&#45;&gt;Node14 -->
<g id="edge22" class="edge"><title>Node1&#45;&gt;Node14</title>
<path fill="none" stroke="midnightblue" d="M507.973,-387.7C544.962,-377.156 593.012,-363.458 627.815,-353.537"/>
<polygon fill="midnightblue" stroke="midnightblue" points="506.996,-384.339 498.339,-390.446 508.915,-391.071 506.996,-384.339"/>
</g>
<!-- Node3 -->
<g id="node3" class="node"><title>Node3</title>
<g id="a_node3"><a xlink:href="message_parser_8h.html" target="_top" xlink:title="Message parser function headers. ">
<polygon fill="white" stroke="black" points="262.636,-260.5 262.636,-288.5 386.459,-288.5 386.459,-260.5 262.636,-260.5"/>
<text text-anchor="start" x="270.636" y="-276.5" font-family="Helvetica,sans-Serif" font-size="10.00">rasPi&#45;EmergencyStation</text>
<text text-anchor="middle" x="324.548" y="-266.5" font-family="Helvetica,sans-Serif" font-size="10.00">/messageParser.h</text>
</a>
</g>
</g>
<!-- Node2&#45;&gt;Node3 -->
<g id="edge2" class="edge"><title>Node2&#45;&gt;Node3</title>
<path fill="none" stroke="midnightblue" d="M318.019,-315.46C317.534,-306.388 317.846,-296.305 318.957,-288.537"/>
<polygon fill="midnightblue" stroke="midnightblue" points="314.537,-315.817 318.955,-325.446 321.506,-315.163 314.537,-315.817"/>
</g>
<!-- Node13 -->
<g id="node13" class="node"><title>Node13</title>
<g id="a_node13"><a xlink:href="station_actions_8c.html" target="_top" xlink:title="FIle containing all the station action definitions. ">
<polygon fill="white" stroke="black" points="18.6365,-260.5 18.6365,-288.5 142.459,-288.5 142.459,-260.5 18.6365,-260.5"/>
<text text-anchor="start" x="26.6365" y="-276.5" font-family="Helvetica,sans-Serif" font-size="10.00">rasPi&#45;EmergencyStation</text>
<text text-anchor="middle" x="80.5476" y="-266.5" font-family="Helvetica,sans-Serif" font-size="10.00">/stationActions.c</text>
</a>
</g>
</g>
<!-- Node2&#45;&gt;Node13 -->
<g id="edge20" class="edge"><title>Node2&#45;&gt;Node13</title>
<path fill="none" stroke="midnightblue" d="M264.135,-322.902C223.194,-312.331 169.71,-298.521 131.04,-288.537"/>
<polygon fill="midnightblue" stroke="midnightblue" points="263.433,-326.335 273.991,-325.446 265.183,-319.557 263.433,-326.335"/>
</g>
<!-- Node3&#45;&gt;Node2 -->
<g id="edge18" class="edge"><title>Node3&#45;&gt;Node2</title>
<path fill="none" stroke="midnightblue" d="M331.075,-298.52C331.562,-307.591 331.25,-317.675 330.14,-325.446"/>
<polygon fill="midnightblue" stroke="midnightblue" points="334.558,-298.166 330.138,-288.537 327.588,-298.82 334.558,-298.166"/>
</g>
<!-- Node3&#45;&gt;Node4 -->
<g id="edge3" class="edge"><title>Node3&#45;&gt;Node4</title>
<path fill="none" stroke="midnightblue" d="M396.787,-264.583C427.093,-257.711 460.935,-245.543 485.548,-224 526.403,-188.239 543.542,-121.953 549.211,-93.7533"/>
<polygon fill="midnightblue" stroke="midnightblue" points="395.727,-261.229 386.663,-266.716 397.17,-268.079 395.727,-261.229"/>
</g>
<!-- Node6 -->
<g id="node6" class="node"><title>Node6</title>
<g id="a_node6"><a xlink:href="msg_buffers_8h.html" target="_top" xlink:title="File containing the headers of all functions related to the message mailboxes. ">
<polygon fill="white" stroke="black" points="172.636,-195.5 172.636,-223.5 296.459,-223.5 296.459,-195.5 172.636,-195.5"/>
<text text-anchor="start" x="180.636" y="-211.5" font-family="Helvetica,sans-Serif" font-size="10.00">rasPi&#45;EmergencyStation</text>
<text text-anchor="middle" x="234.548" y="-201.5" font-family="Helvetica,sans-Serif" font-size="10.00">/msgBuffers.h</text>
</a>
</g>
</g>
<!-- Node3&#45;&gt;Node6 -->
<g id="edge5" class="edge"><title>Node3&#45;&gt;Node6</title>
<path fill="none" stroke="midnightblue" d="M291.609,-254.803C276.364,-244.738 259.196,-232.572 247.581,-223.537"/>
<polygon fill="midnightblue" stroke="midnightblue" points="290.013,-257.939 300.307,-260.446 293.823,-252.067 290.013,-257.939"/>
</g>
<!-- Node12 -->
<g id="node12" class="node"><title>Node12</title>
<g id="a_node12"><a xlink:href="message_parser_8c.html" target="_top" xlink:title="Message parser functions definition. ">
<polygon fill="white" stroke="black" points="352.636,-195.5 352.636,-223.5 476.459,-223.5 476.459,-195.5 352.636,-195.5"/>
<text text-anchor="start" x="360.636" y="-211.5" font-family="Helvetica,sans-Serif" font-size="10.00">rasPi&#45;EmergencyStation</text>
<text text-anchor="middle" x="414.548" y="-201.5" font-family="Helvetica,sans-Serif" font-size="10.00">/messageParser.c</text>
</a>
</g>
</g>
<!-- Node3&#45;&gt;Node12 -->
<g id="edge19" class="edge"><title>Node3&#45;&gt;Node12</title>
<path fill="none" stroke="midnightblue" d="M351.662,-254.52C365.961,-244.511 383.137,-232.487 395.923,-223.537"/>
<polygon fill="midnightblue" stroke="midnightblue" points="349.381,-251.844 343.196,-260.446 353.395,-257.579 349.381,-251.844"/>
</g>
<!-- Node5 -->
<g id="node5" class="node"><title>Node5</title>
<g id="a_node5"><a xlink:href="main_8c.html" target="_top" xlink:title="Main file and functions of the emergency station application. ">
<polygon fill="white" stroke="black" points="489.636,-0.5 489.636,-28.5 613.459,-28.5 613.459,-0.5 489.636,-0.5"/>
<text text-anchor="start" x="497.636" y="-16.5" font-family="Helvetica,sans-Serif" font-size="10.00">rasPi&#45;EmergencyStation</text>
<text text-anchor="middle" x="551.548" y="-6.5" font-family="Helvetica,sans-Serif" font-size="10.00">/main.c</text>
</a>
</g>
</g>
<!-- Node4&#45;&gt;Node5 -->
<g id="edge4" class="edge"><title>Node4&#45;&gt;Node5</title>
<path fill="none" stroke="midnightblue" d="M551.548,-55.1641C551.548,-46.1693 551.548,-36.2205 551.548,-28.5369"/>
<polygon fill="midnightblue" stroke="midnightblue" points="548.048,-55.4463 551.548,-65.4464 555.048,-55.4464 548.048,-55.4463"/>
</g>
<!-- Node6&#45;&gt;Node1 -->
<g id="edge13" class="edge"><title>Node6&#45;&gt;Node1</title>
<path fill="none" stroke="midnightblue" d="M162.26,-212.168C81.2303,-216.736 -33.5449,-232.925 9.54761,-289 55.3499,-348.601 275.533,-382.656 387.241,-396.362"/>
<polygon fill="midnightblue" stroke="midnightblue" points="162.65,-215.653 172.457,-211.644 162.291,-208.662 162.65,-215.653"/>
</g>
<!-- Node6&#45;&gt;Node2 -->
<g id="edge12" class="edge"><title>Node6&#45;&gt;Node2</title>
<path fill="none" stroke="midnightblue" d="M235.813,-233.588C237.698,-250.235 242.316,-272.573 253.548,-289 264.319,-304.753 281.876,-317.059 296.836,-325.46"/>
<polygon fill="midnightblue" stroke="midnightblue" points="239.296,-233.241 234.927,-223.59 232.323,-233.86 239.296,-233.241"/>
</g>
<!-- Node6&#45;&gt;Node3 -->
<g id="edge6" class="edge"><title>Node6&#45;&gt;Node3</title>
<path fill="none" stroke="midnightblue" d="M267.458,-229.179C282.701,-239.241 299.871,-251.408 311.492,-260.446"/>
<polygon fill="midnightblue" stroke="midnightblue" points="269.056,-226.044 258.762,-223.537 265.246,-231.916 269.056,-226.044"/>
</g>
<!-- Node7 -->
<g id="node7" class="node"><title>Node7</title>
<g id="a_node7"><a xlink:href="tcp_vehicle_socket_comm_8h.html" target="_top" xlink:title="Vehicle connection server&#39;s headers. ">
<polygon fill="white" stroke="black" points="348.186,-130.5 348.186,-158.5 480.909,-158.5 480.909,-130.5 348.186,-130.5"/>
<text text-anchor="start" x="356.186" y="-146.5" font-family="Helvetica,sans-Serif" font-size="10.00">rasPi&#45;EmergencyStation</text>
<text text-anchor="middle" x="414.548" y="-136.5" font-family="Helvetica,sans-Serif" font-size="10.00">/tcpVehicleSocketComm.h</text>
</a>
</g>
</g>
<!-- Node6&#45;&gt;Node7 -->
<g id="edge7" class="edge"><title>Node6&#45;&gt;Node7</title>
<path fill="none" stroke="midnightblue" d="M281.625,-192.023C311.477,-181.575 349.556,-168.247 377.299,-158.537"/>
<polygon fill="midnightblue" stroke="midnightblue" points="280.126,-188.839 271.844,-195.446 282.439,-195.446 280.126,-188.839"/>
</g>
<!-- Node9 -->
<g id="node9" class="node"><title>Node9</title>
<g id="a_node9"><a xlink:href="mcast_messaging_8h.html" target="_top" xlink:title="FIle containing all the headers of the functions related to multicast communication. ">
<polygon fill="white" stroke="black" points="64.6365,-130.5 64.6365,-158.5 188.459,-158.5 188.459,-130.5 64.6365,-130.5"/>
<text text-anchor="start" x="72.6365" y="-146.5" font-family="Helvetica,sans-Serif" font-size="10.00">rasPi&#45;EmergencyStation</text>
<text text-anchor="middle" x="126.548" y="-136.5" font-family="Helvetica,sans-Serif" font-size="10.00">/mcastMessaging.h</text>
</a>
</g>
</g>
<!-- Node6&#45;&gt;Node9 -->
<g id="edge14" class="edge"><title>Node6&#45;&gt;Node9</title>
<path fill="none" stroke="midnightblue" d="M203.459,-190.365C186.023,-180.194 164.674,-167.74 148.897,-158.537"/>
<polygon fill="midnightblue" stroke="midnightblue" points="201.769,-193.431 212.17,-195.446 205.296,-187.384 201.769,-193.431"/>
</g>
<!-- Node11 -->
<g id="node11" class="node"><title>Node11</title>
<g id="a_node11"><a xlink:href="msg_buffers_8c.html" target="_top" xlink:title="File containing the definitions of all functions related to the message mailboxes. ">
<polygon fill="white" stroke="black" points="206.636,-130.5 206.636,-158.5 330.459,-158.5 330.459,-130.5 206.636,-130.5"/>
<text text-anchor="start" x="214.636" y="-146.5" font-family="Helvetica,sans-Serif" font-size="10.00">rasPi&#45;EmergencyStation</text>
<text text-anchor="middle" x="268.548" y="-136.5" font-family="Helvetica,sans-Serif" font-size="10.00">/msgBuffers.c</text>
</a>
</g>
</g>
<!-- Node6&#45;&gt;Node11 -->
<g id="edge17" class="edge"><title>Node6&#45;&gt;Node11</title>
<path fill="none" stroke="midnightblue" d="M246.346,-186.638C251.402,-177.269 257.137,-166.643 261.512,-158.537"/>
<polygon fill="midnightblue" stroke="midnightblue" points="243.262,-184.984 241.592,-195.446 249.422,-188.308 243.262,-184.984"/>
</g>
<!-- Node7&#45;&gt;Node2 -->
<g id="edge9" class="edge"><title>Node7&#45;&gt;Node2</title>
<path fill="none" stroke="midnightblue" d="M454.45,-163.832C466.691,-171.595 478.723,-181.922 485.548,-195 491.511,-206.427 491.415,-212.524 485.548,-224 459.315,-275.305 398.176,-308.583 359.242,-325.4"/>
<polygon fill="midnightblue" stroke="midnightblue" points="455.968,-160.665 445.571,-158.63 452.43,-166.705 455.968,-160.665"/>
</g>
<!-- Node7&#45;&gt;Node3 -->
<g id="edge8" class="edge"><title>Node7&#45;&gt;Node3</title>
<path fill="none" stroke="midnightblue" d="M378.209,-163.674C365.531,-171.677 352.299,-182.2 343.548,-195 329.856,-215.025 325.993,-243.834 324.927,-260.41"/>
<polygon fill="midnightblue" stroke="midnightblue" points="380.033,-166.662 386.836,-158.54 376.453,-160.646 380.033,-166.662"/>
</g>
<!-- Node7&#45;&gt;Node4 -->
<g id="edge10" class="edge"><title>Node7&#45;&gt;Node4</title>
<path fill="none" stroke="midnightblue" d="M452.17,-126.199C474.606,-115.882 502.633,-102.994 523.197,-93.5369"/>
<polygon fill="midnightblue" stroke="midnightblue" points="450.557,-123.088 442.934,-130.446 453.482,-129.448 450.557,-123.088"/>
</g>
<!-- Node8 -->
<g id="node8" class="node"><title>Node8</title>
<g id="a_node8"><a xlink:href="tcp_vehicle_socket_comm_8c.html" target="_top" xlink:title="Vehicle connection server related function definitions. ">
<polygon fill="white" stroke="black" points="339.467,-65.5 339.467,-93.5 471.629,-93.5 471.629,-65.5 339.467,-65.5"/>
<text text-anchor="start" x="347.467" y="-81.5" font-family="Helvetica,sans-Serif" font-size="10.00">rasPi&#45;EmergencyStation</text>
<text text-anchor="middle" x="405.548" y="-71.5" font-family="Helvetica,sans-Serif" font-size="10.00">/tcpVehicleSocketComm.c</text>
</a>
</g>
</g>
<!-- Node7&#45;&gt;Node8 -->
<g id="edge11" class="edge"><title>Node7&#45;&gt;Node8</title>
<path fill="none" stroke="midnightblue" d="M411.256,-120.46C409.96,-111.388 408.52,-101.305 407.41,-93.5369"/>
<polygon fill="midnightblue" stroke="midnightblue" points="407.804,-121.042 412.683,-130.446 414.733,-120.052 407.804,-121.042"/>
</g>
<!-- Node9&#45;&gt;Node2 -->
<g id="edge15" class="edge"><title>Node9&#45;&gt;Node2</title>
<path fill="none" stroke="midnightblue" d="M134.312,-168.016C140.643,-184.487 150.641,-206.854 163.548,-224 199.44,-271.682 260.919,-307.442 296.622,-325.459"/>
<polygon fill="midnightblue" stroke="midnightblue" points="137.592,-166.795 130.85,-158.621 131.024,-169.215 137.592,-166.795"/>
</g>
<!-- Node10 -->
<g id="node10" class="node"><title>Node10</title>
<g id="a_node10"><a xlink:href="mcast_messaging_8c.html" target="_top" xlink:title="FIle containing all the definition of the functions related to multicast communication. ">
<polygon fill="white" stroke="black" points="64.6365,-65.5 64.6365,-93.5 188.459,-93.5 188.459,-65.5 64.6365,-65.5"/>
<text text-anchor="start" x="72.6365" y="-81.5" font-family="Helvetica,sans-Serif" font-size="10.00">rasPi&#45;EmergencyStation</text>
<text text-anchor="middle" x="126.548" y="-71.5" font-family="Helvetica,sans-Serif" font-size="10.00">/mcastMessaging.c</text>
</a>
</g>
</g>
<!-- Node9&#45;&gt;Node10 -->
<g id="edge16" class="edge"><title>Node9&#45;&gt;Node10</title>
<path fill="none" stroke="midnightblue" d="M126.548,-120.164C126.548,-111.169 126.548,-101.221 126.548,-93.5369"/>
<polygon fill="midnightblue" stroke="midnightblue" points="123.048,-120.446 126.548,-130.446 130.048,-120.446 123.048,-120.446"/>
</g>
</g>
</svg>
