<?xml version="1.0" encoding="UTF-8" standalone="no"?>
<!DOCTYPE svg PUBLIC "-//W3C//DTD SVG 1.1//EN"
 "http://www.w3.org/Graphics/SVG/1.1/DTD/svg11.dtd">
<!-- Generated by graphviz version 2.38.0 (20140413.2041)
 -->
<!-- Title: rasPi&#45;EmergencyStation/tcpVehicleSocketComm.h Pages: 1 -->
<svg width="695pt" height="362pt"
 viewBox="0.00 0.00 694.82 362.00" xmlns="http://www.w3.org/2000/svg" xmlns:xlink="http://www.w3.org/1999/xlink">
<g id="graph0" class="graph" transform="scale(1 1) rotate(0) translate(4 358)">
<title>rasPi&#45;EmergencyStation/tcpVehicleSocketComm.h</title>
<polygon fill="white" stroke="none" points="-4,4 -4,-358 690.822,-358 690.822,4 -4,4"/>
<!-- Node1 -->
<g id="node1" class="node"><title>Node1</title>
<polygon fill="#bfbfbf" stroke="black" points="280.549,-325.5 280.549,-353.5 413.273,-353.5 413.273,-325.5 280.549,-325.5"/>
<text text-anchor="start" x="288.549" y="-341.5" font-family="Helvetica,sans-Serif" font-size="10.00">rasPi&#45;EmergencyStation</text>
<text text-anchor="middle" x="346.911" y="-331.5" font-family="Helvetica,sans-Serif" font-size="10.00">/tcpVehicleSocketComm.h</text>
</g>
<!-- Node2 -->
<g id="node2" class="node"><title>Node2</title>
<g id="a_node2"><a xlink:href="message_parser_8h.html" target="_top" xlink:title="Message parser function headers. ">
<polygon fill="white" stroke="black" points="195,-260.5 195,-288.5 318.822,-288.5 318.822,-260.5 195,-260.5"/>
<text text-anchor="start" x="203" y="-276.5" font-family="Helvetica,sans-Serif" font-size="10.00">rasPi&#45;EmergencyStation</text>
<text text-anchor="middle" x="256.911" y="-266.5" font-family="Helvetica,sans-Serif" font-size="10.00">/messageParser.h</text>
</a>
</g>
</g>
<!-- Node1&#45;&gt;Node2 -->
<g id="edge1" class="edge"><title>Node1&#45;&gt;Node2</title>
<path fill="none" stroke="midnightblue" d="M319.797,-319.52C305.498,-309.511 288.321,-297.487 275.535,-288.537"/>
<polygon fill="midnightblue" stroke="midnightblue" points="318.064,-322.579 328.263,-325.446 322.078,-316.844 318.064,-322.579"/>
</g>
<!-- Node3 -->
<g id="node3" class="node"><title>Node3</title>
<g id="a_node3"><a xlink:href="main_8h.html" target="_top" xlink:title="Main file&#39;s headers of the emergency station application. ">
<polygon fill="white" stroke="black" points="0,-65.5 0,-93.5 123.822,-93.5 123.822,-65.5 0,-65.5"/>
<text text-anchor="start" x="8" y="-81.5" font-family="Helvetica,sans-Serif" font-size="10.00">rasPi&#45;EmergencyStation</text>
<text text-anchor="middle" x="61.9111" y="-71.5" font-family="Helvetica,sans-Serif" font-size="10.00">/main.h</text>
</a>
</g>
</g>
<!-- Node1&#45;&gt;Node3 -->
<g id="edge21" class="edge"><title>Node1&#45;&gt;Node3</title>
<path fill="none" stroke="midnightblue" d="M270.1,-336.493C191.183,-329.792 72.1638,-305.733 15.9111,-224 -13.0122,-181.976 28.8173,-120.712 50.3938,-93.9019"/>
<polygon fill="midnightblue" stroke="midnightblue" points="270.238,-340.014 280.478,-337.294 270.777,-333.035 270.238,-340.014"/>
</g>
<!-- Node6 -->
<g id="node6" class="node"><title>Node6</title>
<g id="a_node6"><a xlink:href="station_actions_8h.html" target="_top" xlink:title="FIle containing all the station action headers. ">
<polygon fill="white" stroke="black" points="291,-65.5 291,-93.5 414.822,-93.5 414.822,-65.5 291,-65.5"/>
<text text-anchor="start" x="299" y="-81.5" font-family="Helvetica,sans-Serif" font-size="10.00">rasPi&#45;EmergencyStation</text>
<text text-anchor="middle" x="352.911" y="-71.5" font-family="Helvetica,sans-Serif" font-size="10.00">/stationActions.h</text>
</a>
</g>
</g>
<!-- Node1&#45;&gt;Node6 -->
<g id="edge20" class="edge"><title>Node1&#45;&gt;Node6</title>
<path fill="none" stroke="midnightblue" d="M423.333,-325.34C462.445,-316.884 504.252,-304.564 515.911,-289 558.279,-232.443 557.999,-186.766 515.911,-130 492.837,-98.8779 450.695,-86.6454 415.042,-82.1198"/>
<polygon fill="midnightblue" stroke="midnightblue" points="422.538,-321.93 413.467,-327.406 423.973,-328.782 422.538,-321.93"/>
</g>
<!-- Node14 -->
<g id="node14" class="node"><title>Node14</title>
<g id="a_node14"><a xlink:href="tcp_vehicle_socket_comm_8c.html" target="_top" xlink:title="Vehicle connection server related function definitions. ">
<polygon fill="white" stroke="black" points="374.83,-260.5 374.83,-288.5 506.992,-288.5 506.992,-260.5 374.83,-260.5"/>
<text text-anchor="start" x="382.83" y="-276.5" font-family="Helvetica,sans-Serif" font-size="10.00">rasPi&#45;EmergencyStation</text>
<text text-anchor="middle" x="440.911" y="-266.5" font-family="Helvetica,sans-Serif" font-size="10.00">/tcpVehicleSocketComm.c</text>
</a>
</g>
</g>
<!-- Node1&#45;&gt;Node14 -->
<g id="edge22" class="edge"><title>Node1&#45;&gt;Node14</title>
<path fill="none" stroke="midnightblue" d="M374.809,-319.803C389.826,-309.738 407.979,-297.572 421.459,-288.537"/>
<polygon fill="midnightblue" stroke="midnightblue" points="372.746,-316.972 366.388,-325.446 376.643,-322.786 372.746,-316.972"/>
</g>
<!-- Node2&#45;&gt;Node3 -->
<g id="edge2" class="edge"><title>Node2&#45;&gt;Node3</title>
<path fill="none" stroke="midnightblue" d="M233.745,-253.537C208.152,-231.198 166.044,-193.592 131.911,-159 110.108,-136.904 86.3939,-109.537 72.9212,-93.644"/>
<polygon fill="midnightblue" stroke="midnightblue" points="231.6,-256.31 241.443,-260.23 236.193,-251.027 231.6,-256.31"/>
</g>
<!-- Node5 -->
<g id="node5" class="node"><title>Node5</title>
<g id="a_node5"><a xlink:href="msg_buffers_8h.html" target="_top" xlink:title="File containing the headers of all functions related to the message mailboxes. ">
<polygon fill="white" stroke="black" points="337,-195.5 337,-223.5 460.822,-223.5 460.822,-195.5 337,-195.5"/>
<text text-anchor="start" x="345" y="-211.5" font-family="Helvetica,sans-Serif" font-size="10.00">rasPi&#45;EmergencyStation</text>
<text text-anchor="middle" x="398.911" y="-201.5" font-family="Helvetica,sans-Serif" font-size="10.00">/msgBuffers.h</text>
</a>
</g>
</g>
<!-- Node2&#45;&gt;Node5 -->
<g id="edge4" class="edge"><title>Node2&#45;&gt;Node5</title>
<path fill="none" stroke="midnightblue" d="M289.807,-256.199C312.05,-245.882 341.268,-232.994 363.936,-223.537"/>
<polygon fill="midnightblue" stroke="midnightblue" points="288.312,-253.035 280.741,-260.446 291.281,-259.374 288.312,-253.035"/>
</g>
<!-- Node2&#45;&gt;Node6 -->
<g id="edge18" class="edge"><title>Node2&#45;&gt;Node6</title>
<path fill="none" stroke="midnightblue" d="M263.623,-250.896C280.607,-210.243 322.809,-126.013 342.781,-93.6033"/>
<polygon fill="midnightblue" stroke="midnightblue" points="260.352,-249.65 259.878,-260.234 266.849,-252.256 260.352,-249.65"/>
</g>
<!-- Node13 -->
<g id="node13" class="node"><title>Node13</title>
<g id="a_node13"><a xlink:href="message_parser_8c.html" target="_top" xlink:title="Message parser functions definition. ">
<polygon fill="white" stroke="black" points="25,-195.5 25,-223.5 148.822,-223.5 148.822,-195.5 25,-195.5"/>
<text text-anchor="start" x="33" y="-211.5" font-family="Helvetica,sans-Serif" font-size="10.00">rasPi&#45;EmergencyStation</text>
<text text-anchor="middle" x="86.9111" y="-201.5" font-family="Helvetica,sans-Serif" font-size="10.00">/messageParser.c</text>
</a>
</g>
</g>
<!-- Node2&#45;&gt;Node13 -->
<g id="edge19" class="edge"><title>Node2&#45;&gt;Node13</title>
<path fill="none" stroke="midnightblue" d="M212.081,-256.886C183.943,-246.459 148.178,-233.205 122.09,-223.537"/>
<polygon fill="midnightblue" stroke="midnightblue" points="211.094,-260.253 221.687,-260.446 213.526,-253.689 211.094,-260.253"/>
</g>
<!-- Node4 -->
<g id="node4" class="node"><title>Node4</title>
<g id="a_node4"><a xlink:href="main_8c.html" target="_top" xlink:title="Main file and functions of the emergency station application. ">
<polygon fill="white" stroke="black" points="0,-0.5 0,-28.5 123.822,-28.5 123.822,-0.5 0,-0.5"/>
<text text-anchor="start" x="8" y="-16.5" font-family="Helvetica,sans-Serif" font-size="10.00">rasPi&#45;EmergencyStation</text>
<text text-anchor="middle" x="61.9111" y="-6.5" font-family="Helvetica,sans-Serif" font-size="10.00">/main.c</text>
</a>
</g>
</g>
<!-- Node3&#45;&gt;Node4 -->
<g id="edge3" class="edge"><title>Node3&#45;&gt;Node4</title>
<path fill="none" stroke="midnightblue" d="M61.9111,-55.1641C61.9111,-46.1693 61.9111,-36.2205 61.9111,-28.5369"/>
<polygon fill="midnightblue" stroke="midnightblue" points="58.4112,-55.4463 61.9111,-65.4464 65.4112,-55.4464 58.4112,-55.4463"/>
</g>
<!-- Node5&#45;&gt;Node1 -->
<g id="edge6" class="edge"><title>Node5&#45;&gt;Node1</title>
<path fill="none" stroke="midnightblue" d="M382.366,-231.746C376.463,-240.164 370.216,-250.169 365.911,-260 356.35,-281.836 351.108,-309.288 348.666,-325.268"/>
<polygon fill="midnightblue" stroke="midnightblue" points="385.228,-233.761 388.297,-223.621 379.574,-229.634 385.228,-233.761"/>
</g>
<!-- Node5&#45;&gt;Node2 -->
<g id="edge5" class="edge"><title>Node5&#45;&gt;Node2</title>
<path fill="none" stroke="midnightblue" d="M366.055,-227.782C343.82,-238.097 314.602,-250.986 291.926,-260.446"/>
<polygon fill="midnightblue" stroke="midnightblue" points="367.546,-230.949 375.117,-223.537 364.576,-224.61 367.546,-230.949"/>
</g>
<!-- Node5&#45;&gt;Node6 -->
<g id="edge7" class="edge"><title>Node5&#45;&gt;Node6</title>
<path fill="none" stroke="midnightblue" d="M386.606,-186.561C382.2,-178.12 377.452,-168.28 373.911,-159 365.361,-136.593 358.906,-109.328 355.534,-93.5387"/>
<polygon fill="midnightblue" stroke="midnightblue" points="383.536,-188.242 391.353,-195.393 389.701,-184.928 383.536,-188.242"/>
</g>
<!-- Node8 -->
<g id="node8" class="node"><title>Node8</title>
<g id="a_node8"><a xlink:href="tcp_server_socket_comm_8h.html" target="_top" xlink:title="Server connection related function definitions. ">
<polygon fill="white" stroke="black" points="140.948,-130.5 140.948,-158.5 270.874,-158.5 270.874,-130.5 140.948,-130.5"/>
<text text-anchor="start" x="148.948" y="-146.5" font-family="Helvetica,sans-Serif" font-size="10.00">rasPi&#45;EmergencyStation</text>
<text text-anchor="middle" x="205.911" y="-136.5" font-family="Helvetica,sans-Serif" font-size="10.00">/tcpServerSocketComm.h</text>
</a>
</g>
</g>
<!-- Node5&#45;&gt;Node8 -->
<g id="edge10" class="edge"><title>Node5&#45;&gt;Node8</title>
<path fill="none" stroke="midnightblue" d="M349.266,-192.295C317.136,-181.807 275.855,-168.331 245.85,-158.537"/>
<polygon fill="midnightblue" stroke="midnightblue" points="348.329,-195.67 358.921,-195.446 350.501,-189.016 348.329,-195.67"/>
</g>
<!-- Node10 -->
<g id="node10" class="node"><title>Node10</title>
<g id="a_node10"><a xlink:href="mcast_messaging_8h.html" target="_top" xlink:title="FIle containing all the headers of the functions related to multicast communication. ">
<polygon fill="white" stroke="black" points="563,-130.5 563,-158.5 686.822,-158.5 686.822,-130.5 563,-130.5"/>
<text text-anchor="start" x="571" y="-146.5" font-family="Helvetica,sans-Serif" font-size="10.00">rasPi&#45;EmergencyStation</text>
<text text-anchor="middle" x="624.911" y="-136.5" font-family="Helvetica,sans-Serif" font-size="10.00">/mcastMessaging.h</text>
</a>
</g>
</g>
<!-- Node5&#45;&gt;Node10 -->
<g id="edge14" class="edge"><title>Node5&#45;&gt;Node10</title>
<path fill="none" stroke="midnightblue" d="M455.59,-192.7C493.416,-182.156 542.554,-168.458 578.144,-158.537"/>
<polygon fill="midnightblue" stroke="midnightblue" points="454.431,-189.39 445.738,-195.446 456.311,-196.133 454.431,-189.39"/>
</g>
<!-- Node12 -->
<g id="node12" class="node"><title>Node12</title>
<g id="a_node12"><a xlink:href="msg_buffers_8c.html" target="_top" xlink:title="File containing the definitions of all functions related to the message mailboxes. ">
<polygon fill="white" stroke="black" points="383,-130.5 383,-158.5 506.822,-158.5 506.822,-130.5 383,-130.5"/>
<text text-anchor="start" x="391" y="-146.5" font-family="Helvetica,sans-Serif" font-size="10.00">rasPi&#45;EmergencyStation</text>
<text text-anchor="middle" x="444.911" y="-136.5" font-family="Helvetica,sans-Serif" font-size="10.00">/msgBuffers.c</text>
</a>
</g>
</g>
<!-- Node5&#45;&gt;Node12 -->
<g id="edge17" class="edge"><title>Node5&#45;&gt;Node12</title>
<path fill="none" stroke="midnightblue" d="M414.448,-187.221C421.39,-177.713 429.35,-166.812 435.392,-158.537"/>
<polygon fill="midnightblue" stroke="midnightblue" points="411.513,-185.306 408.442,-195.446 417.166,-189.434 411.513,-185.306"/>
</g>
<!-- Node6&#45;&gt;Node2 -->
<g id="edge8" class="edge"><title>Node6&#45;&gt;Node2</title>
<path fill="none" stroke="midnightblue" d="M346.283,-102.901C329.385,-143.409 287.187,-227.652 267.141,-260.234"/>
<polygon fill="midnightblue" stroke="midnightblue" points="349.539,-104.188 350.006,-93.6033 343.04,-101.586 349.539,-104.188"/>
</g>
<!-- Node7 -->
<g id="node7" class="node"><title>Node7</title>
<g id="a_node7"><a xlink:href="station_actions_8c.html" target="_top" xlink:title="FIle containing all the station action definitions. ">
<polygon fill="white" stroke="black" points="291,-0.5 291,-28.5 414.822,-28.5 414.822,-0.5 291,-0.5"/>
<text text-anchor="start" x="299" y="-16.5" font-family="Helvetica,sans-Serif" font-size="10.00">rasPi&#45;EmergencyStation</text>
<text text-anchor="middle" x="352.911" y="-6.5" font-family="Helvetica,sans-Serif" font-size="10.00">/stationActions.c</text>
</a>
</g>
</g>
<!-- Node6&#45;&gt;Node7 -->
<g id="edge9" class="edge"><title>Node6&#45;&gt;Node7</title>
<path fill="none" stroke="midnightblue" d="M352.911,-55.1641C352.911,-46.1693 352.911,-36.2205 352.911,-28.5369"/>
<polygon fill="midnightblue" stroke="midnightblue" points="349.411,-55.4463 352.911,-65.4464 356.411,-55.4464 349.411,-55.4463"/>
</g>
<!-- Node8&#45;&gt;Node3 -->
<g id="edge12" class="edge"><title>Node8&#45;&gt;Node3</title>
<path fill="none" stroke="midnightblue" d="M166.682,-126.337C143.047,-115.997 113.422,-103.036 91.7098,-93.5369"/>
<polygon fill="midnightblue" stroke="midnightblue" points="165.51,-129.645 176.074,-130.446 168.316,-123.232 165.51,-129.645"/>
</g>
<!-- Node8&#45;&gt;Node6 -->
<g id="edge11" class="edge"><title>Node8&#45;&gt;Node6</title>
<path fill="none" stroke="midnightblue" d="M245.636,-126.475C269.816,-116.112 300.229,-103.078 322.492,-93.5369"/>
<polygon fill="midnightblue" stroke="midnightblue" points="244.182,-123.29 236.37,-130.446 246.94,-129.724 244.182,-123.29"/>
</g>
<!-- Node9 -->
<g id="node9" class="node"><title>Node9</title>
<g id="a_node9"><a xlink:href="tcp_server_socket_comm_8c.html" target="_top" xlink:title="Server connection related function headers. ">
<polygon fill="white" stroke="black" points="142.229,-65.5 142.229,-93.5 271.593,-93.5 271.593,-65.5 142.229,-65.5"/>
<text text-anchor="start" x="150.229" y="-81.5" font-family="Helvetica,sans-Serif" font-size="10.00">rasPi&#45;EmergencyStation</text>
<text text-anchor="middle" x="206.911" y="-71.5" font-family="Helvetica,sans-Serif" font-size="10.00">/tcpServerSocketComm.c</text>
</a>
</g>
</g>
<!-- Node8&#45;&gt;Node9 -->
<g id="edge13" class="edge"><title>Node8&#45;&gt;Node9</title>
<path fill="none" stroke="midnightblue" d="M206.282,-120.164C206.424,-111.169 206.582,-101.221 206.704,-93.5369"/>
<polygon fill="midnightblue" stroke="midnightblue" points="202.778,-120.392 206.118,-130.446 209.777,-120.503 202.778,-120.392"/>
</g>
<!-- Node10&#45;&gt;Node6 -->
<g id="edge15" class="edge"><title>Node10&#45;&gt;Node6</title>
<path fill="none" stroke="midnightblue" d="M558.72,-128.169C512.936,-117.565 452.67,-103.606 409.198,-93.5369"/>
<polygon fill="midnightblue" stroke="midnightblue" points="558.021,-131.6 568.553,-130.446 559.6,-124.78 558.021,-131.6"/>
</g>
<!-- Node11 -->
<g id="node11" class="node"><title>Node11</title>
<g id="a_node11"><a xlink:href="mcast_messaging_8c.html" target="_top" xlink:title="FIle containing all the definition of the functions related to multicast communication. ">
<polygon fill="white" stroke="black" points="563,-65.5 563,-93.5 686.822,-93.5 686.822,-65.5 563,-65.5"/>
<text text-anchor="start" x="571" y="-81.5" font-family="Helvetica,sans-Serif" font-size="10.00">rasPi&#45;EmergencyStation</text>
<text text-anchor="middle" x="624.911" y="-71.5" font-family="Helvetica,sans-Serif" font-size="10.00">/mcastMessaging.c</text>
</a>
</g>
</g>
<!-- Node10&#45;&gt;Node11 -->
<g id="edge16" class="edge"><title>Node10&#45;&gt;Node11</title>
<path fill="none" stroke="midnightblue" d="M624.911,-120.164C624.911,-111.169 624.911,-101.221 624.911,-93.5369"/>
<polygon fill="midnightblue" stroke="midnightblue" points="621.411,-120.446 624.911,-130.446 628.411,-120.446 621.411,-120.446"/>
</g>
</g>
</svg>
