<?xml version="1.0" encoding="UTF-8" standalone="no"?>
<!DOCTYPE svg PUBLIC "-//W3C//DTD SVG 1.1//EN"
 "http://www.w3.org/Graphics/SVG/1.1/DTD/svg11.dtd">
<!-- Generated by graphviz version 2.38.0 (20140413.2041)
 -->
<!-- Title: SSC_makeServerConnection Pages: 1 -->
<svg width="934pt" height="46pt"
 viewBox="0.00 0.00 934.31 46.00" xmlns="http://www.w3.org/2000/svg" xmlns:xlink="http://www.w3.org/1999/xlink">
<g id="graph0" class="graph" transform="scale(1 1) rotate(0) translate(4 42)">
<title>SSC_makeServerConnection</title>
<polygon fill="white" stroke="none" points="-4,4 -4,-42 930.312,-42 930.312,4 -4,4"/>
<!-- Node1 -->
<g id="node1" class="node"><title>Node1</title>
<polygon fill="#bfbfbf" stroke="black" points="0,-19.5 0,-37.5 146.62,-37.5 146.62,-19.5 0,-19.5"/>
<text text-anchor="middle" x="73.3101" y="-25.5" font-family="Helvetica,sans-Serif" font-size="10.00">SSC_makeServerConnection</text>
</g>
<!-- Node2 -->
<g id="node2" class="node"><title>Node2</title>
<g id="a_node2"><a xlink:href="tcp_server_socket_comm_8h.html#a64aaa41ac5e2fbe7f8ba88c053b49ff9" target="_top" xlink:title="Initialize the connection to the server. ">
<polygon fill="white" stroke="black" points="550.077,-19.5 550.077,-37.5 685.027,-37.5 685.027,-19.5 550.077,-19.5"/>
<text text-anchor="middle" x="617.552" y="-25.5" font-family="Helvetica,sans-Serif" font-size="10.00">SSC_initServerConnection</text>
</a>
</g>
</g>
<!-- Node1&#45;&gt;Node2 -->
<g id="edge1" class="edge"><title>Node1&#45;&gt;Node2</title>
<path fill="none" stroke="midnightblue" d="M157.048,-28.5C264.741,-28.5 450.848,-28.5 549.944,-28.5"/>
<polygon fill="midnightblue" stroke="midnightblue" points="156.877,-25.0001 146.877,-28.5 156.877,-32.0001 156.877,-25.0001"/>
</g>
<!-- Node5 -->
<g id="node5" class="node"><title>Node5</title>
<g id="a_node5"><a xlink:href="tcp_server_socket_comm_8h.html#ae54218394dd621113d0f73ec6ef8f873" target="_top" xlink:title="Thread to listen to messages coming from the server. ">
<polygon fill="white" stroke="black" points="182.62,-0.5 182.62,-18.5 333.127,-18.5 333.127,-0.5 182.62,-0.5"/>
<text text-anchor="middle" x="257.874" y="-6.5" font-family="Helvetica,sans-Serif" font-size="10.00">SSC_msgListenerThreadFunc</text>
</a>
</g>
</g>
<!-- Node1&#45;&gt;Node5 -->
<g id="edge4" class="edge"><title>Node1&#45;&gt;Node5</title>
<path fill="none" stroke="midnightblue" d="M156.723,-19.923C165.295,-19.0308 173.973,-18.1277 182.45,-17.2455"/>
<polygon fill="midnightblue" stroke="midnightblue" points="156.31,-16.447 146.726,-20.9634 157.035,-23.4094 156.31,-16.447"/>
</g>
<!-- Node3 -->
<g id="node3" class="node"><title>Node3</title>
<g id="a_node3"><a xlink:href="main_8c.html#aea1c0564829983a4a1da026f1640f762" target="_top" xlink:title="Thread for controlling the server client initialization and shutdown. ">
<polygon fill="white" stroke="black" points="721.027,-19.5 721.027,-37.5 852.638,-37.5 852.638,-19.5 721.027,-19.5"/>
<text text-anchor="middle" x="786.833" y="-25.5" font-family="Helvetica,sans-Serif" font-size="10.00">serverConnControlThread</text>
</a>
</g>
</g>
<!-- Node2&#45;&gt;Node3 -->
<g id="edge2" class="edge"><title>Node2&#45;&gt;Node3</title>
<path fill="none" stroke="midnightblue" d="M695.153,-28.5C703.734,-28.5 712.415,-28.5 720.831,-28.5"/>
<polygon fill="midnightblue" stroke="midnightblue" points="695.147,-25.0001 685.146,-28.5 695.146,-32.0001 695.147,-25.0001"/>
</g>
<!-- Node4 -->
<g id="node4" class="node"><title>Node4</title>
<g id="a_node4"><a xlink:href="main_8c.html#ac0f2228420376f4db7e1274f2b41667c" target="_top" xlink:title="main">
<polygon fill="white" stroke="black" points="888.638,-19.5 888.638,-37.5 926.312,-37.5 926.312,-19.5 888.638,-19.5"/>
<text text-anchor="middle" x="907.475" y="-25.5" font-family="Helvetica,sans-Serif" font-size="10.00">main</text>
</a>
</g>
</g>
<!-- Node3&#45;&gt;Node4 -->
<g id="edge3" class="edge"><title>Node3&#45;&gt;Node4</title>
<path fill="none" stroke="midnightblue" d="M862.798,-28.5C872.323,-28.5 881.268,-28.5 888.552,-28.5"/>
<polygon fill="midnightblue" stroke="midnightblue" points="862.708,-25.0001 852.708,-28.5 862.708,-32.0001 862.708,-25.0001"/>
</g>
<!-- Node6 -->
<g id="node6" class="node"><title>Node6</title>
<g id="a_node6"><a xlink:href="tcp_server_socket_comm_8h.html#aefcfff31ea3a9b0d92a83ab83c9874f9" target="_top" xlink:title="Start the threads for listening and sending messages to the server. ">
<polygon fill="white" stroke="black" points="369.127,-0.5 369.127,-18.5 514.077,-18.5 514.077,-0.5 369.127,-0.5"/>
<text text-anchor="middle" x="441.602" y="-6.5" font-family="Helvetica,sans-Serif" font-size="10.00">SSC_initServerConnThreads</text>
</a>
</g>
</g>
<!-- Node5&#45;&gt;Node6 -->
<g id="edge5" class="edge"><title>Node5&#45;&gt;Node6</title>
<path fill="none" stroke="midnightblue" d="M343.589,-9.5C352.059,-9.5 360.6,-9.5 368.917,-9.5"/>
<polygon fill="midnightblue" stroke="midnightblue" points="343.314,-6.0001 333.314,-9.5 343.314,-13.0001 343.314,-6.0001"/>
</g>
<!-- Node6&#45;&gt;Node2 -->
<g id="edge6" class="edge"><title>Node6&#45;&gt;Node2</title>
<path fill="none" stroke="midnightblue" d="M524.223,-18.4151C532.885,-19.3613 541.618,-20.3152 550.077,-21.2391"/>
<polygon fill="midnightblue" stroke="midnightblue" points="524.428,-14.9169 514.107,-17.3103 523.668,-21.8755 524.428,-14.9169"/>
</g>
</g>
</svg>
