<?xml version="1.0" encoding="UTF-8" standalone="no"?>
<!DOCTYPE svg PUBLIC "-//W3C//DTD SVG 1.1//EN"
 "http://www.w3.org/Graphics/SVG/1.1/DTD/svg11.dtd">
<!-- Generated by graphviz version 2.38.0 (20140413.2041)
 -->
<!-- Title: rasPi&#45;EmergencyStation/tcpVehicleSocketComm.h Pages: 1 -->
<svg width="845pt" height="312pt"
 viewBox="0.00 0.00 844.68 312.00" xmlns="http://www.w3.org/2000/svg" xmlns:xlink="http://www.w3.org/1999/xlink">
<g id="graph0" class="graph" transform="scale(1 1) rotate(0) translate(4 308)">
<title>rasPi&#45;EmergencyStation/tcpVehicleSocketComm.h</title>
<polygon fill="white" stroke="none" points="-4,4 -4,-308 840.682,-308 840.682,4 -4,4"/>
<!-- Node1 -->
<g id="node1" class="node"><title>Node1</title>
<polygon fill="#bfbfbf" stroke="black" points="302.638,-275.5 302.638,-303.5 435.362,-303.5 435.362,-275.5 302.638,-275.5"/>
<text text-anchor="start" x="310.638" y="-291.5" font-family="Helvetica,sans-Serif" font-size="10.00">rasPi&#45;EmergencyStation</text>
<text text-anchor="middle" x="369" y="-281.5" font-family="Helvetica,sans-Serif" font-size="10.00">/tcpVehicleSocketComm.h</text>
</g>
<!-- Node2 -->
<g id="node2" class="node"><title>Node2</title>
<polygon fill="white" stroke="#bfbfbf" points="162.269,-0.5 162.269,-18.5 207.731,-18.5 207.731,-0.5 162.269,-0.5"/>
<text text-anchor="middle" x="185" y="-6.5" font-family="Helvetica,sans-Serif" font-size="10.00">stdio.h</text>
</g>
<!-- Node1&#45;&gt;Node2 -->
<g id="edge1" class="edge"><title>Node1&#45;&gt;Node2</title>
<path fill="none" stroke="midnightblue" d="M302.604,-281.901C196.367,-269.48 0,-238.06 0,-175.5 0,-175.5 0,-175.5 0,-118.5 0,-48.9422 98.7461,-23.3746 151.952,-14.6469"/>
<polygon fill="midnightblue" stroke="midnightblue" points="152.588,-18.0904 161.944,-13.1178 151.529,-11.171 152.588,-18.0904"/>
</g>
<!-- Node3 -->
<g id="node3" class="node"><title>Node3</title>
<polygon fill="white" stroke="#bfbfbf" points="90.1577,-55.5 90.1577,-73.5 137.842,-73.5 137.842,-55.5 90.1577,-55.5"/>
<text text-anchor="middle" x="114" y="-61.5" font-family="Helvetica,sans-Serif" font-size="10.00">stdlib.h</text>
</g>
<!-- Node1&#45;&gt;Node3 -->
<g id="edge2" class="edge"><title>Node1&#45;&gt;Node3</title>
<path fill="none" stroke="midnightblue" d="M302.41,-282.798C264.88,-276.772 218.88,-264.397 185,-239 139.197,-204.665 135.19,-183.602 118,-129 113.378,-114.318 112.602,-96.8059 112.855,-83.8943"/>
<polygon fill="midnightblue" stroke="midnightblue" points="116.368,-83.6831 113.296,-73.5433 109.374,-83.3853 116.368,-83.6831"/>
</g>
<!-- Node4 -->
<g id="node4" class="node"><title>Node4</title>
<polygon fill="white" stroke="#bfbfbf" points="374.488,-55.5 374.488,-73.5 425.512,-73.5 425.512,-55.5 374.488,-55.5"/>
<text text-anchor="middle" x="400" y="-61.5" font-family="Helvetica,sans-Serif" font-size="10.00">unistd.h</text>
</g>
<!-- Node1&#45;&gt;Node4 -->
<g id="edge3" class="edge"><title>Node1&#45;&gt;Node4</title>
<path fill="none" stroke="midnightblue" d="M435.533,-278.642C554.649,-258.343 784.522,-205.573 702,-110 667.998,-70.6204 508.504,-65.4699 436.017,-65.2079"/>
<polygon fill="midnightblue" stroke="midnightblue" points="435.981,-61.708 425.978,-65.2012 435.976,-68.708 435.981,-61.708"/>
</g>
<!-- Node5 -->
<g id="node5" class="node"><title>Node5</title>
<polygon fill="white" stroke="#bfbfbf" points="473.604,-110.5 473.604,-128.5 522.396,-128.5 522.396,-110.5 473.604,-110.5"/>
<text text-anchor="middle" x="498" y="-116.5" font-family="Helvetica,sans-Serif" font-size="10.00">string.h</text>
</g>
<!-- Node1&#45;&gt;Node5 -->
<g id="edge4" class="edge"><title>Node1&#45;&gt;Node5</title>
<path fill="none" stroke="midnightblue" d="M379.122,-275.317C402.468,-244.914 460.027,-169.954 485.512,-136.764"/>
<polygon fill="midnightblue" stroke="midnightblue" points="488.48,-138.645 491.794,-128.582 482.928,-134.382 488.48,-138.645"/>
</g>
<!-- Node6 -->
<g id="node6" class="node"><title>Node6</title>
<polygon fill="white" stroke="#bfbfbf" points="421.537,-0.5 421.537,-18.5 486.463,-18.5 486.463,-0.5 421.537,-0.5"/>
<text text-anchor="middle" x="454" y="-6.5" font-family="Helvetica,sans-Serif" font-size="10.00">netinet/in.h</text>
</g>
<!-- Node1&#45;&gt;Node6 -->
<g id="edge5" class="edge"><title>Node1&#45;&gt;Node6</title>
<path fill="none" stroke="midnightblue" d="M435.6,-282.976C546.989,-271.882 759,-242.028 759,-175.5 759,-175.5 759,-175.5 759,-118.5 759,-63.4976 580.521,-29.4463 496.625,-16.4784"/>
<polygon fill="midnightblue" stroke="midnightblue" points="497.052,-13.0032 486.64,-14.9658 496.003,-19.9243 497.052,-13.0032"/>
</g>
<!-- Node7 -->
<g id="node7" class="node"><title>Node7</title>
<polygon fill="white" stroke="#bfbfbf" points="540.372,-110.5 540.372,-128.5 603.628,-128.5 603.628,-110.5 540.372,-110.5"/>
<text text-anchor="middle" x="572" y="-116.5" font-family="Helvetica,sans-Serif" font-size="10.00">arpa/inet.h</text>
</g>
<!-- Node1&#45;&gt;Node7 -->
<g id="edge6" class="edge"><title>Node1&#45;&gt;Node7</title>
<path fill="none" stroke="midnightblue" d="M384.799,-275.482C396.902,-265.505 414.014,-251.391 429,-239 474.293,-201.55 527.582,-157.356 554.52,-135.006"/>
<polygon fill="midnightblue" stroke="midnightblue" points="556.835,-137.633 562.296,-128.554 552.366,-132.246 556.835,-137.633"/>
</g>
<!-- Node8 -->
<g id="node8" class="node"><title>Node8</title>
<polygon fill="white" stroke="#bfbfbf" points="621.49,-110.5 621.49,-128.5 692.51,-128.5 692.51,-110.5 621.49,-110.5"/>
<text text-anchor="middle" x="657" y="-116.5" font-family="Helvetica,sans-Serif" font-size="10.00">sys/socket.h</text>
</g>
<!-- Node1&#45;&gt;Node8 -->
<g id="edge7" class="edge"><title>Node1&#45;&gt;Node8</title>
<path fill="none" stroke="midnightblue" d="M392.026,-275.315C409.362,-265.372 433.7,-251.377 455,-239 520.186,-201.121 596.921,-155.944 634.273,-133.915"/>
<polygon fill="midnightblue" stroke="midnightblue" points="636.472,-136.681 643.307,-128.585 632.916,-130.652 636.472,-136.681"/>
</g>
<!-- Node9 -->
<g id="node9" class="node"><title>Node9</title>
<polygon fill="white" stroke="#bfbfbf" points="787.318,-220.5 787.318,-238.5 836.682,-238.5 836.682,-220.5 787.318,-220.5"/>
<text text-anchor="middle" x="812" y="-226.5" font-family="Helvetica,sans-Serif" font-size="10.00">netdb.h</text>
</g>
<!-- Node1&#45;&gt;Node9 -->
<g id="edge8" class="edge"><title>Node1&#45;&gt;Node9</title>
<path fill="none" stroke="midnightblue" d="M435.404,-282.27C515.683,-274.3 654.743,-259.087 773,-239 774.452,-238.753 775.931,-238.489 777.424,-238.212"/>
<polygon fill="midnightblue" stroke="midnightblue" points="778.186,-241.629 787.31,-236.243 776.819,-234.764 778.186,-241.629"/>
</g>
<!-- Node10 -->
<g id="node10" class="node"><title>Node10</title>
<g id="a_node10"><a xlink:href="structures_8h.html" target="_top" xlink:title="File containing all the structure definitions used in the other modules. ">
<polygon fill="white" stroke="red" points="235.879,-55.5 235.879,-73.5 304.121,-73.5 304.121,-55.5 235.879,-55.5"/>
<text text-anchor="middle" x="270" y="-61.5" font-family="Helvetica,sans-Serif" font-size="10.00">structures.h</text>
</a>
</g>
</g>
<!-- Node1&#45;&gt;Node10 -->
<g id="edge9" class="edge"><title>Node1&#45;&gt;Node10</title>
<path fill="none" stroke="midnightblue" d="M361.118,-275.283C349.656,-255.749 328.108,-217.829 313,-184 297.437,-149.153 283.124,-106.795 275.58,-83.3282"/>
<polygon fill="midnightblue" stroke="midnightblue" points="278.887,-82.1784 272.526,-73.7052 272.215,-84.2955 278.887,-82.1784"/>
</g>
<!-- Node11 -->
<g id="node11" class="node"><title>Node11</title>
<g id="a_node11"><a xlink:href="msg_buffers_8h.html" target="_top" xlink:title="File containing the headers of all functions related to the message mailboxes. ">
<polygon fill="white" stroke="red" points="207.632,-220.5 207.632,-238.5 282.368,-238.5 282.368,-220.5 207.632,-220.5"/>
<text text-anchor="middle" x="245" y="-226.5" font-family="Helvetica,sans-Serif" font-size="10.00">msgBuffers.h</text>
</a>
</g>
</g>
<!-- Node1&#45;&gt;Node11 -->
<g id="edge12" class="edge"><title>Node1&#45;&gt;Node11</title>
<path fill="none" stroke="midnightblue" d="M341.172,-275.484C320.337,-265.738 292.014,-252.491 271.505,-242.898"/>
<polygon fill="midnightblue" stroke="midnightblue" points="272.951,-239.71 262.41,-238.643 269.985,-246.051 272.951,-239.71"/>
</g>
<!-- Node12 -->
<g id="node12" class="node"><title>Node12</title>
<g id="a_node12"><a xlink:href="message_parser_8h.html" target="_top" xlink:title="Message parser function headers. ">
<polygon fill="white" stroke="red" points="322.089,-165.5 322.089,-183.5 415.911,-183.5 415.911,-165.5 322.089,-165.5"/>
<text text-anchor="middle" x="369" y="-171.5" font-family="Helvetica,sans-Serif" font-size="10.00">messageParser.h</text>
</a>
</g>
</g>
<!-- Node1&#45;&gt;Node12 -->
<g id="edge34" class="edge"><title>Node1&#45;&gt;Node12</title>
<path fill="none" stroke="midnightblue" d="M364.445,-275.094C361.725,-254.889 361.533,-216.581 363.869,-193.817"/>
<polygon fill="midnightblue" stroke="midnightblue" points="367.355,-194.159 365.269,-183.772 360.422,-193.193 367.355,-194.159"/>
</g>
<!-- Node13 -->
<g id="node13" class="node"><title>Node13</title>
<g id="a_node13"><a xlink:href="station_actions_8h.html" target="_top" xlink:title="FIle containing all the station action headers. ">
<polygon fill="white" stroke="red" points="141.702,-110.5 141.702,-128.5 228.298,-128.5 228.298,-110.5 141.702,-110.5"/>
<text text-anchor="middle" x="185" y="-116.5" font-family="Helvetica,sans-Serif" font-size="10.00">stationActions.h</text>
</a>
</g>
</g>
<!-- Node1&#45;&gt;Node13 -->
<g id="edge35" class="edge"><title>Node1&#45;&gt;Node13</title>
<path fill="none" stroke="midnightblue" d="M302.542,-287.146C263.644,-282.971 217.112,-271.024 190,-239 165.98,-210.628 168.755,-163.807 175.663,-138.342"/>
<polygon fill="midnightblue" stroke="midnightblue" points="179.079,-139.162 178.927,-128.568 172.439,-136.944 179.079,-139.162"/>
</g>
<!-- Node10&#45;&gt;Node2 -->
<g id="edge10" class="edge"><title>Node10&#45;&gt;Node2</title>
<path fill="none" stroke="midnightblue" d="M257.09,-55.4504C243.735,-47.1232 222.641,-33.9704 206.714,-24.0394"/>
<polygon fill="midnightblue" stroke="midnightblue" points="208.369,-20.9464 198.031,-18.6253 204.665,-26.8863 208.369,-20.9464"/>
</g>
<!-- Node10&#45;&gt;Node6 -->
<g id="edge11" class="edge"><title>Node10&#45;&gt;Node6</title>
<path fill="none" stroke="midnightblue" d="M297.946,-55.4504C329.514,-46.3575 381.057,-31.5108 416.2,-21.3879"/>
<polygon fill="midnightblue" stroke="midnightblue" points="417.453,-24.6695 426.093,-18.5383 415.515,-17.943 417.453,-24.6695"/>
</g>
<!-- Node11&#45;&gt;Node2 -->
<g id="edge13" class="edge"><title>Node11&#45;&gt;Node2</title>
<path fill="none" stroke="midnightblue" d="M228.445,-220.441C191.521,-201.298 103.885,-149.017 81,-74 78.536,-65.923 76.3494,-62.0484 81,-55 96.71,-31.1902 128.073,-20.0734 152.269,-14.9109"/>
<polygon fill="midnightblue" stroke="midnightblue" points="152.959,-18.3425 162.133,-13.0433 151.657,-11.4647 152.959,-18.3425"/>
</g>
<!-- Node11&#45;&gt;Node10 -->
<g id="edge14" class="edge"><title>Node11&#45;&gt;Node10</title>
<path fill="none" stroke="midnightblue" d="M246.274,-220.193C250.136,-195.013 261.777,-119.114 267.184,-83.8621"/>
<polygon fill="midnightblue" stroke="midnightblue" points="270.702,-84.0122 268.758,-73.5971 263.782,-82.9509 270.702,-84.0122"/>
</g>
<!-- Node11&#45;&gt;Node12 -->
<g id="edge15" class="edge"><title>Node11&#45;&gt;Node12</title>
<path fill="none" stroke="midnightblue" d="M258.824,-220.45C277.355,-211.656 310.278,-197.48 335.416,-187.401"/>
<polygon fill="midnightblue" stroke="midnightblue" points="336.951,-190.557 344.963,-183.625 334.377,-184.048 336.951,-190.557"/>
</g>
<!-- Node12&#45;&gt;Node1 -->
<g id="edge25" class="edge"><title>Node12&#45;&gt;Node1</title>
<path fill="none" stroke="midnightblue" d="M372.731,-183.772C375.979,-200.626 376.606,-239.491 374.612,-264.842"/>
<polygon fill="midnightblue" stroke="midnightblue" points="371.099,-264.787 373.555,-275.094 378.062,-265.506 371.099,-264.787"/>
</g>
<!-- Node12&#45;&gt;Node2 -->
<g id="edge16" class="edge"><title>Node12&#45;&gt;Node2</title>
<path fill="none" stroke="midnightblue" d="M367.416,-165.29C362.882,-143.969 347.868,-86.3273 313,-55 286.464,-31.1584 246.457,-19.9481 218.247,-14.7702"/>
<polygon fill="midnightblue" stroke="midnightblue" points="218.506,-11.2649 208.065,-13.0673 217.351,-18.169 218.506,-11.2649"/>
</g>
<!-- Node12&#45;&gt;Node3 -->
<g id="edge18" class="edge"><title>Node12&#45;&gt;Node3</title>
<path fill="none" stroke="midnightblue" d="M321.992,-170.352C261.298,-165.347 160.224,-153.521 133,-129 120.451,-117.697 116.046,-98.4832 114.572,-84.1441"/>
<polygon fill="midnightblue" stroke="midnightblue" points="118.05,-83.6897 113.918,-73.9338 111.064,-84.1371 118.05,-83.6897"/>
</g>
<!-- Node12&#45;&gt;Node4 -->
<g id="edge22" class="edge"><title>Node12&#45;&gt;Node4</title>
<path fill="none" stroke="midnightblue" d="M371.958,-165.359C375.133,-156.483 380.228,-141.828 384,-129 388.465,-113.815 392.805,-96.3664 395.836,-83.6068"/>
<polygon fill="midnightblue" stroke="midnightblue" points="399.266,-84.3097 398.133,-73.7757 392.45,-82.7172 399.266,-84.3097"/>
</g>
<!-- Node12&#45;&gt;Node5 -->
<g id="edge17" class="edge"><title>Node12&#45;&gt;Node5</title>
<path fill="none" stroke="midnightblue" d="M388.592,-165.45C409.902,-156.695 444.196,-142.606 468.708,-132.535"/>
<polygon fill="midnightblue" stroke="midnightblue" points="470.304,-135.663 478.223,-128.625 467.643,-129.188 470.304,-135.663"/>
</g>
<!-- Node12&#45;&gt;Node6 -->
<g id="edge19" class="edge"><title>Node12&#45;&gt;Node6</title>
<path fill="none" stroke="midnightblue" d="M375.071,-165.418C381.64,-156.592 392.336,-141.98 401,-129 416.954,-105.097 423.224,-100.214 435,-74 441.638,-59.2242 446.72,-41.4984 449.951,-28.5344"/>
<polygon fill="midnightblue" stroke="midnightblue" points="453.414,-29.0981 452.306,-18.5613 446.602,-27.4892 453.414,-29.0981"/>
</g>
<!-- Node12&#45;&gt;Node7 -->
<g id="edge20" class="edge"><title>Node12&#45;&gt;Node7</title>
<path fill="none" stroke="midnightblue" d="M399.831,-165.45C434.958,-156.279 492.502,-141.256 531.292,-131.128"/>
<polygon fill="midnightblue" stroke="midnightblue" points="532.42,-134.451 541.212,-128.538 530.652,-127.678 532.42,-134.451"/>
</g>
<!-- Node12&#45;&gt;Node8 -->
<g id="edge21" class="edge"><title>Node12&#45;&gt;Node8</title>
<path fill="none" stroke="midnightblue" d="M413.997,-165.439C460.873,-157.008 536.725,-143.276 611.414,-129.284"/>
<polygon fill="midnightblue" stroke="midnightblue" points="612.282,-132.682 621.465,-127.398 610.991,-125.802 612.282,-132.682"/>
</g>
<!-- Node12&#45;&gt;Node10 -->
<g id="edge23" class="edge"><title>Node12&#45;&gt;Node10</title>
<path fill="none" stroke="midnightblue" d="M361.559,-165.382C345.219,-147.557 305.954,-104.723 284.536,-81.357"/>
<polygon fill="midnightblue" stroke="midnightblue" points="286.865,-78.7183 277.527,-73.7118 281.705,-83.4484 286.865,-78.7183"/>
</g>
<!-- Node12&#45;&gt;Node11 -->
<g id="edge24" class="edge"><title>Node12&#45;&gt;Node11</title>
<path fill="none" stroke="midnightblue" d="M355.017,-183.625C336.403,-192.45 303.462,-206.63 278.368,-216.686"/>
<polygon fill="midnightblue" stroke="midnightblue" points="276.856,-213.52 268.842,-220.45 279.429,-220.03 276.856,-213.52"/>
</g>
<!-- Node12&#45;&gt;Node13 -->
<g id="edge26" class="edge"><title>Node12&#45;&gt;Node13</title>
<path fill="none" stroke="midnightblue" d="M336.045,-165.45C302.508,-156.396 251.075,-141.638 217.654,-131.519"/>
<polygon fill="midnightblue" stroke="midnightblue" points="218.486,-128.113 207.9,-128.538 216.441,-134.808 218.486,-128.113"/>
</g>
<!-- Node13&#45;&gt;Node1 -->
<g id="edge33" class="edge"><title>Node13&#45;&gt;Node1</title>
<path fill="none" stroke="midnightblue" d="M187.548,-128.568C188.163,-149.546 180.426,-206.43 208,-239 229.149,-263.98 262.114,-276.744 292.759,-283.132"/>
<polygon fill="midnightblue" stroke="midnightblue" points="292.135,-286.576 302.61,-284.989 293.432,-279.697 292.135,-286.576"/>
</g>
<!-- Node13&#45;&gt;Node2 -->
<g id="edge27" class="edge"><title>Node13&#45;&gt;Node2</title>
<path fill="none" stroke="midnightblue" d="M185,-110.382C185,-93.1822 185,-52.698 185,-28.8866"/>
<polygon fill="midnightblue" stroke="midnightblue" points="188.5,-28.7117 185,-18.7118 181.5,-28.7118 188.5,-28.7117"/>
</g>
<!-- Node13&#45;&gt;Node3 -->
<g id="edge28" class="edge"><title>Node13&#45;&gt;Node3</title>
<path fill="none" stroke="midnightblue" d="M174.217,-110.45C163.374,-102.357 146.424,-89.7042 133.267,-79.8822"/>
<polygon fill="midnightblue" stroke="midnightblue" points="134.992,-76.8025 124.885,-73.6253 130.805,-82.412 134.992,-76.8025"/>
</g>
<!-- Node13&#45;&gt;Node4 -->
<g id="edge29" class="edge"><title>Node13&#45;&gt;Node4</title>
<path fill="none" stroke="midnightblue" d="M217.654,-110.45C257.29,-100.68 323.874,-84.2659 364.677,-74.2076"/>
<polygon fill="midnightblue" stroke="midnightblue" points="365.591,-77.5871 374.462,-71.7953 363.915,-70.7906 365.591,-77.5871"/>
</g>
<!-- Node13&#45;&gt;Node10 -->
<g id="edge30" class="edge"><title>Node13&#45;&gt;Node10</title>
<path fill="none" stroke="midnightblue" d="M197.91,-110.45C211.265,-102.123 232.359,-88.9704 248.286,-79.0394"/>
<polygon fill="midnightblue" stroke="midnightblue" points="250.335,-81.8863 256.969,-73.6253 246.631,-75.9464 250.335,-81.8863"/>
</g>
<!-- Node13&#45;&gt;Node11 -->
<g id="edge32" class="edge"><title>Node13&#45;&gt;Node11</title>
<path fill="none" stroke="midnightblue" d="M189.562,-128.712C199.339,-146.311 222.485,-187.973 235.568,-211.522"/>
<polygon fill="midnightblue" stroke="midnightblue" points="232.574,-213.341 240.49,-220.382 238.693,-209.941 232.574,-213.341"/>
</g>
<!-- Node13&#45;&gt;Node12 -->
<g id="edge31" class="edge"><title>Node13&#45;&gt;Node12</title>
<path fill="none" stroke="midnightblue" d="M217.913,-128.538C251.435,-137.588 302.868,-152.345 336.304,-162.469"/>
<polygon fill="midnightblue" stroke="midnightblue" points="335.477,-165.876 346.064,-165.45 337.523,-159.181 335.477,-165.876"/>
</g>
</g>
</svg>
