<?xml version="1.0" encoding="UTF-8" standalone="no"?>
<!DOCTYPE svg PUBLIC "-//W3C//DTD SVG 1.1//EN"
 "http://www.w3.org/Graphics/SVG/1.1/DTD/svg11.dtd">
<!-- Generated by graphviz version 2.38.0 (20140413.2041)
 -->
<!-- Title: SSC_msgListenerThreadFunc Pages: 1 -->
<svg width="752pt" height="27pt"
 viewBox="0.00 0.00 751.69 27.00" xmlns="http://www.w3.org/2000/svg" xmlns:xlink="http://www.w3.org/1999/xlink">
<g id="graph0" class="graph" transform="scale(1 1) rotate(0) translate(4 23)">
<title>SSC_msgListenerThreadFunc</title>
<polygon fill="white" stroke="none" points="-4,4 -4,-23 747.692,-23 747.692,4 -4,4"/>
<!-- Node1 -->
<g id="node1" class="node"><title>Node1</title>
<polygon fill="#bfbfbf" stroke="black" points="0,-0.5 0,-18.5 150.507,-18.5 150.507,-0.5 0,-0.5"/>
<text text-anchor="middle" x="75.2534" y="-6.5" font-family="Helvetica,sans-Serif" font-size="10.00">SSC_msgListenerThreadFunc</text>
</g>
<!-- Node2 -->
<g id="node2" class="node"><title>Node2</title>
<g id="a_node2"><a xlink:href="tcp_server_socket_comm_8h.html#aefcfff31ea3a9b0d92a83ab83c9874f9" target="_top" xlink:title="Start the threads for listening and sending messages to the server. ">
<polygon fill="white" stroke="black" points="186.507,-0.5 186.507,-18.5 331.457,-18.5 331.457,-0.5 186.507,-0.5"/>
<text text-anchor="middle" x="258.982" y="-6.5" font-family="Helvetica,sans-Serif" font-size="10.00">SSC_initServerConnThreads</text>
</a>
</g>
</g>
<!-- Node1&#45;&gt;Node2 -->
<g id="edge1" class="edge"><title>Node1&#45;&gt;Node2</title>
<path fill="none" stroke="midnightblue" d="M160.969,-9.5C169.439,-9.5 177.98,-9.5 186.297,-9.5"/>
<polygon fill="midnightblue" stroke="midnightblue" points="160.694,-6.0001 150.694,-9.5 160.694,-13.0001 160.694,-6.0001"/>
</g>
<!-- Node3 -->
<g id="node3" class="node"><title>Node3</title>
<g id="a_node3"><a xlink:href="tcp_server_socket_comm_8h.html#a64aaa41ac5e2fbe7f8ba88c053b49ff9" target="_top" xlink:title="Initialize the connection to the server. ">
<polygon fill="white" stroke="black" points="367.457,-0.5 367.457,-18.5 502.407,-18.5 502.407,-0.5 367.457,-0.5"/>
<text text-anchor="middle" x="434.932" y="-6.5" font-family="Helvetica,sans-Serif" font-size="10.00">SSC_initServerConnection</text>
</a>
</g>
</g>
<!-- Node2&#45;&gt;Node3 -->
<g id="edge2" class="edge"><title>Node2&#45;&gt;Node3</title>
<path fill="none" stroke="midnightblue" d="M341.602,-9.5C350.265,-9.5 358.998,-9.5 367.457,-9.5"/>
<polygon fill="midnightblue" stroke="midnightblue" points="341.487,-6.0001 331.487,-9.5 341.487,-13.0001 341.487,-6.0001"/>
</g>
<!-- Node4 -->
<g id="node4" class="node"><title>Node4</title>
<g id="a_node4"><a xlink:href="main_8c.html#aea1c0564829983a4a1da026f1640f762" target="_top" xlink:title="Thread for controlling the server client initialization and shutdown. ">
<polygon fill="white" stroke="black" points="538.407,-0.5 538.407,-18.5 670.018,-18.5 670.018,-0.5 538.407,-0.5"/>
<text text-anchor="middle" x="604.212" y="-6.5" font-family="Helvetica,sans-Serif" font-size="10.00">serverConnControlThread</text>
</a>
</g>
</g>
<!-- Node3&#45;&gt;Node4 -->
<g id="edge3" class="edge"><title>Node3&#45;&gt;Node4</title>
<path fill="none" stroke="midnightblue" d="M512.533,-9.5C521.114,-9.5 529.795,-9.5 538.211,-9.5"/>
<polygon fill="midnightblue" stroke="midnightblue" points="512.526,-6.0001 502.526,-9.5 512.526,-13.0001 512.526,-6.0001"/>
</g>
<!-- Node5 -->
<g id="node5" class="node"><title>Node5</title>
<g id="a_node5"><a xlink:href="main_8c.html#ac0f2228420376f4db7e1274f2b41667c" target="_top" xlink:title="main">
<polygon fill="white" stroke="black" points="706.018,-0.5 706.018,-18.5 743.692,-18.5 743.692,-0.5 706.018,-0.5"/>
<text text-anchor="middle" x="724.855" y="-6.5" font-family="Helvetica,sans-Serif" font-size="10.00">main</text>
</a>
</g>
</g>
<!-- Node4&#45;&gt;Node5 -->
<g id="edge4" class="edge"><title>Node4&#45;&gt;Node5</title>
<path fill="none" stroke="midnightblue" d="M680.178,-9.5C689.703,-9.5 698.648,-9.5 705.932,-9.5"/>
<polygon fill="midnightblue" stroke="midnightblue" points="680.088,-6.0001 670.088,-9.5 680.088,-13.0001 680.088,-6.0001"/>
</g>
</g>
</svg>
